<svg width="100" height="100" viewBox="0 0 100 100" fill="none" xmlns="http://www.w3.org/2000/svg">
<path d="M99.723 0.277954H0.277954V99.722H99.723V0.277954Z" fill="white"/>
<path d="M99.444 0.556V99.444H0.556V0.556H99.444ZM100 0H0V100H100V0Z" fill="#0D8C2F"/>
<path d="M89.586 43.171H11.583V56.499H89.586V43.171Z" fill="#E3282A"/>
<path d="M56.001 54.9871C56.001 55.0241 55.994 55.0311 55.959 55.0311H55.769C55.735 55.0311 55.727 55.0241 55.727 54.9871V53.8781H55.46C55.43 53.8781 55.426 53.8721 55.426 53.8421V53.6671C55.426 53.6381 55.432 53.6331 55.46 53.6331H56.301C56.343 53.6331 56.354 53.6361 56.354 53.6541C56.354 53.6651 56.352 53.6681 56.346 53.6831L56.305 53.8431C56.296 53.8771 56.274 53.8771 56.259 53.8771H56.005V54.9861H56.001V54.9871Z" fill="black"/>
<path d="M57.466 54.987C57.466 55.024 57.457 55.031 57.425 55.031H56.924C56.889 55.031 56.88 55.024 56.88 54.987V54.878C56.88 54.844 56.889 54.837 56.924 54.837H57.035V53.83H56.924C56.889 53.83 56.88 53.822 56.88 53.788V53.677C56.88 53.642 56.889 53.635 56.924 53.635H57.425C57.459 53.635 57.466 53.642 57.466 53.677V53.787C57.466 53.821 57.457 53.829 57.425 53.829H57.312V54.836H57.425C57.459 54.836 57.466 54.844 57.466 54.877V54.987Z" fill="black"/>
<path d="M58.975 54.987C58.975 55.024 58.969 55.031 58.934 55.031H58.262C58.227 55.031 58.219 55.024 58.219 54.987V53.676C58.219 53.641 58.227 53.634 58.262 53.634H58.932C58.973 53.634 58.983 53.637 58.983 53.655C58.983 53.667 58.981 53.668 58.977 53.684L58.938 53.82C58.929 53.853 58.908 53.854 58.89 53.854H58.494V54.19H58.842C58.878 54.19 58.885 54.198 58.885 54.232V54.367C58.885 54.403 58.876 54.409 58.842 54.409H58.494V54.81H58.932C58.969 54.81 58.975 54.817 58.975 54.852V54.987Z" fill="black"/>
<path d="M60.035 54.987C60.035 55.024 60.026 55.031 59.992 55.031H59.802C59.768 55.031 59.76 55.024 59.76 54.987V53.676C59.76 53.641 59.77 53.634 59.802 53.634H60.132C60.291 53.634 60.609 53.646 60.609 54.028C60.609 54.294 60.452 54.366 60.378 54.407L60.682 54.951C60.688 54.963 60.699 54.977 60.699 54.987C60.699 55 60.678 55.006 60.657 55.012L60.485 55.061C60.478 55.066 60.464 55.068 60.456 55.068C60.445 55.068 60.431 55.043 60.409 55.004L60.134 54.457H60.037V54.987H60.035ZM60.088 54.239C60.221 54.239 60.333 54.218 60.333 54.03C60.333 53.853 60.216 53.847 60.111 53.847H60.035V54.239H60.088Z" fill="black"/>
<path d="M61.897 54.987C61.897 55.024 61.889 55.031 61.855 55.031H61.355C61.32 55.031 61.311 55.024 61.311 54.987V54.878C61.311 54.844 61.321 54.837 61.355 54.837H61.466V53.83H61.355C61.32 53.83 61.311 53.822 61.311 53.788V53.677C61.311 53.642 61.321 53.635 61.355 53.635H61.855C61.89 53.635 61.897 53.642 61.897 53.677V53.787C61.897 53.821 61.889 53.829 61.855 53.829H61.743V54.836H61.855C61.89 54.836 61.897 54.844 61.897 54.877V54.987Z" fill="black"/>
<path d="M63.32 53.888C63.313 53.901 63.308 53.909 63.297 53.909C63.286 53.909 63.159 53.818 63.012 53.818C62.917 53.818 62.819 53.855 62.819 53.978C62.819 54.133 63.059 54.162 63.239 54.295C63.343 54.371 63.415 54.48 63.415 54.635C63.415 54.895 63.231 55.064 62.973 55.064C62.765 55.064 62.545 54.974 62.545 54.94C62.545 54.933 62.551 54.919 62.557 54.907L62.605 54.773C62.609 54.759 62.616 54.752 62.626 54.752C62.636 54.752 62.789 54.842 62.963 54.842C63.077 54.842 63.147 54.78 63.147 54.654C63.147 54.472 62.94 54.455 62.731 54.328C62.625 54.264 62.555 54.182 62.555 54.012C62.555 53.718 62.767 53.597 63.005 53.597C63.198 53.597 63.399 53.686 63.399 53.722C63.399 53.729 63.397 53.735 63.389 53.753L63.32 53.888Z" fill="black"/>
<path d="M64.945 54.904C64.953 54.916 64.957 54.925 64.957 54.934C64.957 54.968 64.817 55.066 64.616 55.066C64.26 55.066 64.088 54.832 64.088 54.342C64.088 53.872 64.264 53.597 64.616 53.597C64.77 53.597 64.953 53.71 64.953 53.747C64.953 53.757 64.953 53.763 64.941 53.779L64.865 53.891C64.856 53.904 64.85 53.912 64.84 53.912C64.805 53.912 64.736 53.814 64.63 53.814C64.455 53.814 64.377 53.935 64.377 54.288C64.377 54.635 64.42 54.843 64.63 54.843C64.744 54.843 64.818 54.767 64.859 54.767C64.869 54.767 64.871 54.774 64.882 54.788L64.945 54.904Z" fill="black"/>
<path d="M66.5921 54.987C66.5921 55.024 66.5841 55.031 66.5501 55.031H66.3601C66.3251 55.031 66.3181 55.024 66.3181 54.987V54.42H65.9291V54.987C65.9291 55.024 65.9211 55.031 65.8861 55.031H65.6961C65.6611 55.031 65.6541 55.024 65.6541 54.987V53.676C65.6541 53.641 65.6611 53.634 65.6961 53.634H65.8861C65.9221 53.634 65.9291 53.641 65.9291 53.676V54.198H66.3181V53.676C66.3181 53.641 66.3261 53.634 66.3601 53.634H66.5501C66.5841 53.634 66.5921 53.641 66.5921 53.676V54.987Z" fill="black"/>
<path d="M69.366 54.906C69.366 54.992 69.124 55.066 68.959 55.066C68.599 55.066 68.411 54.832 68.411 54.338C68.411 53.854 68.597 53.597 68.963 53.597C69.147 53.597 69.343 53.687 69.343 53.722C69.343 53.729 69.341 53.736 69.332 53.752L69.266 53.887C69.259 53.9 69.25 53.908 69.244 53.908C69.231 53.908 69.117 53.817 68.977 53.817C68.769 53.817 68.701 54.011 68.701 54.324C68.701 54.642 68.756 54.845 68.976 54.845C69.051 54.845 69.104 54.82 69.122 54.811V54.516H68.969C68.935 54.516 68.926 54.509 68.926 54.473V54.338C68.926 54.303 68.937 54.296 68.969 54.296H69.326C69.361 54.296 69.368 54.303 69.368 54.338V54.905H69.366V54.906Z" fill="black"/>
<path d="M71.13 54.5571C71.13 54.8631 71.025 55.0671 70.639 55.0671C70.252 55.0671 70.146 54.8631 70.146 54.5571V53.6761C70.146 53.6391 70.154 53.6331 70.188 53.6331H70.379C70.413 53.6331 70.419 53.6391 70.419 53.6761V54.5571C70.419 54.7041 70.431 54.8461 70.639 54.8461C70.844 54.8461 70.855 54.7041 70.855 54.5571V53.6761C70.855 53.6391 70.865 53.6331 70.898 53.6331H71.088C71.122 53.6331 71.13 53.6391 71.13 53.6761V54.5571Z" fill="black"/>
<path d="M72.334 54.9871C72.334 55.0241 72.325 55.0311 72.291 55.0311H72.102C72.066 55.0311 72.058 55.0241 72.058 54.9871V53.8781H71.79C71.762 53.8781 71.756 53.8721 71.756 53.8421V53.6671C71.756 53.6381 71.763 53.6331 71.79 53.6331H72.631C72.674 53.6331 72.686 53.6361 72.686 53.6541C72.686 53.6651 72.683 53.6681 72.677 53.6831L72.636 53.8431C72.626 53.8771 72.603 53.8771 72.589 53.8771H72.336L72.334 54.9871Z" fill="black"/>
<path d="M73.4881 55.066C73.3891 55.066 73.3141 54.985 73.3141 54.894C73.3141 54.792 73.3891 54.719 73.4881 54.719C73.5851 54.719 73.6591 54.797 73.6591 54.894C73.6591 54.985 73.5821 55.066 73.4881 55.066ZM73.5881 54.464C73.5851 54.503 73.5761 54.504 73.5451 54.504H73.4291C73.3991 54.504 73.3911 54.503 73.3871 54.464L73.3411 53.665C73.3391 53.63 73.3391 53.635 73.3391 53.625C73.3391 53.598 73.3601 53.598 73.3761 53.598H73.5941C73.6111 53.598 73.6351 53.598 73.6351 53.625C73.6351 53.636 73.6351 53.631 73.6331 53.665L73.5881 54.464Z" fill="black"/>
<path d="M14.069 46.0111H15.541C17.623 46.0111 18.746 47.3201 18.746 49.3641C18.746 52.4861 16.781 52.7731 15.667 52.7731H14.069V46.0111ZM15.9 51.1411C16.734 51.1321 16.879 50.0911 16.879 49.4551C16.879 48.7191 16.735 47.6971 15.9 47.6971V51.1411Z" fill="white"/>
<path d="M21.8419 52.7721L21.7069 51.9011H20.4779L20.3249 52.7721H18.4399L20.0649 46.0111H22.2989L23.7359 52.7721H21.8419ZM21.4919 50.4691L21.2939 48.8991C21.2399 48.4771 21.2039 48.0471 21.1589 47.6261H21.1409C21.0869 48.0471 21.0419 48.4771 20.9699 48.8991L20.7199 50.4691H21.4919Z" fill="white"/>
<path d="M23.9469 50.4951C24.1979 50.8711 24.6379 51.2481 25.1039 51.2481C25.3559 51.2481 25.6439 51.0961 25.6439 50.8001C25.6439 50.6381 25.5899 50.5221 25.4999 50.4231C25.4189 50.3221 25.3119 50.2421 25.1949 50.1611C24.8359 49.8831 24.5209 49.6221 24.2879 49.3001C24.0629 48.9861 23.9199 48.6091 23.9199 48.1161C23.9199 47.3271 24.4229 45.8921 25.9839 45.8921C26.4239 45.8921 26.8999 46.0271 27.2859 46.2331V48.2861C27.0699 47.9451 26.6299 47.5601 26.2079 47.5601C25.9929 47.5601 25.7319 47.7121 25.7319 47.9731C25.7319 48.1161 25.8129 48.2421 25.9109 48.3491C26.0099 48.4571 26.1449 48.5451 26.2439 48.6271C26.6289 48.8961 26.9339 49.1471 27.1399 49.4531C27.3559 49.7571 27.4729 50.1161 27.4729 50.6271C27.4729 51.8851 26.5939 52.8851 25.3189 52.8851C24.8519 52.8851 24.3759 52.7861 23.9449 52.6071V50.4921H23.9439V50.4951H23.9469Z" fill="white"/>
<path d="M29.548 52.7721V46.0111H32.779V47.6071H31.378V48.5831H32.689V50.1791H31.378V52.7721H29.548Z" fill="white"/>
<path d="M37.7169 46.0111V50.4311C37.7169 51.2481 37.5369 52.8901 35.4189 52.8901C33.2999 52.8901 33.1219 51.2481 33.1219 50.4311V46.0111H34.9529V50.2611C34.9529 50.4401 34.9439 50.6721 34.9979 50.8521C35.0509 51.0401 35.1669 51.1831 35.4189 51.1831C35.6789 51.1831 35.7959 51.0391 35.8409 50.8621C35.8949 50.6721 35.8859 50.4401 35.8859 50.2701V46.0111H37.7169Z" fill="white"/>
<path d="M39.0699 52.7721V47.6601H38.0649V46.0111H41.9519V47.6601H40.9019V52.7721H39.0699Z" fill="white"/>
<path d="M43.333 52.7721V47.6601H42.327V46.0111H46.213V47.6601H45.163V52.7721H43.333Z" fill="white"/>
<path d="M46.584 46.0111H49.986V47.6071H48.416V48.5471H49.824V50.1451H48.416V51.1751H49.986V52.7721H46.584V46.0111Z" fill="white"/>
<path d="M53.192 52.7721L52.177 49.9561L52.159 49.9731C52.168 50.3051 52.185 50.6371 52.185 50.9701V52.7721H50.355V46.0111H52.125C53.712 46.0111 54.862 46.4771 54.862 48.2611C54.862 49.0061 54.54 49.6691 53.809 49.9561L55.174 52.7721H53.192ZM52.304 49.1411C52.788 49.1411 53.048 48.7201 53.048 48.2801C53.048 47.6891 52.69 47.4381 52.187 47.4641V49.1321L52.304 49.1411Z" fill="white"/>
<path d="M58.093 52.7721V50.0281H57.222V52.7721H55.39V46.0111H57.222V48.4311H58.093V46.0111H59.923V52.7721H58.093Z" fill="white"/>
<path d="M63.548 52.7721L63.414 51.9011H62.184L62.034 52.7721H60.147L61.771 46.0111H64.006L65.442 52.7721H63.548ZM63.197 50.4691L63.002 48.8991C62.946 48.4771 62.911 48.0471 62.866 47.6261H62.848C62.793 48.0471 62.749 48.4771 62.677 48.8991L62.426 50.4691H63.197Z" fill="white"/>
<path d="M69.997 46.0111V50.4311C69.997 51.2481 69.816 52.8901 67.698 52.8901C65.579 52.8901 65.401 51.2481 65.401 50.4311V46.0111H67.231V50.2611C67.231 50.4401 67.221 50.6721 67.276 50.8521C67.33 51.0401 67.447 51.1831 67.698 51.1831C67.959 51.1831 68.076 51.0391 68.121 50.8621C68.175 50.6721 68.165 50.4401 68.165 50.2701V46.0111H69.997Z" fill="white"/>
<path d="M70.433 50.4951C70.683 50.8711 71.123 51.2481 71.589 51.2481C71.84 51.2481 72.129 51.0961 72.129 50.8001C72.129 50.6381 72.074 50.5221 71.984 50.4231C71.904 50.3221 71.795 50.2421 71.678 50.1611C71.319 49.8831 71.005 49.6221 70.772 49.3001C70.547 48.9861 70.405 48.6091 70.405 48.1161C70.405 47.3271 70.905 45.8921 72.468 45.8921C72.907 45.8921 73.382 46.0271 73.77 46.2331V48.2861C73.554 47.9451 73.115 47.5601 72.694 47.5601C72.475 47.5601 72.217 47.7121 72.217 47.9731C72.217 48.1161 72.298 48.2421 72.396 48.3491C72.496 48.4571 72.629 48.5451 72.729 48.6271C73.115 48.8961 73.42 49.1471 73.627 49.4531C73.841 49.7571 73.959 50.1161 73.959 50.6271C73.959 51.8851 73.079 52.8851 71.804 52.8851C71.337 52.8851 70.864 52.7861 70.432 52.6071V50.4951H70.433Z" fill="white"/>
<path d="M74.538 39.493C74.116 39.269 73.901 39.184 73.901 38.668C73.901 38.152 74.143 37.55 74.143 37.55C73.662 37.405 73.298 36.932 73.156 36.528C73.008 36.124 72.976 35.66 73.208 35.308C73.44 34.955 73.964 34.826 74.464 34.826C74.963 34.826 75.522 35.2641 75.557 35.6511C75.918 35.6341 75.953 35.6001 76.245 35.9011C76.537 36.2021 76.916 36.451 77.148 36.537C77.38 36.622 77.622 36.837 77.691 37.045C77.759 37.251 77.862 37.5031 78.117 37.6081C78.067 36.9771 78.395 36.1701 79.013 36.2691C79.269 36.0331 79.945 36.0861 80.006 37.0321C80.246 37.1511 80.354 37.197 80.547 37.197C80.743 37.197 80.845 37.143 80.906 37.114C80.968 37.085 81.08 37.007 81.223 37.139C81.369 37.271 81.818 37.959 81.988 38.375C82.054 38.542 82.12 38.7201 82.112 38.9691C82.101 39.3421 81.953 39.8471 81.638 40.5061C82.071 41.1821 82.55 41.977 82.545 42.523C82.55 42.987 82.006 43.3131 81.857 43.423C81.706 43.534 81.619 43.6151 81.711 43.923C81.804 44.2301 81.907 44.4281 81.839 44.5271C81.769 44.626 81.567 44.6311 81.403 44.6151C81.623 44.7881 81.735 44.933 81.758 45.119C81.78 45.305 81.699 45.827 81.648 45.973C81.834 46.352 82.068 46.99 82.789 47.774C83.51 48.558 84.736 49.365 85.463 50.203C86.191 51.039 86.482 51.9931 85.959 52.7891C86.681 53.3741 87.4 53.99 87 54.764C86.854 55.0131 86.573 55.333 85.645 55.333C84.715 55.333 79.545 55.321 79.226 55.321C78.906 55.321 78.61 55.21 78.61 55.21C78.61 55.21 77.092 55.3211 76.708 55.2701C76.453 55.2281 76.354 55.0131 76.354 55.0131C76.044 55.1471 75.562 55.066 75.389 54.786C75.215 54.507 75.382 53.606 75.709 53.182C75.638 52.659 75.87 51.275 78.098 52.287C78.162 51.259 78.226 50.114 78.168 49.771C78.051 49.139 77.718 47.9261 77.534 47.4831C77.024 46.2511 76.734 45.6091 76.509 45.2001C76.285 44.7891 76.297 44.488 76.66 44.106C77.024 43.723 77.492 43.5641 77.806 43.3181C77.794 43.0921 77.838 42.752 77.887 42.6311C77.935 42.509 78.129 42.507 78.295 42.523C78.292 42.275 78.016 40.839 77.462 39.937C77.217 39.957 77.093 39.991 76.997 39.8C76.899 39.608 76.791 39.434 76.735 39.425C76.68 39.417 76.542 39.782 76.265 39.958C75.988 40.134 75.862 40.203 75.509 40.203C75.147 40.206 74.805 40.014 74.538 39.493ZM78.876 35.6911C79.051 35.5821 79.081 35.582 79.248 35.653C79.418 35.725 79.495 35.602 79.68 35.632C79.865 35.663 80.149 36.066 80.231 36.479C80.207 36.007 80.104 35.327 79.83 35.348C79.558 35.369 79.499 35.5191 79.332 35.4481C79.103 35.3071 78.914 35.461 78.634 35.861C78.633 35.862 78.701 35.8001 78.876 35.6911Z" fill="black"/>
<path d="M82.595 37.295C82.595 37.462 82.46 37.598 82.293 37.598C82.126 37.598 81.991 37.462 81.991 37.295C81.991 37.129 82.126 36.994 82.293 36.994C82.46 36.994 82.595 37.129 82.595 37.295ZM82.293 37.052C82.158 37.052 82.049 37.161 82.049 37.296C82.049 37.432 82.158 37.541 82.293 37.541C82.428 37.541 82.538 37.432 82.538 37.296C82.538 37.161 82.428 37.052 82.293 37.052ZM82.177 37.124H82.327C82.362 37.124 82.387 37.133 82.405 37.151C82.421 37.169 82.429 37.195 82.429 37.233C82.429 37.26 82.424 37.283 82.413 37.3C82.403 37.318 82.389 37.328 82.37 37.334L82.442 37.484H82.373L82.31 37.343H82.237V37.484H82.177V37.124ZM82.313 37.188H82.238V37.279H82.313C82.334 37.279 82.349 37.276 82.356 37.269C82.364 37.261 82.368 37.249 82.368 37.234C82.368 37.217 82.362 37.206 82.356 37.198C82.349 37.191 82.333 37.188 82.313 37.188Z" fill="black"/>
<path d="M74.2541 36.146C73.8801 35.749 74.0541 35.501 74.2011 35.417C74.3481 35.332 74.8361 35.375 74.9631 35.596C75.0901 35.818 75.0721 36.352 74.8591 36.422C74.6511 36.489 74.4231 36.326 74.2541 36.146ZM79.7161 37.347C79.5811 38.03 79.2971 38.308 79.0291 38.294C78.7951 38.281 78.6071 37.975 78.6141 37.627C78.5881 37.717 78.5671 37.701 78.5391 37.712C78.5141 37.723 78.2811 37.685 78.2811 37.685C78.1801 37.035 78.4931 36.242 78.9851 36.422C79.0491 36.342 79.2911 36.21 79.4351 36.295C79.6741 36.437 79.8051 36.891 79.7161 37.347ZM78.6991 36.744C78.6031 36.691 78.4561 36.876 78.4291 37.025C78.4091 37.134 78.4451 37.321 78.5131 37.353C78.5821 37.385 78.6081 37.379 78.6991 37.285C78.6731 37.195 78.7101 36.925 78.7731 36.862C78.7731 36.861 78.7951 36.796 78.6991 36.744ZM79.1331 36.728C79.0011 36.704 78.8651 36.846 78.8231 37.05C78.8001 37.202 78.8261 37.406 78.9491 37.436C79.0751 37.468 79.1651 37.321 79.2021 37.193C79.2391 37.067 79.2691 36.752 79.1331 36.728ZM78.1251 42.746C78.0631 42.711 78.0511 43.043 78.0751 43.226C78.4981 43.967 79.4941 43.937 80.1141 43.749C80.0481 43.67 79.9181 43.431 79.8541 43.331C78.6361 43.624 78.1491 42.82 78.1251 42.746Z" fill="white"/>
<path d="M74.4111 37.7121C74.5031 37.9151 74.5791 38.0531 74.4981 38.3421C74.4151 38.6321 74.4861 39.1411 74.4861 39.1411C74.2421 38.9951 74.1201 38.8581 74.1311 38.5281C74.1451 38.1981 74.4111 37.7121 74.4111 37.7121ZM82.1341 42.5441C82.0011 42.9901 81.6881 43.2111 81.3301 43.3641C81.0921 43.5071 81.4341 44.2341 81.4341 44.2341C80.5241 43.7601 80.0731 43.1551 79.8861 42.3631C79.6981 41.5711 79.8161 40.5291 79.9631 40.0891C80.1111 39.6491 80.7741 38.8131 80.9971 38.6221L80.8431 38.0141C80.8431 38.0141 80.8571 38.3741 80.5091 38.8581C80.3111 39.1351 79.9761 39.5141 79.7281 40.0301C79.5431 40.4131 79.4081 41.1591 79.4081 41.4221C79.4081 41.8891 79.5511 42.8411 79.7601 43.1071C79.4961 43.1961 78.5901 43.1031 78.5901 42.8271C78.5901 42.5511 78.5561 42.1661 78.4001 41.6371C78.2441 41.1071 77.9541 40.1571 77.7631 39.8461C77.9261 39.7791 78.0691 39.7031 78.2201 39.8461C78.3701 39.9881 78.7001 40.0411 78.8831 39.8721C79.0651 39.7031 79.3551 39.3391 79.4651 39.0991C79.5591 39.1071 79.5811 39.2371 79.5811 39.2371C79.6841 39.1031 79.5901 38.9211 79.4691 38.9381C79.2421 39.2911 78.8791 39.7121 78.5991 39.7121C78.3191 39.7121 78.3351 39.3531 78.0811 39.3531C77.8281 39.3531 77.6101 39.6191 77.3391 39.5711C77.0811 39.5041 77.0641 39.0291 76.7661 38.9841C76.4691 38.9401 76.2681 39.7491 75.6811 39.7491C75.0941 39.7491 74.7241 39.1631 74.7241 38.8151C74.7241 38.4691 74.8351 38.1401 74.8351 37.8951C74.8351 37.6501 74.7841 37.5641 74.7841 37.5641C75.4291 37.2841 75.7821 36.8651 75.6981 36.0891C75.8081 36.0511 75.8861 36.0661 75.9851 36.1931C76.0871 36.3201 76.2511 36.4741 76.5051 36.5731C76.7581 36.6731 77.3191 36.8251 77.4191 37.0691C77.5201 37.3111 77.5281 37.4271 77.5691 37.5481C77.6071 37.6691 77.7131 37.9281 78.4721 38.0101C78.6811 38.4181 78.8751 38.5111 79.1071 38.5211C79.3371 38.5331 79.9441 38.2521 80.0031 37.3051C80.3891 37.4381 80.9801 37.6301 81.1271 37.3711C81.4811 37.9651 81.7861 38.4501 81.7381 39.1101C81.6901 39.7701 81.3321 40.5241 81.3321 40.5241C81.7711 41.2131 82.2661 42.0991 82.1341 42.5441ZM75.2571 38.7461C75.2231 38.7211 75.1551 38.7131 75.1161 38.7311C75.0811 38.7461 75.0231 38.8031 75.0331 38.8441C75.0461 38.8831 75.1091 38.9211 75.1291 38.9601C75.1451 38.9921 75.2331 38.8871 75.2371 38.8781C75.2641 38.8391 75.3121 38.7841 75.2571 38.7461ZM75.3531 38.3151C75.2921 38.2611 75.2251 38.2671 75.1631 38.3151C75.1231 38.3461 75.1281 38.3711 75.1511 38.4131C75.1781 38.4201 75.1621 38.4541 75.1671 38.4781C75.1951 38.5861 75.4491 38.4031 75.3531 38.3151ZM75.6621 38.1181C75.6511 38.0521 75.6391 37.9071 75.5441 37.9891C75.5001 38.0291 75.4851 38.0651 75.5061 38.1251C75.5221 38.1751 75.5591 38.2151 75.6091 38.2111C75.6561 38.2081 75.6681 38.1641 75.6621 38.1181ZM75.7471 37.3981C75.7741 37.3681 75.7851 37.2941 75.7731 37.2541C75.7651 37.2241 75.7031 37.1881 75.6621 37.1881C75.6031 37.1891 75.5471 37.2411 75.5701 37.3121C75.5681 37.3271 75.6111 37.3511 75.6211 37.3751C75.6281 37.3911 75.6161 37.4361 75.6281 37.4461C75.6551 37.4811 75.7281 37.4211 75.7471 37.3981ZM75.8401 38.7151C75.9241 38.7121 76.0081 38.5211 75.9161 38.4711C75.8601 38.4421 75.7941 38.4611 75.7551 38.5041C75.7331 38.5241 75.7741 38.5901 75.7741 38.6211C75.7741 38.6701 75.7801 38.7181 75.8401 38.7151ZM76.0971 38.8361C76.0471 38.7641 75.9751 38.8321 75.9151 38.8431C75.8101 38.8641 75.9531 39.0591 76.0191 39.0621C76.0721 39.0651 76.0541 38.9921 76.0741 38.9611C76.0941 38.9161 76.1361 38.8931 76.0971 38.8361ZM76.1911 38.0621C76.1891 38.0271 76.1341 37.9691 76.0791 38.0181C76.0681 38.0341 76.0161 38.0781 76.0341 38.1231C76.0461 38.1461 76.1151 38.1951 76.1401 38.1901C76.1511 38.1471 76.1931 38.1061 76.1911 38.0621ZM79.4111 55.0531C80.2931 55.0531 82.5551 54.8541 83.2721 54.8541C83.9891 54.8541 84.9711 55.0681 85.6261 55.0681C86.2821 55.0681 86.7301 54.3841 86.7441 54.1211C86.7561 53.8561 86.2451 53.3911 85.7471 53.1161L85.4331 53.4591C85.4301 53.5121 85.4281 53.6631 85.5581 53.9101C84.8091 53.9101 84.7621 53.2981 83.4621 53.2981C82.1621 53.2981 81.5241 53.7151 81.0861 53.9101C80.6481 54.1051 80.2181 54.3631 79.6491 54.3631C79.0831 54.3631 78.4261 53.9841 77.9251 53.5761C78.0021 54.2541 78.5291 55.0531 79.4111 55.0531ZM85.4521 50.8191C85.0471 49.9731 83.5551 48.7531 82.8901 48.1641C82.2261 47.5731 81.7791 46.9901 81.4961 46.5011C81.4231 46.6501 81.1561 47.0791 80.9431 47.3141C80.9641 47.5361 81.2801 47.8391 81.2311 47.9941C81.1561 48.2371 80.6681 48.0891 80.6561 48.1801C80.6471 48.2701 80.9961 48.5041 80.9751 48.5731C80.9541 48.6431 80.7751 48.7531 80.3801 48.7491C80.3801 48.7491 79.9291 49.7901 79.7661 50.6031C79.6011 51.4161 79.6271 52.1951 79.6851 52.7381C79.7431 53.2801 79.7881 53.4701 80.0461 53.7361C79.8121 53.8801 79.5831 53.8801 79.4561 53.7841C79.4561 53.7841 79.2361 51.7071 79.3381 51.1601C79.4421 50.6141 79.6631 49.5301 79.9721 48.7331C79.9721 48.7331 80.5581 48.6961 80.5521 48.5471C80.5451 48.3981 80.1961 48.3711 80.2001 48.1851C80.2271 47.9571 80.7591 47.9571 80.8061 47.8461C80.8421 47.7711 80.7261 47.7181 80.6541 47.6281C80.4341 47.3201 80.5301 47.1401 80.8671 46.7091C81.2021 46.2791 81.2871 45.9771 81.3071 45.5521C81.3631 44.9731 80.8881 44.8461 80.6561 44.6851C80.6561 44.6851 80.8231 44.5331 80.9111 44.4631C80.9111 44.4631 80.4971 44.1761 80.3051 44.0111C79.7591 44.2841 78.4911 44.1261 77.9951 43.6871C77.9951 43.6871 77.1411 44.2221 76.9871 44.3691C76.8371 44.5141 76.8091 44.6671 76.8841 44.9151C76.9601 45.1631 77.0371 45.3671 77.2801 45.9201C77.5231 46.4731 78.1771 48.3631 78.3111 48.8661C78.4441 49.3681 78.4311 49.8081 78.4311 50.3481C78.4311 50.8901 78.3541 52.1301 78.3231 52.6701C78.0581 52.4741 77.2671 52.2701 76.8411 52.2511C76.4131 52.2311 76.1531 52.5681 76.1111 52.8111C76.3281 52.6841 76.9621 52.7921 77.3841 52.9631L77.3951 53.2881C77.3951 53.2881 76.7401 53.0851 76.4361 53.0701C76.1301 53.0581 75.9591 53.2101 75.8321 53.6121C75.7031 54.0131 75.7101 54.3941 75.7671 54.4831C75.8251 54.5721 75.9461 54.6541 76.2451 54.6231C76.2001 54.2231 76.4801 53.9241 76.8611 53.7591C76.5051 54.2931 76.5961 54.7421 76.8611 54.9071C76.8611 54.9071 77.7531 54.8741 78.0911 54.8381C77.8231 54.5321 77.5741 53.2621 77.5891 52.9941C78.4651 53.6871 79.3161 54.0011 79.6771 54.0261C80.0391 54.0511 80.5711 53.7231 81.8781 53.3351C83.1871 52.9501 84.0851 53.0541 84.9771 53.3471C86.1491 52.3121 85.8561 51.6631 85.4521 50.8191ZM78.8781 50.9921C78.7851 51.9501 78.8521 53.2861 78.8521 53.2861C78.5611 53.2741 78.3311 53.2851 78.3311 53.2851L77.9481 53.0231C78.1011 52.9691 78.4861 52.9691 78.4861 52.9691C78.5051 52.0551 78.6851 49.9051 78.6401 49.4401C78.5951 48.9751 78.4121 48.0371 78.3561 47.5091C78.3001 46.9811 78.7651 45.2761 78.8111 45.1671C78.6371 46.2321 78.6011 47.6731 78.7831 48.5111C78.9691 49.3521 79.0061 49.4431 78.8781 50.9921ZM80.6651 51.2871C80.1121 51.2871 79.7851 51.5341 79.7851 51.5341L79.8401 51.0171C79.8401 51.0171 80.1481 50.8661 80.4931 50.8661C80.8401 50.8661 82.0971 51.1271 83.4911 52.5661C82.8781 52.1121 81.6201 51.2871 80.6651 51.2871Z" fill="#FDC91A"/>
</svg>
