<svg width="100" height="100" viewBox="0 0 100 100" fill="none" xmlns="http://www.w3.org/2000/svg">
<rect x="0.5" y="0.5" width="99" height="99" fill="white" stroke="#008B00"/>
<g clip-path="url(#clip0_24_257)">
<path d="M90 84.4586V76.3445H87.7727V81.4242H87.7535L84.5484 76.3443H81.8946V84.4586H84.1219V79.3334H84.1411L87.4534 84.4586H90ZM77.3081 84.4586H79.8549V76.3445H77.6276V81.4242H77.6084L74.4026 76.3443H71.7497V84.4586H73.977V79.3334H73.9962L77.3081 84.4586ZM68.3628 84.4586H70.8323L67.8591 76.3445H65.0409L62.0392 84.4586H64.5085L64.9246 83.14H67.9467L68.3628 84.4586ZM67.4041 81.4585H65.4669L66.4258 78.3902H66.445L67.4041 81.4585ZM58.8598 84.4586H60.9828V76.3445H57.6589L56.0802 81.6969H56.061L54.4826 76.3445H51.1587V84.4586H53.2817V78.3899H53.3011L55.1218 84.4586H57.0197L58.8403 78.3899H58.8598V84.4586ZM46.8222 84.4586H49.1271V76.3445H46.8222V79.44H43.4425V76.3445H41.138V84.4586H43.4425V81.2531H46.8222V84.4586ZM34.0298 80.3958C34.0298 79.0306 34.506 77.8611 35.9293 77.8611C36.906 77.8611 37.3776 78.4667 37.5635 79.1636H39.8556C39.7438 77.3509 38.2132 76.0707 35.9306 76.0707C33.0556 76.0707 31.6797 78.007 31.6797 80.3958C31.6797 82.7842 33.0556 84.7207 35.9306 84.7207C38.3237 84.7207 39.7438 83.3506 39.8603 81.5848H37.5763C37.4461 82.3018 36.9771 82.8988 35.9293 82.8988C34.506 82.8988 34.0298 81.7608 34.0298 80.3958V80.3958ZM27.8593 84.4586H30.1643V76.3443H27.8591L27.8593 84.4586ZM19.477 84.4586H26.221V82.7081H21.7822V81.2425H25.4636V79.5603H21.7822V78.0947H26.221V76.3443H19.477V84.4586ZM18.1413 80.4041C18.1413 78.1634 16.8092 76.3473 14.1541 76.3473L10 76.3471V84.4611L14.1541 84.4613C16.8092 84.4613 18.1413 82.6447 18.1413 80.4041V80.4041ZM15.7905 80.3901C15.7905 81.5037 15.3157 82.6401 13.999 82.6401H12.3045V78.1625H13.8145C15.0448 78.1625 15.7905 78.8785 15.7905 80.3901ZM74 16.3902C74 15.6427 73.6419 15.2793 72.9079 15.2793H27.0916C26.3572 15.2793 26 15.6429 26 16.3902V63.0051C26 63.7529 26.3572 64.1167 27.2799 64.1167H73.096C73.6417 64.1167 74 63.7529 74 63.0054V16.3902Z" fill="#009661"/>
<path d="M58.182 39.5121C58.182 32.5871 53.3759 28.8822 48.6801 28.8822H44.4219C44.0359 28.8822 43.8478 29.0729 43.8478 29.4767V49.3265C43.8478 49.7777 44.0578 49.9915 44.4897 49.9915H48.7966C53.3628 49.9915 58.182 46.4387 58.182 39.5119V39.5121ZM66.5053 40.0016C66.5053 48.8158 58.7363 55.4726 51.4572 55.4726C47.0507 55.4726 46.0877 52.3535 40.7566 52.3535C39.7181 52.3535 38.8206 52.5124 38.3049 52.596C37.7434 52.6872 36.9521 52.8788 36.4425 52.7091C36.0697 52.585 35.7051 52.2611 35.7051 51.3606V25.5074C35.7051 24.5762 36.1383 24.1349 37.029 24.1349H50.4712C60.6498 24.1349 66.5053 31.2653 66.5053 40.0014" fill="white"/>
</g>
<defs>
<clipPath id="clip0_24_257">
<rect width="80" height="70" fill="white" transform="translate(10 15)"/>
</clipPath>
</defs>
</svg>
