<svg width="100" height="100" viewBox="0 0 100 100" fill="none" xmlns="http://www.w3.org/2000/svg">
<path d="M0.5 0.5H99.5V99.5H0.5V0.5Z" fill="white" stroke="#008B00"/>
<path d="M18.1473 49.362C18.2086 49.3374 18.2822 49.3006 18.3436 49.2761C18.3681 49.2638 18.3927 49.2515 18.4172 49.2393C18.454 49.227 18.4908 49.2025 18.5276 49.1902C18.5644 49.1656 18.6013 49.1534 18.6381 49.1288C18.6626 49.1166 18.6749 49.1043 18.6871 49.1043C19.3375 48.7362 19.9019 48.2331 20.3436 47.6442C20.8712 46.9325 21.2148 46.0859 21.3129 45.2147C21.4111 44.3558 21.2884 43.4479 20.8957 42.6749C20.6135 42.1227 20.1718 41.6319 19.6197 41.3497C19.3129 41.1902 18.9694 41.0798 18.6258 41.0552C17.9878 40.9816 17.3497 41.1534 16.8712 41.6565C16.6626 41.8773 16.5031 42.1718 16.4172 42.5276V42.5399L16.4049 42.5767L16.3927 42.6135L16.3804 42.6503L16.3681 42.6871V42.7239C16.3681 42.7362 16.3681 42.7607 16.3559 42.773C16.3559 42.8098 16.3436 42.8344 16.3436 42.8712C16.3436 42.908 16.3436 42.9325 16.3436 42.9693C16.3436 42.9816 16.3436 42.9939 16.3436 43.0061C16.3804 42.1595 17.0798 41.4847 17.9264 41.4847C18.7976 41.4847 19.5092 42.1963 19.5092 43.0675C19.5092 43.3006 19.4602 43.5338 19.362 43.7301L19.3497 43.7669C19.0307 44.638 18.27 45.4847 17.3375 45.8405C17.0307 45.9632 16.6994 46.0245 16.3559 46.0245C16.2945 46.0245 16.2332 46.0245 16.1718 46.0245C16.1473 46.0245 16.1227 46.0245 16.0859 46.0245C16.0368 46.0245 16 46.0123 15.9509 46.0123C15.9141 46.0123 15.8773 46 15.8528 46C15.816 45.9877 15.7669 45.9877 15.7301 45.9755C15.7056 45.9755 15.681 45.9632 15.6565 45.9632C15.5951 45.9509 15.5338 45.9387 15.4724 45.9141L15.4479 45.9018C14.5767 45.6687 13.7546 45.1043 13.1779 44.3926C13.1657 44.3804 13.1534 44.3681 13.1411 44.3436C13.1166 44.319 13.1043 44.2945 13.0798 44.2699C13.0675 44.2454 13.043 44.2209 13.0307 44.1963C13.0184 44.1718 13.0062 44.1595 12.9939 44.135C12.9816 44.1104 12.9571 44.0859 12.9448 44.0614C12.9325 44.0368 12.908 44.0123 12.8957 43.9877C12.8835 43.9755 12.8712 43.9509 12.8589 43.9387C12.8344 43.9018 12.8098 43.865 12.7976 43.8282L12.7853 43.8037C12.773 43.7914 12.7608 43.7669 12.7608 43.7546C12.7362 43.7178 12.724 43.681 12.7117 43.6564C12.6994 43.6319 12.6871 43.6074 12.6749 43.5706L12.6626 43.546C12.6503 43.5092 12.6258 43.4724 12.6135 43.4356V43.4233C12.6381 46.3926 16.0982 49.1902 17.9509 49.4847C18.0123 49.4601 18.0736 49.4356 18.1227 49.4111L18.1473 49.362Z" fill="#357E54"/>
<path d="M12.6749 43.5092L12.6871 43.5337C12.6994 43.5583 12.7117 43.5951 12.724 43.6196C12.7362 43.6564 12.7608 43.6933 12.773 43.7178C12.7853 43.7301 12.7976 43.7546 12.7976 43.7669L12.8098 43.7914C12.8344 43.8282 12.8589 43.865 12.8712 43.9018C12.8835 43.9141 12.8957 43.9387 12.908 43.9509C12.9203 43.9755 12.9448 44 12.9571 44.0245C12.9694 44.0491 12.9939 44.0736 13.0062 44.0982C13.0184 44.1227 13.0307 44.135 13.043 44.1595C13.0552 44.1841 13.0798 44.2086 13.0921 44.2331C13.1043 44.2577 13.1289 44.2822 13.1534 44.3068C13.1657 44.319 13.1779 44.3436 13.1902 44.3558C13.7669 45.0675 14.589 45.6319 15.4602 45.865L15.4847 45.8773C15.546 45.8896 15.6074 45.9141 15.6687 45.9264C15.6933 45.9264 15.7178 45.9387 15.7424 45.9387C15.7792 45.9509 15.8283 45.9509 15.8651 45.9632C15.9019 45.9632 15.9387 45.9755 15.9632 45.9755C16.0123 45.9877 16.0491 45.9877 16.0982 45.9877C16.1227 45.9877 16.1473 45.9877 16.1841 45.9877C16.2454 45.9877 16.3068 46 16.3681 45.9877C16.7117 45.9877 17.043 45.9141 17.3497 45.8037C18.2822 45.4479 19.0552 44.6012 19.362 43.7301L19.3743 43.6933C19.1289 44.2454 18.5767 44.6135 17.9264 44.6135C17.3375 44.6135 16.8344 44.2945 16.5522 43.8282L16.5276 43.7914C16.4049 43.5583 16.3313 43.3006 16.3313 43.0184C16.3313 42.9939 16.3313 42.9816 16.3313 42.9571C16.3313 42.9448 16.3313 42.8957 16.3313 42.8712C16.3313 42.8344 16.3313 42.7976 16.3313 42.773C16.3313 42.7362 16.3313 42.7117 16.3313 42.6871C16.3559 42.4663 16.4049 42.2331 16.4786 42.0123C16.5767 41.6933 16.7362 41.3865 16.9203 41.1043C17.1043 40.8221 17.3375 40.5767 17.5829 40.3558C17.7056 40.2577 17.816 40.1595 17.9141 40.0982C17.3988 39.7423 16.7608 39.5338 16.0859 39.5338C15.546 39.5338 15.0552 39.6442 14.6135 39.8528H14.6013C14.5767 39.865 14.5644 39.865 14.5399 39.8773C14.4663 39.9141 14.3927 39.9509 14.3313 39.9877C14.2945 40.0123 14.2577 40.0245 14.2332 40.0491H14.2209C13.8405 40.2945 13.5215 40.6135 13.2638 40.9939C13.1534 41.1657 13.043 41.3497 12.9571 41.5338C12.8957 41.6687 12.8467 41.8037 12.7976 41.9509V41.9632V41.9755L12.7853 42V42.0123C12.773 42.0368 12.773 42.0491 12.7608 42.0736L12.7485 42.1104C12.724 42.1841 12.7117 42.2577 12.6871 42.3313C12.6749 42.3681 12.6749 42.4049 12.6626 42.4417V42.4663C12.6503 42.5031 12.6503 42.5276 12.6503 42.5644V42.5767V42.6012C12.6135 42.8466 12.589 43.092 12.589 43.3374V43.362V43.3742C12.6381 43.4356 12.6503 43.4724 12.6749 43.5092Z" fill="#44AF65"/>
<path d="M19.7791 39.5338C19.1043 39.5338 18.4785 39.7423 17.9509 40.0982C17.8528 40.1718 17.7423 40.2577 17.6196 40.3558C17.362 40.5767 17.1411 40.8221 16.9571 41.1043C16.773 41.3865 16.6135 41.6933 16.5153 42.0123C16.4417 42.2209 16.3926 42.454 16.3681 42.6871C16.3681 42.7239 16.3681 42.7485 16.3558 42.773C16.3558 42.8098 16.3558 42.8466 16.3558 42.8712C16.3558 42.8957 16.3558 42.9448 16.3558 42.9571C16.3558 42.9816 16.3558 42.9939 16.3558 43.0184C16.3558 43.3006 16.4295 43.5583 16.5522 43.7914L16.5767 43.8282C16.8466 44.2945 17.362 44.6135 17.9509 44.6135C18.589 44.6135 19.1411 44.2331 19.3988 43.6933C19.4969 43.4969 19.546 43.2638 19.546 43.0307C19.546 42.1595 18.8344 41.4479 17.9632 41.4479C17.1043 41.4479 16.4172 42.1227 16.3804 42.9693C16.3804 42.9571 16.3804 42.9448 16.3804 42.9325C16.3804 42.8957 16.3804 42.8712 16.3804 42.8344C16.3804 42.7976 16.3926 42.773 16.3926 42.7362C16.3926 42.7239 16.3926 42.6994 16.4049 42.6871V42.6503L16.4172 42.6135L16.4295 42.5767L16.4417 42.5399L16.454 42.5031V42.4908C16.5399 42.135 16.6994 41.8528 16.908 41.6196C17.3865 41.1166 18.0245 40.9448 18.6626 41.0184C19.0184 41.0552 19.362 41.1534 19.6564 41.3129C20.2086 41.6074 20.6503 42.0859 20.9325 42.638C21.3374 43.4111 21.4479 44.319 21.3497 45.1779C21.2515 46.0491 20.8957 46.908 20.3804 47.6074C19.9387 48.2086 19.362 48.7117 18.7239 49.0798C18.7117 49.092 18.6871 49.1043 18.6749 49.1043C18.638 49.1288 18.6012 49.1411 18.5644 49.1656C18.5276 49.1902 18.4908 49.2025 18.454 49.2147C18.4295 49.227 18.4049 49.2393 18.3804 49.2515C18.319 49.2761 18.2454 49.3129 18.1841 49.3374L18.1718 49.3497C18.1104 49.3742 18.0491 49.3988 18 49.4233H18.0245H18.0368H18.0491H18.0614H18.0859H18.0982L18.135 49.411L18.1595 49.3988L18.1963 49.3865H18.2086H18.2209H18.2331L18.2699 49.3742L18.2945 49.362H18.3068L18.3436 49.3497L18.3804 49.3374H18.3926H18.4049H18.4172H18.4295H18.4417H18.454L18.4908 49.3252H18.5031L18.5276 49.3129H18.5399L18.5644 49.3006L18.589 49.2883H18.6012L18.589 49.2638C18.6012 49.2638 18.6135 49.2515 18.638 49.2515H18.6503H18.6626L18.6749 49.2393L18.6994 49.227L18.7362 49.2147H18.7485L18.7853 49.2025L18.8098 49.1902H18.8221H18.8344L18.8712 49.1779L18.908 49.1656C18.9448 49.1534 18.9693 49.1411 19.0061 49.1166L19.0307 49.1043C19.0675 49.092 19.092 49.0675 19.1288 49.0552L19.1534 49.043L19.1657 49.0307L19.1779 49.0184L19.2025 49.0061L19.2147 48.9939L19.2393 48.9816L19.2761 48.9693C19.3374 48.9325 19.3865 48.908 19.4479 48.8712H19.4601C19.4969 48.8466 19.5337 48.8221 19.5706 48.7976H19.5828H19.5951C19.6196 48.7853 19.6319 48.773 19.6564 48.7607L19.6687 48.7485L19.681 48.7362H19.6933C19.7301 48.7117 19.7669 48.6871 19.816 48.6626H19.8282L19.8528 48.638C19.9141 48.6012 19.9755 48.5522 20.0368 48.5153C20.0736 48.4908 20.0982 48.4663 20.135 48.454C20.1595 48.4295 20.1963 48.4172 20.2209 48.3926C20.3068 48.3313 20.3926 48.2699 20.4785 48.1963C20.6503 48.0614 20.8344 47.9018 20.9939 47.7546H21.0061C22.2454 46.6135 23.2761 45.043 23.2761 43.4233C23.2884 41.2393 21.8896 39.5338 19.7791 39.5338Z" fill="#123C36"/>
<path d="M47.2883 42.9325C46.8098 42.9325 46.4295 43.3129 46.4295 43.7791C46.4295 44.2577 46.8098 44.638 47.2883 44.638C47.7669 44.638 48.1472 44.2577 48.1472 43.7791C48.1472 43.3006 47.7669 42.9325 47.2883 42.9325ZM38.6749 48.589C37.4356 48.589 37.0184 47.043 37.0184 45.5215C37.0184 43.8405 37.5583 42.4785 38.6749 42.4785C39.7669 42.4785 40.319 43.8405 40.319 45.5215C40.319 47.043 39.9018 48.589 38.6749 48.589ZM38.6749 42.1718C36.8834 42.1718 35.362 43.546 35.362 45.5215C35.362 47.4233 36.8221 48.8957 38.6749 48.8957C40.5153 48.8957 41.9877 47.4233 41.9877 45.5215C42 43.546 40.454 42.1718 38.6749 42.1718ZM45.9877 42.1718C44.2577 42.1718 42.773 43.4724 42.773 45.5828C42.773 47.6564 44.0245 48.908 45.6687 48.908C47.0184 48.908 47.7914 47.9755 48.0982 47.4233V47.3006C47.7546 47.5706 47.1656 47.8773 46.4785 47.8773C45.2638 47.8773 44.2822 46.908 44.2822 45.1657C44.2822 43.6442 45.1534 42.5644 46.4663 42.5644C46.7239 42.5644 46.9571 42.589 47.227 42.6503C47.0307 42.3926 46.6258 42.1718 45.9877 42.1718ZM63.6687 48.589C62.4295 48.589 62.0123 47.043 62.0123 45.5215C62.0123 43.8405 62.5522 42.4785 63.6687 42.4785C64.7607 42.4785 65.3129 43.8405 65.3129 45.5215C65.3006 47.043 64.8834 48.589 63.6687 48.589ZM63.6687 42.1718C61.8773 42.1718 60.3558 43.546 60.3558 45.5215C60.3558 47.4233 61.816 48.8957 63.6687 48.8957C65.5092 48.8957 66.9816 47.4233 66.9816 45.5215C66.9816 43.546 65.4479 42.1718 63.6687 42.1718ZM28.1963 48.3681V40.4417H29.7055C31.4601 40.4417 32.8344 42.0245 32.8344 44.2945C32.8344 46.6626 31.6564 48.3681 29.5583 48.3681H28.1963ZM29.7669 40.0491H25.5828V40.0982C26.4295 40.3926 26.589 40.6994 26.589 41.7669V47.0184C26.589 48.0736 26.4295 48.4172 25.5828 48.7117V48.7607H29.6442C32.5399 48.7607 34.5767 47.092 34.5767 44.1963C34.5767 41.4233 32.3804 40.0491 29.7669 40.0491ZM59.9877 40.0491H57.4847L54.6135 46.8344L51.865 40.0491H49.1043V40.0982C50.0736 40.5276 50.1472 40.9816 50.0491 42.454L49.7914 45.9141C49.6564 47.8773 49.5337 48.3558 48.5644 48.6994V48.7485H51.3006V48.6994C50.2209 48.3558 50.2454 47.7301 50.3681 45.9018L50.6626 41.2638L53.681 48.7607H54.3436L57.4601 41.4356L57.7791 46.4295C57.8773 47.9387 57.8896 48.3681 56.8834 48.7117V48.7607H60.4417V48.7117C59.5706 48.3804 59.4847 48.1104 59.362 46.3313L59.0675 41.9877C58.9816 40.908 59.0798 40.5153 59.9877 40.1104V40.0491ZM69.681 42.1718H69.6319C68.9693 42.4049 68.0736 42.6749 67.2025 42.7362V42.7853C68.0368 43.0798 68.1595 43.3129 68.1595 44.4295V47.1166C68.1595 48.1227 68.0368 48.4295 67.3374 48.7117V48.7607H70.6871V48.7117C69.8282 48.4295 69.681 48.135 69.681 47.1166V42.1718V42.1718ZM71.1043 42.1718C70.6012 42.1718 70.2331 42.5644 70.2331 43.0552C70.2331 43.5583 70.6012 43.9387 71.1043 43.9387C71.5951 43.9387 71.9877 43.5583 71.9877 43.0552C71.9877 42.5644 71.5951 42.1718 71.1043 42.1718ZM84.0614 42.1718C82.8466 42.1718 81.7792 42.9448 81.7792 44.0859C81.7792 46.319 85.092 45.9877 85.092 47.5215C85.092 48.135 84.5522 48.5644 83.9018 48.5644C83.1534 48.5644 82.4295 47.8773 81.7792 46.6258H81.7301L81.7669 48.4785C82.319 48.7485 83.0552 48.908 83.7669 48.908C85.1411 48.908 86.2209 48.0982 86.2209 46.908C86.2209 44.638 82.8098 44.908 82.8098 43.4479C82.8098 42.8957 83.3006 42.5031 83.865 42.5031C84.4908 42.5031 85.092 43.043 85.6933 44.1472H85.7546V42.5153C85.2638 42.3068 84.6135 42.1718 84.0614 42.1718ZM74.9448 42.1718H74.8957C74.2331 42.4049 73.3374 42.6749 72.4663 42.7362V42.7853C73.3006 43.0798 73.4233 43.3129 73.4233 44.4295V47.1166C73.4233 48.1227 73.3006 48.4295 72.6012 48.7117V48.7607H75.9509V48.7117C75.092 48.4295 74.9448 48.135 74.9448 47.1166V42.1718ZM76.3681 42.1718C75.865 42.1718 75.4969 42.5644 75.4969 43.0552C75.4969 43.5583 75.865 43.9387 76.3681 43.9387C76.8589 43.9387 77.2515 43.5583 77.2515 43.0552C77.2515 42.5644 76.8589 42.1718 76.3681 42.1718ZM80.2209 42.1718H80.1718C79.5215 42.3804 78.6135 42.6258 77.7423 42.6994V42.7485C78.5399 43.0307 78.6994 43.2393 78.6994 44.3558V47.1411C78.6994 48.1227 78.5767 48.4295 77.8773 48.6994V48.7485H81.043V48.6994C80.3558 48.4172 80.2209 48.1227 80.2209 47.1411V42.1718ZM79.3865 39.6319C78.8834 39.6319 78.5031 40.0245 78.5031 40.5153C78.5031 41.0184 78.8834 41.3988 79.3865 41.3988C79.8773 41.3988 80.2699 41.0184 80.2699 40.5153C80.2699 40.0245 79.8773 39.6319 79.3865 39.6319Z" fill="#123C36"/>
<path d="M28.8712 50.8466H27.9141L26.5031 54.6871C25.7792 56.6871 25.5583 56.9325 24.9939 57.1043V57.1411H27.0675V57.1043C26.1105 56.908 26.3804 56.2209 26.8467 54.8589H29.1411L29.1534 54.8957C29.6074 56.1963 29.951 56.908 29.0552 57.1043V57.1411H31.6197V57.1043C31.1289 56.9448 30.9448 56.6994 30.2822 54.8466L28.8712 50.8466ZM28 51.5828L29.043 54.5399H26.9816L28 51.5828ZM34.2822 59.1166V59.0797C33.6565 58.8589 33.5706 58.6626 33.5706 57.8405V57.1902C33.7669 57.2147 34.0859 57.2393 34.3191 57.2393C35.3743 57.2393 36.9816 56.4908 36.9816 54.6258C36.9816 53.2761 36.1964 52.3926 35.0798 52.3926C34.3804 52.3926 33.7792 52.8466 33.5706 53.0675V52.3926H33.5338C33.0675 52.5521 32.4663 52.7117 31.7546 52.773V52.8098C32.3559 53.0184 32.4418 53.1534 32.4418 54.0982V57.9386C32.4418 58.6503 32.3559 58.8712 31.8528 59.0675V59.1043H34.2822V59.1166ZM34.3681 57.0184C34.0491 57.0184 33.7546 56.8957 33.5829 56.7975V53.2024C33.7546 53.092 34.0737 52.9448 34.4418 52.9448C35.227 52.9448 35.8528 53.6196 35.8528 54.8343C35.8283 56.2209 35.1657 57.0184 34.3681 57.0184ZM40.1105 57.2515C41.4356 57.2515 42.4908 56.1963 42.4908 54.8221C42.4908 53.3988 41.3865 52.4049 40.1105 52.4049C38.8221 52.4049 37.7301 53.3988 37.7301 54.8221C37.7301 56.184 38.7853 57.2515 40.1105 57.2515ZM40.1105 57.0307C39.227 57.0307 38.9203 55.9141 38.9203 54.8221C38.9203 53.6196 39.3129 52.638 40.1105 52.638C40.8957 52.638 41.2884 53.6196 41.2884 54.8221C41.2884 55.9141 40.9939 57.0307 40.1105 57.0307ZM44.7362 57.2147C45.3865 57.2147 45.8037 56.8221 46.0368 56.5767L46.0123 56.5276C45.816 56.6012 45.5706 56.6503 45.3865 56.6503C44.9203 56.6503 44.6381 56.3926 44.6381 55.8528V52.908H45.8037V52.5031H44.6381V51.3497H44.589C44.135 52.0245 43.7056 52.4294 42.8835 52.8466V52.908H43.5338V55.8159C43.5338 56.8589 43.9755 57.2147 44.7362 57.2147ZM50.773 53.9509C50.773 52.7975 50.1595 52.4049 49.4602 52.4049C48.8099 52.4049 48.1473 52.8589 47.8773 53.1288V50.4294H47.8405C47.362 50.589 46.6749 50.7975 46.0491 50.8343V50.8712C46.6626 51.0798 46.7485 51.2515 46.7485 52.0491V55.9632C46.7485 56.6748 46.6503 56.908 46.1473 57.1043V57.1411H48.4663V57.1043C47.9632 56.908 47.8651 56.6994 47.8651 55.9632V53.227C48.0982 53.1043 48.4663 52.9816 48.7853 52.9816C49.2884 52.9816 49.6687 53.2761 49.6687 53.9386V55.9632C49.6687 56.6748 49.5706 56.908 49.0675 57.1043V57.1411H51.3497V57.1043C50.8221 56.908 50.7485 56.6748 50.7485 55.8405V53.9509H50.773ZM55.7915 56C55.5215 56.2331 55.0062 56.5031 54.4172 56.5031C53.5338 56.5031 52.9448 55.8405 52.9326 54.6012V54.5399H55.7424V54.184C55.7424 52.908 54.9816 52.4049 54.0246 52.4049C52.8467 52.4049 51.8283 53.4356 51.8283 54.9448C51.8283 56.319 52.6626 57.2515 53.9019 57.2515C54.9816 57.2515 55.5706 56.4785 55.816 56.0491L55.7915 56ZM53.951 52.638C54.4908 52.638 54.7485 53.0429 54.7485 54.2209L52.9448 54.3558C52.9816 53.3497 53.2884 52.638 53.951 52.638ZM57.9019 50.4294H57.8651C57.3865 50.6135 56.6872 50.7853 56.0737 50.8343V50.8712C56.6626 51.0552 56.773 51.2147 56.773 52.0123V55.9755C56.773 56.6871 56.6749 56.8957 56.1718 57.1043V57.1411H58.4908V57.1043C57.9878 56.908 57.8896 56.6871 57.8896 55.9755V50.4294H57.9019ZM59.0307 54.2699L59.7178 53.5951C60.3681 52.9693 60.8835 52.6748 61.3743 52.5521V52.5031H58.8589V52.5644C59.6688 52.7853 59.681 53.1779 58.9939 53.865L58.1227 54.7362L59.1043 56.1595C59.7546 57.1043 59.7669 57.1288 60.6258 57.1288H61.5829V57.092C61.2516 56.9939 60.9694 56.8466 60.4172 56.0982L59.0307 54.2699ZM65.3129 56C65.043 56.2331 64.5277 56.5031 63.9387 56.5031C63.0553 56.5031 62.4663 55.8405 62.454 54.6012V54.5399H65.2638V54.184C65.2638 52.908 64.5031 52.4049 63.5461 52.4049C62.3681 52.4049 61.3497 53.4356 61.3497 54.9448C61.3497 56.319 62.1841 57.2515 63.4234 57.2515C64.5031 57.2515 65.0921 56.4785 65.3375 56.0491L65.3129 56ZM63.4724 52.638C64.0123 52.638 64.27 53.0429 64.27 54.2209L62.4663 54.3558C62.5031 53.3497 62.8099 52.638 63.4724 52.638Z" fill="#44AF65"/>
</svg>
