<svg width="100" height="100" viewBox="0 0 100 100" fill="none" xmlns="http://www.w3.org/2000/svg">
<rect x="0.5" y="0.5" width="99" height="99" fill="white" stroke="#008B00"/>
<g clip-path="url(#clip0_24_210)">
<path d="M21.5539 54.443C20.2968 52.6233 18.5641 51.556 16.4055 51.2865H12.8701C12.1097 51.2902 11.3815 51.601 10.844 52.1511C10.3065 52.7013 10.0031 53.4464 10 54.2243V62.7908C10 64.4181 11.2811 65.7286 12.8701 65.7286H16.4055C18.5641 65.4854 20.3207 64.4181 21.5539 62.5966C22.3373 61.3106 22.717 60.0246 22.717 58.5198C22.717 57.0151 22.3373 55.7063 21.5539 54.443ZM30.5217 51.0206C26.4885 51.0206 23.2147 54.3957 23.2147 58.5198C23.2157 60.502 23.9858 62.4026 25.3559 63.8042C26.726 65.2058 28.584 65.9936 30.5217 65.9946C31.4829 65.9966 32.4352 65.8049 33.3239 65.4303C34.2127 65.0557 35.0206 64.5056 35.7014 63.8114C36.3823 63.1172 36.9227 62.2925 37.2918 61.3846C37.6609 60.4766 37.8514 59.5031 37.8526 58.5198C37.8508 56.5315 37.0778 54.6251 35.7034 53.2191C34.329 51.8131 32.4654 51.0224 30.5217 51.0206V51.0206ZM46.7023 64.9517L42.859 59.9528V63.3753C42.8531 64.0019 42.6056 64.6009 42.1703 65.042C41.7351 65.483 41.1472 65.7304 40.5345 65.7304C39.9663 65.736 39.4163 65.5256 38.9913 65.1399C38.5662 64.7542 38.2963 64.2207 38.234 63.643V53.6679C38.234 52.3328 39.2773 51.29 40.5585 51.29H40.7962C41.412 51.339 41.9353 51.6067 42.3373 52.0914L46.1806 57.0676V53.6696C46.2046 52.3591 47.224 51.2918 48.5051 51.2918C49.6904 51.2918 50.6636 52.1911 50.8073 53.4037V63.3788C50.8073 64.6893 49.764 65.7566 48.4829 65.7566C48.411 65.7566 48.3409 65.7566 48.2451 65.7321C47.6276 65.6796 47.106 65.4382 46.7023 64.9517V64.9517ZM64.9235 53.4002V60.2188C64.5916 63.5432 61.8875 65.9963 58.6359 65.9963C55.3844 65.9963 52.7042 63.545 52.3484 60.2188V53.4002C52.41 52.8197 52.6791 52.2829 53.1041 51.8931C53.5291 51.5033 54.0799 51.2879 54.6506 51.2883C55.8599 51.2883 56.8314 52.1876 56.9751 53.4002V59.7096C57 60.1429 57.1858 60.55 57.4946 60.8476C57.8034 61.1453 58.2117 61.3109 58.6359 61.3106C59.0613 61.3148 59.4717 61.1504 59.7813 60.852C60.0909 60.5536 60.2756 60.1442 60.2968 59.7096V53.4002C60.4387 52.1876 61.4359 51.2883 62.6212 51.2883C63.8066 51.2883 64.8054 52.1859 64.9235 53.4002V53.4002ZM76.9973 58.3746C77.7345 59.176 78.5641 59.6606 79.5835 59.9283C79.8692 60.0018 80.083 60.0491 80.3669 60.098C80.5567 60.147 80.7227 60.196 80.9125 60.2695C81.0083 60.3413 81.1024 60.3902 81.1725 60.4882C81.2642 60.5959 81.3147 60.7339 81.3145 60.8767V60.9484C81.3145 61.1426 81.2443 61.2879 81.1007 61.4593C81.0476 61.5134 80.9847 61.5563 80.9154 61.5854C80.8461 61.6146 80.7719 61.6294 80.697 61.629C80.6731 61.629 80.6252 61.6045 80.6012 61.6045C80.3707 61.5656 80.147 61.4919 79.9376 61.3858C79.6838 61.2932 79.4379 61.1797 79.2021 61.0464C78.9713 60.9499 78.7557 60.819 78.5624 60.658C78.3054 60.4803 78.0051 60.3793 77.6951 60.3663C77.3852 60.3534 77.0778 60.4289 76.8075 60.5845C76.5752 60.7115 76.3697 60.8841 76.2027 61.0925C76.0357 61.3008 75.9105 61.5408 75.8343 61.7988C75.7687 62.0187 75.737 62.2477 75.7402 62.4777C75.7402 63.181 76.0019 63.7882 76.4996 64.2501C77.7568 65.3664 79.1576 65.9246 80.8167 65.9246C80.8886 65.9246 80.9587 65.9246 81.0305 65.9001H81.0767C82.0241 65.9133 82.9523 65.6265 83.734 65.079C84.5158 64.5314 85.1129 63.7499 85.4434 62.8416C85.6812 62.2344 85.7992 61.678 85.7992 61.0219C85.7992 60.0998 85.5854 59.3002 85.1116 58.4988C84.7426 57.8496 84.2105 57.3131 83.5705 56.9451C83.2346 56.7434 82.8861 56.5645 82.5272 56.4097C81.8977 56.1455 81.2905 56.009 80.6286 55.8025C80.4763 55.7639 80.3317 55.6988 80.201 55.61C80.1313 55.555 80.074 55.4852 80.033 55.4055C79.992 55.3258 79.9682 55.2381 79.9632 55.1481C79.9593 55.0381 79.9862 54.9293 80.0408 54.8345C80.0953 54.7396 80.1752 54.6627 80.2711 54.6127C80.3684 54.5413 80.4834 54.4995 80.6029 54.492C80.8886 54.492 81.1263 54.5655 81.3624 54.7107C81.7643 54.9539 82.1201 55.1481 82.5716 55.3178C83.0209 55.4822 83.5074 55.5077 83.9708 55.3913C84.5164 55.1481 84.92 54.7352 85.086 54.128C85.1321 53.9828 85.1321 53.8376 85.1321 53.6924C85.1321 53.0362 84.8482 52.4781 84.3488 52.1141C83.7718 51.6792 83.1203 51.3588 82.428 51.1693C81.8379 50.9741 81.2214 50.8755 80.6012 50.8771C80.0388 50.8728 79.479 50.9548 78.9404 51.1203C78.1849 51.3201 77.507 51.7511 76.9973 52.3556C76.6193 52.7545 76.3219 53.2258 76.1223 53.7426C75.9227 54.2593 75.8248 54.8113 75.8343 55.3668C75.836 56.5304 76.2157 57.526 76.9973 58.3746V58.3746ZM67.7457 56.0212H68.2673H67.7457ZM68.2673 56.0212V63.6412C68.3297 64.219 68.5995 64.7524 69.0246 65.1382C69.4497 65.5239 69.9997 65.7343 70.5679 65.7286C71.849 65.7286 72.8701 64.684 72.8923 63.3735V56.0195H73.3901C74.6729 56.0195 75.7145 54.9522 75.7145 53.6644C75.7145 52.3538 74.6712 51.2865 73.3901 51.2865H67.7439C67.44 51.2874 67.1392 51.3497 66.8588 51.4698C66.5785 51.5899 66.324 51.7655 66.1102 51.9864C65.8963 52.2073 65.7271 52.4693 65.6124 52.7572C65.4977 53.0452 65.4397 53.3534 65.4417 53.6644C65.4417 54.9504 66.4628 56.0195 67.7439 56.0195H68.2673V56.0212V56.0212Z" fill="#CB0879"/>
<path d="M14.6028 45.0036V39.9802V45.0036ZM21.5539 38.4265C20.2968 36.605 18.5641 35.5377 16.4055 35.27H12.8701C11.2811 35.27 10 36.5805 10 38.2078V46.7744C10 48.3998 11.2811 49.7104 12.8701 49.7104H16.4055C18.5641 49.4672 20.3207 48.3998 21.5539 46.5556C22.3373 45.2923 22.717 44.0063 22.717 42.5033C22.7341 41.0563 22.3292 39.6369 21.5539 38.4265V38.4265ZM17.7106 43.9591C17.5246 44.2355 17.2858 44.4706 17.0086 44.6501C16.7314 44.8297 16.4215 44.9499 16.0977 45.0036H14.6028V39.9802H16.0498C16.7613 40.1255 17.283 40.4894 17.7106 41.0476C17.9945 41.5077 18.1143 41.9679 18.1143 42.5033C18.1143 43.037 17.9723 43.4971 17.7106 43.9591V43.9591ZM23.8562 44.2023V37.3819V44.2023ZM23.8562 37.3819C23.9136 36.8 24.1813 36.2611 24.6068 35.8705C25.0323 35.4799 25.585 35.2657 26.1567 35.27C27.3677 35.27 28.3392 36.1694 28.4811 37.3819V43.6686C28.529 44.589 29.2406 45.2941 30.142 45.2941C31.0434 45.2941 31.7549 44.5907 31.8028 43.6686V37.3819C31.8659 36.798 32.1385 36.2587 32.5679 35.8686C32.9973 35.4784 33.553 35.2652 34.1273 35.27C35.3143 35.27 36.3098 36.1694 36.4295 37.3819V44.2005C36.2705 45.7904 35.5385 47.2627 34.3761 48.3305C33.2137 49.3983 31.7042 49.985 30.142 49.9763C28.5797 49.985 27.0702 49.3983 25.9078 48.3305C24.7454 47.2627 24.0134 45.7904 23.8544 44.2005V37.3819H23.8562V37.3819ZM47.9834 35.27C46.7262 35.27 45.6829 36.3373 45.6829 37.6479V41.0458L41.8156 36.0714C41.6274 35.8354 41.3932 35.6422 41.1278 35.5043C40.8624 35.3663 40.5718 35.2865 40.2745 35.27H40.0368C39.7328 35.2679 39.4315 35.3273 39.15 35.4446C38.8685 35.562 38.6124 35.735 38.3965 35.9538C38.1805 36.1726 38.0089 36.4329 37.8915 36.7197C37.7741 37.0065 37.7132 37.3142 37.7123 37.6251V47.6247C37.7786 48.2006 38.0498 48.7314 38.474 49.116C38.8982 49.5007 39.446 49.7122 40.0128 49.7104C40.3166 49.7124 40.6179 49.6532 40.8992 49.5359C41.1806 49.4187 41.4366 49.2458 41.6525 49.0272C41.8685 48.8086 42.0401 48.5485 42.1576 48.2619C42.2751 47.9753 42.3362 47.6678 42.3373 47.357V43.9346L46.1806 48.9335C46.6749 49.4689 47.289 49.7349 47.9834 49.7349C48.2872 49.7337 48.5878 49.6712 48.868 49.551C49.1482 49.4308 49.4024 49.2553 49.6161 49.0344C49.8298 48.8135 49.9988 48.5516 50.1134 48.2638C50.228 47.9759 50.286 47.6678 50.2839 47.357V37.3819C50.2264 36.8 49.9587 36.2611 49.5333 35.8705C49.1078 35.4799 48.5551 35.2657 47.9834 35.27V35.27ZM80.3207 48.9352L76.4774 43.9346L80.3207 48.9352ZM80.3207 48.9352C80.815 49.4707 81.4342 49.7366 82.1235 49.7366C83.4046 49.7366 84.448 48.6693 84.448 47.3588V37.3819C84.3868 36.8016 84.118 36.2649 83.6933 35.875C83.2686 35.4851 82.718 35.2697 82.1474 35.27C80.8663 35.27 79.823 36.3373 79.823 37.6479V41.0458L75.9779 36.0714C75.4853 35.5115 74.8952 35.27 74.1751 35.27C73.8712 35.2679 73.5698 35.3273 73.2884 35.4446C73.0069 35.562 72.7508 35.735 72.5348 35.9538C72.3189 36.1726 72.1473 36.4329 72.0299 36.7197C71.9125 37.0065 71.8516 37.3142 71.8507 37.6251V47.6247C71.9171 48.2009 72.1884 48.732 72.613 49.1166C73.0376 49.5013 73.5858 49.7126 74.1529 49.7104C74.4567 49.7124 74.7579 49.6532 75.0393 49.5359C75.3207 49.4187 75.5767 49.2458 75.7926 49.0272C76.0085 48.8086 76.1802 48.5485 76.2977 48.2619C76.4152 47.9753 76.4763 47.6678 76.4774 47.357V43.9346L80.3207 48.9352V48.9352ZM56.7134 47.357C56.7123 47.6678 56.6512 47.9753 56.5337 48.2619C56.4162 48.5485 56.2446 48.8086 56.0286 49.0272C55.8127 49.2458 55.5567 49.4187 55.2753 49.5359C54.994 49.6532 54.6928 49.7124 54.3889 49.7104C53.8221 49.7122 53.2744 49.5007 52.8501 49.116C52.4259 48.7314 52.1548 48.2006 52.0884 47.6247V37.6496C52.0884 36.3391 53.1318 35.2718 54.4129 35.2718C55.6683 35.2718 56.7134 36.3391 56.7134 37.6496V41.0476L60.5807 35.9979C61.0305 35.5132 61.5779 35.27 62.2415 35.27C63.5226 35.27 64.542 36.3373 64.542 37.6479C64.542 38.206 64.4001 38.6679 64.0682 39.1036L61.3401 42.3563L64.0682 45.8977C64.4001 46.3352 64.542 46.7971 64.542 47.3553C64.5441 47.666 64.4861 47.9742 64.3715 48.262C64.2569 48.5498 64.0879 48.8117 63.8742 49.0326C63.6605 49.2535 63.4063 49.4291 63.1261 49.5493C62.8459 49.6695 62.5453 49.732 62.2415 49.7331C61.5762 49.7331 61.0305 49.4899 60.5807 49.0035L56.7134 43.9556V47.357ZM65.7051 47.6247V37.6496C65.7051 36.3391 66.7245 35.2718 68.0056 35.2718C69.2867 35.2718 70.3079 36.3391 70.3079 37.6496V47.357C70.3079 48.6675 69.2867 49.7104 68.0056 49.7104C67.4377 49.7161 66.888 49.5059 66.4629 49.1205C66.0379 48.7352 65.7678 48.2021 65.7051 47.6247V47.6247ZM90 37.3819V37.2122C90 35.9979 89.0507 35.0041 87.8397 35.0041C86.6544 35.0041 85.6812 35.9979 85.6812 37.2122L85.7274 39.737C85.9172 40.6836 86.7006 41.3135 87.6499 41.3135C88.5752 41.3135 89.3569 40.6836 89.5707 39.737L90 37.3819Z" fill="#E0912F"/>
<path d="M14.6028 61.0201H16.0977C16.7613 60.8994 17.3086 60.5582 17.7106 59.9756C17.9718 59.5369 18.1108 59.0335 18.1125 58.5198C18.1125 57.9861 17.9945 57.526 17.7106 57.0885C17.3168 56.5176 16.7211 56.1259 16.0498 55.9967H14.6028V61.0201ZM27.8414 58.5198C27.8414 56.9906 29.0507 55.7535 30.5217 55.7535C32.0166 55.7535 33.2276 56.9906 33.2276 58.5198C33.2276 60.049 32.0166 61.2616 30.5217 61.2616C30.1695 61.2623 29.8207 61.1918 29.4952 61.0543C29.1697 60.9168 28.874 60.7148 28.625 60.4601C28.3759 60.2053 28.1785 59.9028 28.0441 59.5699C27.9096 59.2369 27.8408 58.8801 27.8414 58.5198Z" fill="white"/>
<path d="M88.2127 65.9753C89.0268 65.9753 89.723 65.3279 89.723 64.4408C89.7228 64.2389 89.6834 64.0391 89.6072 63.853C89.531 63.6668 89.4194 63.4979 89.2789 63.3562C89.1384 63.2144 88.9718 63.1026 88.7888 63.0272C88.6058 62.9518 88.41 62.9142 88.2127 62.9168C87.8162 62.9168 87.4359 63.0779 87.1556 63.3647C86.8752 63.6515 86.7177 64.0404 86.7177 64.446C86.7177 64.8516 86.8752 65.2406 87.1556 65.5274C87.4359 65.8142 87.8162 65.9753 88.2127 65.9753V65.9753ZM86.9948 64.4408C86.9948 63.7181 87.5285 63.1705 88.2127 63.1705C88.8883 63.1705 89.4219 63.7164 89.4219 64.4408C89.4219 65.1774 88.8883 65.7181 88.2127 65.7181C87.5285 65.7198 86.9948 65.1774 86.9948 64.4408ZM87.8962 64.5633H88.1955L88.6505 65.3296H88.943L88.4521 64.5528C88.7053 64.5195 88.9003 64.383 88.9003 64.0681C88.9003 63.7216 88.6984 63.5677 88.2913 63.5677H87.6345V65.3314H87.8962V64.5633V64.5633ZM87.8962 64.3375V63.7916H88.252C88.4333 63.7916 88.6266 63.8319 88.6266 64.0506C88.6266 64.32 88.4299 64.3375 88.2075 64.3375H87.8962Z" fill="#CB0879"/>
</g>
<defs>
<clipPath id="clip0_24_210">
<rect width="80" height="31" fill="white" transform="translate(10 35)"/>
</clipPath>
</defs>
</svg>
