<svg width="100" height="100" viewBox="0 0 100 100" fill="none" xmlns="http://www.w3.org/2000/svg">
<path d="M0.5 0.5H99.5V99.5H0.5V0.5Z" fill="white" stroke="#008B00"/>
<g clip-path="url(#clip0_24_209)">
<path d="M80.7871 64.6043C80.7315 64.6042 80.6772 64.6208 80.6309 64.652C80.5847 64.6832 80.5486 64.7276 80.5272 64.7796C80.5059 64.8316 80.5002 64.8888 80.511 64.9441C80.5217 64.9993 80.5484 65.0501 80.5876 65.09C80.6268 65.1299 80.6768 65.1571 80.7313 65.1682C80.7858 65.1793 80.8423 65.1738 80.8937 65.1523C80.9451 65.1309 80.9891 65.0945 81.0201 65.0478C81.0511 65.0011 81.0677 64.9461 81.0678 64.8898C81.0679 64.8142 81.0384 64.7416 80.9858 64.688C80.9332 64.6345 80.8617 64.6042 80.7871 64.6039V64.6043ZM79.2582 63.0048C79.0072 63.0048 78.8398 63.0757 78.7314 63.2293L78.6934 63.2827L78.684 63.2179C78.6641 63.0982 78.579 63.0284 78.4492 63.0284C78.2945 63.0284 78.1911 63.1466 78.1911 63.3219V64.8581C78.1911 65.0327 78.2945 65.149 78.4492 65.149C78.6027 65.149 78.7066 65.0327 78.7066 64.8578V63.8533C78.7066 63.6002 78.8631 63.4302 79.0964 63.4302C79.2883 63.4302 79.4949 63.5411 79.4949 63.8533V64.8578C79.4949 65.0327 79.5984 65.149 79.7516 65.149C79.9058 65.149 80.0089 65.0327 80.0089 64.8578V63.7534C80.0089 63.2987 79.7147 63.0048 79.2582 63.0048V63.0048ZM76.4036 63.8941C76.4349 63.6212 76.6309 63.4302 76.8808 63.4302C77.1423 63.4302 77.3256 63.6078 77.3621 63.8941L77.3651 63.9246H76.4006L76.4036 63.8941ZM77.6228 64.4926C77.5671 64.4926 77.4987 64.5311 77.4185 64.5761C77.3019 64.6424 77.1562 64.7236 76.979 64.7236C76.6701 64.7236 76.4537 64.5559 76.4161 64.2852L76.4119 64.2536H77.6544C77.8102 64.2536 77.8761 64.185 77.8761 64.0249C77.8761 63.5419 77.4674 63.0044 76.8808 63.0044C76.2599 63.0044 75.8892 63.5579 75.8892 64.0927C75.8892 64.7293 76.3163 65.173 76.9278 65.173C77.3572 65.173 77.8291 64.9325 77.8291 64.7133C77.8291 64.6012 77.7271 64.4926 77.6225 64.4926H77.6228ZM75.5822 62.3937C75.5822 62.218 75.4787 62.1002 75.3248 62.1002C75.1709 62.1002 75.0678 62.218 75.0678 62.3937V64.8574C75.0678 65.032 75.1713 65.1494 75.3248 65.1494C75.4783 65.1494 75.5822 65.032 75.5822 64.8574V62.3937ZM73.8873 63.0048C73.8068 63.0048 73.5317 63.0189 73.3914 63.195L73.3432 63.2545L73.3357 63.1778V62.3941C73.3357 62.218 73.2322 62.1006 73.0783 62.1006C72.9236 62.1006 72.8202 62.218 72.8202 62.3941V64.8574C72.8202 65.0323 72.9236 65.1486 73.0783 65.1486C73.2322 65.1486 73.3357 65.0323 73.3357 64.8574V63.8529C73.3357 63.5998 73.4922 63.4298 73.7255 63.4298C73.9174 63.4298 74.124 63.5407 74.124 63.8529V64.8574C74.124 65.0323 74.2275 65.1486 74.3807 65.1486C74.5349 65.1486 74.6381 65.0323 74.6381 64.8574V63.7531C74.6381 63.2983 74.3434 63.0044 73.8873 63.0044V63.0048ZM71.4745 64.6996C71.1471 64.6996 70.9974 64.3851 70.9974 64.0923C70.9974 63.7969 71.1471 63.4778 71.4745 63.4778C71.8019 63.4778 71.9509 63.7969 71.9509 64.0923C71.9509 64.3851 71.8019 64.6996 71.4745 64.6996ZM71.4745 63.0044C70.8536 63.0044 70.4822 63.5571 70.4822 64.0923C70.4822 64.7083 70.9093 65.1726 71.4745 65.1726C72.0397 65.1726 72.4664 64.7083 72.4664 64.0923C72.4664 63.5571 72.0954 63.0044 71.4745 63.0044ZM70.1868 63.052H69.9818V62.7898C69.9818 62.5496 70.1022 62.5496 70.1993 62.5496C70.3422 62.5496 70.4047 62.4848 70.4047 62.3331C70.4047 62.1406 70.2041 62.1006 70.0363 62.1006C69.6856 62.1006 69.4677 62.3407 69.4677 62.7288V63.052H69.3138C69.2845 63.0514 69.2554 63.0568 69.2282 63.0679C69.201 63.079 69.1763 63.0955 69.1556 63.1165C69.1349 63.1376 69.1186 63.1626 69.1077 63.1902C69.0968 63.2177 69.0915 63.2473 69.0922 63.2769C69.0922 63.418 69.175 63.5019 69.3142 63.5019H69.4677V64.8566C69.4677 65.0316 69.5708 65.1486 69.7244 65.1486C69.8779 65.1486 69.9818 65.0316 69.9818 64.8566V63.5015H70.1868C70.3065 63.5015 70.4484 63.4626 70.4484 63.2766C70.4484 63.1256 70.3629 63.052 70.1868 63.052V63.052ZM67.9983 64.6996C67.6739 64.6996 67.526 64.374 67.526 64.0725C67.526 63.7858 67.6739 63.4778 67.9983 63.4778C68.3031 63.4778 68.4675 63.7946 68.4675 64.0923C68.4675 64.387 68.3027 64.6996 67.9983 64.6996ZM68.0939 63.0044C68.0521 63.0044 68.013 63.0113 67.975 63.017C67.9478 63.0212 67.9209 63.0271 67.8944 63.0345C67.7556 63.073 67.6404 63.1492 67.5757 63.2552L67.5418 63.3113L67.5268 63.2465C67.4922 63.0997 67.4075 63.0284 67.269 63.0284C67.1147 63.0284 67.0105 63.1462 67.0105 63.3219V65.7044C67.0105 65.8794 67.1147 65.9968 67.269 65.9968C67.4226 65.9968 67.526 65.8794 67.526 65.7044V64.9405L67.5704 64.9801C67.7097 65.1025 67.8937 65.1726 68.0736 65.1726C68.6425 65.1726 68.9819 64.6355 68.9819 64.1167C68.9819 63.564 68.6771 63.0044 68.0939 63.0044V63.0044ZM65.8218 63.0044C65.6239 63.0044 65.3857 63.1207 65.2427 63.2869L65.2212 63.3113L65.2009 63.2853C65.0545 63.0993 64.8641 63.0044 64.6334 63.0044C64.4378 63.0044 64.262 63.0841 64.1254 63.2358L64.0867 63.2777L64.078 63.2205C64.0596 63.0966 63.9776 63.028 63.8447 63.028C63.6904 63.028 63.587 63.1462 63.587 63.3215V64.8578C63.587 65.0323 63.6904 65.1486 63.8447 65.1486C63.9983 65.1486 64.1017 65.0323 64.1017 64.8574V63.8529C64.1017 63.5842 64.2334 63.4298 64.4637 63.4298C64.6786 63.4298 64.8227 63.5998 64.8227 63.8529V64.8574C64.8227 65.0323 64.9262 65.1486 65.0801 65.1486C65.234 65.1486 65.3371 65.0323 65.3371 64.8574V63.8529C65.3371 63.5998 65.4831 63.4298 65.6995 63.4298C65.9144 63.4298 66.0585 63.5998 66.0585 63.8529V64.8574C66.0585 65.0323 66.162 65.1486 66.3151 65.1486C66.4694 65.1486 66.5725 65.0323 66.5725 64.8574V63.7531C66.5725 63.2842 66.2918 63.0044 65.8218 63.0044V63.0044ZM61.7992 63.8937C61.83 63.6208 62.0265 63.4298 62.2759 63.4298C62.5375 63.4298 62.7211 63.6074 62.7576 63.8937L62.7606 63.9242H61.7958L61.7992 63.8937ZM63.018 64.4922C62.9623 64.4922 62.8938 64.5307 62.8137 64.5757C62.697 64.642 62.5518 64.7232 62.3745 64.7232C62.0652 64.7232 61.8488 64.5555 61.8112 64.2848L61.8075 64.2532H63.05C63.2054 64.2532 63.2713 64.1846 63.2713 64.0245C63.2713 63.5415 62.8626 63.004 62.2759 63.004C61.6551 63.004 61.2844 63.5575 61.2844 64.0923C61.2844 64.7289 61.7115 65.1726 62.323 65.1726C62.7527 65.1726 63.2242 64.9321 63.2242 64.7129C63.2242 64.6008 63.1226 64.4922 63.018 64.4922V64.4922ZM59.1007 63.0044C58.8498 63.0044 58.6823 63.0753 58.5739 63.2289L58.5363 63.2823L58.5265 63.2175C58.507 63.0978 58.4215 63.028 58.2917 63.028C58.1374 63.028 58.0336 63.1462 58.0336 63.3215V64.8578C58.0336 65.0323 58.1371 65.1486 58.2917 65.1486C58.4452 65.1486 58.5491 65.0323 58.5491 64.8574V63.8529C58.5491 63.5998 58.7056 63.4298 58.9389 63.4298C59.1309 63.4298 59.3378 63.5407 59.3378 63.8529V64.8574C59.3378 65.0323 59.4409 65.1486 59.5945 65.1486C59.7487 65.1486 59.8515 65.0323 59.8515 64.8574V63.7531C59.8515 63.2983 59.5572 63.0044 59.1007 63.0044V63.0044ZM56.2462 63.8937C56.2774 63.6208 56.4734 63.4298 56.7233 63.4298C56.9848 63.4298 57.1681 63.6074 57.2046 63.8937L57.2076 63.9242H56.2432L56.2462 63.8937ZM57.4654 64.4922C57.4097 64.4922 57.3412 64.5307 57.261 64.5757C57.1444 64.642 56.9988 64.7232 56.8215 64.7232C56.5126 64.7232 56.2962 64.5555 56.2586 64.2848L56.2544 64.2532H57.497C57.6528 64.2532 57.7186 64.1846 57.7186 64.0245C57.7186 63.5415 57.31 63.004 56.7233 63.004C56.1024 63.004 55.7318 63.5575 55.7318 64.0923C55.7318 64.7289 56.1589 65.1726 56.7703 65.1726C57.1997 65.1726 57.6716 64.9321 57.6716 64.7129C57.6716 64.6008 57.5696 64.4922 57.465 64.4922H57.4654ZM55.1677 62.7585C55.2464 62.7573 55.3214 62.7245 55.3763 62.6674C55.4312 62.6102 55.4615 62.5333 55.4605 62.4536C55.4605 62.2992 55.3231 62.1642 55.1677 62.1642C55.0142 62.1642 54.8742 62.3015 54.8742 62.4536C54.8742 62.6125 55.0142 62.7585 55.1677 62.7585ZM55.1677 63.028C55.0134 63.028 54.9103 63.1458 54.9103 63.3212V64.857C54.9103 65.0316 55.0138 65.149 55.1677 65.149C55.3216 65.149 55.4247 65.0316 55.4247 64.857V63.3212C55.4247 63.1458 55.3212 63.028 55.1677 63.028ZM54.2311 62.1002C54.0772 62.1002 53.9737 62.2184 53.9737 62.3937V64.8574C53.9737 65.0323 54.0772 65.1494 54.2311 65.1494C54.385 65.1494 54.4892 65.0323 54.4892 64.8574V62.3941C54.4892 62.2188 54.385 62.1006 54.2311 62.1006V62.1002ZM53.2952 63.0288C53.1413 63.0288 53.0379 63.1462 53.0379 63.3223V64.8578C53.0379 65.032 53.1413 65.149 53.2952 65.149C53.4491 65.149 53.5534 65.032 53.5534 64.8578V63.3223C53.5534 63.1462 53.4491 63.0288 53.2952 63.0288ZM53.2952 62.7589C53.4567 62.7589 53.5888 62.6217 53.5888 62.4536C53.5888 62.3026 53.4491 62.1642 53.2952 62.1642C53.1421 62.1642 53.0021 62.3026 53.0021 62.4536C53.0021 62.6137 53.1421 62.7589 53.2956 62.7589H53.2952ZM51.857 63.0048C51.6587 63.0048 51.4205 63.121 51.2775 63.2872L51.2561 63.3116L51.2361 63.2857C51.0894 63.0997 50.8994 63.0048 50.6687 63.0048C50.4726 63.0048 50.2973 63.0844 50.1592 63.2362L50.1216 63.2781L50.1133 63.2209C50.0948 63.097 50.0124 63.0284 49.8796 63.0284C49.7253 63.0284 49.6222 63.1466 49.6222 63.3219V64.8581C49.6222 65.0327 49.7257 65.149 49.8796 65.149C50.0335 65.149 50.1366 65.0327 50.1366 64.8578V63.8533C50.1366 63.5846 50.2691 63.4302 50.499 63.4302C50.7135 63.4302 50.858 63.6002 50.858 63.8533V64.8578C50.858 65.0327 50.9614 65.149 51.115 65.149C51.2685 65.149 51.3724 65.0327 51.3724 64.8578V63.8533C51.3724 63.6002 51.5184 63.4302 51.7347 63.4302C51.9492 63.4302 52.0933 63.6002 52.0933 63.8533V64.8578C52.0933 65.0327 52.1968 65.149 52.3504 65.149C52.5043 65.149 52.6077 65.0327 52.6077 64.8578V63.7534C52.6077 63.2846 52.3267 63.0048 51.857 63.0048ZM48.2043 64.6999C47.8769 64.6999 47.7276 64.3855 47.7276 64.0927C47.7276 63.7973 47.8766 63.4782 48.2043 63.4782C48.5099 63.4782 48.6698 63.787 48.6698 64.0927C48.6698 64.395 48.5099 64.6999 48.2043 64.6999ZM48.9389 63.0288C48.8789 63.028 48.8208 63.0495 48.7755 63.0893C48.7302 63.1291 48.7009 63.1843 48.6931 63.2445L48.6849 63.3151L48.6446 63.2575C48.5317 63.097 48.3428 63.0048 48.1253 63.0048C47.6135 63.0048 47.2124 63.4828 47.2124 64.0927C47.2124 64.719 47.5974 65.173 48.1249 65.173C48.3311 65.173 48.5012 65.0888 48.6461 64.9157L48.6796 64.8757L48.6924 64.9268C48.7338 65.0861 48.8034 65.149 48.9389 65.149C49.1842 65.149 49.1842 64.9477 49.1842 64.8002V63.3783C49.1842 63.2304 49.1842 63.0288 48.9389 63.0288ZM47.0276 62.5813C47.0276 62.4616 46.9524 62.3335 46.7894 62.3335H45.7795C45.5864 62.3335 45.4987 62.4806 45.4987 62.6175V64.865C45.4987 65.04 45.6019 65.149 45.7674 65.149C45.9334 65.149 46.0365 65.04 46.0365 64.865V63.9658H46.675C46.8519 63.9658 46.9328 63.835 46.9328 63.7134C46.9328 63.5956 46.8519 63.4691 46.675 63.4691H46.0365V62.8306H46.7894C46.9528 62.8306 47.0276 62.7017 47.0276 62.5813V62.5813ZM43.1766 63.0044C42.9252 63.0044 42.7578 63.0757 42.6498 63.2293L42.6107 63.2838L42.6013 63.2179C42.5832 63.0982 42.4978 63.0284 42.3668 63.0284C42.2125 63.0284 42.1102 63.1466 42.1102 63.3219V64.8581C42.1102 65.0327 42.2125 65.149 42.3668 65.149C42.5211 65.149 42.6246 65.0327 42.6246 64.8578V63.8533C42.6246 63.6002 42.7815 63.4302 43.0148 63.4302C43.2594 63.4302 43.4122 63.5922 43.4122 63.8533V64.8578C43.4122 65.0327 43.5157 65.149 43.6699 65.149C43.8238 65.149 43.9273 65.0327 43.9273 64.8578V63.7534C43.9273 63.2987 43.6327 63.0048 43.1766 63.0048V63.0044ZM40.3228 63.8941C40.3529 63.6212 40.5489 63.4302 40.7992 63.4302C41.0599 63.4302 41.2443 63.6078 41.2793 63.8941L41.2838 63.9246H40.3194L40.3228 63.8941ZM41.5409 64.4926C41.4852 64.4926 41.4167 64.5311 41.3369 64.5761C41.2199 64.6424 41.0754 64.7236 40.8981 64.7236C40.5881 64.7236 40.3713 64.5559 40.3348 64.2852L40.3303 64.2536H41.5725C41.7286 64.2536 41.7945 64.185 41.7945 64.0249C41.7945 63.5419 41.3858 63.0044 40.7992 63.0044C40.1783 63.0044 39.8073 63.5579 39.8073 64.0927C39.8073 64.7293 40.2347 65.173 40.8462 65.173C41.2756 65.173 41.7474 64.9325 41.7474 64.7133C41.7474 64.6012 41.6451 64.4926 41.5409 64.4926ZM38.7412 63.0048C38.6607 63.0048 38.3856 63.0189 38.2452 63.195L38.1971 63.2545L38.1896 63.1778V62.3941C38.1896 62.218 38.0861 62.1006 37.9322 62.1006C37.7783 62.1006 37.6748 62.218 37.6748 62.3941V64.8574C37.6748 65.0323 37.7783 65.1486 37.9322 65.1486C38.0861 65.1486 38.1896 65.0323 38.1896 64.8574V63.8529C38.1896 63.5998 38.3461 63.4298 38.5794 63.4298C38.8255 63.4298 38.9779 63.5918 38.9779 63.8529V64.8574C38.9779 65.0323 39.0802 65.1486 39.2345 65.1486C39.3884 65.1486 39.4919 65.0323 39.4919 64.8574V63.7531C39.4919 63.2983 39.1973 63.0044 38.7412 63.0044V63.0048ZM37.1457 64.5799C37.1224 64.5799 37.0704 64.5993 37.0151 64.6222C36.9248 64.6561 36.8119 64.6996 36.7235 64.6996C36.3961 64.6996 36.2193 64.387 36.2193 64.0923C36.2193 63.7969 36.3762 63.4778 36.7235 63.4778C36.8243 63.4778 36.9105 63.511 36.9858 63.5407C37.0497 63.5655 37.1111 63.5891 37.1732 63.5891C37.291 63.5891 37.3632 63.4454 37.3632 63.3414C37.3632 63.0871 36.9132 63.0044 36.6953 63.0044C36.0744 63.0044 35.7034 63.5571 35.7034 64.0923C35.7034 64.708 36.1301 65.1726 36.6953 65.1726C36.874 65.1726 37.3632 65.0853 37.3632 64.8044C37.363 64.7456 37.3402 64.6892 37.2996 64.6472C37.2589 64.6052 37.2037 64.5809 37.1457 64.5795V64.5799ZM35.1005 63.028C34.9466 63.028 34.8431 63.1462 34.8431 63.3215V64.8578C34.8431 65.0316 34.9466 65.1486 35.1005 65.1486C35.2544 65.1486 35.3579 65.0316 35.3579 64.8574V63.3219C35.3579 63.1458 35.2544 63.0284 35.1005 63.0284V63.028ZM35.1005 62.7585C35.262 62.7585 35.3937 62.6213 35.3937 62.4532C35.3937 62.3022 35.2541 62.1639 35.1005 62.1639C34.947 62.1639 34.8074 62.3022 34.8074 62.4532C34.8074 62.6133 34.9474 62.7585 35.1009 62.7585H35.1005ZM34.1643 62.1002C34.0108 62.1002 33.9073 62.2184 33.9073 62.3937V64.8574C33.9073 65.0323 34.0108 65.1494 34.1643 65.1494C34.3178 65.1494 34.4217 65.0323 34.4217 64.8574V62.3941C34.4217 62.2188 34.3182 62.1006 34.1643 62.1006V62.1002ZM32.7265 63.0048C32.6459 63.0048 32.3709 63.0189 32.2305 63.195L32.1823 63.2545L32.1748 63.1778V62.3941C32.1748 62.218 32.0713 62.1006 31.9174 62.1006C31.7635 62.1006 31.66 62.218 31.66 62.3941V64.8574C31.66 65.0323 31.7635 65.1486 31.9174 65.1486C32.0713 65.1486 32.1748 65.0323 32.1748 64.8574V63.8529C32.1748 63.5998 32.3314 63.4298 32.5647 63.4298C32.8108 63.4298 32.9632 63.5918 32.9632 63.8529V64.8574C32.9632 65.0323 33.0655 65.1486 33.2198 65.1486C33.3737 65.1486 33.4772 65.0323 33.4772 64.8574V63.7531C33.4772 63.2983 33.1825 63.0044 32.7265 63.0044V63.0048ZM29.879 62.7139C29.93 62.714 29.9799 62.6987 30.0224 62.6701C30.0648 62.6414 30.0979 62.6006 30.1175 62.5529C30.137 62.5052 30.1422 62.4526 30.1322 62.402C30.1223 62.3513 30.0977 62.3047 30.0617 62.2682C30.0256 62.2316 29.9796 62.2068 29.9296 62.1967C29.8796 62.1866 29.8277 62.1918 29.7806 62.2116C29.7335 62.2315 29.6932 62.265 29.6649 62.308C29.6366 62.351 29.6216 62.4015 29.6216 62.4532C29.6216 62.5965 29.7375 62.7139 29.879 62.7139ZM30.3133 64.6992C29.9859 64.6992 29.8369 64.3847 29.8369 64.0923C29.8369 63.7969 29.9859 63.4775 30.3133 63.4775C30.641 63.4775 30.79 63.7969 30.79 64.0923C30.79 64.3847 30.641 64.6992 30.3133 64.6992ZM30.3133 63.0044C29.6928 63.0044 29.3221 63.5571 29.3221 64.0923C29.3221 64.7083 29.7477 65.1726 30.3133 65.1726C30.8792 65.1726 31.3048 64.7083 31.3048 64.0923C31.3048 63.5571 30.9342 63.0044 30.3133 63.0044ZM30.7475 62.7139C30.7825 62.7158 30.8175 62.7105 30.8504 62.6983C30.8832 62.686 30.9133 62.6671 30.9387 62.6427C30.9641 62.6183 30.9844 62.589 30.9982 62.5564C31.0121 62.5238 31.0192 62.4887 31.0192 62.4532C31.0192 62.4177 31.0121 62.3826 30.9982 62.35C30.9844 62.3174 30.9641 62.288 30.9387 62.2636C30.9133 62.2392 30.8832 62.2203 30.8504 62.2081C30.8175 62.1959 30.7825 62.1905 30.7475 62.1925C30.6793 62.1925 30.6138 62.2199 30.5655 62.2688C30.5173 62.3177 30.4901 62.384 30.4901 62.4532C30.4901 62.5223 30.5173 62.5887 30.5655 62.6376C30.6138 62.6865 30.6793 62.7139 30.7475 62.7139V62.7139ZM28.9707 63.0284C28.8111 63.0284 28.702 63.0944 28.5944 63.2564L28.5454 63.3299L28.5372 63.2411C28.5372 63.0982 28.4551 63.0284 28.288 63.0284C28.1563 63.0284 28.0224 63.1184 28.0224 63.2888V64.8574C28.0224 65.0316 28.1259 65.1486 28.2794 65.1486C28.4337 65.1486 28.5372 65.0316 28.5372 64.8574V63.973C28.5372 63.7321 28.7148 63.649 28.886 63.5689C28.9342 63.5461 28.9718 63.5316 29.0083 63.5175C29.131 63.471 29.2198 63.4374 29.2198 63.3093C29.2198 63.1153 29.0948 63.0284 28.9707 63.0284V63.0284ZM26.8145 64.857C26.8145 65.032 26.9176 65.149 27.0715 65.149C27.2254 65.149 27.3289 65.032 27.3289 64.857V63.5019H27.5336C27.6529 63.5019 27.7943 63.4622 27.7943 63.2769C27.7943 63.126 27.7093 63.0524 27.5336 63.0524H27.3289V62.7894C27.3289 62.5493 27.4489 62.5493 27.5452 62.5493C27.6897 62.5493 27.7518 62.4856 27.7518 62.3335C27.7518 62.141 27.5513 62.1002 27.3831 62.1002C27.0323 62.1002 26.8141 62.3411 26.8141 62.7292V63.0524H26.6609C26.6316 63.0517 26.6024 63.057 26.5752 63.0681C26.5479 63.0791 26.5232 63.0957 26.5025 63.1167C26.4817 63.1377 26.4654 63.1628 26.4546 63.1904C26.4437 63.218 26.4385 63.2476 26.4393 63.2773C26.4393 63.4184 26.5221 63.5022 26.6609 63.5022H26.8141L26.8145 64.857ZM24.3779 63.0044C24.1266 63.0044 23.9591 63.0753 23.8511 63.2289L23.8127 63.2834L23.8026 63.2175C23.7853 63.0978 23.6999 63.028 23.5689 63.028C23.4146 63.028 23.3115 63.1462 23.3115 63.3215V64.8578C23.3115 65.0323 23.415 65.1486 23.5689 65.1486C23.7228 65.1486 23.8259 65.0323 23.8259 64.8574V63.8529C23.8259 63.5998 23.9828 63.4298 24.2161 63.4298C24.4619 63.4298 24.6143 63.5918 24.6143 63.8529V64.8574C24.6143 65.0323 24.717 65.1486 24.8713 65.1486C25.0252 65.1486 25.1287 65.0323 25.1287 64.8574V63.7531C25.1287 63.2983 24.834 63.0044 24.3779 63.0044ZM21.9648 64.6996C21.637 64.6996 21.488 64.3851 21.488 64.0923C21.488 63.7969 21.637 63.4778 21.9648 63.4778C22.2921 63.4778 22.4411 63.7969 22.4411 64.0923C22.4411 64.3851 22.2921 64.6996 21.9648 64.6996V64.6996ZM21.9648 63.0044C21.3439 63.0044 20.9728 63.5571 20.9728 64.0923C20.9728 64.7083 21.3999 65.1726 21.9648 65.1726C22.5296 65.1726 22.9567 64.7083 22.9567 64.0923C22.9567 63.5571 22.5856 63.0044 21.9648 63.0044V63.0044ZM20.7373 62.3091C20.6327 62.3091 20.5506 62.3697 20.4934 62.4898L19.8827 64.1499L19.8575 64.2185L19.8312 64.1499L19.22 62.4867C19.1644 62.3697 19.0823 62.3091 18.977 62.3091C18.8437 62.3091 18.7004 62.4086 18.7004 62.5691C18.7004 62.6202 18.7068 62.6583 18.7256 62.7074L19.5896 64.9344C19.6434 65.0678 19.707 65.149 19.8575 65.149C20.008 65.149 20.0709 65.0674 20.1247 64.934L20.9894 62.7074C21.0067 62.6634 21.0154 62.6164 21.015 62.5691C21.015 62.409 20.8705 62.3091 20.7373 62.3091" fill="#E20015"/>
<path fill-rule="evenodd" clip-rule="evenodd" d="M56.4328 48.4043C56.1239 48.3661 55.9948 48.3658 55.9703 48.3661C55.4209 48.3913 55.2554 48.4786 54.9186 48.7698C54.6315 49.0176 54.4557 49.5193 54.417 49.897C54.3906 50.0678 54.3786 50.324 54.3786 50.6899L54.3756 51.7752V51.8095C54.0226 51.8346 53.7329 52.2299 53.7453 52.5055C53.7596 52.8467 53.8943 53.0876 54.3756 53.2115V56.3716C54.3756 56.786 54.7203 57.1271 55.1545 57.1271C55.576 57.1271 55.8932 56.802 55.8932 56.3762V56.1562L55.8947 53.226H56.1291C56.4851 53.2229 56.7839 52.8684 56.7801 52.5025C56.7764 52.148 56.4625 51.8022 56.0783 51.8064H55.8947L55.897 50.8969V50.2226C55.897 49.9187 56.0053 49.7091 56.2759 49.6599L56.5792 49.5841C56.7718 49.5219 56.9224 49.2524 56.9099 48.9761C56.8979 48.7187 56.7293 48.4797 56.4328 48.4043V48.4043ZM74.3396 48.9543L74.3483 56.4311C74.3389 56.813 74.6106 57.0883 75.0268 57.0883C75.4313 57.0883 75.727 56.813 75.727 56.4231V48.9402C75.727 48.5381 75.473 48.2716 75.0689 48.2716C74.6644 48.2716 74.3396 48.5762 74.3396 48.9543V48.9543ZM72.5985 48.9124C72.0886 48.9124 71.6551 49.3248 71.6551 49.8097C71.6551 50.3083 72.0762 50.7093 72.6124 50.7093C73.1344 50.7093 73.5554 50.3083 73.5554 49.8097C73.5554 49.3123 73.1223 48.912 72.5985 48.912V48.9124ZM71.8839 52.4026V56.385C71.8839 56.7738 72.2294 57.1024 72.6365 57.1024C73.0459 57.1024 73.3639 56.7864 73.3639 56.385V52.403C73.3639 52.0142 73.0188 51.6863 72.6113 51.6863C72.2038 51.6863 71.8839 52.0016 71.8839 52.403V52.4026ZM78.3352 56.0217L77.0636 58.3325C77.0136 58.4171 77.0012 58.5029 77.0012 58.5993C77.0012 58.9881 77.3192 59.3034 77.7278 59.3034C77.9829 59.3034 78.2253 59.1574 78.3525 58.9153L79.7259 56.4105L81.7406 52.597C81.7926 52.5242 81.805 52.4514 81.805 52.3664C81.805 52.0016 81.4851 51.686 81.1039 51.686C80.9113 51.686 80.6701 51.7828 80.5929 51.9048L80.4405 52.1114L79.1133 54.5522L77.7233 52.1236C77.5321 51.8091 77.3414 51.686 77.0467 51.686C76.6132 51.686 76.2941 51.9902 76.2941 52.403C76.2941 52.488 76.3205 52.5734 76.3457 52.6332L78.3352 56.0217ZM67.3733 52.2078C67.1426 51.9894 66.9902 51.8808 66.8122 51.7961C66.5563 51.6749 66.1744 51.5891 65.8684 51.5891C65.5373 51.5891 65.129 51.6867 64.8615 51.8445L64.6703 51.9536C64.6579 51.9654 64.6447 51.9654 64.6316 51.9654C64.6188 51.9654 64.6071 51.9536 64.5555 51.8808C64.5431 51.8552 64.504 51.8316 64.4284 51.7836L64.3128 51.7226C64.2635 51.7046 64.2122 51.6926 64.1601 51.6867C64.1093 51.6749 64.0585 51.6749 64.0073 51.6749C63.6633 51.6749 63.3314 51.941 63.2938 52.2562L63.2682 52.4396L63.2795 56.2249L63.2938 56.5409C63.3187 56.8313 63.6889 57.1108 64.0585 57.1108C64.4912 57.1108 64.7975 56.7471 64.7975 56.2249V54.5019C64.7975 54.0764 64.8103 53.7974 64.8223 53.6895C64.8223 53.6041 64.8479 53.5188 64.8991 53.4341C64.9507 53.3243 65.0139 53.2401 65.0914 53.1787C65.231 53.0705 65.4225 53.0091 65.6389 53.0091C65.97 53.0091 66.1612 53.1303 66.276 53.3979C66.3147 53.4822 66.3399 53.5664 66.3399 53.6278V56.2123L66.3663 56.5161C66.3907 56.8191 66.7614 57.0986 67.1177 57.0986C67.3733 57.0986 67.6536 56.9297 67.7804 56.7105C67.8444 56.6011 67.8575 56.5283 67.8828 56.2123V54.5019C67.8828 53.6404 67.9343 53.4215 68.2146 53.1902C68.3579 53.0703 68.5387 53.0061 68.7245 53.0091C69.0049 53.0091 69.2081 53.1303 69.3112 53.385C69.4 53.5912 69.4256 53.7372 69.4256 54.3318L69.4128 56.1799V56.2283L69.4508 56.5439C69.5656 56.932 69.8207 57.1146 70.2034 57.1146C70.6489 57.1146 70.9037 56.8222 70.9545 56.2283V53.8218C70.9545 52.4019 70.2421 51.5891 69.0052 51.5891C68.5838 51.5891 68.0995 51.7111 67.7804 51.9048C67.6536 51.978 67.5772 52.0382 67.3733 52.2078V52.2078ZM58.1728 54.4515C58.1728 53.5744 58.7545 52.852 59.5324 52.852C60.3113 52.852 60.9773 53.5634 60.9773 54.4416C60.9773 55.3188 60.3113 56.0304 59.5324 56.0304C58.7545 56.0304 58.1732 55.329 58.1732 54.4515H58.1728ZM59.0533 51.6177C59.7803 51.5884 60.2763 51.6562 60.843 52.1152C61.123 51.8533 61.123 51.6349 61.6065 51.6322C61.9471 51.6303 62.3027 51.9227 62.3027 52.2673V56.5576C62.3027 56.8534 61.9407 57.118 61.5787 57.118C60.9216 57.118 60.9487 56.6167 60.8663 56.6606L60.7997 56.6956C60.773 56.7097 60.7809 56.7879 60.2661 57.0376C59.9154 57.2072 59.3833 57.3242 59.0063 57.2682C57.4108 57.0299 56.759 55.7365 56.7749 54.3749C56.7899 53.12 57.7167 51.6715 59.0533 51.6177" fill="#E20015"/>
<path d="M22.4723 56.2409L22.5397 56.2359C22.8144 56.3106 22.8325 56.6903 22.7516 56.8287C22.6232 57.0498 21.547 57.5377 20.691 57.6662C19.9444 57.7786 18.9122 57.8209 18.4275 57.3326C17.9399 56.8413 18.0855 56.0853 18.3237 55.4792C18.4445 55.1716 18.5969 54.8865 18.7241 54.6665C18.849 54.4512 18.9506 54.3002 18.9732 54.2567C19.1387 53.9457 19.7295 52.8837 20.6977 51.5728C21.4496 50.5546 21.9406 49.9405 22.3196 50.0034L22.3941 50.0102C22.4287 50.0133 22.4723 50.0194 22.5152 50.035C22.6116 50.0701 22.7015 50.1528 22.6883 50.3114C22.6808 50.4132 22.6229 50.4802 22.5476 50.5599C22.4727 50.6392 22.3542 50.7566 22.1739 50.9647C21.8157 51.3806 21.2114 52.1674 20.2206 53.7722C19.8785 54.3254 19.474 54.9955 19.2208 55.5745C18.9574 56.1776 18.899 56.5954 19.1041 56.7433C19.404 56.9621 20.3459 56.8717 20.9197 56.7665C21.2151 56.7103 21.5054 56.6292 21.7875 56.5241C22.0509 56.4269 22.2812 56.324 22.4723 56.2409" fill="black"/>
<path d="M24.1544 50.2435C24.3832 50.1993 24.6316 50.1288 24.8446 50.0735C25.0496 50.0217 25.2566 49.9725 25.3729 49.9957C25.625 50.0476 25.8602 50.2687 25.879 50.4871C25.8918 50.6396 25.7853 50.7139 25.6954 50.7471C25.6521 50.7635 25.605 50.7745 25.5569 50.7841L25.4312 50.8077C24.6267 50.9808 24.1258 51.0787 23.281 51.1961C22.3064 51.3303 21.8267 51.4348 20.7693 51.4268C20.5811 51.4248 20.0912 51.206 20.4675 50.691L20.5559 50.6499C20.9609 50.6786 21.3673 50.6798 21.7725 50.6533C22.276 50.6243 23.2299 50.4265 24.1544 50.2435ZM18.7926 53.8805C19.3209 53.8954 19.9327 53.8233 20.463 53.7391C20.9992 53.6545 21.4522 53.558 21.6543 53.5245C22.3486 53.4105 23.0541 53.218 23.6287 53.1128C24.1811 53.0102 24.7049 52.9641 24.9251 53.2542L24.9815 53.3388C25.0041 53.3819 25.0252 53.4406 25.0361 53.5134C25.0444 53.5816 25.0466 53.6628 25.0361 53.7608C25.298 53.4799 25.6111 53.2248 26.0295 53.0358C26.4649 52.8376 27.0764 52.6302 27.4143 52.8593C27.5121 52.9256 27.578 52.9996 27.5787 53.1353C27.5791 53.2306 27.5185 53.3297 27.4598 53.4086C27.3962 53.4932 27.3191 53.5725 27.2581 53.6323L27.1516 53.6533C26.9928 53.5916 26.9048 53.5645 26.7452 53.5611C26.2884 53.5511 25.7541 54.068 25.2133 54.636C24.7068 55.1686 24.1266 56.1356 23.8647 56.6312C23.8446 56.6702 23.8271 56.7104 23.812 56.7517L23.783 56.8443C23.7755 56.8698 23.765 56.903 23.7473 56.9335C23.7271 56.9697 23.6956 56.9982 23.6577 57.0143C23.5264 57.0715 23.3936 57.0982 23.243 57.0158C23.0888 56.9316 23.0304 56.7982 23.0146 56.6426C22.9992 56.4761 23.1249 56.2313 23.257 55.9977C23.3947 55.7537 23.5689 55.4739 23.7014 55.2078C23.8161 54.9764 23.9749 54.6985 24.0878 54.4519C24.1435 54.3254 24.1838 54.2175 24.2015 54.1309C24.2203 54.0391 24.2112 53.9899 24.1969 53.9678C24.1894 53.9586 24.1623 53.9381 24.0777 53.9297C23.9752 53.9241 23.8725 53.9288 23.771 53.9438C23.5264 53.9754 23.2475 54.0406 23.0447 54.0764C22.4272 54.187 20.1661 54.5625 19.5339 54.6044C19.3521 54.6158 19.1583 54.6299 18.9901 54.6158C18.8208 54.6044 18.6454 54.5625 18.5356 54.4393C18.3877 54.2747 18.4114 54.0726 18.4592 53.898L18.4866 53.7993L18.5864 53.8268L18.7094 53.8649C18.7364 53.8736 18.7643 53.8787 18.7926 53.8801V53.8805ZM34.8021 56.9438C34.5263 57.1115 34.2241 57.0707 34.0702 56.9171C33.9603 56.8054 33.9818 56.5977 34.0337 56.3922C34.0879 56.1745 34.1955 55.9035 34.3239 55.6107C34.5816 55.0214 34.9466 54.3101 35.2383 53.6849C35.6258 52.8581 35.9833 52.0942 36.2798 51.543C36.4292 51.2644 36.5632 51.0395 36.6772 50.887C36.7352 50.8092 36.7901 50.7459 36.8435 50.7029C36.8936 50.6621 36.9561 50.6274 37.023 50.6381C37.2093 50.6686 37.3192 50.757 37.3805 50.8618C37.4106 50.9133 37.4264 50.9632 37.4351 51.0059C37.4452 51.0452 37.4475 51.0814 37.4509 51.1085C36.8161 52.1583 36.5 52.8166 36.0051 53.7924C35.6721 54.4511 35.0934 55.8116 34.9779 56.1722C34.9247 56.3405 34.8851 56.5129 34.8593 56.6876L34.8337 56.8504L34.8179 56.9114L34.8021 56.9438V56.9438Z" fill="black"/>
<path d="M37.4422 53.7875C37.3037 53.7997 37.0584 53.8317 36.7574 53.8752C36.3118 53.94 35.808 54.0155 35.5385 54.0238C35.2187 54.0345 34.8503 54.0974 34.5429 54.1001C34.2403 54.1024 33.916 54.049 33.8185 53.7391C33.7587 53.5462 33.8689 53.2794 34.0902 53.2531C34.3874 53.311 34.6576 53.3141 34.9568 53.295C35.2593 53.2771 35.5837 53.2359 35.9498 53.2073C36.6535 53.152 37.2131 53.0537 37.6157 53.0064C37.8136 52.9839 37.9882 52.971 38.126 52.9889C38.2633 53.0053 38.3848 53.0556 38.4447 53.1768C38.5482 53.3865 38.4831 53.5477 38.3544 53.7593C38.2291 53.9651 38.0165 54.2587 37.7485 54.766C37.5781 55.09 37.4005 55.4183 37.297 55.6805C37.2432 55.8155 37.2164 55.9172 37.2131 55.9874C37.2097 56.0587 37.2285 56.0731 37.2379 56.0789C37.3576 56.1379 37.6244 55.9996 38.0142 55.6653C38.3762 55.3523 38.7728 54.9353 39.1032 54.6147C39.262 54.4595 39.4223 54.2792 39.5773 54.0944C39.7354 53.9064 39.8882 53.7158 40.0296 53.5462C40.1685 53.3796 40.304 53.2252 40.427 53.1135C40.5418 53.0087 40.6716 52.9188 40.7947 52.9386C40.8631 52.95 40.9557 52.9672 41.0328 53.0072C41.0782 53.0279 41.1173 53.0605 41.1462 53.1015C41.1751 53.1426 41.1927 53.1907 41.1973 53.2409C41.2011 53.279 41.1883 53.316 41.1766 53.3446C41.1627 53.3765 41.1463 53.4074 41.1277 53.4368C41.09 53.5001 41.0359 53.5805 40.9719 53.6731C40.8492 53.8546 40.6904 54.0871 40.5501 54.3433C40.4334 54.5541 40.3438 54.7195 40.2565 54.8853C40.3649 54.7771 40.4718 54.6703 40.5802 54.5659C40.8469 54.3055 41.128 54.0605 41.4219 53.8321C41.5762 53.7139 41.7305 53.5878 41.8844 53.4684C42.0394 53.3484 42.1971 53.234 42.3544 53.1444C42.6637 52.966 42.999 52.8677 43.3125 53.0568C43.4487 53.1387 43.4987 53.2626 43.4878 53.4029C43.4765 53.5329 43.4129 53.6792 43.3358 53.8241C43.1792 54.1191 42.9188 54.4878 42.6991 54.9067C42.599 55.098 42.5004 55.2726 42.4172 55.4354C42.3356 55.5967 42.2724 55.743 42.2359 55.8814C42.1117 56.3522 42.2396 56.6102 42.6355 56.592L42.7145 56.6255C42.771 56.685 42.8233 56.7551 42.8184 56.8687C42.8108 57.1317 42.4172 57.2377 42.2069 57.2041C41.647 57.1119 41.2662 56.5958 41.3666 56.0366C41.4645 55.4857 41.79 54.9105 42.0703 54.4748C42.1896 54.288 42.3028 54.1256 42.3909 53.9972C42.0899 54.2285 41.5457 54.6974 41.1017 55.098C40.5124 55.6294 40.1105 56.0968 39.8264 56.4303C39.6816 56.6007 39.5679 56.7364 39.4742 56.8287C39.3892 56.9152 39.2895 57.0017 39.1811 56.9964C39.0136 56.9888 38.8063 56.924 38.7446 56.7067C38.6893 56.5191 38.789 56.2466 38.9158 55.971C38.9621 55.8719 39.0151 55.7663 39.0723 55.6565L38.9564 55.7739C38.7164 56.0125 38.4515 56.2603 38.1835 56.4681C37.6725 56.8668 37.0712 57.1862 36.6501 56.8382C36.141 56.4177 36.439 55.5776 36.7653 54.9338C36.9361 54.5956 37.1318 54.2781 37.2808 54.0418L37.4422 53.7875V53.7875Z" fill="black"/>
<path d="M46.5986 53.4913C46.5545 53.4899 46.5104 53.4964 46.4684 53.5104C46.3668 53.5409 46.2306 53.6022 46.0767 53.6853C45.7704 53.8508 45.4084 54.097 45.1405 54.3376C44.4519 54.9593 43.7971 55.7899 44.0379 56.1692C44.1252 56.3076 44.3458 56.3102 44.7014 56.1562C45.0389 56.0102 45.437 55.7453 45.7941 55.4739L45.8588 55.4194C45.9341 55.3538 46.0143 55.27 46.1 55.1689C46.3672 54.8571 46.6728 54.397 47.0069 53.8633L47.0615 53.7757L47.1488 53.8329L47.2602 53.9015C47.2967 53.9251 47.3373 53.951 47.3716 53.9827C47.4502 54.0566 47.4905 54.1531 47.469 54.2914C47.4374 54.4874 47.3791 54.6036 47.3117 54.7035L47.215 54.8369C47.181 54.8838 47.151 54.9335 47.1255 54.9856C46.8771 55.4804 46.7292 55.82 46.5185 56.2359L46.4282 56.4109L46.2972 56.6587C46.2205 56.7978 46.1516 56.9331 46.0842 57.065C45.8355 57.5636 45.6492 57.9955 45.4291 58.3973C45.1386 58.9249 44.7894 59.4029 44.2016 59.8462C43.5393 60.3475 41.9751 60.7878 41.6993 59.8843C41.5168 59.2889 42.6976 58.2822 43.5619 57.7435C44.2037 57.3425 44.8656 56.9755 45.545 56.6442C45.8031 56.5185 46.0664 56.404 46.3341 56.3011L46.5185 56.2363C46.7932 56.1437 46.9945 56.1212 47.1582 56.1402C47.3219 56.1593 47.6474 56.2714 47.6496 56.5603C47.6538 56.9251 47.2647 56.8412 47.1665 56.8683C47.0438 56.85 46.9144 56.943 46.8666 56.9316C46.8273 56.923 46.7874 56.9183 46.7473 56.9175C46.669 56.9156 46.6269 56.9186 46.4361 56.967C46.311 56.9961 46.189 57.0373 46.0718 57.0902C45.7964 57.2095 45.5142 57.3509 45.2402 57.4969L45.0039 57.6254C44.6878 57.7988 44.3988 57.9688 44.2016 58.0866C43.7832 58.3401 43.2985 58.7228 42.9486 59.0617C42.7732 59.2313 42.634 59.3857 42.555 59.5066C42.5248 59.5479 42.5019 59.5942 42.4872 59.6434C42.7762 59.8622 43.6985 59.4147 44.1523 58.9047C44.4056 58.6188 44.7078 58.1415 45.0039 57.6254L45.0415 57.559L45.1364 57.389C45.2752 57.1447 45.4088 56.8984 45.5326 56.6682L45.6406 56.4646C44.9967 56.895 44.1373 57.2076 43.5194 56.6106C42.7807 55.8947 43.6398 54.6093 44.5211 53.8386C45.338 53.1238 46.5945 52.4198 47.1638 52.9191C47.4611 53.1799 47.4129 53.5565 47.2602 53.9011L47.2278 53.9651C47.0942 54.2423 46.8918 54.5171 46.7123 54.7397C46.6604 54.8049 46.619 54.875 46.5685 54.9467C46.514 55.0229 46.447 55.1068 46.3492 55.1861C46.3005 55.2242 46.2489 55.2584 46.1949 55.2883C46.0899 55.3487 45.9767 55.3929 45.8588 55.4194C45.8319 55.4242 45.8046 55.427 45.7772 55.4278C45.5902 55.4327 45.431 55.1278 45.4611 55.0176C45.4694 54.9856 45.4931 54.9589 45.5032 54.9467L45.6756 54.7973C45.7727 54.721 45.8795 54.6322 45.9548 54.5464C46.1347 54.3437 46.3273 54.1195 46.4564 53.9175C46.5892 53.7101 46.6333 53.5675 46.5986 53.4913V53.4913ZM50.8038 51.3631C50.7334 51.6829 50.362 52.432 49.7656 52.4114C49.6934 52.407 49.6256 52.3753 49.5754 52.3227C49.5252 52.27 49.4964 52.2002 49.4946 52.127C49.4946 52.0954 49.5052 52.0683 49.5153 52.0489L49.644 51.8838C49.7387 51.7714 49.8182 51.6466 49.8803 51.5129C49.9639 51.3375 49.9921 51.2327 50.0248 51.0372C50.0433 50.9278 50.1298 50.8717 50.2096 50.8466C50.2905 50.8203 50.3827 50.8203 50.4553 50.8328C50.6976 50.8736 50.8602 51.1107 50.8038 51.3631V51.3631ZM49.3087 54.3509C49.6519 54.025 50.0312 53.5996 50.3484 53.2546C50.4871 53.1032 50.6299 52.9557 50.7767 52.8124C50.8391 52.7552 50.8967 52.7064 50.9475 52.6706C50.9945 52.6374 51.0491 52.6073 51.1007 52.6058C51.2873 52.5974 51.4021 52.6401 51.4803 52.7152L51.5522 52.8051L51.6557 52.9027L51.6184 52.9786C51.5725 53.0743 51.53 53.1482 51.4958 53.2248C51.4599 53.3006 51.4332 53.3805 51.4164 53.4627C51.305 54.0017 51.3144 54.6848 51.1913 55.6847C51.0833 56.5603 50.5095 57.4675 49.3866 57.2545C49.0002 57.1813 48.5855 56.8046 48.6374 56.4158C48.6641 56.2146 48.8711 55.9946 49.0973 56.0423C49.1913 56.0613 49.2504 56.1147 49.2854 56.1803C49.3035 56.2096 49.3155 56.2412 49.3242 56.2683L49.3482 56.348C49.3765 56.4349 49.4115 56.5111 49.5721 56.5489C50.0331 56.6556 50.3699 56.0647 50.4094 55.4758C50.4346 55.0889 50.5185 54.5476 50.5874 54.0978C50.1132 54.6236 49.6193 55.1307 49.1067 55.618C48.9862 55.7346 48.8037 55.9062 48.619 56.0518C48.4402 56.1921 48.2852 56.2515 48.1332 56.2519C47.7738 56.2569 47.6711 55.9714 47.6764 55.9268L47.7798 55.8029L47.6278 55.8593C47.8412 55.7426 48.1219 55.4998 48.4226 55.2151C48.7236 54.928 49.0359 54.6097 49.3087 54.3509V54.3509ZM29.9189 53.9754C29.8056 54.0596 29.6957 54.1485 29.5896 54.2419C29.2792 54.5087 28.9089 54.8632 28.6286 55.1377C27.9313 55.8212 27.5467 56.308 27.3115 56.6194C27.1904 56.7776 27.1076 56.8919 27.0421 56.9647C26.9785 57.0345 26.8957 57.1073 26.7859 57.0856C26.5243 57.0341 26.3516 56.8695 26.3061 56.606C26.2692 56.3899 26.7482 55.3043 27.1591 54.6219C27.3616 54.2869 27.5738 53.8725 27.7838 53.5527C27.9814 53.2527 28.2297 52.9462 28.5078 53.006C28.6211 53.0301 28.7001 53.0586 28.7573 53.1097C28.7859 53.1364 28.807 53.1658 28.8224 53.1924L28.8626 53.2706L28.8551 53.3777C28.6341 53.6937 28.4247 54.018 28.2275 54.3498C28.1289 54.5137 28.0472 54.6509 27.9731 54.7824L28.0886 54.6566C28.3415 54.3848 28.6128 54.1085 28.8751 53.8923C29.0425 53.7558 29.1998 53.6186 29.3492 53.4985C29.499 53.3766 29.6465 53.2672 29.7921 53.1879C30.0882 53.0251 30.3912 52.9813 30.6978 53.2115C31.0083 53.4452 30.9161 53.7684 30.7603 54.044C30.6075 54.3143 30.3539 54.6086 30.1921 54.8827C30.0292 55.159 29.8109 55.4865 29.6645 55.7712C29.5893 55.9161 29.54 56.0365 29.5219 56.1296C29.5031 56.2264 29.5204 56.2691 29.5426 56.2897C29.5629 56.3083 29.6194 56.3198 29.762 56.2355C29.8911 56.1581 30.0574 56.0201 30.2482 55.8379C30.6211 55.4815 31.0497 55.0062 31.4177 54.6574C31.5965 54.486 31.7672 54.3063 31.9295 54.1187C32.0969 53.9274 32.2595 53.7322 32.4074 53.5542C32.5365 53.3958 32.6695 53.2408 32.8062 53.0891C32.9172 52.9694 33.0234 52.868 33.1073 52.8372C33.2213 52.7952 33.3263 52.8417 33.4045 52.8917C33.4768 52.9374 33.5521 53.0034 33.6296 53.0602L33.6973 53.1097L33.6634 53.186C33.6202 53.2832 33.5814 53.3594 33.5483 53.4364C33.5148 53.5133 33.4908 53.5941 33.4768 53.6769C33.3842 54.2201 33.4764 54.8217 33.3285 55.91C33.2081 56.7921 32.5812 57.5987 31.5987 57.4744C31.2062 57.4233 30.8051 57.0806 30.8427 56.6914C30.8638 56.4787 31.0271 56.3156 31.2412 56.3106C31.2797 56.3107 31.317 56.3242 31.347 56.3487C31.3689 56.3675 31.3886 56.3887 31.4057 56.412C31.4365 56.4517 31.4685 56.5043 31.5054 56.5576C31.5795 56.6644 31.6446 56.733 31.7161 56.7418C32.2493 56.8142 32.4811 56.3003 32.5673 55.7163C32.6267 55.3085 32.635 54.7881 32.6625 54.3498C32.2203 54.8663 31.7737 55.3256 31.1923 55.9249C30.886 56.2405 30.48 56.6358 30.0754 56.8839C29.6777 57.1294 29.2401 57.2541 28.9089 56.9487C28.5582 56.6251 28.6117 56.202 28.7753 55.8071C28.8574 55.6127 28.971 55.4125 29.0907 55.2177C29.207 55.029 29.3281 54.8442 29.4282 54.6738C29.5411 54.482 29.7067 54.2667 29.8376 54.0867L29.9189 53.9754ZM39.072 51.8392C39.0385 52.0984 38.7743 52.4686 38.3212 52.4106C38.0462 52.3755 37.9585 52.0569 37.9931 51.8426C38.0089 51.737 38.056 51.5632 38.1782 51.4672C38.3291 51.3452 38.5034 51.3356 38.6377 51.3501C38.8654 51.3757 39.1081 51.5628 39.072 51.8392Z" fill="black"/>
<path d="M90 41.8396V33.0039H81.9506V40.7089C86.6231 41.2323 89.9996 41.8396 89.9996 41.8396" fill="#E20079"/>
<path d="M50.6627 41.893C57.9015 40.9015 64.7392 39.9645 69.9949 39.9645C73.9423 39.9645 78.0319 40.2828 81.4784 40.6575V33.0031H47.5496V42.3169C48.5881 42.177 49.6278 42.0348 50.6627 41.893" fill="#E20015"/>
<path d="M47.0784 42.3805V33.0039H34.1195V43.781C38.1105 43.5317 42.5798 42.9832 47.0784 42.3801" fill="#F4B4D1"/>
<path d="M33.6473 43.8104V33.0039H31.762V43.8931C32.3765 43.874 33.0038 43.8473 33.6473 43.8104Z" fill="#6FB953"/>
<path d="M30.0054 43.9243C30.4246 43.9243 30.8551 43.9175 31.2909 43.9072V33.0035H23.2795V43.6617C25.4199 43.8214 27.6927 43.9243 30.0054 43.9243Z" fill="#FFCB00"/>
<path d="M22.808 43.6262V33.0039H20.9228V43.46C21.5362 43.5195 22.1646 43.5755 22.808 43.6262Z" fill="#BBD14D"/>
<path d="M20.4513 43.4143V33.0042H18.5656V43.2077C19.1749 43.279 19.8022 43.348 20.4513 43.4143" fill="#A2CDEB"/>
<path d="M18.0953 33.0043H10V41.8606C10.5927 41.9845 13.7261 42.6184 18.0953 43.1517V33.0043Z" fill="#0076BE"/>
</g>
<defs>
<clipPath id="clip0_24_209">
<rect width="80" height="33" fill="white" transform="translate(10 33)"/>
</clipPath>
</defs>
</svg>
