<svg width="100" height="100" viewBox="0 0 100 100" fill="none" xmlns="http://www.w3.org/2000/svg">
<path d="M99.723 0.277954H0.278015V99.723H99.723V0.277954Z" fill="white"/>
<path d="M99.444 0.555V99.444H0.556V0.555H99.444ZM100 0H0V100H100V0Z" fill="#0D8C2F"/>
<path d="M83.274 77.7739H18.077C13.265 77.7739 13.182 73.0789 13.181 72.8779V27.1229C13.181 22.3119 17.876 22.2279 18.077 22.2269H83.278C88.09 22.2269 88.173 26.9209 88.174 27.1229V72.8779C88.172 77.6899 83.475 77.7729 83.274 77.7739Z" fill="white"/>
<path d="M18.076 22.343C17.884 22.344 13.297 22.425 13.297 27.122V72.876C13.298 73.07 13.379 77.656 18.076 77.656H83.274C83.469 77.655 88.054 77.576 88.054 72.876V27.123C88.053 26.931 87.973 22.344 83.274 22.344H18.076V22.343ZM83.275 79.167H18.075C13.1 79.167 11.786 75.055 11.786 72.877V27.123C11.786 22.148 15.899 20.834 18.075 20.834H83.275C88.251 20.834 89.563 24.947 89.563 27.123V72.877C89.565 77.853 85.451 79.167 83.275 79.167Z" fill="#E3282A"/>
<path d="M82.458 62.952H76.892V69.465H79.335V67.109H82.359V65.612H79.335V64.448H82.456L82.458 62.952ZM76.232 65.175C76.232 63.535 75.006 62.952 73.859 62.952H69.543V69.462H71.986V67.562H73.849C74.536 67.562 75.118 67.369 75.529 67.002C75.997 66.59 76.232 65.975 76.232 65.175ZM68.923 69.462L66.6 62.95H63.176L60.891 69.462H63.318L63.72 68.034H65.931L66.366 69.462H68.923ZM60.316 62.952H58.233V67.606H58.131L56.912 62.952H53.2V69.465H55.278V64.676H55.382L56.671 69.465H60.315V62.952H60.316ZM52.53 67.408C52.53 65.839 51.158 65.575 50.155 65.382C49.542 65.266 49.057 65.171 49.057 64.817C49.057 64.336 49.825 64.336 50.193 64.336C50.836 64.336 51.495 64.443 52.103 64.649V63.06C51.404 62.918 50.645 62.839 49.965 62.839C47.743 62.839 46.616 63.543 46.616 64.931C46.616 66.507 47.978 66.784 48.973 66.987C49.595 67.114 50.086 67.212 50.086 67.579C50.086 68.031 49.259 68.08 48.902 68.08C48.147 68.08 47.338 67.93 46.68 67.668V69.276C47.617 69.487 48.417 69.578 49.358 69.578C49.959 69.578 50.818 69.502 51.494 69.141C52.181 68.771 52.53 68.188 52.53 67.408ZM46.098 67.408C46.098 65.839 44.727 65.575 43.725 65.382C43.112 65.266 42.626 65.171 42.626 64.817C42.626 64.336 43.393 64.336 43.761 64.336C44.404 64.336 45.066 64.443 45.673 64.649V63.06C44.985 62.921 44.206 62.839 43.535 62.839C41.311 62.839 40.183 63.543 40.183 64.931C40.183 66.507 41.547 66.784 42.543 66.987C43.165 67.114 43.656 67.212 43.656 67.579C43.656 68.031 42.829 68.08 42.474 68.08C41.716 68.08 40.907 67.93 40.249 67.668V69.276C41.186 69.487 41.988 69.578 42.928 69.578C43.53 69.578 44.388 69.502 45.064 69.141C45.75 68.771 46.098 68.189 46.098 67.408ZM39.43 67.967H36.12V66.975H39.222V65.479H36.12V64.449H39.365V62.955H33.734V69.467H39.43V67.967ZM32.984 69.462C32.882 69.191 32.828 68.861 32.773 68.539L32.769 68.519C32.687 68.046 32.604 67.557 32.389 67.169C32.128 66.782 31.783 66.563 31.298 66.479L31.291 66.477L31.264 66.445V66.384L31.267 66.377L31.3 66.368C32.339 66.119 32.844 65.561 32.844 64.662C32.844 63.511 32.024 62.951 30.336 62.951H26.287V69.461H28.729V67.22H29.343C29.648 67.22 29.937 67.248 30.103 67.587C30.238 67.842 30.299 68.352 30.353 68.802L30.358 68.845C30.387 69.078 30.414 69.3 30.449 69.461H32.984V69.462ZM25.5 62.952H19.936V69.465H22.377V67.109H25.406V65.612H22.377V64.448H25.5V62.952ZM22.801 58.088L22.864 58.193C23.767 58.658 35.989 59.802 51.075 59.802C66.172 59.802 78.388 58.656 79.286 58.193L79.349 58.088L79.287 57.984C78.833 57.735 75.752 57.255 70.742 56.815L69.025 56.673C66.273 56.456 63.408 56.288 60.506 56.172L58.668 56.108C56.137 56.026 53.61 55.982 51.155 55.982C48.01 55.982 44.777 56.047 41.545 56.18L38.647 56.316L34.778 56.554L31.482 56.814C26.427 57.254 23.318 57.735 22.86 57.984L22.801 58.088ZM83.905 71.949C81.613 73.06 74.251 73.643 68.164 73.643L51.406 73.728H50.854L34.238 73.643C28.425 73.643 20.141 72.902 18.172 71.949C17.253 71.503 16.968 71.009 17.2 69.122C17.457 67.036 19.034 60.114 19.375 58.726C19.698 57.354 22.005 56.256 26.235 55.463L27.307 55.275C31.645 54.566 37.574 54.159 44.931 54.065L46.028 54.052L48.309 54.041L50.561 54.051L51.174 54.054H51.322L51.935 54.051L54 54.044L54.768 54.045L55.698 54.049C62.816 54.088 68.718 54.405 73.236 54.987L73.978 55.089C76.658 55.465 78.789 55.942 80.312 56.508L80.848 56.722C82.208 57.302 82.989 57.976 83.169 58.724C83.492 60.139 84.815 67.471 85.031 69.046C85.302 71.003 84.571 71.625 83.905 71.949ZM73.791 65.224C73.791 66.02 73.114 66.122 72.525 66.122H71.917V64.391H72.514C73.178 64.391 73.791 64.492 73.791 65.224ZM30.402 65.062C30.402 65.78 29.87 65.837 29.325 65.837H28.616V64.333H29.363C29.877 64.333 30.402 64.42 30.402 65.062ZM64.903 64.315L65.637 66.539H64.04L64.788 64.315L64.824 64.28H64.845H64.863L64.903 64.315ZM45.942 24.838L45.925 24.849L45.863 24.896L45.841 24.922C44.951 26.672 43.66 30.3 43.715 32.526L43.748 32.607L43.764 32.618C44.328 33.024 47.921 34.538 49.572 35.209L49.75 35.281L49.822 35.275L49.858 35.212L49.859 35.155L49.858 35.019C49.9 32.883 49.26 29.967 48.227 27.588C47.825 26.731 47.4 26.025 46.997 25.549C46.654 25.145 46.32 24.896 46.034 24.828L45.942 24.838ZM67.322 49.477L67.318 49.478C66.5 50.02 65.309 50.686 64.283 50.777L64.236 50.78L64.178 50.815L64.166 50.881L64.179 50.928L64.339 51.344C64.576 51.813 64.901 52.193 65.3 52.474L65.33 52.495L65.435 52.478L65.457 52.45C65.669 52.184 65.992 52.007 66.278 51.853L66.491 51.734C66.665 51.634 66.837 51.486 66.93 51.357L67.047 51.172C67.128 51.033 67.2 50.914 67.29 50.914L67.403 50.949C67.488 50.994 67.569 51.074 67.522 51.313C67.453 51.666 67.181 51.959 66.916 52.242C66.745 52.422 66.58 52.601 66.46 52.798L66.432 52.847L66.426 52.919L66.484 52.964L66.541 52.976C66.803 53.024 67.067 53.047 67.33 53.047L67.95 53C69.06 52.335 70.645 50.573 70.566 49.413C70.541 49.032 70.347 48.767 69.976 48.603C69.812 48.534 69.638 48.499 69.455 48.499C68.796 48.497 68.113 48.952 67.322 49.477ZM34.002 47.007L34 47.008C33.306 47.241 32.898 47.658 32.855 48.182C32.803 48.794 33.272 49.443 34.076 49.872L34.358 49.994L34.439 49.975L34.488 49.926L34.507 49.844L34.376 49.52C34.274 49.278 34.163 49.014 34.113 48.747C34.054 48.435 34.113 48.184 34.2 48.107C34.246 48.064 34.293 48.041 34.33 48.041C34.386 48.041 34.443 48.094 34.485 48.184L34.534 48.361C34.583 48.574 34.651 48.864 34.872 49.149C35.12 49.467 35.305 49.714 35.618 50.232L35.683 50.285L36.457 50.36L36.534 50.31L36.559 50.241L36.535 50.153C36.121 49.823 35.963 49.327 35.854 48.839L35.794 48.577L35.777 48.495C35.597 47.625 35.383 46.905 34.596 46.905C34.423 46.903 34.222 46.938 34.002 47.007ZM20.322 31.828L20.347 31.846C22.014 32.982 24.838 35.458 25.898 37.404L25.908 37.422L25.9 37.512C25.54 38.223 22.48 41.788 21.69 42.683L21.655 42.723L21.59 42.747L21.53 42.71L21.491 42.647L21.283 42.294L21.268 42.266C20.456 40.764 19.801 38.602 19.513 36.484C19.356 35.322 19.318 34.317 19.401 33.495L19.41 33.435L19.444 33.224C19.566 32.608 19.779 32.185 20.046 32.015L20.222 31.838L20.322 31.828Z" fill="#E3282A"/>
<path d="M51.075 59.6869C36.27 59.6869 23.87 58.5789 22.918 58.0869C23.379 57.8389 26.592 57.3579 31.495 56.9309C32.522 56.8399 33.623 56.7529 34.789 56.6719C36.011 56.5849 37.304 56.5049 38.656 56.4329C39.594 56.3839 40.561 56.3369 41.552 56.2969C44.56 56.1729 47.797 56.0999 51.158 56.0999C53.752 56.0999 56.268 56.1459 58.665 56.2249C59.285 56.2429 59.898 56.2649 60.501 56.2889C63.623 56.4169 66.501 56.5929 69.016 56.7889C69.609 56.8359 70.183 56.8819 70.733 56.9319C75.594 57.3609 78.778 57.8389 79.234 58.0869C78.283 58.5769 65.885 59.6869 51.075 59.6869ZM71.221 56.7679C71.1 56.7559 70.986 56.7469 70.887 56.7369C70.53 56.7049 70.136 56.6739 69.709 56.6379C67.339 56.4469 63.904 56.2129 59.768 56.0609C59.235 56.0399 58.692 56.0219 58.135 56.0049C55.958 55.9389 53.614 55.8999 51.156 55.8999C47.936 55.8999 44.912 55.9689 42.193 56.0739C41.444 56.1019 40.716 56.1319 40.015 56.1679C37.324 56.2949 35.013 56.4469 33.207 56.5859C32.509 56.6399 31.884 56.6899 31.344 56.7359C31.16 56.7509 30.937 56.7709 30.685 56.7939C28.162 57.0239 22.678 57.5809 22.678 58.0869C22.678 58.2049 22.678 58.3849 25.082 58.6849C26.622 58.8779 28.775 59.0709 31.304 59.2429C34.812 59.4829 42.045 59.8839 51.073 59.8839C60.1 59.8839 67.334 59.4829 70.841 59.2429C73.37 59.0709 75.523 58.8789 77.063 58.6849C79.465 58.3849 79.465 58.2059 79.465 58.0869C79.467 57.5589 73.535 56.9739 71.221 56.7679ZM83.854 71.8439C81.579 72.9479 74.239 73.5229 68.167 73.5229C65.558 73.5229 62.623 73.5449 59.783 73.5659C56.948 73.5869 54.013 73.6099 51.408 73.6099H50.854C48.262 73.6099 45.367 73.5879 42.567 73.5659C39.756 73.5449 36.85 73.5229 34.237 73.5229C28.438 73.5229 20.177 72.7899 18.222 71.8439C17.358 71.4249 17.091 70.9519 17.314 69.1379C17.573 67.0479 19.146 60.1409 19.487 58.7539C19.801 57.4199 22.142 56.3509 26.256 55.5789C26.601 55.5159 26.956 55.4519 27.325 55.3909C31.608 54.6909 37.549 54.2779 44.931 54.1819C45.292 54.1769 45.66 54.1739 46.027 54.1709C46.774 54.1639 47.531 54.1589 48.307 54.1589C49.044 54.1589 49.797 54.1629 50.558 54.1689C50.836 54.1729 51.042 54.1739 51.172 54.1739H51.32C51.45 54.1739 51.658 54.1729 51.934 54.1689C52.9 54.1619 53.841 54.1609 54.766 54.1629C55.078 54.1629 55.388 54.1639 55.695 54.1649C62.845 54.2039 68.748 54.5259 73.218 55.1029C73.471 55.1379 73.716 55.1699 73.959 55.2059C76.631 55.5829 78.748 56.0529 80.268 56.6189C80.455 56.6879 80.632 56.7599 80.799 56.8289C82.111 57.3929 82.88 58.0319 83.053 58.7529C83.375 60.1579 84.699 67.4849 84.915 69.0659C85.176 70.945 84.485 71.5369 83.854 71.8439ZM21.845 52.4189C24.972 50.2779 27.866 48.7599 31.241 47.7889C31.309 47.7699 31.349 47.6989 31.328 47.6299C31.309 47.5619 31.238 47.5229 31.17 47.5429C27.749 48.5269 24.821 50.0669 21.656 52.2389C21.362 51.9549 21.093 51.6599 20.856 51.3529C24.089 49.3489 27.173 48.1349 31.336 47.1159C31.404 47.0999 31.447 47.0309 31.429 46.9609C31.412 46.8919 31.342 46.8499 31.274 46.8669C27.075 47.8969 23.966 49.1199 20.705 51.1459C20.528 50.8969 20.371 50.6399 20.235 50.3729C23.574 48.5809 27.36 47.2719 31.551 46.4709C31.62 46.4579 31.666 46.3899 31.653 46.3199C31.64 46.2509 31.572 46.2049 31.503 46.2179C27.289 47.0229 23.482 48.3409 20.121 50.1429C19.141 48.0019 19.688 45.6679 21.749 43.2029L21.855 43.0759C22.123 42.8039 22.688 42.1539 23.996 40.5949C26.265 37.8869 26.305 37.6109 26.324 37.4769L26.336 37.3959L26.299 37.3239C25.287 35.3659 22.549 32.9189 20.77 31.6629C21.196 31.5639 21.746 31.5099 22.394 31.5099C24.733 31.5099 27.796 32.1829 29.519 33.0779L29.703 33.1729L29.845 33.0209C31.795 30.9129 33.182 30.1289 34.965 30.1289C35.839 30.1289 36.855 30.3189 38.165 30.7259L38.362 30.7889L38.474 30.6149C39.891 28.4029 43.388 25.6469 45.343 25.0539C44.414 26.9959 43.231 30.4739 43.329 32.6519L43.332 32.7339L43.383 32.7979C43.685 33.1819 47.35 34.7149 49.124 35.4339C49.368 35.5329 49.575 35.6149 49.733 35.6789C49.942 35.7619 50.068 35.8109 50.075 35.8109L50.188 35.8599C52.684 36.8329 54.175 38.2669 54.662 40.1079C54.744 40.4109 54.796 40.7259 54.821 41.0509L54.827 41.1719C51.056 41.2919 47.12 42.0839 43.069 43.5509C43.002 43.5749 42.967 43.6479 42.991 43.7149C43.01 43.7669 43.059 43.7999 43.112 43.7999L43.157 43.7909C47.184 42.3329 51.095 41.5439 54.841 41.4259C54.845 41.5559 54.844 41.6889 54.837 41.8239C54.826 42.0219 54.804 42.2209 54.775 42.4219C50.96 42.3319 47.426 42.8599 43.618 44.0439C43.55 44.0649 43.512 44.1359 43.533 44.2039C43.55 44.2589 43.601 44.2949 43.656 44.2949L43.694 44.2889C47.462 43.1189 50.961 42.5949 54.735 42.6799L54.714 42.8129C54.649 43.1469 54.559 43.4869 54.446 43.8299L54.434 43.8599C50.673 43.5549 47.418 43.6959 44.018 44.5889C43.949 44.6079 43.908 44.6759 43.926 44.7449C43.942 44.8019 43.992 44.8419 44.051 44.8419L44.084 44.8379C47.429 43.9599 50.64 43.8169 54.344 44.1119C53.804 45.6159 52.85 47.1749 51.607 48.6629C51.443 48.8609 51.271 49.0579 51.097 49.2499C49.613 50.9019 47.786 52.4349 45.807 53.6689C38.758 53.7289 31.519 54.0789 26.334 55.0409C24.586 54.3629 23.021 53.4869 21.845 52.4189ZM19.629 36.4679C19.461 35.2359 19.442 34.2489 19.515 33.5079C19.528 33.4189 19.539 33.3269 19.556 33.2449C19.672 32.6619 19.868 32.2659 20.121 32.1009L20.28 31.9409C22.03 33.1339 24.781 35.5959 25.795 37.4589C25.446 38.1449 22.441 41.6539 21.601 42.6049L21.589 42.5849C21.514 42.4639 21.442 42.3369 21.37 42.2099C20.569 40.7259 19.92 38.6099 19.629 36.4679ZM45.994 24.9429H46.007C46.27 25.0039 46.579 25.2359 46.907 25.6249C47.318 26.1099 47.734 26.8129 48.121 27.6359C49.038 29.7499 49.788 32.7029 49.741 35.0169L49.742 35.1529L49.616 35.1019C48.173 34.5169 44.394 32.9289 43.831 32.5239C43.78 30.3989 45.004 26.8259 45.945 24.9769L45.994 24.9429ZM55.342 42.2599C55.358 42.1219 55.371 41.9849 55.378 41.8489C55.384 41.7049 55.385 41.5599 55.383 41.4109C55.755 41.4059 56.126 41.4089 56.495 41.4159C56.106 41.6669 55.72 41.9499 55.342 42.2599ZM54.082 53.6539C53.36 53.6539 52.644 53.6569 51.934 53.6609C51.659 53.6629 51.453 53.6659 51.323 53.6659H51.175C51.047 53.6659 50.84 53.6629 50.564 53.6609C49.337 53.6509 48.087 53.6499 46.828 53.6559C48.426 52.5849 49.942 51.3129 51.241 49.9279C51.639 51.2549 52.669 52.5339 54.082 53.6539ZM79.201 55.7359C77.847 55.3399 76.231 55.0129 74.427 54.7459C74.916 54.2029 75.257 53.5969 75.417 52.9339C75.453 53.0499 75.484 53.1679 75.525 53.2839C75.878 54.2709 76.853 54.5939 77.713 54.8779C78.175 55.0279 78.61 55.1739 78.843 55.3929L79.085 55.6259L79.201 55.7359ZM50.341 35.2649C51.976 34.1019 53.175 32.7489 54.242 31.5379C55.798 29.7779 57.139 28.2569 59.349 27.7819C61.351 27.1929 64.57 27.2599 67.951 27.9599C71.327 28.6379 74.299 29.8539 75.914 31.2259C77.735 32.5559 78.351 34.4939 79.06 36.7379C79.606 38.4629 80.227 40.4179 81.507 42.3489C84.923 47.5339 84.805 53.2529 81.222 56.2729C80.752 56.4449 80.242 55.9859 79.457 55.2339L79.212 54.9999C78.891 54.6959 78.399 54.5349 77.881 54.3629C77.104 54.1059 76.296 53.8419 76.036 53.1029C75.291 51.0079 75.273 48.7309 75.252 46.3179C75.235 44.2819 75.217 42.1749 74.792 39.9009C74.764 39.7529 74.619 39.6549 74.479 39.6839C74.33 39.7119 74.234 39.8519 74.26 39.9999C74.675 42.2279 74.694 44.3099 74.711 46.3239C74.719 47.0989 74.728 47.8609 74.757 48.6099C73.891 46.4659 72.366 44.2999 70.545 43.2229C70.416 43.1469 70.25 43.1889 70.174 43.3179C70.096 43.4479 70.139 43.6139 70.27 43.6909C73.198 45.4219 75.404 50.3329 74.912 52.7309C74.761 53.4429 74.359 54.0889 73.766 54.6539C68.383 53.9159 61.494 53.6719 54.934 53.6559C53.164 52.3809 51.982 50.8969 51.682 49.4479C53.163 47.7749 54.309 45.9619 54.913 44.1589C56.484 44.3019 58.147 44.5149 59.952 44.7849C60.023 44.7929 60.087 44.7469 60.098 44.6769C60.11 44.6079 60.06 44.5409 59.991 44.5309C58.207 44.2649 56.56 44.0529 55.001 43.9099C55.084 43.6359 55.155 43.3619 55.215 43.0899C55.36 42.9609 55.505 42.8339 55.653 42.7109C57.098 42.7799 58.587 42.9339 60.151 43.1729C60.219 43.1819 60.287 43.1359 60.299 43.0659C60.311 42.9969 60.262 42.9319 60.193 42.9199C58.724 42.6959 57.324 42.5459 55.962 42.4699C56.472 42.0709 56.992 41.7229 57.511 41.4579C58.446 41.5099 59.369 41.6029 60.279 41.7429C60.347 41.7529 60.415 41.7059 60.427 41.6359C60.438 41.5669 60.39 41.5009 60.32 41.4899C59.554 41.3729 58.779 41.2889 57.997 41.2339C58.31 41.1039 58.618 41.0079 58.917 40.9529C59.066 40.9259 59.161 40.7849 59.136 40.6369C59.11 40.4889 58.969 40.3939 58.822 40.4189C58.204 40.5339 57.554 40.8039 56.907 41.1759C56.402 41.1579 55.893 41.1519 55.382 41.1599C55.362 40.8389 55.321 40.5109 55.243 40.1719C55.827 38.9509 56.481 37.7199 57.315 36.4989C57.401 36.3759 57.37 36.2069 57.246 36.1229C57.121 36.0379 56.954 36.0699 56.868 36.1939C56.132 37.2679 55.537 38.3469 55.006 39.4159C54.433 37.9249 53.106 36.4059 50.347 35.3229L50.341 35.2649ZM85.421 68.9939C85.196 67.3569 83.885 60.0979 83.552 58.6359C83.367 57.8679 82.684 57.2129 81.606 56.6569C85.375 53.4479 85.527 47.4549 81.965 42.0469C80.727 40.1779 80.144 38.3449 79.582 36.5719C78.844 34.2369 78.205 32.2199 76.257 30.7969C74.925 29.6679 72.704 28.6379 70.109 27.9149C70.234 27.7209 70.299 27.5919 70.403 27.4139C70.5 27.2459 70.531 27.2009 70.8 26.6859C70.863 26.5609 70.861 26.4139 70.749 26.3299C70.638 26.2469 70.462 26.2599 70.392 26.3809C70.082 26.9109 69.993 27.0799 69.86 27.3119C69.813 27.3919 69.748 27.5019 69.64 27.6759L69.585 27.7789C69.384 27.7269 69.173 27.6849 68.968 27.6359C69.077 27.4789 69.132 27.3749 69.22 27.2219C69.279 27.1209 69.367 26.9379 69.612 26.4999C69.681 26.3769 69.675 26.2289 69.563 26.1439C69.45 26.0599 69.277 26.0739 69.207 26.1949C69.001 26.5569 68.86 26.8059 68.762 26.9899C68.718 27.0719 68.612 27.2719 68.437 27.4879L68.423 27.5109C68.323 27.4879 68.228 27.4639 68.131 27.4419L68.132 27.4329C68.132 27.2989 68.144 27.1699 68.191 26.8919C68.24 26.5909 68.3 26.4599 68.339 25.8709C68.349 25.7309 68.23 25.6149 68.09 25.6129C67.957 25.6199 67.836 25.7209 67.83 25.8609C67.809 26.3649 67.71 26.7259 67.687 26.8359C67.658 26.9769 67.63 27.1339 67.624 27.3419C67.404 27.2999 67.186 27.2599 66.97 27.2239C66.989 27.0299 67.004 26.9239 67.019 26.8409C67.051 26.6399 67.068 26.5279 67.084 25.6589C67.086 25.5189 66.974 25.4029 66.834 25.3999C66.699 25.4109 66.578 25.5089 66.575 25.6489C66.559 26.4839 66.543 26.5829 66.514 26.7619C66.502 26.8479 66.486 26.9539 66.465 27.1429C66.27 27.1119 66.079 27.0899 65.884 27.0639C65.866 26.8839 65.85 26.7809 65.836 26.6979C65.808 26.5179 65.792 26.4179 65.777 25.5939C65.774 25.4539 65.662 25.3429 65.517 25.3449C65.377 25.3469 65.265 25.4639 65.269 25.6039C65.286 26.4609 65.304 26.5729 65.334 26.7739C65.345 26.8319 65.353 26.8989 65.366 26.9949C62.927 26.7169 60.766 26.7999 59.22 27.2549C56.853 27.7619 55.456 29.3449 53.838 31.1789C52.817 32.3359 51.762 33.5229 50.354 34.5819C50.32 32.8529 49.883 30.8599 49.263 29.1029C48.438 26.5749 47.24 24.4749 46.127 24.3959L46.008 24.3929C44.129 24.3929 39.941 27.4719 38.133 30.1469C36.862 29.7649 35.853 29.5849 34.968 29.5849C34.845 29.5849 34.724 29.5889 34.605 29.5949C34.718 28.8359 34.968 28.2349 36.09 27.4889C36.206 27.4109 36.238 27.2539 36.16 27.1359C36.082 27.0189 35.925 26.9879 35.808 27.0659C34.459 27.9629 34.202 28.7469 34.083 29.6509C33.997 29.6639 33.912 29.6769 33.828 29.6949C33.789 29.4459 33.691 29.2079 33.593 28.9749C33.343 28.3829 33.225 28.0299 33.701 27.6379C33.809 27.5479 33.825 27.3889 33.736 27.2799C33.646 27.1719 33.486 27.1559 33.378 27.2459C32.586 27.8959 32.896 28.6349 33.125 29.1729C33.222 29.4029 33.311 29.6199 33.332 29.8199C33.043 29.9079 32.759 30.0239 32.475 30.1669C32.378 29.4519 32.14 28.7709 31.218 27.9969C31.111 27.9069 30.95 27.9209 30.859 28.0289C30.769 28.1359 30.783 28.2969 30.892 28.3859C31.765 29.1189 31.921 29.7099 31.995 30.4329C31.24 30.8969 30.465 31.5729 29.59 32.5049C27.75 31.6089 24.772 30.9679 22.399 30.9679C21.556 30.9679 20.419 31.0559 19.79 31.4769C19.164 31.8949 18.971 33.0279 18.948 34.1439C18.848 36.0309 19.295 38.6679 20.191 40.9029C20.496 41.7029 20.84 42.4219 21.21 43.0099C19.128 45.5739 18.588 48.1289 19.648 50.4059C18.19 51.2199 16.817 52.1239 15.538 53.1249C15.482 53.1669 15.472 53.2509 15.515 53.3019L15.617 53.3539L15.696 53.3269C16.963 52.3379 18.322 51.4409 19.765 50.6359C19.907 50.9109 20.071 51.1799 20.253 51.4359C18.998 52.2399 17.713 53.1619 16.327 54.2459C16.271 54.2899 16.262 54.3719 16.305 54.4269L16.404 54.4719L16.482 54.4469C17.866 53.3649 19.149 52.4439 20.4 51.6429C20.642 51.9589 20.913 52.2609 21.21 52.5509C19.944 53.4389 18.636 54.4219 17.236 55.5159C17.18 55.5579 17.17 55.6399 17.214 55.6949L17.316 55.7449L17.395 55.7179C18.806 54.6149 20.123 53.6249 21.399 52.7329C22.467 53.7239 23.844 54.5569 25.388 55.2269C21.788 55.9859 19.364 57.0809 18.997 58.6369C18.654 60.0269 17.075 66.9679 16.812 69.077C16.604 70.7719 16.73 71.6849 18.003 72.3029C20.221 73.3789 28.954 74.035 34.24 74.035C36.85 74.035 39.756 74.056 42.565 74.077C45.366 74.0989 48.263 74.1209 50.857 74.1209H51.409C54.019 74.1209 56.953 74.0989 59.789 74.077C62.627 74.056 65.56 74.035 68.167 74.035C73.127 74.035 81.456 73.5739 84.077 72.3019C85.228 71.7439 85.655 70.6909 85.421 68.9939ZM38.449 36.6559C38.512 36.6559 38.575 36.6339 38.625 36.5869C39.919 35.3579 41.486 34.8139 43.036 35.0469C43.175 35.0689 43.305 34.9739 43.325 34.8349C43.347 34.6959 43.252 34.5669 43.114 34.5459C41.405 34.2839 39.687 34.8779 38.276 36.2159C38.174 36.3129 38.171 36.4739 38.267 36.5749C38.314 36.6289 38.383 36.6559 38.449 36.6559ZM36.463 50.2429C36.015 49.8849 35.853 49.3609 35.741 48.8639C35.715 48.7609 35.69 48.6419 35.664 48.5169C35.489 47.6679 35.298 47.0209 34.597 47.0209C34.435 47.0209 34.246 47.0529 34.037 47.1199C33.391 47.3369 33.011 47.7179 32.972 48.1929C32.924 48.7579 33.37 49.3639 34.133 49.7719C34.2 49.8119 34.294 49.8489 34.398 49.8859C34.287 49.5729 34.075 49.1849 33.999 48.7709C33.94 48.4519 33.986 48.1459 34.122 48.0239C34.328 47.8369 34.505 47.9459 34.593 48.1399C34.666 48.3029 34.675 48.7059 34.966 49.0799C35.237 49.4289 35.418 49.6729 35.72 50.1729C35.987 50.2079 36.247 50.2329 36.463 50.2429ZM36.285 44.7719C36.236 44.5769 36.114 44.4559 36.017 44.4809C35.896 44.5049 35.822 44.6509 35.87 44.8449C35.895 45.0149 36.017 45.1629 36.139 45.1369C36.26 45.1119 36.308 44.9409 36.285 44.7719ZM43.155 47.5729C43.201 47.7049 43.133 47.8499 43 47.8979C42.524 48.0649 42.131 48.4549 41.752 48.8349C41.451 49.1369 41.145 49.3939 40.858 49.5749C40.355 49.8929 40.002 49.9589 39.608 49.9489C39.442 49.9449 39.278 49.9199 39.12 49.8479C38.99 49.7889 38.865 49.7009 38.743 49.5809C38.707 49.7849 38.646 49.9539 38.556 50.0969C38.373 50.3929 38.087 50.5739 37.641 50.6759C37.364 50.7329 37.235 50.7399 36.952 50.7599C36.842 50.7599 36.763 50.7539 36.652 50.7539C35.915 50.7539 34.435 50.5389 33.885 50.2099C32.949 49.7119 32.402 48.9189 32.466 48.1469C32.523 47.4659 33.039 46.9149 33.881 46.6339C34.143 46.5499 34.383 46.5089 34.598 46.5089C35.768 46.5089 36.006 47.6539 36.162 48.4099C36.187 48.5299 36.21 48.6409 36.236 48.7439C36.396 49.4539 36.61 49.8499 37.196 50.0869C37.309 50.1329 37.389 50.1519 37.525 50.1519C37.654 50.1449 37.723 50.1389 37.815 50.0929C37.969 50.0319 38.099 49.9309 38.169 49.8159C38.293 49.6179 38.323 49.3329 38.297 49.1779C38.277 49.0539 38.207 48.8429 38.162 48.7149C37.878 47.9099 37.749 47.5799 37.397 46.5929C36.545 46.4849 35.083 46.1429 34.772 45.0509C34.658 44.6499 34.712 44.2549 34.936 43.8809C35.417 43.0699 36.392 42.6689 36.846 42.5509C36.954 42.5239 37.166 42.4859 37.394 42.4739C38.004 42.4399 39.635 42.5689 39.864 43.6469C40.036 44.4739 39.501 45.3859 38.289 46.3609C38.464 47.1659 38.536 47.5009 38.702 48.2739C38.754 48.4999 38.792 48.6549 38.876 48.8999C38.943 49.0959 39.094 49.2969 39.325 49.3789C39.643 49.4919 40.053 49.4709 40.619 49.1369C40.911 48.9649 41.121 48.7369 41.39 48.4689C41.79 48.0709 42.244 47.6169 42.828 47.4109C42.962 47.3719 43.107 47.4419 43.155 47.5729ZM33.944 43.9909C33.782 43.0169 32.91 41.1359 31.105 41.1359C30.655 41.1359 30.172 41.2579 29.668 41.4959C29.464 42.1909 29.536 42.7809 29.882 43.2529C30.123 43.5809 30.471 43.8139 30.858 43.9779C30.675 43.6669 30.614 43.1769 30.737 42.6559C30.907 41.8279 31.443 41.2189 31.929 41.2949C32.39 41.3679 32.658 42.0979 32.487 42.9239C32.346 43.5259 32.025 44.0209 31.682 44.2189C31.947 44.2649 32.21 44.2899 32.454 44.2899C33.016 44.2899 33.551 44.1819 33.944 43.9909ZM34.222 44.2429C33.765 44.4999 33.137 44.6409 32.454 44.6409C31.491 44.6409 30.235 44.3299 29.598 43.4589C29.177 42.8839 29.093 42.1429 29.355 41.3189L29.378 41.2469L29.444 41.2139C30.022 40.9289 30.581 40.7859 31.105 40.7859C33.221 40.7859 34.192 43.0419 34.31 44.0709L34.324 44.1879L34.222 44.2429ZM42.538 38.0099C41.556 38.0929 40.824 38.4479 40.355 39.0619C40.386 39.0139 40.423 38.9699 40.468 38.9339C40.833 38.6419 41.612 38.9099 42.172 39.5419C42.519 39.9339 42.706 40.3729 42.711 40.7259C42.887 40.5019 43.03 40.2649 43.121 40.0169C43.386 39.2939 43.189 38.6199 42.538 38.0099ZM42.076 41.3549C41.678 41.3389 41.179 41.0799 40.785 40.6349C40.298 40.0839 40.124 39.4409 40.345 39.0749C40.298 39.1379 40.251 39.1979 40.211 39.2649C39.599 40.2599 39.736 41.5539 39.993 42.2619C40.642 42.2089 41.436 41.8639 42.076 41.3549ZM43.451 40.1359C42.946 41.5149 41.149 42.5869 39.88 42.6209L39.76 42.6239L39.714 42.5119C39.401 41.7709 39.196 40.2449 39.911 39.0799C40.439 38.2189 41.341 37.7379 42.588 37.6509L42.662 37.6459L42.718 37.6949C43.73 38.6049 43.676 39.5239 43.451 40.1359ZM27.83 39.0919C27.784 39.1309 27.726 39.1489 27.67 39.1489C27.596 39.1489 27.524 39.1159 27.473 39.0549C27.384 38.9459 27.401 38.7869 27.511 38.6979C28.783 37.6659 30.518 37.3619 32.4 37.8429C32.536 37.8779 32.618 38.0149 32.583 38.1519C32.548 38.2889 32.409 38.3679 32.274 38.3359C30.528 37.8879 28.992 38.1489 27.83 39.0919ZM68.263 32.4839C68.265 32.3429 68.37 32.2319 68.522 32.2339C70.18 32.2589 71.698 33.2429 72.791 35.0029C72.867 35.1229 72.829 35.2779 72.71 35.3529C72.668 35.3779 72.622 35.3909 72.576 35.3909C72.491 35.3909 72.408 35.3489 72.36 35.2709C71.36 33.6649 69.994 32.7659 68.514 32.7419C68.372 32.7399 68.261 32.6239 68.263 32.4839ZM67.92 52.8889C67.463 52.9499 67.009 52.9419 66.566 52.8599C66.873 52.3599 67.522 51.9519 67.643 51.3379C67.69 51.1009 67.63 50.9369 67.464 50.8489C67.126 50.6669 67.032 51.0219 66.839 51.2899C66.748 51.4149 66.581 51.5509 66.437 51.6339C66.096 51.8299 65.653 52.0239 65.371 52.3779C64.975 52.1029 64.668 51.7339 64.446 51.2919C64.388 51.1739 64.338 51.0389 64.295 50.8949C65.349 50.7999 66.547 50.1309 67.386 49.5759C68.347 48.9389 69.177 48.3879 69.935 48.7099C70.266 48.8559 70.432 49.0879 70.454 49.4189C70.523 50.5059 69 52.2339 67.92 52.8889ZM62.927 41.5599C62.877 41.8529 62.659 42.0459 62.462 42.0219C62.293 41.9739 62.173 41.6829 62.244 41.3899C62.316 41.0989 62.511 40.9029 62.703 40.9279C62.901 40.9769 63 41.2689 62.927 41.5599ZM70.624 51.8069C70.396 51.9579 70.067 52.1729 69.436 52.4509C69.335 52.4959 69.234 52.5359 69.131 52.5739C70.149 51.6869 71.018 50.3879 70.958 49.3889C70.925 48.8639 70.643 48.4689 70.135 48.2429C69.121 47.8129 68.141 48.4639 67.102 49.1529C66.196 49.7549 65.272 50.3729 64.228 50.3519L64.169 50.3509C64.085 49.8079 64.066 49.1469 64.11 48.3749C64.143 47.7749 64.244 47.0889 64.345 46.5079C65.732 46.0429 68.037 44.5459 68.325 43.0449C68.639 41.4229 66.735 40.0159 65.396 39.8369C64.109 39.4529 61.782 39.9639 61.418 41.5899C61.053 43.1199 62.677 45.5219 63.765 46.4369C63.585 47.0249 63.342 47.7479 63.077 48.3409C62.544 49.5269 62.011 50.3689 61.443 50.7829C60.737 51.2959 59.908 51.4969 58.968 51.2459C58.007 50.9879 57.166 50.3799 56.479 49.5279C56.044 48.9929 55.851 48.6509 55.716 48.4119C55.629 48.2569 55.482 47.9719 55.275 48.0819C55.037 48.2119 55.154 48.5129 55.328 48.8039C55.502 49.0959 55.703 49.5119 56.357 50.2139C56.875 50.7639 57.545 51.3999 58.627 51.7609C59.489 52.0489 60.606 51.9849 61.376 51.5039C62.151 51.0219 62.787 50.2489 63.335 49.1479C63.4 49.0189 63.462 48.8889 63.52 48.7579C63.516 48.8299 63.512 48.9029 63.511 48.9749C63.497 50.2049 63.708 51.1829 64.176 51.9649C64.644 52.7459 65.603 53.3139 66.501 53.4519C67.631 53.6259 68.518 53.3679 69.227 53.1149C70.133 52.7929 70.503 52.5149 70.79 52.3359C71.076 52.1549 71.317 51.9389 71.169 51.7179C71.035 51.5229 70.773 51.7109 70.624 51.8069ZM65.131 36.1099C65.322 36.5619 65.327 37.0599 65.143 37.5129C65.124 37.5599 65.098 37.6049 65.075 37.6499C65.175 37.0089 64.818 36.3619 64.19 36.1109C63.485 35.8189 62.631 36.1589 62.342 36.8889C62.09 37.5169 62.328 38.2169 62.85 38.5869L62.716 38.5459C62.252 38.3609 61.888 38.0049 61.694 37.5489C61.499 37.0909 61.496 36.5839 61.682 36.1189C61.961 35.4339 62.658 34.9729 63.414 34.9729C63.653 34.9729 63.886 35.0189 64.108 35.1099C64.572 35.2979 64.938 35.6509 65.131 36.1099ZM61.354 35.9859C61.134 36.5389 61.138 37.1429 61.369 37.6849C61.599 38.2279 62.031 38.6509 62.584 38.8709C62.847 38.9779 63.124 39.0339 63.406 39.0339C64.307 39.0339 65.135 38.4749 65.467 37.6439C65.69 37.1049 65.684 36.5109 65.456 35.9719C65.225 35.4269 64.792 35.0049 64.24 34.7839C63.977 34.6769 63.698 34.6209 63.414 34.6209C62.517 34.6219 61.689 35.1709 61.354 35.9859ZM59.517 34.0849C59.466 34.1419 59.397 34.1709 59.327 34.1709C59.267 34.1709 59.208 34.1499 59.159 34.1069C59.054 34.0129 59.045 33.8529 59.138 33.7479C60.487 32.2259 62.135 31.5529 63.778 31.8519C63.917 31.8759 64.008 32.0089 63.983 32.1469C63.958 32.2849 63.827 32.3769 63.687 32.3509C62.226 32.0869 60.742 32.7019 59.517 34.0849ZM66.769 37.7889C66.791 36.7959 67.605 35.9869 68.579 35.9869L68.669 35.9889C69.17 36.0009 69.636 36.2089 69.977 36.5739C70.317 36.9379 70.493 37.4119 70.47 37.9119C70.446 38.9049 69.613 39.7129 68.614 39.7129H68.575C68.517 39.7109 68.461 39.6959 68.404 39.6879C69.046 39.5689 69.549 39.0029 69.57 38.3249C69.593 37.5459 68.984 36.8879 68.183 36.8649C67.521 36.8449 66.948 37.2849 66.777 37.9119L66.769 37.7889ZM68.562 40.0639H68.613C69.801 40.0639 70.793 39.1019 70.821 37.9219C70.847 37.3309 70.639 36.7649 70.234 36.3339C69.827 35.8959 69.274 35.6489 68.68 35.6359C67.475 35.5799 66.446 36.5609 66.418 37.7739C66.39 38.3439 66.593 38.8939 66.983 39.3239C67.392 39.7739 67.951 40.0359 68.562 40.0639Z" fill="#231F20"/>
</svg>
