<svg width="100" height="100" viewBox="0 0 100 100" fill="none" xmlns="http://www.w3.org/2000/svg">
<rect x="0.5" y="0.5" width="99" height="99" fill="white" stroke="#008B00"/>
<path d="M86.2331 44.7239H77.362V54.135H86.2331V44.7239Z" fill="#E60012"/>
<path fill-rule="evenodd" clip-rule="evenodd" d="M79.8282 50.8834C79.8773 50.8466 80.1595 50.7116 80.2454 50.6503C80.3435 50.5889 80.773 50.3804 80.8221 50.3681C80.8221 50.3681 80.8834 50.3558 80.9448 50.3558C80.9938 50.3558 81.0797 50.4049 81.0797 50.4785C81.0797 50.5521 81.1288 50.8712 81.2761 50.8957C81.411 50.9202 81.73 50.8589 81.8405 50.8343C81.9509 50.8098 82.0491 50.7853 82.1104 50.8221C82.1718 50.8589 82.1472 50.9816 82.1349 51.0552C82.1227 51.1288 82.1227 51.2024 82.0245 51.2024C81.9264 51.2024 81.7055 51.1656 81.4846 51.411C81.2515 51.6564 80.9816 52 81.1043 52.5153C81.2761 53.0552 81.7669 53.092 81.8527 53.092C81.9386 53.092 82.0245 53.0797 82.0613 53.0797C82.0613 53.0797 82.1104 53.0675 82.1227 53.1043C82.1349 53.1288 82.1472 53.1902 82.0859 53.2393C82.0245 53.2883 81.9877 53.227 81.7791 53.4233C81.5705 53.6196 81.4233 53.8037 81.2515 53.8405C81.0797 53.8773 80.7607 53.7423 80.6994 53.6932C80.638 53.6442 80.184 53.4601 80.135 52.8221C80.0736 52.184 80.319 51.865 80.4785 51.7301C80.638 51.5951 80.6871 51.5828 80.6748 51.5337C80.6748 51.4847 80.6257 51.4847 80.5644 51.4847C80.5153 51.4847 80.4294 51.4969 80.3313 51.4847C80.184 51.4601 80.1718 51.3497 80.1718 51.3497C80.135 51.2638 80.0981 51.227 80.0123 51.1902C79.9264 51.1534 79.7546 51.1043 79.7423 51.0552C79.6932 50.957 79.8282 50.8834 79.8282 50.8834ZM84.8221 49.0307C85.1779 49.0307 85.865 49.1288 85.6073 49.7423C85.3497 50.3558 84.2822 51.4601 83.9386 51.8528C83.5951 52.2577 82.3067 53.5092 82.2208 53.5705C82.135 53.6319 82.0613 53.9141 81.9264 53.865C81.7055 53.7791 81.5828 53.9386 81.5583 53.8282C81.5583 53.7055 82.0491 53.3497 82.184 53.2638C82.3926 53.1288 83.1656 52.3313 83.4724 51.9632C83.7791 51.5951 84.5276 50.5521 84.6012 50.1595C84.6748 49.7791 84.5889 49.4356 84.1595 49.5705C83.73 49.7055 82.7239 50.0736 82 50.2086C81.2761 50.3436 81.0552 50.3067 81.0061 50.1472C80.957 50 81.1165 49.6932 81.2392 49.546C81.3619 49.3988 81.6073 49.1656 81.6319 49.1411C81.6564 49.1166 81.6687 49.0675 81.6442 49.0675C81.6196 49.0675 81.3251 49.1043 81.1288 49.0184C80.9325 48.9325 80.5276 48.6871 80.3926 48.1595C80.2577 47.6442 80.3681 47.1043 80.5276 46.8221C80.6871 46.5399 81.0429 46.2331 81.5705 45.8282C82.2331 45.3251 83.2024 45.0184 83.4969 44.9816C83.6319 44.9693 84.1718 44.9693 84.4662 45.1288C84.7116 45.2638 84.6871 45.3742 84.8957 45.4233C85.1043 45.4724 85.2147 45.3742 85.3006 45.3251C85.3742 45.2761 85.4478 45.2393 85.4969 45.2638C85.546 45.3006 85.5337 45.411 85.4478 45.5215C85.3619 45.6319 85.1779 45.8159 85.0307 45.8773C84.8834 45.9386 84.7853 46 84.773 46.135C84.7607 46.2577 84.7607 46.7116 84.5521 47.0675C84.3313 47.4356 83.4724 48.0982 83.2638 48.2454C83.0552 48.3926 82.773 48.6258 82.638 48.7239C82.503 48.8221 82.3681 48.9448 82.2454 49.0675C82.1227 49.1902 81.8159 49.4601 81.8773 49.6074C81.9386 49.7423 82.1595 49.6932 82.454 49.6442C83.5337 49.4847 84.3803 49.0307 84.8221 49.0307ZM81.5951 48.0245C81.681 48.1472 82.0368 48.4785 82.454 48.4294C83.0429 48.3681 84.0981 47.227 84.2208 47.1043C84.2945 47.0307 84.319 46.9202 84.2822 46.8957C84.1718 46.8098 84.1104 46.9693 83.9754 46.8834C83.8282 46.7853 83.9509 46.6012 83.7423 46.1472C83.5337 45.6687 83.1534 45.546 82.908 45.546C82.6626 45.546 82.0736 45.8528 81.8405 46.0859C81.8405 46.0859 81.411 46.4049 81.3251 46.8589C81.227 47.4356 81.5092 47.9018 81.5951 48.0245Z" fill="white"/>
<path d="M19.7423 48.184C19.6073 48.1595 19.4969 48.1349 19.3742 48.1349C19.2515 48.1349 19.1411 48.1595 19.0061 48.184C18.8343 46.9693 18.2822 46.2208 16.9938 46.2208C15.1043 46.2208 14.3681 48.0122 14.3681 49.8282C14.3681 51.7423 14.8957 53.7055 17.0306 53.7055C17.4724 53.7055 18.0368 53.546 18.4294 53.2883V51.4478C18.4294 50.8956 17.9263 50.7852 17.4724 50.7852V50.3067C17.9509 50.3312 18.4908 50.3558 19.0429 50.3558C19.5951 50.3558 20.1472 50.3312 20.6135 50.3067V50.7852C20.0859 50.7852 19.9141 50.9325 19.9141 51.4846V53.4355C19.0184 53.9877 17.9509 54.2453 16.9325 54.2453C14.4171 54.2453 12.6257 52.7729 12.6257 49.9877C12.6257 47.4723 14.5153 45.6564 16.8343 45.6564C17.865 45.6564 18.9325 45.9631 19.7668 46.6871V48.184H19.7423ZM26.1717 52.4294C25.7423 52.9202 25.1288 53.3251 24.503 53.3251C23.1779 53.3251 22.5276 52.184 22.503 50.957H26.2822C26.2822 49.2883 25.411 48.3803 23.9018 48.3803C22.6135 48.3803 21.1656 49.5091 21.1656 51.4233C21.1656 53.1288 22.1963 54.2331 23.8036 54.2331C24.8221 54.2331 25.865 53.546 26.4294 52.638L26.1717 52.4294ZM22.503 50.503C22.5521 49.5214 22.9325 48.8343 23.8036 48.8343C24.4785 48.8343 24.8834 49.3128 24.9079 50.503H22.503ZM29.9632 53.73C29.1411 53.73 28.9202 53.6809 28.9202 53.0183V50.049C29.227 49.7791 29.6932 49.2269 30.2208 49.2269C30.6135 49.2269 30.6748 49.5214 30.7607 49.8772C30.9079 49.8527 31.0674 49.8282 31.2147 49.8282C31.3619 49.8282 31.5214 49.8527 31.6687 49.8772V48.5889C31.4478 48.4539 31.1901 48.3926 30.9079 48.3926C30.1472 48.3926 29.4355 48.9938 28.9325 49.5582L28.8098 48.3926C28.1963 48.5889 27.411 48.6503 26.773 48.6503V49.0552C27.4233 49.0552 27.6564 49.1042 27.6564 49.7668V53.0183C27.6564 53.6932 27.4355 53.73 26.7852 53.73V54.1349C27.1165 54.0858 27.7055 54.0613 28.3803 54.0613C29.0552 54.0613 29.6564 54.0858 29.9754 54.1349V53.73H29.9632ZM31.7668 53.73C32.4049 54.0736 33.0552 54.2331 33.8527 54.2331C35.1533 54.2331 36.1472 53.6564 36.1472 52.4171C36.1472 50.4539 32.9816 50.7729 32.9816 49.5828C32.9816 49.0674 33.3128 48.8343 33.9754 48.8343C34.6012 48.8343 34.9816 49.1656 35.1411 49.8895C35.2515 49.865 35.3497 49.8404 35.4724 49.8404C35.5951 49.8404 35.7178 49.865 35.8405 49.8895L35.7914 48.8343C35.227 48.5644 34.6012 48.3803 33.9632 48.3803C32.8098 48.3803 31.8895 49.0306 31.8895 50.0245C31.8895 52.0981 35.0552 51.7791 35.0552 52.9079C35.0552 53.5214 34.4908 53.7791 33.9509 53.7791C33.1901 53.7791 32.6012 53.3251 32.5398 52.5153C32.4049 52.5398 32.2822 52.5644 32.1472 52.5644C32.0122 52.5644 31.8895 52.5398 31.7546 52.5153V53.73H31.7668ZM37.5337 48.9447V52.6257C37.5337 53.6809 37.8159 54.2208 38.6503 54.2208C39.4846 54.2208 39.9754 53.7668 40.5153 53.3496L40.3926 53.0797C40.0981 53.2147 39.6687 53.4601 39.3619 53.4601C39.1533 53.4601 38.8834 53.3864 38.8834 53.0674V48.9447H40.2208V48.5398H38.8834V46.7975H38.1963C38.1963 47.4601 37.7423 48.5644 36.638 48.638V48.9447H37.5337ZM46.638 53.2024C46.503 53.3128 46.1963 53.3987 46 53.3987C45.8159 53.3987 45.7791 53.2147 45.7791 52.5889V50.5766C45.7791 48.9815 44.8589 48.3803 43.5705 48.3803C42.8098 48.3803 42 48.6257 41.3865 49.1165C41.3865 49.5091 41.3742 49.8895 41.3006 50.2576C41.4969 50.2331 41.6564 50.2085 41.8405 50.2085C42.0122 50.2085 42.1717 50.2331 42.3313 50.2576C42.3926 49.4233 42.6748 48.822 43.4478 48.822C44.1963 48.822 44.4908 49.2269 44.4908 50.5644C43.3128 50.8466 40.9938 51.2883 40.9938 52.957C40.9938 53.8404 41.8036 54.2208 42.5276 54.2208C42.9938 54.2208 43.4233 54.1226 43.6687 53.9386L44.5398 53.2515C44.638 53.7177 44.9325 54.2208 45.4355 54.2208C45.8773 54.2208 46.4417 53.865 46.7607 53.5582L46.638 53.2024ZM44.4908 52.9325C44.1104 53.1901 43.6809 53.3987 43.2147 53.3987C42.6994 53.3987 42.3558 53.141 42.3558 52.5644C42.3558 51.6073 43.7914 51.1165 44.4785 51.0061V52.9325H44.4908ZM52.1472 52.4294C51.7178 52.9202 51.1043 53.3251 50.4785 53.3251C49.1533 53.3251 48.503 52.184 48.4785 50.957H52.2576C52.2576 49.2883 51.3865 48.3803 49.8773 48.3803C48.5889 48.3803 47.1411 49.5091 47.1411 51.4233C47.1411 53.1288 48.1717 54.2331 49.7791 54.2331C50.7975 54.2331 51.8405 53.546 52.4049 52.638L52.1472 52.4294ZM48.4785 50.503C48.5276 49.5214 48.9079 48.8343 49.7791 48.8343C50.4539 48.8343 50.8589 49.3128 50.8834 50.503H48.4785ZM57.7791 49.0429C57.2883 48.6625 56.454 48.368 55.9386 48.368C54.2699 48.368 52.9447 49.5828 52.9447 51.3006C52.9447 53.092 53.9877 54.2331 55.6073 54.2331C56.6993 54.2331 57.5582 53.5582 58.1963 52.6748L57.9754 52.4539C57.4969 52.9202 56.9202 53.3251 56.2454 53.3251C55.0674 53.3251 54.2699 52.1349 54.2699 50.9447C54.2699 49.7423 54.7852 48.8343 55.6564 48.8343C56.4417 48.8343 56.6994 49.3374 56.8221 50.1963C56.9938 50.1717 57.1656 50.1472 57.3251 50.1472C57.5092 50.1472 57.6687 50.1717 57.8405 50.1963L57.7791 49.0429ZM58.2208 45.7055C58.8834 45.7055 59.0552 45.8159 59.0552 46.2699V53.0061C59.0552 53.7177 58.822 53.7177 58.1227 53.7177V54.1226C58.4417 54.0736 59.0061 54.049 59.6687 54.049C60.319 54.049 60.8957 54.0736 61.2147 54.1226V53.7177C60.5644 53.7177 60.3435 53.7177 60.3435 53.0061V51.411L60.6748 51.1779C61.2515 51.9263 62.2822 53.3128 62.2822 53.5337C62.2822 53.7055 62 53.73 61.7668 53.7545V54.1349C62.0736 54.0858 62.6135 54.0613 63.2392 54.0613C63.865 54.0613 64.4049 54.0858 64.7116 54.1349V53.7545C63.6319 53.7545 62.4785 51.3619 61.6073 50.3558C62.4049 49.6809 63.2392 48.8711 64.3313 48.8711V48.4662C64.049 48.5153 63.546 48.5398 62.9693 48.5398C62.3926 48.5398 61.8895 48.5153 61.6073 48.4662V48.8711C61.9141 48.8711 62.1963 48.9202 62.1963 49.1656C62.1963 49.3864 60.6012 50.6871 60.3558 50.9079C60.3558 48.7484 60.4294 45.865 60.4294 44.9447C59.9263 45.1533 58.7607 45.3006 58.2454 45.2883V45.7055H58.2208ZM69.6687 52.4294C69.2392 52.9202 68.6257 53.3251 68 53.3251C66.6748 53.3251 66.0245 52.184 66 50.957H69.7791C69.7791 49.2883 68.9079 48.3803 67.3987 48.3803C66.1104 48.3803 64.6625 49.5091 64.6625 51.4233C64.6625 53.1288 65.6932 54.2331 67.3006 54.2331C68.319 54.2331 69.3619 53.546 69.9263 52.638L69.6687 52.4294ZM66 50.503C66.049 49.5214 66.4294 48.8343 67.3006 48.8343C67.9754 48.8343 68.3803 49.3128 68.4049 50.503H66ZM73.4478 53.73C72.6257 53.73 72.4049 53.6809 72.4049 53.0183V50.049C72.7116 49.7791 73.1779 49.2269 73.6932 49.2269C74.0859 49.2269 74.1472 49.5214 74.2331 49.8772C74.3803 49.8527 74.5398 49.8282 74.6871 49.8282C74.8343 49.8282 74.9938 49.8527 75.1411 49.8772V48.5889C74.9202 48.4539 74.6625 48.3926 74.3803 48.3926C73.6196 48.3926 72.9079 48.9938 72.4049 49.5582L72.2822 48.3926C71.6687 48.5889 70.8834 48.6503 70.2454 48.6503V49.0552C70.8957 49.0552 71.1288 49.1042 71.1288 49.7668V53.0183C71.1288 53.6932 70.9079 53.73 70.2576 53.73V54.1349C70.5889 54.0858 71.1779 54.0613 71.8527 54.0613C72.5276 54.0613 73.1288 54.0858 73.4478 54.1349V53.73V53.73Z" fill="black"/>
</svg>
