<svg width="100" height="100" viewBox="0 0 100 100" fill="none" xmlns="http://www.w3.org/2000/svg">
<rect x="0.5" y="0.5" width="99" height="99" fill="white" stroke="#008B00"/>
<path d="M61.8282 46.6135H65.7178V58.9202H69.681V46.6135H73.681V43.9877H61.8405V46.6135H61.8282ZM53.4847 50.3558H51.9632V46.4662H53.4356C55.6319 46.4662 56.0982 47.4724 56.0982 48.3804C56.1104 49.5337 55.1656 50.3558 53.4847 50.3558ZM56.6135 51.546C58.6626 51.1534 60.0736 49.6319 60.0736 47.9509C60.0736 44.8221 57.5215 43.8773 53.092 43.8773C50.3558 43.8773 48.0859 44.2331 48.0859 44.2331V58.9202H52.0123V52.8712C53.7055 52.8712 54.8589 52.9816 55.5092 54.7853L57.0184 58.9202H61.1534L59.1779 53.8405C58.5521 52.3435 57.7669 51.6932 56.6135 51.546ZM80.3313 56.2945L86.7362 45.7791V43.9877H76.0123V46.6135H81.9509L75.5828 57.1288V58.9325H86.8466V56.3067H80.3313V56.2945ZM23.9632 56.4049C23.9632 56.4049 23.1411 56.5521 22.1595 56.5521C19.0675 56.5521 17.3374 54.319 17.3374 51.411C17.3374 48.5276 19.2515 46.5153 22.2699 46.5153C24.1104 46.5153 26.0859 47.0184 27.2393 47.4478L27.4601 44.454C26.1595 44.0981 24.5399 43.6932 22.1718 43.6932C16.9448 43.6932 13.2393 47.0797 13.2393 51.5705C13.2393 56.1104 16.6258 59.2393 22.0982 59.2393C24.9816 59.2393 27.681 58.0123 27.681 58.0123V50.8589H23.9755V56.4049H23.9632ZM41.0797 44.2331L40.4785 47.2147C41.5337 48.0981 42.0613 49.6073 42.0613 51.5092C42.0613 54.6012 40.6994 56.5521 37.9264 56.5521C35.1902 56.5521 33.7914 54.5031 33.7914 51.3742C33.7914 49.2515 34.454 47.6564 35.7914 46.8957L36.4417 43.8773C31.9632 44.5031 29.865 47.9632 29.865 51.4846C29.865 56.4908 33.2515 59.1902 37.9264 59.1902C43.4356 59.1902 45.9877 55.3374 45.9877 51.4478C45.9877 47.6442 44.0859 45.1902 41.0797 44.2331Z" fill="black"/>
<path d="M38.1472 41.0675L40.6626 41.362L39.0797 48.9571L36.4908 48.5154L38.1472 41.0675Z" fill="#EC1A30"/>
</svg>
