<svg width="100" height="100" viewBox="0 0 100 100" fill="none" xmlns="http://www.w3.org/2000/svg">
<rect x="0.5" y="0.5" width="99" height="99" fill="white" stroke="#008B00"/>
<g clip-path="url(#clip0_24_258)">
<path d="M41.543 47.78C42.1917 47.2674 42.9891 47.1198 43.7103 46.8248C44.3626 46.456 44.5801 45.7184 44.3626 44.9844C44.2902 44.6894 44.1452 44.4681 43.8553 44.3944C42.7716 44.0993 41.8293 44.6894 40.7457 44.5419C40.5282 44.4681 40.3108 44.3206 40.3108 44.0993C40.4557 43.2916 40.6732 42.4803 40.9631 41.6689C42.6266 37.5493 44.5801 33.6474 46.3161 29.6016C46.6785 28.5726 47.4034 27.5399 47.0409 26.4372C46.751 25.4046 45.3774 25.6996 44.5837 25.9946C43.6378 26.4372 42.8441 27.0236 41.9743 27.5363C41.4669 27.8313 40.8182 27.6838 40.3108 27.9788C38.7922 29.0852 38.2123 30.7781 37.4911 32.3234C36.6249 34.0162 36.0451 35.709 35.3202 37.4018C34.0916 40.3486 32.6455 43.1441 31.3444 46.0872L24.3135 47.7025C24.3135 47.7025 29.3149 35.7827 31.4133 29.6716C31.4858 29.3766 31.4133 28.934 31.1959 28.7164C30.3985 28.0526 29.3149 28.4214 28.4487 28.7164C26.8577 32.4709 25.3246 36.1774 23.6756 39.9798C22.592 42.4803 21.9577 43.6752 21.019 46.2531C20.8741 46.6219 20.2036 48.7389 20.2036 48.7389C16.1445 50.2584 14.0787 50.8116 10.8712 51.8295C10.6574 52.7847 10.15 53.5961 10.005 54.555C10.7987 54.6287 11.741 54.555 12.3898 54.85C12.8972 55.0713 12.6072 55.9527 12.9696 56.3953C13.767 57.0591 14.7781 57.2804 15.4305 58.1619C15.7929 58.6044 15.8654 59.1908 15.8654 59.7809C15.7929 61.4 14.9992 62.8715 14.4918 64.4906C13.836 66.5904 13.1363 68.6759 12.3934 70.7455C12.1759 71.3356 12.5384 71.9958 12.6833 72.5859C12.9008 72.9547 13.3357 73.1723 13.767 72.8809C14.1294 72.5859 14.3469 72.1433 14.5643 71.7782C15.2891 70.3066 15.7929 68.8351 16.3728 67.3636C17.6014 63.9779 18.6162 60.5923 19.8448 57.2067C22.302 56.6903 24.6904 55.9564 27.2237 55.9564C27.3687 55.9564 27.2962 56.3252 27.2962 56.5465C26.0676 61.6987 24.3316 66.1908 23.1755 71.2692C23.0305 71.7118 22.8855 72.2982 23.103 72.5195C24.4765 73.9172 25.6327 75.315 26.7199 77.0078C26.7924 77.0816 26.9374 77.1554 27.0824 77.1554C27.5898 77.2291 28.166 77.2291 28.6009 77.2291C29.1808 77.1554 29.2533 76.2702 29.4707 75.7576C31.4242 71.1217 32.5803 66.4084 34.0264 61.625C34.5338 60.0797 35.0375 58.6081 35.4724 56.9891C35.8349 55.5175 36.1973 54.1198 36.7735 52.722C36.991 52.2794 37.3534 51.9844 37.7122 51.6893C38.9372 50.2805 40.0208 48.8864 41.543 47.78V47.78ZM89.3537 24.0031C88.4839 22.6791 86.6029 22.9741 85.5193 23.7818C82.6272 25.991 82.0473 29.5241 80.6737 32.6147C80.3113 33.3523 79.8764 34.0125 79.5901 34.6763C76.1906 41.8902 73.5123 49.104 70.1852 56.3178C69.4386 57.8336 68.9204 59.4453 68.3043 61.2488C68.2318 61.3225 68.1593 61.3225 68.0868 61.3963C67.8693 60.9537 67.217 60.6587 67.2895 60.146C67.6519 53.8911 68.5181 47.8538 69.3154 41.5214C69.5329 40.0498 69.7503 38.7258 70.0403 37.2543C70.3302 35.4877 70.7651 34.0162 71.1239 32.2496C71.4138 30.9993 71.4863 29.8228 71.5588 28.5689C71.5588 27.3187 71.6313 25.9172 71.1239 24.7407C70.7615 23.8556 70.0403 22.7528 68.8805 23.0479C68.4456 23.1954 68.0868 23.5642 67.6519 23.7117C66.4233 24.0068 64.7598 23.638 64.1799 24.962C59.6967 35.8565 56.2356 46.8617 53.0427 58.2319C52.6078 59.7772 52.0315 61.175 51.814 62.7941C51.5966 64.2656 51.2342 65.5896 50.9442 67.0648C50.6543 68.7577 50.0056 70.3029 49.8606 71.9958C49.7156 72.8772 49.7156 73.6886 49.7845 74.57C50.0563 75.3814 51.6111 74.4594 52.1004 73.7623C52.3178 72.1433 52.6802 70.598 53.0427 68.9052C53.695 65.4458 54.7062 62.2814 55.7173 58.9696C57.2371 54.0339 58.9749 49.1706 60.9253 44.3944C61.0703 43.9518 61.1428 43.3617 61.6502 42.9966C61.6502 46.2347 61.0703 49.399 60.9978 52.6408C60.9253 57.5718 60.7079 62.429 60.7079 67.3636C60.7079 67.8799 61.2153 68.1713 61.5777 68.5401C63.0238 69.7165 64.4227 70.7713 65.2418 72.4641C65.4013 72.7924 65.9195 72.217 66.2058 71.9257C66.9307 71.1143 67.5069 70.1591 67.8693 69.2002C68.663 67.2861 69.3879 65.4458 70.1852 63.5317C72.8599 57.203 75.5382 50.9443 78.6478 44.8369C78.7203 44.9107 78.7927 44.9844 78.7927 45.0582C77.8541 54.6287 76.0456 63.8304 75.5382 73.3235C75.5382 73.8398 76.1181 74.2086 76.3319 74.6475C76.8393 75.8977 77.4155 77.1517 78.5753 77.8118C79.4451 78.2544 80.6012 77.8856 80.8912 77.0005C81.0361 76.3366 81.0361 75.6027 81.1086 74.8651C81.2536 74.1275 81.471 73.3935 81.5435 72.6559C81.8335 70.7418 82.1959 68.9752 82.5547 66.9874C83.0621 63.8968 83.5658 61.0976 84.1457 58.007C86.0267 47.8501 87.9077 38.7221 89.7161 28.5652C90.0025 27.0236 90.2924 25.3308 89.3537 24.0031V24.0031ZM47.4722 60.3304C46.4756 59.9911 45.5296 61.2451 44.9425 61.9126C44.5801 61.2488 44.2902 60.2198 44.7976 59.7035C45.816 58.6671 46.2146 57.8668 45.7399 56.3178C45.3049 54.7725 43.3515 54.4037 41.9779 54.9201C40.9885 55.2704 40.5971 56.6424 40.6913 57.8816C40.7276 58.3905 40.8435 58.8774 41.0356 59.2646C41.1806 59.5596 41.3256 60.0723 41.543 60.3673C40.6116 60.6255 39.1112 62.4585 38.1978 64.3689C37.7303 65.3499 37.4186 66.353 37.4186 67.1755C37.4186 68.7208 39.5533 69.7497 40.8182 69.3441C41.6699 69.0711 42.2642 68.4626 43.0616 68.02C43.7864 68.6064 44.2902 69.4178 45.16 70.0079C45.2361 70.0079 45.3774 70.0079 45.3774 69.9341C45.6674 68.4626 45.015 66.9911 45.6674 65.7371C46.1748 64.8557 46.9685 64.2656 47.5483 63.3805C48.1536 62.4548 48.4906 60.6366 47.4722 60.3304V60.3304ZM42.5542 65.372C42.4817 65.9621 41.9743 66.1834 41.398 66.3272C41.1081 66.401 40.8182 66.2535 40.6007 65.9584C40.5172 65.8196 40.4629 65.6647 40.4411 65.5035C40.4192 65.3423 40.4304 65.1783 40.4739 65.0217C40.547 64.7521 40.6634 64.4967 40.8182 64.2656C41.0356 63.8968 41.5503 63.6497 41.9743 63.823C42.6991 64.1218 42.6991 64.7856 42.5542 65.372V65.372ZM43.5653 58.527C43.2101 58.4348 42.9854 58.0549 42.8513 57.664C42.7776 57.4425 42.7266 57.2139 42.6991 56.9817C42.6556 56.6092 42.9891 56.2883 43.3515 56.3178C43.7683 56.3547 44.3626 56.6129 44.2902 57.203C44.2177 57.7193 44.1452 58.6007 43.5653 58.527V58.527Z" fill="#CF4037"/>
</g>
<defs>
<clipPath id="clip0_24_258">
<rect width="80" height="55" fill="white" transform="translate(10 23)"/>
</clipPath>
</defs>
</svg>
