<svg width="100" height="100" viewBox="0 0 100 100" fill="none" xmlns="http://www.w3.org/2000/svg">
<rect x="0.5" y="0.5" width="99" height="99" fill="white" stroke="#008B00"/>
<g clip-path="url(#clip0_24_256)">
<path d="M10.0026 43.0061H11.2766C11.2814 45.1671 11.2671 47.323 11.2814 49.484C11.3998 49.3508 11.4661 49.1781 11.575 49.035C12.0155 48.4035 12.688 47.8953 13.4553 47.8559C14.0521 47.8361 14.7057 47.9101 15.1793 48.3196C15.5629 48.6403 15.7145 49.1682 15.7097 49.6665C15.7097 51.3785 15.7145 53.0904 15.705 54.8024C15.274 54.8024 14.843 54.8074 14.4072 54.8024L14.4073 49.2176C14.4026 48.8969 14.3315 48.5416 14.09 48.3196C13.8721 48.1174 13.5548 48.0927 13.2754 48.1322C12.7828 48.1864 12.347 48.4775 12.0155 48.8525C11.7313 49.1731 11.5087 49.5481 11.3145 49.9329C11.2861 49.9872 11.2719 50.0464 11.2766 50.1105V54.8024C10.8504 54.8074 10.4288 54.8024 10.0026 54.8024V43.0061Z" fill="#1A181D" stroke="#1A181D" stroke-width="0.139128"/>
<path d="M11.2766 43.0061H35.1805C35.1853 46.9382 35.1758 50.8703 35.1853 54.8024H36.483C36.4925 53.9637 36.4735 53.125 36.4925 52.2863C36.6677 52.1136 36.8335 51.9261 37.0277 51.7781C37.7618 52.7303 38.5007 53.6775 39.2348 54.6297C39.2964 54.6988 39.3485 54.8221 39.4574 54.8024C39.9879 54.8024 40.5183 54.8123 41.0488 54.7975C40.04 53.4555 38.998 52.1382 37.9845 50.8012C38.6807 50.0957 39.4006 49.41 40.1063 48.7094C40.2673 48.5367 40.4663 48.3986 40.5988 48.2012C40.452 48.216 40.2958 48.1815 40.1584 48.2259C39.0217 49.3705 37.8802 50.52 36.7435 51.6696C36.6583 51.7534 36.5825 51.8373 36.4878 51.9064C36.483 48.9413 36.4878 45.9713 36.483 43.0062H70.2715C70.2715 46.9333 70.2763 50.8605 70.2668 54.7926C70.6978 54.8172 71.1335 54.8024 71.5693 54.7975V43.0062H74.5531C74.5531 46.9383 74.5484 50.8704 74.5531 54.8024C74.9841 54.8074 75.4199 54.8024 75.8509 54.8024C75.8556 50.8704 75.8603 46.9383 75.8509 43.0062H89.9981V48.6946C89.9602 48.2851 89.6287 47.9546 89.2497 47.8806C88.8283 47.8017 88.3735 47.8954 88.0136 48.1371C87.4689 48.5022 87.1469 49.1337 86.9905 49.7702C86.9526 49.6074 86.9716 49.4397 86.9668 49.2719C86.9621 48.7982 86.9716 48.3246 86.9621 47.851C86.5358 47.8559 86.1096 47.8559 85.6833 47.851C85.6501 48.3049 85.6786 48.7637 85.6691 49.2225C85.6738 51.0825 85.6643 52.9425 85.6738 54.8024C86.1049 54.8024 86.5358 54.8074 86.9668 54.8024V52.2814C86.9716 51.4476 86.91 50.5891 87.1847 49.785C87.3647 49.2472 87.6584 48.7242 88.1035 48.3789C88.3356 48.1963 88.634 48.0631 88.9324 48.1371C88.8092 48.2753 88.6719 48.4134 88.6388 48.6058C88.5772 48.9117 88.5961 49.3261 88.904 49.484C89.1598 49.6024 89.4818 49.6024 89.7186 49.4347C89.8844 49.3163 89.9697 49.119 89.998 48.9166V54.9948H81.4112C81.7096 54.9011 82.0222 54.8369 82.2969 54.6692C83.0689 54.2498 83.5662 53.4013 83.7035 52.5181C83.6183 52.5181 83.5378 52.5132 83.4525 52.5132C83.3341 53.2482 82.941 53.9538 82.3252 54.3485C81.8374 54.6642 81.2407 54.7875 80.6723 54.7086C80.3171 54.6593 79.9714 54.4718 79.7677 54.156C79.4883 53.7268 79.4314 53.1989 79.4124 52.6957C79.3982 52.0641 79.4124 51.4326 79.403 50.8061C80.7386 50.7963 82.079 50.8061 83.4146 50.8011C83.4999 50.8159 83.5756 50.7469 83.5615 50.6531C83.5567 50.3275 83.4336 50.0167 83.301 49.7256C83.012 49.1138 82.5857 48.5563 82.0174 48.2011C81.4348 47.8311 80.6912 47.7423 80.0471 47.9939C79.4456 48.2209 78.9578 48.6994 78.6025 49.2421C78.1621 49.9328 77.8921 50.7567 77.9252 51.5905C77.9489 52.4391 78.2 53.3025 78.7304 53.9488C79.0667 54.3632 79.5119 54.674 80.0044 54.8368C80.1797 54.901 80.3644 54.9256 80.5397 54.9947H65.3978C65.5968 54.9158 65.8099 54.8911 66.0135 54.8122C66.8471 54.5161 67.5291 53.8205 67.8844 52.9818C68.3532 51.8914 68.2964 50.5742 67.7233 49.5381C67.3255 48.808 66.6671 48.2357 65.8904 47.9988C65.0048 47.7226 64.0007 47.836 63.2144 48.3541C62.613 48.7537 62.1535 49.3704 61.9025 50.0611C61.6135 50.8554 61.5852 51.7533 61.8315 52.5674C62.073 53.3913 62.6035 54.1313 63.3234 54.5655C63.6786 54.7875 64.0859 54.8862 64.4838 54.9947H45.6051C45.8608 54.9108 46.1308 54.8615 46.3723 54.7382C47.2154 54.3385 47.7648 53.4505 47.9069 52.518C47.8216 52.5131 47.7363 52.518 47.6558 52.518C47.5469 53.1989 47.2011 53.8501 46.6612 54.2547C46.145 54.6444 45.4819 54.8023 44.852 54.7086C44.492 54.6542 44.1463 54.4471 43.9521 54.1215C43.6774 53.6774 43.6253 53.1397 43.6111 52.6266C43.6111 52.0148 43.6111 51.408 43.6158 50.8011H47.6132C47.7505 50.8307 47.7932 50.6679 47.7648 50.5594C47.6938 50.0512 47.4664 49.5825 47.1917 49.1632C46.7749 48.5415 46.1639 48.0235 45.4298 47.8903C44.7904 47.762 44.1179 47.9495 43.6016 48.359C42.8675 48.9362 42.3844 49.8243 42.1949 50.7567C42.0623 51.4573 42.1333 52.1925 42.3465 52.8684C42.6164 53.7021 43.2132 54.4274 44.0042 54.7628C44.2362 54.8714 44.4967 54.9059 44.7383 54.9947H21.0712C21.2891 54.9059 21.5212 54.8566 21.7248 54.7283C22.2458 54.4175 22.6579 53.9044 22.8663 53.3173C22.9231 53.8106 22.8758 54.3089 22.89 54.8023C23.3257 54.7974 23.7614 54.8171 24.1972 54.7925C24.1877 52.4786 24.1972 50.1697 24.1925 47.8558C23.7614 47.8508 23.3257 47.8558 22.8947 47.8508C22.89 49.1632 22.8947 50.4755 22.89 51.7879C22.8852 52.1332 22.9184 52.4884 22.8284 52.8289C22.6532 53.5492 22.2032 54.2103 21.5638 54.5556C21.1991 54.7382 20.7397 54.822 20.3703 54.6C20.0672 54.4224 19.9298 54.0524 19.9156 53.7021C19.9061 51.7533 19.925 49.7996 19.9061 47.8508C19.4799 47.8558 19.0488 47.8558 18.6226 47.8508C18.6084 49.6417 18.6226 51.4277 18.6178 53.2186C18.6084 53.7218 18.8025 54.2399 19.1909 54.5507C19.4893 54.8122 19.8777 54.896 20.2424 54.9947H10.0026V54.8023C10.4288 54.8023 10.8504 54.8073 11.2766 54.8023V50.1104C11.2719 50.0463 11.2861 49.9871 11.3145 49.9328C11.5087 49.548 11.7313 49.173 12.0155 48.8524C12.347 48.4774 12.7828 48.1863 13.2754 48.1321C13.5548 48.0926 13.8721 48.1173 14.09 48.3195C14.3316 48.5415 14.4026 48.8968 14.4073 49.2175V54.8022C14.843 54.8072 15.2741 54.8022 15.705 54.8022C15.7145 53.0903 15.7098 51.3784 15.7098 49.6664C15.7145 49.1681 15.5629 48.6402 15.1793 48.3195C14.7057 47.91 14.0521 47.836 13.4553 47.8557C12.6881 47.8952 12.0155 48.4034 11.5751 49.0349C11.4661 49.1779 11.3998 49.3506 11.2814 49.4838C11.2671 47.323 11.2814 45.1671 11.2766 43.0061Z" fill="white" stroke="white" stroke-width="0.139128"/>
<path d="M35.1802 43.0056H36.4826C36.4874 45.9707 36.4827 48.9408 36.4874 51.9059C36.5821 51.8368 36.6579 51.7529 36.7431 51.669C37.8798 50.5195 39.0213 49.37 40.158 48.2254C40.2953 48.181 40.4516 48.2155 40.5985 48.2007C40.4658 48.398 40.2669 48.5362 40.1059 48.7089C39.4002 49.4094 38.6803 50.0952 37.9841 50.8007C38.9976 52.1377 40.0396 53.455 41.0484 54.7969C40.518 54.8117 39.9875 54.8019 39.457 54.8019C39.3481 54.8216 39.296 54.6983 39.2344 54.6292C38.5003 53.677 37.7614 52.7297 37.0273 51.7776C36.8331 51.9256 36.6673 52.113 36.4921 52.2857C36.4732 53.1244 36.4921 53.9631 36.4826 54.8019H35.1849C35.1754 50.8698 35.1849 46.9377 35.1802 43.0056ZM70.2712 43.0056H71.5689V54.797C71.1332 54.8019 70.6974 54.8167 70.2664 54.792C70.2759 50.86 70.2712 46.9328 70.2712 43.0056ZM74.5527 43.0056H75.8505C75.8599 46.9377 75.8552 50.8698 75.8505 54.8019C75.4194 54.8019 74.9837 54.8069 74.5527 54.8019C74.5481 50.8698 74.5527 46.9377 74.5527 43.0056ZM61.8359 44.6535C61.978 44.318 62.3237 44.1108 62.6695 44.1009C63.0436 44.0664 63.4084 44.2193 63.7209 44.4265C64.1093 44.6831 64.4456 45.0186 64.7581 45.3639C64.8292 45.4577 64.976 45.5021 65.0612 45.4034C65.4638 44.9643 65.8949 44.5252 66.43 44.2588C66.7947 44.0762 67.2446 44.022 67.6141 44.2144C67.8793 44.3476 68.0593 44.6239 68.1019 44.9248C68.1493 45.285 68.0735 45.6895 67.8272 45.9658C67.6235 46.1977 67.3252 46.3112 67.0315 46.3506C66.4963 46.4197 65.9564 46.2865 65.4638 46.0645C65.8285 46.4394 66.1931 46.8243 66.6241 47.1153C66.8989 47.3028 67.2778 47.436 67.5857 47.2387C67.363 47.1597 67.3299 46.8045 67.543 46.696C67.7609 46.5677 68.0261 46.8539 67.9077 47.0808C67.723 47.3768 67.3583 47.5495 67.022 47.4903C66.6668 47.4311 66.3637 47.2189 66.0937 46.9871C65.6628 46.617 65.3076 46.1681 64.9429 45.7339C64.7866 45.8425 64.6918 46.0201 64.5592 46.1582C64.1709 46.6072 63.7635 47.0709 63.2378 47.3522C62.9347 47.5199 62.5416 47.5692 62.2385 47.362C62.0916 47.2634 61.8974 47.1252 61.9259 46.9081C61.9448 46.7009 62.21 46.5874 62.3616 46.7305C62.5179 46.8539 62.48 47.14 62.3 47.2189C62.2952 47.293 62.3758 47.288 62.4232 47.3078C62.7216 47.4015 63.0294 47.2535 63.2757 47.0857C63.6309 46.844 63.934 46.5282 64.2418 46.2224C64.2892 46.173 64.3461 46.1336 64.3697 46.0645C63.8724 46.3112 63.3041 46.4246 62.7594 46.3408C62.39 46.2816 62.0253 46.0744 61.8642 45.7142C61.7222 45.3836 61.6985 44.989 61.8359 44.6535V44.6535Z" fill="#1A181D" stroke="#1A181D" stroke-width="0.139128"/>
<path d="M62.6743 44.4512C62.9773 44.3525 63.2994 44.4413 63.5789 44.5745C64.0525 44.8114 64.4409 45.1912 64.7866 45.5909C64.7866 45.6057 64.7866 45.6303 64.7819 45.6402C64.2372 45.9708 63.5505 46.1237 62.949 45.8721C62.6458 45.7487 62.3238 45.5366 62.248 45.1814C62.1675 44.8656 62.3806 44.5351 62.6743 44.4512V44.4512ZM66.1128 44.6683C66.4112 44.4857 66.7711 44.3575 67.1216 44.4315C67.3727 44.4857 67.6 44.7078 67.6237 44.984C67.6521 45.2652 67.4816 45.5267 67.2685 45.6797C66.6149 46.1582 65.7103 46.0596 65.0613 45.6254C65.3503 45.2455 65.7102 44.915 66.1128 44.6683Z" fill="white" stroke="white" stroke-width="0.139128"/>
<path d="M18.6222 47.8505C19.0485 47.8554 19.4795 47.8554 19.9058 47.8505C19.9247 49.7993 19.9058 51.753 19.9153 53.7017C19.9295 54.0521 20.0668 54.4221 20.37 54.5997C20.7394 54.8217 21.1988 54.7378 21.5635 54.5553C22.2029 54.2099 22.6528 53.5488 22.8281 52.8285C22.918 52.4881 22.8849 52.1328 22.8896 51.7875C22.8943 50.4752 22.8896 49.1628 22.8943 47.8505C23.3254 47.8554 23.7611 47.8505 24.1921 47.8554C24.1968 50.1693 24.1873 52.4782 24.1968 54.7921C23.7611 54.8168 23.3254 54.7971 22.8896 54.8019C22.8754 54.3086 22.9228 53.8103 22.8659 53.3169C22.6575 53.904 22.2454 54.4171 21.7244 54.7279C21.5208 54.8563 21.2888 54.9056 21.0708 54.9943H20.242C19.8773 54.8957 19.489 54.8118 19.1905 54.5503C18.8022 54.2395 18.608 53.7215 18.6174 53.2182C18.6222 51.4273 18.608 49.6414 18.6222 47.8505V47.8505ZM27.1049 47.8505C27.5312 47.8554 27.9622 47.8554 28.3884 47.8505C28.4074 48.3882 28.3932 48.9309 28.3932 49.4687C28.4074 49.4638 28.4311 49.449 28.4453 49.444C28.7816 48.8273 29.2741 48.2698 29.9183 48.0084C30.3777 47.8159 30.8892 47.8258 31.3723 47.9047C31.7891 47.9787 32.2106 48.1564 32.4806 48.5066C32.741 48.8273 32.831 49.2566 32.831 49.666V54.8019H31.538C31.5286 52.9568 31.538 51.1166 31.5333 49.2714C31.5285 48.926 31.467 48.5412 31.197 48.3044C30.9413 48.0824 30.5765 48.0873 30.264 48.1514C29.7193 48.2649 29.2646 48.6497 28.933 49.0987C28.7389 49.3651 28.5731 49.6611 28.4215 49.9571C28.3789 50.0311 28.4026 50.1248 28.3978 50.2038C28.3978 51.7382 28.3978 53.2676 28.3931 54.8019C27.9621 54.8069 27.5311 54.8019 27.1001 54.8019C27.1049 52.4831 27.0954 50.1693 27.1049 47.8505ZM43.6013 48.3586C44.1176 47.9491 44.7901 47.7617 45.4295 47.8899C46.1636 48.0232 46.7746 48.5412 47.1914 49.1628C47.4661 49.5822 47.6935 50.0509 47.7645 50.559C47.793 50.6676 47.7503 50.8304 47.613 50.8008H43.6156C43.6108 51.4076 43.6108 52.0144 43.6108 52.6262C43.625 53.1393 43.6771 53.6771 43.9518 54.1211C44.146 54.4468 44.4917 54.6539 44.8517 54.7082C45.4817 54.8019 46.1447 54.6441 46.6609 54.2543C47.2009 53.8497 47.5466 53.1985 47.6556 52.5177C47.7361 52.5177 47.8213 52.5127 47.9066 52.5177C47.7645 53.4501 47.2151 54.3382 46.3721 54.7378C46.1305 54.8611 45.8606 54.9105 45.6048 54.9943H44.7381C44.4965 54.9055 44.236 54.871 44.0039 54.7625C43.213 54.427 42.6162 53.7017 42.3462 52.868C42.1331 52.1921 42.0621 51.4569 42.1947 50.7564C42.3841 49.8239 42.8672 48.9359 43.6013 48.3586V48.3586ZM49.6543 47.8554C50.09 47.8505 50.521 47.8505 50.952 47.8554C50.952 48.3734 50.9567 48.8915 50.952 49.4095L51.0088 49.3848C51.3024 48.8027 51.743 48.2698 52.3397 48.0182C52.7897 47.8258 53.287 47.8258 53.7606 47.8899C54.1585 47.9442 54.561 48.0972 54.8452 48.403C55.1341 48.7139 55.2715 49.1431 55.3094 49.5624C55.3662 49.5476 55.3615 49.4786 55.3851 49.4341C55.6741 48.6645 56.3324 48.0231 57.1281 47.885C57.5828 47.8159 58.0564 47.8504 58.4969 47.9984C58.9042 48.1366 59.2641 48.4277 59.4583 48.8273C59.6099 49.1332 59.6667 49.4785 59.6667 49.814C59.6715 51.4766 59.6619 53.1343 59.6715 54.792C59.2357 54.8167 58.8 54.8018 58.3643 54.797V49.4242C58.3548 49.0641 58.2979 48.6743 58.0564 48.3981C57.8243 48.1366 57.4549 48.0872 57.1328 48.1267C56.6355 48.1958 56.2235 48.551 55.9298 48.9556C55.6456 49.3453 55.4325 49.7893 55.3141 50.263C55.3094 51.7727 55.3046 53.2823 55.3141 54.7921C54.8831 54.8217 54.4427 54.797 54.0069 54.8019V49.2713C54.0164 48.9605 53.969 48.6201 53.7606 48.3833C53.5427 48.1514 53.2112 48.102 52.9175 48.1168C52.4581 48.1415 52.0319 48.3833 51.7193 48.7237C51.3925 49.074 51.1557 49.5081 50.9757 49.9571C50.9378 50.036 50.9567 50.1248 50.952 50.2087C50.9567 51.7332 50.9472 53.2626 50.9567 54.7871C50.5257 54.8167 50.09 54.8019 49.6543 54.797C49.659 52.4831 49.6543 50.1693 49.6543 47.8554V47.8554ZM63.2142 48.3537C64.0005 47.8357 65.0046 47.7222 65.8902 47.9985C66.6669 48.2353 67.3253 48.8076 67.7231 49.5378C68.2963 50.5738 68.353 51.8911 67.8842 52.9814C67.5289 53.8201 66.8469 54.5158 66.0133 54.8118C65.8097 54.8908 65.5965 54.9155 65.3976 54.9943H64.4835C64.0857 54.8858 63.6784 54.7871 63.3231 54.5651C62.6032 54.131 62.0728 53.3909 61.8312 52.567C61.5849 51.753 61.6133 50.855 61.9022 50.0607C62.1533 49.37 62.6127 48.7533 63.2142 48.3537V48.3537ZM80.0469 47.9935C80.691 47.7419 81.4346 47.8307 82.0172 48.2008C82.5855 48.556 83.0118 49.1135 83.3008 49.7252C83.4334 50.0163 83.5565 50.3271 83.5612 50.6528C83.5755 50.7465 83.4997 50.8156 83.4144 50.8008C82.0788 50.8057 80.7384 50.7958 79.4028 50.8057C79.4122 51.4323 79.398 52.0638 79.4122 52.6953C79.4312 53.1985 79.4881 53.7264 79.7674 54.1557C79.9712 54.4714 80.3169 54.6589 80.6721 54.7082C81.2405 54.7872 81.8372 54.6638 82.325 54.3481C82.9407 53.9534 83.3339 53.2478 83.4523 52.5128C83.5376 52.5128 83.6181 52.5177 83.7033 52.5177C83.566 53.4008 83.0687 54.2495 82.2967 54.6688C82.022 54.8365 81.7094 54.9007 81.411 54.9944H80.5396C80.3643 54.9254 80.1796 54.9007 80.0043 54.8366C79.5118 54.6738 79.0665 54.3629 78.7303 53.9485C78.1998 53.3022 77.9488 52.4388 77.9251 51.5903C77.892 50.7565 78.1619 49.9326 78.6024 49.2419C78.9575 48.6991 79.4454 48.2205 80.0469 47.9935ZM85.683 47.8505C86.1093 47.8554 86.5356 47.8554 86.9618 47.8505C86.9713 48.3241 86.9618 48.7977 86.9666 49.2714C86.9714 49.4391 86.9524 49.6068 86.9903 49.7697C87.1466 49.1333 87.4687 48.5017 88.0133 48.1366C88.3733 47.8949 88.828 47.8011 89.2495 47.8801C89.6284 47.9541 89.9599 48.2846 89.9978 48.6941V48.9161C89.9694 49.1185 89.8842 49.3158 89.7184 49.4342C89.4816 49.6019 89.1596 49.6019 88.9038 49.4835C88.5959 49.3256 88.577 48.9112 88.6386 48.6053C88.6717 48.4129 88.8091 48.2748 88.9322 48.1366C88.6338 48.0626 88.3354 48.1958 88.1033 48.3784C87.6582 48.7237 87.3645 49.2467 87.1845 49.7845C86.9098 50.5886 86.9714 51.447 86.9666 52.2809V54.8019C86.5356 54.8069 86.1047 54.8019 85.6736 54.8019C85.6642 52.942 85.6736 51.082 85.6689 49.222C85.6784 48.7632 85.6499 48.3044 85.683 47.8505V47.8505Z" fill="#1A181D" stroke="#1A181D" stroke-width="0.139128"/>
<path d="M43.8712 48.778C44.0465 48.4277 44.3922 48.1761 44.7711 48.1317C45.1974 48.0577 45.6899 48.186 45.9457 48.5806C46.2962 49.1283 46.2915 49.819 46.2773 50.4554C46.2725 50.5541 46.1589 50.5344 46.0925 50.5344C45.2684 50.5245 44.4349 50.5541 43.6107 50.5245C43.6107 49.9374 43.5918 49.3108 43.8712 48.778ZM64.3935 48.1662C64.8955 48.0774 65.4402 48.0823 65.9044 48.3192C66.2785 48.5116 66.5106 48.9063 66.6005 49.3207C66.7569 50.0163 66.7 50.7366 66.7142 51.4421C66.7047 52.1328 66.7521 52.8334 66.6053 53.5143C66.5153 53.9188 66.2974 54.3086 65.9374 54.5108C65.5017 54.7477 64.9902 54.7625 64.5165 54.7032C64.095 54.6489 63.6688 54.4269 63.4557 54.0322C63.1667 53.5043 63.162 52.8728 63.1478 52.2808C63.1573 51.5408 63.1336 50.8007 63.162 50.0607C63.1952 49.5673 63.2615 49.0296 63.5788 48.6349C63.7825 48.3784 64.0856 48.2254 64.3935 48.1662ZM80.331 48.1909C80.6862 48.0774 81.0983 48.0774 81.4251 48.2748C81.7093 48.4524 81.8798 48.7681 81.9698 49.0938C82.0834 49.5378 82.093 50.0015 82.0787 50.4555C82.074 50.5245 81.9982 50.5393 81.9461 50.5344H79.4074C79.4027 50.0114 79.3932 49.4687 79.5827 48.9704C79.7106 48.6152 79.9758 48.3044 80.331 48.1909Z" fill="white" stroke="white" stroke-width="0.139128"/>
</g>
<defs>
<clipPath id="clip0_24_256">
<rect width="80" height="12" fill="white" transform="translate(10 43)"/>
</clipPath>
</defs>
</svg>
