<svg width="100" height="100" viewBox="0 0 100 100" fill="none" xmlns="http://www.w3.org/2000/svg">
<rect x="0.5" y="0.5" width="99" height="99" fill="white" stroke="#008B00"/>
<path fill-rule="evenodd" clip-rule="evenodd" d="M10 10H90V90H10V10Z" fill="white"/>
<path fill-rule="evenodd" clip-rule="evenodd" d="M86.6167 39.4046C86.6167 38.7796 87.1243 38.3185 87.7232 38.3185C88.3167 38.3185 88.8238 38.7796 88.8238 39.4046C88.8238 40.0355 88.3163 40.4966 87.7232 40.4966C87.1239 40.4966 86.6167 40.0355 86.6167 39.4046C86.6167 40.0355 86.6167 39.4046 86.6167 39.4046ZM87.7232 40.3148C88.2162 40.3148 88.6051 39.9288 88.6051 39.4046C88.6051 38.8887 88.2158 38.4998 87.7232 38.4998C87.2247 38.4998 86.8354 38.8887 86.8354 39.4046C86.8354 39.9288 87.2243 40.3148 87.7232 40.3148C87.2243 40.3148 87.7232 40.3148 87.7232 40.3148ZM87.4928 40.0355H87.3023V38.7796H87.7804C88.0772 38.7796 88.2237 38.8891 88.2237 39.1365C88.2237 39.3615 88.0826 39.4594 87.8987 39.4822L88.2552 40.0355H88.0427L87.7111 39.4909H87.4924V40.0355H87.4928V40.0355ZM87.7207 39.3295C87.8821 39.3295 88.0253 39.3183 88.0253 39.1249C88.0253 38.9693 87.8842 38.9406 87.7522 38.9406H87.4928V39.3295H87.7207V39.3295Z" fill="#33348E"/>
<path fill-rule="evenodd" clip-rule="evenodd" d="M44.2734 49.4974C44.4321 49.4974 44.5893 49.4661 44.7359 49.4054C44.8825 49.3447 45.0158 49.2557 45.128 49.1434C45.2402 49.0312 45.3292 48.898 45.39 48.7513C45.4507 48.6047 45.482 48.4475 45.482 48.2888V39.547C45.482 39.2265 45.3546 38.9191 45.128 38.6924C44.9013 38.4658 44.5939 38.3384 44.2734 38.3384C43.9529 38.3384 43.6455 38.4658 43.4188 38.6924C43.1922 38.9191 43.0648 39.2265 43.0648 39.547V48.2884C43.0648 48.609 43.1921 48.9164 43.4188 49.1432C43.6454 49.3699 43.9528 49.4973 44.2734 49.4974V49.4974ZM54.7629 49.4974C54.9216 49.4974 55.0788 49.4661 55.2254 49.4054C55.3721 49.3447 55.5053 49.2557 55.6175 49.1434C55.7297 49.0312 55.8188 48.898 55.8795 48.7513C55.9402 48.6047 55.9715 48.4475 55.9715 48.2888V39.547C55.9757 39.3857 55.9476 39.2252 55.8888 39.0749C55.83 38.9246 55.7417 38.7876 55.6291 38.672C55.5165 38.5564 55.3818 38.4645 55.2331 38.4018C55.0845 38.3391 54.9247 38.3068 54.7633 38.3068C54.602 38.3068 54.4422 38.3391 54.2935 38.4018C54.1448 38.4645 54.0102 38.5564 53.8976 38.672C53.785 38.7876 53.6967 38.9246 53.6379 39.0749C53.5791 39.2252 53.551 39.3857 53.5552 39.547V45.0234L53.6315 45.1089L49.4816 39.1448C49.2895 38.8722 49.0052 38.6261 48.7001 38.4957C48.7001 38.4957 48.2444 38.3388 48.1813 38.3388C48.0226 38.3388 47.8655 38.3701 47.7189 38.4309C47.5723 38.4916 47.4391 38.5806 47.3269 38.6929C47.2147 38.8051 47.1257 38.9383 47.065 39.085C47.0043 39.2316 46.9731 39.3887 46.9732 39.5474V48.2888C46.9732 48.6093 47.1005 48.9167 47.3271 49.1433C47.5537 49.3699 47.8611 49.4972 48.1815 49.4972C48.502 49.4972 48.8094 49.3699 49.036 49.1433C49.2626 48.9167 49.3899 48.6093 49.3899 48.2888L49.4061 42.7498L53.5162 48.8661C54.3134 49.6638 54.7629 49.4974 54.7629 49.4974V49.4974ZM62.3995 40.3443H64.7648C65.1006 40.3443 65.8534 40.2658 65.8646 39.3329C65.8493 38.4916 65.096 38.3384 64.7648 38.3384H57.874C56.8551 38.3559 56.5687 38.8925 56.5866 39.4183C56.6028 39.8927 56.9232 40.3439 57.874 40.3439H59.9824V40.3264V48.2884C59.9906 48.6035 60.1216 48.9028 60.3473 49.1228C60.5731 49.3427 60.8758 49.4657 61.1909 49.4657C61.5061 49.4657 61.8088 49.3427 62.0346 49.1228C62.2603 48.9028 62.3913 48.6035 62.3995 48.2884V40.3269V40.3443V40.3443ZM68.8778 44.925H73.2057C73.5035 44.925 73.789 44.8067 73.9996 44.5962C74.2101 44.3856 74.3284 44.1001 74.3284 43.8023C74.3284 43.5046 74.2101 43.219 73.9996 43.0085C73.789 42.798 73.5035 42.6797 73.2057 42.6797H68.8607H68.8778V40.4128H73.9432C74.2183 40.4128 74.4821 40.3035 74.6766 40.109C74.8711 39.9145 74.9804 39.6507 74.9804 39.3756C74.9804 39.1005 74.8711 38.8367 74.6766 38.6422C74.4821 38.4477 74.2183 38.3384 73.9432 38.3384H67.6522H67.67C67.5113 38.3384 67.3541 38.3697 67.2075 38.4304C67.0609 38.4912 66.9277 38.5802 66.8154 38.6924C66.7032 38.8046 66.6142 38.9379 66.5534 39.0845C66.4927 39.2311 66.4614 39.3883 66.4614 39.547V48.2585C66.4614 48.9259 67.0022 49.5011 67.67 49.5011H73.9602C74.2353 49.5011 74.499 49.3919 74.6935 49.1974C74.888 49.003 74.9972 48.7392 74.9972 48.4642C74.9972 48.1892 74.888 47.9254 74.6935 47.7309C74.499 47.5365 74.2353 47.4272 73.9602 47.4272H68.8778V44.925ZM84.8183 48.0572C84.8183 47.8344 84.5955 47.8344 84.5955 47.5945V46.2747C84.5955 44.2692 82.6419 44.0294 82.9328 43.9609C84.7162 43.5413 84.8013 41.7156 84.8013 41.4072C84.8013 38.8361 82.727 38.3388 82.0243 38.3388H77.1315C76.811 38.3388 76.5036 38.4662 76.2769 38.6928C76.0503 38.9195 75.9229 39.2269 75.9229 39.5474V48.2888C75.9187 48.4502 75.9468 48.6107 76.0056 48.761C76.0645 48.9113 76.1528 49.0482 76.2654 49.1638C76.378 49.2794 76.5126 49.3713 76.6613 49.434C76.81 49.4968 76.9697 49.5291 77.1311 49.5291C77.2925 49.5291 77.4522 49.4968 77.6009 49.434C77.7496 49.3713 77.8842 49.2794 77.9968 49.1638C78.1094 49.0482 78.1977 48.9113 78.2566 48.761C78.3154 48.6107 78.3435 48.4502 78.3393 48.2888V44.9034C78.3393 44.9034 80.6194 44.766 81.4765 45.2122C82.3331 45.6575 82.3501 47.7319 82.3501 47.9718C82.3501 48.2116 82.5049 49.48 83.7729 49.48C85.0416 49.48 84.8183 48.2801 84.8183 48.0572C84.8183 48.2801 84.8183 48.0572 84.8183 48.0572ZM81.0648 43.1209H78.4256V40.2243H80.9967C80.9967 40.2243 82.5564 40.2928 82.5564 41.6641C82.556 43.0354 81.1847 43.1209 81.0648 43.1209C81.1847 43.1209 81.0648 43.1209 81.0648 43.1209Z" fill="#CC2229"/>
<path fill-rule="evenodd" clip-rule="evenodd" d="M84.073 50.6188H77.1859C76.8833 50.6188 76.6484 50.9043 76.6484 51.0558V51.5933L76.6729 51.6834C75.9798 51.0787 74.9373 50.6628 73.3755 50.6628H69.5788C69.4111 50.6628 69.2231 50.7641 69.2231 51.0998V53.822C68.3507 51.7589 66.3544 50.3104 63.9738 50.3104C63.0323 50.3099 62.1051 50.5408 61.2739 50.9827C60.4426 51.4247 59.7327 52.0642 59.2067 52.845L59.1847 52.7786C58.1691 50.791 55.6304 50.684 55.3353 50.684H51.8083C51.5062 50.684 51.0351 50.8525 51.0351 51.6925C51.0351 51.7979 51.0667 53.6556 51.0667 55.676H51.0376C50.1752 54.699 48.7304 54.384 48.2473 54.384H45.9294C45.6609 54.384 45.6268 54.0142 45.6268 53.8465C45.6268 53.6788 45.6604 53.5439 46.0302 53.5439H49.7589C50.2623 53.5439 50.2627 53.2758 50.2627 52.9392V51.1924C50.2627 50.7562 49.7925 50.6889 49.5576 50.6889H45.6604C45.3247 50.6889 42.4016 51.0919 42.4016 53.9478C42.4016 56.8028 45.0557 57.4917 45.5932 57.4917H47.7099C48.2137 57.4917 48.1801 57.962 48.1801 57.962C48.1801 57.962 48.0182 58.3762 47.7161 58.3762H43.6177C43.416 58.3762 43.0296 58.5941 43.0296 58.9639V61.0967C43.0296 61.2984 43.1055 61.5757 43.5085 61.5757H48.6906C49.1231 61.5757 50.2872 61.2926 51.033 60.3721L51.0339 60.3833C51.0339 60.9855 51.0355 60.9286 51.0355 61.1324C51.0355 61.5022 51.3045 61.6035 51.5066 61.6035H53.9254C54.2948 61.6035 54.3284 61.3009 54.3284 61.032V59.1506H55.2689C56.3347 59.1506 57.6433 58.9311 58.5422 57.9736L58.5526 57.9761C59.3412 60.2085 61.4707 61.8085 63.9746 61.8085C66.2871 61.8085 68.2806 60.4426 69.1932 58.4737L69.2443 58.4916V61.1918C69.2443 61.4271 69.4119 61.5948 69.614 61.5948H72.1673C72.4354 61.5948 72.5031 61.4271 72.5031 61.259V58.3911C72.5031 58.3911 74.721 61.3594 74.8547 61.4943C74.9891 61.6288 75.2577 61.6288 75.4262 61.6288H77.845C78.3484 61.6288 78.1131 61.225 78.1131 61.225L76.1313 58.2566C76.299 58.1554 78.0126 56.8455 78.0126 55.2331C78.0126 54.8588 77.9869 54.4114 77.896 53.9457H79.2619V61.0768C79.2619 61.4798 79.5723 61.6221 79.8081 61.6221H82.2431C82.512 61.6221 82.6971 61.4375 82.6971 61.1681V53.8785H84.3768C84.847 53.8785 84.9059 53.4414 84.9059 53.1061V51.2077C84.9047 50.703 84.5428 50.6188 84.073 50.6188C84.073 50.6188 84.5428 50.6188 84.073 50.6188V50.6188ZM55.5693 56.0889H54.3267V53.8963H55.4519C56.2583 53.8963 56.5941 54.5604 56.5941 55.0642C56.5941 55.5676 55.8383 56.0889 55.5693 56.0889C55.8383 56.0889 55.5693 56.0889 55.5693 56.0889ZM63.8675 58.0935C63.2879 58.0935 62.732 57.8633 62.3221 57.4534C61.9122 57.0435 61.6819 56.4876 61.6819 55.908C61.6819 55.3283 61.9122 54.7724 62.3221 54.3625C62.732 53.9527 63.2879 53.7224 63.8675 53.7224C64.4472 53.7224 65.0031 53.9527 65.4129 54.3625C65.8228 54.7724 66.0531 55.3283 66.0531 55.908C66.0531 56.4876 65.8228 57.0435 65.4129 57.4534C65.0031 57.8633 64.4472 58.0935 63.8675 58.0935C63.8675 58.0935 65.0744 58.0935 63.8675 58.0935ZM73.8113 56.0889H72.5687V53.8963H73.6938C74.5002 53.8963 74.8368 54.5604 74.8368 55.0642C74.8368 55.5676 74.0802 56.0889 73.8113 56.0889C74.0802 56.0889 73.8113 56.0889 73.8113 56.0889Z" fill="#33348E"/>
<path fill-rule="evenodd" clip-rule="evenodd" d="M11.1761 44.1924C11.1761 40.8743 13.866 38.184 17.1846 38.184C20.5032 38.184 23.193 40.8738 23.193 44.1924C23.193 47.511 20.5032 50.2005 17.1846 50.2005C13.866 50.2005 11.1761 47.5106 11.1761 44.1924Z" fill="#CC2229"/>
<path fill-rule="evenodd" clip-rule="evenodd" d="M17.0273 61.816V50.3814C17.0273 50.3814 21.1183 49.9622 23.5309 48.2838C25.9435 46.6055 27.7269 41.6753 33.0767 39.8919C38.4264 38.1089 40.4194 38.2135 40.4194 38.2135V50.2768C40.4194 50.2768 35.4892 50.3814 32.6571 54.0528C29.8245 57.725 25.9435 60.2426 23.1113 60.9764C20.2791 61.7106 17.0273 61.816 17.0273 61.816V61.816Z" fill="#33348E"/>
</svg>
