<svg width="100" height="100" viewBox="0 0 100 100" fill="none" xmlns="http://www.w3.org/2000/svg">
<rect x="0.5" y="0.5" width="99" height="99" fill="white" stroke="#008B00"/>
<path d="M85.9436 27.1447C85.4929 27.3745 85.0704 27.779 84.7793 28.2479C84.5915 28.5422 84.5633 28.7168 84.5633 29.4524C84.5539 30.2063 84.5915 30.3718 84.7793 30.6752C85.1549 31.2728 85.8122 31.8152 86.3192 31.9348C86.845 32.0727 87.6056 32.1002 87.7089 31.9991C87.7652 31.944 87.8967 31.898 88 31.898C88.2816 31.898 89.0046 31.3923 89.2957 30.9878C90 30.0316 89.9999 28.8731 89.3051 27.9445C89.0046 27.5492 88.7793 27.3561 88.3098 27.1171C87.8028 26.8504 86.4788 26.8596 85.9436 27.1447V27.1447ZM88.4037 27.4205C89.3145 27.9813 89.6995 28.9559 89.4647 30.0592C89.3521 30.5648 89.2769 30.7028 88.8544 31.1073C88.3661 31.5854 87.6995 31.898 87.1643 31.898C86.6009 31.898 85.953 31.5854 85.4084 31.0521C84.8075 30.4545 84.7042 30.1419 84.7981 29.0846C84.8356 28.5789 84.892 28.441 85.1924 28.0733C85.568 27.6319 86.0938 27.255 86.4694 27.1814C86.5915 27.1538 86.9953 27.1447 87.3615 27.163C87.8779 27.1814 88.122 27.2458 88.4037 27.4205Z" fill="#DA1E1E"/>
<path d="M86.216 28.1009C86.0658 28.2112 86.0939 30.6568 86.2536 30.8131C86.4132 30.9694 86.5728 30.7396 86.5071 30.4545C86.4789 30.3534 86.4883 30.1327 86.5165 29.9764C86.5728 29.7006 86.601 29.6914 87.0329 29.6914C87.6432 29.6914 87.8686 29.9121 87.9813 30.6476C88.0282 30.9602 88.1972 30.8131 88.2254 30.4453C88.2442 30.1603 88.1972 30.0224 87.9907 29.7834C87.8123 29.5719 87.7653 29.4616 87.8498 29.434C88.2723 29.2961 88.3944 28.5698 88.047 28.2572C87.8968 28.1192 87.6808 28.0733 87.0799 28.0549C86.6667 28.0457 86.2724 28.0641 86.216 28.1009V28.1009ZM87.8123 28.5146C88.0094 28.7812 88 28.9559 87.7841 29.2041C87.6338 29.3788 87.5118 29.4156 87.0893 29.4156H86.5822L86.5259 29.0019C86.432 28.3767 86.4883 28.3123 87.1268 28.3123C87.5775 28.3123 87.6902 28.3491 87.8123 28.5146ZM81.0611 28.0825C79.54 28.2664 78.8451 28.4043 76.9766 28.864C75.7841 29.1582 74.0282 29.7006 73.6714 29.8845C73.5775 29.9305 73.4554 29.9672 73.4085 29.9672C73.3522 29.9672 73.108 30.05 72.8639 30.1603C72.6198 30.2615 72.3381 30.381 72.2348 30.427C71.4742 30.7396 69.8216 31.567 69.0423 32.0267C66.986 33.2219 64.4789 35.3182 63.2489 36.8628C63.0329 37.1386 62.8263 37.3868 62.7982 37.4144C62.77 37.442 62.5822 37.7086 62.3756 38.012C62.1691 38.3154 61.9813 38.5821 61.9531 38.6097C61.8968 38.6648 61.6808 39.0602 61.2864 39.8049C60.2911 41.6897 59.8498 43.4273 59.8404 45.4133C59.8404 46.6636 59.9249 47.2153 60.2817 48.3554C60.8545 50.2034 62.1409 51.9778 63.7465 53.1455C64.4226 53.6327 66.1033 54.5154 66.3662 54.5154C66.4507 54.5154 66.554 54.5521 66.6104 54.5889C66.7324 54.6992 67.7465 54.9475 68.7606 55.1222C70.8076 55.4715 74.2536 55.2049 76.6949 54.5154C77.0799 54.405 77.5681 54.2763 77.7747 54.2212C77.9813 54.1752 78.2348 54.0924 78.3381 54.0557C78.4414 54.0097 78.6761 53.9453 78.8545 53.9086C79.0329 53.881 79.2301 53.8166 79.277 53.7798C79.3334 53.7431 79.5212 53.6787 79.6996 53.6419C79.878 53.6052 80.0846 53.5408 80.1691 53.504C80.2442 53.4581 80.8639 53.2374 81.5306 52.9983C82.6667 52.5938 83.709 52.1617 84.4883 51.7755L84.8169 51.61L84.8451 49.5598C84.8545 48.4381 84.8357 47.4635 84.7982 47.39C84.7324 47.2888 84.6292 47.3256 84.2536 47.5647C83.3146 48.1807 81.4179 49.1277 80.3099 49.5322C77.7371 50.4792 76.0564 50.5987 73.9249 49.9827C71.9343 49.4127 70.0752 47.8129 69.1831 45.9189C69.0705 45.6615 68.939 45.3857 68.8921 45.3029C68.4789 44.4939 68.2348 42.2597 68.4226 40.9541C68.5353 40.2094 68.5822 40.0072 68.9296 39.0234C69.7184 36.8076 71.8123 34.6378 74.1315 33.6449C74.3756 33.5345 74.6667 33.415 74.77 33.369C74.939 33.2955 75.7371 33.0656 76.6949 32.8174C77.662 32.56 79.2113 32.4313 80.5916 32.4864C81.3709 32.5232 82.1784 32.5692 82.4038 32.5967L82.7982 32.6519L82.7794 30.3258L82.7512 27.9905L82.3756 27.9813C82.1691 27.9721 81.5775 28.0181 81.0611 28.0825V28.0825ZM71.2958 31.9807C71.324 32.0359 71.2395 32.1279 71.1174 32.1922C70.8639 32.3209 69.2583 33.369 69.1831 33.461C69.155 33.4886 68.8451 33.7368 68.4789 34.0126C67.8686 34.4723 67.0799 35.1711 66.1503 36.0813C65.7559 36.4674 64.986 37.3317 64.5822 37.8649C64.4507 38.0304 64.3005 38.2143 64.2536 38.2695C63.9343 38.6189 62.6104 41.0185 62.6104 41.2575C62.6104 41.3219 62.5728 41.4414 62.5259 41.5334C62.1972 42.1218 61.9155 43.6848 61.9155 44.8616C61.9155 46.3235 62.1878 47.5371 62.8263 48.907C63.277 49.8816 64.1784 51.0124 65.0517 51.7112C65.3334 51.941 66.723 52.7685 66.8169 52.7685C66.8545 52.7685 67.0047 52.8329 67.1456 52.9064C67.5869 53.1271 68.7982 53.4489 69.7935 53.6052C70.1033 53.6511 70.6198 53.7339 70.9296 53.7798C72.0939 53.9637 73.9907 53.8902 75.9907 53.5868C76.8733 53.4489 77.54 53.4397 77.54 53.55C77.5493 53.596 77.4273 53.6695 77.277 53.6971C77.1268 53.7247 76.9484 53.789 76.8733 53.835C76.6667 53.9637 74.8169 54.3315 73.4554 54.5154C73.0986 54.5613 72.2066 54.5981 71.4836 54.5981C69.6338 54.5981 68.1878 54.3775 66.7888 53.881C66.3756 53.7339 64.7888 52.9432 64.601 52.7869C64.4977 52.7041 64.263 52.5295 64.0939 52.4007C63.6996 52.1065 63.0986 51.5089 62.7982 51.1228C62.6667 50.9573 62.5165 50.7734 62.4695 50.7182C62.1878 50.4056 61.6526 49.3943 61.2958 48.4933C60.986 47.7302 60.6104 45.4316 60.6761 44.7697C60.9015 42.7194 61.1737 41.7356 61.9625 40.1726C62.3381 39.4279 63.2677 37.9661 63.5869 37.6351C63.6432 37.5707 63.878 37.3041 64.1033 37.0375C65.493 35.3825 68.0094 33.4242 70.1221 32.3301C70.939 31.9072 71.1925 31.8336 71.2958 31.9807V31.9807ZM59.7935 34.0218C59.3991 34.2333 58.5728 34.4999 57.493 34.7757C57.3897 34.8033 57.0705 34.8953 56.7888 34.978C56.3005 35.1159 56.0845 35.1803 54.7888 35.5205C54.2442 35.6676 53.5493 35.8514 52.7043 36.0813C52.4507 36.1548 52 36.2744 51.7183 36.3571C51.4367 36.4399 50.9672 36.5686 50.6855 36.6421C49.6996 36.9088 49.2301 37.0375 48.7137 37.1846C48.2254 37.3225 47.9531 37.396 46.7418 37.7178C46.4601 37.7914 45.5306 38.0488 44.6761 38.2879C43.2113 38.6924 42.8451 38.7935 41.6526 39.1061C40.4507 39.4279 39.8686 39.6026 39.7841 39.6854C39.7371 39.7313 39.8967 39.8509 40.1503 39.9704C40.4695 40.1175 40.6855 40.3106 40.9108 40.6415C41.4836 41.5058 41.4836 41.3587 41.5024 51.9962C41.5306 61.2086 41.5212 61.6683 41.3521 62.1924C41.1174 62.9371 40.9578 63.2221 40.601 63.5531C40.3193 63.8197 40.3193 63.8197 40.5446 63.7738C41.0047 63.6726 41.6244 63.5071 41.8122 63.4336C41.9155 63.3876 42.1878 63.3049 42.4226 63.2497C43.0611 63.0934 43.7277 62.9095 44.3005 62.744C44.5822 62.6613 45.0423 62.5326 45.3146 62.459C45.5775 62.3855 46.0282 62.2751 46.3005 62.2016C46.5634 62.128 47.0235 61.9993 47.3052 61.9166C47.5869 61.8338 48.047 61.7051 48.3099 61.6316C48.5822 61.558 49.0329 61.4477 49.2958 61.3741C49.5681 61.3006 50.0282 61.1719 50.3099 61.0891C50.5916 61.0064 51.0047 60.896 51.2301 60.8409C51.446 60.7949 51.6245 60.7122 51.6245 60.6662C51.6245 60.6202 51.5869 60.5834 51.5399 60.5834C51.5024 60.5834 51.2489 60.3904 50.986 60.1421C50.5165 59.71 50.1221 59.1124 50.1221 58.8182C50.1221 58.7354 50.0845 58.6435 50.0376 58.6159C49.9061 58.5332 49.8498 57.5126 49.8029 54.0005C49.7465 50.5895 49.7371 50.6539 50.1691 50.5343C50.2723 50.5068 50.5916 50.4148 50.8733 50.3321C51.155 50.2493 51.6057 50.1298 51.8592 50.0563C52.1221 49.9919 52.5634 49.8632 52.8451 49.7804C54.5071 49.3023 54.7982 49.2472 55.709 49.2472C56.6479 49.238 56.723 49.2564 57.662 49.7161C57.7465 49.762 57.7465 47.4819 57.662 45.7075C57.6151 44.5858 57.5869 44.4019 57.446 44.4019C57.3615 44.4019 57.2583 44.4387 57.2019 44.4847C57.1174 44.5674 56.385 44.8064 55.3334 45.0915C55.0235 45.1742 54.6479 45.2845 54.4883 45.3305C54.3381 45.3765 53.8874 45.496 53.5024 45.5971C53.1174 45.7075 52.5634 45.8546 52.2817 45.9373C51.7653 46.0752 51.6526 46.1028 50.6761 46.3878C49.7277 46.6545 49.8029 46.8475 49.7465 43.8043L49.6996 41.138L49.9155 40.9541C50.0376 40.853 50.3287 40.7243 50.5728 40.6599C50.8169 40.6048 51.2676 40.4852 51.5775 40.4025C51.8874 40.3198 52.3381 40.2002 52.5822 40.1451C52.8169 40.0807 53.0517 40.0072 53.0892 39.9612C53.1268 39.9244 53.2301 39.8968 53.3146 39.8968C53.3991 39.8968 53.7653 39.8141 54.1221 39.7129C54.4789 39.6026 54.9202 39.4831 55.0986 39.4371C55.277 39.3912 55.662 39.29 55.9437 39.2073C56.2254 39.1245 56.8357 39.005 57.3052 38.9406C58.2536 38.8119 59.0611 38.9131 59.6151 39.244C59.7841 39.3452 59.9531 39.4095 60 39.382C60.0846 39.3268 60.0845 35.2354 59.9907 34.4631C59.9437 34.0402 59.9061 33.9575 59.7935 34.0218V34.0218ZM58.4977 37.1018C58.9296 37.1754 59.6057 37.7546 59.6057 38.058C59.6057 38.2419 59.5775 38.2603 59.2583 38.1959C58.4038 38.0488 57.4836 38.0488 56.7888 38.1959C56.4038 38.2787 56.0188 38.3798 55.9437 38.4166C55.8592 38.4626 55.6057 38.5269 55.3803 38.5637C55.155 38.6005 54.9014 38.6648 54.8169 38.7108C54.7418 38.7476 54.4883 38.8303 54.2536 38.8855C54.0188 38.9406 53.6245 39.051 53.3615 39.1153C52.5352 39.336 51.8686 39.5107 51.4367 39.621C51.2019 39.6762 50.9296 39.7681 50.8263 39.8049C50.4507 39.9704 50.0188 40.0072 49.8874 39.8968C49.6808 39.7221 49.709 39.1981 49.9437 38.9866C50.047 38.8947 50.3287 38.7843 50.5634 38.7476C50.7982 38.7108 51.0611 38.6556 51.1456 38.6097C51.2301 38.5637 51.4836 38.4809 51.7183 38.4258C51.9531 38.3706 52.3756 38.2603 52.6573 38.1867C52.939 38.1132 53.3615 38.0029 53.5963 37.9569C53.831 37.9017 54.1033 37.8282 54.2066 37.7822C54.385 37.7086 54.6198 37.6443 55.8029 37.3593C57.0235 37.0559 57.7653 36.9823 58.4977 37.1018ZM42.216 39.7497C42.5352 39.9152 42.8263 40.2186 43.0329 40.6324C43.4085 41.3403 43.446 42.4712 43.4554 51.9135C43.4648 61.6867 43.4836 61.3741 42.9766 62.0729C42.7418 62.3947 42.1221 62.79 41.8592 62.79C41.662 62.79 41.5963 62.5694 41.7653 62.4682C41.8216 62.4314 41.9531 62.2384 42.0752 62.0269L42.2817 61.6408V51.6192C42.2817 42.085 42.2723 41.5701 42.1033 41.0645C42.0094 40.7703 41.7935 40.3473 41.6244 40.1267C41.446 39.906 41.3334 39.7038 41.3615 39.6762C41.4648 39.575 41.9625 39.621 42.216 39.7497V39.7497ZM56.0845 47.4911C56.6573 47.6474 57.1644 48.1255 57.1644 48.4933C57.1644 48.7139 57.1644 48.7139 56.7794 48.5852C56.3475 48.4289 55.0799 48.4105 54.4883 48.5392C54.2817 48.5852 53.8686 48.6863 53.5775 48.7691C53.277 48.8426 52.7982 48.9714 52.5165 49.0449C52.2348 49.1277 51.7559 49.2472 51.4648 49.3299C50.7137 49.5322 49.9437 49.6793 49.8968 49.6333C49.878 49.6149 49.8404 49.4127 49.8216 49.192C49.7935 48.8243 49.8216 48.7783 50.0845 48.6312C50.2442 48.5392 50.554 48.4381 50.7888 48.4013C51.0141 48.3645 51.2489 48.3002 51.2958 48.2634C51.3522 48.2266 51.5775 48.1623 51.8122 48.1255C52.0376 48.0887 52.2911 48.0244 52.3756 47.9784C52.6855 47.8221 54.7324 47.3716 55.2207 47.3532C55.4273 47.3532 55.8122 47.4084 56.0845 47.4911V47.4911ZM37.2395 40.3198C37.2113 40.3473 36.9484 40.4301 36.6573 40.4944C36.3662 40.568 35.9061 40.6875 35.6338 40.7611C33.9813 41.2116 33.155 41.4414 33.0329 41.4874C32.9578 41.515 32.723 41.5793 32.5165 41.6253C32 41.7632 30.1878 42.2505 29.5587 42.4252C28.9202 42.6091 28.1315 42.8205 27.6338 42.9401C26.7888 43.1423 26.5446 43.317 26.9578 43.4457C27.0705 43.4733 27.3428 43.648 27.5587 43.8227C28.3005 44.4019 28.3099 45.3949 27.6057 46.4154C27.2864 46.8751 24.4413 50.6355 24.2254 50.8929C24.1784 50.9481 23.9719 51.2147 23.7747 51.4905C23.5775 51.7663 23.3709 52.033 23.3146 52.0881C23.2676 52.1433 23.155 52.2904 23.0798 52.4007C22.9578 52.5846 22.7136 52.9064 22.4977 53.1822C22.4507 53.2282 21.9437 53.8902 21.3615 54.6533C20.7888 55.4072 20.2723 56.014 20.216 55.9864C20.0752 55.9221 20.0939 47.5003 20.2348 47.0222C20.4132 46.443 20.9296 45.5236 21.3146 45.119C21.8404 44.5582 21.8029 44.4939 21.108 44.7237C20.8733 44.7973 20.4507 44.9168 20.169 44.9903C19.3803 45.2018 18.2911 45.496 17.7841 45.6431C17.5399 45.7167 17.2489 45.781 17.155 45.781C17.0611 45.781 16.9578 45.8178 16.9296 45.873C16.9014 45.9189 16.7982 45.9649 16.7043 45.9649C16.6104 45.9649 16.2442 46.0476 15.8874 46.158C15.5305 46.2591 15.0047 46.4062 14.723 46.4798C14.1409 46.6361 13.3146 46.8659 12.8921 46.9854C12.7418 47.0222 12.3756 47.1234 12.0939 47.1969C11.5305 47.344 10.5822 47.6014 10.2254 47.7026C10 47.7669 10 47.7761 10.3662 47.9876C11.2207 48.4841 11.5681 49.0081 11.7277 50.0103C11.8216 50.6355 12.0188 67.3778 11.9343 68.3524C11.8216 69.7131 11.3803 70.7705 10.554 71.6255C10.047 72.1496 10.0282 72.1312 11.0611 71.8553C11.3428 71.7818 11.8122 71.6531 12.0939 71.5795C12.3756 71.506 12.8451 71.3773 13.1268 71.2945C13.7371 71.1198 14.5259 70.9084 15.0517 70.7796C15.2582 70.7337 15.5118 70.6601 15.6151 70.6142C15.7183 70.5682 16.1878 70.4395 16.6479 70.3291C17.1174 70.2188 17.5775 70.0901 17.6808 70.0533C17.7841 70.0073 18.0564 69.9246 18.2911 69.8694C18.5259 69.8143 18.9484 69.7039 19.2301 69.6212C19.5118 69.5476 19.9437 69.4373 20.1878 69.3821C20.4226 69.3178 20.6573 69.2442 20.6949 69.1983C20.7324 69.1615 20.8263 69.1339 20.9108 69.1339C21.2207 69.1339 21.7653 68.9408 21.7653 68.8305C21.7653 68.7661 21.6151 68.6374 21.4273 68.5363C20.7418 68.1777 20.4038 67.5985 20.1784 66.4125C20.047 65.6861 20.0376 58.6895 20.169 58.6067C20.2254 58.5699 20.385 58.6711 20.5259 58.809C20.9672 59.2687 21.6902 60.0502 22.3756 60.8133C22.7324 61.2178 23.0705 61.5948 23.1268 61.65C23.2958 61.8246 24.4413 63.0842 25.2864 64.0312C25.7371 64.5369 26.1409 64.969 26.169 64.9966C26.1972 65.0242 26.3944 65.2264 26.5916 65.4563C27.6902 66.6975 28.1033 67.1112 28.2629 67.1112C28.3568 67.1112 28.7418 67.0285 29.1174 66.9181C29.8686 66.7067 30.5165 66.532 31.155 66.3757C31.3897 66.3113 31.662 66.2378 31.7653 66.1918C31.8686 66.1458 32.1409 66.0631 32.3756 66.0079C33.0329 65.8424 33.6902 65.6678 34.2536 65.5023C34.5352 65.4195 34.9578 65.3092 35.1925 65.2632C35.4273 65.208 35.6996 65.1345 35.8029 65.0885C35.9061 65.0517 36.1784 64.9598 36.4132 64.9046C37.0705 64.7392 37.7277 64.5645 38.2911 64.399C38.5728 64.3162 38.9953 64.2059 39.2301 64.1507L39.6526 64.0496L39.277 63.9669C39.0705 63.9209 38.8075 63.8657 38.7043 63.8473C38.2442 63.7554 37.2207 62.9371 35.8498 61.5856C31.0141 56.8139 27.3521 53.0995 27.324 52.9616C27.3052 52.8788 27.3897 52.7041 27.493 52.5846C27.6057 52.4559 27.7841 52.2536 27.8967 52.1249C28.0094 51.9962 28.3381 51.6009 28.6198 51.2515C28.9014 50.8929 29.155 50.5895 29.1831 50.5619C29.2113 50.5343 29.4085 50.3137 29.6057 50.0563C30.1409 49.4035 30.5352 48.9346 31.6057 47.6658C31.6902 47.5647 31.9343 47.2705 32.1409 47.0222C32.3381 46.7648 32.5352 46.5441 32.5634 46.5165C32.5916 46.489 32.8451 46.1764 33.1268 45.827C33.4085 45.4684 33.662 45.165 33.6902 45.1374C33.7183 45.1099 34.1033 44.6593 34.5446 44.1261C34.9766 43.5928 35.3521 43.1423 35.3803 43.1147C35.4085 43.0872 35.6057 42.8573 35.8029 42.6091C36.0094 42.3516 36.1972 42.131 36.2254 42.1034C36.2629 42.0666 36.8357 41.3679 37.5681 40.4761C37.7371 40.2646 37.7371 40.2646 37.5118 40.2646C37.3897 40.2646 37.2676 40.2922 37.2395 40.3198V40.3198ZM29.5399 43.3354C30.0376 43.6572 30.216 44.0341 30.216 44.8248C30.216 45.2018 30.1784 45.5788 30.1315 45.6707C30.0845 45.7534 29.9906 45.9649 29.9249 46.1396C29.8029 46.4522 29.155 47.4635 28.9296 47.6934C28.8639 47.7669 28.6761 48.0152 28.5071 48.245C28.3475 48.4841 28.1784 48.6955 28.1503 48.7231C28.1127 48.7507 27.9249 48.9989 27.7277 49.2748C27.5306 49.5506 27.2958 49.854 27.2019 49.9551C27.108 50.0471 26.9108 50.3045 26.77 50.5068C26.6198 50.7182 26.432 50.9665 26.3475 51.0584C26.2536 51.1595 26.0658 51.4078 25.9249 51.61C25.7747 51.8215 25.5869 52.0697 25.5024 52.1617C25.4085 52.2628 25.2207 52.5111 25.0798 52.7133C24.9296 52.9248 24.7418 53.173 24.6573 53.265C24.5634 53.3661 24.3756 53.6143 24.2348 53.8166C24.0845 54.0281 23.8967 54.2763 23.8122 54.3683C23.7183 54.4694 23.5306 54.7176 23.3897 54.9199C23.2395 55.1314 23.0517 55.3796 22.9672 55.4715C22.8733 55.5727 22.6855 55.8209 22.5446 56.0232C22.3944 56.2347 22.1878 56.5013 22.0658 56.63C21.6808 57.0529 21.6996 57.1357 22.4789 57.9907C22.8827 58.432 23.2582 58.8274 23.3052 58.8825C23.3615 58.9285 23.7183 59.3239 24.1033 59.756C24.4789 60.1881 24.9859 60.7397 25.2301 60.9972C25.4648 61.2454 25.9625 61.7879 26.3193 62.1924C26.6855 62.5969 27.0235 62.9739 27.0705 63.0291C27.1268 63.0842 27.4554 63.4428 27.8122 63.8381C28.5822 64.6748 29.1174 65.0793 29.8874 65.3919C30.1878 65.5206 30.4601 65.6586 30.4695 65.7045C30.4883 65.7505 30.2817 65.8424 30.0094 65.8976C29.7371 65.9528 29.2864 66.0539 29.0047 66.1183L28.5071 66.2286L28.2066 65.9068C28.047 65.7321 27.662 65.3 27.3521 64.9506C27.0423 64.6012 26.6855 64.2151 26.554 64.0772C26.4226 63.9485 26.0845 63.5715 25.8029 63.2497C25.1737 62.5326 25.1925 62.5418 24.723 62.0453C24.5165 61.8246 24.047 61.3098 23.6902 60.9052C23.324 60.5007 22.8639 59.9858 22.6573 59.7652C22.1503 59.2227 22.1784 59.2595 21.4367 58.432C21.0705 58.0275 20.6855 57.5954 20.5728 57.4759C20.3568 57.246 20.2911 56.9978 20.432 56.9978C20.4695 56.9978 20.6198 56.8231 20.7606 56.6024C20.9014 56.391 21.1268 56.0875 21.2582 55.9404C21.3897 55.7841 21.6338 55.4807 21.7935 55.2509C21.9531 55.021 22.1127 54.8188 22.1409 54.7912C22.1784 54.7636 22.3662 54.5154 22.5634 54.2395C22.9484 53.7063 22.939 53.7063 23.3615 53.2282C23.5118 53.0535 23.6432 52.8788 23.6432 52.8512C23.6432 52.8237 23.7465 52.6766 23.878 52.5295C24.0094 52.3823 24.2348 52.0973 24.3756 51.8951C24.5165 51.6928 24.7043 51.4446 24.7888 51.3526C24.8827 51.2515 25.0705 51.0032 25.2113 50.801C25.3521 50.5895 25.5024 50.4056 25.5306 50.378C25.5587 50.3505 25.9249 49.8724 26.3475 49.3207C26.77 48.7599 27.1456 48.2634 27.1925 48.2174C27.7653 47.5187 28.4695 46.5441 28.723 46.1028C29.0047 45.5971 29.0329 45.4868 29.0329 44.7053C29.0423 43.9606 29.0235 43.8411 28.8357 43.648C28.7137 43.5193 28.6198 43.3354 28.6198 43.2251C28.6198 43.0504 28.6573 43.032 28.9296 43.078C29.0892 43.1147 29.3709 43.2251 29.5399 43.3354V43.3354ZM12.6104 47.8589C13.0892 48.1715 13.277 48.4105 13.4742 48.953C13.6151 49.3483 13.6432 49.808 13.662 52.4467C13.6808 54.1108 13.7277 58.2665 13.7747 61.6775C13.8686 68.4811 13.8404 69.1247 13.3709 69.8602C12.9578 70.4946 12.2066 70.9727 11.9061 70.7888C11.8028 70.7245 11.8686 70.4211 11.9906 70.4211C12.0751 70.4211 12.3474 69.897 12.5165 69.3821C12.6479 68.996 12.6667 67.8927 12.6573 59.7376C12.6479 49.2104 12.6479 49.1828 12 48.2542C11.8028 47.9692 11.662 47.7026 11.6902 47.675C11.8216 47.5463 12.2817 47.6382 12.6104 47.8589V47.8589Z" fill="#DA1E1E"/>
</svg>
