<svg width="100" height="100" viewBox="0 0 100 100" fill="none" xmlns="http://www.w3.org/2000/svg">
<rect x="0.5" y="0.5" width="99" height="99" fill="white" stroke="#008B00"/>
<path d="M14.2055 43.5227L10 41.7069V58.7198H13.7276V49.448L19.3665 58.6238L19.6533 58.7194H22.5206L22.425 45.912L18.9842 44.9561V51.551L18.7934 51.1686L14.2055 43.5227ZM50.0471 46.2944H49.9515L46.3195 40.1775H41.8272L47.9446 49.2577V58.7198H51.9585L52.0541 49.2577L58.171 40.2735V40.1779H53.6787L53.4875 40.5603L50.0462 46.1993V46.2944H50.0471ZM74.0377 46.5812L71.4567 47.0591L69.6405 50.4999V47.2503H69.5454L66.7732 47.6322V58.7194H69.6405V54.3227L71.8395 58.6238L74.8024 58.7194L74.7068 58.4326L71.8395 52.6981L71.6484 52.2201L71.8395 51.8373L74.4196 46.4851H74.3245L74.0377 46.5812V46.5812ZM89.904 44.0963L88.5657 42.5668L81.8752 44.6693V58.7198H84.9332V52.7937L86.7495 52.6985V58.7198H90V52.2206L89.0436 50.7867L89.9044 49.2577V44.0963H89.904ZM84.9332 46.6768L86.7495 46.1988V49.2577L86.5592 49.3533L84.9332 49.544V46.6768V46.6768ZM80.7281 46.1032L80.6321 45.0522L74.8971 46.39V58.7194H80.9189V55.6605L80.6316 55.5653H78.1467V53.1756L80.7277 52.8888V49.7348L78.3384 50.1167H78.1467V48.3965L80.7277 47.6313V46.1032H80.7281ZM65.6266 49.1617L64.5756 48.0146L59.8921 48.4925L59.796 48.6837V58.7194H62.1862V54.6094H63.3324V58.7194H65.7217L65.6266 54.0359L65.0535 53.2707V53.1756L65.6266 52.4108V49.1617V49.1617ZM63.4276 50.2132L63.3324 52.3157L62.1862 52.4113V50.2132H63.4276Z" fill="#CC2229"/>
<path d="M58.9361 49.926L58.7449 49.7353L57.5973 48.6838L57.311 48.5882L54.8257 48.7793L54.3477 48.9701L53.1055 50.1172V57.0944L54.6349 58.6238L57.4066 58.7194L57.5022 58.6238L58.84 57.0944L58.9356 56.5213V49.926H58.9361ZM55.3041 50.9775H56.7379V56.712H55.3041V50.9775V50.9775ZM43.9301 48.8754L43.8345 48.9705L42.4967 53.5589L41.1589 48.5886L40.8717 48.493L38.2916 48.3023L36.3798 53.5593L35.3283 48.0155H35.2327L34.9464 47.9204L31.9836 47.4424L34.3733 58.7203L37.4318 58.6247L39.5343 52.9853L41.0638 58.6247L41.3501 58.7203H43.931L44.0266 58.5287L44.3134 58.0507L46.7983 49.0666L43.9301 48.8754V48.8754ZM31.2188 50.1176V47.3459L23.8593 46.1989V58.7199H31.8875V55.661H27.6824V53.8452H31.1232V51.5515L27.6824 51.2652V49.7357L31.2188 50.1176Z" fill="#CC2229"/>
</svg>
