<svg width="100" height="100" viewBox="0 0 100 100" fill="none" xmlns="http://www.w3.org/2000/svg">
<rect x="0.5" y="0.5" width="99" height="99" fill="white" stroke="#008B00"/>
<path d="M40.4402 10.0187C44.9504 9.87645 49.5109 10.5409 53.7357 12.1822C56.248 13.1578 58.6353 14.4736 60.7914 16.111C64.3828 18.8195 67.3063 22.4158 69.3232 26.4706C71.201 30.2098 72.317 34.3206 72.7658 38.4878C72.9797 40.5779 73.0691 42.6849 72.9548 44.7847C72.7978 48.1206 72.1778 51.435 71.1026 54.5916C69.4107 59.5636 66.5453 64.1374 62.7342 67.7051C59.0886 71.1442 54.581 73.6182 49.7644 74.8659C46.2324 75.7869 42.5497 76.074 38.9168 75.796C35.2259 75.5147 31.5738 74.6022 28.2021 73.0408C24.3061 71.2449 20.8003 68.5852 17.9891 65.3065C14.5414 61.3055 12.1408 56.4083 10.9411 51.2369C10.3543 48.7272 10.0568 46.1526 10 43.5754V42.2302C10.0524 40.0765 10.2375 37.9234 10.6206 35.8027C11.5336 30.6807 13.5543 25.7263 16.7128 21.6111C19.146 18.4174 22.2464 15.7551 25.7459 13.843C30.242 11.3703 35.3465 10.1492 40.4402 10.0187V10.0187ZM40.0827 19.4748C38.2305 19.6288 36.3955 20.0555 34.6819 20.7927C32.868 21.5649 31.1914 22.6626 29.7331 24.0038C27.9045 25.6763 26.4118 27.7099 25.2607 29.9163C23.5081 33.2814 22.5274 37.0381 22.2541 40.8286C22.097 43.0558 22.1903 45.2998 22.5076 47.5094C22.9207 50.3373 23.7085 53.1192 24.9459 55.6906C25.9955 57.8761 27.3772 59.9097 29.1093 61.5933C30.9405 63.393 33.1783 64.7622 35.6019 65.5578C37.8225 66.2898 40.1785 66.56 42.5057 66.458C44.6707 66.3535 46.8313 65.9099 48.8284 65.0408C51.842 63.7509 54.4099 61.5049 56.2749 58.7887C58.6819 55.295 60.0399 51.1362 60.5737 46.9261C61.2785 41.4313 60.5098 35.7034 58.1379 30.695C57.0755 28.4809 55.7028 26.4018 53.9745 24.6676C52.1184 22.7503 49.8314 21.2584 47.3286 20.3809C45.0104 19.5606 42.5248 19.293 40.0827 19.4748V19.4748ZM72.3393 63.6184C74.6168 62.4649 77.124 61.7686 79.6683 61.6472C80.9676 61.5679 82.2841 61.6667 83.5502 61.9849C84.8552 62.324 86.1181 62.9514 87.0611 63.9471C87.8592 64.7453 88.4051 65.7787 88.7231 66.8653C89.101 68.2098 89.1968 69.6374 89.0231 71.0241C88.8571 72.275 88.4447 73.4811 87.9039 74.6132C86.8875 76.6955 85.4688 78.5414 83.9531 80.2691C82.3212 82.1183 80.5628 83.8459 78.8064 85.5717C82.3454 85.56 85.8844 85.571 89.4235 85.5658C89.6156 85.5639 89.8117 85.5535 90 85.6055V89.9669C89.8927 89.9805 89.7868 89.9955 89.6814 90C83.6894 89.9994 77.6974 90 71.706 89.9994C71.7053 88.4334 71.7053 86.8674 71.706 85.3008C72.1152 84.8852 72.5526 84.5 72.9721 84.0947C74.7936 82.4034 76.589 80.6803 78.2809 78.8532C79.9084 77.0573 81.4937 75.1796 82.627 73.0122C83.1403 71.9944 83.5706 70.8864 83.563 69.7257C83.5579 68.8956 83.2635 68.0604 82.6998 67.4537C81.9674 66.6464 80.9018 66.2385 79.849 66.106C78.4278 65.9508 76.9925 66.2515 75.6696 66.7724C74.6487 67.1667 73.7012 67.7239 72.7741 68.3026C72.6292 66.7412 72.4785 65.1805 72.3393 63.6184V63.6184Z" fill="#000166"/>
</svg>
