<svg width="100" height="100" viewBox="0 0 100 100" fill="none" xmlns="http://www.w3.org/2000/svg">
<rect x="0.5" y="0.5" width="99" height="99" fill="white" stroke="#008B00"/>
<path d="M10.8834 56.4052V50.8882H13.1063C13.7507 50.8885 14.2964 50.8527 14.7432 50.7805C15.19 50.7083 15.5611 50.5978 15.8565 50.4487C16.4155 50.1605 16.8223 49.7484 17.0767 49.2121C17.331 48.6759 17.4563 48.0573 17.4525 47.3562C17.4483 46.6791 17.3357 46.0831 17.1141 45.5684C16.8927 45.0537 16.5874 44.6775 16.1987 44.4395C15.9524 44.2906 15.6289 44.1802 15.2278 44.1079C14.8267 44.0355 14.2858 43.9999 13.6052 44.0003H10V56.4049H10.8835L10.8834 56.4052ZM10.8834 49.8865V45.002H13.3059C13.9661 44.9924 14.4946 45.0159 14.8912 45.0722C15.2878 45.1286 15.6097 45.275 15.8566 45.5114C16.058 45.6984 16.2146 45.9481 16.3268 46.2602C16.4391 46.5726 16.496 46.9321 16.4979 47.3386C16.4973 47.8603 16.413 48.3062 16.2449 48.6762C16.0769 49.0462 15.8287 49.3207 15.5003 49.4998C15.2189 49.6466 14.8698 49.7485 14.453 49.8051C14.0362 49.8616 13.5731 49.8889 13.0636 49.8864H10.8834V49.8865ZM29.2975 56.4052L26.1199 50.8352C27.0491 50.7063 27.7556 50.349 28.2394 49.7635C28.7233 49.1778 28.9667 48.3988 28.9697 47.4266C28.9611 46.6736 28.8251 46.036 28.5619 45.5137C28.2985 44.9914 27.9596 44.6217 27.5448 44.4045C27.1959 44.2263 26.8071 44.1129 26.3782 44.064C25.9492 44.0152 25.4784 43.9943 24.9658 44.0003H21.8735V56.4049H22.7713V50.9582H25.1794L28.1861 56.4049H29.2975V56.4052ZM22.7712 49.957V45.0017H25.1081C25.5914 44.9944 26.0106 45.0178 26.3656 45.0719C26.7207 45.126 27.0188 45.2549 27.2599 45.4586C27.5157 45.6731 27.7057 45.9469 27.8299 46.28C27.9541 46.6131 28.0157 46.9836 28.0151 47.3916C28.0157 47.8021 27.9681 48.1578 27.8727 48.4587C27.7781 48.7578 27.6266 49.0245 27.4309 49.2362C27.2014 49.4892 26.891 49.673 26.4993 49.7875C26.1077 49.902 25.6441 49.9584 25.1083 49.9566H22.7712V49.957ZM35.0856 56.4052V44.0005H34.1878V56.4052H35.0856ZM49.7195 56.4052V44.0005H48.3801C47.7899 45.9689 47.2004 47.9376 46.6116 49.9067C46.2111 51.2462 45.913 52.2518 45.717 52.9236C45.5209 53.5954 45.3399 54.2287 45.1739 54.8238C44.9862 54.1586 44.7942 53.4953 44.598 52.8338C44.3939 52.1438 44.0857 51.1355 43.6739 49.809C43.2622 48.4825 42.6556 46.5463 41.8537 44.0003H40.5569V56.4049H41.4262C41.4266 53.59 41.4258 51.4384 41.424 49.9502C41.4222 48.4621 41.4172 47.379 41.4092 46.7009C41.4012 46.0229 41.3877 45.4917 41.3692 45.1072C41.5162 45.6629 41.6938 46.2931 41.9017 46.9977C42.1095 47.7024 42.4337 48.7675 42.8743 50.1924C43.3148 51.6173 43.9579 53.6884 44.8033 56.4051H45.5015C46.173 54.2175 46.7206 52.4274 47.1444 51.0351C47.5682 49.6428 47.9155 48.4904 48.1857 47.5784C48.4314 46.7512 48.6718 45.9216 48.9071 45.0898C48.893 45.5041 48.8817 46.0382 48.8733 46.692C48.8651 47.3459 48.859 48.4096 48.8554 49.8833C48.8518 51.3571 48.8499 53.531 48.8501 56.4051H49.7196L49.7195 56.4052ZM62.3164 56.4052L58.5118 44.0005H57.5713L53.653 56.4052H54.6504L55.7189 52.7858H60.2645L61.3188 56.4052H62.3164V56.4052ZM56.0182 51.8193C56.4587 50.3809 56.8062 49.2438 57.0609 48.4081C57.3156 47.5723 57.5135 46.918 57.6541 46.4454C57.7765 46.0358 57.8961 45.625 58.013 45.2129C58.1115 45.5724 58.2297 45.9859 58.3677 46.4534C58.5056 46.921 58.6998 47.5697 58.9502 48.4003C59.2006 49.2309 59.5438 50.3706 59.9794 51.8195H56.0181L56.0182 51.8193ZM73.9089 56.4052L70.7313 50.8354C71.6606 50.7065 72.367 50.3492 72.8508 49.7637C73.3348 49.178 73.5782 48.399 73.5811 47.4267C73.5725 46.6738 73.4365 46.0361 73.1732 45.5138C72.91 44.9915 72.5709 44.6218 72.1561 44.4046C71.8073 44.2265 71.4184 44.113 70.9896 44.0642C70.5606 44.0157 70.0898 43.9944 69.577 44.0005H66.4849V56.4051H67.3827V50.9582H69.7908L72.7973 56.4049H73.9089V56.4052ZM67.3827 49.957V45.0017H69.7197C70.203 44.9944 70.6222 45.0178 70.9773 45.0719C71.3323 45.126 71.6303 45.2549 71.8714 45.4586C72.1273 45.6731 72.3173 45.9469 72.4414 46.28C72.5656 46.6131 72.6272 46.9836 72.6266 47.3916C72.6272 47.8021 72.5799 48.1578 72.4842 48.4587C72.3896 48.7578 72.2381 49.0245 72.0424 49.2362C71.8131 49.4892 71.5025 49.673 71.1109 49.7875C70.7193 49.902 70.2557 49.9584 69.72 49.9566H67.3827V49.957ZM86.7165 56.4052L82.5699 48.8151L86.2747 44.0006H85.1348L79.7771 51.0815V44.0005H78.8793V56.4052H79.7771V52.4693L81.9573 49.6054L85.648 56.4052H86.7167H86.7165ZM90 45.1831C89.9921 44.792 89.8819 44.4676 89.6693 44.2099C89.4566 43.9523 89.1894 43.8187 88.8674 43.809C88.5381 43.8184 88.2664 43.9533 88.0521 44.2136C87.8379 44.4738 87.727 44.8035 87.7193 45.2017C87.727 45.6039 87.8395 45.9362 88.0567 46.1984C88.2741 46.4607 88.5505 46.5965 88.8859 46.606C89.2082 46.5969 89.4728 46.4604 89.6795 46.1961C89.8862 45.9322 89.9931 45.5942 90 45.1831V45.1831ZM89.834 45.221C89.8273 45.5652 89.7347 45.85 89.556 46.0763C89.3772 46.3022 89.1508 46.4195 88.8766 46.4278C88.5943 46.419 88.3602 46.2998 88.1745 46.0701C87.9888 45.8403 87.8924 45.5522 87.8855 45.2057C87.8918 44.8561 87.9863 44.5675 88.1691 44.3403C88.3518 44.113 88.5856 43.9955 88.8705 43.9873C89.153 43.9946 89.3827 44.112 89.5598 44.3393C89.7369 44.5669 89.8283 44.8607 89.8338 45.2208L89.834 45.221ZM89.4676 45.9952L89.0983 45.3349C89.2028 45.3036 89.2806 45.2465 89.3322 45.163C89.3836 45.0798 89.4092 44.9752 89.409 44.8491C89.4093 44.7587 89.3943 44.6778 89.3637 44.6057C89.333 44.5337 89.2857 44.4783 89.2214 44.4392C89.1754 44.4124 89.1265 44.394 89.0762 44.3846C89.0197 44.3728 88.9459 44.367 88.8551 44.367H88.3965V45.9952H88.6519V45.3766H88.8428L89.169 45.9953H89.4676V45.9952ZM88.655 45.0994V44.6439H88.8766C88.9133 44.6436 88.9455 44.6452 88.9728 44.6482C89.0002 44.6512 89.0246 44.6574 89.0459 44.6667C89.084 44.684 89.111 44.7093 89.127 44.7425C89.1431 44.7759 89.1509 44.8164 89.1505 44.864C89.1506 44.9096 89.1449 44.9485 89.1333 44.9808C89.1215 45.0132 89.1016 45.0401 89.0765 45.0577C89.0552 45.0728 89.0286 45.0834 88.997 45.09C88.9592 45.0969 88.9209 45.1001 88.8827 45.0994H88.6551H88.655Z" fill="#00AEDB"/>
</svg>
