<svg width="100" height="100" viewBox="0 0 100 100" fill="none" xmlns="http://www.w3.org/2000/svg">
<rect x="0.5" y="0.5" width="99" height="99" fill="white" stroke="#008B00"/>
<path d="M10 60.9192H90V35H10V60.9192Z" fill="#D22027"/>
<path d="M64.0901 49.3477H64.1477L65.9059 39.6671C66.1077 38.5725 66.5688 38.1691 67.8369 38.1691H69.6241C70.5751 38.1691 71.0941 38.5436 71.0941 39.3792C71.0941 39.5809 71.0653 39.7825 71.0076 40.0417L67.1165 56.2046C66.8572 57.2707 66.5113 57.7605 65.1565 57.7605H63.0236C61.8132 57.7605 61.4672 57.3282 61.2078 56.2336L58.7579 45.6886H58.7001L56.2502 56.2624C55.9907 57.3571 55.6449 57.7605 54.4345 57.7605H52.3016C50.9467 57.7605 50.6011 57.2996 50.3416 56.2336L46.4504 40.0417C46.3928 39.7825 46.364 39.5809 46.364 39.3792C46.364 38.5436 46.8828 38.1691 47.834 38.1691H49.9669C51.235 38.1691 51.6962 38.5725 51.898 39.6671L53.6561 49.3477H53.7139L55.962 39.6671C56.2215 38.5725 56.6826 38.1691 57.8933 38.1691H59.8819C61.0925 38.1691 61.5537 38.5725 61.8132 39.6671L64.0901 49.3477ZM14.8029 57.7605C13.7364 57.7605 13.2753 57.2996 13.2753 56.2336V39.7248C13.2753 38.63 13.7364 38.1691 14.8029 38.1691H20.4233C26.4762 38.1691 28.7821 40.474 28.7821 44.3635C28.7821 46.726 27.5137 48.7139 24.6603 49.6935L29.1566 55.8878C29.4161 56.2624 29.5314 56.5504 29.5314 56.8096C29.5314 57.4436 28.8109 57.7605 27.975 57.7605H24.6603C23.6803 57.7605 23.3056 57.3571 22.6139 56.2624L18.9245 50.356H18.8669V56.2335C18.8669 57.2996 18.4057 57.7605 17.3105 57.7605H14.8029ZM74.4088 57.7605C73.3422 57.7605 72.9388 57.3571 72.9388 56.2911V39.6671C72.9388 38.5725 73.3423 38.1691 74.4088 38.1691H84.3527C85.4479 38.1691 85.8513 38.5725 85.8513 39.6671V41.0789C85.8513 42.1449 85.4479 42.5483 84.3527 42.5483H78.6456V45.7752H83.4879C84.5833 45.7752 84.9866 46.1785 84.9866 47.2733V48.5699C84.9866 49.6357 84.5832 50.0392 83.4879 50.0392H78.6456V53.3813H85.2174C86.3127 53.3813 86.716 53.7846 86.716 54.8794V56.2911C86.716 57.3571 86.3127 57.7605 85.2174 57.7605H74.4088ZM33.3649 57.7605C32.2985 57.7605 31.8372 57.2996 31.8372 56.2336V39.7248C31.8372 38.63 32.2985 38.1691 33.3649 38.1691H43.1936C44.2887 38.1691 44.75 38.63 44.75 39.7248V41.0214C44.75 42.0875 44.2887 42.5483 43.1936 42.5483H37.5441V45.7752H42.3288C43.4241 45.7752 43.8851 46.2361 43.8851 47.331V48.5123C43.8851 49.5782 43.424 50.0392 42.3288 50.0392H37.5443V53.3813H44.0582C45.1535 53.3813 45.6147 53.8422 45.6147 54.937V56.2336C45.6147 57.2996 45.1535 57.7605 44.0582 57.7605H33.3649ZM20.481 46.9855C22.1815 46.9855 22.9022 46.2652 22.9022 44.7092C22.9022 43.1535 22.1816 42.4333 20.481 42.4333H18.8669V46.9855H20.481Z" fill="white"/>
</svg>
