<svg width="100" height="100" viewBox="0 0 100 100" fill="none" xmlns="http://www.w3.org/2000/svg">
<rect x="0.5" y="0.5" width="99" height="99" fill="white" stroke="#008B00"/>
<g clip-path="url(#clip0_21_3966)">
<path d="M33.9466 41.9386C33.9466 35.8973 41.1676 31.0003 50.0751 31.0003C58.9825 31.0003 66.2037 35.8973 66.2037 41.9386C66.2037 47.9797 58.9825 52.8768 50.0751 52.8768C41.1676 52.8768 33.9466 47.9797 33.9466 41.9386Z" fill="#A1D733"/>
<path d="M52.9281 32.6319C52.5144 34.208 52.0419 36.1057 51.5876 37.9707C51.2686 37.9101 50.9387 37.8685 50.6006 37.8483L50.9852 32.474C51.6455 32.4992 52.2941 32.5523 52.9281 32.6319Z" fill="#231F20"/>
<path d="M56.5329 33.4092C55.5211 34.9155 54.3774 36.7502 53.3626 38.5539C53.0694 38.4096 52.7562 38.2846 52.4268 38.1807C53.1229 36.3394 53.9009 34.4678 54.5766 32.9036C55.251 33.0427 55.9046 33.2119 56.5329 33.4092Z" fill="#231F20"/>
<path d="M60.5259 35.2506C58.7177 36.436 56.6399 38.0332 54.8896 39.6567C54.6819 39.4351 54.4447 39.2292 54.1816 39.041C55.5352 37.2986 57.101 35.5394 58.517 34.1617C59.2364 34.4859 59.9088 34.8506 60.5259 35.2506Z" fill="#231F20"/>
<path d="M63.6793 38.2919C61.6214 38.7722 58.3249 39.9069 55.7844 41.2738C55.7163 40.9763 55.6038 40.6892 55.451 40.4166C57.5973 38.9376 60.1716 37.582 62.303 36.6447C62.8414 37.16 63.3042 37.711 63.6793 38.2919Z" fill="#231F20"/>
<path d="M60.3729 46.0918C61.3952 45.7283 62.5498 45.4944 63.7802 45.4251C63.3979 46.0485 62.9157 46.6395 62.3468 47.1898C61.7293 46.793 61.0695 46.4259 60.3729 46.0918Z" fill="#231F20"/>
<path d="M53.2888 44.0729C55.8594 42.0645 59.9553 40.4558 64.508 40.0303C64.6518 40.4821 64.745 40.9464 64.7845 41.4195C61.1241 41.7191 57.6855 42.7553 55.2873 44.4009C54.6367 44.2665 53.9694 44.1565 53.2888 44.0729Z" fill="#231F20"/>
<path d="M64.7445 42.8136C64.6821 43.25 64.5748 43.6779 64.4238 44.0952C62.3095 44.2009 60.3654 44.6713 58.7613 45.403C58.2233 45.1995 57.6671 45.0142 57.0962 44.8485C59.1513 43.6976 61.8102 42.9513 64.7445 42.8136Z" fill="#231F20"/>
<path d="M45.7185 50.9967C46.9941 50.4831 48.4838 50.188 50.075 50.188C51.6661 50.188 53.1558 50.4831 54.4314 50.9967C53.055 51.2714 51.5915 51.4201 50.075 51.4201C48.5581 51.4201 47.095 51.2714 45.7185 50.9967Z" fill="#231F20"/>
<path d="M41.8959 49.8047C44.0698 48.476 46.9482 47.667 50.1053 47.667C53.2625 47.667 56.1411 48.476 58.315 49.8047C57.7325 50.058 57.1199 50.2855 56.4824 50.484C54.7269 49.5468 52.5125 48.9878 50.1053 48.9878C47.6984 48.9878 45.4841 49.5468 43.7288 50.484C43.0908 50.2855 42.4787 50.058 41.8959 49.8047Z" fill="#231F20"/>
<path d="M38.916 48.088C41.8132 46.2046 45.7449 45.0474 50.0751 45.0474C54.4218 45.0474 58.3664 46.2131 61.2667 48.1094C60.8004 48.4601 60.2946 48.7885 59.7543 49.092C57.2354 47.4653 53.8274 46.4666 50.0751 46.4666C46.3366 46.4666 42.9398 47.4576 40.4246 49.0736C39.8855 48.7692 39.381 48.4397 38.916 48.088Z" fill="#231F20"/>
<path d="M47.2217 32.6319C47.6358 34.208 48.1078 36.1057 48.5626 37.9707C48.8814 37.9101 49.2112 37.8685 49.5496 37.8483L49.1645 32.474C48.5043 32.4992 47.8559 32.5523 47.2217 32.6319Z" fill="#231F20"/>
<path d="M43.6172 33.4092C44.6287 34.9155 45.7724 36.7502 46.7872 38.5539C47.0808 38.4096 47.3941 38.2846 47.7237 38.1807C47.0269 36.3394 46.2491 34.4678 45.5737 32.9036C44.899 33.0427 44.2454 33.2119 43.6172 33.4092Z" fill="#231F20"/>
<path d="M39.6244 35.2506C41.4321 36.436 43.5103 38.0332 45.2604 39.6567C45.4684 39.4351 45.7056 39.2292 45.9682 39.041C44.6148 37.2986 43.049 35.5394 41.6331 34.1617C40.9139 34.4859 40.2417 34.8506 39.6244 35.2506Z" fill="#231F20"/>
<path d="M36.4707 38.2919C39.0639 38.8972 41.9481 39.9732 44.3656 41.2738C44.4335 40.9763 44.5462 40.6892 44.699 40.4166C42.5525 38.9376 39.9784 37.582 37.847 36.6447C37.3081 37.16 36.8461 37.711 36.4707 38.2919Z" fill="#231F20"/>
<path d="M39.7774 46.0918C38.7551 45.7283 37.6005 45.4944 36.3698 45.4251C36.7522 46.0485 37.2341 46.6395 37.8027 47.1898C38.4208 46.793 39.0808 46.4259 39.7774 46.0918Z" fill="#231F20"/>
<path d="M46.861 44.0729C44.2906 42.0645 40.1948 40.4558 35.642 40.0303C35.4987 40.4821 35.4053 40.9464 35.3655 41.4195C39.026 41.7191 42.4648 42.7553 44.8625 44.4009C45.5139 44.2665 46.1806 44.1565 46.861 44.0729Z" fill="#231F20"/>
<path d="M35.4058 42.8136C35.4679 43.25 35.5755 43.6779 35.726 44.0952C37.8405 44.2009 39.7846 44.6713 41.3887 45.403C41.927 45.1995 42.4827 45.0142 43.0535 44.8485C40.9989 43.6976 38.3401 42.9513 35.4058 42.8136Z" fill="#231F20"/>
<path fill-rule="evenodd" clip-rule="evenodd" d="M75.4166 57.8921C75.6884 58.3441 75.591 59.188 75.2644 59.5903C74.5571 60.5957 73.2658 60.9642 72.1604 61.3177V57.1646C73.0984 57.1213 75.0515 56.9921 75.4166 57.8921ZM73.2698 55.3228C75.3657 55.3228 76.9091 55.4817 77.7088 57.2797C78.3075 58.5359 77.9828 59.9804 77.1116 60.9355C76.7308 61.4379 76.3099 61.7399 75.7657 62.0914L75.51 62.3092C76.5981 63.5659 77.5185 65.3473 78.2262 66.7543C79.6854 61.6219 81.4412 55.2361 82.613 51.3071C82.6364 51.2296 82.6282 51.1343 82.5675 51.0047H85.3364C85.3364 51.0047 88.5062 62.6119 89.8099 67.4121C89.8322 67.4936 89.8904 67.5635 89.9992 67.6139H86.8279C87.1776 67.3545 86.919 66.7501 85.8623 62.8392C83.9033 63.3918 81.8218 63.9292 80.8552 65.8544C80.6918 66.357 80.5213 67.1108 80.848 67.6139H75.6129C76.1301 67.0958 75.3699 65.935 74.8483 65.1957C74.3005 64.4187 73.9413 63.8047 73.2882 63.2014C72.7638 63.3535 72.5812 63.4111 72.1276 63.5227C72.1276 63.5227 72.1331 67.2633 72.1331 67.3178C72.1331 67.4487 72.2451 67.62 72.384 67.62H69.4122C69.5503 67.62 69.6551 67.4487 69.6551 67.3178V55.6396C69.6551 55.5082 69.5274 55.3305 69.3893 55.3305L73.2698 55.3228ZM85.3496 60.8028C84.261 61.0039 83.0385 61.5117 82.0044 61.8134L83.952 54.9626C83.952 54.9626 84.9715 59.007 85.3496 60.8028Z" fill="#231F20"/>
<path d="M29.2552 67.614C29.2504 67.614 29.2552 65.4571 29.2552 65.4571C29.2552 65.5882 29.0664 65.6942 28.9278 65.6942L25.7792 65.6928C25.7792 65.6928 25.7792 55.7499 25.7792 55.619C25.7792 55.4881 25.8914 55.3163 26.0298 55.3163H23.0583C23.1967 55.3163 23.3014 55.4881 23.3014 55.619V67.2972C23.3014 67.4281 23.1739 67.6057 23.0355 67.6057C23.0355 67.6057 29.2504 67.614 29.2552 67.614Z" fill="#231F20"/>
<path fill-rule="evenodd" clip-rule="evenodd" d="M17.6229 51.0047C17.6229 51.0047 20.7925 62.6119 22.0963 67.4122C22.1185 67.4937 22.1764 67.5635 22.2854 67.614H19.1141C19.464 67.3546 19.2054 66.7502 18.1487 62.8392C16.1892 63.3919 14.1082 63.9293 13.1412 65.8545C12.978 66.357 12.8078 67.1109 13.1343 67.614H10C10 67.614 10.3499 67.2972 10.4743 66.8595C11.9338 61.7273 13.7278 55.2361 14.8993 51.3072C14.9224 51.2296 14.9146 51.1344 14.8537 51.0047H17.6229ZM17.6358 60.7741C16.5471 60.9754 15.3249 61.4828 14.2908 61.7848C14.4582 61.1945 16.2383 54.934 16.2383 54.934C16.2383 54.934 17.2578 58.9785 17.6358 60.7741Z" fill="#231F20"/>
<path d="M30.2212 55.1786C30.6138 55.1786 31.3274 55.3872 31.5452 55.4375C33.797 56.1861 35.2138 57.6722 36.901 59.3814C36.901 59.3814 36.8933 55.7499 36.8933 55.619C36.8933 55.4881 36.7813 55.3163 36.6426 55.3163H39.4875C39.3491 55.3163 39.2443 55.4881 39.2443 55.619V67.2972C39.2443 67.4281 39.372 67.6057 39.5104 67.6057C39.5104 67.6057 36.5863 67.614 36.5813 67.614C36.9467 67.5129 36.8493 67.2543 36.8493 64.9738C36.8493 62.4609 34.7029 60.2772 32.5801 58.7191V67.3111C32.5801 67.4417 32.6848 67.614 32.8232 67.614H29.9627C30.1012 67.614 30.2134 67.4417 30.2134 67.3111C30.2134 67.1802 30.2212 55.1786 30.2212 55.1786Z" fill="#231F20"/>
<path fill-rule="evenodd" clip-rule="evenodd" d="M47.2376 55.3229C48.6262 59.1216 49.5151 63.2551 50.9407 67.1473C51.0205 67.3701 51.023 67.5111 51.2431 67.614C50.226 67.614 49.2952 67.614 48.1721 67.614C48.7455 67.4335 48.0897 66.2897 47.4025 63.749C46.9904 63.8529 46.6324 63.9342 46.197 64.0351C44.823 64.321 43.5074 65.0191 42.9852 66.111C42.7656 66.6275 42.6004 67.2772 42.8751 67.614H39.9145C40.1068 67.5111 40.115 67.4098 40.1619 67.2772C41.483 63.569 42.7959 59.5243 44.0571 55.7392C44.1436 55.567 44.1284 55.3802 44.0022 55.2361L47.2376 55.3229ZM46.8518 62.024C45.9809 62.1747 44.8779 62.5532 44.0571 62.8392C44.6031 61.309 45.6475 58.1699 45.6475 58.1699L46.8518 62.024Z" fill="#231F20"/>
<path d="M57.7876 55.3163C57.7826 55.3163 57.7836 57.5719 57.7836 57.5719C57.7836 57.4405 57.5948 57.3345 57.4567 57.3345L54.7336 57.336L54.7346 67.3111C54.7346 67.4417 54.8389 67.614 54.9773 67.614H52.006C52.1446 67.614 52.2569 67.4417 52.2569 67.3111C52.2569 67.1802 52.2569 57.336 52.2569 57.336L49.5335 57.3345C49.3951 57.3345 49.2061 57.4405 49.2061 57.5719C49.2061 57.5719 49.2147 55.3163 49.2098 55.3163H57.7876Z" fill="#231F20"/>
<path d="M58.4123 63.4111L58.4076 55.6189C58.4076 55.488 58.303 55.3162 58.1644 55.3162H61.1357C60.9974 55.3162 60.8853 55.488 60.8853 55.6189C60.8853 55.7161 60.8831 60.959 60.8831 63.7661C60.8831 64.98 61.9227 65.9634 63.206 65.9634C64.4889 65.9634 65.529 64.98 65.529 63.7661C65.529 60.959 65.529 55.7444 65.529 55.6473C65.529 55.5162 65.4162 55.3449 65.2778 55.3449H68.2496C68.1113 55.3449 68.0064 55.5162 68.0064 55.6473L68.0161 63.4536C68.0161 66.7543 65.8604 68 63.206 68C60.5517 68 58.4123 66.7121 58.4123 63.4111Z" fill="#231F20"/>
</g>
<defs>
<clipPath id="clip0_21_3966">
<rect width="80" height="37" fill="white" transform="translate(10 31)"/>
</clipPath>
</defs>
</svg>
