<svg width="100" height="100" viewBox="0 0 100 100" fill="none" xmlns="http://www.w3.org/2000/svg">
<rect x="0.5" y="0.5" width="99" height="99" fill="white" stroke="#008B00"/>
<path fill-rule="evenodd" clip-rule="evenodd" d="M10 10H90V90H10V10Z" fill="white"/>
<path fill-rule="evenodd" clip-rule="evenodd" d="M54.1515 53.1642L55.9171 53.2597L54.6089 51.4958C54.3811 51.2111 54.0968 50.7562 53.6988 50.073L52.9587 48.3092H52.3906V50.073C52.3906 50.8126 52.5039 51.2111 52.6744 51.2111H53.3576V51.6664H49.8867V51.2111H50.3988C50.4557 51.2111 50.5121 51.1538 50.5121 51.0973V45.4077C50.5121 45.0665 50.4553 44.8387 50.3988 44.7818C50.3208 44.7107 50.2197 44.6703 50.1141 44.6681H49.6024V44.2128H53.3576C53.8689 44.2128 54.3815 44.3265 54.7795 44.4975C55.5764 44.8959 55.9744 45.5218 55.9744 46.4888C55.9744 46.7731 55.8611 47.001 55.6897 47.2853C55.4058 47.6833 54.9505 47.9111 54.4379 47.968C54.6658 48.3664 55.8038 50.1872 57.9088 53.373L59.615 53.4302L58.3633 51.9511C57.6241 50.9836 57.2261 50.244 57.1684 49.846C57.1116 49.2202 57.2826 48.7649 57.5673 48.3669C57.9084 47.9684 58.4202 47.7978 59.0464 47.7978C59.9002 47.7978 60.4683 48.5374 60.7526 50.0735C60.2978 48.9354 59.5578 48.5374 58.5907 48.9354C58.306 49.0492 58.0786 49.2202 58.0217 49.3907L57.9649 49.7323C57.9649 50.1307 58.1359 50.4719 58.5339 50.7566C58.9319 51.0978 59.444 51.2683 60.0699 51.2683C60.6958 51.2683 61.2079 51.0978 61.6059 50.8131C62.004 50.415 62.2318 49.9597 62.2318 49.3907C62.2318 48.9927 62.1185 48.6511 61.8338 48.3669C61.5214 48.1289 61.1763 47.9372 60.8091 47.7978L59.5009 47.3425C58.9896 47.1151 58.5907 46.8873 58.306 46.6598C57.6233 46.1477 57.2821 45.4081 57.2821 44.5548C57.2821 43.5873 57.737 42.7909 58.5903 42.2792C59.3303 41.767 60.1832 41.5396 61.2079 41.5396C62.0617 41.5396 62.744 41.6533 63.313 41.8239L63.4263 43.1897C63.4831 43.4172 63.3694 43.5313 63.1984 43.5313C63.0283 43.5313 62.9145 43.4176 62.8573 43.1897C62.8004 42.905 62.5726 42.6207 62.2314 42.4501C61.9467 42.2796 61.5487 42.2227 61.1507 42.2227C60.6385 42.2227 60.2405 42.3364 59.8989 42.5639C59.5001 42.8486 59.2722 43.247 59.2722 43.7587C59.2722 44.1003 59.3864 44.3846 59.6711 44.6125C59.8412 44.783 60.1824 44.9536 60.6381 45.1242L61.9463 45.6364C62.4584 45.8069 62.9141 46.0916 63.3121 46.3759C63.6033 46.6703 63.8351 47.0179 63.9949 47.3998C64.1659 47.7983 64.2796 48.1963 64.2796 48.5947C64.2796 49.9033 63.8247 50.8139 62.9145 51.326C62.1177 51.724 60.8659 51.9519 59.2158 51.9519C59.1025 51.9519 59.1589 52.1225 59.3868 52.4072C59.5569 52.7483 59.8416 53.0903 60.2405 53.4315L64.7353 53.6589L68.4901 54.1142C68.4332 54.2852 66.1572 54.4558 61.6624 54.6264C62.2891 55.0244 62.9714 55.2522 63.5973 55.4228C64.7922 55.6503 65.8725 55.6503 66.7831 55.4228C67.3521 55.2522 68.0921 54.9107 69.0027 54.3985C70.0265 53.8295 70.8234 53.4315 71.4493 53.2036C72.5873 52.8056 73.8959 52.6346 75.3751 52.6346C76.5131 52.6346 77.4237 52.8056 78.106 53.2036C78.675 53.5448 79.0161 53.9432 79.1307 54.4558C79.244 54.9675 79.1307 55.3655 78.846 55.764C78.504 56.1624 77.9923 56.333 77.3668 56.333C78.4476 54.7969 77.537 53.8295 74.6359 53.4883C73.7822 53.4315 72.9289 53.4884 72.132 53.6589C71.5061 53.7726 70.8803 54.0005 70.1411 54.3985L68.3203 55.2522C67.5803 55.5934 66.9545 55.8212 66.3855 55.8781C65.1906 56.0487 63.9388 55.935 62.7444 55.537C62.0617 55.2522 61.4362 54.9679 60.9236 54.6268L58.7617 54.6836L63.1988 61.4541L59.8421 58.2114C59.6719 58.2114 58.7613 57.1303 57.1111 54.9111L56.9978 54.7405L54.8359 54.8517V54.9115C54.8359 54.9152 54.8293 54.9634 54.8285 54.9667L54.8276 54.97C54.7895 55.1168 54.7305 55.2574 54.6525 55.3875L54.6533 55.388C54.4578 55.7092 54.1428 55.9611 53.7315 56.1437L53.7249 56.147C53.5647 56.217 53.398 56.271 53.2273 56.3085C52.7609 56.4099 52.2769 56.3964 51.817 56.2691L51.8145 56.2682C51.632 56.218 51.4539 56.1529 51.282 56.0736C50.8776 55.8896 50.5172 55.6213 50.2249 55.2867H50.2253C50.0041 55.0331 49.8605 54.7766 49.7879 54.5176C49.7142 54.2567 49.711 53.9808 49.7788 53.7183L49.7796 53.715C49.8166 53.5678 49.8758 53.4272 49.9552 53.2978L49.9547 53.2974C50.1502 52.9762 50.4648 52.7239 50.8757 52.5417L50.896 52.5334L50.9035 52.5309C50.9774 52.5068 51.0558 52.484 51.1409 52.4628V52.4624C51.2218 52.4421 51.3053 52.4246 51.3908 52.4101C51.8531 52.3295 52.3275 52.3501 52.7811 52.4707C52.9003 52.4892 53.0182 52.5155 53.1339 52.5495C53.4402 52.6421 53.7299 52.7898 53.9552 52.97L53.9731 52.987L54.1515 53.1642V53.1642ZM54.3811 54.8837V54.7388L54.3836 54.7069C54.4082 54.5408 54.3942 54.3712 54.3429 54.2113C54.2885 54.0428 54.1914 53.8718 54.0436 53.6988L53.666 53.3211C53.4679 53.1683 53.2429 53.0539 53.0027 52.9841C52.9538 52.9692 52.9044 52.9559 52.8546 52.9442H52.8537C52.8045 52.9331 52.7548 52.9241 52.7047 52.9173L52.6989 52.9164L52.6715 52.9106C52.2068 52.7862 51.7179 52.7832 51.2517 52.9019H51.2509C51.1853 52.9185 51.1172 52.9384 51.0484 52.9613C50.7296 53.1049 50.4889 53.2958 50.3449 53.5323H50.344C50.3167 53.578 50.2922 53.6257 50.2718 53.673C50.2518 53.7222 50.2351 53.7727 50.222 53.8241L50.2212 53.8274C50.1735 54.0171 50.1735 54.2059 50.2262 54.3935C50.2814 54.5894 50.3943 54.7874 50.5694 54.9887L50.5719 54.9904C50.8212 55.2752 51.1286 55.5035 51.4733 55.6598C51.6225 55.7283 51.777 55.7846 51.9353 55.8279L51.9378 55.8287C52.327 55.9373 52.7367 55.9497 53.1318 55.8648C53.2729 55.8325 53.4108 55.7872 53.5435 55.7295L53.551 55.7262C53.8751 55.5822 54.12 55.3896 54.2653 55.1497H54.2661C54.3177 55.0674 54.3564 54.9777 54.3811 54.8837V54.8837ZM53.6983 47.5131C53.4705 47.7406 53.1293 47.8547 52.6736 47.8547H52.3897V44.8959C52.3897 44.8391 52.4466 44.7822 52.6168 44.7822C53.0156 44.7822 53.4136 44.9528 53.6979 45.2944C53.9822 45.6359 54.0959 46.034 54.0959 46.4324C54.0964 46.8873 53.983 47.2288 53.6983 47.5131V47.5131ZM72.0191 44.2132V44.6685H71.6211L71.4501 44.7258L71.3932 44.8964V50.0739C71.3932 50.8135 71.5065 51.2119 71.678 51.2119H72.3038V51.6672H68.8902V51.2119H69.4015C69.4584 51.2119 69.5148 51.1546 69.5148 51.0982V47.912H67.0117V50.0739C67.0117 50.8135 67.1259 51.2119 67.2965 51.2119H67.9792V51.6672H64.5091V51.2119H65.0213C65.0781 51.2119 65.1346 51.1546 65.1346 51.0982V45.4077C65.1346 45.0665 65.0777 44.8387 65.0213 44.7818C64.9636 44.7249 64.9071 44.6681 64.7934 44.6681H64.2244V44.2128H67.6953V44.6681H67.2396L67.0686 44.7254L67.0117 44.8959V47.399H69.5148V45.4077C69.5148 45.0665 69.4579 44.8387 69.4015 44.7818C69.3446 44.7249 69.2882 44.6681 69.1737 44.6681H68.6046V44.2128H72.0191V44.2132V44.2132ZM73.2704 50.9268C74.0096 51.5526 74.921 51.8942 76.0582 51.8942C77.4809 51.8942 78.5621 51.3821 79.3013 50.415C79.9271 49.6754 80.2114 48.7649 80.2114 47.7406C80.2114 46.6025 79.8703 45.6924 79.1307 45.0097C78.3907 44.3269 77.4801 43.9854 76.3421 43.9854C74.9202 43.9854 73.839 44.4975 73.099 45.4649C72.4732 46.2614 72.1889 47.1716 72.1889 48.139C72.1893 49.3339 72.5313 50.244 73.2704 50.9268ZM80.0417 44.2132V44.6685H80.6099C80.724 44.6685 80.7809 44.7258 80.8377 44.7822C80.8946 44.8391 80.9519 45.0669 80.9519 45.4081V51.0978C80.9519 51.1546 80.8942 51.2115 80.8377 51.2115H80.3264V51.6668H83.7965V51.2115H83.1138C82.9428 51.2115 82.829 50.8131 82.829 50.0735V48.1959L83.7961 48.3096C84.6498 48.3096 85.3321 48.0821 85.8447 47.6268C86.2427 47.2288 86.4705 46.7731 86.4705 46.2614C86.4705 45.7492 86.2995 45.3512 85.9015 44.9528C85.4467 44.4411 84.7635 44.2132 83.8529 44.2132H80.0417V44.2132ZM75.888 44.4975C76.7418 44.4975 77.4241 45.0097 77.8221 46.0908C78.1633 46.8873 78.3342 47.7974 78.3342 48.7649C78.3342 49.5045 78.2209 50.0735 77.9931 50.5288C77.6519 51.0978 77.1394 51.3825 76.5139 51.3825C75.6602 51.3825 74.9779 50.8707 74.5222 49.8464C74.2375 49.05 74.0673 48.1394 74.0673 47.1155C74.0673 46.4324 74.1806 45.8634 74.4085 45.4085C74.6932 44.7822 75.2045 44.4975 75.888 44.4975V44.4975ZM84.1945 45.2944C84.4792 45.6359 84.5934 46.034 84.5934 46.4892C84.5934 46.8873 84.4792 47.172 84.2522 47.3994C83.9675 47.6841 83.6832 47.7978 83.2843 47.7978L82.8295 47.6841V44.8959C82.8295 44.8391 82.9428 44.7822 83.1142 44.7822C83.5686 44.7822 83.9098 44.9528 84.1945 45.2944V45.2944ZM56.9983 54.0561L57.1116 53.7714L57.3963 53.6577C57.5104 53.6577 57.6241 53.715 57.681 53.7714L57.7951 54.0561C57.7951 54.1694 57.7374 54.284 57.681 54.3408C57.6245 54.3977 57.5108 54.4545 57.3963 54.4545L57.1116 54.3408C57.0407 54.2627 57.0005 54.1616 56.9983 54.0561ZM14.2694 42.3925C14.44 42.3925 14.5537 42.4493 14.6106 42.5062C14.7243 42.6768 14.7812 42.9615 14.7812 43.3595V50.9268C14.7812 50.9836 14.6674 51.0405 14.4964 51.0405L13.7569 51.0973V51.6664H17.2278L18.8207 51.6095C19.4465 51.5522 19.9587 51.4385 20.3567 51.2679C20.9257 51.0973 21.381 50.8126 21.7222 50.4146C22.0589 49.9736 22.2391 49.433 22.2343 48.8782C22.2343 47.4559 21.3241 46.5453 19.503 46.1468C20.1861 45.9763 20.6979 45.7488 20.9822 45.521C21.4943 45.1225 21.7786 44.6108 21.7786 43.9845C21.7786 43.5865 21.608 43.1881 21.3233 42.7896C20.7543 42.1642 19.8441 41.8222 18.5355 41.8222H13.5294V42.3912H14.2694V42.3925V42.3925ZM25.0225 44.2701L23.6002 47.5127C22.7465 49.5613 22.2916 50.7558 22.1774 51.0405C22.1774 51.0973 22.1206 51.1538 22.0637 51.2111H21.4951V51.6664H23.828V51.2111H22.9743L22.9175 51.0405C22.9175 50.8699 23.0312 50.4715 23.2022 49.9597L23.5433 49.106H25.7625C26.2178 50.4146 26.4456 51.0405 26.4456 51.0973C26.4456 51.1542 26.3888 51.2111 26.2747 51.2111H25.7625V51.6664H29.1766V51.2111H28.835C28.6644 51.2111 28.5503 51.1538 28.4934 50.9832L28.0954 50.1299L26.8432 46.83C26.3315 45.5214 26.1037 44.7814 26.1037 44.6677L26.2742 44.4402C26.3311 44.3834 26.388 44.3265 26.388 44.2697C26.388 44.1559 26.3311 44.0987 26.217 44.0987L25.0225 44.2701V44.2701ZM17.6262 42.5062C18.1952 42.5062 18.6505 42.6768 19.0485 43.0752C19.4465 43.4732 19.6175 43.9854 19.6175 44.5544C19.6175 44.8959 19.5607 45.1802 19.447 45.4077C19.2764 45.6924 19.0489 45.9198 18.7642 45.9767L17.2282 45.863V42.6768C17.2278 42.563 17.3415 42.5062 17.6262 42.5062V42.5062ZM17.2278 48.5374V46.4324C18.1952 46.4324 18.8779 46.7171 19.3328 47.3425C19.6744 47.7978 19.845 48.31 19.845 48.879C19.845 49.448 19.674 49.9602 19.3328 50.3582C18.9348 50.7566 18.4795 50.984 17.9105 50.984L17.5689 50.9272C17.4673 50.8826 17.3861 50.8014 17.3415 50.6997C17.2846 50.415 17.2278 49.7319 17.2278 48.5374V48.5374ZM23.7139 48.5939L24.7378 46.2614L25.5915 48.5939H23.7139ZM30.0294 45.4077V51.0973C30.0274 51.1268 30.0148 51.1546 29.9939 51.1755C29.973 51.1964 29.9452 51.209 29.9157 51.2111H29.404V51.6664H32.8745V51.2111H32.1918C32.0212 51.2111 31.9071 50.8126 31.9071 50.073V48.3092H32.4761L33.2725 50.073C33.6141 50.7562 33.8984 51.2111 34.1827 51.4958C34.2395 51.5526 34.2964 51.6095 34.4105 51.6664H36.6293V51.2111C36.4019 51.2111 36.174 51.0973 36.0034 50.9264C35.3776 50.3005 34.7517 49.2762 34.0121 47.9676C34.5238 47.9107 34.9223 47.6833 35.207 47.2849C35.4344 47.0001 35.5481 46.7727 35.5481 46.4884C35.5481 45.521 35.1501 44.8955 34.2964 44.4971C33.8655 44.31 33.4008 44.2131 32.9309 44.2124H29.1189V44.6677H29.6879C29.8016 44.6677 29.8589 44.7249 29.9153 44.7814C29.9726 44.8391 30.0294 45.0665 30.0294 45.4077V45.4077ZM32.1914 44.7822C32.5894 44.7822 32.9309 44.9528 33.2157 45.2944C33.4999 45.6359 33.6137 46.034 33.6137 46.4324C33.6137 46.8877 33.5 47.2288 33.2721 47.5131C32.9874 47.7406 32.6462 47.8547 32.2478 47.8547H31.9066V44.8959C31.9071 44.8391 32.0208 44.7822 32.1914 44.7822V44.7822ZM37.5395 45.4077V51.0973C37.5374 51.1268 37.5248 51.1546 37.5039 51.1755C37.483 51.1964 37.4552 51.209 37.4257 51.2111H36.9136V51.6664H39.4171C40.4978 51.6664 41.2947 51.5526 41.75 51.3816C42.717 51.0405 43.1723 50.4146 43.1723 49.5609C43.1723 48.4802 42.4896 47.797 41.1237 47.5123C41.6358 47.3417 41.9774 47.1711 42.2617 47.0006C42.6597 46.7159 42.8307 46.3747 42.8307 45.8625C42.8307 45.5782 42.717 45.2935 42.4891 45.0092C42.0911 44.4971 41.3511 44.2128 40.3841 44.2128H36.6289V44.6681H37.1979C37.3116 44.6681 37.3689 44.7254 37.4257 44.7818C37.4826 44.8391 37.5395 45.0665 37.5395 45.4077V45.4077ZM43.7986 44.6681H43.2291V44.2128H49.2035L49.0898 45.4077C49.033 45.5214 48.9761 45.5787 48.8624 45.5787C48.7487 45.5787 48.6914 45.5218 48.6914 45.3512L48.5777 45.1234L48.3502 44.9528L47.3828 44.7822H46.0742L46.0173 44.9528V47.3994H46.6432C47.2691 47.3994 47.6675 47.3425 47.8381 47.2861C47.9518 47.2292 48.0087 47.1155 48.0087 46.9445V46.5465H48.4071V48.5947H48.0087V48.4237C48.0087 48.1959 47.9518 48.0821 47.8949 48.0257C47.7812 47.9684 47.4965 47.912 47.0416 47.912H46.0173V49.3343C46.0173 50.0739 46.0173 50.586 46.0742 50.8707C46.1315 51.0413 46.1879 51.155 46.3016 51.155L48.0655 51.0417C48.6914 50.928 49.033 50.7006 49.2035 50.4159L49.4314 50.2449C49.5451 50.2449 49.602 50.3021 49.602 50.4159C49.602 50.5864 49.4882 50.9845 49.2604 51.6676H43.5139V51.2123H44.026C44.0829 51.2123 44.1397 51.155 44.1397 51.0986V45.4077C44.1397 45.0665 44.0824 44.8387 44.026 44.7818C43.9691 44.7254 43.9119 44.6681 43.7986 44.6681V44.6681ZM40.5555 47.3425L39.4175 47.2857V44.8959C39.4175 44.8391 39.5312 44.7822 39.7022 44.7822C40.1002 44.7822 40.4986 44.8959 40.7829 45.1806C41.0672 45.4654 41.1814 45.8634 41.1814 46.3183C41.1814 46.5461 41.1241 46.7735 41.0677 46.9441C40.9535 47.1716 40.7825 47.2857 40.5555 47.3425V47.3425ZM39.9292 51.1542L39.6449 51.0973C39.5881 51.0973 39.5312 51.0405 39.5312 50.9268C39.4739 50.7562 39.4175 50.1872 39.4175 49.3339V47.7406C40.1002 47.7406 40.6124 47.968 41.0104 48.4237C41.2951 48.7649 41.4088 49.1633 41.4088 49.5617C41.4088 49.9602 41.2378 50.3582 40.9535 50.6425C40.6688 50.9836 40.3276 51.1542 39.9292 51.1542V51.1542Z" fill="black"/>
</svg>
