<svg width="100" height="100" viewBox="0 0 100 100" fill="none" xmlns="http://www.w3.org/2000/svg">
<rect x="0.5" y="0.5" width="99" height="99" fill="white" stroke="#008B00"/>
<g clip-path="url(#clip0_22_4255)">
<path d="M72.0724 21.271C72.266 20.8135 71.8718 20.3644 71.8718 20.3644C71.8718 20.3644 68.7751 15.3092 57.8187 14.1876C51.9524 13.5878 43.9661 14.7267 38.3683 17.6234C28.2257 22.8676 26.707 31.5067 26.707 31.5067C26.6499 31.7182 26.5527 32.3623 26.7808 32.637C27.013 32.9166 27.351 32.9114 27.7704 32.7755C31.35 31.6152 42.019 28.2201 48.7517 26.5054C58.3333 24.0678 66.2043 22.5845 71.2565 21.7585C71.6151 21.7001 71.937 21.5874 72.0723 21.271" fill="#F79F19"/>
<path d="M83.0132 61.9874C77.2783 74.3465 66.2758 82.9477 51.8564 83.1436C41.3561 83.2866 32.0896 79.8346 25.3973 73.8133L21.3498 75.4751L21.3565 69.4615C16.9466 63.7536 14.3898 56.5336 14.3898 48.3316C14.3898 27.3243 31.1574 10.7647 54.5424 10.7647C58.3594 10.7647 61.8092 11.3347 64.4102 11.9001C60.4028 10.6695 56.4208 10.0027 51.9883 10.0027C26.8907 10.0027 10.0009 29.531 10 49.6702C10 71.6166 27.9414 89.9993 51.491 89.9993C73.9838 89.9993 86.1192 74.7818 90 65.6299L83.0132 61.9874Z" fill="#01538A"/>
<path d="M77.1916 57.6445C80.492 57.2852 82.7753 56.0122 84.0286 54.8315C85.1708 53.7547 85.4373 52.2719 85.439 51.1705C85.4851 49.552 85.439 44.4451 85.439 44.4451L76.705 46.2582C76.705 46.2582 76.7042 46.8901 76.7016 48.2162C76.7177 49.5113 77.3683 50.2163 78.7829 49.9666C79.2263 49.8969 79.9088 49.6881 79.9088 49.6881L79.9206 51.2886C79.913 51.2428 80.0498 52.181 77.8487 52.5987C74.9682 53.0325 73.6592 51.3317 73.6251 48.3263C73.6819 45.1053 75.5797 43.2477 77.882 42.739C80.4723 42.169 81.9384 42.7612 82.8 42.8873C85.6928 43.3031 86.5132 39.141 83.8817 38.1648C81.9364 37.4128 79.4125 37.277 77.0065 37.738C73.794 38.3527 67.4764 40.9329 67.4589 49.3169C67.4761 55.9788 72.5944 58.1498 77.1917 57.6444L77.1916 57.6445ZM48.8002 64.7847C48.8002 64.7847 51.48 63.9027 51.7117 63.8245C53.8656 63.1114 54.6504 61.8824 54.6408 59.7553C54.6136 57.4457 54.6096 52.942 54.6096 52.942L60.8408 59.8317C61.8531 60.8349 63.1216 60.9205 64.2831 60.5935C65.4838 60.2561 66.4836 59.2026 66.5139 57.7169C66.5237 52.7416 66.5113 40.599 66.5113 40.599C66.5113 40.599 64.9011 40.9268 63.5644 41.2904C62.0266 41.7086 60.8434 42.6496 60.8434 45.1335C60.8434 46.013 60.84 51.0595 60.84 51.0595C60.84 51.0595 57.333 46.839 55.0398 44.6376C53.8136 43.4623 51.7849 44.1638 51.7849 44.1638L48.7951 45.0321L48.8002 64.7847ZM46.9136 45.4771C46.9136 45.4771 45.0369 46.0053 43.5097 46.5344C41.5268 47.2224 40.3837 48.3234 40.3837 51.2038C40.3837 53.8494 40.3789 67.6188 40.3789 67.6188C40.3789 67.6188 42.116 67.0488 43.7356 66.4625C46.0381 65.6295 46.9068 64.493 46.9068 62.1728C46.9068 60.1789 46.9136 45.4771 46.9136 45.4771V45.4771ZM37.6008 49.3831C35.8784 48.6323 34.3999 49.4696 33.772 50.3951L28.4776 59.0361L28.4683 52.0699L22.2269 54.5509L22.2074 74.2507L26.604 72.482C26.604 72.482 27.467 72.2472 27.9879 71.462C28.4665 70.7384 28.4487 69.5249 28.4487 69.5249L28.4541 63.2781L33.3678 68.2816C34.4468 69.3568 36.4292 69.9089 38.1784 68.5531C39.76 67.3273 39.5151 65.2376 38.6328 64.3018L34.1565 59.9779C34.1565 59.9779 38.0959 54.0202 38.7399 53.0247C39.5948 51.7025 39.1647 50.0649 37.6008 49.3831" fill="#B20637"/>
<path d="M35.1563 72.539C34.924 73.0526 35.4539 73.5622 35.4539 73.5622C37.7256 76.2975 47.8121 79.7658 58.7603 77.2266C75.4798 73.3463 79.0125 61.9958 79.4127 60.3931C79.4949 60.0663 79.5599 59.5408 79.244 59.2254C78.9789 58.9621 78.6022 58.9593 78.0794 59.0754C66.4668 61.695 47.1429 67.3552 36.0021 71.9359C35.5226 72.1331 35.3055 72.2055 35.1563 72.539" fill="#F79F19"/>
<path d="M25.2405 46.7216C25.2252 45.6357 24.3455 45.0433 22.8254 45.7754L22.8222 49.266C22.8222 49.266 23.3138 49.0572 23.6743 48.8961C24.5631 48.5004 25.2614 47.7889 25.2405 46.7216V46.7216ZM22.7954 43.5664C23.0321 43.4785 23.2646 43.3807 23.4923 43.2733C24.3158 42.8885 24.9019 42.1747 24.9087 41.2506C24.9172 40.1981 24.014 39.9262 22.7972 40.5298L22.7954 43.5664ZM29.2304 46.2229C29.2798 48.9778 27.2118 50.4434 24.5178 51.5146L18.9994 53.7643L18.9866 39.4177C18.9866 39.4177 22.4634 38.0575 23.5978 37.6616C26.8221 36.5357 28.718 37.8929 28.718 39.9598C28.718 41.339 28.1028 42.5113 26.7676 43.5415C28.0825 43.7519 29.2052 44.7884 29.2304 46.2229ZM39.706 34.1138C39.706 32.9055 38.8399 32.5841 37.7923 32.8734C36.9453 33.106 35.9589 33.4758 35.9589 33.4758L35.9521 42.395C35.9419 43.2833 35.7986 44.3954 34.6581 44.6709C33.7826 44.8827 33.3686 44.3222 33.3677 43.4354L33.3553 36.1352C33.3553 34.9205 32.4748 34.5569 31.4305 34.8894C30.2567 35.2655 29.5514 35.5364 29.5514 35.5364C29.5514 35.5364 29.565 41.8523 29.5489 44.3781C29.5338 47.3388 31.6612 48.8169 34.9037 47.8979C37.7641 47.0863 39.6741 45.5503 39.7102 41.6072L39.706 34.1139V34.1138ZM70.3751 37.8C71.1991 37.6293 71.7132 37.0701 71.7132 36.104C71.7132 35.2334 71.7166 34.5716 71.7166 34.5716L67.2403 35.5101L67.2485 32.983C67.2485 32.983 69.4425 32.5367 70.0518 32.4092C70.8174 32.2481 71.2184 31.8476 71.2184 31.0081C71.2184 30.2249 71.2133 29.5472 71.2133 29.5472L67.2471 30.3548L67.2463 28.3511C67.2463 28.3511 69.3081 27.9381 70.4192 27.7141C71.2848 27.5394 71.5705 26.9705 71.5705 26.1876C71.5705 25.6778 71.5789 24.6688 71.5789 24.6688C69.6005 25.0039 65.8397 25.725 63.4945 26.2405L63.4626 39.3187C63.4626 39.3187 67.9222 38.3108 70.3751 37.7999V37.8ZM44.5086 37.2716C44.5118 37.2692 46.723 36.1731 46.6988 34.4343C46.677 32.9474 45.2499 33.2729 44.5095 33.5335L44.5086 37.2716ZM44.5143 39.2892C44.5143 39.2892 44.5069 41.7937 44.5033 42.8044C44.4942 43.7519 43.8201 44.4361 42.9665 44.749C42.253 44.9839 40.7366 45.4847 40.7366 45.4847L40.7425 32.0173C40.7425 32.0173 43.8737 30.9706 45.715 30.56C48.5763 29.9214 50.6113 31.1707 50.5745 33.3887C50.5567 35.5003 49.3291 36.7816 48.2265 37.6589L50.6497 39.8915C51.3943 40.5838 51.4463 41.8353 50.6087 42.5916C50.1121 43.0393 48.784 43.5033 47.7441 42.4877L44.5143 39.2892ZM76.1957 30.0283C76.2002 30.0283 78.3801 29.2316 78.3553 27.5543C78.3326 26.1358 76.877 26.3926 76.19 26.5399L76.1957 30.0283ZM72.5375 37.4077L72.5434 24.4944C72.5434 24.4944 76.4726 23.8279 77.4874 23.7026C80.3042 23.3555 82.1942 24.8556 82.1555 26.9867C82.1405 28.8609 80.9135 29.9887 79.8707 30.6653C79.8707 30.6653 81.7867 32.7368 82.3002 33.2848C82.99 34.0235 82.9592 35.2863 81.9388 35.9049C80.9358 36.5118 79.9423 36.1943 79.3655 35.583L76.2025 32.0233C76.2025 32.0233 76.2126 34.2127 76.2101 35.1687C76.2008 36.1203 75.6271 36.8139 74.5985 37.0181L72.5375 37.4077Z" fill="#B20637"/>
<path d="M62.5815 31.9878L57.0077 33.2023C57.0077 33.2023 57.001 33.7675 57.0001 34.6901C57.0077 35.3818 57.5133 35.8309 58.2406 35.6871C58.6993 35.5958 59.0664 35.5142 59.0664 35.5142L59.0749 36.9996C59.0808 37.5873 58.1618 37.9721 57.2075 37.951C55.8702 37.9176 55.1287 36.9205 55.1095 35.023C55.1511 32.5282 56.3742 31.0636 58.04 30.6547C58.872 30.4492 59.629 30.5492 60.2171 30.6224C61.6532 30.8451 62.48 30.1806 62.5095 29.0418C62.5394 27.822 61.4119 27.0676 58.9917 27.1482C53.7441 27.322 51.0609 30.94 51.0609 35.2579C51.0609 39.6799 54.0713 41.6332 57.7458 40.996C59.8223 40.5941 60.8552 39.9471 61.5709 39.3448C62.2864 38.7425 62.5815 37.8416 62.5815 37.0723V31.9878" fill="#B20637"/>
<path d="M40.6216 17.5244C34.4747 20.1282 30.3246 26.3262 30.0965 28.9497C30.0067 29.9927 31.4476 30.1424 31.5832 29.035C32.8803 24.2492 36.8502 19.7372 40.6216 17.5244V17.5244ZM60.9908 21.9714C64.3063 21.1909 66.127 21.0732 66.1598 19.6521C66.2174 17.2722 59.1419 14.5127 52.6631 15.0125C59.2643 15.4358 63.2239 17.8744 63.2456 19.5739C63.2581 20.6489 62.2874 21.5975 60.9908 21.9714ZM63.0453 74.5728C68.02 72.6952 72.8007 69.1086 75.4455 63.7364C76.2087 62.1839 74.0016 61.3907 73.3786 63.2138C71.8306 67.0334 68.6491 71.5181 63.0453 74.5728Z" fill="white"/>
</g>
<defs>
<clipPath id="clip0_22_4255">
<rect width="80" height="80" fill="white" transform="translate(10 10)"/>
</clipPath>
</defs>
</svg>
