<svg width="100" height="100" viewBox="0 0 100 100" fill="none" xmlns="http://www.w3.org/2000/svg">
<rect x="0.5" y="0.5" width="99" height="99" fill="white" stroke="#008B00"/>
<g clip-path="url(#clip0_22_4254)">
<path d="M54.3249 14.984C49.0414 15.0264 42.9158 16.2039 38.3675 18.528C28.225 23.7067 26.7075 32.2375 26.7075 32.2375C26.6504 32.4463 26.5519 33.082 26.78 33.3533C27.0123 33.6294 27.3506 33.6249 27.77 33.4907C31.3496 32.3448 42.0198 28.9913 48.7525 27.2981C58.3341 24.891 66.2053 23.4279 71.2575 22.6122C71.616 22.5546 71.9371 22.4414 72.0725 22.1289C72.2661 21.6771 71.8725 21.2358 71.8725 21.2358C71.8725 21.2358 68.7738 16.2431 57.8175 15.1356C56.7175 15.0245 55.5442 14.9742 54.325 14.984H54.3249ZM54.19 15.8913C60.205 15.8797 66.2132 18.3657 66.16 20.5322C66.1272 21.9357 64.3053 22.05 60.99 22.8206C62.2865 22.4515 63.2574 21.5155 63.245 20.454C63.2233 18.7758 59.2635 16.3685 52.6625 15.9505C53.1706 15.912 53.6802 15.8922 54.19 15.8913V15.8913ZM40.6225 18.4309C36.851 20.616 32.8796 25.0715 31.5825 29.7974C31.4469 30.8911 30.0076 30.742 30.0975 29.7121C30.3255 27.1213 34.4756 21.0022 40.6225 18.4309V18.4309Z" fill="black"/>
<path d="M83.0132 62.3364C77.2783 74.541 66.2758 83.0346 51.8564 83.2282C41.3561 83.3693 32.0896 79.9604 25.3973 74.0145L21.3498 75.6555L21.3565 69.7171C16.9466 64.0805 14.3898 56.9507 14.3898 48.8513C14.3898 28.1065 31.1574 11.7539 54.5424 11.7539C58.3594 11.7539 61.8092 12.3168 64.4102 12.8752C60.4028 11.6599 56.4208 11.0015 51.9883 11.0015C26.8907 11.0015 10.0009 30.2858 10 50.1731C10 71.8452 27.9414 89.9981 51.491 89.9981C73.9838 89.9981 86.1192 74.9708 90 65.9333L83.0132 62.3364Z" fill="black"/>
<path d="M77.1915 58.0489C80.4919 57.6941 82.7753 56.437 84.0286 55.2711C85.1708 54.2077 85.4373 52.7435 85.439 51.6558C85.4851 50.0576 85.439 45.0144 85.439 45.0144L76.705 46.8051C76.705 46.8051 76.7042 47.429 76.7016 48.7385C76.7177 50.0174 77.3683 50.7137 78.7829 50.4671C79.2263 50.3982 79.9087 50.192 79.9087 50.192L79.9206 51.7725C79.913 51.7272 80.0498 52.6537 77.8487 53.0661C74.9682 53.4946 73.6592 51.8151 73.6251 48.8472C73.6819 45.6665 75.5797 43.8321 77.882 43.3298C80.4723 42.7669 81.9383 43.3518 82.7999 43.4762C85.6928 43.8867 86.5132 39.7768 83.8817 38.8127C81.9363 38.0702 79.4125 37.936 77.0065 38.3912C73.794 38.9983 67.4764 41.5464 67.4589 49.8254C67.4761 56.4041 72.5944 58.548 77.1917 58.0489H77.1915ZM48.8002 65.0999C48.8002 65.0999 51.4799 64.2289 51.7117 64.1517C53.8656 63.4474 54.6503 62.2337 54.6407 60.1333C54.6135 57.8525 54.6096 53.4052 54.6096 53.4052L60.8408 60.2088C61.8531 61.1993 63.1216 61.2839 64.2831 60.961C65.4838 60.6279 66.4836 59.5876 66.5139 58.1204C66.5237 53.2072 66.5113 41.2164 66.5113 41.2164C66.5113 41.2164 64.9011 41.5401 63.5644 41.8993C62.0266 42.3122 60.8434 43.2414 60.8434 45.6943C60.8434 46.5628 60.8399 51.5462 60.8399 51.5462C60.8399 51.5462 57.333 47.3784 55.0398 45.2045C53.8136 44.0439 51.7849 44.7368 51.7849 44.7368L48.795 45.5942L48.8002 65.0999ZM46.9135 46.0336C46.9135 46.0336 45.0369 46.5552 43.5097 47.0777C41.5268 47.7571 40.3837 48.8443 40.3837 51.6887C40.3837 54.3012 40.3789 67.8985 40.3789 67.8985C40.3789 67.8985 42.116 67.3356 43.7355 66.7567C46.0381 65.9341 46.9067 64.8118 46.9067 62.5206C46.9067 60.5515 46.9135 46.0336 46.9135 46.0336V46.0336ZM37.6007 49.8908C35.8783 49.1493 34.3998 49.9762 33.7719 50.8901L28.4775 59.4231L28.4682 52.544L22.2269 54.994L22.2074 74.4475L26.6039 72.701C26.6039 72.701 27.467 72.4691 27.9878 71.6936C28.4665 70.9791 28.4486 69.7808 28.4486 69.7808L28.4541 63.6121L33.3678 68.553C34.4467 69.6147 36.4291 70.16 38.1783 68.821C39.76 67.6107 39.515 65.5471 38.6327 64.623L34.1565 60.3532C34.1565 60.3532 38.0958 54.4699 38.7398 53.4869C39.5947 52.1812 39.1646 50.564 37.6007 49.8908V49.8908ZM78.6075 59.3887C78.4507 59.3914 78.2761 59.4192 78.08 59.4622C66.4675 62.049 47.1434 67.639 36.0025 72.1624C35.523 72.3571 35.3067 72.4278 35.1575 72.7571C34.9252 73.2642 35.455 73.7687 35.455 73.7687C37.7267 76.4698 47.8118 79.8937 58.76 77.3861C75.4795 73.5544 79.0123 62.3454 79.4125 60.7628C79.4947 60.4401 79.561 59.9205 79.2451 59.609C79.0794 59.4466 78.8688 59.3844 78.6075 59.3887H78.6075ZM74.6175 62.5111C75.3053 62.5088 75.8982 63.1549 75.4451 64.0652C72.8003 69.3703 68.0198 72.9119 63.0451 74.766C68.6488 71.7494 71.8295 67.3205 73.3775 63.5487C73.6307 62.8173 74.1469 62.5126 74.6175 62.5111ZM25.2405 47.2625C25.2252 46.1902 24.3455 45.6052 22.8254 46.3281L22.8222 49.7751C22.8222 49.7751 23.3138 49.569 23.6743 49.4098C24.5631 49.0191 25.2614 48.3164 25.2405 47.2625ZM22.7954 44.1468C23.0321 44.0599 23.2646 43.9634 23.4923 43.8573C24.3158 43.4773 24.9019 42.7725 24.9087 41.8599C24.9172 40.8206 24.014 40.552 22.7972 41.1481L22.7954 44.1468ZM29.2304 46.77C29.2798 49.4904 27.2118 50.9378 24.5178 51.9955L18.9994 54.2171L18.9866 40.0499C18.9866 40.0499 22.4634 38.7067 23.5978 38.3157C26.8221 37.2039 28.718 38.5441 28.718 40.5852C28.718 41.9472 28.1028 43.1048 26.7676 44.1221C28.0825 44.3299 29.2052 45.3534 29.2304 46.77ZM39.706 34.8123C39.706 33.6191 38.8399 33.3018 37.7923 33.5875C36.9454 33.8172 35.9589 34.1822 35.9589 34.1822L35.9521 42.9899C35.9419 43.8672 35.7986 44.9654 34.6581 45.2375C33.7826 45.4466 33.3686 44.8931 33.3678 44.0174L33.3554 36.8083C33.3554 35.609 32.4748 35.2499 31.4306 35.5782C30.2567 35.9497 29.5514 36.2171 29.5514 36.2171C29.5514 36.2171 29.565 42.4541 29.5489 44.9483C29.5338 47.8719 31.6612 49.3317 34.9037 48.4241C37.7641 47.6226 39.6741 46.1059 39.7102 42.212L39.706 34.8123ZM70.3751 38.4523C71.1991 38.2839 71.7132 37.7317 71.7132 36.7776C71.7132 35.918 71.7167 35.2644 71.7167 35.2644L67.2403 36.1911L67.2486 33.6957C67.2486 33.6957 69.4426 33.2549 70.0519 33.129C70.8175 32.9699 71.2184 32.5744 71.2184 31.7453C71.2184 30.972 71.2133 30.3028 71.2133 30.3028L67.2471 31.1003L67.2463 29.1217C67.2463 29.1217 69.3081 28.7138 70.4192 28.4925C71.2848 28.3202 71.5705 27.7583 71.5705 26.9852C71.5705 26.4818 71.579 25.4854 71.579 25.4854C69.6006 25.8164 65.8398 26.5283 63.4946 27.0374L63.4627 39.9521C63.4627 39.9521 67.9223 38.9568 70.3751 38.4523V38.4523ZM44.5086 37.9307C44.5118 37.9283 46.723 36.8459 46.6988 35.1288C46.677 33.6606 45.2499 33.9819 44.5095 34.2393L44.5086 37.9307ZM44.5143 39.9229C44.5143 39.9229 44.507 42.3963 44.5033 43.3943C44.4942 44.3299 43.8201 45.0056 42.9666 45.3146C42.253 45.5466 40.7366 46.0411 40.7366 46.0411L40.7426 32.7421C40.7426 32.7421 43.8738 31.7084 45.715 31.303C48.5763 30.6723 50.6113 31.906 50.5745 34.0962C50.5567 36.1815 49.3291 37.4468 48.2265 38.3131L50.6497 40.5177C51.3943 41.2014 51.4463 42.4372 50.6087 43.1841C50.1122 43.6262 48.784 44.0844 47.7441 43.0815L44.5143 39.9229ZM76.1957 30.7779C76.2003 30.7779 78.3801 29.9911 78.3553 28.3349C78.3327 26.9341 76.8771 27.1877 76.19 27.3331L76.1957 30.7778V30.7779ZM72.5375 38.0651L72.5435 25.3131C72.5435 25.3131 76.4727 24.655 77.4875 24.5312C80.3043 24.1884 82.1943 25.6699 82.1555 27.7743C82.1406 29.625 80.9135 30.7387 79.8707 31.4069C79.8707 31.4069 81.7867 33.4525 82.3003 33.9937C82.99 34.7232 82.9592 35.9702 81.9388 36.581C80.9359 37.1803 79.9423 36.8668 79.3655 36.2632L76.2025 32.748C76.2025 32.748 76.2127 34.91 76.2101 35.854C76.2008 36.7936 75.6271 37.4786 74.5985 37.6803L72.5375 38.0651Z" fill="black"/>
<path d="M62.5815 32.7129L57.0077 33.9123C57.0077 33.9123 57.001 34.4703 57.0001 35.3813C57.0077 36.0644 57.5133 36.5079 58.2406 36.366C58.6993 36.2758 59.0664 36.1951 59.0664 36.1951L59.0749 37.662C59.0808 38.2423 58.1618 38.6224 57.2075 38.6014C55.8702 38.5685 55.1287 37.5839 55.1095 35.7102C55.1511 33.2466 56.3742 31.8003 58.04 31.3965C58.872 31.1935 59.629 31.2923 60.2171 31.3646C61.6532 31.5845 62.4801 30.9283 62.5095 29.8037C62.5394 28.5991 61.4119 27.8542 58.9918 27.9337C53.7441 28.1054 51.0609 31.6782 51.0609 35.9421C51.0609 40.3089 54.0713 42.2377 57.7458 41.6084C59.8223 41.2116 60.8552 40.5726 61.5709 39.9778C62.2865 39.3831 62.5815 38.4935 62.5815 37.7339V32.7129Z" fill="black"/>
</g>
<defs>
<clipPath id="clip0_22_4254">
<rect width="80" height="79" fill="white" transform="translate(10 11)"/>
</clipPath>
</defs>
</svg>
