<svg width="100" height="100" viewBox="0 0 100 100" fill="none" xmlns="http://www.w3.org/2000/svg">
<rect x="0.5" y="0.5" width="99" height="99" fill="white" stroke="#008B00"/>
<path fill-rule="evenodd" clip-rule="evenodd" d="M10 10H90V90H10V10Z" fill="white"/>
<path fill-rule="evenodd" clip-rule="evenodd" d="M26.5673 51.0397L26.9043 51.3762C25.4811 53.3427 23.6463 54.335 21.3806 54.335C19.3021 54.335 17.6544 53.6801 16.4376 52.4068C15.2767 51.1704 14.6774 49.5792 14.6774 47.5949C14.6774 45.5351 15.2954 43.8874 16.4936 42.6514C17.6918 41.4155 19.3395 40.7979 21.4179 40.7979C22.1106 40.7979 22.766 40.8917 23.384 41.0602C24.0019 41.2287 24.6199 41.3972 25.2188 41.5657C25.5558 41.5657 25.7617 41.3408 25.8742 40.8917H26.1738L26.3983 44.8797H26.0053C25.5371 43.6816 24.9756 42.839 24.3016 42.3335C23.6089 41.8093 22.7286 41.5657 21.6242 41.5657C20.089 41.5657 18.9282 42.0899 18.123 43.157C17.2992 44.2244 16.9057 45.7036 16.9057 47.5945C16.9057 49.448 17.3178 50.9085 18.123 51.976C18.9468 53.0426 20.1077 53.5672 21.6429 53.5672C23.5342 53.5672 25.1819 52.7247 26.5673 51.0397V51.0397ZM29.3762 51.9004V43.2126C29.3762 42.5386 29.245 42.0891 28.9827 41.8459C28.7018 41.6027 28.2149 41.4715 27.4662 41.4715V41.0785H33.3456V41.4715C32.5964 41.4715 32.0913 41.584 31.829 41.8272C31.5667 42.0704 31.436 42.5386 31.436 43.2126V46.3394C31.436 46.5644 31.4734 46.6951 31.5298 46.7515C31.6049 46.808 31.7547 46.8453 32.0166 46.8453H37.4091C37.6524 46.8453 37.8026 46.808 37.896 46.7515C37.9898 46.6955 38.0271 46.5457 38.0271 46.3021V43.2126C38.0271 42.5386 37.896 42.0891 37.6341 41.8459C37.3531 41.6027 36.8476 41.4715 36.1176 41.4715V41.0785H41.9969V41.4715C41.2478 41.4715 40.7427 41.584 40.4804 41.8272C40.2181 42.0704 40.0874 42.5386 40.0874 43.2126V51.9004C40.0874 52.5749 40.2181 53.0426 40.4804 53.2858C40.7427 53.5299 41.2482 53.6415 41.9969 53.6415V54.0345H36.1163V53.6415C36.8841 53.6415 37.3896 53.5294 37.6515 53.2858C37.8947 53.0426 38.0259 52.5749 38.0259 51.9004V48.2681C38.0259 48.0249 37.9885 47.8559 37.9321 47.7439C37.8574 47.6501 37.7262 47.5941 37.5204 47.5941H31.9789C31.7726 47.5941 31.6419 47.6501 31.5481 47.7439C31.4734 47.8559 31.4356 48.0244 31.4356 48.2681V51.9004C31.4356 52.5749 31.5663 53.0426 31.8286 53.2858C32.0909 53.5299 32.5964 53.6415 33.3452 53.6415V54.0345H27.4658V53.6415C28.2523 53.6415 28.7578 53.5294 29.0014 53.2858C29.2637 53.0426 29.3762 52.5749 29.3762 51.9004V51.9004ZM49.4663 41.0781H49.6161C51.0766 41.0781 52.1619 41.359 52.9305 41.9392C53.6983 42.5195 54.0719 43.3437 54.0719 44.4294C54.0719 46.1331 53.0052 47.238 50.8894 47.7435C53.8847 51.6195 55.7386 53.5851 56.45 53.6411V54.0341H53.5107C52.1619 52.5927 50.8325 50.9637 49.4658 49.1849V47.2936C50.0461 47.1811 50.5146 47.0126 50.889 46.7881C51.6008 46.3203 51.9556 45.5712 51.9556 44.5041C51.9556 43.5492 51.6564 42.8565 51.0762 42.4443C50.6831 42.1825 50.1585 41.9949 49.4658 41.9011V41.0781H49.4663V41.0781ZM44.954 51.9004V43.2126C44.954 42.5386 44.8042 42.0891 44.5419 41.8459C44.2609 41.6027 43.7741 41.4715 43.044 41.4715V41.0785H49.4663V41.9023C49.1293 41.8463 48.7362 41.8276 48.2867 41.8276C47.7248 41.8276 47.3691 41.884 47.2193 41.9774C47.0694 42.0712 46.9943 42.3518 46.9943 42.8013V46.9769C46.9943 47.3139 47.1628 47.4637 47.4998 47.4637C48.2676 47.4637 48.923 47.4073 49.4658 47.2952V49.1865C49.2226 48.8495 48.9603 48.4938 48.698 48.1378H47.4998C47.1628 48.1378 46.9943 48.2876 46.9943 48.6059V51.9013C46.9943 52.5757 47.1255 53.0434 47.3878 53.2866C47.6497 53.5307 48.1556 53.6423 48.9043 53.6423V54.0354H43.044V53.6423C43.8119 53.6423 44.3174 53.5303 44.5606 53.2866C44.8229 53.0426 44.954 52.5749 44.954 51.9004V51.9004ZM59.2776 51.9004V43.2126C59.2776 42.5386 59.1465 42.0891 58.8846 41.8459C58.6032 41.6027 58.0981 41.4715 57.3681 41.4715V41.0785H63.2474V41.4715C62.4983 41.4715 61.9928 41.584 61.7309 41.8272C61.4682 42.0704 61.3378 42.5386 61.3378 43.2126V51.9004C61.3378 52.5749 61.4682 53.0426 61.7309 53.2858C61.9928 53.5299 62.4987 53.6415 63.2474 53.6415V54.0345H57.3681V53.6415C58.1359 53.6415 58.6592 53.5294 58.9033 53.2858C59.1465 53.0426 59.2776 52.5749 59.2776 51.9004ZM65.3072 54.3346L64.5954 50.122H64.9885C65.4562 51.2642 66.0177 52.125 66.7109 52.7425C67.4031 53.3609 68.1336 53.6602 68.901 53.6602C69.5941 53.6602 70.1743 53.4356 70.642 53.0053C71.0919 52.5749 71.3351 52.0129 71.3351 51.3572C71.3351 50.4395 70.6989 49.5974 69.4252 48.8109L67.4027 47.5941C66.5233 47.0695 65.9057 46.5453 65.5122 46.0211C65.1379 45.5152 64.9312 44.8789 64.9312 44.1485C64.9312 43.1748 65.2869 42.3883 65.98 41.7521C66.6731 41.1154 67.6086 40.7971 68.7507 40.7971C69.2753 40.7971 69.8182 40.8909 70.4175 41.0967C70.9977 41.2839 71.3538 41.3773 71.4476 41.3773C71.7469 41.3773 71.9154 41.1901 71.934 40.7971H72.2897L72.7201 44.7104H72.3271C71.5779 42.5386 70.4171 41.4524 68.8632 41.4524C68.2083 41.4524 67.6837 41.6396 67.2907 41.9957C66.8789 42.3701 66.6918 42.8382 66.6918 43.3997C66.6918 43.8679 66.8416 44.2987 67.1595 44.6731C67.4214 45.0287 67.89 45.3844 68.5449 45.7779L70.7919 47.1072C71.6722 47.6314 72.3084 48.1369 72.6645 48.6424C73.0762 49.1857 73.2821 49.8788 73.2821 50.6649C73.2821 51.7689 72.9077 52.6492 72.1586 53.3236C71.3908 53.9972 70.3802 54.3346 69.1073 54.3346C68.6153 54.3363 68.1249 54.2797 67.6463 54.1661C67.1778 54.0536 66.7287 53.9416 66.2415 53.8291C65.9049 53.8291 65.6982 53.9976 65.6426 54.335H65.3072V54.3346V54.3346ZM74.4064 41.0781H86.2962V44.4108H85.8837C85.7716 43.269 85.4346 42.5386 84.91 42.2015C84.4983 41.9583 83.6189 41.8272 82.27 41.8272C81.8583 41.8272 81.6151 41.8645 81.5209 41.9019C81.4275 41.9583 81.3905 42.1268 81.3905 42.4074V51.9004C81.3905 52.5749 81.5209 53.0426 81.7836 53.2858C82.0455 53.5299 82.5514 53.6415 83.2814 53.6415V54.0345H77.4208V53.6415C78.1886 53.6415 78.6941 53.5294 78.956 53.2858C79.1992 53.0426 79.3303 52.5749 79.3303 51.9004V42.4074C79.3303 42.1451 79.293 41.9766 79.1992 41.921C79.1245 41.8645 78.8813 41.8272 78.4874 41.8272C77.0647 41.8272 76.147 41.9583 75.7353 42.2202C75.2676 42.5386 74.9488 43.269 74.8177 44.4108H74.406V41.0781H74.4064V41.0781ZM60.2139 37.5582C60.9062 37.5582 61.4864 38.1201 61.4864 38.8315C61.4864 39.5429 60.9062 40.1235 60.2139 40.1235C59.5022 40.1235 58.9219 39.5433 58.9219 38.8315C58.9219 38.1197 59.5022 37.5582 60.2139 37.5582ZM13.5921 62.1239C13.2551 62.3298 12.8994 62.4418 12.5246 62.4418C12.1125 62.4418 11.7755 62.3115 11.5323 62.0488C11.3078 61.8056 11.1766 61.4869 11.1766 61.0751C11.1766 60.6821 11.3078 60.3455 11.5323 60.1015C11.7755 59.8396 12.1125 59.7271 12.5246 59.7271C12.6745 59.7271 12.8052 59.7271 12.9181 59.7645C13.0488 59.8026 13.18 59.84 13.2924 59.8769C13.3671 59.8769 13.4049 59.8209 13.4232 59.7458H13.4792L13.5352 60.5323H13.4605C13.3667 60.3077 13.2543 60.1206 13.1048 60.0272C12.9737 59.9147 12.7865 59.8774 12.5807 59.8774C12.2623 59.8774 12.0374 59.9707 11.8693 60.1961C11.7008 60.402 11.6261 60.702 11.6261 61.0756C11.6261 61.4686 11.7012 61.7687 11.8693 61.9745C12.0374 62.1804 12.2627 62.2924 12.5807 62.2924C12.6931 62.2924 12.8243 62.2746 12.9177 62.2364C13.0301 62.199 13.1048 62.1617 13.1796 62.0866V61.3943C13.1796 61.2631 13.1613 61.1698 13.1048 61.1137C13.0488 61.0756 12.955 61.0569 12.8052 61.0569V60.9635H13.9851V61.0569C13.8353 61.0569 13.7228 61.0756 13.6855 61.1137C13.629 61.1698 13.5917 61.2627 13.5917 61.3943V62.1239H13.5921V62.1239ZM14.5471 61.9554V60.1957C14.5471 60.0645 14.5284 59.9703 14.472 59.933C14.4155 59.8769 14.3221 59.8583 14.1723 59.8583V59.7641H16.4006L16.438 60.3451H16.3633C16.3259 60.1766 16.2695 60.0637 16.1948 60.0081C16.1201 59.9512 15.9889 59.9326 15.8204 59.9326H15.1651C15.0713 59.9326 15.0157 59.9326 14.9966 59.9512C14.9779 59.9894 14.9779 60.0268 14.9779 60.1011V60.8128C14.9779 60.8689 14.9779 60.8875 14.9966 60.907C14.9966 60.9249 15.0339 60.9249 15.0904 60.9249H15.6145C15.8017 60.9249 15.9329 60.9071 15.9889 60.8689C16.0827 60.8315 16.1201 60.719 16.1201 60.5688H16.1948V61.4678H16.1201C16.1201 61.3001 16.0827 61.2059 16.0076 61.1498C15.9325 61.1125 15.8017 61.0743 15.6145 61.0743H15.0904C15.0339 61.0743 14.9966 61.093 14.9966 61.1125C14.9779 61.1125 14.9779 61.1498 14.9779 61.2059V61.9924C14.9779 62.0857 14.9779 62.1422 14.9966 62.1795C15.0339 62.2169 15.0713 62.2356 15.1464 62.2356H15.7644C16.0076 62.2356 16.1761 62.1982 16.2886 62.1235C16.401 62.048 16.4948 61.9177 16.5882 61.7118L16.6633 61.7305L16.4575 62.3854H14.1731V62.2912C14.323 62.2912 14.4163 62.2733 14.4728 62.2352C14.528 62.18 14.5471 62.0857 14.5471 61.9554V61.9554ZM18.1417 59.7641H18.179C18.46 59.7641 18.6845 59.8396 18.8344 59.9512C19.0029 60.0637 19.0776 60.2326 19.0776 60.4385C19.0776 60.7942 18.853 61.0187 18.4222 61.1129C19.0402 61.8994 19.4146 62.2916 19.5457 62.2916V62.3858H18.9655C18.6727 62.0705 18.3977 61.7393 18.1417 61.3935V61.0191C18.2542 61.0004 18.3475 60.9631 18.4227 60.9249C18.5725 60.8315 18.6472 60.6817 18.6472 60.4572C18.6472 60.27 18.5912 60.1392 18.46 60.0454C18.3849 59.9894 18.2724 59.9512 18.1417 59.933V59.7641ZM17.2431 61.9554V60.1957C17.2431 60.0645 17.2058 59.9703 17.1493 59.933C17.0933 59.8769 16.9995 59.8583 16.8497 59.8583V59.7641H18.1417V59.9326H17.8985C17.786 59.9326 17.73 59.9326 17.6926 59.9512C17.6548 59.9699 17.6548 60.0268 17.6548 60.1197V60.9627C17.6548 61.0187 17.6735 61.056 17.7486 61.056C17.8985 61.056 18.0292 61.056 18.1417 61.0187V61.3931C18.0857 61.337 18.0479 61.2619 17.9919 61.1872H17.7486C17.6735 61.1872 17.6548 61.2245 17.6548 61.2806V61.955C17.6548 62.0853 17.6735 62.1795 17.73 62.2356C17.786 62.2738 17.8798 62.2916 18.0296 62.2916V62.3858H16.8501V62.2916C16.9999 62.2916 17.1124 62.2738 17.1498 62.2356C17.2054 62.18 17.2431 62.0857 17.2431 61.9554V61.9554ZM21.437 61.7678L22.3547 59.7641H23.1412V59.8583C22.9913 59.8583 22.8789 59.8769 22.8415 59.933C22.7851 59.9703 22.7664 60.0641 22.7664 60.1957V61.9554C22.7664 62.0857 22.7851 62.18 22.8415 62.236C22.8789 62.2742 22.9913 62.292 23.1412 62.292V62.3862H21.9612V62.292C22.1111 62.292 22.2235 62.2742 22.2609 62.236C22.3169 62.18 22.3547 62.0862 22.3547 61.9554V60.2144L21.3623 62.3858H21.2872L20.2949 60.2144V61.9554C20.2949 62.0857 20.3322 62.18 20.3696 62.236C20.426 62.2742 20.5381 62.292 20.6879 62.292V62.3862H19.7329V62.292C19.8827 62.292 19.9952 62.2742 20.0326 62.236C20.089 62.18 20.1264 62.0862 20.1264 61.9554V60.1957C20.1264 60.0645 20.089 59.9703 20.0326 59.9143C19.9952 59.8769 19.8832 59.8583 19.7329 59.8583V59.7641H20.5194L21.437 61.7678ZM24.6012 59.9512L24.695 59.7267H24.7888L25.8372 62.011C25.8746 62.1052 25.9123 62.1795 25.9497 62.2169C26.0248 62.2738 26.0995 62.2916 26.1933 62.2916V62.3858H25.1072V62.2916C25.2196 62.2916 25.2944 62.2916 25.3317 62.2551C25.3881 62.2356 25.4068 62.1982 25.4068 62.1239C25.4032 62.084 25.3902 62.0455 25.3691 62.0115L25.1632 61.525H24.6012V61.3752H25.0881L24.6203 60.2891L24.6017 60.3264V59.9512H24.6012V59.9512ZM23.2532 62.3858V62.2916C23.3283 62.2916 23.403 62.2738 23.4595 62.2169C23.5155 62.1795 23.5715 62.0857 23.628 61.9737L24.6017 59.9512V60.3256L24.0962 61.3744H24.6017V61.5242H24.0401L23.8525 61.9359C23.8152 62.0293 23.7965 62.0849 23.7965 62.1418C23.7965 62.2542 23.8903 62.2908 24.0775 62.2908H24.0962V62.385H23.2532V62.3858V62.3858ZM26.7922 61.9554C26.7922 62.0857 26.8296 62.18 26.8669 62.236C26.9043 62.2742 27.0167 62.292 27.1666 62.292V62.3862H26.2302V62.292C26.3988 62.292 26.5112 62.2742 26.549 62.236C26.5863 62.18 26.605 62.0862 26.605 61.9554V60.1201C26.5116 59.9516 26.3992 59.8769 26.2307 59.8583V59.7641H26.9051L28.4594 61.618V60.2139C28.4594 60.0641 28.4407 59.9699 28.3843 59.9326C28.3469 59.8765 28.2344 59.8578 28.0846 59.8578V59.7636H29.0209V59.8578C28.8524 59.8578 28.74 59.8765 28.7022 59.9326C28.6648 59.9699 28.6462 60.0637 28.6462 60.2139V62.3854H28.5524L26.7922 60.2882V61.9554ZM30.4806 61.9554V60.1957C30.4806 60.0645 30.4432 59.9703 30.4055 59.933C30.3494 59.8769 30.237 59.8583 30.0871 59.8583V59.7641H31.2667V59.8583C31.1168 59.8583 31.0235 59.8769 30.967 59.933C30.911 59.9703 30.8923 60.0641 30.8923 60.1957V61.9554C30.8923 62.0679 30.911 62.1426 30.9297 62.18C30.967 62.2173 31.0421 62.236 31.1546 62.236H31.6041C31.7913 62.236 31.9411 62.18 32.0718 62.1057C32.203 62.0114 32.2968 61.8803 32.3902 61.6931H32.4653L32.2403 62.3862H30.0876V62.292C30.2374 62.292 30.3494 62.2742 30.4059 62.236C30.4432 62.18 30.4806 62.0857 30.4806 61.9554ZM32.8774 61.9554V60.1957C32.8774 60.0645 32.8587 59.9703 32.8023 59.933C32.7463 59.8769 32.6529 59.8583 32.5026 59.8583V59.7641H34.7305L34.7683 60.3451H34.6745C34.6558 60.1766 34.5994 60.0637 34.5247 60.0081C34.4496 59.9512 34.3188 59.9326 34.1312 59.9326H33.4759C33.4008 59.9326 33.3447 59.9326 33.3261 59.9512C33.3074 59.9894 33.2887 60.0268 33.2887 60.1011V60.8128C33.2887 60.8689 33.3074 60.8875 33.3074 60.907C33.3261 60.9249 33.3634 60.9249 33.4199 60.9249H33.944C34.1312 60.9249 34.2624 60.9071 34.3184 60.8689C34.3931 60.8315 34.4309 60.719 34.4309 60.5688H34.5247V61.4678H34.4309C34.4309 61.3001 34.3935 61.2059 34.3371 61.1498C34.262 61.1125 34.1308 61.0743 33.944 61.0743H33.4203C33.3638 61.0743 33.3265 61.093 33.3078 61.1125C33.3078 61.1125 33.2891 61.1498 33.2891 61.2059V61.9924C33.2891 62.0857 33.3078 62.1422 33.3265 62.1795C33.3451 62.2169 33.4012 62.2356 33.4763 62.2356H34.0943C34.3375 62.2356 34.506 62.1982 34.6185 62.1235C34.7309 62.048 34.8247 61.9177 34.8994 61.7118L34.9746 61.7305L34.7687 62.3854H32.503V62.2912C32.6529 62.2912 32.7467 62.2733 32.8027 62.2352C32.8587 62.18 32.8774 62.0857 32.8774 61.9554V61.9554ZM36.3599 59.9512L36.4724 59.7267H36.5662L37.5959 62.011C37.6333 62.1052 37.6897 62.1795 37.7271 62.2169C37.7831 62.2738 37.8769 62.2916 37.9703 62.2916V62.3858H36.8841V62.2916C36.9779 62.2916 37.0526 62.2916 37.1091 62.2551C37.1464 62.2356 37.1651 62.1982 37.1651 62.1239C37.1651 62.0857 37.1651 62.0484 37.1464 62.0115L36.9215 61.525H36.3599V61.3752H36.8655L36.3786 60.2891L36.3599 60.3264V59.9512V59.9512ZM35.0119 62.3858V62.2916C35.1053 62.2916 35.1804 62.2738 35.2365 62.2169C35.2738 62.1795 35.3489 62.0857 35.405 61.9737L36.3599 59.9512V60.3256L35.8731 61.3744H36.3599V61.5242H35.8167L35.6295 61.9359C35.5921 62.0293 35.5735 62.0849 35.5735 62.1418C35.5735 62.2542 35.6673 62.2908 35.854 62.2908H35.8727V62.385H35.0119V62.3858V62.3858ZM37.989 59.7641H40.3667V60.4385H40.292C40.2733 60.2139 40.1982 60.0641 40.0861 60.0081C40.011 59.9512 39.8425 59.9326 39.5615 59.9326H39.4117C39.393 59.9512 39.393 59.9894 39.393 60.045V61.955C39.393 62.0853 39.4117 62.1795 39.4677 62.2356C39.5242 62.2738 39.6175 62.2916 39.7674 62.2916V62.3858H38.5878V62.2916C38.7377 62.2916 38.8501 62.2738 38.8875 62.2356C38.9439 62.1795 38.9626 62.0857 38.9626 61.955V60.045C38.9626 59.989 38.9626 59.9508 38.9439 59.9508C38.9253 59.9321 38.8875 59.9321 38.7941 59.9321C38.5131 59.9321 38.326 59.9508 38.2512 60.0077C38.1579 60.0637 38.1014 60.2135 38.0637 60.4381H37.989V59.7641V59.7641ZM40.8722 61.9554V60.1957C40.8722 60.0645 40.8535 59.9703 40.7971 59.933C40.741 59.8769 40.6472 59.8583 40.4974 59.8583V59.7641H41.6769V59.8583C41.5271 59.8583 41.415 59.8769 41.3773 59.933C41.3212 59.9703 41.2835 60.0641 41.2835 60.1957V60.8319C41.2835 60.8693 41.3022 60.9075 41.3022 60.9075C41.3208 60.9253 41.3582 60.9253 41.4146 60.9253H42.5004C42.5377 60.9253 42.5755 60.9253 42.5941 60.9075C42.6128 60.9075 42.6128 60.8693 42.6128 60.8319V60.1957C42.6128 60.0645 42.5942 59.9703 42.5377 59.933C42.4817 59.8769 42.3692 59.8583 42.2381 59.8583V59.7641H43.4176V59.8583C43.2677 59.8583 43.1553 59.8769 43.0992 59.933C43.0619 59.9703 43.0241 60.0641 43.0241 60.1957V61.9554C43.0241 62.0857 43.0615 62.18 43.0992 62.236C43.1553 62.2742 43.2677 62.292 43.4176 62.292V62.3862H42.2381V62.292C42.3879 62.292 42.4813 62.2742 42.5377 62.236C42.5937 62.18 42.6128 62.0862 42.6128 61.9554V61.225C42.6128 61.1689 42.6128 61.1308 42.5941 61.1129C42.5755 61.0934 42.5568 61.0747 42.5194 61.0747H41.3955C41.3582 61.0747 41.3208 61.0934 41.3208 61.1129C41.3022 61.1308 41.2835 61.1689 41.2835 61.225V61.9554C41.2835 62.0857 41.3208 62.18 41.3773 62.236C41.4146 62.2742 41.5271 62.292 41.6769 62.292V62.3862H40.4974V62.292C40.6472 62.292 40.7597 62.2742 40.7971 62.236C40.8535 62.18 40.8722 62.0857 40.8722 61.9554V61.9554ZM43.943 61.9554V60.1957C43.943 60.0645 43.9243 59.9703 43.8683 59.933C43.8123 59.8769 43.7185 59.8583 43.5686 59.8583V59.7641H45.797L45.8343 60.3451H45.7405C45.7218 60.1766 45.6654 60.0637 45.5907 60.0081C45.516 59.9512 45.3848 59.9326 45.2163 59.9326H44.5606C44.4668 59.9326 44.4107 59.9326 44.3921 59.9512C44.3734 59.9894 44.3547 60.0268 44.3547 60.1011V60.8128C44.3547 60.8689 44.3734 60.8875 44.3921 60.907C44.3921 60.9249 44.4294 60.9249 44.4859 60.9249H45.0101C45.1976 60.9249 45.3284 60.9071 45.3848 60.8689C45.4595 60.8315 45.516 60.719 45.516 60.5688H45.5907V61.4678H45.516C45.516 61.3001 45.4786 61.2059 45.4035 61.1498C45.3284 61.1125 45.1976 61.0743 45.0101 61.0743H44.4859C44.4294 61.0743 44.3921 61.093 44.3921 61.1125C44.3734 61.1125 44.3547 61.1498 44.3547 61.2059V61.9924C44.3547 62.0857 44.3734 62.1422 44.3921 62.1795C44.4294 62.2169 44.4668 62.2356 44.5419 62.2356H45.1599C45.4031 62.2356 45.5716 62.1982 45.6845 62.1235C45.7965 62.048 45.8903 61.9177 45.9837 61.7118L46.0588 61.7305L45.853 62.3854H43.5686V62.2912C43.7185 62.2912 43.8123 62.2733 43.8683 62.2352C43.9243 62.18 43.943 62.0857 43.943 61.9554V61.9554ZM47.538 59.7641H47.5754C47.8563 59.7641 48.0809 59.8396 48.2307 59.9512C48.3992 60.0637 48.4743 60.2326 48.4743 60.4385C48.4743 60.7942 48.2494 61.0187 47.819 61.1129C48.437 61.8994 48.8113 62.2916 48.9425 62.2916V62.3858H48.3623C48.0695 62.0705 47.7945 61.7393 47.5384 61.3935V61.0191C47.6509 61.0004 47.7443 60.9631 47.8194 60.9249C47.9692 60.8315 48.0439 60.6817 48.0439 60.4572C48.0439 60.27 47.9692 60.1392 47.8568 60.0454C47.7821 59.9894 47.6692 59.9512 47.5384 59.933V59.7641H47.538V59.7641ZM46.6204 61.9554V60.1957C46.6204 60.0645 46.6017 59.9703 46.5457 59.933C46.4892 59.8769 46.3958 59.8583 46.246 59.8583V59.7641H47.538V59.9326H47.2948C47.1823 59.9326 47.1263 59.9326 47.089 59.9512C47.0516 59.9699 47.0325 60.0268 47.0325 60.1197V60.9627C47.0325 61.0187 47.0699 61.056 47.145 61.056C47.2948 61.056 47.4255 61.056 47.538 61.0187V61.3931C47.4778 61.3325 47.4273 61.2631 47.3882 61.1872H47.145C47.0699 61.1872 47.0325 61.2245 47.0325 61.2806V61.955C47.0325 62.0853 47.0699 62.1795 47.1263 62.2356C47.1823 62.2738 47.2761 62.2916 47.426 62.2916V62.3858H46.2464V62.2916C46.3963 62.2916 46.5083 62.2738 46.5461 62.2356C46.6017 62.18 46.6204 62.0857 46.6204 61.9554V61.9554ZM50.4212 61.9554V60.1957C50.4212 60.0645 50.3839 59.9703 50.3279 59.933C50.2905 59.8769 50.178 59.8583 50.0282 59.8583V59.7641H52.1818L52.2005 60.3451H52.1436C52.1063 60.1766 52.0689 60.0637 51.9946 60.0081C51.9191 59.9512 51.7879 59.9326 51.6016 59.9326H51.0206C50.9272 59.9326 50.8716 59.9326 50.8529 59.9512C50.8334 59.9894 50.8334 60.0268 50.8334 60.1011V60.8128C50.8334 60.8689 50.8334 60.8875 50.8529 60.907C50.8716 60.9249 50.9089 60.9249 50.9649 60.9249H51.2837C51.4709 60.9249 51.6024 60.9071 51.6767 60.8689C51.7514 60.8128 51.7888 60.719 51.7888 60.5688H51.8643V61.4678H51.7888C51.7888 61.3001 51.7514 61.2059 51.6767 61.1498C51.602 61.1125 51.4709 61.0743 51.2837 61.0743H50.9467C50.9093 61.0743 50.872 61.093 50.8533 61.1125C50.8338 61.1125 50.8338 61.1498 50.8338 61.2059V61.955C50.8338 62.0853 50.8533 62.1795 50.9093 62.2356C50.9654 62.2738 51.0592 62.2916 51.2086 62.2916V62.3858H50.0295V62.2916C50.198 62.2916 50.2918 62.2738 50.3478 62.2356C50.3839 62.18 50.4212 62.0857 50.4212 61.9554V61.9554ZM53.6788 59.9512L53.773 59.7267H53.8664L54.8965 62.011C54.9526 62.1052 54.9899 62.1795 55.0269 62.2169C55.0837 62.2738 55.1767 62.2916 55.2709 62.2916V62.3858H54.1848V62.2916C54.2972 62.2916 54.3533 62.2916 54.4093 62.2551C54.4475 62.2356 54.4653 62.1982 54.4653 62.1239C54.4653 62.0857 54.4653 62.0484 54.4475 62.0115L54.2221 61.525H53.6788V61.3752H54.1661L53.6983 60.2891L53.6788 60.3264V59.9512V59.9512ZM52.3121 62.3858V62.2916C52.4063 62.2916 52.4806 62.2738 52.5367 62.2169C52.5935 62.1795 52.6491 62.0857 52.7052 61.9737L53.6788 59.9512V60.3256L53.1737 61.3744H53.6788V61.5242H53.1169L52.9305 61.9359C52.8924 62.0293 52.8737 62.0849 52.8737 62.1418C52.8737 62.2542 52.9679 62.2908 53.1542 62.2908H53.1737V62.385H52.3121V62.3858V62.3858ZM55.5141 62.4414L55.383 61.5993H55.4585C55.5519 61.8239 55.6644 61.9924 55.7951 62.1239C55.9449 62.236 56.0952 62.3111 56.245 62.3111C56.3761 62.3111 56.4882 62.2551 56.582 62.18C56.6754 62.0857 56.731 61.9741 56.731 61.8429C56.731 61.6558 56.6007 61.4873 56.338 61.3379L55.9449 61.0751C55.7577 60.9818 55.6457 60.8693 55.5519 60.7759C55.4786 60.6648 55.4396 60.5346 55.4398 60.4015C55.4398 60.1957 55.5145 60.0272 55.6457 59.9143C55.7947 59.784 55.9823 59.7271 56.2076 59.7271C56.3197 59.7271 56.4322 59.7458 56.5442 59.784C56.6567 59.8213 56.7314 59.84 56.7501 59.84C56.8069 59.84 56.8443 59.8026 56.8443 59.7275H56.919L57.0132 60.514H56.919C56.77 60.0649 56.5446 59.8591 56.2267 59.8591C56.0956 59.8591 56.0022 59.8964 55.908 59.9525C55.8711 59.9893 55.8421 60.0332 55.8227 60.0816C55.8034 60.13 55.7941 60.1818 55.7955 60.2339C55.7955 60.3273 55.8337 60.421 55.8897 60.4958C55.9457 60.5705 56.0395 60.6456 56.1711 60.7203L56.6202 60.983C56.8074 61.0951 56.9194 61.1889 56.9945 61.3017C57.0879 61.4138 57.1257 61.545 57.1257 61.7135C57.1257 61.9193 57.0501 62.1065 56.9003 62.2372C56.7505 62.3684 56.5446 62.4431 56.2827 62.4431C56.1818 62.4399 56.0813 62.4274 55.9827 62.4057C55.8893 62.3871 55.7955 62.3684 55.7021 62.331C55.6461 62.331 55.5896 62.3684 55.5896 62.4431H55.5141V62.4414V62.4414ZM57.7611 61.9554V60.1957C57.7611 60.0645 57.7424 59.9703 57.6864 59.933C57.6295 59.8769 57.5366 59.8583 57.3863 59.8583V59.7641H58.5658V59.8583C58.416 59.8583 58.304 59.8769 58.2658 59.933C58.2097 59.9703 58.1724 60.0641 58.1724 60.1957V60.8319C58.1724 60.8693 58.1911 60.9075 58.1911 60.9075C58.2097 60.9253 58.2471 60.9253 58.3035 60.9253H59.3889C59.4262 60.9253 59.4644 60.9253 59.4831 60.9075C59.5017 60.9075 59.5017 60.8693 59.5017 60.8319V60.1957C59.5017 60.0645 59.4831 59.9703 59.4262 59.933C59.3702 59.8769 59.2585 59.8583 59.127 59.8583V59.7641H60.3065V59.8583C60.1575 59.8583 60.0446 59.8769 59.9877 59.933C59.9504 59.9703 59.913 60.0641 59.913 60.1957V61.9554C59.913 62.0857 59.9504 62.18 59.9877 62.236C60.0446 62.2742 60.1571 62.292 60.3065 62.292V62.3862H59.127V62.292C59.2768 62.292 59.3702 62.2742 59.4262 62.236C59.4831 62.18 59.5017 62.0862 59.5017 61.9554V61.225C59.5017 61.1689 59.5017 61.1308 59.4831 61.1129C59.4644 61.0934 59.4457 61.0747 59.4084 61.0747H58.2849C58.2467 61.0747 58.2093 61.0934 58.2093 61.1129C58.1907 61.1308 58.172 61.1689 58.172 61.225V61.9554C58.172 62.0857 58.2093 62.18 58.2654 62.236C58.3035 62.2742 58.4152 62.292 58.5654 62.292V62.3862H57.3859V62.292C57.5357 62.292 57.6478 62.2742 57.686 62.236C57.7424 62.18 57.7611 62.0857 57.7611 61.9554V61.9554ZM60.8875 61.9554V60.1957C60.8875 60.0645 60.8502 59.9703 60.7942 59.933C60.7373 59.8769 60.6443 59.8583 60.4941 59.8583V59.7641H61.6736V59.8583C61.5246 59.8583 61.4304 59.8769 61.3744 59.933C61.3175 59.9703 61.2988 60.0641 61.2988 60.1957V61.9554C61.2988 62.0857 61.3175 62.18 61.3744 62.236C61.4304 62.2742 61.5242 62.292 61.6736 62.292V62.3862H60.4941V62.292C60.6439 62.292 60.7568 62.2742 60.8128 62.236C60.8502 62.18 60.8875 62.0857 60.8875 61.9554V61.9554ZM63.3404 59.7267C63.7334 59.7267 64.0708 59.8392 64.314 60.0824C64.5573 60.3256 64.6697 60.6626 64.6697 61.0747C64.6697 61.4868 64.5573 61.8239 64.314 62.0679C64.0708 62.3111 63.7338 62.4414 63.3404 62.4414V62.2916C63.6031 62.2916 63.8268 62.1795 63.9961 61.955C64.1451 61.7491 64.2393 61.4491 64.2393 61.0747C64.2393 60.7012 64.1451 60.4198 63.9961 60.1953C63.8268 59.9699 63.6031 59.8765 63.3404 59.8765V59.7267ZM61.9924 61.0747C61.9924 60.663 62.1044 60.3256 62.348 60.0824C62.6099 59.8392 62.9282 59.7267 63.3404 59.7267V59.8765C63.0598 59.8765 62.8353 59.9699 62.6668 60.1953C62.517 60.4011 62.4227 60.7012 62.4227 61.0747C62.4227 61.4491 62.517 61.7491 62.6668 61.955C62.8353 62.1795 63.0598 62.2916 63.3404 62.2916V62.4414C62.9287 62.4414 62.6099 62.3111 62.348 62.0679C62.1044 61.8239 61.9924 61.4868 61.9924 61.0747ZM65.4936 61.9554C65.4936 62.0857 65.5131 62.18 65.5691 62.236C65.6065 62.2742 65.6994 62.292 65.8692 62.292V62.3862H64.932V62.292C65.1005 62.292 65.1947 62.2742 65.2508 62.236C65.2881 62.18 65.3076 62.0862 65.3076 61.9554V60.1201C65.2134 59.9516 65.0823 59.8769 64.9324 59.8583V59.7641H65.6069L67.1421 61.618V60.2139C67.1421 60.0641 67.1234 59.9699 67.086 59.9326C67.0292 59.8765 66.9362 59.8578 66.7673 59.8578V59.7636H67.7036V59.8578C67.5351 59.8578 67.4417 59.8765 67.4035 59.9326C67.3475 59.9699 67.3288 60.0637 67.3288 60.2139V62.3854H67.2541L65.4936 60.2882V61.9554ZM68.9769 62.4414L68.8271 61.5993H68.9205C68.996 61.8239 69.1263 61.9924 69.2575 62.1239C69.3886 62.236 69.5389 62.3111 69.7074 62.3111C69.8377 62.3111 69.9506 62.2551 70.044 62.18C70.1382 62.0857 70.1938 61.9741 70.1938 61.8429C70.1938 61.6558 70.0627 61.4873 69.8008 61.3379L69.3891 61.0751C69.2206 60.9818 69.089 60.8693 69.0147 60.7759C68.9409 60.665 68.9018 60.5347 68.9022 60.4015C68.9022 60.1957 68.9778 60.0272 69.1089 59.9143C69.2579 59.784 69.4455 59.7271 69.67 59.7271C69.7825 59.7271 69.8759 59.7458 70.007 59.784C70.1195 59.8213 70.1942 59.84 70.2129 59.84C70.2698 59.84 70.3071 59.8026 70.3071 59.7275H70.3818L70.4565 60.514H70.3818C70.232 60.0649 70.0075 59.8591 69.6887 59.8591C69.5759 59.8587 69.4655 59.8912 69.3708 59.9525C69.3338 59.9892 69.3047 60.0331 69.2853 60.0815C69.266 60.1299 69.2568 60.1818 69.2583 60.2339C69.2583 60.3273 69.277 60.421 69.3525 60.4958C69.4086 60.5705 69.5015 60.6456 69.6331 60.7203L70.083 60.983C70.2507 61.0951 70.3822 61.1889 70.4565 61.3017C70.5321 61.4138 70.569 61.545 70.569 61.7135C70.569 61.9193 70.4943 62.1065 70.3445 62.2372C70.1946 62.3684 70.0075 62.4431 69.7456 62.4431C69.6331 62.4431 69.5397 62.4244 69.4455 62.4057C69.3521 62.3871 69.2583 62.3684 69.1649 62.331C69.0894 62.331 69.0525 62.3684 69.0525 62.4431H68.9769V62.4414V62.4414ZM71.2604 61.9554V60.1957C71.2604 60.0645 71.2426 59.9703 71.1857 59.933C71.1297 59.8769 71.0172 59.8583 70.8865 59.8583V59.7641H72.066V59.8583C71.9162 59.8583 71.8033 59.8769 71.7473 59.933C71.6912 59.9703 71.6726 60.0641 71.6726 60.1957V61.9554C71.6726 62.0857 71.6912 62.18 71.7473 62.236C71.8033 62.2742 71.9158 62.292 72.066 62.292V62.3862H70.8865V62.292C71.0363 62.292 71.1297 62.2742 71.1857 62.236C71.2426 62.18 71.2604 62.0857 71.2604 61.9554ZM72.8338 61.9554C72.8338 62.0857 72.8525 62.18 72.8899 62.236C72.9272 62.2742 73.0397 62.292 73.2086 62.292V62.3862H72.2723V62.292C72.4221 62.292 72.5342 62.2742 72.5724 62.236C72.6097 62.18 72.6471 62.0862 72.6471 61.9554V60.1201C72.5537 59.9516 72.4225 59.8769 72.2727 59.8583V59.7641H72.9276L74.4823 61.618V60.2139C74.4823 60.0641 74.4637 59.9699 74.4255 59.9326C74.3694 59.8765 74.257 59.8578 74.1076 59.8578V59.7636H75.043V59.8578C74.8754 59.8578 74.7625 59.8765 74.7251 59.9326C74.6878 59.9699 74.6691 60.0637 74.6691 60.2139V62.3854H74.5749L72.8338 60.2882V61.9554V61.9554ZM77.7208 61.7678L77.7769 61.8425C77.4955 62.2356 77.1406 62.4414 76.672 62.4414C76.2603 62.4414 75.9229 62.3111 75.6797 62.0484C75.4543 61.8052 75.324 61.4864 75.324 61.0747C75.324 60.663 75.4543 60.3451 75.6984 60.0824C75.9416 59.8392 76.2603 59.7267 76.6907 59.7267C76.8219 59.7267 76.9534 59.7267 77.0838 59.7641C77.1962 59.8022 77.327 59.8396 77.4581 59.8765C77.515 59.8765 77.5523 59.8205 77.5706 59.7454H77.6453L77.6827 60.5319H77.6079C77.5146 60.3073 77.4021 60.1201 77.2709 60.0268C77.1211 59.9143 76.953 59.8769 76.7277 59.8769C76.4097 59.8769 76.1844 59.9703 76.0159 60.1957C75.8669 60.4015 75.7727 60.7016 75.7727 61.0751C75.7727 61.4495 75.8669 61.7496 76.0159 61.9741C76.1844 62.18 76.4284 62.292 76.7277 62.292C77.1033 62.2916 77.4394 62.1239 77.7208 61.7678V61.7678ZM78.2815 61.9554V60.1957C78.2815 60.0645 78.2442 59.9703 78.1882 59.933C78.1508 59.8769 78.0383 59.8583 77.8881 59.8583V59.7641H80.1351L80.1538 60.3451H80.0791C80.0417 60.1766 80.0035 60.0637 79.9292 60.0081C79.8545 59.9512 79.7234 59.9326 79.5362 59.9326H78.8813C78.7871 59.9326 78.7314 59.9326 78.7128 59.9512C78.6941 59.9894 78.6941 60.0268 78.6941 60.1011V60.8128C78.6941 60.8689 78.6941 60.8875 78.7128 60.907C78.7314 60.9249 78.7688 60.9249 78.8248 60.9249H79.3307C79.5366 60.9249 79.6495 60.9071 79.7238 60.8689C79.7985 60.8315 79.8363 60.719 79.8363 60.5688H79.911V61.4678H79.8363C79.8363 61.3001 79.7981 61.2059 79.7238 61.1498C79.6678 61.1125 79.5366 61.0743 79.3307 61.0743H78.8061C78.7688 61.0743 78.7314 61.093 78.7128 61.1125C78.6941 61.1125 78.6941 61.1498 78.6941 61.2059V61.9924C78.6941 62.0857 78.6941 62.1422 78.7314 62.1795C78.7501 62.2169 78.8061 62.2356 78.8813 62.2356H79.4802C79.7234 62.2356 79.8919 62.1982 80.0039 62.1235C80.1164 62.048 80.2106 61.9177 80.304 61.7118L80.3787 61.7305L80.1728 62.3854H77.8885V62.2912C78.0383 62.2912 78.1512 62.2733 78.2073 62.2352C78.2446 62.18 78.2815 62.0857 78.2815 61.9554V61.9554ZM81.7089 62.3858V62.2916C81.9147 62.2916 82.0455 62.2738 82.1019 62.2356C82.1579 62.1795 82.1766 62.0679 82.1766 61.899V60.2882V60.1392C82.1766 60.1011 82.1579 60.0824 82.1206 60.0824C82.0824 60.0824 82.0637 60.1011 82.0264 60.1011C82.0077 60.1011 81.989 60.1197 81.933 60.1392L81.7085 60.2696L81.6516 60.1949C81.9452 60.0439 82.2326 59.8814 82.5132 59.7076V61.8986C82.5132 62.0671 82.5319 62.1791 82.5879 62.2352C82.6253 62.2733 82.7564 62.2912 82.9623 62.2912V62.3854H81.7089V62.3858V62.3858ZM84.6108 61.0934C84.6481 60.9631 84.6668 60.8315 84.6668 60.7012C84.6668 60.4198 84.6108 60.2139 84.5357 60.0641C84.4423 59.933 84.3485 59.8583 84.1987 59.8396V59.7271C84.4427 59.7271 84.6299 59.8213 84.7797 59.9898C84.9287 60.177 85.0042 60.4202 85.0042 60.7576C85.0042 61.2441 84.8731 61.6371 84.6112 61.9185C84.4987 62.0488 84.3485 62.143 84.1987 62.2364V62.0305C84.3867 61.8434 84.5174 61.5815 84.5925 61.2627C84.4769 61.3501 84.3417 61.4079 84.1987 61.4312V61.2814H84.2555C84.3863 61.281 84.517 61.225 84.6108 61.0934V61.0934ZM84.1982 59.8396H84.1609C84.0306 59.8396 83.9177 59.8956 83.8617 60.0081C83.7861 60.1015 83.7492 60.27 83.7492 60.4758C83.7492 60.7385 83.7865 60.9444 83.8803 61.0747C83.955 61.2059 84.0675 61.2806 84.1982 61.2806V61.4304H84.1049C83.8803 61.4304 83.7118 61.3557 83.5803 61.2059C83.4682 61.056 83.3931 60.8502 83.3931 60.607C83.3931 60.3451 83.4686 60.1392 83.6184 59.9699C83.7488 59.8022 83.9364 59.7267 84.1609 59.7267H84.1982V59.8396V59.8396ZM84.1982 62.0297V62.2356C83.9743 62.3397 83.7335 62.4031 83.4873 62.4227V62.348C83.7512 62.3169 83.9992 62.2058 84.1982 62.0297V62.0297ZM85.3404 60.7946L85.7903 59.7645H86.6706C86.7079 59.7458 86.7266 59.7271 86.764 59.6711L86.8013 59.7084L86.6515 60.0828H85.7907L85.6222 60.4572C85.9966 60.5132 86.2585 60.6257 86.4456 60.7942C86.6328 60.9627 86.727 61.1872 86.727 61.4491C86.727 61.7305 86.6328 61.9737 86.4456 62.1609C86.2585 62.348 86.0153 62.4414 85.7152 62.4414C85.5475 62.4414 85.4346 62.4041 85.3408 62.3667C85.2661 62.3107 85.2105 62.2547 85.2105 62.1609C85.2105 62.1235 85.2292 62.1048 85.2665 62.0675C85.2852 62.048 85.3226 62.0293 85.379 62.0293C85.4537 62.0293 85.528 62.048 85.5849 62.1048C85.7534 62.2169 85.8654 62.2733 85.9215 62.2733C86.0713 62.2733 86.2029 62.2165 86.3153 62.0853C86.4274 61.9733 86.483 61.8048 86.483 61.5989C86.483 61.3557 86.3896 61.1685 86.1838 61.0187C85.9962 60.8689 85.6973 60.7946 85.3404 60.7946V60.7946ZM87.7003 61.4682H88.1307V60.1397L87.7003 60.7946V60.5692L88.2622 59.7271H88.4681V61.4682H88.8238V61.7122H88.4681V62.3858H88.1311V61.7122H87.7007V61.4682H87.7003V61.4682ZM87.2504 61.4682H87.7003V61.7122H87.1201V61.4308L87.7003 60.5692V60.7946L87.2504 61.4682V61.4682Z" fill="black"/>
</svg>
