<svg width="100" height="100" viewBox="0 0 100 100" fill="none" xmlns="http://www.w3.org/2000/svg">
<rect x="0.5" y="0.5" width="99" height="99" fill="white" stroke="#008B00"/>
<path d="M49.088 37.056L50.848 42.48H56.56L51.936 45.84L53.696 51.264L49.072 47.904L44.448 51.264L46.208 45.84L41.584 42.48H47.296L49.088 37.056ZM59.728 44.72C59.728 50.592 54.96 55.36 49.088 55.36C43.216 55.36 38.448 50.592 38.448 44.72C38.448 38.848 43.216 34.08 49.088 34.08C54.96 34.08 59.728 38.848 59.728 44.72ZM49.088 32.272C42.208 32.272 36.624 37.856 36.624 44.736C36.624 51.616 42.208 57.2 49.088 57.2C55.968 57.2 61.552 51.616 61.552 44.736C61.536 37.84 55.968 32.272 49.088 32.272Z" fill="black"/>
<path d="M78.16 62.416C78.288 62.4 78.384 62.336 78.384 62.176C78.384 62 78.288 61.92 78.08 61.92H77.744L77.76 62.8H77.888V62.416H78.032L78.272 62.8H78.416L78.16 62.416ZM77.888 62.304V62.032H78.064C78.16 62.032 78.256 62.048 78.256 62.16C78.256 62.304 78.144 62.304 78.032 62.304H77.888Z" fill="black"/>
<path d="M78.048 61.616C77.632 61.616 77.296 61.936 77.296 62.368C77.296 62.8 77.648 63.12 78.048 63.12C78.464 63.12 78.8 62.8 78.8 62.368C78.8 61.952 78.464 61.616 78.048 61.616ZM78.048 63.008C77.696 63.008 77.424 62.72 77.424 62.368C77.424 62.016 77.696 61.728 78.048 61.728C78.4 61.728 78.672 62 78.672 62.368C78.672 62.736 78.4 63.008 78.048 63.008Z" fill="black"/>
<path d="M68.896 61.248V62.496H65.76V62.896V63.36V63.904H66.112H67.504H67.904C68.64 63.904 69.232 64.496 69.232 65.232V65.696V66.064V66.384C69.232 67.12 68.64 67.712 67.904 67.712H64.256V66.48H67.856V66.08V65.712V65.168H67.504H66.112H65.712C64.976 65.168 64.384 64.576 64.384 63.84V63.376V62.912V62.592C64.384 61.856 64.976 61.264 65.712 61.264H68.896V61.248V61.248Z" fill="black"/>
<path d="M76.096 67.728H72.912C72.176 67.728 71.584 67.136 71.584 66.4V65.552V63.424V62.576C71.584 61.84 72.176 61.248 72.912 61.248H76.096V62.496H72.96V63.424V63.936H76.096V65.184H72.96V65.536V66.464H76.096V67.728Z" fill="black"/>
<path d="M54.592 67.728H51.408C50.672 67.728 50.08 67.136 50.08 66.4V65.552V63.424V62.576C50.08 61.84 50.672 61.248 51.408 61.248H54.592V62.496H51.456V63.424V63.936H54.592V65.184H51.456V65.536V66.464H54.592V67.728Z" fill="black"/>
<path d="M36.288 61.248H36.976H39.312C40.048 61.248 40.64 61.84 40.64 62.576V67.744H39.264V62.512H36.976V67.744H35.6V61.264L36.288 61.248Z" fill="black"/>
<path d="M61.024 65.12C61.68 65.04 62.16 64.544 62.16 63.872V63.696V62.672V62.576C62.16 61.84 61.632 61.36 60.896 61.36H58.416H57.712H56.88V67.6H58.32V65.2H59.68L60.8 67.6H62.336L61.024 65.12ZM60.72 62.752V63.696V64.08H58.32V62.48H60.72V62.752Z" fill="black"/>
<path d="M43.776 61.248L45.312 66.64L46.928 61.248H48.496L46.4 67.728H44.24L42.24 61.248H43.776Z" fill="black"/>
<path d="M21.2 62.576C21.2 61.84 21.792 61.248 22.528 61.248H25.936V62.496H22.576V66.48H25.936V67.728H22.528C21.792 67.728 21.2 67.136 21.2 66.4V62.576Z" fill="black"/>
<path d="M32.176 61.36H29.36C28.624 61.36 27.92 61.84 27.92 62.576V66.416C27.92 67.152 28.624 67.616 29.36 67.616H32.192C32.928 67.616 33.536 67.152 33.536 66.416V62.576C33.52 61.84 32.912 61.36 32.176 61.36ZM32.08 66.48H29.2V62.48H32.08V66.48Z" fill="black"/>
</svg>
