<svg width="100" height="100" viewBox="0 0 100 100" fill="none" xmlns="http://www.w3.org/2000/svg">
<rect x="0.5" y="0.5" width="99" height="99" fill="white" stroke="#008B00"/>
<g clip-path="url(#clip0_24_64)">
<path d="M75.5652 43H89.9697V57H75.5652V43ZM10.0306 56.7808H11.9046C14.0045 56.7808 15.0792 55.7961 15.0792 53.93C15.0792 52.8421 14.6879 52.0233 13.9548 51.5396C13.3305 51.1267 12.6885 51.0641 11.9046 51.0641H10.0306V56.7808ZM19.7045 55.534H18.5872C18.4914 55.9144 18.2491 56.0977 17.8341 56.0977C17.3056 56.0977 17.0372 55.7486 17.0289 55.0341H19.8334C19.8417 54.9471 19.8417 54.8602 19.8417 54.772C19.8417 53.4382 19.1323 52.6994 17.9026 52.6994C16.5867 52.6994 15.8158 53.4614 15.8158 54.8277C15.8158 56.122 16.569 56.8678 17.8412 56.8678C18.9514 56.8678 19.6348 56.3679 19.7045 55.534ZM24.5959 56.0107C24.5959 56.2566 24.6053 56.5187 24.6301 56.7808H23.436L23.4017 56.1847C23.073 56.6683 22.6403 56.8759 21.9994 56.8759C21.0299 56.8759 20.5806 56.376 20.5806 55.3589V52.7945H21.8351V55.193C21.8351 55.7567 22.0172 56.0269 22.5457 56.0269C23.0222 56.0269 23.3414 55.7335 23.3414 55.2487V52.7945H24.597V56.0107H24.5959ZM25.1941 53.5809V52.7945H26.0158V52.0244L27.2715 51.5965V52.7945H28.2753V53.5809H27.2632V55.5259C27.2632 55.8193 27.4358 55.9782 27.7397 55.9782C27.8875 55.9782 28.0601 55.9631 28.2682 55.9225V56.7402C27.8875 56.8202 27.5233 56.8597 27.1592 56.8597C26.3457 56.8597 26.017 56.5024 26.017 55.7404V53.5809H25.1941ZM29.9282 55.5816C29.9459 55.9388 30.1623 56.1058 30.6293 56.1058C31.0455 56.1058 31.2784 55.9307 31.2784 55.6535C31.2784 55.2649 30.854 55.2406 30.1623 55.0654C29.2531 54.8439 28.8381 54.5342 28.8381 53.9149C28.8381 53.2399 29.5215 52.6994 30.6813 52.6994C31.6863 52.6994 32.2917 53.1367 32.2917 53.8105V53.843H31.1827C31.1389 53.5322 30.9403 53.3826 30.5761 53.3826C30.1954 53.3826 29.9708 53.5565 29.9708 53.7873C29.9708 54.1132 30.3775 54.1446 31.1046 54.3116C32.0481 54.5261 32.4809 54.852 32.4809 55.4876C32.4809 56.2496 31.7277 56.8771 30.5856 56.8771C29.4174 56.8771 28.7671 56.4085 28.7506 55.5827H29.9282V55.5816ZM35.1683 56.8759C33.9269 56.8759 33.1146 56.0814 33.1146 54.7326C33.1146 53.4614 33.9269 52.6994 35.2594 52.6994C36.327 52.6994 37.021 53.248 37.04 54.1527H35.7796C35.724 53.6528 35.5419 53.4382 35.1589 53.4382C34.7025 53.4382 34.492 53.8592 34.492 54.7094C34.492 55.6221 34.6658 56.0594 35.186 56.0594C35.5514 56.0594 35.7524 55.7973 35.7879 55.273H37.0388C37.04 56.289 36.3459 56.8759 35.1683 56.8759V56.8759ZM37.6666 51.0641H38.9222V53.3107C39.2427 52.8896 39.6576 52.6994 40.2642 52.6994C41.2337 52.6994 41.6842 53.2005 41.6842 54.2165V56.7808H40.4285V54.3742C40.4285 53.8105 40.2465 53.5403 39.7191 53.5403C39.2427 53.5403 38.9222 53.843 38.9222 54.3266V56.7808H37.6666V51.0641ZM46.4951 55.534H45.379C45.2832 55.9144 45.0408 56.0977 44.6258 56.0977C44.0985 56.0977 43.8301 55.7486 43.8207 55.0341H46.6252C46.6334 54.9471 46.6334 54.8602 46.6334 54.772C46.6334 53.4382 45.924 52.6994 44.6944 52.6994C43.3785 52.6994 42.6076 53.4614 42.6076 54.8277C42.6076 56.122 43.3607 56.8678 44.6329 56.8678C45.7431 56.8678 46.4265 56.3679 46.4951 55.534ZM49.9747 56.7808H52.1218C53.1174 56.7808 53.809 56.7402 54.3033 56.289C54.5977 56.0188 54.7455 55.6453 54.7455 55.193C54.7455 54.4542 54.3127 53.9706 53.465 53.7641C54.1567 53.5658 54.4865 53.161 54.4865 52.5255C54.4865 51.4851 53.7251 51.0641 52.1148 51.0641H49.9759V56.7808H49.9747ZM58.1045 56.7808H59.1946C59.1594 56.3768 59.1361 55.9718 59.1248 55.5665V54.351C59.1248 53.8198 59.1083 53.4464 58.7358 53.1135C58.4414 52.8502 57.9567 52.6925 57.3253 52.6925C56.0957 52.6925 55.4809 53.0903 55.4726 53.9161H56.7282C56.7625 53.5183 56.9529 53.3524 57.3253 53.3524C57.7498 53.3524 57.9307 53.5739 57.9307 54.0587C57.9307 54.1144 57.9224 54.1701 57.9224 54.2257C57.8266 54.2257 57.732 54.2176 57.6363 54.2176C56.0874 54.2176 55.2905 54.7256 55.2905 55.6465C55.2905 56.3934 55.8616 56.9084 56.675 56.9084C57.2378 56.9084 57.68 56.6938 58.0513 56.2415C58.0619 56.463 58.0879 56.6451 58.1045 56.7808V56.7808ZM60.157 53.5565C60.157 53.3107 60.1393 53.0567 60.1133 52.7945H61.3169L61.3429 53.3907C61.6716 52.907 62.1043 52.6994 62.7452 52.6994C63.7147 52.6994 64.1651 53.2005 64.1651 54.2165V56.7808H62.919V54.3742C62.919 53.8105 62.7369 53.5403 62.2084 53.5403C61.7319 53.5403 61.4032 53.843 61.4032 54.3266V56.7808H60.157V53.5565V53.5565ZM65.1595 51.0641H66.4057V54.358L67.6956 52.7945H69.1404L67.6519 54.4855L69.2445 56.7808H67.7299L66.4057 54.6607V56.7808H65.1595V51.0641Z" fill="black"/>
<path d="M88.0482 44.8847V55.1153H77.4863V44.8847H88.0482Z" fill="white"/>
<path d="M86.763 46.2753H84.3203L78.7716 53.531H81.2155L86.763 46.2753Z" fill="black"/>
<path d="M11.3051 55.8355V52.0001H11.9553C13.1968 52.0001 13.7466 52.6043 13.7466 53.9381C13.7466 55.2406 13.1968 55.8355 11.9553 55.8355H11.3051V55.8355ZM17.0642 54.2953C17.0985 53.7398 17.3929 53.4301 17.8174 53.4301C18.3021 53.4301 18.5445 53.7235 18.5528 54.2953H17.0642ZM43.8548 54.2953C43.8891 53.7398 44.1835 53.4301 44.608 53.4301C45.0927 53.4301 45.3351 53.7235 45.3434 54.2953H43.8548ZM51.2468 55.8669V54.2547H52.1217C53.0309 54.2547 53.4377 54.3812 53.4377 55.0562C53.4377 55.7706 53.0475 55.8657 52.1217 55.8657H51.2468V55.8669ZM51.2468 53.3826V51.9374H52.1217C52.8831 51.9374 53.2118 52.0882 53.2118 52.6844C53.2118 53.2329 52.8749 53.3837 52.1217 53.3837H51.2468V53.3826ZM57.914 54.8671C57.9234 54.946 57.9234 55.0179 57.9234 55.0817C57.9234 55.7486 57.629 56.0977 57.1265 56.0977C56.7718 56.0977 56.52 55.875 56.52 55.5734C56.52 55.1281 56.9445 54.8671 57.7756 54.8671H57.914Z" fill="white"/>
</g>
<defs>
<clipPath id="clip0_24_64">
<rect width="80" height="14" fill="white" transform="translate(10 43)"/>
</clipPath>
</defs>
</svg>
