<svg width="100" height="100" viewBox="0 0 100 100" fill="none" xmlns="http://www.w3.org/2000/svg">
<rect x="0.5" y="0.5" width="99" height="99" fill="white" stroke="#008B00"/>
<path fill-rule="evenodd" clip-rule="evenodd" d="M10 58.8618H90V41.1382H10V58.8618Z" fill="#F9C100"/>
<path fill-rule="evenodd" clip-rule="evenodd" d="M76.6114 53.3404C71.5746 53.3359 69.6267 48.9566 69.8885 45.6337L71.3683 45.1657C71.1272 47.0519 71.7099 48.4144 72.1163 49.039C71.6361 46.3676 73.6497 44.2034 76.1751 44.2034C78.4458 44.1995 80.3236 45.8622 80.3154 48.2392C80.6493 47.332 80.8781 45.947 80.9252 44.9823L84.3365 45.832C84.0647 49.8321 81.0615 53.3404 76.6114 53.3404V53.3404ZM81.511 55.6526L79.5736 53.6908H81.4919L83.4317 55.6526H81.511ZM78.92 55.6526L76.9779 53.6908H78.9017L80.8409 55.6526H78.92ZM74.5935 55.6526H72.6703L74.61 53.6908H76.5328L74.5935 55.6526ZM70.0778 55.6526L72.0195 53.6908H73.9399L72.0007 55.6526H70.0778ZM76.1809 45.5966C74.6763 45.5966 73.4559 46.8186 73.4559 48.3236C73.4559 49.8284 74.6763 51.0503 76.1809 51.0503C77.6898 51.0503 78.9099 49.8283 78.9099 48.3236C78.9099 46.8186 77.6898 45.5966 76.1809 45.5966V45.5966ZM65.9615 53.7527C65.0938 53.7527 64.6162 53.2182 64.6162 52.3774V50.2074H63.7979V49.3991H64.6162V48.548L65.725 48.1933V49.399H66.7058V50.2073H65.725V52.1945C65.725 52.5569 65.8219 52.8928 66.2444 52.8928C66.4423 52.8928 66.634 52.8517 66.7491 52.7815L66.78 53.6532C66.5495 53.7216 66.294 53.7527 65.9615 53.7527V53.7527ZM61.6378 53.7527C61.2153 53.7527 60.7863 53.6759 60.3827 53.5706L60.4461 52.6639C60.7946 52.8395 61.1572 52.9422 61.5363 52.9422C61.8208 52.9422 62.2646 52.8395 62.2646 52.4229C62.2646 51.5883 60.3397 52.1594 60.3397 50.6216C60.3397 49.7027 61.1411 49.2982 62.0112 49.2982C62.5304 49.2982 62.8682 49.3831 63.2147 49.4572L63.142 50.2923C62.8023 50.1745 62.5548 50.1082 62.1512 50.1082C61.8546 50.1082 61.4975 50.2179 61.4975 50.5845C61.4975 51.2585 63.4227 50.8252 63.4227 52.3632C63.4226 53.3613 62.5407 53.7527 61.6378 53.7527V53.7527ZM57.6475 53.7527C56.2419 53.7527 55.4235 52.7815 55.4235 51.5551C55.4235 50.1492 56.3904 49.2982 57.6475 49.2982C58.9127 49.2982 59.8795 50.1492 59.8795 51.5551C59.8795 52.7816 59.0611 53.7527 57.6475 53.7527ZM53.2083 51.4648H52.7189V53.6532H51.5629V47.8868H53.0263C54.2819 47.8868 55.4313 48.2494 55.4313 49.6285C55.4313 50.9736 54.447 51.4648 53.2083 51.4648V51.4648ZM47.4143 52.9423C47.9496 52.9423 48.4138 52.7444 48.8262 52.5136V53.414C48.4221 53.6395 47.9624 53.7528 47.3626 53.7528C45.9591 53.7528 45.1407 52.9423 45.1407 51.5468C45.1407 50.3166 45.7942 49.2983 47.1176 49.2983C48.6963 49.2983 49.1414 50.3824 49.1414 51.8725H46.2C46.2499 52.557 46.7276 52.9423 47.4143 52.9423V52.9423ZM44.6054 53.6532H43.498V51.378C43.498 50.8588 43.4897 50.1576 42.7787 50.1576C41.9774 50.1576 41.8036 51.0257 41.8036 51.5712V53.6532H40.6974V47.4553H41.8036V49.974H41.8202C42.1003 49.5622 42.5805 49.2982 43.1579 49.2982C44.1679 49.2982 44.6054 50.0115 44.6054 50.97V53.6532ZM39.0134 53.7527C37.6156 53.7527 36.9149 52.8001 36.9149 51.5063C36.9149 50.275 37.643 49.2982 38.9742 49.2982C39.417 49.2982 39.7409 49.35 40.0479 49.4368L39.9467 50.3165C39.7492 50.2259 39.5345 50.1576 39.1967 50.1576C38.5078 50.1576 38.0714 50.704 38.0714 51.5063C38.0714 52.2891 38.4443 52.8928 39.2211 52.8928C39.5345 52.8928 39.8824 52.7815 40.0727 52.6931L40.12 53.6096C39.7984 53.7092 39.4667 53.7527 39.0134 53.7527V53.7527ZM34.7076 53.7527C34.2849 53.7527 33.8564 53.6759 33.4524 53.5706L33.5159 52.6639C33.8643 52.8395 34.2294 52.9422 34.6084 52.9422C34.8891 52.9422 35.3347 52.8395 35.3347 52.4229C35.3347 51.5883 33.409 52.1594 33.409 50.6216C33.409 49.7027 34.2107 49.2982 35.0809 49.2982C35.5975 49.2982 35.9379 49.3831 36.2867 49.4572L36.2101 50.2923C35.8719 50.1745 35.6224 50.1082 35.2184 50.1082C34.9242 50.1082 34.5669 50.2179 34.5669 50.5845C34.5669 51.2585 36.4919 50.8252 36.4919 52.3632C36.4921 53.3613 35.6099 53.7527 34.7076 53.7527V53.7527ZM32.0963 53.7527C31.2267 53.7527 30.7479 53.2182 30.7479 52.3774V50.2074H29.932V49.3991H30.7479V48.548L31.8567 48.1933V49.399H32.8429V50.2073H31.8567V52.1945C31.8567 52.5569 31.9563 52.8928 32.3783 52.8928C32.5764 52.8928 32.7662 52.8517 32.8815 52.7815L32.9166 53.6532C32.6838 53.7216 32.4281 53.7527 32.0963 53.7527ZM29.4312 53.6532H28.38V53.0763H28.3635C28.0237 53.488 27.5475 53.7527 26.9663 53.7527C25.9599 53.7527 25.5213 53.0431 25.5213 52.0852V49.3991H26.6306V51.6708C26.6306 52.1945 26.6383 52.8927 27.3494 52.8927C28.1492 52.8927 28.3219 52.0255 28.3219 51.4796V49.399H29.4311V53.6532H29.4312ZM23.2887 52.9423C23.8294 52.9423 24.2886 52.7444 24.703 52.5136V53.414C24.2994 53.6395 23.8352 53.7528 23.2398 53.7528C21.8359 53.7528 21.0179 52.9423 21.0179 51.5468C21.0179 50.3166 21.671 49.2983 22.992 49.2983C24.5712 49.2983 25.0167 50.3824 25.0167 51.8725H22.0745C22.1244 52.557 22.605 52.9423 23.2887 52.9423V52.9423ZM17.2481 53.6532H15.6694V47.8868H17.2481C19.0142 47.8868 20.5768 48.4821 20.5768 50.7724C20.5767 53.0597 19.0142 53.6532 17.2481 53.6532ZM23.0584 50.1083C22.4375 50.1083 22.1244 50.5416 22.0745 51.1082H23.9591C23.9255 50.5703 23.6786 50.1083 23.0584 50.1083V50.1083ZM17.4707 48.795H16.8279V52.7444H17.4707C18.4375 52.7444 19.3709 52.0256 19.3709 50.7724C19.3709 49.5109 18.4375 48.795 17.4707 48.795ZM53.1235 48.795H52.7189V50.5536H53.1235C53.7048 50.5536 54.2241 50.3684 54.2241 49.6944C54.2241 49.0284 53.7209 48.795 53.1235 48.795ZM57.6475 50.1576C56.928 50.1576 56.58 50.786 56.58 51.4254C56.58 52.1262 56.805 52.8928 57.6475 52.8928C58.4964 52.8928 58.721 52.1345 58.721 51.4254C58.721 50.7724 58.3751 50.1576 57.6475 50.1576V50.1576ZM47.1835 50.1083C46.5628 50.1083 46.2499 50.5416 46.2001 51.1082H48.082C48.0511 50.5703 47.8037 50.1083 47.1835 50.1083V50.1083Z" fill="#34312F"/>
</svg>
