<svg width="100" height="100" viewBox="0 0 100 100" fill="none" xmlns="http://www.w3.org/2000/svg">
<rect x="0.5" y="0.5" width="99" height="99" fill="white" stroke="#008B00"/>
<path fill-rule="evenodd" clip-rule="evenodd" d="M10 10H90V90H10V10Z" fill="white"/>
<path fill-rule="evenodd" clip-rule="evenodd" d="M74.3384 42.7573H88.8238V57.2431H74.3384V42.7573ZM76.3621 44.7532V55.2182H86.7985V44.7532H76.3621Z" fill="#393B8F"/>
<path fill-rule="evenodd" clip-rule="evenodd" d="M77.5888 53.7075L82.8066 46.0078L85.6301 45.9509L80.2401 53.7075H77.5888ZM11.1761 57.1572V51.2837H13.6854C14.484 51.2837 15.0824 51.5975 15.5386 52.2242C15.9096 52.7666 16.1092 53.4224 16.1092 54.2209C16.1092 54.9908 15.9096 55.6752 15.4817 56.245C15.0256 56.8439 14.4267 57.1577 13.6854 57.1577H11.1761V57.1572V57.1572ZM12.4026 52.3383V56.1026H13.5431C13.9996 56.1026 14.3134 55.9026 14.5412 55.532C14.7413 55.19 14.8268 54.7621 14.8268 54.2205C14.8268 53.7639 14.7413 53.336 14.5412 52.994C14.3134 52.5375 13.971 52.3383 13.5431 52.3383H12.4026ZM19.6453 55.7889H20.7858C20.7003 56.2736 20.4438 56.6156 20.0446 56.9012C19.7022 57.129 19.2747 57.2432 18.7617 57.2432C18.1628 57.2432 17.678 57.0145 17.3074 56.5874C16.9077 56.1595 16.7085 55.6171 16.7085 54.9331C16.7085 54.335 16.9077 53.8216 17.2788 53.4219C17.678 53.0223 18.1628 52.7944 18.7617 52.7944C19.6171 52.7944 20.1873 53.1082 20.5011 53.7071C20.6152 53.9063 20.7007 54.1628 20.7576 54.4197C20.8144 54.7052 20.8431 54.9904 20.8431 55.3041H17.8773C17.8773 55.532 17.9632 55.7312 18.1055 55.9308C18.3052 56.1595 18.5048 56.2736 18.7617 56.2736C18.9609 56.2736 19.1605 56.2159 19.3033 56.1595C19.4743 56.0744 19.5884 55.9599 19.6453 55.7889V55.7889ZM17.8773 54.5625H19.6453C19.6453 54.3632 19.5598 54.1628 19.3888 54.0208C19.1892 53.8498 18.9896 53.7639 18.7617 53.7639C18.5334 53.7639 18.3338 53.8498 18.1628 54.0208C18.0745 54.0808 18.0022 54.1616 17.9525 54.256C17.9027 54.3505 17.8768 54.4557 17.8773 54.5625V54.5625ZM21.5561 52.8803H22.6966V55.703C22.6966 55.8457 22.7821 55.9885 22.8963 56.1026C23.0386 56.2159 23.21 56.2736 23.381 56.2736C23.6089 56.2736 23.8089 56.2159 23.9795 56.0744C24.1509 55.9026 24.2364 55.7316 24.2364 55.532V52.8803H25.3487V57.1572H24.2364V56.6156C23.8944 57.0427 23.4665 57.2432 22.9535 57.2432C22.6182 57.2447 22.2902 57.1452 22.0122 56.9576C21.7267 56.7584 21.5561 56.4729 21.5561 56.1309V52.8803V52.8803ZM27.6011 51.6539V52.8803H28.2572V53.6789H27.6011V55.874C27.6011 55.9599 27.6579 56.045 27.7152 56.1026C27.7725 56.1595 27.8575 56.1877 27.9717 56.1877H28.1431C28.2 56.1595 28.2286 56.1595 28.2572 56.1595V57.1572C28.1145 57.1863 27.9717 57.2149 27.8862 57.2149C27.7725 57.2432 27.6297 57.2432 27.4301 57.2432C27.1445 57.2432 26.9453 57.1572 26.7457 56.9576C26.5747 56.7866 26.4892 56.587 26.4892 56.3301V53.6784H25.9185V52.8799H26.4892V52.3092L27.6011 51.6539ZM28.742 55.703H29.8825C29.8825 55.9022 29.9398 56.0744 30.1103 56.1877C30.2531 56.3019 30.4527 56.3587 30.681 56.3587C30.8806 56.3587 31.0516 56.3305 31.1658 56.2736C31.3085 56.2159 31.394 56.0744 31.394 55.9022C31.394 55.6743 31.1944 55.5033 30.7379 55.3892C29.9966 55.19 29.5687 55.0754 29.5119 55.0186C29.0557 54.8194 28.8275 54.5338 28.8275 54.135C28.8275 53.7353 28.9985 53.4215 29.3122 53.1646C29.626 52.9086 30.0539 52.794 30.5669 52.794C31.0803 52.794 31.4791 52.9081 31.8215 53.136C32.1926 53.3929 32.3918 53.7349 32.3918 54.2196H31.3368C31.3081 54.0486 31.2226 53.9059 31.0799 53.8208C30.9252 53.7268 30.7475 53.6774 30.5665 53.678C30.3955 53.678 30.2531 53.7349 30.1386 53.7913C30.0248 53.8772 29.9676 53.9623 29.9676 54.1051C29.9676 54.2761 30.1958 54.4189 30.6237 54.5048C31.2795 54.6181 31.7074 54.704 31.8497 54.7895C32.3063 54.9895 32.5341 55.3319 32.5341 55.8167C32.5341 56.3014 32.3345 56.6721 31.9357 56.9003C31.5933 57.1282 31.194 57.2423 30.681 57.2423C30.1103 57.2423 29.6542 57.0996 29.2836 56.8144C28.913 56.5583 28.742 56.1877 28.742 55.703V55.703ZM35.1862 57.2432C34.5873 57.2432 34.1025 57.0145 33.7037 56.5874C33.3327 56.1595 33.1334 55.6171 33.1334 54.9331C33.1334 54.3632 33.3327 53.8503 33.7319 53.4219C34.1312 53.0223 34.6159 52.7944 35.1862 52.7944C35.6996 52.7944 36.1557 52.9654 36.5263 53.2792C36.9252 53.5647 37.1252 53.9632 37.1252 54.4197H35.9843C35.9843 54.2205 35.8988 54.0777 35.756 53.9632C35.585 53.8212 35.414 53.7639 35.1858 53.7639C34.9007 53.7639 34.701 53.8781 34.53 54.1059C34.3873 54.3051 34.3018 54.5907 34.3018 54.9327C34.3018 55.3323 34.3873 55.6461 34.53 55.9022C34.701 56.1309 34.9007 56.2736 35.1858 56.2736C35.3854 56.2736 35.585 56.1877 35.7274 56.045C35.8988 55.9022 35.9843 55.7602 35.9843 55.5602H37.1252C37.1252 56.045 36.9256 56.4729 36.5263 56.7866C36.1275 57.0722 35.6996 57.2432 35.1862 57.2432V57.2432ZM37.8669 51.2837H39.0078V53.336C39.1502 53.1368 39.3498 52.994 39.5781 52.909C39.8059 52.8513 40.0628 52.7948 40.3193 52.7948C40.6904 52.7948 41.0323 52.909 41.3175 53.1368C41.6026 53.336 41.745 53.6498 41.745 53.9922V57.1577H40.6331V54.477C40.6331 54.2491 40.5472 54.0781 40.4335 53.964C40.3197 53.8507 40.1483 53.793 39.9491 53.793C39.7208 53.793 39.4926 53.8507 39.2929 53.9922C39.1219 54.1358 39.0078 54.306 39.0078 54.5347V57.1577H37.8669V51.2837ZM45.4234 55.7889H46.5357C46.4502 56.2736 46.1937 56.6156 45.794 56.9012C45.452 57.129 45.0241 57.2432 44.5394 57.2432C43.9409 57.2432 43.4557 57.0145 43.0565 56.5874C42.6572 56.1595 42.4862 55.6171 42.4862 54.9331C42.4862 54.335 42.6572 53.8216 43.0565 53.4219C43.4271 53.0223 43.9405 52.7944 44.5394 52.7944C45.3665 52.7944 45.9368 53.1082 46.2505 53.7071C46.3929 53.9063 46.4784 54.1628 46.5357 54.4197C46.5925 54.7052 46.5925 54.9904 46.5925 55.3041H43.6271C43.6271 55.532 43.7126 55.7312 43.8836 55.9308C44.0546 56.1595 44.2829 56.2736 44.5394 56.2736C44.739 56.2736 44.91 56.2159 45.0814 56.1595C45.2238 56.0744 45.3379 55.9599 45.4234 55.7889V55.7889ZM43.6267 54.5625H45.423C45.423 54.3632 45.3088 54.1628 45.1378 54.0208C44.9669 53.8498 44.7672 53.7639 44.539 53.7639C44.3111 53.7639 44.0828 53.8498 43.9114 54.0208C43.7408 54.1628 43.6267 54.3632 43.6267 54.5625ZM49.4152 57.1572V51.2837H52.4092C52.8371 51.2837 53.2077 51.4265 53.4929 51.7394C53.8066 52.0532 53.9776 52.4242 53.9776 52.8807C53.9776 53.1368 53.9199 53.3647 53.8066 53.5934C53.6678 53.8141 53.4702 53.9917 53.236 54.1063C53.5215 54.2205 53.7489 54.4201 53.9494 54.6488C54.1204 54.9049 54.2055 55.1618 54.2055 55.4473C54.2055 55.9312 54.0345 56.3309 53.7207 56.6447C53.407 56.9867 53.065 57.1577 52.6084 57.1577H49.4152V57.1572V57.1572ZM50.613 52.3383V53.5929H52.0672C52.2664 53.5929 52.4379 53.5361 52.5802 53.4219C52.7226 53.3078 52.7794 53.165 52.7794 52.994C52.7794 52.7948 52.7226 52.6521 52.5802 52.5093C52.445 52.3949 52.2725 52.3341 52.0955 52.3383H50.613V52.3383ZM50.613 54.6484V56.1026H52.1523C52.381 56.1026 52.552 56.045 52.723 55.874C52.8658 55.7312 52.9517 55.5602 52.9517 55.361C52.9517 55.1618 52.8658 54.9904 52.723 54.848C52.552 54.7052 52.381 54.6488 52.1523 54.6488H50.613V54.6484V54.6484ZM56.2022 54.1628H55.0609C55.0609 53.7071 55.2609 53.3643 55.6315 53.1082C55.9735 52.909 56.3732 52.7944 56.8579 52.7944C57.5137 52.7944 57.9985 52.9086 58.3122 53.1082C58.5691 53.3074 58.7111 53.5361 58.7111 53.8498V56.4729C58.7111 56.7298 58.797 56.9576 58.968 57.1568H57.7984C57.7416 57.0717 57.6851 57.0141 57.6565 56.929C57.6189 56.8466 57.5901 56.7605 57.5706 56.6721C57.4278 56.8713 57.2286 57.0141 56.9999 57.1C56.8007 57.1859 56.5442 57.2427 56.2304 57.2427C55.8307 57.2427 55.517 57.1 55.2891 56.8713C55.0322 56.6152 54.8894 56.3014 54.8894 55.9595C54.8894 55.6166 55.0036 55.3037 55.204 55.075C55.4033 54.8472 55.688 54.7044 56.0594 54.648C56.7152 54.5338 57.0289 54.4761 57.0572 54.4761C57.3992 54.391 57.5701 54.2769 57.5701 54.1624C57.5701 53.9914 57.5133 53.8494 57.3709 53.7917C57.2568 53.7067 57.0854 53.6784 56.8579 53.6784C56.6587 53.6784 56.516 53.7353 56.3732 53.7917C56.2591 53.8785 56.2022 53.9918 56.2022 54.1628V54.1628ZM57.5706 55.703V55.0472C57.1999 55.1041 56.9148 55.19 56.687 55.2464C56.2591 55.3606 56.0594 55.5602 56.0594 55.8171C56.0594 56.0163 56.0876 56.1309 56.2022 56.2159C56.3155 56.3019 56.4583 56.3301 56.6587 56.3301C56.8579 56.3301 57.0576 56.2732 57.2286 56.1591C57.3996 56.0744 57.5137 55.9026 57.5706 55.703V55.703ZM59.7096 52.8803H60.8501V53.3643C60.9985 53.1853 61.1831 53.0397 61.3918 52.9372C61.6487 52.8513 61.8765 52.7944 62.0757 52.7944C62.4754 52.7944 62.7892 52.9086 63.0735 53.08C63.359 53.3078 63.53 53.5929 63.53 53.9353V57.1577H62.3895V54.335C62.3895 54.1632 62.3326 54.0213 62.2185 53.9353C62.0757 53.822 61.933 53.7926 61.762 53.7926C61.5341 53.7926 61.3631 53.8216 61.2204 53.9067C61.0687 54.0223 60.9425 54.168 60.8497 54.3346V57.1572H59.7092V52.8803H59.7096V52.8803ZM64.4431 51.2837H65.5836V54.4201L66.8951 52.8807H68.2643L66.8669 54.506L68.4071 57.1577H67.0665L66.097 55.3332L65.584 55.8748V57.1581H64.4435V51.2837H64.4431V51.2837Z" fill="#393B8F"/>
</svg>
