<svg width="100" height="100" viewBox="0 0 100 100" fill="none" xmlns="http://www.w3.org/2000/svg">
<rect x="0.5" y="0.5" width="99" height="99" fill="white" stroke="#008B00"/>
<path fill-rule="evenodd" clip-rule="evenodd" d="M10 10H90V90H10V10Z" fill="white"/>
<path fill-rule="evenodd" clip-rule="evenodd" d="M11.1763 49.2715H14.6223V52.718H11.1763V49.2715ZM21.5122 49.2715H24.9583V52.718H21.5122V49.2715V49.2715ZM31.8482 49.2715H35.2938V52.718H31.8482V49.2715Z" fill="#989A9C"/>
<path fill-rule="evenodd" clip-rule="evenodd" d="M40.1434 54.8098C40.1434 57.0995 40.5373 57.4685 42.9984 57.4934V58.4534H34.6297V57.4934C37.0917 57.4685 37.4847 57.0995 37.4847 54.8098V42.2322C34.6542 42.2816 33.0048 44.1521 32.7587 47.5733L31.8481 47.4263L32.0208 41.4204H45.6077L45.78 47.4263L44.869 47.5733C44.6233 44.1525 42.9494 42.2816 40.1434 42.2322V54.8098V54.8098Z" fill="#BF0E88"/>
<path fill-rule="evenodd" clip-rule="evenodd" d="M42.307 49.2716H45.753V52.718H42.307V49.2716ZM52.5504 42.8186C52.5504 42.2716 52.518 42.072 52.3923 41.9454C52.2972 41.8504 52.0769 41.7881 51.8353 41.7881H51.6983V41.4511H54.1902C55.3469 41.4511 56.1566 41.7881 56.7775 42.5344C57.3133 43.176 57.598 43.9961 57.598 44.9424C57.598 46.026 57.2399 46.9615 56.5775 47.6036C55.9889 48.1921 55.2108 48.4652 54.1902 48.4652H51.6983V48.129H51.8353C52.0769 48.129 52.2972 48.0655 52.3923 47.9713C52.518 47.8443 52.5504 47.6451 52.5504 47.098V42.8186ZM53.5178 47.1404C53.5178 47.9397 53.6444 48.0875 54.3795 48.0875C55.8943 48.0875 56.4733 47.225 56.4733 44.9424C56.4733 42.7236 55.8736 41.8193 54.4015 41.8193C54.0117 41.8193 53.7706 41.8927 53.6444 42.0293C53.539 42.1554 53.5178 42.2816 53.5178 42.7236V47.1404V47.1404ZM59.2689 46.0148C59.2785 47.5504 59.6371 48.2033 60.4671 48.2033C61.0353 48.2033 61.4035 47.8978 61.7708 47.1196L62.087 47.2877C61.6355 48.2033 61.0876 48.6133 60.2995 48.6133C59.0797 48.6133 58.2907 47.6036 58.2907 46.0148C58.2907 44.5431 59.0901 43.481 60.1932 43.481C61.3404 43.481 62.0974 44.4584 62.1501 46.0148H59.2689V46.0148ZM61.1715 45.6471C61.1818 44.5224 60.8349 43.8492 60.2463 43.8492C59.6578 43.8492 59.2897 44.5435 59.2785 45.6471H61.1715V45.6471ZM66.1552 47.3828C65.7986 48.2037 65.3147 48.571 64.6312 48.571C64.1684 48.571 63.8106 48.3925 63.6106 48.0555C63.4105 47.7193 63.3479 47.3931 63.3479 46.6042V44.7959C63.3479 44.1015 63.2528 43.9546 62.8112 43.9546H62.6963V43.6284L64.2315 43.5549V46.8777C64.2315 47.3305 64.263 47.5401 64.3581 47.7405C64.4415 47.9509 64.6523 48.0879 64.8835 48.0879C65.24 48.0879 65.5774 47.8563 65.7986 47.435C65.9979 47.0781 66.0717 46.6996 66.0717 46.0999V44.7959C66.0717 44.1015 65.9767 43.9546 65.5359 43.9546H65.377V43.6284L66.9553 43.5549V47.2881C66.9553 47.9816 67.0496 48.1402 67.492 48.1402H67.6069V48.466L66.1552 48.5399V47.3828V47.3828ZM69.5198 46.8988C69.5198 47.3305 69.541 47.5193 69.5945 47.7198C69.6676 47.9721 69.8676 48.1298 70.1083 48.1298C70.508 48.1298 70.7504 47.699 70.7504 46.9511V46.8046H71.0974V47.0038C71.0974 48.0344 70.6757 48.5706 69.8456 48.5706C69.4459 48.5706 69.1201 48.444 68.9313 48.2128C68.7001 47.9397 68.637 47.6347 68.637 46.8984V43.9857H67.8792V43.691C68.7943 43.4702 69.099 43.0494 69.2256 41.8085H69.5198V43.6275H70.9401V43.9853H69.5198V46.8988V46.8988ZM74.5367 45.1536H74.2205C74.042 44.2596 73.6423 43.8284 72.9899 43.8284C72.5375 43.8284 72.2022 44.1438 72.2022 44.5643C72.2022 44.9635 72.4122 45.1536 73.0754 45.364C73.7473 45.5844 74.032 45.7106 74.2636 45.8899C74.6413 46.1841 74.8206 46.5523 74.8206 47.025C74.8206 47.9294 74.169 48.571 73.2422 48.571C72.8222 48.571 72.5799 48.4863 72.0652 48.1817C72.0308 48.1587 71.9914 48.1443 71.9502 48.1398C71.8755 48.1398 71.8133 48.2128 71.771 48.3498L71.7394 48.4656H71.4452V46.6888H71.7394C71.8755 47.1823 71.981 47.4463 72.1486 47.6662C72.4122 48.024 72.811 48.234 73.2422 48.234C73.7262 48.234 74.0843 47.8663 74.0843 47.3828C74.0843 47.0781 73.9262 46.8046 73.6531 46.6357C73.4211 46.4888 73.4107 46.4888 72.728 46.2572C71.8859 45.9837 71.4966 45.5321 71.4966 44.8477C71.4966 44.0696 72.0748 43.523 72.9169 43.523C73.2534 43.523 73.61 43.628 73.905 43.8068C73.9681 43.8384 74.02 43.86 74.0632 43.86C74.1263 43.86 74.1889 43.7753 74.2205 43.6284H74.5367V45.1536V45.1536ZM79.1515 47.2354C78.773 48.1817 78.2371 48.6133 77.4274 48.6133C76.218 48.6133 75.3871 47.5621 75.3871 46.0264C75.3871 44.5327 76.2707 43.4815 77.532 43.4815C78.4052 43.4815 79.0884 44.0808 79.0884 44.8386C79.0884 45.2271 78.8356 45.501 78.4895 45.501C78.1849 45.501 77.9537 45.2582 77.9537 44.9324C77.9537 44.6386 78.1637 44.3962 78.4472 44.3962C78.4895 44.3962 78.5102 44.3962 78.5526 44.4273C78.3953 44.0592 78.0483 43.8488 77.6271 43.8488C76.8173 43.8488 76.4073 44.5742 76.4073 46.026C76.4073 47.5085 76.797 48.2128 77.5955 48.2128C78.1218 48.2128 78.521 47.8563 78.8153 47.0985L79.1515 47.2354V47.2354ZM82.9266 45.3317C82.9266 44.7224 82.8959 44.4796 82.7693 44.2908C82.6535 44.0808 82.4647 43.9753 82.243 43.9753C81.8961 43.9753 81.5703 44.2069 81.3706 44.6066C81.181 44.9959 81.1071 45.4055 81.1071 46.1306V47.2877C81.1071 47.9929 81.2021 48.1398 81.6437 48.1398H81.8114V48.4656H79.5192V48.1398H79.6877C80.1293 48.1398 80.2235 47.9816 80.2235 47.2877V42.6186C80.2235 41.9247 80.1293 41.7777 79.6877 41.7777H79.5719V41.4511L81.1071 41.3777V44.5004C81.4437 43.8172 81.8537 43.523 82.4643 43.523C82.9058 43.523 83.2636 43.6807 83.4744 43.9749C83.7363 44.3426 83.8102 44.6797 83.8102 45.5944V47.2877C83.8102 47.9929 83.9052 48.1398 84.3468 48.1398H84.4618V48.4656H82.9266V45.3317V45.3317ZM85.9422 46.0148C85.9534 47.5504 86.3104 48.2033 87.1421 48.2033C87.7094 48.2033 88.0776 47.8978 88.4465 47.1196L88.7611 47.2877C88.3096 48.2033 87.7626 48.6133 86.9736 48.6133C85.7538 48.6133 84.9648 47.6036 84.9648 46.0148C84.9648 44.5431 85.7642 43.481 86.869 43.481C88.0153 43.481 88.7723 44.4584 88.8242 46.0148H85.9422V46.0148ZM87.846 45.6471C87.8555 44.5224 87.5094 43.8492 86.9204 43.8492C86.3315 43.8492 85.963 44.5435 85.9534 45.6471H87.846ZM54.7165 57.1082C54.7165 57.6652 54.748 57.8553 54.8746 57.9806C54.9792 58.0756 55.19 58.1383 55.4307 58.1383H55.6739V58.4749H52.7932V58.1383H53.0339C53.2763 58.1383 53.4855 58.0756 53.5926 57.9806C53.7175 57.8553 53.7499 57.6652 53.7499 57.1082V51.7975H53.5286C52.9086 51.7975 52.4035 52.1336 52.1619 52.7122C52.025 53.0276 51.9619 53.3434 51.9092 53.9112L51.6046 53.89L51.6573 51.4604H56.8418L56.8833 53.89L56.5687 53.9112C56.3687 52.3756 55.8952 51.7975 54.8754 51.7975H54.7173V57.1082H54.7165V57.1082ZM58.353 56.0254C58.3625 57.5602 58.7211 58.2122 59.5512 58.2122C60.1193 58.2122 60.4875 57.9076 60.8556 57.1298L61.171 57.297C60.7187 58.2122 60.1716 58.6222 59.3835 58.6222C58.1637 58.6222 57.3739 57.6121 57.3739 56.0254C57.3739 54.5524 58.1733 53.4912 59.2772 53.4912C60.4236 53.4912 61.1806 54.4686 61.2341 56.0254H58.353V56.0254ZM60.2563 55.6568C60.2659 54.5317 59.9185 53.8581 59.33 53.8581C58.7414 53.8581 58.3733 54.5524 58.3629 55.6568H60.2563ZM63.3358 57.2966C63.3358 58.0014 63.4309 58.1491 63.8725 58.1491H64.041V58.4745H61.7479V58.1491H61.9164C62.3572 58.1491 62.4522 58.0018 62.4522 57.2966V52.6283C62.4522 51.9344 62.3572 51.7875 61.9164 51.7875H61.8015V51.4609L63.3358 51.387V57.2966ZM65.5123 56.0254C65.5226 57.5602 65.8804 58.2122 66.7105 58.2122C67.2787 58.2122 67.6476 57.9076 68.0157 57.1298L68.3312 57.297C67.8788 58.2122 67.3318 58.6222 66.5428 58.6222C65.323 58.6222 64.5349 57.6121 64.5349 56.0254C64.5349 54.5524 65.3342 53.4912 66.4374 53.4912C67.5837 53.4912 68.3415 54.4686 68.3934 56.0254H65.5123ZM67.4156 55.6568C67.426 54.5317 67.079 53.8581 66.4901 53.8581C65.9016 53.8581 65.5326 54.5524 65.5231 55.6568H67.4156ZM72.4309 58.4745L70.9168 56.0349L70.496 56.4035V57.2966C70.496 58.0014 70.5902 58.1491 71.0318 58.1491H71.2318V58.4745H68.9076V58.1491H69.0762C69.5177 58.1491 69.612 57.9918 69.612 57.2966V52.6283C69.612 51.9344 69.5177 51.7875 69.0762 51.7875H68.9604V51.4609L70.4956 51.387V55.8984L71.9158 54.679C72.1046 54.5109 72.2204 54.3316 72.2204 54.1951C72.2204 54.0374 72.0835 53.9635 71.7672 53.9635H71.6099V53.6377H73.6818V53.9635H73.5763C73.2717 53.9635 73.1347 54.0374 72.7031 54.4263L71.5473 55.4568L72.8181 57.4867C73.1343 57.9918 73.3344 58.1491 73.671 58.1491H73.7544V58.4745H72.4309V58.4745ZM78.4658 56.0561C78.4658 57.5913 77.6138 58.6222 76.3305 58.6222C75.0588 58.6222 74.2068 57.5917 74.2068 56.0673C74.2068 54.5001 75.0588 53.4912 76.362 53.4912C77.6138 53.4908 78.4658 54.5317 78.4658 56.0561ZM75.4681 54.4574C75.3004 54.8359 75.2265 55.3306 75.2265 56.0349C75.2265 57.5494 75.5839 58.2857 76.3305 58.2857C77.0771 58.2857 77.4453 57.5498 77.4453 56.0561C77.4453 55.331 77.3714 54.8259 77.2037 54.4574C77.0244 54.0581 76.6986 53.8261 76.3209 53.8261C75.9732 53.8265 75.6357 54.0793 75.4681 54.4574ZM84.7 55.5203C84.7 54.8471 84.6577 54.4997 84.5639 54.3105C84.4481 54.1005 84.2593 53.9851 84.0273 53.9851C83.733 53.9851 83.4695 54.1739 83.2914 54.5109C83.1121 54.8475 83.0702 55.1098 83.0702 55.9831V57.297C83.0702 58.0018 83.1652 58.1495 83.606 58.1495H83.7542V58.4749H82.1866V55.6784C82.1866 54.7849 82.1654 54.574 82.0397 54.3321C81.9247 54.1108 81.735 53.9855 81.4927 53.9855C81.1976 53.9855 80.9357 54.1743 80.7672 54.5113C80.5987 54.8579 80.5572 55.1625 80.5572 55.9835V57.2975C80.5572 58.0134 80.6414 58.1499 81.093 58.1499H81.2403V58.4753H78.9689V58.1499H79.1365C79.5677 58.1499 79.6732 57.9814 79.6732 57.2975V54.806C79.6732 54.1328 79.5677 53.9643 79.1365 53.9643H79.0216V53.6385L80.4928 53.5647V54.4271C80.6929 53.8909 81.1876 53.5335 81.7242 53.5335C82.3136 53.5335 82.6913 53.8274 82.9548 54.491C83.2586 53.8386 83.6803 53.5335 84.2593 53.5335C84.7108 53.5335 85.1105 53.7431 85.3205 54.0905C85.5205 54.396 85.584 54.7434 85.584 55.4057V57.2979C85.584 57.9931 85.6791 58.1504 86.1207 58.1504H86.2348V58.4757H84.7004V55.5203H84.7V55.5203Z" fill="#989A9C"/>
</svg>
