<svg width="100" height="100" viewBox="0 0 100 100" fill="none" xmlns="http://www.w3.org/2000/svg">
<rect x="0.5" y="0.5" width="99" height="99" fill="white" stroke="#008B00"/>
<g clip-path="url(#clip0_31_29)">
<path d="M10 28.0077H90V71.9937H10V28.0077Z" fill="#EA2D31"/>
<path d="M14.8917 35.5731V60.5318H20.2825C27.4122 61.1817 27.4093 52.3145 27.4093 52.3145V44.5994C27.3265 35.4117 20.6095 35.5731 20.6095 35.5731H14.892H14.8917ZM19.8989 39.4381C22.6829 39.2424 22.6019 43.2049 22.6016 43.2049V52.7196C22.6844 57.4358 19.6144 56.7096 19.6144 56.7096V39.4664C19.7098 39.4508 19.8089 39.4441 19.8989 39.4381V39.4381ZM29.7305 35.5686H34.3729V60.5293H29.7305V35.5686ZM47.5543 60.4594V56.7891H41.5026V49.7967H45.7309V45.813H41.5854V39.5525H47.389V35.5682H36.7766V60.5092L47.5543 60.4594ZM56.1754 42.7231H60.2376C60.2376 42.7231 60.7347 34.9995 54.3512 34.9995C47.9678 34.9995 48.3002 41.0156 48.3002 41.0156C48.3002 41.0156 47.4711 45.8936 52.777 49.796C52.777 49.796 58.3313 52.9676 56.259 56.3818C56.259 56.3818 52.9427 59.3089 52.8591 53.455H48.6316C48.6316 53.455 47.8857 61.5042 54.8493 61.1793C54.8493 61.1793 60.5686 61.0977 60.9839 55.2437C60.9839 55.2437 61.6473 50.9344 57.1705 46.9501C57.1705 46.9501 50.7871 42.8852 53.108 39.6331C53.1083 39.6331 55.7612 36.9507 56.1751 42.7231H56.1754ZM62.4541 35.5686H73.0744V39.6334H67.2848V45.8943H71.5956V50.0408H67.2016V56.7891H73.2537V60.6918H62.5589L62.4541 35.5686ZM75.473 35.5686H80.1331V56.7891H85.0255V60.6918H75.473V35.5686ZM83.2459 35.9765C83.35 35.9553 83.5024 35.9412 83.6414 35.9412C83.8622 35.9412 84.007 35.9836 84.106 36.0719C84.1845 36.139 84.2317 36.246 84.2317 36.3693C84.2317 36.5735 84.0966 36.7112 83.931 36.7667V36.7737C84.0523 36.8158 84.1254 36.9274 84.1651 37.0902C84.2176 37.3082 84.2551 37.4593 84.2868 37.5198H84.0732C84.0469 37.4752 84.012 37.3407 83.9688 37.1453C83.9216 36.9295 83.8341 36.8479 83.6468 36.8409H83.4523V37.5198H83.2467V35.9769H83.2459V35.9765ZM83.4516 36.6876H83.6626C83.8827 36.6876 84.0228 36.5696 84.0228 36.3905C84.0228 36.1881 83.8737 36.1002 83.6554 36.1002C83.5557 36.1002 83.4865 36.1093 83.4516 36.1192V36.6876Z" fill="white"/>
<path d="M85.0982 36.7883C85.0982 37.153 84.9505 37.5027 84.6876 37.7606C84.4246 38.0185 84.068 38.1634 83.6961 38.1634H83.6954C83.5113 38.1635 83.3289 38.1281 83.1587 38.0591C82.9886 37.9902 82.8339 37.8889 82.7037 37.7613C82.5734 37.6336 82.4701 37.4821 82.3996 37.3152C82.3292 37.1484 82.2929 36.9696 82.293 36.789V36.7883C82.2929 36.6077 82.3291 36.4289 82.3995 36.262C82.4699 36.0952 82.5731 35.9436 82.7033 35.8159C82.8335 35.6882 82.988 35.5869 83.1581 35.5178C83.3282 35.4487 83.5106 35.4131 83.6947 35.4132V35.4125H83.6961V35.4132C84.0829 35.4132 84.4334 35.5672 84.6873 35.8159C84.8177 35.9432 84.9211 36.0946 84.9915 36.2613C85.062 36.428 85.0981 36.6067 85.0979 36.7872H85.0986V36.7883H85.0982ZM84.7806 36.7883V36.7876C84.7806 36.4944 84.6585 36.2291 84.4622 36.037V36.0363C84.3618 35.9373 84.2424 35.8588 84.1109 35.8053C83.9795 35.7519 83.8385 35.7245 83.6961 35.7247H83.6947C83.3961 35.7247 83.1249 35.8445 82.9286 36.037C82.8276 36.1354 82.7474 36.2525 82.6927 36.3815C82.6381 36.5106 82.6101 36.6489 82.6103 36.7886H82.6113V36.7897H82.6103C82.6106 37.0825 82.7327 37.3474 82.9286 37.5403C83.0291 37.6395 83.1487 37.7181 83.2803 37.7717C83.412 37.8253 83.5532 37.8528 83.6958 37.8525V37.8522H83.6961C83.9951 37.8522 84.2659 37.7335 84.4633 37.541H84.4622C84.563 37.4422 84.643 37.325 84.6976 37.1959C84.7521 37.0668 84.7802 36.9284 84.7802 36.7886L84.7806 36.7883Z" fill="white"/>
</g>
<defs>
<clipPath id="clip0_31_29">
<rect width="80" height="44" fill="white" transform="translate(10 28)"/>
</clipPath>
</defs>
</svg>
