<svg width="100" height="100" viewBox="0 0 100 100" fill="none" xmlns="http://www.w3.org/2000/svg">
<rect x="0.5" y="0.5" width="99" height="99" fill="white" stroke="#008B00"/>
<path d="M10 10H90V90H10V10Z" fill="white"/>
<path d="M50.239 37.4445C50.7672 37.4692 51.2717 37.6709 51.6713 38.0172C52.2158 38.5327 52.3586 39.3922 52.1009 40.08C51.099 42.1423 48.7163 43.5198 47.0881 43.9755C46.114 44.2046 44.8826 44.2046 43.9945 43.8609C43.5645 44.1186 43.2018 44.9516 42.6767 44.6055C41.9168 44.012 42.5746 43.0831 42.136 42.4241C42.0455 42.2883 41.8176 42.2784 41.7031 42.0563C41.1013 40.7386 41.8463 39.4782 42.6767 38.4759C44.0613 36.9311 48.0336 35.21 50.239 37.4445ZM45.6272 38.4754C44.8536 38.6186 43.9799 38.9552 43.5076 39.5068C43.0349 40.058 42.7344 40.5954 43.0208 41.1682C44.0235 40.4236 44.5104 39.3923 45.6276 38.7622C45.6272 38.6473 45.799 38.5614 45.6272 38.4754ZM50.2967 38.7622C48.3199 38.59 46.8304 40.08 45.4267 41.5118C45.3408 41.7409 44.8254 41.9987 45.2263 42.2564C47.1172 42.4282 48.9217 41.8845 50.2967 40.6237C50.6981 40.2514 50.9836 39.7645 50.784 39.2486C50.6981 39.0486 50.4959 38.8481 50.2967 38.7622ZM67.4255 47.2982C68.3423 49.5327 69.1155 53.0555 67.4255 55.2042C66.9673 55.7196 66.1655 56.1948 65.65 55.8055C63.7591 54.2878 62.9577 52.1105 61.7832 50.1623C61.6113 50.0764 61.6113 50.3059 61.5254 50.3919C61.0959 52.3682 61.8977 54.9464 60.5518 56.4928C60.0363 56.5788 59.554 56.3135 59.3772 55.8055C58.7182 53.7719 59.405 51.6519 59.5769 49.6182C59.9782 48.5869 60.15 47.3841 61.0382 46.6105C62.4705 47.1832 63.1578 48.7878 63.9878 49.9623C64.59 50.8501 65.0765 51.8528 65.7637 52.6546C66.3651 52.3969 66.0692 51.6108 66.0505 51.1364C65.8206 49.2746 65.3051 47.5559 64.8179 45.78C64.7901 45.3218 64.5323 44.5482 65.0183 44.2618C66.3091 44.835 66.8524 46.1809 67.4255 47.2982V47.2982ZM58.775 46.6105C58.775 47.0405 58.4314 47.5775 58.1442 47.6419C55.3946 48.0714 52.3296 47.8137 49.7518 48.6728C49.6659 48.9878 50.0382 49.0451 50.2386 49.131C52.4437 49.4746 54.7646 49.5605 56.9132 50.1051C58.0491 50.3935 58.4604 51.7382 58.5463 52.8551C58.599 53.7358 58.2604 54.8028 57.4004 55.4046C55.2813 56.751 52.0444 56.6933 49.8954 55.4623C49.074 55.0016 48.2913 54.2595 48.234 53.3427C48.239 52.6148 48.5494 52.0416 49.0649 51.7673C51.1276 50.9364 53.6768 51.3954 55.4531 52.4546C55.5668 53.0277 54.9468 52.9966 54.65 53.1996C52.6732 54.3455 51.1841 51.9113 49.3509 52.7982C49.0931 52.97 48.9068 53.4494 49.2077 53.6005C51.4704 54.6032 53.9914 53.8868 56.2255 53.2568C56.4832 53.1709 56.7986 52.9132 56.8269 52.6554C56.7409 51.7386 55.71 51.5386 55.0509 51.2809C53.1032 50.794 50.955 50.794 48.8636 50.5936C48.4627 50.5077 47.9518 50.2283 47.8327 49.9063C47.6036 49.219 47.6036 48.2735 48.1191 47.7008C50.7827 45.3517 54.8214 45.5526 58.2014 46.1826C58.431 46.2669 58.6887 46.3528 58.775 46.6105V46.6105ZM46.2576 47.6991C46.5154 50.4487 46.6586 52.9987 46.6013 55.8915C46.544 56.2633 46.1144 56.3497 45.8281 56.4928C45.3699 56.5788 44.7776 56.4812 44.5963 56.2351C43.9376 55.1747 44.1667 53.7432 44.1094 52.4542C44.1953 50.4209 44.1667 48.215 44.7399 46.3241C44.8494 46.0494 45.1694 45.8087 45.4272 45.9801C46.1145 46.3241 46.229 47.0118 46.2576 47.6991V47.6991ZM78.0823 47.2982C78.2201 47.5298 78.3641 47.8876 78.0823 48.0428C76.7932 48.6155 75.0464 48.3578 73.5564 48.5296C73.1555 48.8733 72.84 49.446 72.9828 49.9619C73.1268 50.0478 73.2551 50.1785 73.4132 50.1619C74.3292 50.2196 75.7046 49.7324 76.3068 50.5915C76.4537 50.8472 76.2869 51.8017 75.8773 51.8233C74.7596 51.9673 72.9218 51.683 72.3819 51.9673C71.6946 52.4255 71.7514 53.3133 71.4937 54.03C71.9809 54.345 72.491 54.0226 73.0687 53.9437C74.1296 53.7719 75.3041 53.4569 76.3633 53.686C76.5637 54.0583 76.8505 54.4596 76.6496 54.9178C74.8438 56.3501 72.5147 57.818 70.0332 56.7796C69.1019 56.3621 68.6868 54.9464 69.0022 53.7441C69.2023 52.8845 70.09 52.0541 69.5464 51.1373C69.4604 50.7359 69.69 50.3927 70.0336 50.3068C70.9786 50.3068 70.7778 49.1322 71.265 48.5877C70.7209 47.9863 69.3463 48.015 69.4895 46.8118C70.1486 46.4681 70.9508 46.5827 71.6946 46.4681C73.3846 46.1241 75.275 45.9236 76.9949 46.1241C77.3373 46.193 77.796 46.8686 78.0823 47.2982ZM37.1771 40.7673C39.8205 42.9279 43.2499 46.6109 42.8203 50.8501C42.3045 54.2019 38.7526 56.7224 35.7449 57.5246C32.823 58.3837 29.1566 58.2978 26.1771 57.6105C25.9767 58.155 25.7762 58.8133 25.1462 59.0428C24.7453 59.186 24.2294 59.1001 23.9144 58.8423C23.0266 58.0114 23.7425 56.4073 22.4535 55.8923C19.9325 54.8323 17.2112 52.7409 15.9225 50.1632C15.7507 49.6477 15.9511 49.1322 16.2661 48.7313C18.2429 47.1559 20.7348 46.5258 23.2271 46.0386C23.3703 46.0959 23.313 45.8954 23.4275 45.8381C23.5707 44.1195 23.628 42.3718 24.1721 40.8249C24.2962 40.6079 24.6017 40.5386 24.8025 40.6818C26.378 41.8845 25.633 44.1481 26.3207 45.7804C29.3285 45.9236 32.3362 46.0668 34.7135 47.7572C35.5158 48.4159 35.7112 49.6739 35.4581 50.3927C35.2053 51.1103 34.3699 51.6245 33.5962 51.681C33.0804 51.681 32.1067 51.7312 32.164 51.3377C32.2212 50.9439 33.9162 50.2993 33.3958 49.7618C32.6475 48.9895 28.9035 48.53 26.583 48.2437C26.2967 48.1864 26.0339 48.2723 26.0339 48.5873C25.9767 50.7641 25.8048 53.1701 26.1771 55.2619C26.2058 55.4055 26.3776 55.5773 26.5212 55.6051C30.6171 56.2642 34.9426 55.8915 38.1508 53.5428C39.6404 52.3404 40.1276 50.6492 39.8695 48.7878C38.5804 43.6032 33.1667 40.4805 28.7267 38.4754C24.4016 36.585 19.6175 35.6109 14.4902 35.869C13.6739 35.9288 12.3802 36.2106 12.3707 36.4995C12.3611 36.7883 13.8361 36.6974 13.6593 37.244C13.4829 37.7902 11.9838 37.4661 11.5398 37.33C11.0957 37.1938 11.1388 36.5563 11.2534 36.1554C12.3707 34.179 15.4884 34.0192 16.8966 33.9499C24.6876 33.7491 32.2217 36.7161 37.1771 40.7673V40.7673ZM23.1412 48.4441C21.1644 48.4727 19.0734 48.6732 17.2402 49.3605C16.8679 49.5037 16.4093 49.9046 16.6957 50.3919C17.4403 51.3942 18.5052 52.2172 19.503 52.7978C20.5007 53.3776 21.8234 54.1155 23.0266 54.2878C23.313 52.4255 23.313 50.5923 23.2843 48.6732C23.1694 48.6159 23.2839 48.5014 23.1412 48.4441V48.4441ZM82.3497 45.8373C82.2638 48.3291 79.9429 49.8764 79.9429 52.3682C80.0288 52.4542 80.0869 52.5687 80.2007 52.5123C82.0633 50.4782 83.8961 47.585 86.6175 46.7259C87.3346 46.6686 87.9825 47.2916 88.2506 47.7572C89.1961 49.6477 88.9678 52.3118 87.6497 54.0305C86.2896 55.7176 83.9252 57.4105 81.2337 57.1237C80.1168 59.8737 79.3419 62.7669 78.9124 65.7746C78.6833 66.376 78.1396 65.8319 77.796 65.7174C75.4759 63.8842 77.3809 59.0312 77.5382 58.412C77.6955 57.7944 78.3164 56.3376 78.7705 55.1178C77.6818 53.1705 78.3691 50.821 79.2569 49.0164C79.9442 47.8133 80.8904 46.6101 82.0073 45.6937C82.1492 45.6941 82.2638 45.7227 82.3497 45.8373V45.8373ZM86.9624 48.9309C86.6187 48.8737 86.4751 49.3323 86.1892 49.4182C84.8718 50.9077 83.5537 52.3973 82.8946 54.1732C83.7832 54.2878 84.5274 53.715 85.3014 53.4C86.6187 52.5691 87.4496 51.1949 87.3637 49.6191C87.306 49.3605 87.0769 49.16 86.9624 48.9309Z" fill="black"/>
</svg>
