<svg width="100" height="100" viewBox="0 0 100 100" fill="none" xmlns="http://www.w3.org/2000/svg">
<rect x="0.5" y="0.5" width="99" height="99" fill="white" stroke="#008B00"/>
<g clip-path="url(#clip0_24_118)">
<path d="M50.0021 10C49.6349 9.99854 49.271 10.07 48.9316 10.2102C48.5922 10.3503 48.2839 10.5565 48.0247 10.8167L10.8165 48.0226C10.2931 48.5476 9.99927 49.2587 9.99927 50C9.99927 50.7413 10.2931 51.4524 10.8165 51.9774L48.0224 89.1857C48.5478 89.711 49.252 90 49.9998 90C50.7477 90 51.4519 89.711 51.9772 89.1857L89.1832 51.9774C89.4427 51.7183 89.6482 51.4104 89.788 51.0713C89.9278 50.7323 89.999 50.369 89.9976 50.0023C89.9993 49.6352 89.9282 49.2714 89.7885 48.932C89.6487 48.5926 89.4429 48.2843 89.1832 48.0249L51.9772 10.8167C51.7186 10.5564 51.4108 10.3501 51.0717 10.2099C50.7327 10.0697 50.3691 9.99834 50.0021 10V10Z" fill="#2360A5"/>
<path d="M88.8805 48.3277C89.3235 48.7715 89.5722 49.373 89.5722 50C89.5722 50.6271 89.3235 51.2285 88.8805 51.6723L51.6746 88.8806C51.2296 89.3233 50.6354 89.571 50.0023 89.571C49.3692 89.571 48.775 89.3256 48.33 88.8806L11.1218 51.6723C10.6767 51.2296 10.4313 50.6354 10.4313 50C10.4313 49.3646 10.6744 48.7704 11.1218 48.3277L48.3277 11.1195C48.7727 10.6767 49.3669 10.4313 50 10.4313C50.6331 10.4313 51.2273 10.6767 51.6723 11.1195L88.8805 48.3277V48.3277Z" fill="white"/>
<path d="M30.7398 30.4324L12.794 48.3782C12.3921 48.7819 12.1665 49.3283 12.1665 49.8979C12.1665 50.4676 12.3921 51.014 12.794 51.4177L28.7096 67.3333C29.1137 67.7353 29.6605 67.961 30.2305 67.961C30.8005 67.961 31.3474 67.7353 31.7514 67.3333L49.6949 49.3898L30.7398 30.4324V30.4324ZM48.4791 12.6908L31.8547 29.3176L50.8121 48.2749L67.4388 31.6482C67.8397 31.2436 68.0646 30.697 68.0646 30.1273C68.0646 29.5577 67.8397 29.0111 67.4388 28.6064L51.5232 12.6908C51.1181 12.2898 50.5712 12.0648 50.0011 12.0648C49.4311 12.0648 48.8841 12.2898 48.4791 12.6908V12.6908Z" fill="#CF4037"/>
<path d="M23.4381 54.7646C26.0137 54.7646 28.1017 52.6766 28.1017 50.1009C28.1017 47.5253 26.0137 45.4373 23.4381 45.4373C20.8624 45.4373 18.7744 47.5253 18.7744 50.1009C18.7744 52.6766 20.8624 54.7646 23.4381 54.7646Z" fill="white"/>
<path d="M37.0252 54.9665C39.6009 54.9665 41.6889 52.8785 41.6889 50.3028C41.6889 47.7271 39.6009 45.6392 37.0252 45.6392C34.4496 45.6392 32.3616 47.7271 32.3616 50.3028C32.3616 52.8785 34.4496 54.9665 37.0252 54.9665Z" fill="white"/>
<path d="M50.406 34.69C52.9816 34.69 55.0696 32.602 55.0696 30.0264C55.0696 27.4507 52.9816 25.3627 50.406 25.3627C47.8303 25.3627 45.7423 27.4507 45.7423 30.0264C45.7423 32.602 47.8303 34.69 50.406 34.69Z" fill="white"/>
<path d="M68.3518 32.5612L32.6645 68.2485C32.2624 68.6526 32.0367 69.1994 32.0367 69.7694C32.0367 70.3395 32.2624 70.8863 32.6645 71.2903L48.58 87.2059C48.9841 87.608 49.5309 87.8337 50.1009 87.8337C50.671 87.8337 51.2178 87.608 51.6218 87.2059L87.3091 51.5186C87.7105 51.1146 87.9357 50.5683 87.9357 49.9988C87.9357 49.4294 87.7105 48.8831 87.3091 48.4791L71.3936 32.5635C70.9901 32.1606 70.4433 31.9341 69.8731 31.9337C69.303 31.9333 68.7559 32.1589 68.3518 32.5612Z" fill="#2360A5"/>
<path d="M41.6133 76.4655L34.8988 69.7511L36.7753 67.8746C38.7596 65.8903 41.9619 66.7162 43.8935 70.2145C44.7904 71.8363 44.6918 73.3893 43.554 74.5271L41.6133 76.4655V76.4655Z" fill="white"/>
<path d="M41.0925 70.7399C39.3927 68.8381 38.3214 69.758 38.3214 69.758L41.6408 73.0751C41.6408 73.0774 42.4643 72.2791 41.0925 70.7399V70.7399Z" fill="#2360A5"/>
<path d="M44.1069 69.3405C42.7878 68.0214 42.5951 66.3147 43.5448 65.0324C44.8317 63.3211 46.9766 63.2981 48.564 64.8856C50.0391 66.3445 50.1331 68.2623 48.8118 69.5813C47.4836 70.9072 45.5727 70.8063 44.1069 69.3405Z" fill="white"/>
<path d="M47.0409 68.3448C47.4377 68.3792 47.6189 68.198 47.5868 67.8012C47.5708 67.4364 47.2175 66.8492 46.5958 66.3284C46.2104 66.0027 45.8824 65.849 45.6186 65.8329C45.2355 65.8123 45.052 65.9935 45.0749 66.3789C45.0933 66.6886 45.3341 67.1336 45.8021 67.6016C46.2861 68.0856 46.7312 68.3265 47.0409 68.3448V68.3448Z" fill="#2360A5"/>
<path d="M63.2156 50.2317C61.8966 48.9126 61.7039 47.2036 62.6536 45.9213C63.9405 44.21 66.0854 44.1871 67.6728 45.7745C69.1478 47.2335 69.2419 49.1535 67.9206 50.4726C66.5924 51.7985 64.6838 51.6952 63.2156 50.2317Z" fill="white"/>
<path d="M66.1519 49.2361C66.5488 49.2705 66.73 49.0893 66.6979 48.6902C66.6818 48.3254 66.3286 47.7404 65.7069 47.2197C65.3238 46.8917 64.9935 46.7403 64.732 46.7242C64.3466 46.7036 64.1654 46.8848 64.186 47.2702C64.2067 47.5822 64.4452 48.0249 64.9155 48.4929C65.3949 48.9769 65.84 49.2155 66.1519 49.2361V49.2361Z" fill="#2360A5"/>
<path d="M51.2639 66.8172L46.5636 62.1145L48.2657 60.4124L48.8622 61.0088C48.8406 60.9435 48.8275 60.8756 48.8232 60.807C48.7393 60.3493 48.8214 59.8767 49.0548 59.4741C49.5618 58.5933 50.5551 58.2928 51.2961 58.5772C51.2915 58.5084 51.0598 57.5954 51.4543 57.0173C52.0944 56.0814 53.0303 55.852 53.8401 56.2741C53.9662 56.3337 54.0924 56.414 54.2025 56.508L54.23 56.5379L54.9114 57.2169L57.8866 60.1922L56.1272 61.9516L53.4042 59.2448C53.2276 59.0865 53.0693 59.0406 52.9133 59.0635C52.6885 59.1025 52.4568 59.3916 52.5027 59.6967C52.5402 59.8502 52.6224 59.9891 52.739 60.0958L55.3518 62.7247L53.691 64.3856L51.202 61.8966C50.679 61.3713 50.1881 61.4539 50.0504 61.8369C49.9839 62.0136 50.0321 62.2269 50.2294 62.4403L52.9271 65.154L51.2639 66.8172V66.8172ZM55.5697 53.1084L60.2678 57.8087L58.4555 59.621L53.7552 54.9229L55.5697 53.1084ZM60.956 57.1228L56.2556 52.4202L58.0174 50.6607L58.6689 51.3122V51.2961L58.6184 51.0644C58.4831 50.4726 58.5358 50.1033 58.9006 49.5711C59.6805 48.3805 60.7908 48.4814 62.1442 49.8326L65.1929 52.8836L63.4335 54.643L60.9514 52.1632C60.3917 51.6035 59.9971 51.5668 59.8319 51.9568C59.7195 52.2 59.825 52.4706 60.3641 53.0097L62.7131 55.3588L60.956 57.1228V57.1228ZM71.4945 45.7837L70.8544 44.0036C71.0265 43.9623 71.0678 43.9554 71.3568 43.8705C72.123 43.6274 72.3455 43.3108 72.3019 43.0562C72.2721 42.8635 72.0978 42.7373 71.8753 42.8107C71.8036 42.8305 71.7354 42.8614 71.6734 42.9025L71.5472 42.9713L71.3706 43.0722L71.2215 43.1663L71.054 43.2603C70.1571 43.7466 68.9298 43.219 68.4412 42.0308C67.9732 40.8952 68.3425 39.668 69.8933 38.6953C70.1181 38.5462 70.3452 38.4292 70.609 38.3168L70.7099 38.2709L70.82 38.2342L71.5679 40.0258C71.3087 40.0602 71.3362 40.0694 71.0999 40.1726C70.9399 40.2426 70.7907 40.3353 70.6572 40.4479C70.5862 40.5252 70.5246 40.6107 70.4736 40.7025C70.3819 40.8884 70.4805 41.0696 70.648 41.1063C70.7411 41.1235 70.8373 41.1115 70.9233 41.0719C70.9575 41.058 70.9912 41.0427 71.0242 41.026L71.1228 40.9641L71.678 40.6727C72.49 40.1956 73.4879 40.4296 74.183 41.4664C74.8987 42.524 74.7244 43.9302 73.3205 45.0175C72.8417 45.3849 72.2841 45.6362 71.6917 45.7516C71.6229 45.7653 71.5541 45.7791 71.4945 45.7837V45.7837Z" fill="white"/>
<path d="M53.2208 53.9296C54.005 53.9296 54.6407 53.2939 54.6407 52.5096C54.6407 51.7254 54.005 51.0897 53.2208 51.0897C52.4365 51.0897 51.8008 51.7254 51.8008 52.5096C51.8008 53.2939 52.4365 53.9296 53.2208 53.9296Z" fill="white"/>
<path d="M52.0186 73.6898L56.7167 78.3924L54.9045 80.2024L50.2064 75.4998L52.0186 73.6898Z" fill="white"/>
<path d="M49.6719 74.5065C50.4561 74.5065 51.0919 73.8707 51.0919 73.0865C51.0919 72.3023 50.4561 71.6666 49.6719 71.6666C48.8877 71.6666 48.252 72.3023 48.252 73.0865C48.252 73.8707 48.8877 74.5065 49.6719 74.5065Z" fill="white"/>
<path d="M66.6611 44.3201L68.0122 42.9713L66.1197 38.7458L64.4313 40.4364L66.6611 44.3201ZM50.0229 84.9533L43.3085 78.2388L45.2744 76.2729C46.7586 74.7887 48.4584 74.6533 50.0137 76.2316C52.1104 78.3581 50.3395 80.2736 50.2408 80.3722L49.5549 81.0581L51.7365 83.2397L50.0229 84.9533Z" fill="white"/>
<path d="M48.2475 79.2115C48.5021 78.9568 48.5044 78.6747 48.3048 78.3512C47.9355 77.7318 47.2037 77.3969 46.8298 77.7685L46.5476 78.0507L47.9768 79.4799L48.2475 79.2115V79.2115Z" fill="#2360A5"/>
<path d="M64.2294 62.571L63.7179 62.0594L65.4108 60.3665L70.0102 64.9636L68.3173 66.6565L67.7438 66.083C68.0902 66.7575 67.9181 67.5879 67.0625 68.1155C66.3307 68.5904 65.1814 68.4458 63.9381 67.4984C62.236 66.1886 61.713 64.3786 62.2497 63.3624C62.7361 62.4586 63.5894 62.2452 64.2294 62.571V62.571Z" fill="white"/>
<path d="M66.4271 65.8421C66.9157 65.7962 66.8469 65.2686 66.2574 64.5942C65.5967 63.8349 65.0233 63.5436 64.7113 63.656C64.5966 63.7042 64.5369 63.8074 64.5324 63.9473C64.5186 64.2272 64.7365 64.6309 65.2297 65.1356C65.739 65.6448 66.1427 65.8628 66.4271 65.8421V65.8421Z" fill="#2360A5"/>
<path d="M52.7643 72.9534L56.5241 69.1936L58.2147 74.0591L59.481 72.7928L60.917 74.2312L57.1985 77.9474L55.4436 72.9442L54.0994 74.2885L52.7643 72.9534ZM57.0724 68.6453L60.8322 64.8855L62.5228 69.751L63.7891 68.4848L65.2251 69.9208L61.5089 73.6393L59.7517 68.6362L58.4074 69.9804L57.0724 68.6453Z" fill="white"/>
<path d="M55.1959 88.2543C55.2012 88.0533 55.2464 87.8553 55.3288 87.6718C55.4113 87.4884 55.5293 87.3231 55.6762 87.1857C55.823 87.0483 55.9957 86.9414 56.1841 86.8712C56.3726 86.801 56.5731 86.769 56.7741 86.777C57.1766 86.787 57.5585 86.9565 57.836 87.2482C58.1135 87.5399 58.2637 87.9298 58.2537 88.3323C58.2437 88.7348 58.0742 89.1167 57.7825 89.3942C57.4908 89.6717 57.1009 89.822 56.6984 89.8119C56.4969 89.8102 56.2978 89.7683 56.1127 89.6887C55.9276 89.6091 55.7602 89.4934 55.6203 89.3484C55.4804 89.2034 55.3708 89.0319 55.298 88.8441C55.2251 88.6562 55.1904 88.4557 55.1959 88.2543V88.2543Z" fill="#2360A5"/>
<path d="M56.7075 89.5596C56.8722 89.5639 57.0361 89.535 57.1894 89.4745C57.3427 89.414 57.4821 89.3232 57.5995 89.2076C57.7169 89.0919 57.8097 88.9538 57.8724 88.8014C57.9352 88.6491 57.9665 88.4856 57.9646 88.3208C57.9736 88.1571 57.9495 87.9931 57.8938 87.8389C57.8381 87.6846 57.7519 87.5431 57.6404 87.4228C57.5289 87.3025 57.3943 87.2059 57.2447 87.1387C57.0951 87.0715 56.9334 87.0351 56.7694 87.0316C56.6047 87.0264 56.4406 87.0543 56.2869 87.1138C56.1332 87.1732 55.993 87.263 55.8747 87.3777C55.7563 87.4924 55.6622 87.6297 55.598 87.7815C55.5338 87.9333 55.5008 88.0964 55.5008 88.2612C55.4916 88.4265 55.5157 88.5919 55.5719 88.7476C55.6281 88.9033 55.7151 89.046 55.8278 89.1672C55.9405 89.2885 56.0765 89.3857 56.2276 89.4531C56.3788 89.5206 56.542 89.5568 56.7075 89.5596V89.5596Z" fill="white"/>
<path d="M56.3955 89.1604L56.1317 89.1558L56.1753 87.4055L56.8406 87.4239C57.2558 87.433 57.4553 87.589 57.4485 87.9354C57.4416 88.2474 57.2397 88.3805 56.9828 88.408L57.4622 89.1902L57.1663 89.1833L56.7236 88.4126L56.4185 88.4057L56.3955 89.1604V89.1604Z" fill="#2360A5"/>
<path d="M56.7374 88.1855C56.9623 88.1901 57.1641 88.1786 57.1687 87.9102C57.1733 87.6946 56.9783 87.6487 56.7925 87.6441L56.4323 87.6372L56.4186 88.1786L56.7374 88.1855V88.1855Z" fill="white"/>
</g>
<defs>
<clipPath id="clip0_24_118">
<rect width="80" height="80" fill="white" transform="translate(10 10)"/>
</clipPath>
</defs>
</svg>
