<svg width="100" height="100" viewBox="0 0 100 100" fill="none" xmlns="http://www.w3.org/2000/svg">
<rect x="0.5" y="0.5" width="99" height="99" fill="white" stroke="#008B00"/>
<path fill-rule="evenodd" clip-rule="evenodd" d="M10 10H90V90H10V10Z" fill="white"/>
<path fill-rule="evenodd" clip-rule="evenodd" d="M66.8773 50.2005C66.8773 50.8824 65.5932 52.7687 65.5932 52.7687L64.7511 53.8515C64.7511 53.8515 66.0352 55.0958 66.2353 55.0958C66.4353 55.0958 68.2415 55.4971 68.2415 55.4971C68.2415 55.4971 69.3244 55.537 69.6058 55.537C69.8872 55.537 70.4084 55.3361 70.4084 55.3361C70.4084 55.3361 70.4084 54.2134 70.2885 54.0927C70.1677 53.9727 69.5257 50.8023 69.5257 50.8023L68.6437 49.5182H67.7203L66.8773 50.2005V50.2005Z" fill="#F9DC30"/>
<path fill-rule="evenodd" clip-rule="evenodd" d="M34.599 22.7403L45.3044 24.8362L72.8766 27.4945V23.6919L72.3919 20.4771L67.9124 19.8591L56.7252 19.5283L51.4199 19.2349L42.8656 19.6823L36.2118 20.6946L34.599 22.7403V22.7403Z" fill="#B4282E"/>
<path fill-rule="evenodd" clip-rule="evenodd" d="M24.5439 36.677L38.3695 20.37L32.2233 21.1415H28.6507L25.4533 21.5528L24.5439 36.677V36.677ZM52.4686 55.2311L56.0013 57.8699L53.5605 59.0216L52.6657 57.8188L51.9581 55.2821L52.4686 55.2311V55.2311Z" fill="#F9DC30"/>
<path fill-rule="evenodd" clip-rule="evenodd" d="M15.7581 67.7634C15.8835 67.7489 16.0076 67.7414 16.1292 67.7414C16.6812 67.7414 17.1086 67.8697 17.4116 68.1249C17.7146 68.3802 17.8661 68.7417 17.8661 69.2086C17.8661 69.8207 17.6598 70.2989 17.2473 70.6442C16.8347 70.9895 16.2628 71.1613 15.5315 71.1613C15.5029 71.1613 15.461 71.1596 15.4053 71.1563C15.3632 71.1533 15.321 71.1514 15.2788 71.1505C15.2788 70.6367 15.2862 70.1042 15.3008 69.5543C15.3149 69.0039 15.3369 68.4283 15.3659 67.8269C15.5016 67.7991 15.6324 67.7779 15.7581 67.7634ZM18.4791 70.5487C18.7742 70.1378 18.9215 69.6423 18.9215 69.0637C18.9215 68.4063 18.6891 67.885 18.2238 67.5007C17.7586 67.1164 17.1223 66.9234 16.3143 66.9234C16.2566 66.9234 15.9748 66.9387 15.468 66.9695C14.9621 66.9993 14.4773 67.0222 14.0142 67.0359C14.1233 67.2774 14.2026 67.6252 14.2524 68.0809C14.3018 68.5374 14.3267 69.2393 14.3267 70.186C14.3267 70.9218 14.3092 71.7083 14.2748 72.545C14.2399 73.3817 14.2229 73.8532 14.2229 73.9611C14.2229 74.2732 14.2586 74.4799 14.3312 74.5795C14.4035 74.6799 14.5388 74.7302 14.7376 74.7302C14.8604 74.7302 14.9949 74.7082 15.1414 74.6629C15.3076 74.6101 15.4682 74.5408 15.6208 74.4562C15.5157 74.252 15.4381 73.964 15.3875 73.5938C15.3369 73.2223 15.3008 72.638 15.2788 71.8386C15.4008 71.8241 15.5033 71.8141 15.5859 71.8087C15.6558 71.804 15.7258 71.8012 15.7959 71.8004C16.2985 71.8004 16.9738 72.3134 17.8213 73.3381C18.0977 73.6681 18.3164 73.9258 18.4782 74.1122C18.6937 74.3691 18.8808 74.5538 19.0402 74.6658C19.1996 74.7779 19.3461 74.8343 19.4789 74.8343C19.6366 74.8343 19.7727 74.7737 19.8877 74.6521C20.0022 74.5314 20.1118 74.3297 20.2156 74.0474C20.0035 73.9897 19.7474 73.8391 19.4457 73.5934C19.1444 73.3477 18.7908 73.0049 18.3849 72.5641L18.1479 72.296C17.7602 71.8581 17.4353 71.595 17.1734 71.5058C17.749 71.2787 18.184 70.9604 18.4791 70.5487V70.5487ZM25.3425 68.0826C25.152 67.9967 24.9208 67.9336 24.6494 67.8921C24.3775 67.8514 24.0335 67.8306 23.6163 67.8306C23.4437 67.8306 23.1237 67.8365 22.6564 67.8468C22.541 67.851 22.453 67.8527 22.392 67.8527L22.3488 70.2287C22.4455 70.237 22.5497 70.2399 22.6609 70.2399H23.1889C23.5833 70.2423 23.9776 70.2313 24.3713 70.2067C24.6822 70.1839 24.9092 70.1507 25.0528 70.1063C25.0959 70.2067 25.1283 70.2959 25.1499 70.3731C25.1711 70.4503 25.1819 70.5192 25.1819 70.5798C25.1819 70.7525 25.1262 70.8766 25.015 70.9517C24.9038 71.0272 24.7208 71.0642 24.4655 71.0642C24.3829 71.0642 24.1791 71.0609 23.8542 71.0538C23.4349 71.044 23.0155 71.0414 22.5962 71.0459C22.4991 71.0484 22.4094 71.0509 22.3268 71.0542C22.3268 71.4609 22.3223 71.8938 22.3136 72.3528C22.3035 72.8561 22.2901 73.3593 22.2733 73.8623C22.309 73.8623 22.363 73.864 22.4352 73.8681C22.9054 73.8785 23.2412 73.8835 23.4425 73.8835C23.8264 73.8835 24.1542 73.8615 24.4252 73.8171C24.6757 73.7795 24.9197 73.7069 25.1499 73.6013C25.2304 73.7366 25.2881 73.8557 25.323 73.957C25.3574 74.0591 25.3748 74.1533 25.3748 74.2383C25.3748 74.428 25.3122 74.5608 25.186 74.638C25.0598 74.7144 24.8208 74.7522 24.4684 74.7522C24.2958 74.7522 24.0368 74.7463 23.6915 74.7343C23.3462 74.7223 23.0888 74.7165 22.9199 74.7165C22.5385 74.7165 22.1571 74.726 21.7761 74.7463C21.6972 74.7505 21.6483 74.7522 21.6304 74.7522C21.5043 74.7522 21.415 74.7239 21.3631 74.6671C21.3113 74.6094 21.2851 74.5089 21.2851 74.3645C21.2851 74.289 21.2942 74.0976 21.3133 73.788C21.3739 72.6749 21.4038 71.6319 21.4038 70.6591C21.4038 69.6929 21.3868 68.9189 21.3532 68.3366C21.3191 67.7555 21.2669 67.3185 21.1959 67.0284H21.8757C22.7149 67.0284 23.5782 66.9993 24.4643 66.9416C24.6543 66.9296 24.7693 66.9238 24.8087 66.9238C25.0993 66.9238 25.2985 66.957 25.406 67.0218C25.5135 67.0873 25.5674 67.2035 25.5674 67.3704C25.5674 67.4646 25.5492 67.5704 25.5122 67.6883C25.4686 67.8249 25.4118 67.957 25.3425 68.0826V68.0826ZM26.6722 73.5365C26.972 73.7002 27.309 73.7837 27.6505 73.7789C28.0771 73.7789 28.4133 73.6834 28.659 73.4913C28.9043 73.2991 29.0275 73.0389 29.0275 72.7089C29.0275 72.3143 28.7063 71.8577 28.0634 71.3373L28.058 71.3315C28.0411 71.32 28.0249 71.3075 28.0095 71.2941C27.0819 70.5516 26.6183 69.8959 26.6183 69.3252C26.6183 69.0633 26.676 68.8056 26.7905 68.5503C26.9099 68.2895 27.0759 68.0527 27.2803 67.8514C27.5994 67.5393 27.9418 67.3019 28.3079 67.1388C28.6627 66.9776 29.0479 66.8941 29.4376 66.8939C29.7173 66.8939 29.9273 66.94 30.0672 67.0334C30.2071 67.1276 30.2772 67.2666 30.2772 67.4534C30.2772 67.5181 30.254 67.6032 30.2075 67.7095C30.1484 67.8385 30.0805 67.9633 30.0041 68.083C29.8638 68.0253 29.7211 67.9817 29.5754 67.951C29.4297 67.9203 29.282 67.9049 29.1309 67.9049C28.671 67.9049 28.3108 68.0079 28.0501 68.2146C27.7899 68.4204 27.6596 68.7035 27.6596 69.0616C27.6596 69.2775 27.7127 69.4725 27.8186 69.6485C27.9244 69.8236 28.1228 70.0336 28.4137 70.2777C28.4569 70.3142 28.5195 70.3661 28.6025 70.4342C29.5799 71.2522 30.0689 71.9453 30.0689 72.5118C30.0686 72.7288 30.0294 72.9441 29.9531 73.1472C29.8689 73.3678 29.7519 73.5745 29.6061 73.7602C29.3467 74.0921 29.0117 74.3572 28.6291 74.5334C28.2334 74.7158 27.8023 74.8085 27.3666 74.8049C27.0615 74.8049 26.8308 74.7513 26.6747 74.6459C26.5187 74.5397 26.4406 74.384 26.4406 74.179C26.4406 74.0848 26.4593 73.9852 26.4975 73.8789C26.5344 73.7739 26.593 73.659 26.6722 73.5365V73.5365ZM34.7127 74.4604C34.5576 74.5494 34.3934 74.6215 34.2229 74.6754C34.0817 74.72 33.9348 74.7435 33.7867 74.7451C33.6037 74.7451 33.4754 74.6941 33.4016 74.592C33.3277 74.4899 33.2912 74.2985 33.2912 74.0188C33.2912 73.8358 33.3107 73.2788 33.3509 72.3475C33.3904 71.4161 33.4103 70.5778 33.4103 69.8315C33.4103 69.641 33.4045 69.2389 33.3933 68.6254C33.3895 68.3279 33.3875 68.093 33.3875 67.9203H32.9737C32.4462 67.9203 32.0203 67.9448 31.6958 67.9925C31.3712 68.0402 31.1214 68.1158 30.9454 68.2179C30.8749 68.0854 30.8137 67.9481 30.7624 67.807C30.7259 67.7101 30.7059 67.6079 30.703 67.5044C30.703 67.3413 30.7586 67.2264 30.8699 67.1591C30.9811 67.0919 31.1753 67.0579 31.4522 67.0579C31.5958 67.0579 32.0066 67.0757 32.6856 67.1106C33.3642 67.1454 33.9731 67.1624 34.5118 67.1624C35.1617 67.1624 35.6797 67.1371 36.0661 67.0877C36.4521 67.0392 36.7455 66.9595 36.9468 66.8503C37.0186 66.9645 37.0717 67.0691 37.1057 67.1649C37.1402 67.26 37.1572 67.348 37.1572 67.431C37.1572 67.6248 37.085 67.7667 36.9414 67.858C36.7974 67.9498 36.5745 67.995 36.2723 67.995C36.1607 67.995 35.8909 67.9855 35.4626 67.9643C35.1209 67.9472 34.779 67.9326 34.4371 67.9207C34.4131 68.5122 34.3941 69.104 34.3802 69.6958C34.3678 70.2511 34.3615 70.7616 34.3615 71.2285C34.3615 72.1225 34.3893 72.8256 34.4454 73.3352C34.5014 73.8449 34.5906 74.2197 34.7127 74.4604V74.4604ZM40.3098 70.0864C40.4928 70.5404 40.6758 71.0119 40.8589 71.5033H38.5924C38.7862 71.0517 39.0896 70.3416 39.5021 69.3737L39.7607 68.7715C39.9437 69.1949 40.1268 69.6336 40.3098 70.0864ZM41.3922 72.8895C41.8516 74.1263 42.2625 74.7451 42.6253 74.7451C42.7506 74.7451 42.8709 74.7136 42.9859 74.6488C43.1009 74.5841 43.2266 74.4762 43.3632 74.3247C42.9722 73.9511 42.2775 72.5089 41.2793 69.9984C41.0501 69.4208 40.8185 68.8442 40.5845 68.2685C40.3907 67.7912 40.221 67.4521 40.0757 67.2529C39.93 67.0537 39.7802 66.9537 39.6262 66.9537C39.515 66.9537 39.4046 66.991 39.295 67.0662C39.1855 67.1417 39.0643 67.2616 38.9319 67.4268C39.007 67.5053 39.078 67.5833 39.1444 67.6601C39.2108 67.7381 39.2726 67.8174 39.3303 67.9C38.7567 69.2184 38.1487 70.5215 37.5067 71.8079C36.8111 73.2087 36.4633 74.0014 36.4633 74.1848C36.4633 74.3682 36.5239 74.5073 36.6459 74.6023C36.7679 74.6978 36.9455 74.7451 37.1784 74.7451C37.2103 74.7451 37.2456 74.7443 37.2834 74.7426C37.3207 74.741 37.3809 74.7343 37.4635 74.7239L37.4689 74.6339C37.4689 74.3786 37.5253 74.0736 37.6382 73.7179C37.7511 73.3622 37.9512 72.8725 38.2379 72.2474H41.1502C41.2075 72.4018 41.288 72.6156 41.3922 72.8895V72.8895ZM43.8218 67.2284C43.9686 67.1433 44.1246 67.0748 44.2866 67.0242C44.4385 66.9773 44.5879 66.9537 44.7344 66.9537C44.9237 66.9537 45.0528 67.0081 45.1229 67.118C45.1922 67.2276 45.2271 67.4488 45.2271 67.7829C45.2271 67.9303 45.2072 68.3681 45.1677 69.0969C45.1302 69.7497 45.1102 70.4033 45.108 71.0571C45.108 72.1304 45.2611 72.8899 45.567 73.3348C45.8729 73.7797 46.3879 74.0018 47.1118 74.0018C47.9539 74.0018 48.5644 73.715 48.9425 73.1402C49.3206 72.5662 49.5098 71.6365 49.5098 70.3507C49.5098 69.5472 49.4637 68.8898 49.372 68.3802C49.2803 67.8701 49.1425 67.5024 48.9591 67.2762C49.1168 67.1691 49.2612 67.0882 49.3919 67.0346C49.5227 66.9802 49.6418 66.9537 49.7497 66.9537C50.0294 66.9537 50.2203 67.1006 50.3224 67.3924C50.4245 67.685 50.4756 68.3553 50.4756 69.4036C50.4756 71.3742 50.205 72.7816 49.6646 73.627C49.1238 74.4724 48.2319 74.8949 46.9897 74.8949C45.9658 74.8949 45.2279 74.6314 44.7751 74.1039C44.3223 73.5764 44.0961 72.7081 44.0961 71.4979C44.0961 71.2289 44.1057 70.8471 44.1252 70.3516C44.1447 69.856 44.1546 69.4958 44.1546 69.2696C44.1546 68.7773 44.1277 68.3681 44.0737 68.0398C44.021 67.7099 43.9368 67.4397 43.8218 67.2284V67.2284ZM53.8872 67.7634C54.0129 67.7489 54.137 67.7414 54.2586 67.7414C54.8106 67.7414 55.2377 67.8697 55.5411 68.1249C55.8444 68.3802 55.9959 68.7417 55.9959 69.2086C55.9959 69.8207 55.7892 70.2989 55.3767 70.6442C54.965 70.9895 54.3927 71.1613 53.6614 71.1613C53.6323 71.1613 53.59 71.1596 53.5348 71.1563C53.4788 71.153 53.4368 71.1505 53.4082 71.1505C53.4082 70.6367 53.4157 70.1042 53.4302 69.5543C53.4439 69.0039 53.4659 68.4283 53.495 67.8269C53.6311 67.7991 53.7614 67.7779 53.8872 67.7634V67.7634ZM56.6085 70.5487C56.9036 70.1378 57.0509 69.6423 57.0509 69.0637C57.0509 68.4063 56.8181 67.885 56.3537 67.5007C55.8884 67.1164 55.2522 66.9234 54.4437 66.9234C54.386 66.9234 54.1042 66.9387 53.5983 66.9695C53.0915 66.9993 52.6068 67.0222 52.144 67.0359C52.2528 67.2774 52.332 67.6252 52.3814 68.0809C52.4308 68.5374 52.4561 69.2393 52.4561 70.186C52.4561 70.9218 52.4383 71.7083 52.4042 72.545C52.3694 73.3817 52.3515 73.8532 52.3515 73.9611C52.3515 74.2732 52.3881 74.4799 52.4603 74.5795C52.5325 74.6799 52.6678 74.7302 52.8666 74.7302C52.9899 74.7302 53.1243 74.7082 53.2704 74.6629C53.4368 74.6101 53.5975 74.5409 53.7502 74.4562C53.6448 74.252 53.5672 73.964 53.5169 73.5938C53.4659 73.2223 53.4302 72.638 53.4082 71.8386C53.5298 71.8241 53.6319 71.8141 53.7145 71.8087C53.7971 71.8038 53.8676 71.8004 53.9253 71.8004C54.4279 71.8004 55.1032 72.3134 55.9503 73.3381C56.2267 73.6681 56.4454 73.9258 56.6069 74.1122C56.8227 74.3691 57.0099 74.5538 57.1692 74.6658C57.3286 74.7779 57.4747 74.8343 57.6079 74.8343C57.766 74.8343 57.9022 74.7737 58.0171 74.6521C58.1313 74.5314 58.2408 74.3297 58.3446 74.0474C58.1329 73.9897 57.876 73.8391 57.5747 73.5934C57.2734 73.3477 56.9198 73.0049 56.5143 72.5641C56.4599 72.5035 56.3815 72.4134 56.2769 72.296C55.8893 71.8581 55.5643 71.595 55.3024 71.5058C55.8781 71.2787 56.3134 70.9604 56.6085 70.5487V70.5487ZM62.5485 70.0864C62.7315 70.5404 62.9149 71.0119 63.098 71.5033H60.8315C61.0253 71.0517 61.3283 70.3416 61.7408 69.3737L61.9994 68.7715C62.1828 69.1949 62.3654 69.6336 62.5485 70.0864ZM63.6317 72.8895C64.0903 74.1263 64.5024 74.7451 64.8648 74.7451C64.9897 74.7451 65.1105 74.7136 65.2246 74.6488C65.3396 74.5841 65.4653 74.4762 65.6023 74.3247C65.2109 73.9511 64.5161 72.5089 63.5184 69.9984C63.2892 69.4208 63.0576 68.8442 62.8236 68.2685C62.6298 67.7912 62.4605 67.4521 62.3144 67.2529C62.1691 67.0537 62.0193 66.9537 61.8653 66.9537C61.7533 66.9537 61.6433 66.991 61.5337 67.0662C61.4241 67.1413 61.3034 67.2616 61.1706 67.4268C61.2461 67.5053 61.3167 67.5833 61.3831 67.6601C61.4495 67.7381 61.5113 67.8174 61.5694 67.9C60.9955 69.2183 60.3873 70.5214 59.7453 71.8079C59.0497 73.2087 58.7019 74.0014 58.7019 74.1848C58.7019 74.3682 58.7625 74.5073 58.8841 74.6023C59.0066 74.6978 59.1842 74.7451 59.4166 74.7451C59.449 74.7451 59.4839 74.7443 59.5221 74.7426C59.5594 74.741 59.6192 74.7343 59.7022 74.7239L59.7072 74.6339C59.7072 74.3786 59.764 74.0736 59.8765 73.7179C59.9898 73.3622 60.1894 72.8725 60.4762 72.2474H63.3889C63.4466 72.4018 63.5271 72.6156 63.6317 72.8895V72.8895ZM73.0127 74.7953C72.3569 74.1491 71.4505 73.1505 70.293 71.7992C69.1354 70.4478 68.2705 69.4713 67.6974 68.8682C67.7007 70.2179 67.7281 71.6423 67.7783 73.1427C67.7936 73.5407 67.8011 73.7839 67.8011 73.8698C67.8011 74.2247 67.7629 74.4575 67.6878 74.5671C67.6127 74.6766 67.472 74.731 67.2661 74.731C67.1333 74.731 66.9947 74.7073 66.8503 74.6613C66.6985 74.6106 66.5534 74.5418 66.4182 74.4562C66.6096 74.1263 66.744 73.6519 66.8221 73.0327C66.9001 72.4143 66.9387 71.3215 66.9387 69.7568C66.9387 69.0218 66.8926 68.4989 66.8001 68.1909C66.7075 67.8821 66.5465 67.6671 66.3145 67.5447C66.4718 67.3583 66.6121 67.2247 66.7337 67.1434C66.8561 67.0633 66.9777 67.0226 67.1001 67.0226C67.2151 67.0226 67.328 67.0591 67.4388 67.133C67.5509 67.2069 67.687 67.3363 67.848 67.5227C69.4253 69.4003 71.0347 71.2507 72.6757 73.0729C72.6861 72.538 72.6943 72.0661 72.7002 71.6568C72.7054 71.307 72.7082 70.9571 72.7085 70.6072C72.7085 69.6531 72.6703 68.9251 72.5943 68.425C72.5171 67.924 72.3926 67.5227 72.2183 67.2214C72.3592 67.1448 72.5067 67.081 72.6591 67.0309C72.7902 66.9894 72.9143 66.9686 73.0297 66.9686C73.2356 66.9686 73.3775 67.0288 73.4543 67.1496C73.5323 67.2695 73.5709 67.5289 73.5709 67.9269C73.5709 68.1643 73.5506 68.7466 73.5115 69.6738C73.4743 70.4852 73.4543 71.2974 73.4514 72.1096C73.4514 72.562 73.4617 72.9849 73.4821 73.3801C73.5032 73.7748 73.5323 74.1445 73.5705 74.489L73.0127 74.7953V74.7953ZM78.6148 74.4604C78.4598 74.5495 78.2956 74.6216 78.125 74.6754C77.9839 74.7199 77.8369 74.7434 77.6889 74.7451C77.5058 74.7451 77.3767 74.6941 77.3037 74.592C77.2298 74.4899 77.1933 74.2985 77.1933 74.0188C77.1933 73.8358 77.2128 73.2788 77.2527 72.3475C77.2925 71.4161 77.312 70.5778 77.312 69.8315C77.312 69.641 77.3062 69.2389 77.295 68.6254C77.2919 68.3904 77.2899 68.1554 77.2892 67.9203H76.8758C76.3487 67.9203 75.9225 67.9448 75.5983 67.9925C75.2734 68.0402 75.0235 68.1158 74.8475 68.2179C74.777 68.0854 74.7158 67.9481 74.6645 67.807C74.6287 67.71 74.6089 67.6078 74.606 67.5044C74.606 67.3413 74.6612 67.2264 74.772 67.1591C74.8841 67.0919 75.0775 67.0579 75.3539 67.0579C75.4983 67.0579 75.9092 67.0757 76.5878 67.1106C77.2663 67.1454 77.8752 67.1624 78.4139 67.1624C79.0639 67.1624 79.581 67.1371 79.9678 67.0877C80.3538 67.0392 80.6472 66.9595 80.8489 66.8503C80.9203 66.9645 80.9738 67.0691 81.0079 67.1649C81.0419 67.26 81.0589 67.348 81.0589 67.431C81.0589 67.6248 80.9867 67.7667 80.8431 67.858C80.6987 67.9498 80.4758 67.995 80.1736 67.995C80.0624 67.995 79.7926 67.9855 79.3639 67.9643C79.0225 67.9472 78.6809 67.9327 78.3392 67.9207C78.315 68.5122 78.2961 69.104 78.2823 69.6958C78.27 70.2066 78.2635 70.7176 78.2628 71.2285C78.2628 72.1225 78.2911 72.8256 78.3471 73.3352C78.4031 73.8445 78.4924 74.2197 78.6148 74.4604V74.4604ZM86.2443 68.0826C86.0538 67.9967 85.8218 67.9336 85.5512 67.8921C85.279 67.8514 84.9353 67.8306 84.5178 67.8306C84.3451 67.8306 84.0247 67.8365 83.5582 67.8468C83.4433 67.851 83.3549 67.8527 83.2939 67.8527L83.2507 70.2287C83.347 70.237 83.4516 70.2399 83.5628 70.2399H84.0903C84.5684 70.2399 84.9627 70.2287 85.2732 70.2067C85.5836 70.1839 85.8114 70.1507 85.955 70.1063C85.9982 70.2067 86.0306 70.2959 86.0513 70.3731C86.0733 70.4503 86.0837 70.5192 86.0837 70.5798C86.0837 70.7525 86.0277 70.8766 85.9169 70.9517C85.8061 71.0268 85.6226 71.0642 85.3674 71.0642C85.2848 71.0642 85.0814 71.0609 84.756 71.0538C84.3368 71.0445 83.9174 71.0419 83.4981 71.0459C83.4009 71.0484 83.3117 71.0509 83.2291 71.0542C83.2291 71.4609 83.2241 71.8938 83.2154 72.3528C83.2055 72.8561 83.1923 73.3593 83.1756 73.8623C83.2113 73.8623 83.2648 73.864 83.337 73.8681C83.8073 73.8785 84.1434 73.8835 84.3447 73.8835C84.729 73.8835 85.0565 73.8615 85.3271 73.8171C85.5776 73.7797 85.8216 73.707 86.0518 73.6013C86.1327 73.7366 86.1904 73.8557 86.2252 73.957C86.2601 74.0591 86.2771 74.1533 86.2771 74.2383C86.2771 74.428 86.2149 74.5608 86.0891 74.638C85.9625 74.7144 85.7235 74.7522 85.3711 74.7522C85.1984 74.7522 84.9399 74.7463 84.5946 74.7343C84.2493 74.7223 83.9924 74.7165 83.823 74.7165C83.442 74.7165 83.0602 74.726 82.6792 74.7463C82.6008 74.7505 82.5518 74.7522 82.5339 74.7522C82.4074 74.7522 82.3181 74.7239 82.2662 74.6671C82.2144 74.6094 82.1882 74.5089 82.1882 74.3645C82.1882 74.289 82.1969 74.0976 82.2164 73.788C82.2766 72.6749 82.3073 71.6319 82.3073 70.6591C82.3073 69.6929 82.2903 68.9189 82.2563 68.3366C82.2223 67.7555 82.1695 67.3185 82.099 67.0284H82.7784C83.618 67.0284 84.4817 66.9993 85.3674 66.9416C85.5579 66.9296 85.672 66.9238 85.7118 66.9238C86.0019 66.9238 86.2016 66.957 86.3091 67.0218C86.4162 67.0873 86.4705 67.2035 86.4705 67.3704C86.4705 67.4646 86.4518 67.5704 86.4153 67.6883C86.378 67.8062 86.3215 67.9377 86.2443 68.0826V68.0826ZM21.0025 78.0492C20.9237 78.0136 20.8409 77.9877 20.7559 77.972C20.6623 77.9545 20.5673 77.946 20.4721 77.9467C20.0753 77.9467 19.7549 78.0546 19.5113 78.2708C19.2681 78.487 19.146 78.7718 19.146 79.122C19.146 79.469 19.2606 79.7533 19.4905 79.9766C19.7204 80.1995 20.0147 80.3115 20.3737 80.3115C20.5914 80.3127 20.8055 80.2561 20.9942 80.1476C21.0361 80.202 21.066 80.2505 21.0851 80.292C21.1042 80.3335 21.1137 80.3713 21.1137 80.407C21.1137 80.4937 21.0523 80.5618 20.9298 80.6095C20.8074 80.6581 20.6368 80.6826 20.4189 80.6826C20.1986 80.6851 19.9792 80.6526 19.769 80.5863C19.5802 80.5275 19.4047 80.4325 19.2523 80.3065C19.0755 80.1592 18.9431 79.9895 18.8547 79.799C18.7663 79.6085 18.7223 79.3976 18.7223 79.1669C18.7223 78.9228 18.7758 78.6983 18.8837 78.4941C18.9916 78.2899 19.1527 78.1073 19.3668 77.9471C19.5366 77.8232 19.7268 77.7302 19.9288 77.6723C20.15 77.6069 20.3796 77.5741 20.6103 77.5752C20.7937 77.5752 20.9228 77.5906 20.9971 77.6213C21.0714 77.652 21.1091 77.7047 21.1091 77.7802C21.1075 77.8193 21.0987 77.8577 21.083 77.8935C21.0602 77.9474 21.0333 77.9995 21.0025 78.0492V78.0492ZM22.1247 80.1771C21.9803 80.0326 21.9085 79.8504 21.9085 79.6292C21.9085 79.3794 21.9795 79.1793 22.1214 79.0287C22.2633 78.878 22.4501 78.8025 22.6813 78.8025C22.9079 78.8025 23.0922 78.8755 23.2345 79.0204C23.3769 79.1656 23.4478 79.3545 23.4478 79.5844C23.4478 79.8218 23.3752 80.0156 23.2304 80.1663C23.0855 80.3169 22.9 80.3925 22.673 80.3925C22.4514 80.3925 22.2692 80.3215 22.1247 80.1771ZM23.1698 80.5776C23.3353 80.49 23.4793 80.3668 23.5914 80.2169C23.6566 80.1335 23.7089 80.0322 23.7471 79.9139C23.7853 79.7956 23.8048 79.6757 23.8048 79.5541C23.8048 79.2532 23.7031 79.0038 23.5006 78.8074C23.2976 78.6103 23.039 78.5124 22.7253 78.5124C22.3783 78.5124 22.0957 78.6161 21.8782 78.8228C21.6607 79.0295 21.552 79.2993 21.552 79.6309C21.552 79.9438 21.6537 80.199 21.8574 80.3987C22.0608 80.5979 22.3244 80.6979 22.6481 80.6979C22.8291 80.6999 23.0079 80.6586 23.1698 80.5776V80.5776ZM24.2111 78.5705C24.2703 78.5493 24.3325 78.5383 24.3954 78.5377C24.4705 78.5377 24.5294 78.558 24.5718 78.5983C24.6145 78.6389 24.6386 78.697 24.644 78.7734C24.7544 78.697 24.8623 78.6406 24.9681 78.6041C25.0735 78.5667 25.1789 78.5489 25.284 78.5489C25.386 78.5489 25.4823 78.5684 25.5724 78.6091C25.6625 78.6489 25.7471 78.7095 25.8252 78.79C25.933 78.711 26.0515 78.6477 26.1771 78.602C26.3016 78.5568 26.4211 78.5339 26.5353 78.5339C26.7843 78.5339 26.9752 78.607 27.108 78.7518C27.2408 78.8967 27.3072 79.1054 27.3072 79.376C27.3072 79.4159 27.3052 79.4927 27.301 79.6089C27.2969 79.7247 27.2948 79.8222 27.2948 79.8998C27.2948 80.0808 27.3031 80.2194 27.3193 80.3165C27.3355 80.4128 27.362 80.4917 27.399 80.5514C27.3296 80.5854 27.2711 80.6091 27.2251 80.6236C27.179 80.6382 27.1375 80.6456 27.1014 80.6456C27.0362 80.6456 26.9914 80.6294 26.9673 80.5962C26.9428 80.5639 26.9308 80.5008 26.9308 80.4057C26.9308 80.319 26.9358 80.1804 26.9457 79.989C26.9553 79.7985 26.9607 79.652 26.9607 79.5495C26.9607 79.2988 26.9225 79.1175 26.847 79.0062C26.7714 78.8942 26.6494 78.8386 26.4813 78.8386C26.3896 78.8386 26.3008 78.8523 26.2157 78.8792C26.1183 78.9124 26.0255 78.9575 25.9393 79.0137C25.953 79.0988 25.9629 79.188 25.9696 79.2806C25.9758 79.374 25.9787 79.5026 25.9787 79.6691V79.8886C25.9787 80.0808 25.9858 80.2244 26.0003 80.3182C26.0144 80.4132 26.0397 80.4916 26.0754 80.5556C26.0232 80.5839 25.9685 80.6072 25.9119 80.6253C25.867 80.6385 25.8205 80.6454 25.7737 80.6456C25.7106 80.6456 25.667 80.6286 25.6425 80.5937C25.6181 80.5589 25.606 80.495 25.606 80.4008C25.606 80.3505 25.6098 80.2377 25.6172 80.0613C25.6247 79.8849 25.6288 79.7338 25.6288 79.608C25.6288 79.3121 25.5952 79.1113 25.5288 79.0058C25.462 78.8996 25.3475 78.8469 25.1852 78.8469C25.0997 78.8469 25.0125 78.8631 24.9245 78.8954C24.8274 78.9326 24.7355 78.9821 24.651 79.0428C24.6485 79.1586 24.6444 79.3071 24.6398 79.4877C24.6353 79.6682 24.6323 79.7803 24.6323 79.8234C24.6323 80.009 24.6407 80.1592 24.6573 80.2725C24.6743 80.3858 24.7004 80.48 24.7365 80.5556C24.6784 80.5863 24.6253 80.6091 24.5772 80.6236C24.5307 80.6379 24.4825 80.6453 24.434 80.6456C24.3705 80.6456 24.3265 80.6278 24.3032 80.5913C24.2796 80.5547 24.2684 80.4788 24.2684 80.3626C24.2684 80.3294 24.2758 80.1908 24.2908 79.9475C24.3057 79.7035 24.3132 79.4765 24.3132 79.2656C24.3132 79.0988 24.3049 78.9602 24.2879 78.8481C24.2759 78.7523 24.2501 78.6588 24.2111 78.5705V78.5705ZM28.4253 80.5514C28.3728 80.5813 28.3171 80.6052 28.2593 80.6228C28.21 80.6376 28.1589 80.6453 28.1074 80.6456C28.0398 80.6456 27.9937 80.6269 27.9692 80.5904C27.9451 80.5531 27.9331 80.4784 27.9331 80.3676C27.9331 80.3036 27.9389 80.16 27.9514 79.9372C27.9638 79.7135 27.97 79.5213 27.97 79.3615C27.97 79.1864 27.9617 79.0453 27.9447 78.9361C27.9314 78.8399 27.904 78.7462 27.8634 78.658C27.9148 78.6273 27.9675 78.6037 28.0219 78.5883C28.0738 78.5724 28.1278 78.5641 28.1821 78.5638C28.246 78.5638 28.2896 78.58 28.3133 78.6107C28.3369 78.6423 28.3485 78.7008 28.3485 78.7859C28.3485 78.8079 28.3423 78.9303 28.3299 79.1515C28.3174 79.3736 28.3112 79.5844 28.3112 79.7836C28.3112 79.9708 28.3203 80.1256 28.339 80.248C28.3581 80.3717 28.3867 80.4721 28.4253 80.5514V80.5514ZM28.4083 77.9301C28.4092 77.9671 28.4023 78.0039 28.3879 78.038C28.3735 78.0721 28.352 78.1028 28.3249 78.128C28.2677 78.1813 28.1918 78.2098 28.1136 78.2073C28.0492 78.2105 27.9861 78.1882 27.9381 78.1451C27.9161 78.1229 27.899 78.0963 27.8879 78.0672C27.8767 78.038 27.8718 78.0069 27.8733 77.9757C27.8733 77.8977 27.9011 77.8313 27.9568 77.7765C27.9834 77.75 28.0151 77.7291 28.0499 77.7151C28.0848 77.701 28.1221 77.6941 28.1597 77.6947C28.2319 77.6947 28.2917 77.7167 28.3382 77.7611C28.3612 77.7827 28.3794 77.8089 28.3914 77.838C28.4035 77.8672 28.4093 77.8985 28.4083 77.9301V77.9301ZM30.2112 80.2912C30.1017 80.3499 29.979 80.3797 29.8547 80.3779C29.6547 80.3779 29.4957 80.3148 29.3787 80.1883C29.2612 80.0617 29.2027 79.8899 29.2027 79.6728C29.2027 79.4117 29.2737 79.205 29.4164 79.0527C29.5592 78.9004 29.753 78.824 29.9975 78.824C30.0747 78.824 30.1556 78.8344 30.2415 78.8539C30.3278 78.8751 30.4204 78.905 30.5196 78.9473C30.5225 78.9917 30.5241 79.0399 30.5246 79.0909C30.5254 79.1428 30.5258 79.2212 30.5258 79.3267L30.5225 79.5885C30.5204 79.7442 30.5179 79.8894 30.515 80.0256C30.4334 80.1344 30.3299 80.2248 30.2112 80.2912V80.2912ZM30.2548 78.5705C30.1705 78.5519 30.0846 78.5425 29.9983 78.5422C29.665 78.5422 29.3895 78.6493 29.172 78.8647C28.9545 79.0797 28.8453 79.352 28.8453 79.6803C28.8453 79.9712 28.9337 80.2086 29.1101 80.3929C29.2869 80.5759 29.5144 80.6685 29.7924 80.6685C29.936 80.6685 30.0672 80.6411 30.1851 80.5859C30.3034 80.5307 30.4167 80.4456 30.5258 80.3281C30.5258 80.341 30.525 80.3547 30.5237 80.3696C30.5222 80.3901 30.5215 80.4106 30.5217 80.4311C30.5217 80.5095 30.5329 80.5655 30.5561 80.5979C30.5793 80.6303 30.6184 80.6456 30.674 80.6456C30.7159 80.6456 30.762 80.6382 30.8122 80.6228C30.8624 80.6074 30.918 80.583 30.9794 80.5506C30.9309 80.4688 30.896 80.3472 30.8757 80.1849C30.8553 80.0235 30.8454 79.7649 30.8454 79.4084C30.8454 79.115 30.8549 78.7917 30.8749 78.4397C30.8948 78.0869 30.9047 77.8811 30.9047 77.8213C30.9047 77.7271 30.891 77.6624 30.8645 77.6275C30.8379 77.5926 30.7906 77.5748 30.7238 77.5748C30.686 77.5748 30.6428 77.5823 30.5939 77.5968C30.5449 77.6113 30.4922 77.6341 30.4366 77.6649C30.471 77.7354 30.4968 77.8342 30.5134 77.9616C30.53 78.089 30.5387 78.2584 30.5387 78.4709V78.6555C30.4465 78.6195 30.3516 78.5911 30.2548 78.5705V78.5705ZM32.6587 79.7263C32.6566 79.8079 32.6562 79.8896 32.6574 79.9712C32.6582 80.0148 32.6599 80.0716 32.6628 80.1414C32.5952 80.2144 32.513 80.2726 32.4216 80.3121C32.3302 80.3516 32.2316 80.3716 32.132 80.3709C31.9963 80.3709 31.89 80.3385 31.8128 80.2729C31.7356 80.2074 31.6974 80.1173 31.6974 80.0032C31.6974 79.862 31.7522 79.755 31.863 79.6832C31.9739 79.6118 32.1374 79.5761 32.3544 79.5761C32.3905 79.5761 32.4341 79.5777 32.4852 79.5836C32.5366 79.5877 32.5943 79.5948 32.6587 79.6056C32.6604 79.6458 32.6604 79.6861 32.6587 79.7263V79.7263ZM33.0036 80.2509C32.9776 80.0978 32.966 79.9426 32.9691 79.7873C32.9691 79.7176 32.9712 79.6259 32.9753 79.5118C32.9795 79.3976 32.982 79.3171 32.982 79.2719C32.982 79.0262 32.9181 78.8431 32.7906 78.7199C32.6632 78.5966 32.4719 78.5344 32.2171 78.5344C32.0095 78.5344 31.8415 78.5676 31.7124 78.634C31.5837 78.6995 31.5194 78.7838 31.5194 78.8859C31.5194 78.9344 31.5318 78.9743 31.5576 79.005C31.5833 79.0357 31.6207 79.0569 31.6709 79.0697C31.7228 78.9805 31.79 78.9149 31.8734 78.8726C31.9564 78.8303 32.0627 78.8095 32.1913 78.8095C32.3466 78.8095 32.4653 78.8469 32.5466 78.922C32.6284 78.9975 32.6695 79.1067 32.6695 79.2511C32.6695 79.269 32.6695 79.2843 32.6686 79.2972C32.6678 79.3101 32.6661 79.3229 32.6632 79.3362C32.5523 79.3228 32.4408 79.3154 32.3291 79.3142C32.0295 79.3142 31.7908 79.3798 31.614 79.5105C31.4368 79.6408 31.3484 79.8135 31.3484 80.0301C31.3484 80.2206 31.4127 80.3754 31.5414 80.4921C31.6701 80.6095 31.8394 80.668 32.0494 80.668C32.1561 80.668 32.2606 80.646 32.3636 80.6033C32.4665 80.5601 32.5707 80.4946 32.6757 80.4053C32.6798 80.4871 32.6952 80.5464 32.7222 80.583C32.7491 80.6203 32.7923 80.6382 32.8517 80.6382C32.8849 80.6382 32.9235 80.6294 32.9679 80.6116C33.0123 80.5937 33.0612 80.5672 33.1152 80.5323C33.0581 80.4477 33.02 80.3517 33.0036 80.2509V80.2509ZM36.5189 78.067C36.4329 78.0306 36.3425 78.0057 36.2499 77.9932C36.1172 77.9751 35.9834 77.9669 35.8494 77.9687C35.6911 77.9699 35.5329 77.9729 35.3746 77.9778L35.358 78.9021C35.3954 78.9046 35.4361 78.9062 35.4792 78.9062H35.6842C35.8698 78.9062 36.0225 78.9021 36.1429 78.8934C36.2632 78.8846 36.3516 78.8714 36.4072 78.8543C36.4242 78.8934 36.4367 78.9282 36.445 78.9581C36.4533 78.988 36.4575 79.015 36.4575 79.0382C36.4575 79.1054 36.4359 79.1532 36.3927 79.1826C36.3495 79.2125 36.2786 79.227 36.1794 79.227C36.1474 79.227 36.0682 79.2254 35.9424 79.2221C35.8162 79.2196 35.7075 79.2179 35.6154 79.2179L35.4543 79.2187C35.4166 79.2204 35.3821 79.2212 35.3501 79.2221C35.3501 79.3802 35.3485 79.5479 35.3448 79.7255C35.341 79.9031 35.336 80.0982 35.329 80.3099C35.4802 80.3146 35.6314 80.3176 35.7826 80.319C35.9316 80.319 36.059 80.3103 36.164 80.2924C36.269 80.2754 36.3628 80.2472 36.445 80.2073C36.4757 80.2601 36.4981 80.3061 36.5118 80.346C36.5245 80.3809 36.5313 80.4176 36.5322 80.4547C36.5322 80.5286 36.5077 80.5805 36.4587 80.6103C36.4101 80.6394 36.3172 80.6548 36.181 80.6548C36.1142 80.6548 36.0138 80.6531 35.8801 80.6498C35.6329 80.6439 35.3856 80.645 35.1385 80.6531L35.082 80.6548C35.0335 80.6548 34.999 80.6435 34.9787 80.6207C34.9584 80.5987 34.9484 80.5601 34.9484 80.5041C34.9484 80.475 34.9517 80.4003 34.9588 80.2804C34.9809 79.876 34.9924 79.471 34.9932 79.066C34.9932 78.6916 34.9866 78.3907 34.9733 78.1654C34.96 77.9392 34.9393 77.7699 34.9115 77.657H35.1758C35.5012 77.657 35.8353 77.6466 36.179 77.6263C36.2528 77.6221 36.2972 77.6196 36.3122 77.6196C36.4247 77.6196 36.5023 77.6325 36.5438 77.6578C36.5857 77.6831 36.6065 77.7275 36.6065 77.7923C36.6065 77.8288 36.599 77.8695 36.5849 77.9147C36.5708 77.9599 36.5488 78.011 36.5189 78.067V78.067ZM37.0609 80.3082C37.1111 80.3348 37.1593 80.3543 37.2049 80.3667C37.251 80.3796 37.2958 80.3854 37.3386 80.3854C37.439 80.3854 37.5204 80.3609 37.5814 80.3132C37.6424 80.2655 37.6735 80.202 37.6735 80.1235C37.6735 80.0628 37.6559 80.0034 37.6229 79.9525C37.5888 79.8998 37.5257 79.8351 37.4328 79.7604C37.4115 79.7443 37.3907 79.7275 37.3705 79.7101C37.1364 79.5155 37.019 79.3428 37.019 79.1922C37.019 79.1316 37.0306 79.0697 37.0547 79.0092C37.0788 78.9477 37.1136 78.8892 37.1597 78.834C37.2438 78.7319 37.3499 78.6502 37.4701 78.5949C37.5884 78.5397 37.7162 78.5124 37.854 78.5124C37.9213 78.5124 37.9723 78.5252 38.0076 78.5505C38.0425 78.5763 38.0603 78.6128 38.0603 78.6618C38.0589 78.6908 38.0523 78.7193 38.0408 78.746C38.0221 78.7888 38.0001 78.83 37.9748 78.8693C37.937 78.8548 37.9009 78.8435 37.8673 78.8361C37.8337 78.8286 37.8005 78.8249 37.7685 78.8249C37.6519 78.8249 37.5573 78.8531 37.4851 78.9091C37.4507 78.9342 37.4229 78.9672 37.404 79.0052C37.3851 79.0433 37.3756 79.0853 37.3763 79.1278C37.3763 79.225 37.4739 79.3565 37.6693 79.5217C37.7187 79.5641 37.7557 79.5964 37.781 79.6205C37.864 79.6927 37.925 79.7641 37.964 79.8347C38.003 79.9052 38.023 79.9774 38.023 80.0509C38.023 80.2252 37.9458 80.375 37.7914 80.5016C37.637 80.6274 37.4494 80.6904 37.2286 80.6904C37.1518 80.6904 37.0929 80.6751 37.0514 80.6452C37.0312 80.6304 37.015 80.6108 37.0043 80.5882C36.9936 80.5656 36.9887 80.5407 36.9899 80.5157C36.9899 80.4892 36.9953 80.4605 37.0065 80.4281C37.0177 80.3958 37.0356 80.3555 37.0609 80.3082V80.3082ZM38.9016 79.5416C38.9037 79.3578 38.9061 79.2005 38.9095 79.0697C39.0078 79.0017 39.1074 78.9498 39.2075 78.9149C39.2989 78.8809 39.3955 78.8627 39.493 78.8614C39.7055 78.8614 39.8761 78.9295 40.0047 79.0656C40.1334 79.2017 40.1977 79.3827 40.1977 79.608C40.1977 79.8243 40.1272 80.0027 39.9869 80.1447C39.8466 80.285 39.6681 80.3555 39.4511 80.3555C39.3565 80.3555 39.2627 80.341 39.1697 80.3103C39.0729 80.2786 38.981 80.2336 38.8966 80.1766C38.8978 79.938 38.8995 79.7263 38.9016 79.5416V79.5416ZM39.1539 80.6041C39.2465 80.6315 39.3498 80.6456 39.4644 80.6456C39.6076 80.6477 39.7498 80.6204 39.8822 80.5654C40.0145 80.5105 40.1342 80.429 40.2338 80.3261C40.3371 80.2263 40.4189 80.1065 40.474 79.9739C40.5291 79.8414 40.5564 79.6989 40.5542 79.5553C40.5542 79.2756 40.4592 79.0415 40.2699 78.8535C40.0803 78.6655 39.8445 78.5713 39.5619 78.5713C39.4494 78.5713 39.334 78.5916 39.2162 78.6315C39.0983 78.6705 38.9887 78.7269 38.8875 78.8008C38.8884 78.7384 38.8652 78.678 38.8227 78.6323C38.8005 78.6114 38.7742 78.5952 38.7455 78.5848C38.7169 78.5744 38.6863 78.5699 38.6559 78.5717C38.5934 78.5711 38.5312 78.5811 38.472 78.6012C38.509 78.6904 38.5351 78.8037 38.5513 78.9423C38.5679 79.081 38.5762 79.3005 38.5762 79.6014C38.5762 79.8882 38.5662 80.2231 38.5467 80.6058C38.5323 80.8457 38.5224 81.0859 38.5168 81.3263C38.5168 81.418 38.5293 81.4811 38.555 81.5159C38.5808 81.5508 38.6243 81.5687 38.6866 81.5687C38.7318 81.5687 38.7787 81.5612 38.8265 81.5475C38.8839 81.53 38.9395 81.5069 38.9925 81.4786C38.9487 81.3859 38.9199 81.2869 38.9074 81.1852C38.8876 81.0315 38.8787 80.8765 38.8808 80.7216L38.8817 80.5709C38.8821 80.5361 38.8833 80.5045 38.885 80.4755C38.9721 80.5336 39.0614 80.5767 39.1539 80.6041ZM42.2048 79.7263C42.2018 79.8079 42.2014 79.8896 42.2036 79.9712C42.204 80.0148 42.2057 80.0716 42.2086 80.1414C42.1408 80.2143 42.0587 80.2724 41.9673 80.312C41.8759 80.3515 41.7773 80.3715 41.6777 80.3709C41.542 80.3709 41.4358 80.3385 41.3586 80.2729C41.2814 80.2074 41.2432 80.1173 41.2432 80.0032C41.2432 79.862 41.2984 79.755 41.4088 79.6832C41.5196 79.6118 41.6827 79.5761 41.9002 79.5761C41.9363 79.5761 41.9799 79.5777 42.0309 79.5836C42.082 79.5877 42.1401 79.5948 42.2044 79.6056C42.2061 79.6458 42.2062 79.6861 42.2048 79.7263V79.7263ZM42.5493 80.2509C42.5235 80.0978 42.512 79.9426 42.5149 79.7873C42.5149 79.7176 42.5169 79.6259 42.5211 79.5118C42.5252 79.3976 42.5273 79.3171 42.5273 79.2719C42.5273 79.0262 42.4634 78.8431 42.336 78.7199C42.2086 78.5966 42.0176 78.5344 41.7628 78.5344C41.5553 78.5344 41.3872 78.5676 41.2581 78.634C41.1295 78.6995 41.0651 78.7838 41.0651 78.8859C41.0651 78.9344 41.078 78.9743 41.1033 79.005C41.1286 79.0357 41.1664 79.0569 41.2166 79.0697C41.2681 78.9805 41.3357 78.9149 41.4188 78.8726C41.5018 78.8303 41.608 78.8095 41.7367 78.8095C41.8919 78.8095 42.0106 78.8469 42.0919 78.922C42.1737 78.9975 42.2148 79.1067 42.2148 79.2511C42.2148 79.269 42.2148 79.2843 42.214 79.2972C42.2134 79.3103 42.2115 79.3234 42.2086 79.3362C42.0978 79.3227 41.9864 79.3154 41.8749 79.3142C41.5748 79.3142 41.3366 79.3798 41.1594 79.5105C40.9826 79.6408 40.8937 79.8135 40.8937 80.0301C40.8937 80.2206 40.9581 80.3754 41.0867 80.4921C41.2154 80.6095 41.3847 80.668 41.5947 80.668C41.701 80.668 41.8056 80.646 41.9085 80.6033C42.0114 80.5605 42.1156 80.4946 42.2206 80.4053C42.2247 80.4871 42.2401 80.5464 42.2671 80.583C42.2941 80.6203 42.3372 80.6382 42.3966 80.6382C42.4298 80.6382 42.4688 80.6294 42.5128 80.6116C42.5572 80.5937 42.6066 80.5672 42.6601 80.5323C42.604 80.4473 42.5663 80.3514 42.5493 80.2509V80.2509ZM43.5362 79.0341C43.5333 79.188 43.5296 79.3536 43.525 79.53C43.5201 79.7077 43.518 79.8073 43.518 79.8293C43.518 80.0115 43.5259 80.1592 43.5429 80.2717C43.5595 80.385 43.5856 80.48 43.6217 80.5556C43.57 80.5834 43.5156 80.6062 43.4595 80.6236C43.4124 80.6379 43.3634 80.6453 43.3142 80.6456C43.2495 80.6456 43.2051 80.6278 43.1814 80.5913C43.1573 80.5547 43.1457 80.4788 43.1457 80.3626C43.1457 80.3373 43.1532 80.2086 43.1681 79.9741C43.1831 79.74 43.1905 79.5192 43.1905 79.3109C43.1905 79.1137 43.1826 78.9614 43.1677 78.8535C43.1548 78.7547 43.13 78.6579 43.0938 78.5651C43.1245 78.5555 43.1557 78.548 43.1872 78.5422C43.2187 78.5364 43.249 78.5335 43.2785 78.5335C43.3524 78.5335 43.4113 78.5547 43.4549 78.5949C43.5005 78.641 43.5268 78.7028 43.5284 78.7676C43.6325 78.6929 43.7425 78.6356 43.8591 78.5949C43.9758 78.5543 44.0911 78.5335 44.2049 78.5335C44.3435 78.5335 44.468 78.5642 44.5784 78.6252C44.6888 78.6858 44.7735 78.7705 44.8316 78.8772C44.8718 78.9519 44.9009 79.0378 44.9179 79.1357C44.9353 79.2345 44.9436 79.3839 44.9436 79.5856C44.9436 79.606 44.9428 79.6562 44.9407 79.7338C44.9386 79.8114 44.9378 79.8799 44.9378 79.9372C44.9378 80.0808 44.9469 80.2049 44.9656 80.3078C44.9839 80.4115 45.0121 80.4925 45.0495 80.551C44.9839 80.5825 44.9274 80.607 44.8793 80.6224C44.8311 80.6377 44.788 80.6452 44.749 80.6452C44.6838 80.6452 44.6382 80.6282 44.6124 80.5942C44.5867 80.5601 44.5738 80.4954 44.5738 80.3995C44.5738 80.3426 44.5788 80.2186 44.5888 80.0289C44.5983 79.84 44.6037 79.6786 44.6037 79.5458C44.6037 79.2922 44.5651 79.1088 44.4887 78.9946C44.4124 78.8813 44.2895 78.8236 44.1202 78.8236C44.0247 78.8254 43.9302 78.8435 43.8409 78.8772C43.7333 78.9168 43.631 78.9695 43.5362 79.0341V79.0341ZM43.7761 78.1326C43.6973 78.135 43.6216 78.1638 43.5611 78.2144C43.4902 78.2687 43.4503 78.2961 43.442 78.2961C43.4335 78.2966 43.425 78.2948 43.4173 78.2911C43.4097 78.2874 43.403 78.2819 43.398 78.275C43.3871 78.2558 43.382 78.2339 43.3835 78.2119C43.3835 78.1139 43.43 78.023 43.523 77.9388C43.6163 77.8554 43.7205 77.813 43.8359 77.813C43.904 77.813 43.9978 77.8317 44.1173 77.8691C44.2372 77.9056 44.3211 77.9243 44.37 77.9243C44.4424 77.9229 44.5121 77.8965 44.5672 77.8495C44.6303 77.8002 44.6656 77.7757 44.6722 77.7757C44.6905 77.7757 44.7046 77.7823 44.7141 77.7943C44.7247 77.8104 44.7298 77.8295 44.7286 77.8487C44.7286 77.9583 44.688 78.0521 44.6074 78.1318C44.5698 78.1705 44.5247 78.2011 44.4748 78.2217C44.4249 78.2423 44.3713 78.2525 44.3173 78.2517C44.2493 78.2517 44.1551 78.2322 44.0347 78.1915C43.9156 78.1529 43.8288 78.1326 43.7761 78.1326V78.1326ZM45.9849 80.1771C45.8409 80.0326 45.7687 79.8504 45.7687 79.6292C45.7687 79.3794 45.8393 79.1793 45.9816 79.0287C46.1236 78.878 46.3103 78.8025 46.5415 78.8025C46.7681 78.8025 46.9524 78.8755 47.0947 79.0204C47.2371 79.1656 47.3081 79.3545 47.3081 79.5844C47.3081 79.8218 47.2354 80.0156 47.0906 80.1663C46.9457 80.3169 46.7598 80.3925 46.5332 80.3925C46.3116 80.3925 46.129 80.3215 45.9849 80.1771ZM47.0296 80.5776C47.1952 80.4902 47.3393 80.367 47.4512 80.2169C47.5168 80.1335 47.5687 80.0322 47.6069 79.9139C47.6455 79.7956 47.6646 79.6757 47.6646 79.5541C47.6646 79.2532 47.5629 79.0038 47.3604 78.8074C47.1574 78.6103 46.8988 78.5124 46.5851 78.5124C46.2381 78.5124 45.9555 78.6161 45.738 78.8228C45.5205 79.0295 45.4118 79.2993 45.4118 79.6309C45.4118 79.9438 45.5135 80.199 45.7172 80.3987C45.9206 80.5979 46.1842 80.6979 46.5079 80.6979C46.6988 80.6975 46.8727 80.6577 47.0296 80.5776V80.5776ZM48.6382 80.5514C48.5801 80.5838 48.5258 80.6074 48.476 80.6228C48.43 80.6374 48.3822 80.6451 48.334 80.6456C48.268 80.6456 48.2224 80.6269 48.1975 80.5888C48.1726 80.5498 48.1605 80.4775 48.1605 80.3725C48.1605 80.2406 48.168 79.9882 48.1825 79.6172C48.1975 79.2457 48.2049 78.9403 48.2049 78.6995C48.2049 78.4011 48.1962 78.1749 48.178 78.021C48.1601 77.8678 48.1294 77.7504 48.0862 77.669C48.1414 77.6375 48.1946 77.613 48.2456 77.5976C48.2971 77.5831 48.3452 77.5748 48.3909 77.5748C48.4598 77.5748 48.5071 77.5926 48.532 77.6275C48.5569 77.6624 48.5693 77.7329 48.5693 77.8408C48.5693 77.9301 48.5619 78.1633 48.5469 78.5418C48.533 78.8753 48.5255 79.2091 48.5245 79.5429C48.5245 79.8517 48.5332 80.077 48.5503 80.2198C48.5673 80.3617 48.5967 80.4721 48.6382 80.5514V80.5514ZM50.4225 79.7263L50.4208 79.8446C50.4205 79.9436 50.4225 80.0425 50.4266 80.1414C50.3589 80.2143 50.2768 80.2724 50.1855 80.3119C50.0942 80.3514 49.9957 80.3715 49.8962 80.3709C49.7605 80.3709 49.6542 80.3385 49.577 80.2729C49.4998 80.2074 49.4617 80.1173 49.4617 80.0032C49.4617 79.862 49.5169 79.755 49.6273 79.6832C49.7381 79.6118 49.9016 79.5761 50.1187 79.5761C50.1548 79.5761 50.1988 79.5777 50.2498 79.5836C50.3013 79.5877 50.3586 79.5948 50.4229 79.6056C50.4242 79.6458 50.4241 79.6861 50.4225 79.7263V79.7263ZM50.7682 80.2509C50.7445 80.1335 50.7333 79.9795 50.7333 79.7873C50.7333 79.7176 50.7358 79.6259 50.74 79.5118C50.7441 79.3976 50.7466 79.3171 50.7466 79.2719C50.7466 79.0262 50.6827 78.8431 50.5553 78.7199C50.427 78.5966 50.2365 78.5344 49.9817 78.5344C49.7742 78.5344 49.6061 78.5676 49.477 78.634C49.3484 78.6995 49.284 78.7838 49.284 78.8859C49.284 78.9344 49.2969 78.9743 49.3222 79.005C49.3475 79.0357 49.3853 79.0569 49.4351 79.0697C49.487 78.9805 49.5542 78.9149 49.6376 78.8726C49.7211 78.8303 49.8269 78.8095 49.9556 78.8095C50.1108 78.8095 50.2291 78.8469 50.3112 78.922C50.393 78.9975 50.4337 79.1067 50.4337 79.2511C50.4337 79.269 50.4337 79.2843 50.4328 79.2972C50.432 79.3101 50.4303 79.3229 50.427 79.3362C50.3163 79.3228 50.2049 79.3154 50.0933 79.3142C49.7937 79.3142 49.5555 79.3798 49.3782 79.5105C49.2014 79.6408 49.1126 79.8135 49.1126 80.0301C49.1126 80.2206 49.177 80.3754 49.3056 80.4921C49.4343 80.6095 49.6036 80.668 49.8136 80.668C49.9199 80.668 50.0244 80.646 50.1274 80.6033C50.2303 80.5605 50.3345 80.4946 50.4395 80.4053C50.4436 80.4871 50.459 80.5464 50.4855 80.583C50.5129 80.6203 50.5561 80.6382 50.615 80.6382C50.6552 80.6367 50.6948 80.6277 50.7317 80.6116C50.7752 80.5937 50.825 80.5672 50.879 80.5323C50.8222 80.4476 50.7844 80.3516 50.7682 80.2509V80.2509ZM53.0529 78.9506C53.16 78.8469 53.2945 78.7942 53.4559 78.7942C53.6074 78.7942 53.7274 78.8315 53.8149 78.9062C53.9025 78.9809 53.9461 79.0822 53.9461 79.21C53.9461 79.2943 53.917 79.3528 53.8585 79.3852C53.8 79.4175 53.6834 79.4337 53.5099 79.4337C53.3816 79.4337 53.2625 79.4304 53.1517 79.4225C53.0503 79.4155 52.9492 79.4039 52.8487 79.3877C52.8778 79.2001 52.9463 79.0544 53.0529 78.9506ZM53.8241 80.3227C53.7313 80.3503 53.6349 80.364 53.5381 80.3634C53.3186 80.3634 53.1442 80.3003 53.016 80.1746C52.8878 80.0488 52.8238 79.8786 52.8238 79.6632V79.6342C53.0409 79.6642 53.2597 79.6793 53.4788 79.6794C53.773 79.6794 53.9814 79.6454 54.1046 79.5765C54.2271 79.5084 54.2885 79.3943 54.2885 79.2337C54.2885 79.0295 54.2146 78.8622 54.0673 78.7311C53.9191 78.5999 53.7303 78.5339 53.4999 78.5339C53.2015 78.5339 52.9575 78.6369 52.767 78.8427C52.5773 79.0477 52.4814 79.3121 52.4814 79.6346C52.4814 79.9546 52.5765 80.2061 52.7645 80.3875C52.9533 80.5693 53.2144 80.6606 53.5468 80.6606C53.7286 80.6606 53.8743 80.6361 53.9872 80.5883C54.0992 80.5398 54.1549 80.478 54.1549 80.402C54.1542 80.3691 54.1467 80.3368 54.1329 80.307C54.1146 80.2687 54.0914 80.233 54.064 80.2007C53.9917 80.2555 53.9116 80.2962 53.8241 80.3227V80.3227ZM56.648 80.5394C56.5879 80.5716 56.5249 80.5981 56.4599 80.6186C56.4045 80.6357 56.3469 80.6447 56.2889 80.6452C56.2151 80.6452 56.1649 80.6249 56.1375 80.5838C56.1109 80.5431 56.0968 80.4638 56.0968 80.3472C56.0968 80.287 56.1034 80.0974 56.1155 79.779C56.1275 79.4607 56.1341 79.171 56.1341 78.9083C56.1341 78.5725 56.1246 78.314 56.1043 78.1318C56.0839 77.95 56.0524 77.8188 56.008 77.7379C56.0785 77.7006 56.1433 77.6723 56.201 77.6545C56.253 77.6369 56.3075 77.6277 56.3624 77.6271C56.4355 77.6271 56.4857 77.6483 56.5147 77.6902C56.5438 77.7317 56.5583 77.806 56.5583 77.913C56.5583 77.9301 56.5508 78.1035 56.5363 78.4327C56.5212 78.7548 56.5136 79.0772 56.5135 79.3997C56.5135 79.7176 56.5239 79.9646 56.545 80.1422C56.5662 80.319 56.6002 80.451 56.648 80.5394V80.5394ZM57.6345 79.0341C57.632 79.188 57.6278 79.3536 57.6233 79.53C57.6201 79.6297 57.6177 79.7295 57.6158 79.8293C57.6158 80.0115 57.6241 80.1592 57.6411 80.2717C57.6573 80.385 57.6843 80.48 57.7204 80.5556C57.6685 80.5833 57.6142 80.606 57.5581 80.6236C57.5107 80.6379 57.4615 80.6453 57.412 80.6456C57.3481 80.6456 57.3033 80.6278 57.28 80.5913C57.2556 80.5547 57.2444 80.4788 57.2444 80.3626C57.2444 80.3373 57.2518 80.2086 57.2664 79.9741C57.2817 79.74 57.2892 79.5192 57.2892 79.3109C57.2892 79.1137 57.2809 78.9614 57.2664 78.8535C57.2532 78.7548 57.2284 78.6579 57.1925 78.5651C57.2224 78.5555 57.2539 78.548 57.285 78.5422C57.3166 78.5364 57.3473 78.5335 57.3767 78.5335C57.4411 78.5304 57.5042 78.5525 57.5527 78.5949C57.5986 78.6409 57.6251 78.7027 57.6266 78.7676C57.7304 78.6929 57.8416 78.6356 57.9574 78.5949C58.074 78.5543 58.1902 78.5335 58.3035 78.5335C58.4421 78.5335 58.5671 78.5642 58.677 78.6252C58.787 78.6863 58.8717 78.7705 58.9298 78.8772C58.9705 78.9519 58.9987 79.0378 59.0165 79.1357C59.0336 79.2345 59.0423 79.3839 59.0423 79.5856C59.0423 79.606 59.0414 79.6562 59.039 79.7338C59.0365 79.8114 59.0356 79.8799 59.0356 79.9372C59.0356 80.0808 59.0452 80.2049 59.0639 80.3078C59.0825 80.4115 59.1099 80.4925 59.1473 80.551C59.0922 80.5785 59.0353 80.6023 58.9771 80.6224C58.9351 80.6366 58.8911 80.6443 58.8468 80.6452C58.7812 80.6452 58.7356 80.6282 58.7098 80.5942C58.6841 80.5601 58.6717 80.4954 58.6717 80.3995C58.6717 80.3426 58.6758 80.2186 58.6862 80.0289C58.6957 79.84 58.7015 79.6786 58.7015 79.5458C58.7015 79.2922 58.6625 79.1088 58.5866 78.9946C58.5102 78.8813 58.3874 78.8236 58.2176 78.8236C58.1317 78.8236 58.0383 78.8415 57.9387 78.8772C57.8391 78.9133 57.7374 78.9652 57.6345 79.0341V79.0341ZM59.786 78.9676C59.7531 78.9678 59.7201 78.9689 59.6872 78.971C59.6457 78.9718 59.6183 78.9735 59.6063 78.9735C59.5486 78.9735 59.5084 78.9652 59.4855 78.949C59.4619 78.9336 59.4507 78.9058 59.4507 78.868C59.4507 78.8502 59.454 78.829 59.4602 78.805C59.466 78.7813 59.4764 78.7539 59.4901 78.724C59.5013 78.724 59.52 78.7249 59.547 78.7265L59.61 78.7282C59.6457 78.7282 59.7042 78.7265 59.7835 78.7215C59.7931 78.7215 59.8014 78.7215 59.8072 78.7199C59.8072 78.7045 59.8072 78.6817 59.8088 78.651C59.8105 78.6203 59.8113 78.5974 59.8113 78.5829C59.8113 78.4742 59.8039 78.3779 59.7902 78.2945C59.7783 78.2187 59.7562 78.1448 59.7246 78.0749C59.7771 78.0489 59.8313 78.0264 59.8869 78.0077C59.926 77.9938 59.967 77.9861 60.0085 77.9848C60.0662 77.9848 60.1072 78.0027 60.1334 78.0384C60.1595 78.0741 60.1724 78.1326 60.1724 78.2135C60.1724 78.2492 60.1658 78.3596 60.1537 78.5443L60.1434 78.7082C60.2235 78.6979 60.2965 78.6896 60.3604 78.6838C60.4252 78.6788 60.4829 78.6763 60.5339 78.6763C60.5791 78.6763 60.6123 78.6846 60.6327 78.7008C60.653 78.7178 60.6626 78.7444 60.6626 78.7817C60.6612 78.8087 60.6549 78.8351 60.6439 78.8597C60.6292 78.8958 60.6112 78.9306 60.5903 78.9635C60.5526 78.9568 60.5145 78.952 60.4762 78.949C60.3985 78.9432 60.3204 78.9423 60.2425 78.9465L60.1176 78.9506C60.1056 79.1669 60.0965 79.3453 60.0911 79.4856C60.0857 79.6259 60.0828 79.74 60.0828 79.8284C60.0828 80.0214 60.0998 80.1567 60.1338 80.2339C60.1678 80.3111 60.2247 80.3489 60.3048 80.3489C60.3276 80.3489 60.35 80.3447 60.3745 80.3368C60.399 80.329 60.4231 80.3157 60.4484 80.297C60.4613 80.3252 60.4704 80.3497 60.4758 80.3709C60.4812 80.392 60.4841 80.4099 60.4841 80.4269C60.4846 80.4597 60.4772 80.4921 60.4626 80.5215C60.4479 80.5508 60.4264 80.5761 60.3998 80.5954C60.343 80.6398 60.2695 80.6618 60.1786 80.6618C60.028 80.6618 59.9159 80.6116 59.8429 80.512C59.7698 80.4124 59.7333 80.2601 59.7333 80.0534C59.7333 79.9949 59.7399 79.84 59.7545 79.589C59.7682 79.3362 59.7785 79.1295 59.786 78.9676V78.9676ZM61.4997 78.9506C61.6068 78.8469 61.7404 78.7942 61.9027 78.7942C62.0542 78.7942 62.1733 78.8315 62.2608 78.9062C62.3493 78.9809 62.392 79.0822 62.392 79.21C62.392 79.2943 62.3629 79.3528 62.3044 79.3852C62.2459 79.4175 62.1301 79.4337 61.9566 79.4337C61.8276 79.4337 61.7084 79.4304 61.5985 79.4225C61.4967 79.4155 61.3953 79.4038 61.2947 79.3877C61.3237 79.2001 61.3926 79.0544 61.4997 78.9506V78.9506ZM62.2704 80.3227C62.1773 80.3503 62.0807 80.364 61.9836 80.3634C61.7641 80.3634 61.5897 80.3003 61.4623 80.1746C61.3333 80.0488 61.2693 79.8786 61.2693 79.6632V79.6342C61.4866 79.6641 61.7057 79.6792 61.9251 79.6794C62.2193 79.6794 62.4277 79.6454 62.5501 79.5765C62.6734 79.5084 62.734 79.3943 62.734 79.2337C62.734 79.0295 62.6601 78.8622 62.5128 78.7311C62.3654 78.5999 62.1762 78.5339 61.9463 78.5339C61.6478 78.5339 61.4038 78.6369 61.2133 78.8427C61.0228 79.0477 60.9274 79.3121 60.9274 79.6346C60.9274 79.9546 61.0224 80.2061 61.2112 80.3875C61.3992 80.5693 61.6603 80.6606 61.9936 80.6606C62.1745 80.6606 62.321 80.6361 62.4331 80.5883C62.5451 80.5398 62.6008 80.478 62.6008 80.402C62.6001 80.3691 62.5926 80.3368 62.5788 80.307C62.5608 80.2687 62.5379 80.233 62.5107 80.2007C62.4385 80.2554 62.3571 80.2967 62.2704 80.3227V80.3227ZM63.5172 78.9959C63.6217 78.8506 63.7205 78.7423 63.8156 78.6709C63.9106 78.5995 64.0036 78.5638 64.0953 78.5638C64.1733 78.5638 64.2397 78.5883 64.2945 78.6377C64.3399 78.6767 64.3688 78.7314 64.3754 78.7909C64.382 78.8503 64.3659 78.9101 64.3302 78.9581C64.2914 79.0106 64.2436 79.0558 64.1891 79.0917C64.1729 79.0409 64.1445 78.9947 64.1065 78.9573C64.0743 78.9284 64.0323 78.9128 63.989 78.9137C63.921 78.9137 63.8488 78.9477 63.7732 79.015C63.6985 79.0822 63.6251 79.1793 63.5528 79.3059C63.538 79.4327 63.5301 79.5601 63.5292 79.6877C63.5292 79.8977 63.5412 80.0721 63.5641 80.2123C63.5869 80.3518 63.6226 80.4667 63.6703 80.556C63.6151 80.585 63.5607 80.6079 63.508 80.6232C63.4569 80.6381 63.404 80.6458 63.3507 80.646C63.2835 80.646 63.2366 80.629 63.2113 80.595C63.1855 80.561 63.1723 80.4921 63.1723 80.3891C63.1723 80.351 63.1797 80.2069 63.1943 79.9546C63.2096 79.7035 63.2171 79.469 63.2171 79.2528C63.2171 79.076 63.2096 78.9398 63.1959 78.8452C63.185 78.7588 63.1621 78.6742 63.1279 78.5941C63.1552 78.5846 63.183 78.5771 63.2096 78.5721C63.2362 78.5671 63.264 78.5647 63.293 78.5647C63.3731 78.5647 63.4325 78.5833 63.4715 78.6223C63.5097 78.6605 63.5292 78.7186 63.5292 78.7975C63.5292 78.8162 63.5284 78.8406 63.5267 78.8714L63.5172 78.9959V78.9959ZM65.1084 79.0341C65.1059 79.188 65.1017 79.3536 65.0972 79.53C65.094 79.6297 65.0916 79.7295 65.0897 79.8293C65.0897 80.0115 65.098 80.1592 65.115 80.2717C65.1312 80.385 65.1582 80.48 65.1943 80.5556C65.1424 80.5833 65.0881 80.606 65.032 80.6236C64.9846 80.6379 64.9354 80.6453 64.8859 80.6456C64.8212 80.6456 64.7772 80.6278 64.754 80.5913C64.7295 80.5547 64.7183 80.4788 64.7183 80.3626C64.7183 80.3373 64.7257 80.2086 64.7403 79.9741C64.7556 79.74 64.7631 79.5192 64.7631 79.3109C64.7631 79.1137 64.7548 78.9614 64.7403 78.8535C64.7269 78.7547 64.7018 78.6579 64.6655 78.5651C64.6963 78.5555 64.7278 78.548 64.7589 78.5422C64.7905 78.5364 64.8212 78.5335 64.8507 78.5335C64.9151 78.5304 64.9781 78.5525 65.0266 78.5949C65.0725 78.6409 65.099 78.7027 65.1005 78.7676C65.2043 78.6929 65.3147 78.6356 65.4313 78.5949C65.5479 78.5543 65.6633 78.5335 65.7774 78.5335C65.916 78.5335 66.041 78.5642 66.1509 78.6252C66.2609 78.6863 66.3456 78.7705 66.4037 78.8772C66.4444 78.9519 66.4726 79.0378 66.4904 79.1357C66.5075 79.2345 66.5162 79.3839 66.5162 79.5856C66.5162 79.606 66.5145 79.6562 66.5129 79.7338C66.5104 79.8118 66.5095 79.8799 66.5095 79.9372C66.5095 80.0808 66.5191 80.2049 66.5369 80.3078C66.5556 80.4115 66.5838 80.4925 66.6212 80.551C66.5661 80.5785 66.5092 80.6023 66.451 80.6224C66.409 80.6366 66.365 80.6443 66.3207 80.6452C66.2551 80.6452 66.2095 80.6282 66.1837 80.5942C66.158 80.5601 66.1456 80.4954 66.1456 80.3995C66.1456 80.3426 66.1497 80.2186 66.1601 80.0289C66.1696 79.84 66.1746 79.6786 66.1746 79.5458C66.1746 79.2922 66.1364 79.1088 66.0605 78.9946C65.9833 78.8813 65.8613 78.8236 65.6915 78.8236C65.6056 78.8236 65.5122 78.8415 65.4118 78.8772C65.3047 78.9171 65.2028 78.9698 65.1084 79.0341V79.0341ZM68.317 79.7263C68.3153 79.7799 68.3145 79.8197 68.3145 79.8446L68.3153 79.9712C68.3162 80.0148 68.3178 80.0716 68.3212 80.1414C68.2464 80.2177 68.1655 80.275 68.0763 80.3132C67.986 80.3519 67.8886 80.3715 67.7903 80.3709C67.655 80.3709 67.548 80.3385 67.4708 80.2729C67.3936 80.2074 67.3558 80.1173 67.3558 80.0032C67.3558 79.862 67.411 79.755 67.5218 79.6832C67.6322 79.6118 67.7957 79.5761 68.0132 79.5761C68.0489 79.5761 68.0925 79.5777 68.1435 79.5836C68.1946 79.5877 68.2523 79.5948 68.317 79.6056C68.3187 79.6458 68.3187 79.6861 68.317 79.7263V79.7263ZM68.6615 80.2509C68.6355 80.0978 68.6239 79.9426 68.6266 79.7873C68.6266 79.7176 68.6291 79.6259 68.6333 79.5118C68.6382 79.3976 68.6399 79.3171 68.6399 79.2719C68.6399 79.0262 68.576 78.8431 68.4486 78.7199C68.3212 78.5966 68.1298 78.5344 67.8754 78.5344C67.6679 78.5344 67.4994 78.5676 67.3703 78.634C67.2421 78.6995 67.1773 78.7838 67.1773 78.8859C67.1773 78.9344 67.1902 78.9743 67.2155 79.005C67.2454 79.0381 67.2851 79.0608 67.3288 79.0697C67.3807 78.9805 67.4479 78.9149 67.5313 78.8726C67.6139 78.8303 67.7202 78.8095 67.8493 78.8095C68.0041 78.8095 68.1224 78.8469 68.2041 78.922C68.2859 78.9971 68.3274 79.1067 68.3274 79.2511L68.3266 79.2972C68.3249 79.3101 68.3232 79.3229 68.3207 79.3362C68.2098 79.3228 68.0983 79.3155 67.9866 79.3142C67.6866 79.3142 67.4483 79.3798 67.2715 79.5105C67.0939 79.6408 67.0055 79.8135 67.0055 80.0301C67.0055 80.2206 67.0694 80.3754 67.1985 80.4921C67.3276 80.6095 67.4969 80.668 67.7069 80.668C67.8132 80.668 67.9177 80.646 68.0207 80.6033C68.1236 80.5605 68.2274 80.4946 68.3328 80.4053C68.3369 80.4871 68.3531 80.5464 68.3797 80.583C68.4062 80.6203 68.4494 80.6382 68.5092 80.6382C68.5424 80.6382 68.5814 80.6294 68.625 80.6116C68.6694 80.5937 68.7183 80.5672 68.7723 80.5323C68.7155 80.4476 68.6777 80.3516 68.6615 80.2509V80.2509ZM70.5486 78.9556C70.4994 78.9245 70.4462 78.9002 70.3905 78.8834C70.3348 78.8683 70.2772 78.8609 70.2195 78.8614C70.0078 78.8614 69.8319 78.9378 69.692 79.0901C69.5521 79.2424 69.4812 79.4354 69.4812 79.6682C69.4812 79.8799 69.5434 80.0467 69.6675 80.1708C69.7924 80.2941 69.9609 80.3555 70.1734 80.3555C70.2652 80.3555 70.3486 80.3435 70.4241 80.3173C70.5011 80.2917 70.5727 80.2519 70.635 80.1999C70.6607 80.2356 70.681 80.2688 70.6951 80.3011C70.7093 80.3335 70.7163 80.3642 70.7163 80.3945C70.7163 80.4829 70.6653 80.5535 70.5632 80.6054C70.4619 80.6572 70.3233 80.6834 70.149 80.6834C69.8435 80.6834 69.5953 80.5958 69.404 80.4198C69.2135 80.2447 69.118 80.0168 69.118 79.7359C69.118 79.3947 69.233 79.1075 69.4642 78.8759C69.6953 78.6443 69.9755 78.5273 70.3054 78.5273C70.4262 78.5273 70.5163 78.5451 70.5752 78.58C70.6341 78.6149 70.6636 78.6676 70.6636 78.739C70.6636 78.7755 70.6553 78.8103 70.637 78.8444C70.6184 78.8776 70.5889 78.9149 70.5486 78.9556V78.9556ZM71.5908 80.5514C71.5323 80.5838 71.4766 80.6074 71.4239 80.6228C71.3712 80.6382 71.321 80.6456 71.2724 80.6456C71.2044 80.6456 71.1583 80.6269 71.1347 80.5904C71.1102 80.5531 71.0981 80.4784 71.0981 80.3676C71.0981 80.3036 71.1039 80.16 71.1168 79.9372C71.1288 79.7135 71.1355 79.5213 71.1355 79.3615C71.1355 79.1864 71.1272 79.0453 71.1102 78.9361C71.0968 78.8399 71.0692 78.7462 71.0284 78.658C71.0803 78.6273 71.133 78.6037 71.1874 78.5883C71.2417 78.5721 71.2953 78.5638 71.348 78.5638C71.4119 78.5638 71.4559 78.58 71.4791 78.6107C71.5028 78.6423 71.5148 78.7008 71.5148 78.7859C71.5148 78.8079 71.5082 78.9303 71.4961 79.1515C71.4838 79.362 71.4776 79.5728 71.4775 79.7836C71.4775 79.9708 71.4862 80.1256 71.5049 80.248C71.5235 80.3717 71.5522 80.4721 71.5908 80.5514V80.5514ZM71.5738 77.9301C71.5738 78.0093 71.5464 78.0753 71.4903 78.128C71.4343 78.1807 71.3638 78.2073 71.2787 78.2073C71.2141 78.2104 71.151 78.188 71.1027 78.1451C71.0809 78.1228 71.0639 78.0963 71.0529 78.0671C71.0419 78.038 71.0371 78.0068 71.0388 77.9757C71.0388 77.8977 71.0662 77.8313 71.1222 77.7765C71.1488 77.75 71.1804 77.7291 71.2152 77.7151C71.25 77.701 71.2872 77.6941 71.3247 77.6947C71.397 77.6947 71.4567 77.7167 71.5032 77.7611C71.5505 77.8051 71.5738 77.862 71.5738 77.9301V77.9301ZM72.584 80.1771C72.4395 80.0326 72.3677 79.8504 72.3677 79.6292C72.3677 79.3794 72.4391 79.1793 72.581 79.0287C72.723 78.878 72.9102 78.8025 73.1413 78.8025C73.3675 78.8025 73.5522 78.8755 73.6942 79.0204C73.8361 79.1652 73.9075 79.3545 73.9075 79.5844C73.9075 79.8218 73.8344 80.0156 73.6904 80.1663C73.5452 80.3169 73.3596 80.3925 73.1326 80.3925C72.9106 80.3925 72.7284 80.3215 72.584 80.1771V80.1771ZM73.629 80.5776C73.7946 80.4901 73.9386 80.3669 74.0507 80.2169C74.1162 80.1335 74.1681 80.0322 74.2063 79.9139C74.2447 79.7978 74.2642 79.6764 74.264 79.5541C74.264 79.2532 74.1627 79.0038 73.9602 78.8074C73.7568 78.6103 73.4991 78.5124 73.1853 78.5124C72.8375 78.5124 72.5553 78.6161 72.3383 78.8228C72.1204 79.0295 72.0116 79.2993 72.0116 79.6309C72.0116 79.9438 72.1137 80.199 72.3171 80.3987C72.5204 80.5983 72.784 80.6979 73.1073 80.6979C73.2982 80.6975 73.4725 80.6577 73.629 80.5776ZM75.1132 79.0341C75.1076 79.2991 75.1011 79.5642 75.0937 79.8293C75.0937 80.0115 75.1024 80.1592 75.119 80.2717C75.136 80.385 75.1621 80.48 75.1982 80.5556C75.1464 80.5833 75.0921 80.606 75.036 80.6236C74.9886 80.6379 74.9394 80.6453 74.8899 80.6456C74.826 80.6456 74.7811 80.6278 74.7579 80.5913C74.7334 80.5547 74.7222 80.4788 74.7222 80.3626C74.7222 80.3373 74.7297 80.2086 74.7442 79.9741C74.7596 79.74 74.767 79.5192 74.767 79.3109C74.767 79.1137 74.7596 78.9614 74.7442 78.8535C74.7311 78.7548 74.7063 78.6579 74.6703 78.5651C74.701 78.5555 74.7317 78.548 74.7637 78.5422C74.7944 78.5364 74.8251 78.5335 74.8546 78.5335C74.9293 78.5335 74.9874 78.5547 75.0314 78.5949C75.0769 78.6411 75.103 78.7028 75.1044 78.7676C75.209 78.6929 75.3194 78.6356 75.4361 78.5949C75.5527 78.5543 75.6681 78.5335 75.7814 78.5335C75.92 78.5335 76.0449 78.5642 76.1549 78.6252C76.2649 78.6863 76.3495 78.7705 76.4076 78.8772C76.4483 78.9519 76.4765 79.0378 76.4944 79.1357C76.5114 79.2345 76.5201 79.3839 76.5201 79.5856C76.5201 79.606 76.5193 79.6562 76.5168 79.7338C76.5151 79.8118 76.5143 79.8799 76.5143 79.9372C76.5143 80.0808 76.523 80.2049 76.5417 80.3078C76.5604 80.4115 76.5878 80.4925 76.6251 80.551C76.5595 80.5825 76.5027 80.607 76.455 80.6224C76.4072 80.6377 76.3632 80.6452 76.3246 80.6452C76.2591 80.6452 76.2134 80.6282 76.1885 80.5942C76.1619 80.5601 76.1495 80.4954 76.1495 80.3995C76.1495 80.3426 76.1545 80.2186 76.164 80.0289C76.1736 79.84 76.1794 79.6786 76.1794 79.5458C76.1794 79.2922 76.1404 79.1088 76.0644 78.9946C75.988 78.8813 75.8652 78.8236 75.6954 78.8236C75.6095 78.8236 75.5162 78.8415 75.4165 78.8772C75.3093 78.9167 75.2074 78.9694 75.1132 79.0341V79.0341ZM78.3205 79.7263C78.3197 79.7799 78.318 79.8197 78.318 79.8446C78.318 79.8853 78.3189 79.9264 78.3197 79.9712C78.3205 80.0148 78.3222 80.0716 78.3247 80.1414C78.2555 80.2143 78.1726 80.2727 78.0806 80.3132C77.99 80.3518 77.8924 80.3714 77.7939 80.3709C77.6585 80.3709 77.5523 80.3385 77.4751 80.2729C77.3979 80.2074 77.3593 80.1173 77.3593 80.0032C77.3593 79.862 77.4145 79.755 77.5253 79.6832C77.6357 79.6118 77.7992 79.5761 78.0167 79.5761C78.0532 79.5761 78.096 79.5777 78.1479 79.5836C78.1989 79.5877 78.2566 79.5948 78.3205 79.6056C78.3222 79.6458 78.3222 79.6861 78.3205 79.7263V79.7263ZM78.665 80.2509C78.6394 80.0978 78.628 79.9426 78.631 79.7873C78.631 79.7176 78.6335 79.6259 78.6376 79.5118C78.6418 79.3976 78.6434 79.3171 78.6434 79.2719C78.6434 79.0262 78.5803 78.8431 78.4529 78.7199C78.3247 78.5966 78.1333 78.5344 77.8789 78.5344C77.6714 78.5344 77.5029 78.5676 77.3747 78.634C77.2456 78.6995 77.1809 78.7838 77.1809 78.8859C77.1809 78.9344 77.1937 78.9743 77.2199 79.005C77.2495 79.038 77.2889 79.0607 77.3323 79.0697C77.3842 78.9805 77.4515 78.9149 77.5349 78.8726C77.6183 78.8303 77.7237 78.8095 77.8528 78.8095C78.0084 78.8095 78.1267 78.8469 78.2085 78.922C78.2894 78.9975 78.3309 79.1067 78.3309 79.2511L78.3301 79.2972C78.3293 79.3103 78.3274 79.3234 78.3243 79.3362C78.2134 79.3228 78.1018 79.3155 77.9902 79.3142C77.6909 79.3142 77.4519 79.3798 77.2751 79.5105C77.0983 79.6412 77.009 79.8135 77.009 80.0301C77.009 80.2206 77.0738 80.3754 77.2028 80.4921C77.3319 80.6095 77.5004 80.668 77.7104 80.668C77.8175 80.668 77.9221 80.646 78.025 80.6033C78.128 80.5605 78.2317 80.4946 78.3363 80.4053C78.3413 80.4871 78.3566 80.5464 78.3832 80.583C78.4106 80.6203 78.4538 80.6382 78.5127 80.6382C78.5529 80.6367 78.5925 80.6277 78.6293 80.6116C78.6729 80.5937 78.7227 80.5672 78.7762 80.5323C78.7201 80.4472 78.6823 80.3514 78.665 80.2509V80.2509ZM79.7773 80.5514C79.7256 80.5809 79.6709 80.6049 79.6142 80.6228C79.5685 80.6374 79.521 80.6451 79.4731 80.6456C79.4067 80.6456 79.361 80.6269 79.3361 80.5888C79.3116 80.5498 79.2988 80.4775 79.2988 80.3725C79.2988 80.2406 79.3062 79.9882 79.3216 79.6172C79.3347 79.3115 79.342 79.0055 79.3436 78.6995C79.3436 78.4011 79.3349 78.1749 79.317 78.021C79.2992 77.8678 79.2685 77.7504 79.2245 77.669C79.2805 77.6375 79.334 77.613 79.3851 77.5976C79.4361 77.5831 79.4839 77.5748 79.5303 77.5748C79.5992 77.5748 79.6461 77.5926 79.6715 77.6275C79.6959 77.6624 79.7088 77.7329 79.7088 77.8408C79.7088 77.9301 79.7005 78.1633 79.686 78.5418C79.6721 78.8753 79.6645 79.2091 79.6632 79.5429C79.6632 79.8517 79.6719 80.077 79.6897 80.2198C79.7067 80.3617 79.7358 80.4721 79.7773 80.5514V80.5514Z" fill="black"/>
<path fill-rule="evenodd" clip-rule="evenodd" d="M52.2408 53.8096L51.5967 52.1275H53.0522L54.2894 53.3651L55.6001 54.6754L57.1282 55.7669L58.1957 57.5138L55.5573 58.6373L51.5967 53.8743L52.2408 53.8096V53.8096Z" fill="#B4282E"/>
<path fill-rule="evenodd" clip-rule="evenodd" d="M31.7847 50.5412L36.0512 49.0882V57.0008L34.1367 56.9082L31.7847 50.5412ZM44.9686 50.1212L46.9064 50.2752L47.9523 52.3267L48.7114 54.6728V57.6478L47.1591 59.3125L43.7359 60.8747L41.5072 58.8132L40.1737 56.9344L39.269 54.8023V52.3445L40.8585 50.7558L43.4081 49.3696H45.7198L44.9686 50.1212V50.1212Z" fill="#F9DC30"/>
<path fill-rule="evenodd" clip-rule="evenodd" d="M37.6715 47.4434C37.6715 47.6198 37.6096 48.0726 37.4868 48.8026C37.3521 49.5846 37.2422 50.3707 37.1572 51.1596C36.9771 52.9982 36.8875 54.5072 36.8875 55.6868C36.8875 56.0117 36.9036 56.4172 36.9369 56.9012C36.9696 57.3851 36.9862 57.7059 36.9862 57.864C36.9862 58.4584 36.7443 58.7547 36.2616 58.7547C35.9553 58.7547 35.6291 58.5982 35.2825 58.2853C34.9941 58.0201 34.6123 57.5615 34.137 56.9082C32.5109 54.6571 31.0463 52.1266 29.7439 49.3164C29.292 50.9658 29.0251 53.2414 28.9425 56.1441C28.9072 57.3926 28.8807 58.0628 28.8632 58.1554C28.7968 58.5779 28.5897 58.7883 28.2411 58.7883C27.8925 58.7883 27.6679 58.558 27.5662 58.096C27.5268 57.9072 27.5069 57.5399 27.5069 56.9945C27.5069 54.6293 27.802 51.976 28.3934 49.0334C28.5594 48.2207 28.7258 47.6488 28.8923 47.3185C29.089 46.9316 29.3492 46.7387 29.673 46.7387C29.8784 46.7387 30.0494 46.8619 30.1851 47.108C30.1938 47.1168 30.3486 47.4662 30.6508 48.1556C32.1536 51.5418 33.7926 54.3043 35.5685 56.4409V55.9528C35.5685 53.209 35.7735 50.6466 36.1832 48.2676C36.2786 47.7003 36.3853 47.2981 36.5031 47.0603C36.636 46.8009 36.8132 46.671 37.0344 46.671C37.459 46.671 37.6715 46.9287 37.6715 47.4434V47.4434ZM35.4847 44.605C35.4847 44.9407 35.3141 45.2748 34.9737 45.6064C34.6334 45.9381 34.2894 46.1037 33.942 46.1037C33.5593 46.1037 32.9704 45.6919 32.1752 44.8681C31.8278 45.5359 31.5182 45.8696 31.2451 45.8696C31.0563 45.8696 30.9616 45.75 30.9616 45.5102C30.9616 45.3446 31.0604 45.1217 31.2584 44.8428C31.6315 44.3149 31.9922 44.0509 32.3395 44.0509C32.4935 44.0509 32.7151 44.1978 33.0057 44.4913C33.3618 44.8548 33.7374 45.12 34.1329 45.286C34.5724 44.6187 34.9372 44.2846 35.2273 44.2846C35.3992 44.2842 35.4847 44.3912 35.4847 44.605ZM46.8702 58.3741C46.1282 59.1743 45.1254 59.5731 43.8613 59.5731C42.6763 59.5731 41.7126 59.1506 40.971 58.3044C40.2289 57.459 39.8579 56.3313 39.8579 54.9219C39.8579 53.3144 40.1915 52.0913 40.8585 51.2513C41.5259 50.4125 42.5004 49.9929 43.7824 49.9929C45.1346 49.9929 46.1751 50.4221 46.9064 51.2812C47.6368 52.1395 48.0029 53.38 48.0029 55.0003C48.0029 56.4284 47.6256 57.5528 46.8702 58.3741ZM47.9087 50.3125C46.9113 49.2098 45.5289 48.6578 43.7616 48.6578C42.004 48.6578 40.6614 49.2778 39.7342 50.5167C38.8821 51.6684 38.4559 53.1762 38.4559 55.0397C38.4559 56.8069 38.9415 58.2156 39.9126 59.2664C40.9012 60.3389 42.1758 60.8747 43.7359 60.8747C45.4977 60.8747 46.8831 60.3534 47.8916 59.3125C48.9006 58.2708 49.4048 56.8198 49.4048 54.9605C49.4048 52.9646 48.9056 51.4157 47.9087 50.3125V50.3125ZM59.9869 55.5473C59.9869 56.7634 59.6171 57.6661 58.878 58.2571V58.2836C58.2102 58.6978 57.2016 58.9045 55.8511 58.9045C53.8635 58.9045 52.2968 58.7838 51.1488 58.5414C50.8018 58.4667 50.562 58.3808 50.43 58.2845C50.281 58.1703 50.2059 58.0022 50.2059 57.7835C50.2059 57.4399 50.4395 57.2689 50.9081 57.2689C51.1326 57.2689 51.4219 57.3021 51.7747 57.3693C51.641 55.9233 51.5746 54.6944 51.5746 53.6834C51.5746 52.0046 51.6859 50.2399 51.9087 48.3888L51.5871 48.4158H51.5344C51.1276 48.4158 50.9239 48.2174 50.9239 47.8219C50.9239 47.5272 51.0513 47.321 51.3057 47.2014C51.5377 47.0923 51.9233 47.0371 52.4624 47.0371C53.329 47.0371 54.0105 47.145 54.506 47.3604C54.9663 47.5633 55.1966 47.8248 55.1966 48.1465C55.1966 48.3224 55.1335 48.4764 55.0094 48.6084C54.8829 48.7408 54.7417 48.8064 54.584 48.8064C54.4778 48.8064 54.2906 48.742 54.0229 48.6134C53.7328 48.4752 53.4838 48.3955 53.2779 48.3722C53.014 50.1238 52.8801 51.8925 52.8774 53.6639C52.8774 54.4334 52.96 55.7179 53.1273 57.5183C54.1566 57.6304 54.9771 57.686 55.5892 57.686C56.6845 57.686 57.5532 57.4905 58.1961 57.1016C58.3808 56.8684 58.521 56.4135 58.6186 55.7366C58.6817 55.2917 58.7435 55.0128 58.8024 54.8982C58.8941 54.7094 59.0676 54.6143 59.322 54.6143C59.7649 54.6152 59.9869 54.9256 59.9869 55.5473Z" fill="black"/>
<path fill-rule="evenodd" clip-rule="evenodd" d="M42.8909 53.2501L41.7911 54.3499L42.3734 56.4836H45.2184L45.3479 54.9314L44.9599 53.6386L44.0543 52.7321L42.8909 53.2501V53.2501Z" fill="#B4282E"/>
<path fill-rule="evenodd" clip-rule="evenodd" d="M65.2487 54.0607C66.2862 52.724 67.1572 51.2661 67.8426 49.719C68.4191 51.6045 69.1006 53.3921 69.8862 55.08C68.3017 54.9495 66.7419 54.6067 65.2487 54.0607V54.0607ZM73.2551 58.3197C72.7881 57.5125 72.4607 56.9115 72.271 56.5202H72.4835C73.0438 56.5202 73.324 56.2695 73.324 55.7685C73.324 55.2829 73.0534 55.0397 72.5134 55.0397L72.2208 55.0617C72.0108 55.0812 71.7946 55.0933 71.57 55.0983C70.2432 52.2544 69.3488 49.8946 68.8868 48.017C68.8478 47.8709 68.8067 47.616 68.7627 47.2516C68.7237 46.9545 68.6752 46.7337 68.6175 46.5876C68.5162 46.3394 68.3174 46.2157 68.0223 46.2157C67.665 46.2157 67.4371 46.366 67.3404 46.6681C67.2674 47.0765 67.1968 47.4824 67.1288 47.8871C66.8856 49.0687 65.7841 50.9429 63.8247 53.5099C63.7284 53.4709 63.4225 53.3348 62.9095 53.1032C62.6178 52.9679 62.3982 52.9007 62.2471 52.9007C62.0633 52.9007 61.906 52.9729 61.7753 53.1165C61.6459 53.2556 61.5756 53.4395 61.5789 53.6295C61.5789 53.9789 61.994 54.3184 62.8257 54.6484C62.3334 55.1565 61.8096 55.6331 61.2573 56.0752L60.2911 56.8397C59.9678 57.0958 59.8063 57.3237 59.8063 57.5237C59.8063 57.7047 59.8711 57.8586 60.0026 57.9881C60.1355 58.1172 60.2882 58.1819 60.4637 58.1819C61.1407 58.1819 62.414 57.2037 64.2841 55.2452C66.6237 56.0786 68.72 56.5098 70.5727 56.5388C71.2131 57.8611 71.6734 58.7435 71.9573 59.1871C72.3391 59.7852 72.6902 60.0845 73.0102 60.0845C73.4651 60.0845 73.6929 59.8454 73.6929 59.3702C73.6937 59.1747 73.5477 58.8257 73.2551 58.3197V58.3197Z" fill="black"/>
<path fill-rule="evenodd" clip-rule="evenodd" d="M53.4543 30.3212L55.5855 30.2698L58.3504 30.9894L59.0605 33.0115V34.8584L57.925 35.9939L56.0304 37.2689L53.6738 36.1188L52.669 32.4433L53.4543 30.3212ZM32.8101 36.7845L35.0156 37.2469V42.2526H32.0743L32.8101 36.7845V36.7845Z" fill="#B4282E"/>
<path fill-rule="evenodd" clip-rule="evenodd" d="M40.2857 41.1312C40.2857 41.5408 39.7956 41.9314 38.8157 42.3024C37.8694 42.6585 36.7467 42.8951 35.4481 43.0109C34.6703 43.0781 33.5194 43.1117 31.9938 43.1117C31.4526 43.1117 31.0857 43.0922 30.8927 43.0536C30.41 42.9619 30.1689 42.7535 30.1689 42.4298C30.1689 42.231 30.2349 42.0633 30.3669 41.9255C30.4276 41.8594 30.5016 41.8067 30.5841 41.7711C30.6665 41.7355 30.7556 41.7177 30.8454 41.7189H31.5069C31.7464 40.5493 31.8664 38.0798 31.8664 34.3105C31.8664 34.1516 31.8568 33.2729 31.8369 31.6746C31.6779 31.6746 31.5144 31.6776 31.3463 31.6821L31.0865 31.6892C30.5814 31.6892 30.3287 31.4655 30.3287 31.0185C30.3287 30.7217 30.4611 30.5155 30.7267 30.3984C30.9732 30.2967 31.3957 30.2453 31.9946 30.2453C34.5002 30.2453 36.5015 30.4727 37.9989 30.9284C38.9983 31.2335 39.498 31.5896 39.498 31.9963C39.498 32.166 39.4341 32.3196 39.3058 32.4578C39.1776 32.5956 39.0386 32.6649 38.8887 32.6649C38.8016 32.6649 38.6148 32.6072 38.3293 32.491C37.9711 32.3416 37.6665 32.2374 37.4149 32.1793C36.7567 32.015 35.38 31.8651 33.285 31.7298C33.285 32.6002 33.275 33.9797 33.2559 35.8694C33.866 35.908 34.452 35.9275 35.014 35.9275C35.4066 35.9275 35.8129 35.913 36.2346 35.8839C36.462 35.8668 36.6896 35.8522 36.9173 35.8403C37.4398 35.8403 37.7021 36.0607 37.7021 36.5011C37.7021 36.846 37.4818 37.0634 37.0414 37.1539C36.7413 37.2162 36.0661 37.2473 35.0161 37.2473C34.435 37.2473 33.8394 37.2332 33.2298 37.2041C33.1804 39.4225 33.0886 40.9274 32.955 41.7197H33.2526C35.1929 41.7197 36.6542 41.5757 37.637 41.2872C37.903 41.21 38.2807 41.0498 38.7692 40.805C39.161 40.6078 39.449 40.5099 39.6329 40.5099C39.8072 40.5099 39.9595 40.5721 40.0902 40.6979C40.2201 40.8232 40.2857 40.9676 40.2857 41.1312V41.1312ZM59.8134 33.1978C59.8134 34.5077 59.4615 35.5627 58.7597 36.3624C58.0562 37.1626 57.1456 37.5623 56.0304 37.5623C55.3527 37.5623 54.7828 37.4419 54.3192 37.2008C53.8888 36.9692 53.6739 36.7065 53.6739 36.4122V36.3761C53.6739 36.1736 53.734 36.0001 53.8556 35.8553C53.9764 35.7104 54.1237 35.6382 54.2981 35.6382C54.3807 35.6382 54.6135 35.7212 54.9991 35.8856C55.3834 36.0503 55.7337 36.1333 56.0487 36.1333C56.7069 36.1333 57.2506 35.8694 57.6822 35.3419C58.1139 34.8144 58.3293 34.1416 58.3293 33.3236C58.3293 32.4811 58.0026 31.8008 57.3494 31.2833C56.697 30.7653 55.8382 30.5063 54.7741 30.5063C54.4645 30.5063 54.0241 30.5424 53.4543 30.6155C53.5394 32.0013 53.5825 33.0687 53.5825 33.8175C53.5825 35.4402 53.5493 36.8891 53.4829 38.1641C53.402 39.681 53.2211 41.0071 52.9405 42.1418C52.8401 42.5477 52.6234 42.7502 52.2926 42.7502C51.7834 42.7502 51.529 42.4045 51.529 41.7139C51.529 41.7915 51.6701 40.6871 51.9535 38.4015C52.049 37.6138 52.0971 36.5899 52.0971 35.3286C52.0971 33.6427 52.0606 32.2121 51.9876 31.0384C51.6481 31.2119 51.2716 31.4966 50.8599 31.8917C50.5503 32.1905 50.3054 32.3399 50.1262 32.3399C49.9274 32.3399 49.7543 32.2677 49.6065 32.1233C49.4588 31.9793 49.3845 31.8104 49.3845 31.6174C49.3845 31.4057 49.5874 31.1044 49.9921 30.7138C51.1451 29.6107 52.6774 29.0591 54.5878 29.0591C56.1894 29.0591 57.4614 29.4322 58.4015 30.1793C59.3436 30.9251 59.8134 31.9311 59.8134 33.1978V33.1978Z" fill="black"/>
<path fill-rule="evenodd" clip-rule="evenodd" d="M46.0045 31.4589L44.8449 37.7748L41.5906 36.6916V34.1574L42.1605 31.1924L46.0045 31.4589V31.4589Z" fill="#F9DC30"/>
<path fill-rule="evenodd" clip-rule="evenodd" d="M48.7719 31.2148C48.7719 31.3547 48.7441 31.5813 48.6901 31.8946C48.6345 32.2084 48.6075 32.4445 48.6075 32.6035V32.8276C48.6075 33.3535 48.5731 33.7033 48.5067 33.8768C48.41 34.1225 48.2058 34.2454 47.8937 34.2454C47.5471 34.2454 47.3139 34.0204 47.1939 33.5689C47.1313 33.3506 47.0951 32.982 47.0856 32.4632C46.4249 31.9988 45.733 31.7664 45.0092 31.7664C44.0833 31.7664 43.3204 32.066 42.7228 32.6645C42.1247 33.2634 41.8255 34.0287 41.8255 34.9609C41.8255 35.7573 42.016 36.3346 42.397 36.6912C42.6622 36.9377 43.2412 37.2153 44.1335 37.5241C44.9386 37.7993 45.4881 38.0072 45.7828 38.1467C46.2842 38.3832 46.6677 38.6609 46.9329 38.9792C47.328 39.4524 47.526 40.0791 47.526 40.861C47.526 41.672 47.2188 42.3136 46.6054 42.7867C45.9916 43.2595 45.1511 43.496 44.0833 43.496C43.2814 43.496 42.6385 43.3006 42.1554 42.9096L42.1409 44.3659C42.1363 44.8486 41.901 45.0906 41.4354 45.0906C40.9502 45.0906 40.7074 44.7677 40.7074 44.1227V43.076C40.7074 41.684 40.7485 40.7693 40.8307 40.331C40.9419 39.7437 41.183 39.4495 41.5553 39.4495C41.8496 39.4495 42.0484 39.5682 42.15 39.8047C42.2077 39.9496 42.2588 40.1554 42.3024 40.4211C42.3501 40.7738 42.3887 41.0054 42.4173 41.1171C42.5717 41.75 43.0573 42.0667 43.8757 42.0667C45.2956 42.0667 46.0044 41.6417 46.0044 40.7909C46.0044 40.3704 45.8525 40.0301 45.5483 39.769C45.2976 39.5516 44.8536 39.3266 44.2169 39.0946L42.9066 38.6244C41.9463 38.272 41.2731 37.8429 40.8871 37.3361C40.4866 36.8099 40.2861 36.062 40.2861 35.0916C40.2861 33.6826 40.7281 32.5383 41.6117 31.6572C42.4958 30.7769 43.6354 30.3362 45.0312 30.3362C45.8335 30.3362 46.5913 30.5561 47.3056 30.9961C47.4363 30.4951 47.6928 30.2444 48.0755 30.2444C48.5399 30.2457 48.7719 30.5686 48.7719 31.2148V31.2148Z" fill="black"/>
<path fill-rule="evenodd" clip-rule="evenodd" d="M61.0498 39.571L64.0335 36.4554L64.3447 34.4126L64.9553 33.8017L66.1203 36.1877L66.1933 38.7812L67.0176 40.6717L66.0124 41.6769L62.4692 40.5489L61.0498 39.571V39.571Z" fill="#B4282E"/>
<path fill-rule="evenodd" clip-rule="evenodd" d="M62.0048 39.5711C63.1261 38.1257 64.0676 36.5495 64.8088 34.8771C65.4322 36.9161 66.168 38.8477 67.0176 40.6717C65.305 40.5308 63.619 40.1606 62.0048 39.5711V39.5711ZM70.6595 44.1742C70.1553 43.301 69.8004 42.6523 69.5954 42.2289H69.8249C70.4304 42.2289 70.7334 41.9588 70.7334 41.4171C70.7334 40.8917 70.4408 40.629 69.8573 40.629L69.541 40.6531C69.3148 40.6742 69.0807 40.6871 68.8384 40.6925C67.4044 37.6192 66.4366 35.0676 65.9373 33.038C65.8949 32.8807 65.8505 32.6047 65.8036 32.2105C65.7613 31.8901 65.7086 31.651 65.6463 31.4929C65.5368 31.2248 65.3222 31.0911 65.0035 31.0911C64.6158 31.0911 64.3705 31.2542 64.2659 31.58C64.1878 32.0188 64.1118 32.4579 64.0381 32.8973C63.7745 34.1748 62.5846 36.2006 60.4659 38.9751C60.1343 38.8332 59.8046 38.687 59.4769 38.5364C59.1615 38.3899 58.9241 38.3168 58.7618 38.3168C58.5626 38.3168 58.392 38.3949 58.2505 38.5497C58.1093 38.7049 58.0388 38.89 58.0388 39.1054C58.0388 39.4827 58.4879 39.8491 59.386 40.2057C58.8545 40.7554 58.2883 41.2705 57.691 41.7479L56.6459 42.5747C56.2973 42.8515 56.1213 43.098 56.1213 43.3143C56.1213 43.5093 56.1927 43.6766 56.3347 43.816C56.4774 43.9555 56.6426 44.026 56.8323 44.026C57.5652 44.026 58.9415 42.9669 60.9623 40.8502C63.4915 41.7512 65.758 42.2186 67.7609 42.2489C68.4524 43.6782 68.9508 44.6328 69.258 45.1122C69.6705 45.7588 70.049 46.0817 70.3951 46.0817C70.8865 46.0817 71.1327 45.824 71.1327 45.3093C71.1331 45.0985 70.9749 44.7204 70.6595 44.1742Z" fill="black"/>
<path fill-rule="evenodd" clip-rule="evenodd" d="M54.8916 32.5068V34.2528L55.52 34.8808L55.8499 34.5516L56.5293 34.2528L56.9369 33.8448L56.7464 32.9484L56.3388 32.5408C56.1491 32.3503 55.9586 32.1602 55.9586 32.1602L55.7407 31.9432L55.2797 32.0245H55.0074L54.8916 32.5068V32.5068Z" fill="#F9DC30"/>
<path fill-rule="evenodd" clip-rule="evenodd" d="M22.7195 20.6779C20.9701 20.8938 19.2008 21.0897 17.4606 20.7037C16.5637 20.5045 16.1827 21.8807 17.0812 22.0799C18.9572 22.4962 20.8302 22.3385 22.7195 22.1057C23.6209 21.994 23.6317 20.5655 22.7195 20.6779ZM16.8351 60.2446C18.9381 60.441 21.0448 60.4625 23.1557 60.4625C24.0762 60.4625 24.0762 59.0352 23.1557 59.0352C21.0448 59.0344 18.9381 59.0124 16.8351 58.8173C15.9183 58.7323 15.9266 60.1604 16.8351 60.2446ZM16.3993 56.1043C18.2828 56.3375 20.1666 56.526 22.0658 56.5405C22.4202 56.543 22.6377 56.333 22.7195 56.0744C23.4155 55.8685 23.3428 54.677 22.502 54.677C22.165 54.677 21.9517 54.8683 21.8616 55.1107C20.0313 55.085 18.2155 54.9015 16.3998 54.677C15.4871 54.5641 15.4979 55.9931 16.3993 56.1043V56.1043ZM22.966 50.5611C20.0898 51.1787 17.1398 50.9811 14.22 50.9712C13.2995 50.9687 13.2995 52.3964 14.22 52.3985C17.2738 52.4088 20.3376 52.584 23.3453 51.9374C24.2451 51.7448 23.8633 50.3685 22.966 50.5611ZM23.1839 46.6382C21.215 47.4504 19.1514 47.4832 17.0534 47.4845C16.1329 47.4849 16.1329 48.9126 17.0534 48.9118C19.2689 48.9109 21.486 48.8715 23.5636 48.0145C24.402 47.6687 24.0347 46.2875 23.1839 46.6382V46.6382ZM21.6582 43.8052C19.8732 44.2153 18.0047 44.2148 16.1815 44.2157C15.2609 44.2157 15.2609 45.6434 16.1815 45.643C18.1338 45.6426 20.1263 45.621 22.0376 45.1815C22.9349 44.9756 22.5543 43.5994 21.6582 43.8052V43.8052ZM21.8475 40.0745C20.0197 40.292 18.2068 40.6721 16.3711 40.3181C15.4717 40.1446 15.0883 41.52 15.9914 41.6944C17.9761 42.077 19.869 41.7375 21.8475 41.5022C22.7502 41.3947 22.761 39.9662 21.8475 40.0745V40.0745ZM16.1815 38.233C17.9939 38.0109 19.857 37.8076 21.6582 38.2073C22.5551 38.4065 22.9361 37.0302 22.0376 36.831C20.0994 36.4006 18.1342 36.5662 16.1815 36.8053C15.2796 36.9161 15.2688 38.3446 16.1815 38.233V38.233ZM16.3993 34.3101H21.8475C22.7684 34.3101 22.7684 32.8828 21.8475 32.8828H16.3993C15.4788 32.8824 15.4788 34.3101 16.3993 34.3101V34.3101ZM15.0916 29.951C17.1933 30.1668 19.3083 30.1909 21.4121 30.3868C21.6715 30.4109 21.8574 30.3138 21.9691 30.1598C22.7668 30.0407 22.7265 28.7412 21.8479 28.7412C21.6246 28.7412 21.4557 28.8254 21.3407 28.9524C19.2606 28.7624 17.1696 28.7366 15.0916 28.5229C14.176 28.4295 14.1851 29.858 15.0916 29.951V29.951ZM22.2081 24.9163C20.2542 23.8741 18.1861 23.3138 15.9631 23.511C15.0538 23.5919 15.0463 25.02 15.9631 24.9383C17.9433 24.7623 19.7408 25.2167 21.4876 26.1485C22.2995 26.5818 23.0208 25.3496 22.2081 24.9163V24.9163ZM75.2435 21.0158C77.4913 21.2524 79.7325 21.6358 81.999 21.452C82.91 21.3777 82.9175 19.9496 81.999 20.0243C79.7325 20.2085 77.4913 19.8246 75.2435 19.5885C74.3284 19.4922 74.3375 20.9203 75.2435 21.0158V21.0158ZM76.9862 62.4244C79.6022 62.6547 82.2024 63.0536 84.8328 63.0777C85.7538 63.0864 85.753 61.6591 84.8328 61.6504C82.2024 61.625 79.6018 61.2266 76.9862 60.9971C76.0694 60.9162 76.0769 62.3443 76.9862 62.4244V62.4244ZM76.9862 58.9373H84.8328C85.753 58.9373 85.753 57.51 84.8328 57.51H76.9862C76.0665 57.51 76.0665 58.9373 76.9862 58.9373ZM76.1433 53.8992C78.626 54.5243 81.0403 54.3263 83.4973 53.6813C84.3867 53.4481 84.0086 52.0706 83.1171 52.3051C80.9008 52.8869 78.7651 53.0874 76.5226 52.523C75.6295 52.2984 75.251 53.6747 76.1433 53.8992ZM76.5795 48.2328C78.863 49.0865 81.3337 49.1292 83.743 49.1305C84.6639 49.1305 84.6639 47.7032 83.743 47.7032C81.4516 47.7024 79.1324 47.6687 76.9588 46.8569C76.0947 46.5332 75.7249 47.9136 76.5795 48.2328V48.2328ZM75.8685 45.3993C77.9147 45.0042 79.9628 44.8092 82.0276 45.1815C82.9274 45.3441 83.3126 43.9683 82.407 43.8052C80.0791 43.3856 77.798 43.5774 75.4892 44.0231C74.5861 44.1974 74.9696 45.5732 75.8685 45.3993V45.3993ZM75.2435 40.6302C77.7719 40.785 80.1625 40.0205 82.6535 39.7582C83.5599 39.6632 83.5686 38.2342 82.6535 38.3309C80.1691 38.5924 77.7623 39.3569 75.2435 39.2029C74.3234 39.1465 74.3284 40.5742 75.2435 40.6302V40.6302ZM74.5205 34.9725C76.9327 36.9244 81.1058 36.9871 83.9326 36.0275C84.8 35.7337 84.4278 34.3545 83.5533 34.6513C81.2723 35.4249 77.5166 35.5706 75.5299 33.9631C74.8214 33.3896 73.8046 34.3935 74.5205 34.9725V34.9725ZM74.8351 31.6688C77.1356 32.5309 79.5731 32.5653 81.9994 32.5661C82.9204 32.5665 82.9204 31.1393 81.9994 31.1388C79.6922 31.138 77.4033 31.1127 75.2153 30.2926C74.3512 29.9689 73.9822 31.3493 74.8351 31.6688ZM74.8351 28.4C77.3934 29.0666 80.0164 29.2841 82.6535 29.2973C83.5745 29.3019 83.5736 27.8742 82.6535 27.87C80.1405 27.8576 77.6536 27.6592 75.2153 27.0234C74.3234 26.7914 73.9449 28.168 74.8351 28.4ZM75.4892 24.6955C78.3612 25.5998 81.4155 25.5919 84.3971 25.5928C85.3172 25.5928 85.3172 24.1655 84.3971 24.1655C81.5371 24.165 78.6231 24.1866 75.8685 23.3192C74.9883 23.0411 74.6147 24.4199 75.4892 24.6955Z" fill="black"/>
<path fill-rule="evenodd" clip-rule="evenodd" d="M26.1518 21.7164C29.653 22.1621 33.1219 21.8463 36.5841 21.3561C34.9704 24.0987 32.7915 26.229 30.6512 28.6009C28.7674 30.6885 27.3625 33.3365 25.2221 35.1908C25.2433 33.3742 25.2931 31.5539 25.3047 29.7448C25.3213 27.1479 25.2682 24.2389 26.1336 21.728L26.1518 21.7164V21.7164ZM38.3471 21.0938C41.0386 20.6792 43.7293 20.2202 46.4295 19.9919C50.0681 19.6844 53.666 20.2497 57.3054 20.2418C61.198 20.2335 65.0976 20.0193 68.9442 20.7635C69.8431 20.9374 70.6537 20.9809 71.5593 20.8589C71.8075 20.8253 71.8017 20.871 71.7651 20.8191C72.0602 21.2412 72.1495 21.8724 72.2789 22.3576C72.6649 23.8015 72.5433 25.3645 72.3088 26.908C69.1176 26.3593 65.8903 26.0647 62.6697 25.7472C59.6184 25.4463 56.5886 24.9561 53.5315 24.7237C50.6441 24.5041 47.7489 24.4058 44.869 24.0812C42.4472 23.8086 39.9193 23.3657 37.7316 22.2372C37.9296 21.8961 38.1193 21.5504 38.3007 21.1997C38.3197 21.1644 38.3351 21.1291 38.3471 21.0938V21.0938ZM36.9771 23.4558C41.5943 25.9169 47.4704 25.7542 52.535 26.0817C55.4996 26.2734 58.4272 26.7379 61.3802 27.0446C64.9511 27.416 68.5345 27.6945 72.0739 28.3092C71.9614 28.9462 71.8502 29.5729 71.7693 30.1785C71.343 33.3638 71.7166 36.5617 71.9336 39.7545C72.181 43.3981 72.5155 47.0338 73.0148 50.6516C73.4859 54.069 74.3612 57.5225 74.1673 60.9892L74.1553 61.0112C66.2552 62.8755 58.0242 61.8558 49.9946 61.8284C41.9421 61.801 33.9146 62.0426 25.9389 60.7178L25.9099 60.6829C25.6505 57.007 26.4174 53.3526 26.2464 49.6713C26.0721 45.9252 25.3101 42.2356 25.23 38.4795C25.2199 37.9868 25.214 37.494 25.2126 37.0012C27.7978 35.1589 29.4094 32.2736 31.4252 29.8801C32.5711 28.5192 33.9109 27.3297 35.0717 25.9779C35.7597 25.1785 36.3961 24.3361 36.9771 23.4558V23.4558ZM73.5452 27.963C73.5963 27.8423 73.6183 27.7115 73.6066 27.587C73.8905 25.8347 74.1142 24.0335 73.7477 22.336C73.439 20.9075 73.0658 19.2278 71.3094 19.4652C70.1598 19.6205 69.0965 19.3266 67.9634 19.1502C66.095 18.8597 64.2016 18.7879 62.3136 18.7709C60.4928 18.7547 58.6717 18.812 56.8509 18.8157C54.887 18.8199 52.9625 18.6285 51.0081 18.4928C47.5878 18.2558 44.1435 18.758 40.7718 19.2752C35.9976 20.0073 31.1335 20.971 26.2933 20.3086C26.1091 19.9807 25.4222 19.7064 25.1512 20.3563C24.0912 22.8527 23.9725 25.6633 23.8994 28.3403C23.8198 31.2708 23.9264 34.201 23.8131 37.1315C23.6616 41.0502 24.4394 44.9337 24.761 48.8246C25.1068 53.0019 24.1016 57.1498 24.5386 61.3221C24.5693 61.618 24.7312 61.9529 25.0628 62.0102C33.3236 63.4516 41.6483 63.264 49.995 63.257C58.3376 63.2487 66.8296 64.3336 75.0281 62.2688C75.3564 62.1862 75.5233 61.8961 75.5519 61.5806C75.8877 57.9466 74.9804 54.2931 74.455 50.7151C73.8996 46.9325 73.5892 43.1154 73.3306 39.303C73.1119 36.0773 72.8023 32.9181 73.2659 29.7066C73.3477 29.1363 73.4481 28.5532 73.5452 27.963V27.963Z" fill="black"/>
</svg>
