<svg width="100" height="100" viewBox="0 0 100 100" fill="none" xmlns="http://www.w3.org/2000/svg">
<rect x="0.5" y="0.5" width="99" height="99" fill="white" stroke="#008B00"/>
<path d="M15.9089 61.1128V54.7083H18.6124V51.8149L17.328 50.8626V51.8149H12.5529V58.3171H11.6L14.9612 61.1128H15.9089ZM15.9089 61.1128V54.7083H18.6124V51.8149L17.328 50.8626V51.8149H12.5529V58.3171H11.6L14.9612 61.1128H15.9089ZM15.9141 47.0682L15.9089 50.8626H12.5529L12.5581 44.2834C12.5581 42.0829 14.2465 40.3028 16.3336 40.3028C17.1312 40.3028 17.8718 40.5594 18.483 41.0072L18.8506 41.2529L19.3945 40.3028L22.823 43.1968L22.217 44.3872L19.6067 42.2139C19.41 42.0665 19.1666 41.9846 18.9076 41.9846C18.224 41.9846 17.675 42.5634 17.675 43.2842C17.675 43.3988 17.6905 43.508 17.7216 43.6118C16.6184 44.3107 15.9141 45.6157 15.9141 47.0682ZM23.0664 57.1644L26.6192 60.131L23.0664 57.1644ZM19.6275 45.0642C19.5809 45.0697 19.5343 45.0752 19.4876 45.0752C19.2131 45.0752 18.9594 44.9769 18.7574 44.8185L18.1566 44.3162C18.3638 44.48 18.6228 44.5837 18.9076 44.5837C19.586 44.5837 20.1402 43.9995 20.1402 43.2842C20.1402 43.2842 20.135 43.2459 20.1298 43.2186L23.4186 45.9543C21.6163 47.1501 20.4147 49.2704 20.4147 51.6838C20.4147 53.9373 21.4661 55.9336 23.0716 57.1633L23.0664 61.1128H21.9736L18.6124 58.3171H19.6275V45.0642ZM19.6275 45.0642C19.5809 45.0697 19.5343 45.0752 19.4876 45.0752C19.2131 45.0752 18.9594 44.9769 18.7574 44.8185L18.1566 44.3162C18.3638 44.48 18.6228 44.5837 18.9076 44.5837C19.586 44.5837 20.1402 43.9995 20.1402 43.2842C20.1402 43.2842 20.135 43.2459 20.1298 43.2186L23.4186 45.9543C21.6163 47.1501 20.4147 49.2704 20.4147 51.6838C20.4147 53.9373 21.4661 55.9336 23.0716 57.1633L23.0664 61.1128H21.9736L18.6124 58.3171H19.6275V45.0642ZM25.9925 50.8768C26.9921 49.6105 28.494 48.8199 30.1772 48.8199C30.6899 48.8199 31.182 48.8941 31.6532 49.0323C30.7469 47.1829 28.9394 45.9488 26.8315 45.9488C24.0867 45.9488 21.8234 48.0909 21.4505 50.8768H25.9925ZM42.1874 45.5666C42.7675 45.9707 43.218 46.6095 43.3837 47.5454C43.4304 47.2484 43.5132 46.9808 43.6168 46.746L42.1874 45.5666ZM40.7735 51.8149V61.1128H39.8206L38.2979 59.8471V61.1128H37.3554L34.9419 59.0903C33.7715 60.4559 32.0727 61.3143 30.1824 61.3143C28.7892 61.3143 27.4996 60.9075 26.4069 59.988L23.0664 57.1633C24.1229 57.972 25.428 58.4492 26.8315 58.4492C29.5557 58.4492 31.8811 56.6637 32.8133 54.1432L31.9018 53.7932C31.7775 54.1246 31.6222 54.4031 31.4408 54.7007L24.7392 54.698C24.7599 55.5989 24.9775 56.448 25.3504 57.1999C23.0871 56.5436 21.4505 54.4058 21.3935 51.8275H33.2483C33.2483 51.7789 33.2483 51.7324 33.2483 51.6838C33.2483 49.8071 32.5285 48.1095 31.358 46.8825L33.9993 49.0798V58.3171H34.9471V39.6858L38.4585 42.5689V45.3919C37.2466 46.0416 36.4076 47.3631 36.4076 48.9002L36.3973 58.3171H37.3502V48.9689L37.3398 48.9002C37.3398 47.2757 38.5879 45.9597 40.1261 45.9597C41.6643 45.9597 42.9125 47.2757 42.9125 48.9002C41.6902 49.2108 40.7735 50.429 40.7735 51.8149ZM40.7735 51.8149V61.1128H39.8206L38.2979 59.8471V61.1128H37.3554L34.9419 59.0903C33.7715 60.4559 32.0727 61.3143 30.1824 61.3143C28.7892 61.3143 27.4996 60.9075 26.4069 59.988L23.0664 57.1633C24.1229 57.972 25.428 58.4492 26.8315 58.4492C29.5557 58.4492 31.8811 56.6637 32.8133 54.1432L31.9018 53.7932C31.7775 54.1246 31.6222 54.4031 31.4408 54.7007L24.7392 54.698C24.7599 55.5989 24.9775 56.448 25.3504 57.1999C23.0871 56.5436 21.4505 54.4058 21.3935 51.8275H33.2483C33.2483 51.7789 33.2483 51.7324 33.2483 51.6838C33.2483 49.8071 32.5285 48.1095 31.358 46.8825L33.9993 49.0798V58.3171H34.9471V39.6858L38.4585 42.5689V45.3919C37.2466 46.0416 36.4076 47.3631 36.4076 48.9002L36.3973 58.3171H37.3502V48.9689L37.3398 48.9002C37.3398 47.2757 38.5879 45.9597 40.1261 45.9597C41.6643 45.9597 42.9125 47.2757 42.9125 48.9002C41.6902 49.2108 40.7735 50.429 40.7735 51.8149ZM43.8499 58.3171H42.9022L46.2582 61.1128H47.294V51.7685C47.294 50.3946 48.221 49.2234 49.4277 48.9002C49.4277 47.2757 48.1795 45.9597 46.6414 45.9597C45.0981 45.9597 43.8551 47.2757 43.8551 48.9002L43.8499 58.3171ZM43.8499 58.3171H42.9022L46.2582 61.1128H47.294V51.7685C47.294 50.3946 48.221 49.2234 49.4277 48.9002C49.4277 47.2757 48.1795 45.9597 46.6414 45.9597C45.0981 45.9597 43.8551 47.2757 43.8551 48.9002L43.8499 58.3171ZM56.0828 57.2687C55.6685 56.472 55.4095 55.5629 55.4095 54.598C55.4095 51.4501 57.8437 48.898 60.8475 48.898C61.3136 48.898 61.8315 48.9695 62.2976 49.1027C61.3654 47.2975 59.5528 46.0635 57.4811 46.0635C54.5291 46.0635 52.0949 48.614 52.0949 51.7619C52.0949 54.3916 53.7522 56.6113 56.0828 57.2687ZM64.9389 49.8879C64.9389 49.7378 64.9389 49.5892 64.9389 49.4424V49.8879ZM64.9389 49.8879V58.3171H65.8711V49.8879C65.8711 47.7071 67.5803 45.9379 69.6001 45.9379C71.361 45.9379 72.8111 47.1938 73.2254 48.8936C73.1737 48.8859 73.0701 48.8548 72.9665 48.8548C70.8948 48.8548 69.1858 50.6229 69.1858 52.8038V61.1128H68.2536L67.1659 60.143V61.1128H66.2337L64.7836 59.8826C63.696 60.7792 62.3494 61.3143 60.8475 61.3143C59.5528 61.3143 58.3097 60.89 57.2739 60.1643L57.1186 60.0404L53.7004 57.1841V61.1128H52.7682L49.4018 58.3171H50.3651V48.9002C50.3651 47.6377 49.8058 46.5112 48.9253 45.7959L52.0431 48.3787C51.4735 49.3697 51.1627 50.5284 51.1627 51.7619C51.1627 55.4455 54.0112 58.4312 57.4811 58.4312C59.7599 58.4312 61.7797 57.1589 62.9192 55.2505V58.3171H63.7995V51.7619C63.7995 49.6733 62.9192 47.8092 61.5208 46.5877L61.5725 46.6095L64.9389 49.4074V49.8879ZM64.9389 49.8879V58.3171H65.8711V49.8879C65.8711 47.7071 67.5803 45.9379 69.6001 45.9379C71.361 45.9379 72.8111 47.1938 73.2254 48.8936C73.1737 48.8859 73.0701 48.8548 72.9665 48.8548C70.8948 48.8548 69.1858 50.6229 69.1858 52.8038V61.1128H68.2536L67.1659 60.143V61.1128H66.2337L64.7836 59.8826C63.696 60.7792 62.3494 61.3143 60.8475 61.3143C59.5528 61.3143 58.3097 60.89 57.2739 60.1643L57.1186 60.0404L53.7004 57.1841V61.1128H52.7682L49.4018 58.3171H50.3651V48.9002C50.3651 47.6377 49.8058 46.5112 48.9253 45.7959L52.0431 48.3787C51.4735 49.3697 51.1627 50.5284 51.1627 51.7619C51.1627 55.4455 54.0112 58.4312 57.4811 58.4312C59.7599 58.4312 61.7797 57.1589 62.9192 55.2505V58.3171H63.7995V51.7619C63.7995 49.6733 62.9192 47.8092 61.5208 46.5877L61.5725 46.6095L64.9389 49.4074V49.8879ZM83.946 48.8936C83.5317 47.1938 82.0816 45.9379 80.3207 45.9379C78.2491 45.9379 76.5918 47.7071 76.5918 49.8879V58.3171H75.6077V49.8229C75.6077 49.4358 75.6596 49.0536 75.7632 48.6916L72.5003 45.987C73.6397 46.8935 74.313 48.3044 74.313 49.8879V58.3171H73.3808L76.7472 61.1128H77.6794V60.0196L78.9741 61.1128H79.9063V52.8038C79.9063 50.6229 81.5637 48.8548 83.6353 48.8548C83.7389 48.8548 83.8425 48.8592 83.946 48.8674V48.8936ZM83.946 48.8936C83.5317 47.1938 82.0816 45.9379 80.3207 45.9379C78.2491 45.9379 76.5918 47.7071 76.5918 49.8879V58.3171H75.6077V49.8229C75.6077 49.4358 75.6596 49.0536 75.7632 48.6916L72.5003 45.987C73.6397 46.8935 74.313 48.3044 74.313 49.8879V58.3171H73.3808L76.7472 61.1128H77.6794V60.0196L78.9741 61.1128H79.9063V52.8038C79.9063 50.6229 81.5637 48.8548 83.6353 48.8548C83.7389 48.8548 83.8425 48.8592 83.946 48.8674V48.8936ZM87.4678 61.1128L84.1014 58.3171H85.0336V49.8879C85.0336 48.5015 84.464 47.2429 83.5835 46.342L86.5874 48.8477C87.7268 49.7531 88.4 51.1673 88.4 52.7617V61.1128H87.4678ZM87.4678 61.1128L84.1014 58.3171H85.0336V49.8879C85.0336 48.5015 84.464 47.2429 83.5835 46.342L86.5874 48.8477C87.7268 49.7531 88.4 51.1673 88.4 52.7617V61.1128H87.4678Z" fill="#A9AEB0"/>
</svg>
