<svg width="100" height="100" viewBox="0 0 100 100" fill="none" xmlns="http://www.w3.org/2000/svg">
<rect x="0.5" y="0.5" width="99" height="99" fill="white" stroke="#008B00"/>
<path d="M62.9534 71.0728C62.2171 70.6955 61.3536 71.0893 61.0344 71.8076C60.6104 72.6875 61.2644 73.6963 62.1891 73.8158C63.1575 73.8779 63.4826 73.2925 63.9627 72.5648L66.3894 73.8155C65.866 74.7092 65.4025 75.4539 64.5017 75.9988C63.0195 76.8136 61.4128 76.7795 59.9741 75.8343C58.7797 74.9612 58.1797 73.8184 58.147 72.3269C58.2361 70.5094 59.1528 69.2594 60.7618 68.4778C61.9959 68.0642 63.0157 68.0595 64.2028 68.6032C65.2334 69.0963 65.7294 69.8675 66.3584 70.7749L63.8688 71.9743C63.6384 71.6797 63.3389 71.2215 62.9534 71.0728V71.0728ZM20.072 67.7575C21.2135 68.048 22.0153 68.589 22.694 69.5643C23.1492 70.3032 23.3667 71.0467 23.39 71.9132C23.322 73.3773 22.6852 74.5316 21.4795 75.3759C19.9866 76.3085 18.2693 76.288 16.7991 75.32C15.3711 74.2664 14.7329 72.719 15.0737 70.9719C15.5861 68.9574 17.1334 67.7055 19.2313 67.6539L19.6595 67.6758L20.072 67.7575V67.7575ZM28.8697 67.8627C30.0113 68.1532 30.8131 68.6941 31.4918 69.6695C31.9451 70.4084 32.1644 71.1519 32.1877 72.0184C32.1197 73.4825 31.4829 74.6368 30.2773 75.4811C28.7844 76.4137 27.0671 76.3932 25.5969 75.4251C24.1689 74.3716 23.5325 72.8242 23.8733 71.0771C24.3857 69.0626 25.933 67.8107 28.0291 67.7591L28.4572 67.781L28.8697 67.8627V67.8627ZM54.4436 68.1684C55.5852 68.459 56.3869 68.9999 57.0656 69.9753C57.6769 70.9592 57.8833 72.0057 57.658 73.1648C57.2166 74.8771 56.0656 75.999 54.3452 76.4012C53.1903 76.597 52.1565 76.3751 51.1707 75.7309C49.7427 74.6773 49.1064 73.1299 49.4472 71.3828C49.8437 69.831 50.8258 68.7482 52.3473 68.2444C53.0977 68.0756 53.6634 68.0169 54.4436 68.1684V68.1684ZM74.8677 68.8673L72.6834 71.4511L75.332 76.669L72.0808 76.6301L70.5671 73.6653L69.6553 74.6553L69.633 76.5241L66.7709 76.4899L66.9253 63.5692L69.7875 63.6035L69.7024 70.7176L71.3153 68.8248L74.8677 68.8673Z" fill="black"/>
<path d="M80.6105 73.1717L82.5417 74.3978C81.8567 75.3569 81.2756 76.0759 80.1591 76.5078C78.096 77.2409 76.0442 76.4081 74.9554 74.526C74.2882 73.214 74.3236 71.8168 75.0033 70.519C75.8713 69.115 77.066 68.4052 78.726 68.3652C79.8029 68.4286 80.6082 68.674 81.4341 69.391C82.3836 70.2443 82.6755 71.1814 82.9307 72.3725L80.6105 73.1717V73.1717ZM45.8705 69.1511C45.8883 70.474 45.8625 71.8526 45.8467 73.1752C45.8528 73.2931 45.8372 73.3434 45.9716 73.3712L49.2376 73.4196L49.2034 76.2799L45.2133 76.2322C43.8003 76.1143 43.0018 75.2983 42.9347 73.8738L42.9282 73.6286L43.0519 63.2838L45.914 63.318C45.891 65.2448 45.8936 67.2149 45.8705 69.1511V69.1511ZM13.1492 65.9142L13.1306 66.058L13.1048 68.213L14.8127 68.2334L14.7785 71.0956L13.0706 71.0751L13.0136 75.8472L10.1514 75.813L10.2772 65.2905C10.4697 64.0636 11.1789 63.1123 12.4441 62.9179L15.8786 62.9589L15.8446 65.8042L13.2856 65.7661C13.2426 65.7656 13.218 65.7915 13.1748 65.806L13.1651 65.832L13.1492 65.9142V65.9142ZM86.1687 75.081C86.1525 74.2483 86.1635 73.3223 86.1735 72.4861C86.2307 71.9311 86.2571 71.9146 86.7963 71.8799L88.4892 71.9095L88.5234 69.0474C86.9165 69.0282 85.2873 68.6794 84.125 69.9714C83.6544 70.5214 83.3776 71.1412 83.3444 71.8816L83.287 76.6874L86.1491 76.7216L86.1687 75.081ZM34.1329 68.4719L32.7617 68.4555L32.7275 71.3176L34.0987 71.334C34.0852 72.4639 33.8949 73.6646 34.243 74.7539C34.8346 75.9734 35.5492 76.141 36.9038 76.1328L38.2845 76.1419L38.3187 73.2797L36.9718 73.2636L36.9628 73.2373C36.9119 72.6399 36.9518 71.965 36.9589 71.3682L38.332 71.3846L38.3662 68.5225L36.9931 68.5061L37.0241 65.9134L34.162 65.8791L34.131 68.4719L34.1329 68.4719ZM88.6312 74.74C89.5279 75.0127 89.8215 75.9591 89.19 76.6663C88.4492 77.2879 87.5196 76.9569 87.2681 76.0783C87.2028 75.2861 87.6205 74.7691 88.405 74.7205L88.6312 74.74ZM60.6747 56.8265C61.4633 57.0642 61.7136 57.8829 61.1617 58.5068C60.5228 59.0473 59.7105 58.7607 59.4915 57.991C59.4324 57.3 59.7989 56.8497 60.4804 56.8055L60.6747 56.8265ZM43.6255 59.7546C43.9504 58.707 43.6882 57.3213 43.5943 55.3164C43.0035 55.444 42.6571 55.4661 42.1826 55.0899C41.2047 54.2993 40.1362 53.6277 38.9998 53.0893C36.2705 51.8031 33.8474 49.6282 32.073 47.1897C31.5429 46.4593 31.7432 45.3579 32.3843 44.4656C33.2234 43.297 34.2032 42.2479 35.4759 41.423C35.3943 41.2107 35.6339 40.8861 35.8529 40.8794C36.2012 40.6983 36.4444 40.0688 36.8463 40.0998C37.1584 40.1298 37.0582 40.6842 37.0211 40.9775C36.9924 41.1792 37.0828 41.4497 37.3042 41.2335C37.5257 41.0172 37.6671 40.4558 38.1989 40.4191C38.7288 40.3843 39.2126 40.1375 39.4579 39.3397C39.6232 38.8122 40.3352 38.4147 40.8102 38.1173C41.074 37.9614 41.4254 38.149 41.6369 37.9831C42.3172 37.4187 42.3322 37.5704 42.6292 37.2971C42.7995 37.1382 42.993 36.4427 42.7659 36.5073C42.1145 36.6848 41.7322 37.0506 41.1844 37.1769C40.415 37.3698 40.5732 38.2211 39.2119 38.7867C38.5614 39.0558 38.1061 39.7351 37.444 40.1893C37.376 40.239 37.2775 40.0283 37.2786 39.9348C37.289 39.6898 37.3339 39.5313 37.5136 39.3725C37.6064 39.2801 37.867 39.3861 37.96 39.2769C38.9596 38.1363 40.3938 37.1076 41.7979 36.5687C42.5421 36.2914 43.5263 35.6558 43.8278 35.7848C44.1704 35.931 42.8876 36.1851 43.3523 37.5377C43.6451 38.3906 43.2891 39.3799 43.1514 40.2538C43.0683 40.7916 43.4505 41.9917 43.1453 42.1733C42.874 42.3291 42.7622 41.1996 42.4843 41.1196C41.9977 40.9809 40.7985 41.917 40.788 42.7925C40.7843 43.103 40.4487 43.0054 39.7977 43.3101C39.3067 43.5306 39.284 44.028 39.0163 44.5056C38.9646 44.6061 39.1547 44.9788 39.2136 44.9028C39.6482 44.3878 39.8 44.5225 40.3146 44.3603C40.5926 44.2719 40.7952 43.6008 41.2853 43.4458C41.6403 43.334 41.5876 42.1023 41.7935 42.4079C42.0512 42.7645 42.2767 42.2116 42.4886 42.0195C42.8118 41.7465 42.7905 43.5236 43.071 43.2239C43.1563 43.1314 43.4032 42.9828 43.534 43.3043C43.7539 43.8457 43.9245 44.4446 43.924 45.1106C43.9429 46.9724 44.225 48.8879 43.9402 50.8022C43.7122 52.3411 44.0363 54.0288 44.676 55.449C45.0278 56.2278 44.8199 56.7155 44.654 57.2916C44.4606 57.9722 44.5591 58.8153 44.7257 59.7434C44.5085 59.7558 43.9425 59.8426 43.6255 59.7546Z" fill="black"/>
<path d="M45.006 53.9768C45.0309 54.0875 44.5952 53.9139 44.546 53.8029C43.8807 52.3301 44.5623 51.0267 44.3478 49.2542C44.1181 47.3412 44.6935 45.0656 44.1266 43.0307C43.6838 41.4164 43.1102 40.0962 43.8873 37.6976C44.0701 37.1179 44.1042 36.4541 44.498 35.9106C44.806 35.5008 45.4813 35.9729 45.8584 35.5752C46.3017 35.1165 46.6886 35.1473 47.0181 34.9735C47.6535 34.7192 47.1287 33.5436 47.8337 33.7297C48.0266 33.0903 47.9251 32.5016 47.1158 31.8109C46.4917 31.2721 45.8316 30.7759 45.883 29.2947C45.1952 27.67 44.6361 25.9215 46.038 24.7764C46.612 24.6561 46.0569 23.2013 47.7577 23.188C49.1083 21.4866 49.573 22.6802 50.3433 22.4106C51.6325 21.6178 52.834 22.5246 53.033 22.7796C55.4978 22.2459 54.4629 24.3046 54.1067 25.1423C54.2051 25.3699 54.1596 25.7248 54.2919 25.9284C54.4831 26.2151 54.6345 26.2263 54.7559 26.557C54.9972 26.7189 54.8256 27.1378 54.792 27.1374C54.8057 28.0207 55.3862 28.138 55.7586 28.5971C55.9245 28.8086 55.8127 28.927 55.7025 29.0679C55.5412 29.2605 55.312 29.3401 55.2755 29.5754C55.2385 29.8463 55.3813 29.9565 55.3939 30.1512C55.4007 30.2269 55.3874 30.3031 55.3554 30.372C55.3234 30.4409 55.2737 30.5002 55.2115 30.5438C55.3039 30.6384 55.4286 30.6979 55.4265 30.8663C55.4567 31.1623 54.8925 31.0882 55.1469 31.7217C55.7083 32.6545 54.6769 33.0033 53.9348 33.1048C53.1491 33.4153 53.4469 33.8567 54.0252 34.0002C54.9613 34.5671 55.3968 35.547 56.1077 35.2356C56.1614 36.3812 57.1664 36.8236 57.2731 37.7584C57.1313 39.13 57.4725 40.1687 57.7385 41.0812C57.769 42.7579 57.3439 44.5115 57.4759 46.1464C57.6583 48.4124 57.9244 50.2603 57.3134 52.0716C56.6597 54.0076 57.7011 54.0706 57.5229 54.8861C57.1846 56.4218 57.6143 57.1024 57.8336 57.8534C58.0206 58.488 57.7918 59.1569 58.0117 59.8593C57.7256 59.839 57.4991 59.8531 57.1206 59.7476C56.6698 58.6402 56.501 57.2649 56.416 56.0852C56.3589 55.2258 57.0575 54.5344 56.7903 53.723C56.4312 52.6788 56.4448 51.5425 56.8288 50.5073C57.2292 49.4101 57.0932 48.11 56.7697 46.9967C56.6816 46.7019 56.0023 47.0287 55.9558 47.4753C55.7653 49.3252 55.9224 51.0446 55.7992 52.9029C55.6256 55.376 56.2 57.4035 56.0218 59.6334C55.7433 59.7648 55.3056 59.7595 54.824 59.8211C54.581 55.5824 54.6874 51.535 54.5172 47.4581C54.5053 47.0445 53.6169 46.7064 53.5791 47.0521C53.0995 51.3308 54.0345 55.4412 53.8151 59.708C53.3473 59.6949 52.8793 59.7231 52.4165 59.7924C51.7934 52.1309 52.4833 44.5039 52.2954 36.9C52.2934 36.4454 51.4157 36.6182 51.3944 36.9903C50.8386 44.6694 51.4477 52.254 51.021 59.7775C50.4068 59.8188 50.0797 59.6316 49.4192 60.1101C49.6009 56.8026 49.8602 53.4231 49.7419 50.0184C49.5915 45.6966 49.8635 41.2546 50.1417 36.9229C50.1633 36.5284 49.0379 37.0781 48.9902 37.4648C48.5182 41.1131 48.6834 44.8214 48.5646 48.4983C48.4427 52.278 48.4739 56.0819 48.2269 59.8433C47.949 59.9242 47.6029 59.92 47.223 59.9323C46.9222 57.7061 47.2506 55.4293 47.3034 53.2073C47.358 50.8318 47.3428 48.5005 47.3974 46.1269C47.4559 43.2651 47.3889 40.4186 47.6938 37.4493C47.7134 37.2232 47.2909 38.1349 47.1922 37.941C47.0111 37.5927 47.3965 37.1259 47.3076 36.7375C47.2025 36.291 46.7372 36.5623 46.6979 37.0333C46.3753 40.2287 46.5987 41.8816 46.1668 44.2095C45.6623 46.9724 46.6084 48.8958 46.235 51.1814C45.871 53.4596 46.4937 54.1069 46.3804 55.2917C46.2255 56.9812 46.0703 58.0663 46.3779 59.7276C45.9209 59.9242 45.8133 59.8481 45.2319 59.8075C45.2033 58.7632 45.5496 57.8075 45.3179 56.845C44.942 55.2651 45.7735 55.3518 45.5868 54.6929C45.0137 52.7084 45.1613 50.8486 45.3092 48.9645C45.6743 44.5572 44.8937 40.052 45.7993 36.9234C46.0631 35.9817 44.4095 38.4615 44.2634 39.4121C44.053 40.7323 44.6093 42.2451 44.6683 43.576C44.7494 45.2365 44.8559 46.8131 44.7615 48.4528C44.6564 50.2027 44.5514 51.9452 45.006 53.9768V53.9768Z" fill="black"/>
<path d="M58.3161 59.7525C58.2007 58.7577 58.0537 57.755 57.9646 56.7586C57.8604 55.6123 58.1757 55.3729 58.061 53.7026C57.9613 52.1785 58.1137 50.6985 58.0563 49.0888C58.0126 47.7319 58.5447 46.2658 58.1053 44.9902C57.8034 44.1017 58.0493 43.2552 58.2617 42.3896C58.4738 41.5502 58.4048 40.279 58.1067 39.0781C57.8087 37.8696 57.7308 36.7162 57.2411 35.4232C59.23 35.8847 60.9737 36.5118 62.4616 37.5642C63.5804 38.3521 64.2964 39.0267 65.1549 39.675C67.3837 41.3518 69.9427 42.7987 70.9732 45.3349C71.1696 45.8087 71.0431 46.5238 70.6925 46.8975C68.1516 49.5781 65.1288 51.7141 62.2712 53.491C61.9149 53.715 61.6052 53.6421 61.2991 53.7395C60.6061 53.9594 60.2256 54.8043 59.6588 54.9491C59.3116 55.0385 58.8437 54.7373 58.7566 55.1403C58.5686 55.9968 58.7859 56.9162 58.7323 57.8005C58.6982 58.4568 58.8097 59.1485 58.826 59.8222C58.6523 59.7996 58.4842 59.7714 58.3161 59.7525V59.7525Z" fill="black"/>
<path d="M19.6237 68.014C20.0026 68.0859 20.37 68.182 20.7314 68.3117C22.2042 69.0702 23.0077 70.2435 23.0552 71.9092C22.9371 74.1136 21.3432 75.6699 19.1366 75.7352C17.2182 75.6355 15.8178 74.4588 15.3855 72.5921C15.1187 70.9649 15.7247 69.5746 17.0662 68.6308C17.9048 68.1263 18.6309 67.9591 19.6237 68.014V68.014ZM28.4214 68.1192C28.7985 68.1911 29.1678 68.2872 29.5292 68.4169C31.0019 69.1754 31.8055 70.3487 31.8529 72.0144C31.733 74.2188 30.1409 75.7751 27.9343 75.8404C26.0159 75.7407 24.6156 74.564 24.1833 72.6973C23.9165 71.0701 24.5224 69.6797 25.864 68.736C26.7025 68.2315 27.4286 68.0643 28.4214 68.1192V68.1192ZM13.256 65.429C12.8847 65.4994 12.8322 65.6672 12.7941 66.0371L12.7641 68.5457L14.4739 68.5661L14.4477 70.7548L12.7379 70.7344L12.6808 75.5083L10.4922 75.4822L10.6137 65.3207C10.7607 64.286 11.3942 63.4105 12.4663 63.2549L15.5379 63.2916L15.5119 65.4634L13.256 65.429ZM37.9779 73.6124C37.6412 73.6084 37.0603 73.6856 36.7662 73.5568C36.6424 73.4299 36.6186 73.2276 36.6039 73.0497L36.6281 71.0294L37.9993 71.0458L38.0254 68.8571L36.6542 68.8407L36.6852 66.2479L34.4966 66.2218L34.4656 68.8145L33.0944 68.7981L33.0682 70.9868L34.4394 71.0032C34.4273 72.0134 34.2944 73.2746 34.4509 74.27C34.6689 75.122 35.1832 75.609 36.0326 75.7707L37.9518 75.8011L37.9779 73.6124V73.6124Z" fill="white"/>
<path d="M19.2252 68.3274C21.1688 68.3506 22.7417 69.9616 22.7185 71.9052C22.6952 73.8507 21.0842 75.4236 19.1406 75.4004C17.1951 75.3771 15.6241 73.7662 15.6473 71.8207C15.6706 69.877 17.2797 68.3041 19.2252 68.3274ZM28.021 68.4325C29.9665 68.4558 31.5376 70.0667 31.5143 72.0104C31.4911 73.9559 29.8801 75.5288 27.9365 75.5055C26.9994 75.4914 26.106 75.1069 25.4515 74.4362C24.797 73.7655 24.4345 72.863 24.4432 71.9258C24.4664 69.9822 26.0774 68.4093 28.021 68.4325ZM34.742 73.86C34.7903 74.8297 35.3637 75.3829 36.2384 75.4532L36.2385 75.4439L37.6191 75.4604L37.6372 73.9451L36.8141 73.9353C36.4616 73.8469 36.2798 73.5585 36.2689 73.0607L36.2973 70.6868L37.6704 70.7032L37.6885 69.188L36.3154 69.1716L36.3464 66.5788L34.8312 66.5607L34.8002 69.1534L33.429 69.1371L33.4109 70.6523L34.782 70.6687L34.742 73.86ZM15.1792 65.1227L15.1972 63.6243L12.4866 63.5919C11.8798 63.6427 10.9191 64.3384 10.9475 65.5679L10.8329 75.1476L12.3482 75.1657L12.4053 70.3918L14.115 70.4122L14.1332 68.897L12.4234 68.8766L12.4576 66.0144C12.4737 65.4496 12.73 65.1421 13.2264 65.0882L15.1792 65.1227V65.1227Z" fill="#B01842"/>
<path d="M19.2082 69.7416C20.3699 69.7554 21.3181 70.7266 21.3042 71.8883C21.2903 73.0499 20.3192 73.9981 19.1575 73.9842C17.9958 73.9703 17.0477 72.9992 17.0615 71.8375C17.0754 70.6758 18.0466 69.7277 19.2082 69.7416ZM28.0041 69.8467C29.1658 69.8606 30.114 70.8317 30.1001 71.9934C30.0862 73.1551 29.1151 74.1033 27.9534 74.0894C26.7917 74.0755 25.8435 73.1044 25.8574 71.9427C25.8713 70.781 26.8424 69.8328 28.0041 69.8467ZM63.5096 71.0308C63.161 70.7741 62.9081 70.6438 62.4802 70.5957C60.4767 70.5717 59.8325 73.1235 61.6479 74.0133C62.4688 74.3692 63.3236 74.067 63.8371 73.3753L64.0772 73.0077L65.9181 73.9558C65.2898 75.026 64.5999 75.768 63.3759 76.1144C61.2724 76.6281 59.3418 75.518 58.6495 73.4891C58.4895 72.7875 58.4451 72.2743 58.5809 71.5594C59.0754 69.6289 60.6315 68.4258 62.6584 68.5192C63.2213 68.5662 63.7672 68.7352 64.2582 69.0144C64.7491 69.2936 65.1735 69.6763 65.5016 70.136L65.8566 70.6473L63.9692 71.5583C63.8248 71.375 63.6714 71.199 63.5096 71.0308V71.0308ZM53.9953 68.425C55.2124 68.6491 56.0581 69.1213 56.7866 70.159C57.7938 71.8212 57.5702 73.6278 56.2567 75.0433C55.2431 75.9405 54.0863 76.3046 52.7329 76.0527C50.627 75.5148 49.3604 73.6362 49.7738 71.4541C50.18 69.8668 51.2287 68.8465 52.8234 68.4783C53.2358 68.4159 53.5746 68.4031 53.9953 68.425V68.425ZM71.4722 69.1634L74.1491 69.1954L72.2798 71.4032L74.7786 76.3237L72.2887 76.2939L70.6507 73.0844L69.3201 74.526L69.3003 76.1834L67.1116 76.1572L67.258 63.91L69.4467 63.9361L69.3546 71.6395L71.4722 69.1634ZM81.8471 70.3651C82.2011 70.9568 82.3801 71.4828 82.533 72.1488L77.4776 73.8826C78.261 74.5487 79.3898 74.5023 80.0485 73.7019L80.3051 73.3682L82.0597 74.4931C81.3747 75.454 80.5746 76.176 79.3673 76.3786C78.0772 76.6251 76.8441 76.1632 75.9119 75.269C74.6986 73.9411 74.4657 72.2881 75.2932 70.6815C76.0408 69.4949 76.9309 68.9087 78.3308 68.7141C79.6952 68.6705 80.7945 69.0541 81.6574 70.1178L81.8471 70.3651V70.3651ZM45.5733 63.6507C45.5354 66.8159 45.5477 70.0153 45.5098 73.1823C45.5226 73.5193 45.6054 73.6363 45.932 73.7075L48.895 73.7523L48.8689 75.941L45.2323 75.8975C43.8288 75.7628 43.2899 74.9893 43.265 73.627L43.3846 63.6245L45.5733 63.6507V63.6507ZM85.8164 76.3809C85.8319 75.0845 85.8216 73.7541 85.837 72.4652C85.9301 71.7255 86.0571 71.5829 86.791 71.543L88.1546 71.5668L88.1808 69.3782C86.7329 69.3608 85.4155 69.0682 84.3731 70.1914C83.9555 70.6934 83.7038 71.2442 83.6792 71.8931L83.6259 76.3547L85.8164 76.3809V76.3809Z" fill="white"/>
<path d="M19.0189 70.0854C18.6254 70.123 18.2555 70.2902 17.9672 70.5607C17.679 70.8312 17.4887 71.1897 17.4262 71.5801C17.3638 71.9704 17.4327 72.3704 17.6221 72.7174C17.8115 73.0644 18.1108 73.3386 18.473 73.4971C19.6716 74.0166 20.9021 73.1295 20.9675 71.8842C20.9375 70.7894 20.1288 70.0482 19.0189 70.0854V70.0854ZM27.8148 70.1906C27.4211 70.2278 27.051 70.3948 26.7625 70.6651C26.474 70.9355 26.2834 71.294 26.2207 71.6844C26.1581 72.0748 26.2268 72.475 26.4161 72.8221C26.6055 73.1692 26.9048 73.4436 27.267 73.6022C28.4656 74.1217 29.6961 73.2346 29.7615 71.9894C29.7353 70.8946 28.9265 70.1534 27.8148 70.1906V70.1906Z" fill="black"/>
<path d="M18.9118 70.4377C17.3004 70.7983 17.3816 73.0799 19.0123 73.3015C19.2531 73.3241 19.496 73.2892 19.7207 73.1996C21.2269 72.5609 20.7314 70.351 19.0467 70.4225L18.9118 70.4377ZM27.7095 70.5429C26.0962 70.9034 26.1793 73.1851 27.81 73.4067C28.0509 73.4293 28.2937 73.3944 28.5184 73.3047C30.0247 72.6661 29.5291 70.4562 27.8444 70.5277L27.7095 70.5429Z" fill="white"/>
<path d="M65.3531 70.514L64.0659 71.1385C63.8717 70.8727 63.6189 70.6551 63.3271 70.5027C63.0353 70.3503 62.7124 70.2671 62.3832 70.2596C61.2215 70.2457 60.2504 71.1939 60.2365 72.3556C60.2226 73.5173 61.1708 74.4884 62.3325 74.5023C63.1163 74.5117 63.8118 74.0841 64.1898 73.4487L65.445 74.0942C65.1371 74.6529 64.6835 75.1176 64.1324 75.4388C63.5813 75.7601 62.9534 75.9258 62.3156 75.9184C61.3785 75.9042 60.4851 75.5198 59.8306 74.8491C59.1761 74.1783 58.8136 73.2758 58.8223 72.3387C58.8455 70.3951 60.4565 68.8222 62.4001 68.8454C62.9925 68.855 63.5731 69.0127 64.0889 69.3041C64.6047 69.5956 65.0393 70.0115 65.3531 70.514V70.514ZM53.5949 68.7383C55.5404 68.7615 57.1115 70.3725 57.0882 72.3161C57.065 74.2616 55.4559 75.8345 53.5104 75.8112C52.5733 75.7971 51.6799 75.4126 51.0254 74.7419C50.3709 74.0712 50.0084 73.1687 50.0171 72.2316C50.0403 70.2879 51.6513 68.715 53.5949 68.7383ZM69.0069 72.5596L71.6272 69.5002L73.4287 69.5217L71.8744 71.3572L74.2289 75.9823L72.4929 75.9615L70.7325 72.5054L68.985 74.3947L68.9676 75.8445L67.4524 75.8264L67.5908 64.2507L69.106 64.2688L69.0069 72.5596ZM83.9685 76.0239L85.4837 76.042C85.5003 74.6521 85.4839 73.8343 85.5005 72.4462C85.5385 71.4626 86.03 71.1972 86.7876 71.2062L87.8219 71.228L87.8401 69.7127L86.2164 69.684C84.8858 69.7186 84.0302 70.8627 84.0177 71.9047L83.9685 76.0239V76.0239ZM78.7142 69.0386C76.7859 68.9893 75.1598 70.5789 75.1364 72.5319C75.1133 74.468 76.6935 76.0884 78.6297 76.1116C79.8493 76.1262 80.9362 75.5161 81.5778 74.5809L80.3821 73.8163C80.1829 74.096 79.918 74.3224 79.6107 74.4756C79.3035 74.6289 78.9633 74.7043 78.6201 74.6952C78.2768 74.6861 77.9411 74.5928 77.6424 74.4235C77.3437 74.2542 77.0911 74.0141 76.907 73.7243L82.1409 71.9252C81.9181 70.8468 81.0129 69.0997 78.7142 69.0386V69.0386ZM43.6048 73.3747L43.7173 63.9653L45.2326 63.9834L45.1731 73.1839C45.1675 73.6553 45.3734 73.9534 45.8869 74.0437L48.5562 74.0831L48.5381 75.6003L45.5338 75.5643C43.9562 75.5941 43.5386 74.6892 43.6048 73.3747V73.3747Z" fill="#B01842"/>
<path d="M79.8329 73.43L78.2756 73.9595C78.855 74.161 79.4908 73.8805 79.8329 73.43ZM53.578 70.1525C54.7397 70.1664 55.6879 71.1375 55.674 72.2992C55.6601 73.4609 54.689 74.4091 53.5273 74.3952C52.3656 74.3813 51.4174 73.4102 51.4313 72.2485C51.4452 71.0868 52.4163 70.1386 53.578 70.1525ZM80.1476 71.052C79.7592 70.6733 79.2398 70.4587 78.6973 70.4528C77.646 70.4403 76.7423 71.2209 76.5786 72.2386L80.1476 71.052V71.052Z" fill="white"/>
<path d="M77.1163 71.7061L79.4061 70.9421C78.5436 70.6287 77.7499 70.8194 77.2096 71.5725L77.1163 71.7061ZM53.3887 70.4963C52.9951 70.5339 52.6252 70.7011 52.337 70.9716C52.0487 71.2421 51.8584 71.6007 51.796 71.991C51.7335 72.3813 51.8024 72.7814 51.9919 73.1283C52.1813 73.4753 52.4806 73.7495 52.8427 73.908C54.0395 74.4275 55.2718 73.5404 55.3372 72.2952C55.3073 71.2003 54.5004 70.4591 53.3887 70.4963V70.4963Z" fill="black"/>
<path d="M53.2834 70.8487C53.0372 70.8958 52.8074 71.006 52.6164 71.1685C52.4255 71.331 52.2799 71.5402 52.194 71.7757C52.1081 72.0113 52.0847 72.265 52.1261 72.5123C52.1675 72.7596 52.2724 72.9919 52.4304 73.1865C53.12 74.0367 54.4341 73.8167 54.876 72.8453C55.2733 72.01 54.6972 71.0583 53.8558 70.8555C53.6661 70.829 53.4738 70.8267 53.2834 70.8487V70.8487ZM88.4008 74.9206C88.9134 74.9268 89.3218 75.3451 89.3158 75.8502C89.3129 76.0968 89.2121 76.3321 89.0356 76.5044C88.8592 76.6766 88.6215 76.7718 88.375 76.7688C88.1284 76.7659 87.8931 76.6651 87.7208 76.4886C87.5485 76.3122 87.4534 76.0745 87.4564 75.828C87.4624 75.3229 87.8808 74.9144 88.4008 74.9206Z" fill="white"/>
<path d="M88.1304 75.7855L88.4334 75.7891C88.4933 75.7899 88.5441 75.7643 88.5853 75.7648C88.6167 75.7467 88.6433 75.7213 88.6628 75.6909C88.6801 75.6555 88.6973 75.6239 88.6978 75.5809C88.7001 75.526 88.6829 75.4721 88.6491 75.4288C88.6084 75.3927 88.5487 75.377 88.472 75.3761L88.1353 75.3721L88.1304 75.7855ZM35.5799 41.8004C34.4602 42.5035 33.3749 43.7684 32.5117 44.9218C31.913 45.7061 32.1294 46.6928 32.5681 47.2462C34.751 49.9496 37.3788 51.9006 40.5524 53.4203C42.035 54.1359 42.0954 54.7185 43.0557 54.6701C43.1812 54.6622 43.8163 54.4341 43.7582 54.2818C43.4892 53.6219 43.6511 52.7576 43.3973 52.0811C43.0025 52.0763 42.296 52.6497 41.8286 52.9285C41.4649 53.1524 41.0188 53.0629 40.7494 52.2758C37.2971 50.1222 34.4979 47.6453 33.7719 44.3625C34.722 44.3907 35.7063 43.7458 36.3211 43.0291C36.2441 42.5829 35.9717 42.0501 35.5799 41.8004ZM37.7206 42.2469C37.7636 42.8704 38.1471 43.1875 38.604 43.6214C39.4797 42.992 38.9329 42.2446 40.6509 41.4232C40.6999 40.1441 41.8311 40.5205 42.387 39.8705C42.3661 39.4324 42.6065 39.0406 42.5709 38.5761C41.8071 38.4566 42.226 39.253 40.6942 39.2123C40.7154 40.4155 38.7096 40.4252 38.2726 41.7671C38.0566 41.886 37.8684 42.0496 37.7206 42.2469ZM50.9206 36.0903C50.1592 35.6172 49.5535 34.9552 48.6728 34.7501C48.22 34.4434 48.4447 33.9559 48.3846 33.5099C48.5575 32.3502 48.7247 31.1903 48.8901 30.0323C48.615 29.8849 47.6336 28.7207 48.41 27.9386C48.7509 27.5966 49.5057 27.8413 49.6723 28.6104L50.5683 28.4696C50.587 28.3182 50.6876 28.1941 50.8423 28.0855C50.6383 27.621 50.8255 27.3033 51.4263 27.1234C52.186 26.9641 51.8203 25.9419 52.2581 25.9378C52.585 25.9829 52.9567 26.0303 53.2912 26.068C53.5514 26.2152 53.5469 26.5856 53.2443 26.5464C51.8331 27.0609 52.5136 27.1027 52.2335 27.3669L51.8833 27.7088C51.6961 27.875 51.694 28.0527 51.8787 28.0961C52.4268 27.9511 52.567 28.2727 53.0399 28.1511C53.5107 28.2073 53.2114 28.5143 53.1447 28.6164C52.4234 29.0119 52.0643 29.4697 51.9739 29.9906C52.3766 30.7363 52.6072 29.7624 53.0541 29.7771C53.6519 29.8591 53.8599 29.3583 53.9894 29.0137C53.9279 28.5228 54.1611 28.1065 54.4658 27.9736C54.7157 28.1955 54.9393 28.4264 55.0734 28.6394C54.9155 28.8394 54.6983 28.9842 54.4529 29.053C54.0942 29.4771 54.5932 29.3671 54.7943 29.4443C54.8263 29.5869 54.825 29.6973 54.7906 29.7567C54.5938 29.9396 54.3991 30.1131 54.2024 30.2885C53.8123 30.5271 53.9204 30.7136 54.2828 30.6019C54.3843 30.5695 54.4858 30.5295 54.5873 30.4877C54.9509 30.4322 54.9046 30.7029 54.7014 30.8015C54.5207 31.0519 54.2622 30.9216 54.0817 31.1477C54.1681 31.4312 54.461 31.5021 54.457 31.8388C54.5924 32.5664 53.7203 32.2678 53.2334 32.1535C52.7129 32.0313 52.4466 31.7661 51.9654 31.8016C51.3916 31.9107 51.3843 32.5187 50.8977 32.3763C50.4 32.3797 50.0435 32.6205 49.8118 33.063C49.8235 33.4916 50.3294 33.4303 50.5798 33.611C51.0586 33.7851 50.5388 34.2242 50.6772 34.6973C50.8286 35.3334 51.5306 35.7702 50.9206 36.0903ZM53.5761 42.1427C53.9897 42.1309 54.4015 42.1115 54.8134 42.0902C54.5974 40.4374 54.8155 37.686 53.4331 37.0465C53.5758 38.7227 53.3107 40.3959 53.5761 42.1427ZM53.7284 42.8593L53.696 43.3809C54.9408 43.4799 55.9018 43.381 57.0131 43.385C57.0244 43.2261 57.0338 43.0653 57.0524 42.914C55.4604 43.0577 54.942 42.7559 53.7284 42.8593ZM53.7434 43.6415C53.741 43.8435 53.8926 43.8379 53.8318 44.071C55.0283 43.9936 56.022 43.9718 57.0247 43.9763C57.0003 43.832 57.0841 43.8592 57.0689 43.7224C56.0245 43.6033 54.812 43.774 53.7434 43.6415ZM55.4434 36.6589C55.8636 38.127 55.7428 39.7776 55.9858 41.2118C55.8219 41.6139 55.9965 41.7245 55.8419 41.9753C56.151 42.2559 56.3941 42.2681 56.6319 42.0951C56.873 41.6433 56.7604 41.2042 56.5803 40.7736C56.8804 38.9923 56.4588 37.6383 55.4434 36.6589ZM54.4468 36.2934C54.342 36.6046 54.1013 37.0227 53.5738 36.7039C53.139 36.4461 53.3049 36.029 53.6486 36.0818C53.8913 36.1202 53.9388 36.3715 54.0978 36.5343C54.1976 36.6347 54.3589 36.4439 54.4468 36.2934ZM60.2244 51.4572C62.2283 50.0405 64.0098 48.2863 65.3436 45.7933C65.7865 45.9988 66.3923 46.0322 66.6929 46.3913C67.3811 47.1984 67.0832 48.1715 66.4124 48.7285C65.5532 49.4479 64.4717 49.8481 63.3511 49.8612C62.8796 49.8649 62.5671 50.6526 62.305 50.8253C61.5901 51.3051 60.997 51.6179 60.2244 51.4572ZM58.2937 36.272C58.9404 36.3209 59.2436 37.101 59.4668 36.7407C60.6908 36.5458 60.7392 37.3527 61.5347 37.7926C61.7737 38.1415 62.0249 38.414 62.4368 38.3927C63.0598 39.0138 63.6916 39.6874 64.1801 39.6764C64.825 40.0377 64.8281 40.4007 64.5468 40.7753C64.3653 41.0856 64.1563 41.04 63.9327 40.6501C62.9161 39.7717 61.8912 38.7996 60.7957 38.2552C60.6057 37.875 60.2137 37.6421 59.6347 37.5603C58.5499 37.3789 58.2526 36.8871 58.2937 36.272ZM58.481 38.2855L58.6664 39.5263C59.061 39.69 59.4729 39.8297 59.9865 39.7423C60.0714 40.3083 60.3229 40.5564 60.7353 40.4921C61.8228 41.0776 62.4944 42.0211 63.4714 42.6128C63.761 42.3394 63.8401 41.9773 63.7463 41.5291C62.4479 40.8999 61.8971 39.8736 60.8398 39.5766C60.7095 39.2046 60.343 38.8803 60.0025 38.5638C59.2272 38.4647 58.8914 38.384 58.481 38.2855ZM59.5748 42.5681C59.5706 42.9198 59.099 42.9328 59.2216 42.5377L58.91 41.0596C58.9759 40.5553 59.2029 40.5 59.5616 40.8579C60.4071 41.9625 61.9106 42.3434 62.8486 43.3818C63.2653 43.7385 62.7367 44.2878 62.6034 44.1703C61.5421 44.2156 60.8543 43.3748 60.2476 42.6341C60.1169 42.1368 59.7074 41.9635 59.5748 42.5681Z" fill="white"/>
<path d="M43.33 45.6573C43.8934 47.2038 43.7066 49.3738 43.4799 51.4347C43.017 52.1195 42.5113 52.1715 41.9362 51.6015C40.3498 50.4974 38.9407 48.6433 37.6386 46.289C38.2937 45.7917 38.847 45.9929 39.7781 45.5737C39.8883 45.431 39.8582 45.2884 39.8919 45.1373C40.0176 44.9431 40.1864 44.7804 40.385 44.6617C40.5837 44.5431 40.8069 44.4717 41.0376 44.4531C41.4109 44.9964 41.4054 43.8925 42.399 43.88C42.148 45.9407 43.0161 47.3486 43.4356 48.7176C43.6161 47.8666 43.2482 46.8669 43.33 45.6573V45.6573ZM58.737 51.3047C59.1542 51.6221 59.5592 51.5428 60.0349 51.1948C61.9296 49.8293 63.5258 47.9269 64.9497 45.7231C64.7429 45.3408 64.3405 45.1938 63.9877 45.1298C63.5703 45.454 63.1658 44.8673 62.7633 44.7278C61.9544 45.4085 61.1706 44.1438 60.3827 43.85C60.0672 44.8902 60.2149 45.8349 59.7593 46.7032C59.3876 47.4321 59.6147 48.157 59.4819 48.7785C59.3034 49.6201 58.9827 50.4676 58.737 51.3047V51.3047ZM58.8315 49.0326C58.8926 47.3663 59.0886 45.8364 58.9579 44.0911C58.9453 43.1162 59.6322 43.2498 59.5405 44.0307C59.3736 45.9427 59.1508 47.6744 58.8315 49.0326ZM50.6161 37.619C50.7171 37.6202 50.7425 37.6879 50.741 37.8151C50.7395 37.9423 50.6541 38.0423 50.5531 38.0411C50.4521 38.0399 50.3759 37.9978 50.3774 37.8706C50.3789 37.7434 50.5151 37.6178 50.6161 37.619V37.619ZM50.5055 39.8328C50.6065 39.8341 50.6899 39.9024 50.6887 39.9959C50.6876 40.0876 50.6027 40.1539 50.5016 40.1527C50.3913 40.1514 50.3079 40.0831 50.309 39.9914C50.3101 39.8979 50.3951 39.8315 50.5055 39.8328ZM60.4783 56.9832C60.6936 56.9858 60.8991 57.0738 61.0495 57.2278C61.2 57.3819 61.283 57.5894 61.2805 57.8048C61.2779 58.0201 61.1899 58.2256 61.0358 58.376C60.8817 58.5264 60.6742 58.6095 60.4589 58.6069C60.3475 58.6131 60.2361 58.5964 60.1315 58.5578C60.0269 58.5192 59.9313 58.4594 59.8508 58.3823C59.7702 58.3052 59.7063 58.2124 59.6632 58.1096C59.62 58.0068 59.5984 57.8962 59.5997 57.7847C59.601 57.6732 59.6253 57.5631 59.6709 57.4614C59.7165 57.3596 59.7826 57.2683 59.865 57.1932C59.9474 57.118 60.0443 57.0606 60.1498 57.0245C60.2553 56.9884 60.3671 56.9743 60.4783 56.9832V56.9832Z" fill="white"/>
<path d="M60.1014 58.3089L60.114 57.2576L60.5274 57.2625C60.6041 57.2634 60.6693 57.281 60.7215 57.2985C60.7688 57.3187 60.8074 57.355 60.8307 57.4008C60.8551 57.4506 60.8685 57.505 60.8699 57.5603C60.8721 57.6292 60.8471 57.6961 60.8003 57.7466C60.7471 57.8021 60.6741 57.8342 60.5972 57.8359C60.6382 57.8551 60.6546 57.8871 60.664 57.8872C60.7045 57.9382 60.7564 57.9818 60.78 58.0401L60.9282 58.3188L60.7767 58.317L60.6521 58.0966C60.6191 58.0382 60.5859 58.0041 60.5694 57.9702C60.5507 57.9394 60.5285 57.9109 60.5031 57.8852C60.4865 57.8682 60.4528 57.8678 60.4359 57.8676C60.4268 57.8507 60.4025 57.8504 60.3688 57.85L60.2435 57.8485L60.2379 58.3105L60.1014 58.3089V58.3089Z" fill="black"/>
<path d="M60.2429 57.74L60.5048 57.7431C60.5534 57.7437 60.5967 57.718 60.6398 57.7185C60.6664 57.7008 60.6896 57.6782 60.7079 57.652C60.7176 57.6259 60.7348 57.5943 60.7352 57.5587C60.7345 57.5115 60.7208 57.4654 60.6957 57.4254C60.6509 57.3959 60.5982 57.3809 60.5446 57.3825L60.2509 57.379L60.2466 57.74L60.2429 57.74Z" fill="white"/>
</svg>
