<svg width="100" height="100" viewBox="0 0 100 100" fill="none" xmlns="http://www.w3.org/2000/svg">
<path d="M0.5 0.5H99.5V99.5H0.5V0.5Z" fill="white" stroke="#008B00"/>
<path d="M18.9622 47.5341H15.1193V46.3497C15.1193 45.6032 15.0827 45.1358 15.0096 44.9478C14.9365 44.7598 14.7631 44.6658 14.4892 44.6657C14.2519 44.6657 14.0906 44.7463 14.0055 44.9074C13.9203 45.0686 13.8775 45.4821 13.8775 46.1481V52.4085C13.8775 52.9941 13.9202 53.3794 14.0056 53.5648C14.0911 53.7502 14.2609 53.8427 14.5167 53.8427C14.7965 53.8427 14.9869 53.7379 15.0872 53.5284C15.1876 53.3189 15.2379 52.9108 15.2379 52.3037V50.7568H14.462V48.7747H18.9622V55.7764H16.5431L16.1872 54.8417C15.9256 55.2443 15.5954 55.5466 15.1968 55.7482C14.7982 55.9497 14.328 56.0504 13.7865 56.0504C13.1415 56.0504 12.5375 55.9121 11.9746 55.6355C11.4118 55.359 10.9842 55.0164 10.6922 54.6082C10.4001 54.2001 10.2175 53.7716 10.1444 53.3232C10.0713 52.8745 10.0347 52.202 10.0347 51.3049V47.4293C10.0347 46.1832 10.1108 45.2781 10.263 44.714C10.4152 44.1499 10.8518 43.6328 11.5729 43.1629C12.294 42.6929 13.2267 42.458 14.3706 42.458C15.4965 42.458 16.4307 42.662 17.1731 43.0701C17.9154 43.4787 18.3993 43.9636 18.6246 44.5248C18.8498 45.0861 18.9623 45.9011 18.9623 46.9702V47.5341H18.9622ZM23.3253 49.2257H19.8656V48.5089C19.8656 47.6817 19.9737 47.0437 20.1896 46.5953C20.4058 46.1469 20.8393 45.7506 21.4905 45.4069C22.1415 45.0632 22.9876 44.8914 24.0283 44.8914C25.2757 44.8914 26.3756 45.0859 27.0086 45.4755C27.6415 45.8649 28.0219 46.3429 28.1495 46.9096C28.2773 47.4763 28.3411 48.6433 28.3412 50.4105V55.7765H24.594V54.8257C24.3689 55.207 24.0782 55.493 23.7222 55.6837C23.3663 55.8744 22.9417 55.9696 22.449 55.9696C21.804 55.9696 21.212 55.8099 20.6737 55.4904C20.1349 55.1707 19.8656 54.471 19.8656 53.3915V52.5133C19.8656 51.7129 20.0088 51.1678 20.2948 50.8774C20.5807 50.5875 21.2898 50.2493 22.4217 49.8624C23.6326 49.4434 24.2807 49.1614 24.3659 49.0165C24.451 48.8716 24.494 48.5762 24.494 48.1302C24.494 47.5717 24.4466 47.2077 24.3523 47.0384C24.258 46.8693 24.1012 46.7847 23.8823 46.7847C23.6327 46.7847 23.4775 46.856 23.4168 46.9983C23.3559 47.1405 23.3254 47.5099 23.3254 48.1061V49.2259L23.3253 49.2257ZM24.4938 50.6923C23.9035 51.0736 23.5613 51.3933 23.4669 51.651C23.3726 51.9088 23.3254 52.2795 23.3254 52.7629C23.3254 53.3162 23.3664 53.6734 23.4487 53.8345C23.5308 53.9957 23.6936 54.0762 23.937 54.0762C24.1682 54.0762 24.3189 54.013 24.3888 53.8867C24.4589 53.7605 24.4938 53.4287 24.4938 52.8918V50.6925V50.6923ZM33.0925 45.0844L33.0286 46.0996C33.3146 45.6968 33.6555 45.3947 34.051 45.1931C34.4466 44.9916 34.8969 44.8908 35.402 44.8908C36.3879 44.8908 37.1637 45.2936 37.7297 46.0994C38.0402 45.6967 38.3899 45.3945 38.7795 45.1929C39.1689 44.9915 39.601 44.8906 40.0757 44.8906C40.7026 44.8906 41.2213 45.025 41.6321 45.2935C42.0429 45.5621 42.3061 45.8911 42.4218 46.2805C42.5374 46.6701 42.5951 47.3024 42.5951 48.1781V55.7761H39.0167V48.8067C39.0167 47.8934 38.9818 47.328 38.9118 47.1107C38.8418 46.8931 38.679 46.7843 38.4236 46.7843C38.1618 46.7843 37.993 46.8918 37.9169 47.1065C37.8408 47.3213 37.8028 47.8881 37.8028 48.8065V55.7759H34.2244V48.9839C34.2244 47.9363 34.1958 47.308 34.1378 47.0984C34.0798 46.8889 33.9203 46.7841 33.6585 46.7841C33.4943 46.7841 33.3541 46.8392 33.2387 46.9494C33.1254 47.0544 33.0569 47.1984 33.047 47.352C33.0349 47.5106 33.0289 47.8478 33.0289 48.3634V55.7759H29.3307V45.084H33.0925V45.0846V45.0844ZM52.2255 50.6197H47.4513V52.932C47.4513 53.4154 47.4909 53.7272 47.57 53.8668C47.649 54.0064 47.8012 54.0762 48.0264 54.0762C48.3062 54.0762 48.4935 53.9834 48.5879 53.7983C48.6822 53.6131 48.7292 53.2544 48.7292 52.7226V51.3125H52.2255V52.1023C52.2255 52.7629 52.1783 53.2706 52.084 53.6251C51.9897 53.9795 51.769 54.3582 51.4221 54.761C51.0752 55.1639 50.6355 55.466 50.103 55.6677C49.5706 55.8692 48.9027 55.9699 48.0993 55.9699C47.3203 55.9699 46.633 55.8705 46.0364 55.6717C45.44 55.473 44.976 55.2003 44.6443 54.854C44.3128 54.5075 44.083 54.1262 43.9552 53.7098C43.8274 53.2936 43.7638 52.6879 43.7638 51.8929V48.7747C43.7638 47.8402 43.9067 47.1029 44.1927 46.5631C44.4787 46.0233 44.9472 45.6097 45.5984 45.3222C46.2496 45.0349 46.9981 44.8912 47.8439 44.8912C48.8784 44.8912 49.7322 45.0644 50.4044 45.411C51.0769 45.7573 51.5485 46.2168 51.8195 46.7886C52.0902 47.3608 52.2255 48.1651 52.2255 49.2018V50.6199V50.6197ZM48.5285 48.8794V48.0979C48.5285 47.5446 48.495 47.1873 48.4281 47.0263C48.3612 46.8651 48.2242 46.7846 48.0173 46.7846C47.7617 46.7846 47.6035 46.8531 47.5428 46.9901C47.4819 47.127 47.4514 47.4964 47.4514 48.0979V48.8794H48.5285V48.8794Z" fill="black"/>
<path d="M61.6908 46.3807H58.1216V45.4138C58.1216 44.9626 58.0759 44.6752 57.9848 44.5516C57.8936 44.4281 57.7414 44.3665 57.5284 44.3663C57.2971 44.3663 57.1221 44.4497 57.0035 44.6161C56.8849 44.7827 56.8254 45.0352 56.8254 45.3734C56.8254 45.8086 56.8923 46.1364 57.0263 46.3566C57.1541 46.5769 57.5162 46.8427 58.1126 47.1541C59.8227 48.0512 60.8998 48.7869 61.344 49.3616C61.7881 49.9366 62.0103 50.8631 62.0103 52.1415C62.0103 53.0707 61.8872 53.7556 61.6406 54.1962C61.3942 54.6365 60.918 55.0059 60.2121 55.304C59.5062 55.6019 58.6846 55.7511 57.7476 55.7511C56.7192 55.7511 55.8413 55.5793 55.1141 55.2355C54.3868 54.8917 53.9106 54.4539 53.6854 53.9222C53.4603 53.3904 53.3478 52.6357 53.3478 51.6582V50.8041H56.9169V52.3911C56.9169 52.8801 56.9671 53.1942 57.0676 53.3339C57.1678 53.4736 57.3459 53.5432 57.6015 53.5432C57.857 53.5432 58.0473 53.4546 58.1719 53.2774C58.2967 53.1001 58.3591 52.8371 58.3591 52.488C58.3591 51.7197 58.2404 51.2176 58.0031 50.9813C57.7598 50.7448 57.1603 50.3502 56.2048 49.7969C55.2494 49.2383 54.4966 48.8327 54.1862 48.5801C53.8757 48.3275 53.6186 47.9785 53.4149 47.5328C53.211 47.0868 53.1091 46.5177 53.1091 45.8248C53.1091 44.8256 53.2538 43.9365 53.5427 43.4746C53.8317 43.0126 54.2989 42.6513 54.9439 42.3909C55.5889 42.1305 56.488 42.0003 57.4008 42.0003C58.3989 42.0003 59.2493 42.1425 59.9522 42.4274C60.655 42.7124 61.1207 43.0707 61.3489 43.5031C61.5772 43.9356 61.6911 44.8286 61.6911 45.8654V46.3807H61.6908ZM67.1632 43.3592V44.6467H68.1981V46.3386H67.1632V52.4558C67.1632 53.1595 67.2042 53.5513 67.2863 53.6321C67.3686 53.7127 67.5511 53.7531 68.1536 53.7531V55.4772H66.6657C65.8259 55.4772 65.2265 55.4465 64.8674 55.3847C64.5083 55.3229 64.192 55.1806 63.918 54.9576C63.644 54.7346 63.4737 54.4795 63.4067 54.1922C63.3396 53.9048 63.3063 53.2292 63.3063 52.1657V46.3387H62.5121V44.6467H63.3063V43.3592H67.1632V43.3592ZM77.4338 48.5398V51.1585C77.4338 52.1199 77.3791 52.825 77.2695 53.2735C77.1598 53.7219 76.9256 54.141 76.5666 54.5303C76.2075 54.9198 75.7468 55.207 75.1837 55.3923C74.6205 55.5776 73.9741 55.6704 73.2438 55.6704C72.4285 55.6704 71.7377 55.5911 71.1717 55.4327C70.6058 55.2741 70.1661 55.0352 69.8528 54.7155C69.5393 54.396 69.3157 54.0091 69.1818 53.5554C69.0479 53.1014 68.981 52.4206 68.981 51.5129V48.7735C68.981 47.7797 69.1027 47.0035 69.3461 46.4447C69.5895 45.8859 70.0276 45.4378 70.6607 45.0992C71.2936 44.761 72.1029 44.5917 73.0888 44.5917C73.9164 44.5917 74.6268 44.7005 75.2203 44.918C75.8137 45.1356 76.2716 45.4191 76.5941 45.7681C76.9166 46.1172 77.1372 46.4772 77.2559 46.8479C77.3744 47.2185 77.4338 47.7825 77.4338 48.5398V48.5398ZM73.7461 47.7344C73.7461 47.1864 73.7124 46.8413 73.6455 46.699C73.5785 46.5567 73.4355 46.4854 73.2164 46.4854C72.9974 46.4854 72.8513 46.5567 72.7783 46.699C72.7054 46.8413 72.6688 47.1864 72.6688 47.7344V52.5605C72.6688 53.0654 72.7052 53.3942 72.7783 53.5476C72.8513 53.7005 72.9944 53.7772 73.2074 53.7772C73.4265 53.7772 73.571 53.7073 73.6409 53.5676C73.711 53.428 73.746 53.1273 73.746 52.6652V47.7345L73.7461 47.7344ZM82.209 44.7852L82.1451 45.728C82.4737 45.3466 82.8358 45.062 83.2314 44.8738C83.6268 44.6859 84.0589 44.5919 84.5276 44.5919C86.7159 44.5132 87.4795 45.703 87.5057 47.7423V52.2463C87.5057 53.2185 87.4403 53.9101 87.3095 54.3209C86.5846 55.7547 84.6026 55.982 83.2132 55.3884C82.8236 55.2005 82.4676 54.9212 82.1451 54.5503V56.9999H78.4572V44.7852H82.209ZM83.2588 47.8952C83.2588 47.2348 83.2314 46.8346 83.1767 46.6949C83.1218 46.5553 82.9698 46.4854 82.7202 46.4854C82.4768 46.4854 82.3201 46.5661 82.2502 46.7273C82.1801 46.8883 82.1453 47.2779 82.1453 47.8955V52.3268C82.1453 52.9714 82.1818 53.3743 82.2549 53.5353C82.3278 53.6965 82.486 53.777 82.7296 53.777C82.9668 53.777 83.1145 53.7032 83.1722 53.5555C83.2299 53.4078 83.2588 53.0492 83.2588 52.4797V47.8952V47.8952Z" fill="#FD0000"/>
<path d="M88.7399 44.7406V43.7701H89.1733C89.2604 43.7701 89.3268 43.7787 89.372 43.7962C89.4173 43.8136 89.4535 43.8444 89.4806 43.8886C89.5077 43.9327 89.5213 43.9814 89.5213 44.035C89.5213 44.1038 89.499 44.1619 89.4541 44.209C89.4092 44.2562 89.3399 44.2864 89.2461 44.2991C89.2803 44.3154 89.3064 44.3316 89.3242 44.3475C89.3619 44.3817 89.3976 44.425 89.4315 44.4765L89.6015 44.7408H89.4389L89.3096 44.5387C89.2719 44.4804 89.2407 44.4358 89.2163 44.4049C89.1919 44.3741 89.1699 44.3524 89.1506 44.34C89.1325 44.3282 89.1125 44.3194 89.0915 44.3141C89.0676 44.3104 89.0435 44.3089 89.0193 44.3096H88.8694V44.7406H88.7399V44.7406ZM88.8692 44.1984H89.1473C89.2065 44.1984 89.2528 44.1923 89.2859 44.1801C89.3172 44.1697 89.344 44.1491 89.362 44.1218C89.3793 44.0951 89.3881 44.0661 89.3881 44.0348C89.3881 43.9889 89.3715 43.951 89.3378 43.9215C89.304 43.892 89.2511 43.8772 89.1786 43.8772H88.8692V44.1984Z" fill="#FF0000"/>
<path d="M89.8986 44.2605C89.8986 44.4154 89.8524 44.5669 89.7657 44.6957C89.679 44.8245 89.5558 44.9249 89.4117 44.9842C89.2676 45.0435 89.109 45.059 88.956 45.0288C88.803 44.9986 88.6624 44.924 88.5521 44.8144C88.4418 44.7049 88.3667 44.5653 88.3363 44.4133C88.3058 44.2614 88.3214 44.1039 88.3811 43.9607C88.4408 43.8176 88.5419 43.6953 88.6717 43.6092C88.8014 43.5231 88.9539 43.4772 89.1099 43.4772C89.2135 43.4771 89.3161 43.4974 89.4118 43.5367C89.5075 43.5761 89.5944 43.6338 89.6677 43.7065C89.741 43.7793 89.799 43.8656 89.8387 43.9607C89.8783 44.0558 89.8987 44.1576 89.8986 44.2605V44.2605Z" stroke="#FF0000" stroke-width="0.2"/>
</svg>
