<svg width="100" height="100" viewBox="0 0 100 100" fill="none" xmlns="http://www.w3.org/2000/svg">
<rect x="0.5" y="0.5" width="99" height="99" fill="white" stroke="#008B00"/>
<path d="M89.7778 10.2222H10.2222V89.7778H89.7778V10.2222Z" fill="white"/>
<path d="M89.5556 10.4444V89.5556H10.4444V10.4444H89.5556ZM90 10H10V90H90V10Z" fill="black"/>
<path d="M18.6458 45.3271H19.6435C19.6471 46.9525 19.636 48.5738 19.6471 50.1987C19.74 50.0982 19.792 49.9685 19.8773 49.8609C20.2222 49.3862 20.7489 49.0036 21.3502 48.9742C21.8178 48.9591 22.3298 49.0147 22.7009 49.3227C23.0018 49.5636 23.12 49.9609 23.1164 50.3356C23.1164 51.6227 23.12 52.9107 23.1129 54.1978C22.7751 54.1978 22.4378 54.2018 22.0964 54.1978V49.9978C22.0924 49.7569 22.0369 49.4893 21.8475 49.3222C21.6769 49.1702 21.4284 49.1516 21.2093 49.1813C20.8235 49.2222 20.4822 49.4409 20.2226 49.7231C20 49.964 19.8253 50.2462 19.6733 50.536C19.6511 50.5769 19.64 50.6209 19.6435 50.6693V54.1978C19.3098 54.2018 18.9795 54.1978 18.6458 54.1978V45.3271V45.3271Z" fill="#1A181D" stroke="#1A181D" stroke-width="0.094"/>
<path d="M19.6435 45.3271H38.3698C38.3733 48.2844 38.3662 51.2418 38.3733 54.1987H39.3902C39.3973 53.5675 39.3826 52.9373 39.3973 52.3062C39.5346 52.1764 39.6644 52.0356 39.8164 51.9244C40.3915 52.6404 40.9706 53.3529 41.5458 54.0684C41.5938 54.1204 41.6346 54.2133 41.7204 54.1987C42.136 54.1987 42.5515 54.2062 42.9671 54.1951C42.1769 53.1858 41.3604 52.1951 40.5662 51.1893C41.112 50.6587 41.676 50.1431 42.2284 49.616C42.3546 49.4862 42.5106 49.3822 42.6146 49.2342C42.4995 49.2453 42.3773 49.2191 42.2698 49.2529C41.3795 50.1138 40.4853 50.9782 39.5942 51.8427C39.5275 51.9058 39.4684 51.9684 39.3938 52.0204C39.3902 49.7902 39.3938 47.5573 39.3902 45.3267H65.8595C65.8595 48.2804 65.864 51.2338 65.856 54.1907C66.1938 54.2093 66.5347 54.1982 66.876 54.1947V45.3271H69.2138C69.2138 48.2844 69.2102 51.2418 69.2138 54.1987C69.5515 54.2027 69.8924 54.1987 70.2302 54.1987C70.2338 51.2418 70.2382 48.2844 70.2302 45.3271H81.3129V49.6053C81.2835 49.2973 81.024 49.0484 80.7271 48.9929C80.3973 48.9338 80.0404 49.004 79.7591 49.1862C79.332 49.4609 79.0795 49.9355 78.9569 50.4142C78.9275 50.292 78.9422 50.1658 78.9378 50.0395C78.9342 49.6831 78.9422 49.3271 78.9342 48.9711C78.6009 48.9747 78.2667 48.9747 77.9324 48.9711C77.9071 49.3124 77.9289 49.6573 77.9222 50.0022C77.9258 51.4009 77.9186 52.8 77.9258 54.1987C78.2635 54.1987 78.6013 54.2027 78.9378 54.1987V52.3027C78.9422 51.6755 78.8942 51.0302 79.1089 50.4249C79.2502 50.0204 79.4804 49.6271 79.8284 49.3676C80.0106 49.2302 80.2444 49.1298 80.4786 49.1858C80.3813 49.2898 80.2747 49.3933 80.2475 49.5382C80.2 49.7684 80.2146 50.08 80.456 50.1987C80.6564 50.288 80.9084 50.288 81.0942 50.1618C81.2244 50.0729 81.2911 49.9244 81.3129 49.7724V54.3436H74.5862C74.8195 54.2733 75.0644 54.2249 75.28 54.0987C75.8849 53.7831 76.2746 53.1449 76.3822 52.4809C76.3155 52.4809 76.252 52.4773 76.1853 52.4773C76.0924 53.0293 75.7844 53.5609 75.3026 53.8573C74.92 54.0947 74.4529 54.1871 74.0075 54.128C73.7298 54.0907 73.4582 53.9502 73.2991 53.712C73.0795 53.3889 73.036 52.9924 73.0204 52.6138C73.0093 52.1391 73.0204 51.6635 73.0133 51.1929C74.0595 51.1849 75.1098 51.1929 76.1555 51.1884C76.2222 51.1996 76.2813 51.148 76.2711 51.0773C76.2666 50.8324 76.1702 50.5991 76.0671 50.38C75.8404 49.92 75.5062 49.5004 75.0609 49.2333C74.6044 48.9551 74.0218 48.888 73.5173 49.0773C73.0458 49.248 72.664 49.608 72.3853 50.016C72.0409 50.5351 71.8289 51.1551 71.8551 51.7822C71.8742 52.4204 72.0702 53.0693 72.4862 53.5556C72.7493 53.8671 73.0982 54.1013 73.4844 54.2235C73.6218 54.2715 73.7666 54.2902 73.9026 54.3422H62.0413C62.1969 54.2827 62.3644 54.2644 62.5231 54.2049C63.176 53.9822 63.7106 53.4587 63.9893 52.8284C64.3564 52.008 64.3115 51.0178 63.8627 50.2382C63.5511 49.6889 63.0355 49.2587 62.4271 49.0809C61.7333 48.8729 60.9471 48.9582 60.3306 49.348C59.8591 49.6484 59.5 50.112 59.3026 50.6315C59.076 51.2293 59.0542 51.9044 59.2471 52.5164C59.4364 53.1364 59.852 53.6929 60.4155 54.0196C60.6942 54.1862 61.0138 54.2604 61.3253 54.3422H46.536C46.7364 54.2791 46.948 54.2418 47.1373 54.1489C47.7973 53.8484 48.228 53.1809 48.3395 52.4796C48.2729 52.476 48.2058 52.4796 48.1431 52.4796C48.0578 52.9916 47.7866 53.4813 47.364 53.7853C46.9591 54.0782 46.4395 54.1973 45.9466 54.1271C45.6644 54.0858 45.3938 53.9302 45.2413 53.6853C45.0258 53.3516 44.9853 52.9471 44.9742 52.5613C44.9742 52.1013 44.9742 51.6444 44.9778 51.188H48.1093C48.2169 51.2107 48.2498 51.088 48.228 51.0067C48.1724 50.6249 47.9946 50.272 47.7791 49.9564C47.4529 49.4889 46.9738 49.0995 46.3991 48.9995C45.8982 48.9027 45.3711 49.044 44.9671 49.352C44.392 49.7862 44.0133 50.4538 43.8649 51.1551C43.7613 51.6822 43.8169 52.2351 43.9835 52.7427C44.1955 53.3702 44.6626 53.9156 45.2822 54.1676C45.4644 54.2493 45.6684 54.2751 45.8573 54.3422H27.3164C27.4871 54.2755 27.6689 54.2387 27.8284 54.1422C28.2364 53.9084 28.5595 53.5222 28.7226 53.0804C28.7671 53.452 28.7302 53.8262 28.7413 54.1978C29.0826 54.1938 29.424 54.2089 29.7653 54.1902C29.7578 52.4502 29.7653 50.7138 29.7618 48.9733C29.424 48.9698 29.0826 48.9733 28.7449 48.9698C28.7413 49.9564 28.7449 50.9431 28.7413 51.9302C28.7378 52.1902 28.7635 52.4573 28.6929 52.7133C28.5555 53.2551 28.2031 53.7524 27.7022 54.0124C27.4164 54.1493 27.0564 54.2124 26.7671 54.0458C26.5298 53.912 26.4222 53.6333 26.4111 53.3702C26.4035 51.9044 26.4186 50.4351 26.4035 48.9698C26.0698 48.9733 25.732 48.9733 25.3978 48.9698C25.3866 50.3164 25.3978 51.6595 25.3942 53.0067C25.3862 53.3853 25.5391 53.7751 25.8431 54.0084C26.0769 54.2049 26.3809 54.268 26.6671 54.3422H18.6458V54.1978C18.9795 54.1978 19.3098 54.2013 19.6435 54.1978V50.6693C19.64 50.6213 19.6511 50.5764 19.6733 50.5356C19.8253 50.2462 20 49.9644 20.2226 49.7231C20.4822 49.4409 20.8235 49.2222 21.2093 49.1813C21.4284 49.152 21.6769 49.1702 21.8475 49.3222C22.0369 49.4889 22.0924 49.7564 22.0964 49.9973V54.1978C22.4378 54.2013 22.7751 54.1978 23.1129 54.1978C23.1204 52.9107 23.1164 51.6227 23.1164 50.3355C23.12 49.9609 23.0018 49.5635 22.7009 49.3227C22.3302 49.0147 21.8178 48.9591 21.3502 48.9738C20.7489 49.0031 20.2222 49.3853 19.8773 49.8604C19.792 49.968 19.74 50.0978 19.6471 50.1978C19.636 48.5742 19.6471 46.9529 19.6435 45.3271Z" fill="white" stroke="white" stroke-width="0.094"/>
<path d="M38.3698 45.3271H39.3902C39.3937 47.5573 39.3902 49.7907 39.3938 52.0209C39.468 51.9689 39.5275 51.9058 39.5942 51.8431C40.4849 50.9787 41.3791 50.1138 42.2698 49.2529C42.3773 49.2196 42.5 49.2458 42.6146 49.2342C42.5106 49.3822 42.3551 49.4862 42.2284 49.616C41.676 50.1431 41.112 50.6587 40.5662 51.1893C41.3604 52.1951 42.1769 53.1853 42.9666 54.1947C42.5511 54.2058 42.1355 54.1987 41.72 54.1987C41.6346 54.2133 41.5937 54.1205 41.5453 54.0685C40.9706 53.3529 40.3915 52.6405 39.816 51.9245C39.664 52.0356 39.5342 52.1765 39.3969 52.3062C39.3822 52.9373 39.3969 53.5676 39.3898 54.1987H38.3733C38.3658 51.2418 38.3733 48.2845 38.3698 45.3271ZM65.8595 45.3271H66.876V54.1951C66.5346 54.1987 66.1938 54.2098 65.856 54.1911C65.8635 51.2342 65.8595 48.2809 65.8595 45.3271ZM69.2133 45.3271H70.2298C70.2378 48.2845 70.2333 51.2418 70.2298 54.1987C69.892 54.1987 69.5511 54.2027 69.2133 54.1987C69.2102 51.2418 69.2133 48.2845 69.2133 45.3271ZM59.2515 46.5667C59.3626 46.3147 59.6333 46.1587 59.9035 46.1511C60.1969 46.1249 60.4826 46.24 60.728 46.396C61.032 46.5889 61.2955 46.8409 61.5395 47.1009C61.596 47.1716 61.7106 47.2049 61.7773 47.1307C62.0924 46.8005 62.4311 46.4702 62.8493 46.2698C63.136 46.1325 63.4884 46.092 63.7773 46.2365C63.9849 46.3369 64.1262 46.5445 64.1591 46.7711C64.1964 47.0418 64.1373 47.3458 63.944 47.5538C63.7853 47.7285 63.5506 47.8133 63.3209 47.8431C62.9018 47.8951 62.4786 47.7947 62.0924 47.628C62.3791 47.9098 62.6644 48.1991 63.0022 48.4182C63.2164 48.5596 63.5133 48.6596 63.7546 48.5111C63.58 48.4516 63.5542 48.1845 63.7218 48.1031C63.892 48.0067 64.1004 48.2218 64.0075 48.3925C63.8626 48.6147 63.5769 48.7449 63.3138 48.7005C63.0351 48.656 62.7982 48.4965 62.5853 48.3218C62.2484 48.0436 61.9706 47.7058 61.6853 47.3791C61.5622 47.4609 61.4884 47.5942 61.384 47.6982C61.08 48.036 60.7609 48.3845 60.3484 48.596C60.1115 48.7222 59.804 48.7596 59.5662 48.604C59.4506 48.5298 59.2986 48.4258 59.3204 48.2622C59.336 48.1062 59.5435 48.0213 59.6618 48.1289C59.7849 48.2213 59.7555 48.4369 59.6142 48.4965C59.6106 48.552 59.6742 48.5485 59.7106 48.5631C59.9449 48.6338 60.1853 48.5222 60.3791 48.3965C60.6569 48.2142 60.8946 47.9769 61.136 47.7471C61.1724 47.7102 61.2178 47.6805 61.236 47.6285C60.8462 47.8138 60.4009 47.8996 59.9746 47.836C59.6849 47.7916 59.3991 47.6356 59.2733 47.3649C59.1622 47.1156 59.1431 46.8187 59.2515 46.5667Z" fill="#1A181D" stroke="#1A181D" stroke-width="0.094"/>
<path d="M59.908 46.4147C60.1458 46.3404 60.3978 46.4071 60.6165 46.5075C60.9871 46.6853 61.2925 46.9711 61.5627 47.2715C61.5627 47.2827 61.5627 47.3013 61.5591 47.3084C61.132 47.5573 60.5938 47.672 60.1236 47.4831C59.8867 47.3902 59.6338 47.2307 59.5742 46.9635C59.5102 46.7262 59.6778 46.4778 59.908 46.4147ZM62.6018 46.5778C62.8351 46.4404 63.1182 46.344 63.3916 46.3995C63.5885 46.4404 63.7667 46.6075 63.7858 46.8151C63.8076 47.0267 63.6747 47.2231 63.5071 47.3382C62.9951 47.6982 62.2867 47.6235 61.7778 47.2973C62.0045 47.0115 62.2867 46.7631 62.6018 46.5778Z" fill="white" stroke="white" stroke-width="0.094"/>
<path d="M25.3982 48.9711C25.732 48.9751 26.0698 48.9751 26.404 48.9711C26.4187 50.4369 26.404 51.9062 26.4116 53.3715C26.4227 53.6351 26.5302 53.9133 26.7676 54.0471C27.0569 54.2138 27.4173 54.1502 27.7027 54.0138C28.2036 53.7538 28.556 53.2564 28.6933 52.7147C28.764 52.4591 28.7382 52.1915 28.7413 51.932C28.7453 50.9449 28.7413 49.9582 28.7453 48.9711C29.0831 48.9751 29.424 48.9711 29.7622 48.9751C29.7658 50.7151 29.7582 52.4515 29.7658 54.1915C29.424 54.2102 29.0831 54.1955 28.7413 54.1991C28.7302 53.828 28.7676 53.4533 28.7227 53.0822C28.5596 53.5235 28.2365 53.9093 27.8285 54.1435C27.6689 54.24 27.4871 54.2773 27.3165 54.3435H26.6671C26.3813 54.2693 26.0773 54.2062 25.8431 54.0098C25.5391 53.7764 25.3867 53.3867 25.3942 53.008C25.3982 51.6604 25.3871 50.3178 25.3982 48.9711ZM32.0436 48.9711C32.3773 48.9751 32.7151 48.9751 33.0493 48.9711C33.064 49.3755 33.0529 49.7835 33.0529 50.188C33.064 50.1844 33.0822 50.1729 33.0938 50.1693C33.3573 49.7058 33.7431 49.2867 34.2476 49.0898C34.6076 48.9449 35.008 48.9524 35.3867 49.0116C35.7133 49.0676 36.0436 49.2009 36.2547 49.4644C36.4587 49.7058 36.5293 50.0284 36.5293 50.3364V54.1987H35.5165C35.5089 52.8111 35.5165 51.4271 35.5129 50.0395C35.5089 49.7795 35.4609 49.4902 35.2493 49.312C35.0493 49.1453 34.7636 49.1489 34.5187 49.1969C34.092 49.2818 33.7356 49.5715 33.476 49.9093C33.324 50.1098 33.1942 50.3324 33.0756 50.5551C33.0422 50.6111 33.0605 50.6813 33.0569 50.7404C33.0569 51.8947 33.0569 53.0453 33.0533 54.1987C32.7156 54.2022 32.3778 54.1987 32.0405 54.1987C32.0436 52.4547 32.036 50.7147 32.0436 48.9711ZM44.9667 49.3529C45.3707 49.0449 45.8982 48.904 46.3987 49.0004C46.9738 49.1009 47.4525 49.4902 47.7787 49.9578C47.9938 50.2733 48.172 50.6258 48.2276 51.0075C48.2498 51.0893 48.2169 51.2115 48.1089 51.1893H44.9778C44.9738 51.6453 44.9738 52.1022 44.9738 52.5622C44.9849 52.948 45.0262 53.3524 45.2413 53.6862C45.3933 53.9315 45.664 54.0871 45.9462 54.128C46.4396 54.1982 46.9587 54.0795 47.3636 53.7862C47.7862 53.4818 48.0573 52.9924 48.1427 52.4804C48.2058 52.4804 48.2725 52.4769 48.3391 52.4804C48.2276 53.1818 47.7969 53.8493 47.1369 54.1498C46.9476 54.2427 46.7365 54.28 46.5356 54.3431H45.8569C45.6676 54.2764 45.4636 54.2507 45.2818 54.1689C44.6622 53.9164 44.1951 53.3711 43.9836 52.7435C43.8165 52.2355 43.7609 51.6827 43.8649 51.156C44.0129 50.4551 44.3916 49.7871 44.9667 49.3529ZM49.708 48.9747C50.0498 48.9707 50.3871 48.9707 50.7249 48.9747C50.7249 49.364 50.7284 49.7533 50.7249 50.1431L50.7693 50.1244C50.9996 49.6867 51.3449 49.2862 51.812 49.0969C52.1645 48.952 52.5542 48.952 52.9258 49.0004C53.2373 49.0413 53.5525 49.156 53.7756 49.3862C54.0013 49.62 54.1089 49.9427 54.1391 50.2578C54.1836 50.2471 54.1791 50.1947 54.1982 50.1613C54.424 49.5827 54.9396 49.1 55.5636 48.996C55.9196 48.9444 56.2911 48.9702 56.6356 49.0813C56.9542 49.1853 57.2373 49.404 57.3889 49.7044C57.5071 49.9347 57.552 50.1942 57.552 50.4462C57.5556 51.6964 57.5476 52.9431 57.5556 54.1902C57.2142 54.2089 56.8733 54.1978 56.5311 54.1938V50.1533C56.524 49.8827 56.48 49.5893 56.2907 49.3813C56.1085 49.1849 55.8182 49.1476 55.5667 49.1773C55.1769 49.2293 54.8547 49.4964 54.624 49.8009C54.4018 50.0938 54.2351 50.428 54.1422 50.784C54.1387 51.9195 54.1342 53.0551 54.1422 54.1902C53.8045 54.2124 53.4591 54.1942 53.1178 54.1978V50.0387C53.1249 49.8049 53.0885 49.5489 52.9249 49.3707C52.7538 49.1964 52.4942 49.1591 52.2645 49.1702C51.904 49.1889 51.5707 49.3707 51.3253 49.6267C51.0702 49.8902 50.8845 50.2169 50.7427 50.5542C50.7133 50.6138 50.728 50.6804 50.7245 50.744C50.728 51.8902 50.7209 53.0404 50.728 54.1867C50.3907 54.2093 50.0493 54.1978 49.708 54.1942C49.712 52.4547 49.708 50.7147 49.708 48.9747ZM60.3307 49.3493C60.9471 48.9596 61.7333 48.8747 62.4271 49.0822C63.0356 49.2604 63.5511 49.6907 63.8627 50.2396C64.3125 51.0187 64.3565 52.0093 63.9893 52.8298C63.7107 53.4604 63.176 53.9835 62.5231 54.2062C62.3645 54.2658 62.1969 54.2844 62.0413 54.3435H61.3253C61.0138 54.2622 60.6942 54.1875 60.4164 54.0209C59.852 53.6947 59.4365 53.1378 59.2471 52.5182C59.0542 51.9058 59.076 51.2307 59.3027 50.6333C59.5 50.1138 59.8596 49.6498 60.3307 49.3493ZM73.5173 49.0782C74.0218 48.8889 74.604 48.956 75.0609 49.2342C75.5062 49.5013 75.8405 49.9204 76.0671 50.3809C76.1702 50.6 76.2667 50.8333 76.2711 51.0782C76.2822 51.1489 76.2227 51.2004 76.1556 51.1898C75.1093 51.1938 74.0591 51.1858 73.0133 51.1938C73.0205 51.6653 73.0089 52.14 73.0205 52.6147C73.036 52.9933 73.0796 53.3898 73.2991 53.7129C73.4578 53.9507 73.7298 54.0915 74.0076 54.1289C74.4529 54.188 74.92 54.0955 75.3027 53.8582C75.7845 53.5613 76.0925 53.0307 76.1853 52.4782C76.252 52.4782 76.3156 52.4818 76.3822 52.4818C76.2747 53.1458 75.8849 53.784 75.28 54.0995C75.0649 54.2258 74.82 54.2742 74.5862 54.3449H73.904C73.7667 54.2929 73.6218 54.2742 73.4849 54.2258C73.0987 54.1035 72.7498 53.8698 72.4867 53.5578C72.0707 53.072 71.8747 52.4227 71.8556 51.7844C71.8293 51.1573 72.0413 50.5378 72.3858 50.0182C72.664 49.6089 73.0467 49.2493 73.5173 49.0782ZM77.9333 48.9711C78.2667 48.9751 78.6009 48.9751 78.9342 48.9711C78.9422 49.3275 78.9342 49.6835 78.9378 50.04C78.9422 50.1662 78.9276 50.292 78.9569 50.4147C79.0791 49.936 79.332 49.4609 79.7591 49.1867C80.0404 49.0044 80.3973 48.9342 80.7271 48.9933C81.024 49.0489 81.2836 49.2978 81.3129 49.6058V49.7724C81.2911 49.9244 81.2245 50.0729 81.0942 50.1618C80.9085 50.288 80.6569 50.288 80.456 50.1987C80.2147 50.08 80.2 49.7684 80.2476 49.5382C80.2747 49.3933 80.3813 49.2898 80.4787 49.1858C80.2444 49.1302 80.0107 49.2302 79.8293 49.3676C79.4805 49.6271 79.2502 50.0204 79.1098 50.4249C78.8947 51.0298 78.9422 51.6751 78.9387 52.3027V54.1987C78.6009 54.2027 78.2631 54.1987 77.9258 54.1987C77.9187 52.8004 77.9258 51.4009 77.9222 50.0022C77.9289 49.6573 77.9071 49.3124 77.9333 48.9711Z" fill="#1A181D" stroke="#1A181D" stroke-width="0.094"/>
<path d="M45.1778 49.6684C45.3151 49.4049 45.5858 49.2155 45.8827 49.1822C46.2165 49.1267 46.6027 49.2231 46.8031 49.5195C47.0773 49.9315 47.0738 50.4511 47.0622 50.9293C47.0587 51.004 46.9698 50.9889 46.9173 50.9889C46.2716 50.9813 45.6191 51.004 44.9729 50.9813C44.9738 50.5404 44.9591 50.0693 45.1778 49.6684ZM61.2551 49.2084C61.6485 49.1418 62.0747 49.1453 62.4382 49.3235C62.7316 49.4684 62.9129 49.7649 62.9836 50.0769C63.1067 50.6 63.0618 51.1418 63.0729 51.672C63.0649 52.1915 63.1022 52.7182 62.988 53.2302C62.9178 53.5351 62.7467 53.828 62.4645 53.9804C62.1231 54.1582 61.7222 54.1698 61.3507 54.1249C61.0209 54.084 60.6876 53.9169 60.52 53.62C60.2933 53.2231 60.2898 52.7484 60.2787 52.3031C60.2867 51.7467 60.2676 51.1898 60.2898 50.6333C60.316 50.2622 60.368 49.8578 60.616 49.5609C60.776 49.368 61.0138 49.2529 61.2551 49.2084ZM73.7396 49.2271C74.0182 49.1418 74.3413 49.1418 74.5973 49.2902C74.8196 49.4235 74.9533 49.6613 75.0236 49.9058C75.1129 50.2395 75.12 50.5884 75.1093 50.9302C75.1049 50.9818 75.0458 50.9933 75.0053 50.9893H73.0165C73.0129 50.5964 73.0053 50.188 73.1538 49.8133C73.2533 49.5462 73.4618 49.3124 73.7396 49.2271Z" fill="white" stroke="white" stroke-width="0.094"/>
</svg>
