<svg width="100" height="100" viewBox="0 0 100 100" fill="none" xmlns="http://www.w3.org/2000/svg">
<rect x="0.5" y="0.5" width="99" height="99" fill="white" stroke="#008B00"/>
<g clip-path="url(#clip0_25_365)">
<path fill-rule="evenodd" clip-rule="evenodd" d="M10 30.0029H90V71.9995H10V30.0029Z" fill="black"/>
<path d="M17.4969 54.5529V55.5584C17.4969 55.5584 17.7215 55.5444 17.8391 55.6076C17.953 55.6685 18.0141 55.734 18.0532 55.8528L21.0154 64.8395H23.404L24.6968 60.3504L26.1522 64.8232H28.4635L31.366 55.7303C31.366 55.7303 31.4687 55.5912 31.5457 55.5829C31.7169 55.5584 31.9909 55.5666 31.9909 55.5666V54.5527H28.6093V55.5666C28.6093 55.5666 29.0545 55.5501 29.14 55.6484C29.1913 55.7055 29.1657 55.9263 29.1657 55.9263L27.539 60.8899L26.0837 55.9507C26.0837 55.9507 26.0152 55.6647 26.1265 55.6074C26.2634 55.542 26.6144 55.5583 26.6144 55.5583V54.5527H22.6764V55.5666C22.6764 55.5666 23.0142 55.5344 23.1388 55.6647C23.1832 55.7111 23.2033 55.7439 23.2244 55.8036L23.6182 56.9157L22.4453 60.9795L20.9044 55.9751C20.9044 55.9751 20.8102 55.7053 20.9214 55.6237C21.0414 55.5418 21.3837 55.5666 21.3837 55.5666V54.5527H17.4969V54.5529ZM41.9821 43.1781V44.0857C41.9821 44.0857 42.2732 44.0941 42.376 44.1267C42.453 44.1513 42.5386 44.331 42.5386 44.331V52.1323C42.5386 52.1323 42.5472 52.3038 42.3675 52.3939C42.2475 52.451 41.9822 52.4349 41.9822 52.4349V53.4569H45.535V52.4186H45.184C44.9443 52.4104 44.9614 52.1486 44.9614 52.1486V51.0693L45.963 50.186L47.3756 52.1894C47.3756 52.1894 47.4441 52.3122 47.2986 52.3774C47.2557 52.3939 47.0589 52.4347 47.0589 52.4347V53.4568H50.8515V52.4347C50.8515 52.4347 50.6199 52.4298 50.4923 52.3693C50.369 52.3114 50.2266 52.1485 50.2266 52.1485L47.9322 48.7958L49.9441 47.2586C49.9441 47.2586 50.1266 47.1754 50.2523 47.1522C50.3638 47.1316 50.5434 47.144 50.5434 47.144V46.1628H46.9048V47.1602H47.1617L44.9614 48.9758V43.1781H41.9821ZM19.9967 49.1886L17.454 50.8074C17.454 50.8074 18.5672 53.6859 21.8631 53.7268C24.0719 53.7595 25.8869 52.3613 25.8869 50.693V44.6011C25.8869 44.6011 25.7927 44.2411 26.5717 44.2411C26.5803 43.8896 26.5717 43.2191 26.5717 43.2191H22.5652C22.5652 43.2191 22.5737 43.9142 22.5737 44.2496C23.3186 44.2086 23.233 44.5521 23.233 44.5521V50.6932C23.233 51.4319 22.5252 51.9525 21.7519 51.9525C21.0059 51.9525 20.1887 51.4719 20.2965 50.7668C20.3503 50.4158 20.8189 50.0063 20.8189 50.0063L19.9967 49.1886Z" fill="#FBBA00"/>
<path d="M41.4684 51.2493H40.5951C40.5951 51.2493 40.304 52.0996 39.3194 52.0916C37.9839 52.0832 37.1019 50.5379 37.1278 49.5646C37.1535 48.5589 37.7954 47.6757 38.8401 47.594C39.234 47.5695 39.7134 47.7399 39.7134 48.1255C39.7134 48.317 39.5079 48.5755 39.5079 48.5755L40.4411 49.1888L42.0248 47.4225C42.0248 47.4225 40.8776 46.0078 38.7202 45.9915C36.5885 45.9831 34.6878 47.4388 34.7478 49.5568C34.8334 52.4514 37.3848 53.7189 39.7134 53.6371C40.3897 53.6126 41.4685 53.4981 41.4685 53.4406V51.2493H41.4684ZM63.8816 49.6137C63.8388 50.7177 65.0802 50.6195 65.2258 50.6195C67.4087 50.6195 67.3489 52.3532 67.9482 52.5165C69.806 53.0235 69.2067 54.9044 70.7736 54.8716C71.8949 54.8473 73.1705 53.9556 73.4531 53.2442C73.8983 52.1324 73.7184 52.124 74.0009 51.2327C74.4118 49.9652 74.8741 49.818 74.8401 48.5915C74.7717 46.4491 73.2218 46.8007 72.3741 46.4083C71.7149 46.0975 71.3983 46.5799 70.8762 46.5716C70.5851 46.5634 70.2512 46.3835 69.9599 46.3673C69.5919 46.351 69.3949 46.49 69.1038 46.4083C68.7015 46.2935 68.2138 45.9503 67.7083 45.9993C65.6282 46.1956 63.9845 46.9561 63.8816 49.6137V49.6137ZM65.7823 43.4236C65.7909 44.5846 66.4156 44.8219 67.2207 45.1408C67.6659 45.3208 69.0442 44.233 69.3179 43.9306C69.6175 43.6036 70.4567 42.6058 70.4736 41.5592C70.491 40.6597 69.6777 40.488 68.8042 40.4552C66.8782 40.3734 65.7652 41.8289 65.7823 43.4236V43.4236ZM71.0047 39.1714C70.8764 39.0079 69.789 39.5147 69.9173 39.8419C69.9775 40.0055 70.077 40.1654 70.2771 40.2098C70.5476 40.2698 70.721 40.0619 70.8764 39.8419C71.0318 39.6215 71.1586 39.3677 71.0047 39.1714ZM76.0559 38.2311C75.2168 38.2721 73.4702 38.6564 72.5454 39.7194C72.0406 40.308 71.4241 40.4962 71.3901 41.4203C71.3303 42.933 72.7942 43.7999 73.4274 43.7264C74.3435 43.6117 75.1057 43.0965 75.6707 42.6631C76.2441 42.2134 76.7665 41.7228 77.0233 41.0523C77.1603 40.6925 77.4941 40.4554 77.5539 39.9891C77.631 39.3431 76.8521 38.1902 76.0559 38.2311V38.2311ZM78.179 37.1272C77.811 37.0617 77.3658 37.4707 77.2544 37.9202C77.1945 38.182 77.5795 38.5337 77.8537 38.4927C78.2731 38.4273 78.3329 37.9858 78.4101 37.7159C78.4785 37.487 78.4356 37.3889 78.5213 37.2254C78.5639 37.1433 78.3075 37.1433 78.179 37.1272V37.1272ZM82.2455 40.4552C81.6804 40.4552 80.8927 40.7251 80.8327 41.2566C80.8156 41.4201 81.0639 41.5673 81.1496 41.6655C81.3208 41.878 81.4578 41.9353 81.5777 41.9108C81.9373 41.8209 82.2199 41.4937 82.3909 41.2158C82.4936 41.044 82.5195 40.9705 82.5451 40.7661C82.5622 40.6024 82.5021 40.4552 82.2455 40.4552ZM81.2779 46.2611C80.747 46.3263 80.0196 46.5063 79.9767 47.1194C79.9596 47.4223 80.4647 47.692 80.6359 47.6348C81.2181 47.4305 81.2886 47.0738 81.432 46.5882C81.4642 46.4785 81.5734 46.3851 81.4921 46.302C81.4337 46.2427 81.3464 46.2527 81.2779 46.2611V46.2611ZM79.8911 41.6409C79.2318 41.6 75.2854 43.2354 75.3963 45.2637C75.465 46.6207 77.0486 46.7436 77.237 46.7108C78.3584 46.4817 79.4117 45.8768 79.9767 45.28C80.6188 44.6094 81.0979 44.4294 81.2779 43.2765C81.3122 43.0476 81.235 42.606 81.1494 42.4178C80.9781 42.0743 80.5332 41.6817 79.8911 41.6409V41.6409ZM79.3091 47.3077C78.2219 47.4305 77.0402 47.7821 76.2271 48.796C75.6192 49.5566 75.4909 50.2107 75.3965 51.1674C75.3451 51.658 75.5594 51.9524 75.7819 52.1732C76.056 52.4349 76.3726 52.5821 76.7408 52.5573C77.7254 52.4757 78.8128 51.9114 79.5916 50.9466C80.1395 50.2678 80.4477 49.7363 80.5076 48.8778C80.559 48.101 80.0969 47.226 79.3091 47.3077ZM39.157 54.631V55.5631C39.157 55.5631 39.6007 55.5268 39.7561 55.7018C39.8335 55.7893 39.8759 55.8575 39.8759 55.9719V63.6175C39.8759 63.7178 39.8182 63.7732 39.739 63.8385C39.6037 63.9503 39.2854 63.9038 39.2854 63.9038V64.9013H42.9068V63.9038C42.9068 63.9038 42.5557 63.9366 42.4016 63.8385C42.3502 63.8057 42.2817 63.6988 42.2817 63.5932V54.631H39.157ZM44.0196 57.6238H43.1635V59.0956H44.0196V63.5033C44.0196 63.6027 44.011 63.7076 43.994 63.757C43.9169 63.9449 43.4032 63.9039 43.4032 63.9039V64.9015H47.1017V63.9039C47.1017 63.9039 46.6395 63.9449 46.5023 63.7814C46.4425 63.7076 46.4252 63.5898 46.4252 63.4623V59.0303H47.6581V57.6157H46.4252V56.5525C46.4252 56.2856 46.5279 56.0375 46.8875 56.0292C47.3583 56.0127 47.6581 56.7487 47.6581 56.7487H48.6427V54.7209C48.6427 54.7209 47.975 54.3364 46.6566 54.3528C45.2783 54.3691 44.0196 55.2545 44.0196 56.5605V57.6238ZM55.0167 58.147C55.0167 58.147 53.4156 57.2557 51.7205 57.2557C49.9742 57.2557 48.3817 58.1224 48.3733 59.5534C48.3733 60.7228 49.4091 61.3034 50.7274 61.6712C51.7722 61.9574 52.611 62.1211 52.611 62.7094C52.611 63.1267 51.9603 63.4457 51.3441 63.4375C50.7963 63.4375 49.9524 63.3017 50.034 62.7507C50.0615 62.567 50.2568 62.3254 50.2568 62.3254L49.2466 61.8267L47.8084 63.7647C47.8084 63.7647 49.3922 65.0565 51.3269 64.9584C52.9282 64.8767 54.9656 64.5167 55.0254 62.4645C55.0683 60.9679 54.0325 60.5674 52.7742 60.134C51.9007 59.8314 50.8048 59.7169 50.8048 59.2262C50.8048 58.899 51.3131 58.8209 51.7037 58.8011C52.1647 58.7776 52.7398 58.9891 52.7825 59.2671C52.7996 59.4225 52.6455 59.7006 52.6455 59.7006L53.7156 60.1177L55.0167 58.147ZM55.286 54.5822V55.4898C55.286 55.4898 55.5774 55.498 55.68 55.5308C55.7572 55.5553 55.8429 55.7351 55.8429 55.7351V63.5361C55.8429 63.5361 55.8429 63.798 55.663 63.8879C55.5433 63.945 55.2951 63.945 55.2951 63.945L55.2862 64.8608H58.848L58.8556 64.0164C58.8556 64.0164 58.6146 63.9732 58.5032 63.9732C58.2633 63.9647 58.2657 63.5526 58.2657 63.5526V62.4733L59.2673 61.5899L60.6799 63.5934C60.6799 63.5934 60.7571 63.855 60.6112 63.9206C60.5687 63.9369 60.3717 63.9777 60.3717 63.9777L60.3632 64.8607H64.156V63.9041C64.156 63.9041 63.9215 63.9044 63.7962 63.8388C63.6594 63.767 63.5309 63.5526 63.5309 63.5526L61.2365 60.1999L63.2484 58.6625C63.2484 58.6625 63.4309 58.5777 63.5569 58.5564C63.6684 58.5371 63.8476 58.5481 63.8476 58.5481V57.6403H60.2092V58.5644H60.466L58.2657 60.3797V54.5822H55.286ZM64.8918 55.7924C64.8918 55.4085 65.0514 55.0403 65.3356 54.7689C65.6198 54.4974 66.0052 54.3449 66.4071 54.3449C67.2442 54.3449 67.9224 54.9929 67.9224 55.7924C67.9224 56.5919 67.2442 57.2397 66.4071 57.2397C66.2081 57.2397 66.011 57.2023 65.8272 57.1296C65.6434 57.0568 65.4763 56.9502 65.3356 56.8158C65.1949 56.6814 65.0833 56.5219 65.0071 56.3463C64.931 56.1707 64.8918 55.9825 64.8918 55.7924V55.7924ZM64.6265 57.6485V58.6545C64.6265 58.6545 64.9347 58.6464 65.0973 58.7116C65.2343 58.7686 65.2259 58.9078 65.2259 58.9731V63.5772C65.2259 63.6916 65.2001 63.7162 65.1916 63.7815C65.1487 63.9694 64.6266 63.9287 64.6266 63.9287V64.8607H68.248V63.9449C68.248 63.9449 67.8609 63.9999 67.7344 63.8468C67.653 63.7484 67.6487 63.6615 67.6487 63.5363V57.6483H64.6265V57.6485ZM74.0865 63.8142C73.9468 63.9607 73.573 63.945 73.573 63.945V64.861H77.2544V63.945C77.2544 63.945 76.8406 63.9814 76.7066 63.8142C76.6136 63.6988 76.6379 63.4463 76.6379 63.4463V59.6686C76.6379 58.5809 75.4393 57.3869 73.9499 57.3544C72.7598 57.3301 71.6983 57.9512 71.6983 57.9512V57.6483H68.6762V58.6545C68.6762 58.6545 68.9844 58.6462 69.1471 58.7116C69.2841 58.7687 69.2757 58.9079 69.2757 58.9732V63.5771C69.2757 63.6914 69.2499 63.7161 69.2414 63.7814C69.1985 63.9692 68.6764 63.9286 68.6764 63.9286V64.8607H72.2977V63.9447C72.2977 63.9447 71.9038 63.9938 71.7842 63.8466C71.7155 63.7566 71.6984 63.6585 71.6984 63.5361V60.1753C71.6984 59.7826 72.2294 59.0713 73.1794 59.0713C74.2155 59.0631 74.2239 60.3061 74.2239 60.3061V63.5196C74.2235 63.5198 74.1751 63.7214 74.0865 63.8142V63.8142ZM30.4671 46.0158C32.0423 45.9667 34.0885 46.6046 34.0885 48.1663V52.2303C34.0885 52.3388 34.1313 52.4347 34.2255 52.4757C34.354 52.5328 34.4738 52.5165 34.6449 52.5165V53.4403H31.6914V53.0397C31.6914 53.0397 30.8952 53.6203 29.6366 53.7022C28.4124 53.784 26.5717 53.089 26.6402 51.1673C26.7345 48.3461 31.6057 48.428 31.6057 48.428C31.6057 48.428 31.7854 47.7082 29.979 47.7165C28.6092 47.7165 28.1811 48.4933 28.1811 48.4933H27.3249V46.4652C27.3251 46.4654 29.2514 46.0567 30.4671 46.0158V46.0158ZM31.6743 49.8428C31.6743 49.8428 29.2087 50.0796 29.1744 51.2084C29.1658 51.6909 29.5425 52.0424 30.0477 52.0586C31.2204 52.0996 31.6743 51.1674 31.6743 50.922V49.8428ZM39.1139 61.0373C39.1139 63.1796 37.6157 64.8232 35.0474 64.9869C32.5389 65.1423 30.5185 63.3513 30.6042 61.1843C30.6984 58.715 32.5562 57.3328 34.8419 57.2755C37.1791 57.2104 39.1139 58.8865 39.1139 61.0373ZM34.8763 58.9684C33.6519 58.9684 33.3199 60.0405 33.2752 61.0455C33.2273 62.1225 33.6263 63.3351 34.9104 63.327C36.2631 63.3185 36.5143 62.2385 36.5371 61.2171C36.561 60.1442 36.1175 58.9684 34.8763 58.9684V58.9684Z" fill="#FBBA00"/>
</g>
<defs>
<clipPath id="clip0_25_365">
<rect width="80" height="42" fill="white" transform="translate(10 30)"/>
</clipPath>
</defs>
</svg>
