<svg width="100" height="100" viewBox="0 0 100 100" fill="none" xmlns="http://www.w3.org/2000/svg">
<rect x="0.5" y="0.5" width="99" height="99" fill="white" stroke="#008B00"/>
<path fill-rule="evenodd" clip-rule="evenodd" d="M10 10H90V90H10V10Z" fill="white"/>
<path fill-rule="evenodd" clip-rule="evenodd" d="M84.6453 51.2899C83.726 50.8296 81.7707 49.5638 80.5061 48.8736C79.2415 48.1834 78.0923 46.9175 78.0923 46.9175L75.6777 43.926L73.263 40.4742C73.263 40.4742 72.1134 39.5536 72.2287 38.5181C72.3437 37.4826 72.4591 36.4471 71.9984 35.6419C71.539 34.8364 70.2744 35.1817 70.2744 35.1817C70.2744 35.1817 69.3542 35.6419 67.6302 36.2172C65.9053 36.7924 65.9053 35.6419 65.9053 35.6419L63.8359 31.8452L62.1111 29.084C62.1111 29.084 61.8816 27.7032 61.7666 26.8976C61.6516 26.0925 62.3414 25.0565 62.3414 25.0565L60.6174 24.136C60.6174 24.136 59.9276 23.1005 59.5823 22.065C59.237 21.0295 59.0075 20.9145 57.8574 20.6842C56.7078 20.4538 54.4081 21.0295 54.4081 21.0295C52.914 21.0295 50.3843 22.2949 50.3843 24.9412C50.3843 27.5874 51.9942 29.0832 51.9942 29.0832L51.1895 30.3486L50.7301 33.2248L49.0052 35.4112L47.3957 32.1897C46.5909 30.5785 45.9012 30.3486 45.7862 29.658C45.6712 28.9678 45.0964 28.1622 45.0964 28.1622V24.1352C45.0964 20.4534 41.5325 19.6478 40.0376 19.6478C40.0376 19.6478 38.4281 19.8782 37.2784 20.1081C36.1288 20.3384 34.174 22.6394 34.174 22.6394L34.7492 23.5599L34.8642 25.516L33.3697 27.0117L34.4043 27.5874L34.6343 28.9678L34.0595 30.2336C34.0595 30.2336 33.3697 32.0747 33.1397 32.5346C32.9098 32.9949 32.7944 33.6851 30.955 33.9154C29.1156 34.1457 29.8054 33.4551 28.1959 33.5701C26.5864 33.6851 25.4367 35.0659 25.4367 35.871C25.4367 36.6766 25.6667 37.4818 25.6667 37.4818C25.6667 37.4818 25.8966 37.9416 25.7816 38.8622C25.6667 39.7827 20.8349 46.1124 20.8349 46.1124C20.8349 46.1124 20.375 46.803 18.7655 48.0684C17.156 49.3339 15.776 49.7941 13.0169 51.1749C10.2578 52.5553 11.2924 52.9006 11.7523 54.0511C12.2121 55.202 14.052 55.5469 15.4316 55.5469C16.8115 55.5469 18.0761 54.9721 18.0761 54.9721C18.0761 54.9721 21.5255 55.087 23.02 55.087C24.5145 55.087 24.8594 54.7417 24.8594 53.2459V50.7142C24.8594 50.7142 27.0442 48.7582 28.4237 47.2624C29.8033 45.7666 31.1829 45.0764 31.1829 45.0764C31.1829 45.0764 35.5519 52.21 36.0118 52.7853C36.4716 53.3609 37.2764 54.9717 38.3115 54.9717H43.8301C45.5546 54.9717 46.5893 53.4755 47.7389 51.5194C48.889 49.5638 50.1532 48.0684 50.1532 48.0684C50.1532 48.0684 50.7284 50.8296 51.3032 52.9011C51.878 54.9725 53.8324 55.0874 53.8324 55.0874H58.3169C62.2256 55.0874 65.4454 49.7945 66.3647 48.0688C67.2849 46.3427 68.32 44.2721 68.32 44.9623C68.32 45.6525 71.539 48.1838 72.3437 48.6441C73.1485 49.1043 75.3332 51.1758 75.3332 51.1758C75.3332 51.1758 75.4473 51.4061 75.4473 52.7865C75.4473 54.1669 76.5974 54.6276 77.747 54.6276H84.4157C86.2552 54.6276 87.0599 54.0519 87.0599 53.0169C87.0599 51.9797 85.565 51.7498 84.6453 51.2899C84.6453 51.2899 85.565 51.7498 84.6453 51.2899V51.2899ZM40.7253 45.6521L36.2417 39.2087L39.921 37.0227C39.921 37.0227 39.921 38.4036 40.3808 39.8989C40.8402 41.3951 40.7253 45.6521 40.7253 45.6521V45.6521ZM58.8913 30.4648L61.4205 34.4919L58.0865 32.8811L58.8913 30.4648ZM57.8562 45.5371L57.6267 42.5456C57.6267 42.5456 59.9263 41.8554 59.8114 41.0498C59.6964 40.2442 59.1216 38.4036 59.1216 38.4036C59.1216 38.4036 63.3757 39.784 63.7202 39.8993C64.0655 40.0143 57.8562 45.5371 57.8562 45.5371V45.5371Z" fill="black"/>
<path fill-rule="evenodd" clip-rule="evenodd" d="M43.9393 71.6867V66.6333C43.9393 61.6741 40.6004 60.2546 37.7856 60.2546C36.2404 60.2546 35.178 60.2928 32.7633 61.674C31.4232 62.4402 30.3212 64.7731 30.3486 66.7337H35.5502C35.5228 65.9053 35.9366 64.3174 37.2058 64.2622C38.2944 64.219 39.2212 64.8055 39.2303 65.4708C39.244 66.4668 39.1336 66.5756 37.3714 66.6785C32.9355 66.9371 30.1453 68.4868 30.0901 71.856C30.0349 74.7007 31.7008 77.293 34.9846 77.293C37.5785 77.293 38.9406 76.5608 39.5756 75.5673L39.662 76.8779H44.5876C44.3946 75.2215 43.7148 75.3942 43.9393 71.6867C43.9393 71.6867 43.7148 75.3942 43.9393 71.6867V71.6867ZM36.775 73.1572C35.7814 73.1572 34.9812 72.5056 34.9812 71.5107C34.9812 70.5445 35.7457 70.2374 36.9028 70.0444C37.9375 69.8718 38.1272 69.9577 39.2307 69.9577C39.2307 71.8083 39.0378 73.1572 36.775 73.1572V73.1572ZM88.1751 71.6867V66.6333C88.1751 61.6741 84.8362 60.2546 82.0218 60.2546C80.4758 60.2546 79.4142 60.2928 76.9991 61.674C75.659 62.4402 74.5575 64.7731 74.5853 66.7337H79.7861C79.7587 65.9053 80.1729 64.3174 81.442 64.2622C82.5298 64.219 83.457 64.8055 83.4662 65.4708C83.4807 66.4668 83.3699 66.5756 81.6072 66.6785C77.1714 66.9371 74.3815 68.4868 74.3255 71.856C74.2703 74.7007 75.9362 77.293 79.22 77.293C81.8139 77.293 83.1765 76.5608 83.811 75.5673L83.897 76.8779H88.823C88.63 75.2215 87.9506 75.3942 88.1751 71.6867C88.1751 71.6867 87.9506 75.3942 88.1751 71.6867V71.6867ZM81.0112 73.1572C80.0172 73.1572 79.2175 72.5056 79.2175 71.5107C79.2175 70.5445 79.982 70.2374 81.1386 70.0444C82.1737 69.8718 82.3634 69.9577 83.4666 69.9577C83.4666 71.8083 83.2736 73.1572 81.0112 73.1572Z" fill="black" stroke="#CC2229" stroke-width="0.2" stroke-miterlimit="2.613"/>
<path fill-rule="evenodd" clip-rule="evenodd" d="M53.6312 59.9475C51.5892 59.9475 49.529 61.5873 49.529 61.5873V60.2069H44.2859V80.3505H49.9013V75.808C50.7857 76.6883 51.9134 77.1203 53.4581 77.1203C57.901 77.1203 59.6413 72.3288 59.6413 68.2702C59.6417 64.6245 57.0805 59.9475 53.6312 59.9475V59.9475ZM52.0673 72.7704C50.2678 72.7704 49.529 70.2299 49.529 68.4627C49.529 66.6955 50.3545 64.5004 52.0673 64.5004C53.8897 64.5004 54.6061 66.6955 54.6061 68.4627C54.6061 70.2299 53.7179 72.7704 52.0673 72.7704Z" fill="black" stroke="#CC2229" stroke-width="0.2" stroke-miterlimit="2.613"/>
<path fill-rule="evenodd" clip-rule="evenodd" d="M68.6997 59.9475C66.6578 59.9475 64.598 61.5873 64.598 61.5873V60.2069H59.3549V80.3505H64.9698V75.808C65.8543 76.6883 66.9819 77.1203 68.5275 77.1203C72.9696 77.1203 74.7107 72.3288 74.7107 68.2702C74.7111 64.6245 72.1487 59.9475 68.6997 59.9475ZM67.1359 72.7704C65.3371 72.7704 64.598 70.23 64.598 68.4628C64.598 66.6955 65.4231 64.5004 67.1359 64.5004C68.9583 64.5004 69.6747 66.6955 69.6747 68.4628C69.6747 70.23 68.7865 72.7704 67.1359 72.7704ZM11.8096 58.6539V76.775H17.9321V71.1654L18.7078 70.3889L24.7441 76.775H32.5048L22.8474 66.7644L31.2978 58.6539H23.7094L17.8458 64.3489V58.6539H11.8096Z" fill="black" stroke="#CC2229" stroke-width="0.2" stroke-miterlimit="2.613"/>
</svg>
