<svg width="100" height="100" viewBox="0 0 100 100" fill="none" xmlns="http://www.w3.org/2000/svg">
<rect x="0.5" y="0.5" width="99" height="99" fill="white" stroke="#008B00"/>
<path d="M10.5425 10.5352V89.4672H89.4756V10.5352H10.5425Z" fill="white"/>
<path d="M10.5425 10.5352V89.4672H89.4756V10.5352H10.5425ZM84.2239 43.3448C84.0942 45.8036 83.3113 48.8686 82.6214 50.9164C79.8461 59.1625 76.6281 64.2747 69.1756 64.2747C66.9816 64.2747 63.0891 63.6927 61.6549 59.7889L61.315 58.8627L60.7042 59.6366C58.3736 62.5886 54.9102 64.2922 51.2039 64.3097C48.3602 64.3227 46.0753 63.3705 44.597 61.5534L44.1917 61.055L43.76 61.5316C42.1813 63.2744 39.4319 64.2741 36.2166 64.2741C33.6919 64.2741 31.5119 63.4156 30.0775 61.86L29.6869 61.4355L29.2806 61.8458C27.6861 63.4556 25.1736 64.2667 22.0144 64.1927C18.1817 64.1014 15.8483 61.9627 15.7727 58.4688C15.657 53.0822 20.8703 41.7486 23.0281 38.3027C24.4291 36.0008 26.3556 34.8848 28.9199 34.8848C30.6652 34.8848 31.8589 35.2495 32.568 36.0008C33.2138 36.6844 33.3414 37.2606 33.3989 38.6469L33.4728 40.4391L34.4188 38.915C36.7072 35.2281 40.4997 34.7189 44.2572 34.7189C46.8697 34.7189 49.1494 35.6797 50.065 37.1664L50.403 37.7145L50.8919 37.2984C52.8285 35.6525 55.5605 34.7466 58.5849 34.7466C61.8864 34.7466 64.2852 35.5673 65.7161 37.1861C66.0411 37.5536 66.2563 37.8105 66.5549 38.4386L66.9224 39.2097L67.4739 38.5578C69.5691 36.0797 72.4291 34.8239 75.9784 34.8239C78.7894 34.8239 80.9236 35.5713 82.32 37.045C84.072 38.8914 84.3222 41.49 84.2239 43.345V43.3448Z" fill="#F6EC36"/>
<path d="M10.5425 10.5352V89.4672H89.4756V10.5352H10.5425ZM86.4467 46.3731C86.0895 49.2456 84.1483 54.5678 83.117 56.6947C80.3495 62.3967 76.6524 66.7775 69.5285 66.7775C65.7228 66.7775 62.5925 65.5639 60.7619 63.2309C58.0813 65.5802 54.7635 66.8106 51.191 66.8106C48.4388 66.8106 46.0066 66.0159 44.1517 64.5461C42.1049 65.9883 39.3425 66.7927 36.2814 66.7927C33.7245 66.7927 31.4239 66.0905 29.6233 64.7928C27.6313 66.1147 25.0206 66.7717 21.9563 66.6991C16.8575 66.5788 13.337 63.3444 13.2359 58.6488C13.1028 52.4111 18.3556 40.9945 20.8313 37.0409C22.6839 33.9975 25.5117 32.3602 28.9769 32.3602C32.7378 32.3602 34.1011 33.4342 34.7722 34.8019C37.6741 32.3375 41.5208 32.1958 44.2595 32.1958C47.2827 32.1958 49.1799 32.9984 50.7931 34.2827C53.0216 32.9459 55.578 32.2511 58.6227 32.2511C62.5156 32.2511 65.4078 33.1566 67.4253 35.1508C69.7778 33.1927 72.7244 32.3003 76.0219 32.3003C80.3824 32.3003 83.2514 33.8728 84.9363 36.2175C87.3088 39.5247 86.8842 42.8538 86.4467 46.3731Z" fill="#D01012"/>
<path d="M10 10V90H90V10H10ZM88.9 11.1019V88.9011H11.1011V11.1019H88.8997H88.9Z" fill="black"/>
<path d="M86.0613 34.0061V33.4614H86.431C86.7013 33.4614 86.8419 33.5563 86.8419 33.7317C86.8419 33.8711 86.7516 34.0061 86.4768 34.0061H86.0613ZM87.3883 35.1361L87.158 34.7364C86.9582 34.3871 86.9028 34.3317 86.7319 34.2719V34.2611C87.0683 34.2217 87.268 34.0055 87.268 33.7064C87.268 33.3902 87.0683 33.151 86.6421 33.151H85.6521V35.1372H86.0624V34.3238H86.1374C86.313 34.3238 86.383 34.3436 86.4625 34.4231C86.5427 34.5044 86.6625 34.6731 86.7328 34.8127L86.8933 35.1372L87.3883 35.1361ZM86.4113 32.5978C87.2636 32.5978 87.9561 33.2853 87.9561 34.1364C87.9561 34.9877 87.2624 35.678 86.4113 35.678C85.5613 35.678 84.876 34.9866 84.876 34.1364C84.876 33.2864 85.5611 32.5978 86.4113 32.5978ZM86.4113 32.2197C85.3518 32.2197 84.4966 33.0753 84.4966 34.1364C84.4966 35.1971 85.3518 36.0521 86.4113 36.0521C86.6631 36.0527 86.9126 36.0036 87.1454 35.9076C87.3782 35.8115 87.5897 35.6705 87.7679 35.4925C87.946 35.3145 88.0873 35.1031 88.1835 34.8704C88.2797 34.6377 88.329 34.3883 88.3286 34.1364C88.3293 33.8845 88.2802 33.6349 88.1841 33.402C88.0879 33.1691 87.9467 32.9574 87.7685 32.7793C87.5904 32.6012 87.3787 32.46 87.1458 32.3639C86.9129 32.2679 86.6632 32.2188 86.4113 32.2196V32.2197ZM75.9785 34.2725C71.8438 34.2725 68.9871 35.9116 67.0533 38.2016C66.7264 37.5164 66.4781 37.2161 66.1288 36.8203C64.5455 35.0311 62.0008 34.1963 58.5853 34.1963C55.2483 34.1963 52.4661 35.2383 50.5345 36.8797C49.5314 35.2485 47.1405 34.1686 44.2572 34.1686C40.49 34.1686 36.3853 34.7014 33.9497 38.6255C33.8911 37.2127 33.7634 36.4649 32.9694 35.6244C32.0041 34.6027 30.4422 34.3363 28.9205 34.3363C26.1478 34.3363 24.0634 35.5475 22.5614 38.0136C20.3831 41.4924 15.1037 52.9383 15.2228 58.4824C15.3001 62.0631 17.7025 64.6438 22.002 64.7455C25.3616 64.8261 27.9964 63.9275 29.673 62.2353C31.1772 63.87 33.4722 64.8284 36.2183 64.8284C39.2761 64.8284 42.3527 63.91 44.1703 61.9034C45.7011 63.7841 48.1097 64.8786 51.2078 64.8634C55.2578 64.8436 58.815 62.9228 61.1385 59.9797C62.4135 63.45 65.6455 64.8284 69.1767 64.8284C76.9149 64.8284 80.3128 59.5067 83.1458 51.0941C83.7838 49.1994 84.6355 46.035 84.7766 43.377C85.0097 38.9524 83.138 34.2724 75.9785 34.2724V34.2725ZM24.4906 55.425C28.4944 54.7297 29.5008 56.1769 29.375 57.5175C28.9972 61.53 25.3159 62.4277 22.1194 62.3525C19.8011 62.2961 17.7167 61.235 17.6584 58.5436C17.5569 53.835 22.3592 42.9417 24.6198 39.331C25.6642 37.6167 26.9364 36.7689 28.9652 36.7689C30.8877 36.7689 31.3641 37.7561 31.3358 38.9386C31.2602 42.0933 26.1631 51.6805 24.4906 55.425V55.425ZM37.5284 51.7267C37.2636 52.4436 36.7625 53.945 36.3566 55.5369C37.6706 55.2083 38.6563 54.9803 40.3445 55.0209C42.268 55.0683 43.4975 55.8653 43.4975 57.4559C43.4975 61.3122 39.2353 62.4445 36.2788 62.4445C33.0325 62.4445 30.1809 60.5961 30.1809 57.0461C30.1809 52.8845 32.437 46.5739 34.5544 42.3699C37.1542 37.2074 39.8106 36.5211 44.3866 36.5211C46.397 36.5211 48.7142 37.3813 48.7142 39.2802C48.7142 41.9116 46.4845 42.9152 44.2742 43.0422C43.3305 43.0964 41.8775 43.1483 41.0083 43.0867C41.0083 43.0867 40.2728 44.2072 39.4911 46.2042C43.5844 45.628 45.3202 46.557 44.6292 48.9249C43.6939 52.1236 40.9225 52.3342 37.5284 51.7267V51.7267ZM57.6613 41.7744C56.5544 41.7744 55.8303 42.4755 55.2917 43.2324C54.1053 44.8986 51.5347 51.5755 51.1345 54.3183C50.8602 56.1967 51.6714 56.5792 52.558 56.5792C53.9805 56.5792 55.5752 55.0745 56.1192 52.592C56.1192 52.592 53.4116 52.5261 54.1578 50.1249C54.8831 47.7949 56.2592 47.2902 58.5402 47.1966C63.0339 47.0131 62.5902 50.3309 62.2306 52.1005C61.0627 57.8466 56.9733 62.4609 51.1888 62.4609C47.2286 62.4609 44.7703 60.2703 44.7703 56.2322C44.7703 53.3547 46.1978 48.8374 47.3297 46.1941C49.7381 40.5675 52.2641 36.63 58.6994 36.63C62.5603 36.63 65.6055 38.0175 65.1589 41.6344C64.8316 44.2891 63.5028 45.848 61.0892 46.0366C60.4142 46.0891 57.6524 46.0191 58.5685 43.4063C58.8872 42.4924 59.0194 41.7744 57.6613 41.7744V41.7744ZM81.965 46.5231C81.2849 49.911 79.7546 53.918 78.0935 56.9044C75.3835 61.7773 72.0916 62.4599 69.2185 62.4253C66.3438 62.3909 63.1055 61.3297 63.0806 56.8966C63.0631 53.7138 64.436 49.2213 65.6016 46.2764C67.633 40.9378 69.7091 36.5849 76.2719 36.6633C83.9253 36.7542 82.5605 43.5603 81.965 46.5231ZM75.4727 41.8856C74.8157 41.8766 74.2422 42.0053 73.7269 42.8C72.5691 44.2997 69.1847 53.5483 69.2446 55.3928C69.266 56.0555 69.6322 56.6352 70.4485 56.6352C71.3849 56.6364 71.9053 55.9889 72.3653 55.2078C73.4305 53.4055 76.4255 45.2305 76.5078 43.1867C76.5322 42.5911 76.4328 41.8975 75.4727 41.8856Z" fill="black"/>
</svg>
