<svg width="100" height="100" viewBox="0 0 100 100" fill="none" xmlns="http://www.w3.org/2000/svg">
<rect x="0.5" y="0.5" width="99" height="99" fill="white" stroke="#008B00"/>
<path d="M90 49.0542C90 45.0818 86.5724 42 82.3642 42C78.2881 42 74.7079 44.9397 74.7079 48.839C74.7079 52.5179 77.5199 55.4645 81.3075 55.9332V53.7065C78.8299 53.277 76.9569 51.3292 76.9569 48.9858C76.9569 46.3289 79.3644 44.1713 82.3349 44.1713C85.3055 44.1713 87.7137 46.3289 87.7137 48.9858C87.7137 51.3116 85.8706 53.2463 83.4208 53.6957V55.9262C87.0565 55.4614 90 52.6239 90 49.0542V49.0542ZM65.7357 53.8402C63.3991 53.8402 61.4092 52.5094 60.6681 50.6446H58.2759C59.0674 53.8571 62.1759 56 65.8686 56C66.7252 56 67.7124 55.9116 68.531 55.6965C70.3799 55.2155 72.3982 53.9516 72.3982 51.957V48.4157H65.7124L65.7051 50.6446H70.2601V51.6565C70.2601 52.7745 68.6741 53.4214 67.7022 53.6481C67.1801 53.7703 66.5083 53.8402 65.9687 53.8402H65.7357ZM70.2653 46.0768C69.251 44.9697 67.6869 44.2605 65.9329 44.2605C63.1347 44.2605 60.8214 46.0692 60.4519 48.4157H58.1079C58.4139 44.7737 61.9554 42.0891 65.9621 42.0891C68.3463 42.0891 70.4858 43.0227 71.9279 44.5248L70.2653 46.0768V46.0768ZM45.1109 42.3819H42.945V55.7026H45.0743V45.7488L53.8011 55.7026H55.3872V54.083L45.1109 42.3819ZM55.3872 42.3819H53.2571V48.8513L55.3872 51.1003V42.3826V42.3819ZM36.6842 51.572L38.6485 55.7026H41.2093L34.7849 42.3826H32.4767L32.4752 42.3865L35.6918 49.4499H31.4179L32.5344 47.1479L31.3712 44.6446L25.9581 55.7026H28.351L30.3759 51.5736L36.6849 51.5728L36.6842 51.572ZM12.1468 42.3826H10V55.7026H12.1286V46.5448L16.9619 54.6761L18.193 52.6016L12.1476 42.3826H12.1468ZM18.1039 48.6339L19.3292 50.6784L21.7937 46.5448V55.7019H23.9171V42.3826H21.7506L18.1039 48.6339" fill="black"/>
</svg>
