<svg width="100" height="100" viewBox="0 0 100 100" fill="none" xmlns="http://www.w3.org/2000/svg">
<rect x="0.5" y="0.5" width="99" height="99" fill="white" stroke="#008B00"/>
<path fill-rule="evenodd" clip-rule="evenodd" d="M10 10H90V90H10V10Z" fill="white"/>
<path fill-rule="evenodd" clip-rule="evenodd" d="M11.1763 45.973L18.165 41.9409L25.1546 45.973V54.0342L18.165 58.0587L11.1763 54.0342V45.973V45.973ZM26.5748 45.973H88.8239V54.0342H26.5748V45.973Z" fill="black"/>
<path fill-rule="evenodd" clip-rule="evenodd" d="M11.5132 46.163V53.8607L18.1649 57.6997L24.8175 53.8607V46.1411L18.1649 42.312L11.5132 46.163V46.163ZM26.9067 46.3037V53.7079L88.4913 53.7034V46.3037H26.9067Z" fill="white"/>
<path fill-rule="evenodd" clip-rule="evenodd" d="M17.6661 47.9427L17.9853 47.2973L17.9297 47.0786L17.5811 47.46L16.8747 46.6283L16.9693 46.444L16.9303 45.7135C16.6277 45.6181 16.4812 45.2645 16.4812 44.9669C16.4812 44.832 16.5036 44.6693 16.6609 44.6527C16.6969 44.2579 16.7896 43.8703 16.9361 43.5018C17.2449 43.743 17.3968 44.1422 17.3968 44.5241C17.3968 44.6814 17.3793 44.8387 17.2893 44.9673L17.0141 44.9449L17.0257 45.0466L16.9523 45.0632C16.8967 44.9511 16.8236 44.7266 16.6721 44.7266C16.6153 44.7266 16.6049 44.7938 16.6049 44.8391C16.6273 44.8225 16.6543 44.8046 16.6829 44.8046C16.7846 44.8046 16.834 44.8947 16.8518 44.9794L16.8174 44.996C16.7892 44.9569 16.7618 44.9063 16.7049 44.9063H16.6825L16.6493 44.9167L16.5991 44.8777C16.5933 45.2039 16.7448 45.5795 17.093 45.6471L17.1033 45.704L17.0477 45.7372L17.076 46.4046L18.0131 46.9495L18.17 46.9777L18.2488 46.8038C17.9571 46.6739 17.6699 46.4776 17.4902 46.2141L17.535 46.1917C17.7487 46.4042 18.0691 46.7022 18.3941 46.7022C18.7369 46.7022 18.9448 46.2647 18.9552 45.9729L18.9781 45.5737L18.9839 45.4782L18.6303 45.4898V45.411L18.8037 45.406L18.5792 45.1591L18.6074 45.069L18.9772 45.406L18.9722 45.3272C18.9664 45.1192 18.9664 44.9121 18.9154 44.715C18.9216 44.7374 18.9216 44.766 18.9216 44.7884C18.9216 44.8333 18.905 44.974 18.8374 44.974C18.7585 44.974 18.7523 44.8499 18.7523 44.7942C18.7523 44.7494 18.7585 44.6253 18.8374 44.6253C18.8764 44.6253 18.8988 44.6764 18.9154 44.7046L18.8822 44.4743L18.7299 44.4577L18.7158 44.4224L18.744 44.3668L18.6991 44.3444L18.7041 44.3103L18.8224 44.2829L18.7834 44.1302C18.6701 44.1624 18.5526 44.1775 18.4348 44.175C17.8404 44.175 17.2735 43.9401 16.9647 43.4176C17.0375 43.2886 17.1436 43.1816 17.2719 43.1076C17.4001 43.0335 17.5459 42.9953 17.6939 42.9967C18.3061 42.9967 18.7896 43.5462 19.02 44.0625L18.8735 44.1136L18.9017 44.2709L18.9631 44.2875L19.0021 44.3444L18.9855 44.3954L19.0021 44.4402L18.9631 44.4626C19.0142 44.8553 19.0756 45.2533 19.0756 45.6525C19.0756 46.0676 18.9751 46.8258 18.4128 46.8258C18.3845 46.8248 18.3564 46.8208 18.3289 46.8138L18.3065 46.8752L18.3796 47.2297L18.2505 47.4094L18.1609 47.0948L18.0484 47.2911L18.1156 47.6501L18.8448 46.7852L21.1362 46.2867C21.1637 46.2799 21.1918 46.276 21.2201 46.2751C21.2935 46.2693 21.3039 46.3423 21.3205 46.3992L21.7471 46.3647C21.8202 45.9219 22.2361 45.9995 22.2307 45.8152L22.2244 45.748C22.2244 45.6629 22.2527 45.5849 22.3543 45.5849C22.4772 45.5849 22.5789 45.7032 22.5789 45.8198C22.5789 45.9547 22.5162 46.107 22.4606 46.2298L22.5336 46.2747L22.9993 46.5274L23.4542 46.83C23.5098 46.8702 23.577 46.9093 23.577 46.9827C23.577 47.0325 23.5438 47.0724 23.5094 47.101C23.5376 47.128 23.572 47.1624 23.572 47.2072C23.572 47.2687 23.5152 47.3479 23.4421 47.3479C23.4152 47.3479 23.3923 47.3363 23.3641 47.3305C23.3641 47.4036 23.3193 47.4654 23.24 47.4654C23.1114 47.4654 22.9827 47.3932 22.8702 47.3529L22.791 47.3259C22.8192 47.3977 22.8582 47.4832 22.8582 47.5671C22.8582 47.6347 22.8192 47.6854 22.7519 47.6854C22.5888 47.6854 22.505 47.4712 22.4436 47.3533L22.4095 47.3425C22.1236 47.2695 21.8704 47.1288 21.6297 46.9657L21.6015 47.1346L21.1582 47.1691V47.2247C21.1582 47.3538 21.0507 47.3982 20.9382 47.4102L19.3279 47.5779L19.2769 47.6854C18.6871 49.0205 18.3563 50.4188 18.2546 51.8788L18.2497 52.0183H18.1708L17.9807 51.9631C18.2098 52.7542 18.6589 53.8606 19.2773 54.4388L19.2607 54.489L19.6981 54.4446L19.7488 54.4164L20.08 54.2308C20.1085 54.2188 20.1387 54.2113 20.1696 54.2088C20.2489 54.2088 20.2995 54.2761 20.3327 54.3371L19.5408 54.8941L19.3674 54.86L19.3956 54.9895L18.9465 55.2311L18.7668 54.9044L18.6489 54.9613L18.5875 54.855C18.0202 53.8888 17.5371 52.8903 17.2287 51.812L17.0266 51.79L16.8244 51.8004V52.2266C16.8244 53.1078 16.8693 54.0125 16.9979 54.8775L16.9199 54.9219L16.9589 55.3037L16.6327 55.4382L16.5937 55.3531L16.4982 55.5104L15.6117 55.9321C15.5835 55.8922 15.5611 55.8536 15.5611 55.8146C15.5611 55.6403 15.8695 55.4938 15.9815 55.4099C16.1504 55.2979 16.1953 55.0841 16.3467 54.9497L16.3243 54.9044L16.2571 54.8995L16.2509 54.804L16.1342 53.1874L16.1836 51.9067V51.8116C15.8197 51.9291 15.3303 51.8344 15.061 51.5634L15.0892 51.4343C15.2407 50.8346 15.3303 50.2054 15.5549 49.6269L15.4096 49.4198C15.3586 49.4422 15.3079 49.4646 15.2573 49.4646C15.1851 49.4646 15.1402 49.4243 15.1058 49.3687L14.3143 48.0037C14.9605 47.4936 16.089 46.9039 16.8689 46.6569L17.6661 47.9427V47.9427Z" fill="black"/>
<path fill-rule="evenodd" clip-rule="evenodd" d="M18.1873 44.8611V44.8104C18.1873 44.7548 18.1989 44.6249 18.277 44.6249C18.362 44.6249 18.35 44.7656 18.35 44.8225C18.35 44.8781 18.35 45.0188 18.2662 45.0188C18.2093 45.0188 18.1873 44.9395 18.1873 44.9005V44.8611V44.8611ZM18.3562 44.2937L18.367 44.3506L18.4176 44.3672L18.362 44.4178L18.367 44.4626L18.2724 44.485L18.0972 44.5016V44.3954L18.0645 44.3385L18.0752 44.3161L18.3562 44.2937V44.2937ZM18.1483 45.5911C18.2437 45.7422 18.4172 45.9327 18.614 45.9327C18.7214 45.9327 18.8053 45.843 18.8891 45.7812L18.9236 45.804C18.8621 45.9443 18.7322 46.0451 18.5749 46.0451C18.34 46.0451 18.1769 45.816 18.0977 45.6185L18.1483 45.5911ZM33.368 47.9485H35.2767V48.3751H35.17C34.6371 48.3751 34.5072 48.7628 34.5072 49.2284V50.8346C34.5072 51.2941 34.6417 51.6817 35.17 51.6817H35.2767V52.1137H32.7006V51.6817H32.84C33.2949 51.6817 33.497 51.3729 33.497 50.9467V48.8022L31.9091 52.1142H31.4372L29.7522 48.6569V50.835C29.7522 51.2899 29.8821 51.6821 30.4092 51.6821H30.5661V52.1142H28.4722V51.6821H28.6129C29.0844 51.6821 29.2579 51.3795 29.2579 50.9471V49.111C29.2579 48.6793 29.0844 48.376 28.6129 48.376H28.4722V47.9493H30.5661L31.9697 50.8354L33.368 47.9485V47.9485ZM38.4658 52.1137H35.8826V51.6817H36.0175C36.484 51.6817 36.6683 51.3729 36.6683 50.9467V49.1106C36.6683 48.6789 36.484 48.3755 36.0175 48.3755H35.8826V47.9489H38.4658V48.3755H38.3309C37.864 48.3755 37.6801 48.6789 37.6801 49.1106V50.9467C37.6801 51.3795 37.8644 51.6817 38.3309 51.6817H38.4658V52.1137ZM42.805 47.8978V49.2733H42.3725C42.2434 48.5428 41.4067 48.3241 40.7726 48.3241C40.3575 48.3241 39.6437 48.4195 39.6437 48.9753C39.6437 49.3911 40.1778 49.4193 40.4758 49.436L40.9859 49.4642C41.9064 49.509 43.0291 49.5928 43.0291 50.7989C43.0291 51.7763 42.1148 52.2312 41.2494 52.2312C40.6207 52.2312 39.9699 51.9166 39.549 51.9166C39.4025 51.9166 39.3515 52.0519 39.3473 52.1743H38.9207V50.6927H39.3473C39.4254 51.4725 40.4127 51.7253 41.0643 51.7253C41.4686 51.7253 42.2152 51.5746 42.2152 51.0413C42.2152 49.8506 38.8252 51.2887 38.8252 49.1994C38.8252 48.2564 39.7964 47.8418 40.6153 47.8418C41.2498 47.8418 41.8736 48.0991 42.1704 48.0991C42.2945 48.0991 42.3675 48.0095 42.3725 47.8974H42.805V47.8978ZM48.1884 47.9485V49.514H47.7061V49.4916C47.7061 48.779 47.2064 48.3751 46.5212 48.3751H46.1962V50.8894C46.1962 51.3335 46.3369 51.6813 46.8416 51.6813H47.0437V52.1133H44.3991V51.6813H44.5456C44.9947 51.6813 45.2084 51.3725 45.2084 50.9463V48.3751H44.7639C44.0571 48.3751 43.7147 48.8524 43.6579 49.514H43.1756V47.9485H48.1884V47.9485ZM67.1139 47.9485H69.0284V48.3751H68.9159C68.3818 48.3751 68.2527 48.7628 68.2527 49.2284V50.8346C68.2527 51.2941 68.388 51.6817 68.9159 51.6817H69.0284V52.1137H66.4448V51.6817H66.5859C67.0462 51.6817 67.2483 51.3791 67.2483 50.9467V48.8022L65.6529 52.1142H65.1819L63.5039 48.6569V50.835C63.5039 51.2945 63.6263 51.6821 64.1605 51.6821H64.312V52.1142H62.2181V51.6821H62.3634C62.8303 51.6821 63.0096 51.3795 63.0096 50.9471V49.111C63.0096 48.6793 62.8361 48.376 62.3634 48.376H62.2181V47.9493H64.312L65.716 50.8354L67.1139 47.9485V47.9485ZM72.1835 52.1137H69.5895V51.6817H69.7306C70.2017 51.6817 70.3814 51.3791 70.3814 50.9467V49.1106C70.3814 48.6789 70.2013 48.3755 69.7306 48.3755H69.5895V47.9489H72.1835V48.3755H72.049C71.5821 48.3755 71.3974 48.6789 71.3974 49.1106V50.9467C71.3974 51.3795 71.5821 51.6817 72.049 51.6817H72.1835V52.1137ZM77.7914 52.159H77.4096L73.9573 48.9529V50.828C73.9573 51.2941 74.0918 51.6817 74.6206 51.6817H74.7882V52.1137H72.6944V51.6817H72.8405C73.2999 51.6817 73.4859 51.3729 73.4859 50.9467V49.1106C73.4859 48.6789 73.3003 48.3755 72.8405 48.3755H72.6944V47.9489H74.396L77.3266 50.6939V49.2288C77.3266 48.7694 77.1921 48.3755 76.6633 48.3755H76.5127V47.9489H78.5837V48.3755H78.4368C77.9773 48.3755 77.7914 48.6789 77.7914 49.1106V52.159ZM81.5753 52.1137H78.9879V51.6817H79.1282C79.5935 51.6817 79.779 51.3729 79.779 50.9467V49.1106C79.779 48.6789 79.5935 48.3755 79.1282 48.3755H78.9879V47.9489H81.5753V48.3755H81.4408C80.9747 48.3755 80.79 48.6789 80.79 49.1106V50.9467C80.79 51.3729 80.9747 51.6817 81.4408 51.6817H81.5753V52.1137ZM86.9869 47.9485V49.514H86.5038C86.4876 48.796 86.0327 48.3751 85.3139 48.3751H84.9889V50.8894C84.9889 51.3335 85.1404 51.6813 85.6405 51.6813H85.8368V52.1133H83.1868V51.6813H83.3441C83.7932 51.6813 83.9999 51.3725 83.9999 50.9463V48.3751H83.5629C82.8382 48.3751 82.5244 48.8524 82.4506 49.514H81.9683V47.9485H86.9869V47.9485ZM52.7637 50.5038H53.2356V52.1137H48.588V51.6817H48.7271C49.1882 51.6817 49.3903 51.3617 49.3903 50.9409V49.1106C49.3903 48.6789 49.1824 48.3755 48.7271 48.3755H48.588V47.9489H53.2356V49.5659H52.7637C52.7417 48.7694 52.3657 48.376 51.5576 48.376H50.4009V49.7514H50.9512C51.3559 49.7514 51.5236 49.4878 51.5456 49.1226L51.5576 48.9715H51.9896V50.9413H51.5576C51.5236 50.515 51.4107 50.1776 50.9172 50.1776H50.4009V51.6821H51.5576C52.3657 51.6817 52.7305 51.2941 52.7637 50.5038V50.5038ZM58.682 50.8848H59.1141C59.1191 51.5916 58.9672 52.1818 58.1429 52.1818C56.5986 52.1818 57.7885 50.161 56.5475 50.161H55.4307V50.828C55.4307 51.2941 55.566 51.6817 56.0985 51.6817H56.2508V52.1137H53.6568V51.6817H53.7693C54.2184 51.6817 54.4309 51.3671 54.4309 50.9467V49.1106C54.4309 48.6839 54.2121 48.3755 53.7693 48.3755H53.6062V47.9489H57.0584C57.698 47.9489 58.3666 48.1618 58.3666 48.9205C58.3666 49.5264 57.8275 49.7842 57.3162 49.919C57.8773 49.9983 58.1649 50.3349 58.1981 50.8965C58.2093 51.0699 58.1753 51.6041 58.45 51.6041C58.6974 51.6041 58.6812 51.2384 58.6812 51.0699V50.8848H58.682V50.8848Z" fill="black"/>
<path fill-rule="evenodd" clip-rule="evenodd" d="M86.6117 51.0081C86.9366 51.0081 87.2122 51.2771 87.2122 51.5975C87.2122 51.9291 86.9425 52.198 86.6117 52.198C86.4532 52.1969 86.3015 52.1332 86.1899 52.0206C86.0782 51.9081 86.0156 51.756 86.0157 51.5975C86.0157 51.2771 86.2913 51.0081 86.6117 51.0081ZM20.2646 54.8542C20.5967 54.8542 20.871 55.1282 20.871 55.4606C20.871 55.7914 20.5967 56.067 20.2646 56.067C19.9397 56.067 19.6587 55.7856 19.6587 55.4606C19.6607 55.3005 19.7252 55.1475 19.8384 55.0342C19.9516 54.921 20.1045 54.8564 20.2646 54.8542Z" fill="black"/>
<path fill-rule="evenodd" clip-rule="evenodd" d="M17.6993 48.1506L16.7846 46.8138L16.6771 46.8648L16.3297 46.9993L15.9931 47.1624L15.8806 47.2135C15.9138 47.2807 15.942 47.3479 15.942 47.4201C15.942 47.5102 15.9088 47.5667 15.8416 47.6177C15.8358 47.4994 15.8192 47.3708 15.7341 47.2857L15.6611 47.3305L15.1224 47.6401L14.5836 47.9771L14.5056 48.0219L15.2572 49.3571C15.4652 49.3463 15.7627 49.1894 15.8138 48.9757L15.3245 48.2797L15.3813 48.2913L15.3917 48.2569L15.0161 48.0489L14.9995 47.9991L15.0385 47.9709L15.3813 48.134L15.9765 47.8468L16.0213 47.8813L15.8686 48.8018L15.8806 48.8466L15.9088 48.9035C15.9153 48.9176 15.9188 48.9328 15.9192 48.9483C15.9192 48.9649 15.9088 48.9873 15.9026 49.0039L16.1213 49.3015L16.7215 49.0263L16.868 49.3463L16.7663 49.3974L16.6825 49.2284L16.2002 49.4468L16.2558 49.4812C16.4189 49.5937 16.5086 49.7506 16.5086 49.9527C16.5086 50.2444 16.3006 50.4366 16.0084 50.4366C15.835 50.4366 15.6885 50.3685 15.5652 50.2503C15.4635 50.6831 15.3681 51.1202 15.3182 51.5634C15.4859 51.6485 15.6432 51.7157 15.8404 51.7157C16.3567 51.7157 16.9406 51.4011 17.041 50.8628L17.508 48.3635L17.6993 48.1506V48.1506Z" fill="white"/>
<path fill-rule="evenodd" clip-rule="evenodd" d="M15.9138 47.9767L15.5095 48.161C15.5261 48.1834 15.5377 48.212 15.5377 48.2402C15.5382 48.2592 15.5344 48.2781 15.5266 48.2955C15.5189 48.3129 15.5074 48.3283 15.4929 48.3407L15.7743 48.6727L15.9138 47.9767ZM15.8806 49.1102L15.8523 49.1326L16.0321 49.3916L16.0661 49.3629L15.8806 49.1102V49.1102ZM15.8299 49.1728L15.8075 49.1952L15.981 49.4468L16.0092 49.4243L15.8299 49.1728V49.1728ZM15.7847 49.2284L15.7519 49.2509L15.9254 49.492L15.954 49.4696L15.7847 49.2284ZM15.7237 49.2791L15.6892 49.2957L15.8689 49.5368L15.8914 49.5202L15.7237 49.2791ZM15.661 49.3181L15.6336 49.3347L15.7967 49.5771L15.8299 49.5592L15.661 49.3181ZM15.661 49.9303L15.6162 49.9631L15.7058 50.0648L15.661 49.9303V49.9303Z" fill="white"/>
<path fill-rule="evenodd" clip-rule="evenodd" d="M16.0935 49.4468L15.7233 49.7058C15.7233 49.9021 15.7847 50.076 15.9196 50.2283C15.8956 50.2346 15.871 50.2381 15.8462 50.2387C15.7337 50.2387 15.6337 50.1262 15.5486 50.0585C15.5486 50.2158 15.8524 50.3341 15.9765 50.3341C16.1832 50.3341 16.4193 50.1486 16.4193 49.9241C16.4193 49.7385 16.2728 49.5933 16.1379 49.4812L16.0935 49.4468V49.4468ZM21.3316 46.4834L21.315 46.5283L21.6342 46.5117L21.6462 46.4714L21.3316 46.4834ZM21.2926 46.5673L21.2752 46.6013L21.6072 46.5901L21.6118 46.5507L21.2926 46.5673ZM21.2644 46.6407L21.2478 46.6793L21.5848 46.6627L21.5952 46.6241L21.2644 46.6407ZM21.23 46.7138L21.2254 46.747L21.5728 46.7362V46.6959L21.23 46.7138V46.7138ZM21.2138 46.7856L21.203 46.8258L21.5562 46.8084L21.562 46.7694L21.2138 46.7856ZM21.191 46.8653L21.1806 46.9101L21.5396 46.8873V46.8487L21.191 46.8653ZM21.7243 46.8532C21.9546 47.0163 22.2016 47.1795 22.4829 47.2077C22.5444 47.2857 22.6178 47.5671 22.7357 47.5613C22.7473 47.5605 22.7583 47.5555 22.7665 47.5473C22.7748 47.539 22.7797 47.5281 22.7805 47.5165C22.7805 47.4658 22.7465 47.416 22.7241 47.3762L22.6627 47.2591L22.6282 47.2081L22.6685 47.1409L22.7241 47.1691L22.9606 47.2637C23.0387 47.2982 23.1404 47.3538 23.2238 47.3596C23.2462 47.3654 23.2686 47.3488 23.2686 47.3264C23.2686 47.2471 23.0324 47.1741 22.9826 47.1512L22.7519 47.045L22.7075 47.0284L22.7403 46.9387C22.915 47.0168 23.24 47.2471 23.4035 47.2471C23.4317 47.2471 23.4603 47.2247 23.4603 47.1961C23.4603 47.0392 22.9378 46.8761 22.8303 46.8142L22.8586 46.7412C23.0441 46.8088 23.2346 47.006 23.4317 47.0168C23.4483 47.0168 23.4707 47.0002 23.4649 46.9836C23.4603 46.8371 23.0499 46.6856 22.9606 46.6349L22.5564 46.4224L22.4883 46.3818C22.4481 46.4548 22.4211 46.5 22.3418 46.5341V46.483L22.3925 46.3423L22.3701 46.2361V46.2133C22.3701 46.185 22.3759 46.1626 22.3867 46.1402L22.4539 45.9945C22.4716 45.9596 22.4812 45.9212 22.4821 45.8821C22.4821 45.8418 22.4373 45.6741 22.3696 45.6741C22.3472 45.6741 22.3352 45.7073 22.3352 45.7297C22.3352 45.7746 22.353 45.8194 22.353 45.8642C22.353 45.9435 22.2796 46.0169 22.2007 46.0273L22.055 46.0555C21.8363 46.0958 21.7301 46.6856 21.7243 46.8532V46.8532ZM18.9236 46.8711L17.5868 48.4532L17.1485 50.8629C17.2892 51.2941 17.6213 51.722 18.0703 51.8569C18.1035 51.3671 18.1483 50.8508 18.2886 50.3789L18.199 50.4404L18.16 50.3852L18.3169 50.2789L18.3667 49.9975L18.1317 49.5709L17.9404 49.7111L17.9014 49.6381L18.2322 49.397L18.4343 49.761C18.6319 48.8803 18.9236 47.9481 19.4175 47.1848L19.4789 47.2181L19.3893 47.426L20.8378 47.2853C20.9112 47.2807 21.0905 47.2807 21.0789 47.1624L21.0565 46.9603C21.0507 46.9035 21.0847 46.8304 21.0955 46.7748L21.0507 46.8586C21.0229 46.9005 21.0074 46.9492 21.0058 46.9993L21.0121 47.1056V47.2073C20.9672 47.1566 20.934 47.1056 20.934 47.0383C20.934 46.8134 21.0851 46.6117 21.2034 46.432L18.9236 46.8711V46.8711ZM18.2604 46.9715L18.2156 47.0446L18.2662 47.2363L18.3056 47.1853L18.2604 46.9715V46.9715ZM16.9912 46.6013L17.5764 47.2977L17.84 47.006L17.0543 46.4834L16.9912 46.6013ZM55.4307 49.7165H56.2956C56.7617 49.7165 57.2838 49.5426 57.2838 48.9931C57.2838 48.493 56.8406 48.3752 56.4309 48.3752H55.4307V49.7165ZM86.6167 51.0808C86.3307 51.0808 86.0896 51.3119 86.0896 51.5971C86.089 51.7376 86.1442 51.8726 86.243 51.9726C86.3418 52.0725 86.4761 52.1293 86.6167 52.1304C86.9035 52.1304 87.1388 51.883 87.1388 51.5971C87.137 51.4597 87.0813 51.3285 86.9836 51.2319C86.8859 51.1352 86.7541 51.081 86.6167 51.0808V51.0808ZM20.2704 54.9264C20.129 54.9264 19.9933 54.9826 19.8933 55.0826C19.7933 55.1827 19.7371 55.3183 19.7371 55.4598C19.7371 55.6012 19.7933 55.7369 19.8933 55.8369C19.9933 55.9369 20.129 55.9931 20.2704 55.9931C20.5626 55.9931 20.7987 55.7524 20.7987 55.4606C20.7987 55.1688 20.5626 54.9264 20.2704 54.9264V54.9264Z" fill="white"/>
<path fill-rule="evenodd" clip-rule="evenodd" d="M17.8508 48.3527L18.7095 48.3411L18.7037 48.5773H18.6423V48.471L17.9239 48.4814V48.5939H17.8625L17.8508 48.3527ZM86.4819 51.6323V51.8959H86.3466V51.2327H86.7056C86.7956 51.2327 86.8749 51.3227 86.8749 51.4061C86.8749 51.4962 86.8181 51.5531 86.7338 51.5813C86.8911 51.6145 86.8359 51.783 86.8807 51.8959H86.7463L86.7284 51.8116V51.7386C86.7234 51.6543 86.6504 51.6323 86.5831 51.6323H86.4819ZM20.1302 55.493V55.7573H19.9953V55.0837H20.3605C20.4502 55.0837 20.534 55.173 20.534 55.263C20.534 55.3531 20.4726 55.41 20.3946 55.4382C20.5564 55.4826 20.4784 55.6449 20.534 55.7577H20.3991L20.3825 55.6735V55.6005C20.3767 55.5162 20.3033 55.4934 20.231 55.4934H20.1302V55.493V55.493Z" fill="black"/>
<path fill-rule="evenodd" clip-rule="evenodd" d="M86.4818 51.5244H86.6279C86.6839 51.5244 86.7462 51.5016 86.7462 51.429C86.7462 51.3617 86.679 51.3339 86.6167 51.3339H86.4822V51.5244H86.4818V51.5244ZM20.1301 55.3867H20.2766C20.3497 55.3867 20.3949 55.3527 20.3949 55.2804C20.3949 55.2074 20.3277 55.1904 20.2708 55.1904H20.1305V55.3867H20.1301Z" fill="white"/>
</svg>
