<svg width="100" height="100" viewBox="0 0 100 100" fill="none" xmlns="http://www.w3.org/2000/svg">
<path d="M99.723 0.276978H0.278015V99.722H99.723V0.276978Z" fill="#FCFDFB"/>
<path d="M99.444 0.556V99.446H0.556V0.556H99.444ZM100 0H0V100H100V0Z" fill="#0D8C2F"/>
<path d="M23.317 41.722C23.989 41.461 24.777 41.814 25.136 42.415C26.343 44.334 27.607 46.217 28.815 48.137C29.165 48.691 29.136 49.504 28.666 49.983C28.23 50.468 27.51 50.575 26.915 50.349C26.79 50.279 26.677 50.191 26.576 50.093C26.392 49.881 26.222 49.657 26.052 49.435C25.13 49.527 24.214 49.674 23.296 49.794C23.125 50.234 22.975 50.735 22.559 51.011C22.128 51.308 21.566 51.269 21.08 51.153C20.859 51.03 20.662 50.866 20.492 50.68C20.323 50.359 20.209 50.008 20.214 49.643C20.852 47.36 21.579 45.104 22.29 42.843C22.425 42.333 22.801 41.877 23.317 41.722Z" fill="#E3282C"/>
<path d="M43.033 42.582C43.481 41.62 45.098 41.483 45.606 42.467C45.799 42.846 45.925 43.254 46.017 43.667C46.272 44.785 46.57 45.892 46.787 47.017C47.016 48.183 46.742 49.475 45.949 50.379C44.734 51.793 42.44 52.085 40.908 51.018C40.132 50.437 39.566 49.586 39.327 48.646C39.031 47.471 38.72 46.299 38.464 45.116C38.39 44.662 38.347 44.188 38.461 43.738C38.646 43.139 39.318 42.897 39.888 42.871C40.408 42.851 40.849 43.204 41.124 43.615C41.686 45.123 41.853 46.754 42.434 48.258C42.517 48.514 42.783 48.613 43.017 48.684C43.359 48.647 43.723 48.451 43.829 48.105C43.914 47.697 43.763 47.295 43.675 46.903C43.445 45.937 43.194 44.975 42.973 44.007C42.863 43.54 42.806 43.024 43.033 42.582Z" fill="#E3282C"/>
<path d="M74.832 43.218C75.025 42.536 75.784 42.1061 76.473 42.2201C76.918 42.2701 77.293 42.571 77.536 42.933C78.288 44.59 78.924 46.3041 79.633 47.9831C79.876 48.5681 80.154 49.1811 80.103 49.8311C80.056 50.5131 79.375 50.945 78.751 51.017C78.282 51.042 77.883 50.744 77.48 50.55C76.472 50.016 75.497 49.42 74.491 48.875C74.781 49.613 75.088 50.345 75.315 51.104C75.419 51.427 75.437 51.7871 75.279 52.0951C74.962 52.8251 74.016 53.121 73.298 52.85C72.799 52.568 72.497 52.053 72.287 51.541C71.591 49.7591 70.846 47.9991 70.135 46.2271C69.995 45.8631 69.98 45.4451 70.127 45.0801C70.427 44.3141 71.421 43.87 72.163 44.281C73.309 44.913 74.448 45.5531 75.605 46.1641C75.279 45.2081 74.622 44.273 74.832 43.218Z" fill="#E3282C"/>
<path d="M25.137 42.416C25.675 42.698 25.953 43.26 26.271 43.747C27.371 45.425 28.45 47.117 29.543 48.8C29.406 49.474 29.259 50.149 29.119 50.823C28.759 51.02 28.339 51.232 27.919 51.089C27.487 51.008 27.148 50.707 26.915 50.351C27.51 50.577 28.23 50.471 28.665 49.986C29.135 49.506 29.165 48.694 28.814 48.139C27.607 46.218 26.343 44.335 25.137 42.416Z" fill="#FCDA20"/>
<path d="M45.606 42.4659C46.238 42.7699 46.52 43.4589 46.664 44.1019C46.965 45.4379 47.318 46.7649 47.556 48.1129C47.617 49.2559 47.243 50.4669 46.397 51.2659C45.723 51.9009 44.811 52.2539 43.897 52.3239C42.776 52.3819 41.602 51.9169 40.908 51.0159C42.44 52.0829 44.733 51.7909 45.949 50.3769C46.742 49.4739 47.016 48.1799 46.787 47.0139C46.57 45.8879 46.272 44.7809 46.017 43.6639C45.925 43.2529 45.799 42.8449 45.606 42.4659Z" fill="#FCDA20"/>
<path d="M54.569 43.088C55.206 42.599 56.295 42.755 56.664 43.501C57.327 44.677 57.9 45.9 58.506 47.105C58.545 46.921 58.587 46.737 58.627 46.554C58.833 45.784 58.864 44.882 59.471 44.297C60.108 43.608 61.341 43.926 61.766 44.701C61.922 45.095 61.963 45.529 61.857 45.942C61.456 47.815 61.022 49.679 60.601 51.547C60.465 52.096 60.21 52.688 59.672 52.947C59.282 53.144 58.829 53.053 58.431 52.939C58.025 52.747 57.767 52.363 57.583 51.967C57.247 51.253 56.911 50.538 56.576 49.824C56.407 49.434 56.228 49.049 56.033 48.675C55.859 49.281 55.752 49.903 55.604 50.515C55.481 50.998 55.26 51.507 54.804 51.759C54.357 52.007 53.819 51.934 53.355 51.773C52.672 51.46 52.492 50.621 52.638 49.943C53.04 48.027 53.493 46.121 53.925 44.212C54.024 43.791 54.201 43.349 54.569 43.088Z" fill="#E3282C"/>
<path d="M77.536 42.934C77.909 43.168 78.234 43.492 78.4 43.91C79.107 45.624 79.807 47.343 80.506 49.062C80.609 49.348 80.742 49.641 80.732 49.951C80.424 50.514 80.099 51.069 79.777 51.622C79.444 51.645 79.092 51.697 78.787 51.537C77.558 50.937 76.398 50.209 75.199 49.557C75.504 50.365 75.884 51.156 76.068 52.005C76.229 52.873 75.365 53.639 74.527 53.6C74.001 53.639 73.561 53.274 73.293 52.851C74.015 53.119 74.957 52.827 75.276 52.096C75.434 51.786 75.415 51.427 75.313 51.105C75.084 50.346 74.775 49.614 74.488 48.876C75.493 49.421 76.467 50.018 77.477 50.552C77.881 50.745 78.279 51.044 78.748 51.019C79.371 50.948 80.05 50.516 80.097 49.833C80.153 49.183 79.873 48.57 79.63 47.985C78.924 46.305 78.292 44.592 77.536 42.934Z" fill="#FCDA20"/>
<path d="M56.664 43.501C56.911 43.622 57.152 43.78 57.289 44.029C57.782 44.845 58.175 45.715 58.627 46.554C58.588 46.737 58.546 46.921 58.505 47.105C57.9 45.9 57.326 44.678 56.664 43.501Z" fill="#FCDA20"/>
<path d="M41.124 43.615C41.565 43.83 41.871 44.26 41.993 44.728C42.349 46.043 42.644 47.374 43.016 48.683C42.782 48.613 42.516 48.514 42.433 48.257C41.853 46.754 41.685 45.123 41.124 43.615Z" fill="#FCDA20"/>
<path d="M16.263 44.503C16.911 44.06 17.96 44.269 18.303 45.003C19.047 46.934 19.504 48.959 20.053 50.951C20.195 51.537 20.334 52.227 19.962 52.76C19.533 53.291 18.677 53.533 18.082 53.133C17.188 52.575 16.361 51.921 15.502 51.312L15.465 51.283C15.214 51.079 14.957 50.881 14.691 50.695C14.874 51.697 15.472 52.667 15.234 53.712C14.985 54.545 13.969 54.852 13.197 54.609C12.665 54.325 12.4 53.749 12.243 53.193C11.702 51.286 11.18 49.371 10.667 47.457C10.438 46.811 10.786 46.005 11.442 45.775C11.846 45.628 12.332 45.589 12.712 45.826C13.899 46.522 14.981 47.381 16.138 48.122C15.944 47.359 15.642 46.617 15.588 45.826C15.542 45.301 15.808 44.769 16.263 44.503Z" fill="#E3282C"/>
<path d="M31.058 44.374C31.727 44.024 32.594 44.351 32.958 44.988C33.562 46.162 34.211 47.312 34.828 48.478C34.862 48.325 34.894 48.171 34.925 48.019C35.11 47.217 35.159 46.321 35.72 45.67C36.359 44.99 37.607 45.223 38.052 46.017C38.354 46.735 38.134 47.511 37.977 48.234C37.648 49.737 37.348 51.246 37.022 52.749C36.88 53.353 36.647 54.036 36.049 54.328C35.624 54.55 35.159 54.367 34.73 54.274C34.453 54.063 34.192 53.821 34.047 53.502C33.681 52.755 33.32 52.009 32.954 51.262C32.762 50.86 32.572 50.46 32.375 50.059C32.187 50.777 32.116 51.528 31.887 52.235C31.752 52.658 31.493 53.067 31.081 53.262C30.67 53.451 30.198 53.366 29.78 53.247C29.415 53.068 29.109 52.737 29.024 52.334C28.932 51.828 29.001 51.311 29.119 50.819C29.259 50.145 29.406 49.468 29.543 48.794C29.796 47.655 30.038 46.512 30.353 45.39C30.462 44.989 30.649 44.556 31.058 44.374Z" fill="#E3282C"/>
<path d="M61.765 44.702C62.376 44.942 62.676 45.644 62.586 46.27C62.457 47.143 62.231 47.999 62.042 48.86C61.793 49.243 61.71 49.694 61.733 50.146C61.626 50.699 61.487 51.246 61.379 51.798C61.27 52.349 61.107 52.919 60.714 53.339C60.07 53.97 58.815 53.768 58.428 52.938C58.828 53.053 59.282 53.143 59.671 52.948C60.209 52.686 60.463 52.096 60.599 51.548C61.02 49.679 61.453 47.815 61.855 45.942C61.961 45.53 61.922 45.096 61.765 44.702Z" fill="#FCDA20"/>
<path d="M18.303 45.004C18.643 45.11 18.891 45.385 19.012 45.714C19.535 46.983 19.868 48.318 20.214 49.644C20.209 50.009 20.323 50.359 20.492 50.679C20.71 51.475 21.058 52.335 20.782 53.159C20.432 53.911 19.343 54.235 18.662 53.732C17.702 53.129 16.809 52.423 15.895 51.755C15.734 51.635 15.545 51.521 15.504 51.31C16.362 51.92 17.189 52.573 18.083 53.132C18.678 53.532 19.533 53.288 19.963 52.757C20.335 52.225 20.195 51.536 20.054 50.948C19.504 48.959 19.047 46.936 18.303 45.004Z" fill="#FCDA20"/>
<path d="M32.958 44.988C33.252 45.147 33.521 45.369 33.672 45.674C34.089 46.455 34.521 47.23 34.925 48.02C34.894 48.172 34.862 48.326 34.828 48.48C34.211 47.313 33.562 46.162 32.958 44.988Z" fill="#FCDA20"/>
<path d="M82.92 46.109C83.183 45.643 83.583 45.165 84.151 45.109C84.773 45.007 85.438 45.309 85.748 45.862C86.57 48.013 87.35 50.179 88.184 52.327C88.39 52.871 88.426 53.545 88.022 54.01C87.599 54.554 86.829 54.697 86.198 54.476C85.909 54.326 85.673 54.081 85.525 53.791C85.431 53.599 85.349 53.404 85.262 53.208C84.356 53.15 83.452 53.018 82.545 53.011C82.245 53.238 82.113 53.639 81.791 53.85C81.344 54.184 80.74 54.135 80.251 53.938C79.392 53.532 79.222 52.348 79.778 51.624C80.101 51.069 80.424 50.515 80.733 49.952C81.45 48.662 82.203 47.397 82.92 46.109Z" fill="#E3282C"/>
<path d="M85.748 45.8621C86.068 46.0321 86.352 46.2901 86.495 46.6301C87.288 48.7341 88.068 50.8421 88.865 52.9441C88.991 53.3371 89.088 53.7691 88.946 54.1721C88.707 55.0601 87.552 55.4961 86.763 55.0561C86.518 54.9251 86.354 54.6971 86.197 54.4761C86.828 54.6971 87.598 54.5551 88.021 54.0101C88.425 53.5451 88.389 52.8691 88.183 52.3271C87.35 50.1811 86.569 48.0121 85.748 45.8621Z" fill="#FCDA20"/>
<path d="M38.052 46.017C38.445 46.218 38.756 46.582 38.837 47.02C38.968 47.714 38.742 48.402 38.609 49.079C38.324 50.543 37.988 51.996 37.682 53.455C37.556 54.052 37.29 54.696 36.712 54.986C35.989 55.231 35.131 54.916 34.731 54.274C35.16 54.367 35.625 54.55 36.05 54.328C36.647 54.036 36.881 53.353 37.023 52.749C37.349 51.246 37.649 49.737 37.979 48.234C38.134 47.512 38.354 46.735 38.052 46.017Z" fill="#FCDA20"/>
<path d="M48.232 46.28C48.776 45.854 49.526 46.045 50.165 45.997C50.783 45.991 51.66 45.945 51.913 46.659C51.932 46.942 51.935 47.264 51.725 47.484C51.427 47.84 50.923 47.871 50.493 47.874C49.856 47.863 49.212 47.921 48.585 47.786C47.947 47.62 47.723 46.71 48.232 46.28Z" fill="#E3282C"/>
<path d="M24.23 46.385C24.445 46.714 24.642 47.054 24.834 47.398C24.527 47.459 24.218 47.497 23.907 47.512C24.016 47.136 24.121 46.759 24.23 46.385Z" fill="#FCDA20"/>
<path d="M51.913 46.6591C52.155 46.7671 52.415 46.8981 52.529 47.1541C52.663 47.5031 52.619 47.9431 52.331 48.2041C51.963 48.5671 51.401 48.4961 50.93 48.5061C50.332 48.4761 49.703 48.5961 49.13 48.3761C48.859 48.2841 48.716 48.0201 48.587 47.7851C49.213 47.9201 49.858 47.8631 50.494 47.8731C50.923 47.8711 51.428 47.8391 51.726 47.4831C51.936 47.2651 51.932 46.9421 51.913 46.6591Z" fill="#FCDA20"/>
<path d="M68.396 47.7129C69.1 47.3919 70.002 47.6439 70.404 48.3189C70.749 48.9609 70.506 49.6819 70.272 50.3139C69.654 52.2319 69.061 54.1599 68.419 56.0699C68.292 56.4669 68.028 56.8259 67.648 57.0079C67.203 57.2439 66.666 57.1829 66.221 56.9919C65.903 56.8409 65.705 56.5399 65.519 56.2599C64.394 54.5209 63.29 52.7699 62.183 51.0199C62 50.7489 61.829 50.4599 61.732 50.1439C61.707 49.6929 61.791 49.2409 62.041 48.8579C62.476 48.3719 63.198 48.2019 63.81 48.4209C64.254 48.6149 64.485 49.0739 64.863 49.3529C65.745 49.2339 66.633 49.1539 67.509 49.0099C67.666 48.5059 67.897 47.9639 68.396 47.7129Z" fill="#E3282C"/>
<path d="M70.403 48.319C71.117 48.654 71.432 49.537 71.167 50.268C70.478 52.43 69.818 54.605 69.081 56.752C68.91 57.288 68.415 57.794 67.816 57.744C67.469 57.73 67.082 57.807 66.786 57.583C66.549 57.437 66.39 57.206 66.223 56.992C66.669 57.187 67.207 57.244 67.649 57.009C68.031 56.825 68.294 56.466 68.421 56.07C69.061 54.16 69.655 52.232 70.272 50.314C70.505 49.681 70.749 48.961 70.403 48.319Z" fill="#FCDA20"/>
<path d="M56.033 48.676C56.228 49.051 56.406 49.436 56.575 49.825C56.35 50.619 56.372 51.55 55.776 52.188C55.089 52.872 53.801 52.615 53.355 51.774C53.819 51.935 54.36 52.008 54.803 51.76C55.26 51.508 55.484 50.999 55.604 50.516C55.752 49.904 55.86 49.282 56.033 48.676Z" fill="#FCDA20"/>
<path d="M23.296 49.7941C24.214 49.6751 25.13 49.5271 26.052 49.4351C26.223 49.6561 26.393 49.8811 26.576 50.0931C25.705 50.2181 24.831 50.3211 23.961 50.4591C23.797 50.9811 23.552 51.5751 22.992 51.7731C22.325 52.0681 21.406 51.8361 21.079 51.1521C21.565 51.2681 22.127 51.3071 22.558 51.0091C22.976 50.7341 23.125 50.2341 23.296 49.7941Z" fill="#FCDA20"/>
<path d="M83.577 50.896C83.763 50.545 83.935 50.1871 84.151 49.8521C84.279 50.2261 84.399 50.5981 84.533 50.9691C84.214 50.9501 83.896 50.925 83.577 50.896Z" fill="#FCDA20"/>
<path d="M32.376 50.061C32.572 50.46 32.763 50.863 32.955 51.264C32.723 52.071 32.717 53.002 32.121 53.657C31.466 54.283 30.184 54.078 29.781 53.252C30.199 53.374 30.671 53.457 31.083 53.267C31.495 53.073 31.754 52.663 31.889 52.24C32.118 51.529 32.188 50.782 32.376 50.061Z" fill="#FCDA20"/>
<path d="M14.693 50.6949C14.959 50.8809 15.217 51.0779 15.467 51.2829C15.442 52.1979 16.048 53.0229 15.973 53.9569C15.994 54.9779 14.732 55.6619 13.853 55.2199C13.572 55.0979 13.377 54.8509 13.2 54.6089C13.972 54.8509 14.987 54.5459 15.237 53.7129C15.474 52.6659 14.875 51.6969 14.693 50.6949Z" fill="#FCDA20"/>
<path d="M65.959 51.406C66.254 51.365 66.55 51.329 66.851 51.302C66.771 51.695 66.668 52.083 66.538 52.465C66.329 52.118 66.118 51.775 65.959 51.406Z" fill="#FCDA20"/>
<path d="M81.791 53.849C82.113 53.639 82.245 53.237 82.545 53.011C83.452 53.018 84.356 53.15 85.262 53.208C85.347 53.403 85.431 53.599 85.525 53.791C84.725 53.799 83.938 53.648 83.136 53.66C82.932 53.99 82.734 54.357 82.381 54.552C81.661 54.993 80.645 54.667 80.252 53.938C80.74 54.133 81.344 54.182 81.791 53.849Z" fill="#FCDA20"/>
</svg>
