<svg width="100" height="100" viewBox="0 0 100 100" fill="none" xmlns="http://www.w3.org/2000/svg">
<rect x="0.5" y="0.5" width="99" height="99" fill="white" stroke="#008B00"/>
<path d="M26.6638 44.2263C24.1599 44.2263 21.8452 46.4372 21.8452 49.6008C21.8452 52.9864 23.8714 55.3774 26.6638 55.3774C29.4562 55.3774 31.4712 52.9864 31.4712 49.6008C31.4712 46.4372 29.1676 44.2263 26.6638 44.2263ZM51.6046 44.2933C49.8622 44.2933 48.6041 45.6818 48.6041 47.8048C48.6041 49.8305 49.5384 50.2678 50.9576 50.7534C51.4423 50.9199 52.3296 51.1831 52.3296 51.9463C52.3296 52.6817 51.7672 53.0051 51.2365 53.0051C50.4633 53.0051 49.7942 52.5161 49.2287 51.9195L48.2583 54.1175C49.1469 54.8669 50.2185 55.3104 51.3146 55.3104C52.1915 55.3104 53.0988 55.0123 53.7796 54.3186C54.4718 53.6108 54.6831 52.5447 54.6831 51.504C54.6831 49.8112 53.753 49.0793 52.5415 48.6492L51.9615 48.4348C51.5691 48.2822 50.9576 48.0535 50.9576 47.443C50.9576 46.8602 51.5126 46.5718 51.928 46.5718C52.482 46.5718 53.0072 46.8389 53.4227 47.2553L54.3262 45.1511C53.5532 44.624 52.4816 44.2933 51.6046 44.2933ZM12.3529 44.5748V55.0289H14.6172V48.6224H14.6395L18.7889 55.0289H21.0421V44.5748H18.7889V50.9679H18.7666L14.6172 44.5748H12.3529ZM32.3636 44.5748V55.0289H34.6279V51.0081H34.6502L36.7806 55.0289H39.5915L36.8587 50.74C38.0933 50.4764 38.7661 49.2345 38.7661 47.7914C38.7661 45.5575 37.4626 44.5748 35.7433 44.5748H32.3636ZM40.205 44.5748V55.0289H43.4174C45.8289 55.0289 47.8344 52.7434 47.8344 49.8018C47.8344 46.8602 45.8405 44.5748 43.4174 44.5748H40.205ZM55.7539 44.5748V55.0289H60.7064V52.7236H58.0182V50.9277H60.5725V48.6224H58.0182V46.8667H60.7064V44.5748H55.7539ZM62.1007 44.5748V55.0289H67.0531V52.7236H64.365V50.9277H66.9081V48.6224H64.365V46.8667H67.0531V44.5748H62.1007ZM34.6279 46.6522H34.8398C35.5783 46.6522 36.4125 46.8145 36.4125 47.9523C36.4125 49.09 35.5783 49.2523 34.8398 49.2523H34.6279V46.6522ZM26.6638 46.8532C28.0137 46.8532 29.1177 48.1712 29.1177 49.6142C29.1177 51.418 28.0137 52.737 26.6638 52.737C25.3137 52.737 24.1987 51.4181 24.1987 49.6142C24.1987 48.1712 25.3137 46.8533 26.6638 46.8532ZM42.4693 46.8667H43.0047C44.4586 46.8667 45.4809 47.9286 45.4809 49.8018C45.4809 51.8415 44.3323 52.7236 42.9824 52.7236H42.4693V46.8667Z" fill="#003B78"/>
<path d="M72.9345 49.9999C73.0368 50.1966 74.4173 52.2752 77.3065 52.4596V56.1595C71.7037 55.9083 68.9858 50.6012 68.7356 49.9999C68.9858 49.3986 71.7037 44.0916 77.3065 43.8404V47.5404C74.4173 47.7247 73.0368 49.8033 72.9345 49.9999ZM78.2792 52.4459C79.5782 52.3196 81.0554 51.7153 82.774 49.9999C81.0554 48.2847 79.5782 47.6805 78.2792 47.5541V43.849C81.3042 44.0431 83.3022 45.796 84.7993 47.5643C85.8146 46.1394 86.8651 44.3953 87.6471 42.8265V48.0796C87.5021 48.4105 87.0407 49.2106 86.557 49.9891C87.0506 50.7815 87.5131 51.5954 87.6471 51.9202V57.1734C86.8675 55.6094 85.8209 53.8712 84.8087 52.4488C83.2679 54.3121 81.3226 55.9705 78.2792 56.1521" fill="#E70018"/>
</svg>
