<svg width="100" height="100" viewBox="0 0 100 100" fill="none" xmlns="http://www.w3.org/2000/svg">
<rect x="0.5" y="0.5" width="99" height="99" fill="white" stroke="#008B00"/>
<g clip-path="url(#clip0_26_16)">
<path d="M10 39V60.9197H13.6V51.1642C20.16 60.157 30.8 61.4015 35.28 60.9197V39H31.72V57.2263C16.84 55.6205 13.44 44.4197 13.6 39H10ZM40.76 39H37.08C36.8 48.3942 44.52 52.0475 48.4 52.6496V60.8796H52.28V52.6496C61.92 50.8029 63.88 42.7737 63.68 39H59.96C59.96 52.8905 40.32 52.1679 40.76 39V39ZM68.52 39H64.96C64.24 44.7409 68.76 48.5949 71.08 49.7993C65.48 52.9708 64.56 58.4708 64.8 60.8394H68.52C69.16 47.792 86.96 49.7993 86.4 60.8394H89.92C90.4 55.3394 86.12 51.2044 83.88 49.7993C89.48 46.5876 90.24 41.2482 89.92 39H86.4C85.84 52.3285 67.76 49.719 68.52 39Z" fill="black"/>
</g>
<defs>
<clipPath id="clip0_26_16">
<rect width="80" height="22" fill="white" transform="translate(10 39)"/>
</clipPath>
</defs>
</svg>
