<svg width="100" height="100" viewBox="0 0 100 100" fill="none" xmlns="http://www.w3.org/2000/svg">
<rect x="0.5" y="0.5" width="99" height="99" fill="white" stroke="#008B00"/>
<path d="M21.9894 48.9893C21.9894 48.9893 15.671 55.9976 12.6583 70.8866C12.6583 70.8866 12.1563 74.568 13.5928 74.7316C15.0153 74.895 15.8802 72.7955 16.3824 71.5137C16.5916 70.9684 25.8808 49.9711 24.1931 48.8255C24.1931 48.8255 29.9951 48.5119 30.6231 52.3707C31.2647 56.2155 25.1555 59.2016 23.37 59.5561C21.571 59.8971 21.6128 60.6061 21.7245 60.7013C21.8361 60.7964 22.2265 61.3014 24.542 60.9606C26.8573 60.6061 32.1853 59.038 34.5006 54.225C34.5006 54.225 36.7325 49.671 32.5759 46.3305C28.4055 42.9765 22.2963 44.6671 20.009 46.1261C17.7077 47.585 18.5306 49.1802 18.7537 49.3983C18.9904 49.6301 19.5206 49.9164 21.9894 48.9893V48.9893ZM41.9262 44.8293C41.9262 44.8293 41.9955 43.9974 42.6096 43.9156C43.2372 43.8338 43.6696 43.9974 43.7951 45.7701C43.9347 47.5563 43.0421 50.1468 41.5915 52.642C40.9359 53.7871 39.6947 56.5959 39.7225 56.8822C39.7225 56.8822 40.1549 58.0549 38.7602 58.0413C37.3655 58.0279 36.5006 55.8597 36.7239 54.1418C36.9468 52.4239 37.4627 50.5696 41.926 44.8291L41.9262 44.8293ZM53.7594 45.8452C53.7594 45.8452 50.0074 46.6086 47.9572 46.4042C47.9572 46.4042 44.8468 46.0087 45.6976 44.2635C45.6976 44.2635 46.0602 43.5409 46.9249 43.5952C47.7896 43.6494 48.8915 43.7863 50.4119 43.5409C51.9321 43.3091 56.479 43.1864 57.0788 43.2546C57.6784 43.3229 58.5572 43.9228 58.1666 45.1499C57.7623 46.3768 54.6099 49.7584 54.6099 49.7584L49.5888 54.4078C49.5888 54.4078 52.9362 53.7534 56.9254 54.4213C60.9146 55.0897 63.0482 55.2668 63.9968 55.1575C64.9311 55.0486 66.563 54.7076 66.9954 54.5303C67.4279 54.3529 67.8046 54.4894 67.9578 54.7485C68.1252 55.0077 68.0556 55.3895 67.4001 55.7847C66.7444 56.1797 64.4709 57.6255 60.1891 57.4755C55.9072 57.3255 53.4105 57.3528 53.4105 57.3528C53.4105 57.3528 48.5982 57.2846 45.9623 58.0345C45.9623 58.0345 43.8841 59.1116 42.9915 58.1163C42.0988 57.1212 42.7823 55.8258 43.2425 55.103C43.9123 54.0668 47.3435 50.9718 53.7594 45.8452" fill="#221E1F"/>
<path d="M59.2632 42.4187C59.2632 42.4187 58.8728 41.4505 59.4724 40.9053C59.6395 40.7417 60.0163 40.5645 60.2953 40.5507C60.5742 40.5507 60.7696 40.6599 61.1879 40.7143C61.5645 40.7826 68.4965 39.8006 68.4965 39.8006C68.4965 39.8006 70.6445 39.4734 71.8161 40.6599C72.8067 41.6825 71.0073 43.564 71.0073 43.564C71.0073 43.564 65.0094 49.577 64.8004 49.6448C64.8004 49.6448 66.4881 49.8224 66.9624 49.8769C67.4367 49.9313 70.1563 50.3812 71.091 50.2449C72.0253 50.1087 72.2347 50.0814 72.3461 50.0542C72.4716 50.0133 73.0573 49.8497 73.2108 50.3267C73.3779 50.8175 72.7786 51.5403 71.1047 52.2629C69.4169 52.9857 66.9483 53.0537 65.9024 53.0128C64.8698 52.9448 61.9551 52.8221 60.8953 52.9039C59.821 52.9855 58.6912 53.272 58.5659 53.272C58.4124 53.2856 57.3385 53.2175 57.952 51.5812C58.5659 49.9451 60.2953 48.7315 60.2953 48.7315L67.2132 43.2093C67.2132 43.2093 61.3412 43.9321 60.3789 43.5365C59.9326 43.3595 59.3887 42.8821 59.2632 42.4187V42.4187ZM27.1417 71.5178C28.5921 71.2589 31.047 70.9588 31.047 70.9588C31.047 70.9588 36.0403 59.8192 38.1185 59.7508C40.1969 59.683 36.0822 69.9224 36.0822 69.9224L42.1913 68.6546C42.1913 68.6546 43.6138 63.7867 44.9669 61.578C46.3056 59.3694 46.7522 59.2876 46.9754 59.2876C47.1985 59.2876 48.0912 59.3285 47.9238 60.3509C47.7565 61.3738 46.6824 67.4546 46.6824 67.4546L48.3701 66.8411C48.3701 66.8411 48.7607 66.6502 48.9838 67.0047C49.2069 67.3728 48.5932 67.8364 48.5932 67.8364L46.2081 69.3498C46.2081 69.3498 44.5624 76.3581 43.9207 77.299C43.2791 78.2396 42.4981 78.7851 41.7309 78.7306C40.9779 78.6762 40.2246 77.9398 40.2942 76.2355C40.3499 74.5311 41.0613 72.1042 41.1032 71.9132C41.1032 71.9132 35.5519 74.081 34.7011 74.1628C34.7011 74.1628 32.846 81.4572 32.2883 82.3983C31.7442 83.3389 30.5728 83.9524 29.6383 83.8434C28.3689 83.6934 28.1876 81.9755 28.1738 80.9527C28.1595 79.9302 28.9689 76.5896 29.6103 74.6674C29.6103 74.6674 26.7511 74.3673 26.2629 73.6992C26.2629 73.6992 25.8446 73.2218 25.956 72.4583C26.0815 71.6814 27.1417 71.5178 27.1417 71.5178" fill="#221E1F"/>
<path d="M63.0891 75.4829C63.0891 75.4829 71.4297 72.974 76.4646 72.415C81.4999 71.8424 83.8013 71.6924 83.8013 71.6924C83.8013 71.6924 84.3034 71.5833 84.415 72.1289C84.5128 72.6332 83.7313 72.7424 83.7313 72.7424C68.3334 77.2555 57.468 81.7957 56.1848 82.3276C54.9713 82.8048 39.3221 89.5266 39.3221 89.5266C39.3221 89.5266 37.3972 90.2083 35.8351 89.9356C34.259 89.6631 33.9521 88.9541 33.8265 88.2586C33.8265 88.2586 33.3663 86.6905 35.6398 85.9408C37.7317 85.2455 43.339 82.7913 43.339 82.7913L58.0819 77.0783L63.0891 75.4829V75.4829Z" fill="#FCC607"/>
<path d="M82.7678 44.3997C82.6423 44.7269 82.6005 45.2181 82.6005 45.2181C82.6005 45.2181 80.6337 46.3225 79.7413 46.6635C78.8205 47.018 77.6909 46.9498 77.6909 46.9498C78.8205 43.2003 83.6325 42.464 83.6325 42.464C83.6325 42.464 82.8933 44.0863 82.7678 44.3999V44.3997ZM89.9509 46.7586C89.8811 46.4859 88.3609 46.3088 87.8029 46.2539C87.245 46.2132 86.757 45.9405 86.5199 45.3134C86.2966 44.7135 87.1054 42.8183 87.468 41.482C87.8448 40.1457 87.0913 39.6685 86.6593 39.6276C86.2407 39.5867 85.7107 39.9686 85.7107 39.9686C80.1178 38.8232 73.7854 44.6042 73.4227 47.1676C73.1578 49.0355 73.7017 50.3582 75.2917 50.6854C76.8678 51.0126 78.3046 50.4536 79.546 49.9764C80.7733 49.5265 83.2282 47.6721 83.2282 47.6721C83.465 48.2585 84.7903 48.8446 86.0038 48.8857C87.217 48.9402 89.3234 47.9858 89.686 47.7404C90.0485 47.5086 90.0346 47.0314 89.9509 46.7586" fill="#221E1F"/>
<path d="M47.208 34.3524C47.208 34.3524 47.8496 34.0388 48.1145 34.3115C48.3794 34.5842 48.2261 34.9932 48.0166 35.3613C47.8076 35.7296 44.8645 40.1743 43.8743 41.0331C43.2465 41.5652 42.3539 41.6606 41.6565 41.2514C40.9453 40.856 41.0429 39.5197 41.2939 38.9609C41.5449 38.4019 42.3816 36.8338 44.1112 35.784C45.8272 34.7478 47.208 34.3524 47.208 34.3524" fill="#009867"/>
<path d="M85.507 28.4773L84.2658 27.632C80.7509 24.9459 66.4964 19.4239 66.4964 19.4239C66.4964 19.4239 65.4923 17.2152 64.9202 16.1379C63.3162 13.1111 60.9035 10.725 60.7917 10.6432C60.6664 10.575 60.5547 10.575 60.5547 10.575L60.4431 10.6023L56.2586 11.693L46.6627 14.4062C46.6627 14.4062 40.0794 16.4244 39.7724 16.5335C39.4657 16.6562 39.2424 16.8607 39.2424 16.8607C39.2424 16.8607 36.9969 20.6373 36.8155 21.0738C36.6202 21.5101 34.04 26.3913 34.04 26.3913L27.6241 29.3499C27.0383 29.6635 27.0383 29.6364 22.6028 32.2543L17.233 35.9219C17.233 35.9219 12.142 39.6851 11.7236 40.0666C11.305 40.4347 10.831 41.239 11.2771 41.9345C11.7095 42.6298 12.8114 42.5071 12.8114 42.5071L17.9581 41.1844L28.2934 38.6212L40.5953 36.1124L42.2831 35.8262C42.6457 35.499 43.0641 35.1718 43.5382 34.8855C45.1841 33.89 46.5371 33.4539 46.8439 33.3583C47.4855 33.072 48.3223 33.0038 48.8941 33.5764C49.1312 33.8082 49.3404 34.1763 49.3265 34.6808L50.0239 34.5581H50.0516L63.2043 32.8947C63.2043 32.8947 71.6011 32.0628 74.4184 31.981C81.225 31.7767 84.5025 30.7814 84.5025 30.7814C84.7815 30.6587 85.7019 30.345 85.8834 29.6089C86.0648 28.8727 85.507 28.4771 85.507 28.4771" fill="#EE1C23"/>
<path d="M67.5101 63.7612C67.5101 63.7612 63.9258 63.7748 63.842 62.4658C63.7583 61.1567 65.2787 60.8706 65.9622 61.2114C65.9622 61.2114 66.3528 61.2932 66.7295 61.2387C67.1061 61.1842 68.975 60.857 68.975 60.857C68.975 60.857 71.7926 56.3982 72.3085 55.9349C72.3085 55.9349 72.8663 55.1988 73.7591 55.7849C74.6516 56.3848 74.0099 57.7618 74.0099 57.7618L72.8383 60.0798L81.2767 58.539C81.2767 58.539 81.7928 58.4163 81.8906 58.8255C81.9742 59.1663 81.0814 59.5477 81.0814 59.5477C81.0814 59.5477 72.3922 62.9566 71.4716 63.1066L69.0724 69.4468L67.1058 75.146C67.1058 75.146 66.8689 75.6094 66.3805 75.5823C65.8922 75.5687 65.655 74.7372 65.6411 74.5325C65.6132 74.328 65.4322 71.3283 65.7946 69.3103C66.1573 67.2926 67.5101 63.8021 67.5101 63.8021V63.7612ZM50.267 66.177C50.267 66.177 49.9881 65.5499 49.4021 65.2636C48.8164 64.9636 48.7185 64.6771 48.9976 64.3774C49.2487 64.091 50.4205 63.7775 51.5919 64.0092C52.7774 64.2274 53.5864 65.618 53.6842 66.5726C53.7819 67.5272 53.6562 69.0951 53.0005 70.7448C53.0005 70.7448 58.2168 67.5679 59.2771 65.8362C59.2771 65.8362 60.5742 63.2457 61.174 62.7818C61.174 62.7818 62.3875 61.8821 62.9036 63.2319C62.9036 63.2319 62.9454 64.2953 62.555 66.4359C62.1644 68.5766 62.1364 72.7218 62.206 72.8445C62.276 72.981 62.7781 73.6625 61.983 74.1123C61.983 74.1123 61.425 74.2897 60.6299 73.6625C59.835 73.0352 58.4542 71.8628 58.5238 69.5039C58.5238 69.5039 56.0275 73.0217 53.9213 73.9486C51.8152 74.8758 50.9083 74.9712 49.5836 74.003C48.2585 73.0488 49.1791 70.09 49.1791 70.09C49.1791 70.09 50.2252 67.0087 50.2393 66.9405C50.253 66.8587 50.3923 66.4361 50.267 66.177V66.177ZM34.0974 25.1572C34.0835 25.2116 33.9719 25.2254 33.8741 25.1845C33.7625 25.1436 33.637 25.0209 33.7486 24.7346C33.8464 24.4346 36.3011 19.4989 37.9052 16.8537C37.9052 16.8537 38.0582 16.4038 38.6862 16.2129C39.2999 16.022 54.977 11.6318 54.977 11.6318L59.0358 10.6091C59.0358 10.6091 59.8032 10.4864 60.082 11.2635C60.3471 12.0409 59.5799 12.3681 59.4126 12.4226C59.2591 12.4904 49.8305 15.3812 49.8305 15.3812L39.2303 17.8221C39.2301 17.8219 34.1254 25.1165 34.0974 25.1574V25.1572ZM62.6554 10.2011C62.6554 10.2011 62.5997 10.0649 62.7248 10.0104C62.8505 9.95594 62.9483 10.1331 62.9483 10.1331C62.9483 10.1331 64.0224 12.0557 64.1618 12.4782C64.3011 12.9008 66.6024 19.1183 66.6024 19.1183C66.6024 19.1183 74.4132 21.3407 74.8177 21.4498C75.2361 21.5588 83.7022 24.4631 88.0122 26.6447C88.0122 26.6447 88.4167 26.8356 88.4588 26.8627C88.5008 26.8899 88.9606 27.3264 88.7375 27.8718C88.5285 28.4037 87.9702 28.499 87.7892 28.4855C87.6081 28.4719 86.6316 28.1036 86.6316 28.1036C86.6316 28.1036 71.1079 22.6496 67.0769 21.709C67.0769 21.709 65.0544 21.0544 64.7613 20.4274C64.4826 19.8002 63.9665 16.487 63.9665 16.487L62.6554 10.2011ZM81.1612 29.1686C80.8681 27.6823 78.3018 27.6005 77.9255 27.6416C77.5487 27.6687 51.9409 30.9685 50.2393 31.241C40.978 32.7271 25.0776 36.6267 25.0776 36.6267L15.3282 39.4355C15.5096 39.081 23.3064 33.6953 23.7666 33.3545C24.2268 33.0138 33.265 27.5869 33.265 27.5869C33.265 27.5869 33.9903 27.3144 33.7531 26.8781C33.5578 26.4829 33.1813 26.6054 33.1813 26.6054C33.1813 26.6054 32.6233 26.8372 31.0054 27.5051C27.8672 28.8143 22.8319 31.7731 22.8319 31.7731C18.857 33.9273 10.5161 40.5402 10.5161 40.5402C10.5161 40.5402 9.69327 41.0856 10.1255 42.0672C10.5439 43.0625 11.6737 42.9398 11.6737 42.9398L23.7802 39.7493C24.6729 39.3539 40.4756 36.2042 40.4756 36.2042L42.1911 35.9043C42.5817 35.5498 43.014 35.1953 43.544 34.8819C45.1758 33.8864 46.5287 33.4503 46.8356 33.3547C47.4772 33.082 48.3281 33.0002 48.886 33.573C49.137 33.8184 49.3601 34.2002 49.3323 34.7319L50.0297 34.6227L50.0436 34.6092C59.0399 33.0958 78.8455 31.8142 78.8455 31.8142C79.5712 31.7044 81.5377 31.0638 81.1612 29.1686ZM83.9938 75.5699H84.1753C84.3843 75.5699 84.5794 75.4881 84.5794 75.2974C84.5794 75.1609 84.4679 75.0247 84.1753 75.0247C84.0916 75.0247 84.0357 75.0247 83.9936 75.0382V75.5701L83.9938 75.5699ZM83.9938 76.4425H83.7428V74.8744C83.8683 74.8473 83.9938 74.8337 84.1894 74.8337C84.4402 74.8337 84.5934 74.8746 84.6912 74.9429C84.7889 75.0247 84.8447 75.1202 84.8447 75.2701C84.8447 75.4885 84.7051 75.6112 84.5238 75.6521V75.6657C84.6634 75.693 84.761 75.8153 84.8028 76.0607C84.8308 76.3061 84.8726 76.4018 84.9006 76.4425H84.6353C84.5936 76.4018 84.5516 76.2518 84.5238 76.0473C84.4822 75.8428 84.3845 75.7608 84.1755 75.7608H83.9938V76.4425ZM84.2587 74.4248C83.6312 74.4248 83.101 74.9564 83.101 75.6246C83.101 76.2927 83.6312 76.8246 84.2724 76.8246C84.9136 76.8246 85.4304 76.2927 85.4304 75.6246C85.4304 74.9564 84.914 74.4248 84.2726 74.4248H84.2587ZM84.2728 74.2065C85.0679 74.2065 85.6957 74.8337 85.6957 75.6244C85.6957 76.4288 85.0679 77.0424 84.2589 77.0424C83.4779 77.0424 82.8361 76.4288 82.8361 75.6244C82.8361 74.8335 83.4779 74.2065 84.2589 74.2065H84.2728V74.2065Z" fill="#221E1F"/>
</svg>
