<svg width="100" height="100" viewBox="0 0 100 100" fill="none" xmlns="http://www.w3.org/2000/svg">
<rect x="0.5" y="0.5" width="99" height="99" fill="white" stroke="#008B00"/>
<path d="M12.0772 55.6019H10V44.2844H12.73C15.6973 44.2844 17.2404 46.3886 17.2404 48.4929C17.2404 50.5972 15.638 52.7014 13.0267 52.7014H12.0772V55.6019ZM12.0772 50.8246H12.908C14.3917 50.8246 15.1039 49.6303 15.1039 48.4929C15.1039 47.3555 14.3323 46.1611 12.6706 46.1611H12.0772V50.8246V50.8246ZM22.997 55.7725C20.2671 55.7725 18.4273 53.9526 18.4273 51.2227V44.2844H20.5638V51.1659C20.5638 52.9289 21.454 53.8389 23.0564 53.8389C25.0742 53.8389 25.4896 52.3602 25.4896 51.1659V44.2844H27.6261V51.2227C27.5668 53.9526 25.727 55.7725 22.997 55.7725V55.7725ZM34.7478 55.6019H28.9911V44.2844H31.1276V53.6682H34.7478V55.6019ZM41.3353 55.6019H35.5786V44.2844H37.7151V53.6682H41.3353V55.6019ZM57.181 55.6019H53.5608V44.2844H55.7567C57.003 44.2844 58.0119 44.3412 58.724 44.7962C59.7923 45.3649 60.3264 46.3318 60.3264 47.5261C60.3264 48.3223 59.9703 49.0047 59.3769 49.5166C60.5045 50.0853 61.0979 50.9953 61.0979 52.3033C61.1573 54.1232 59.3769 55.6019 57.181 55.6019V55.6019ZM55.638 53.6682H56.7656C58.9614 53.6682 58.9614 52.5308 58.9614 52.1896C58.9614 51.8483 58.9614 50.7109 56.8249 50.7109H55.638V53.6682V53.6682ZM55.638 48.891H56.4688C57.2404 48.891 58.1899 48.6635 58.1899 47.5261C58.1899 46.9573 58.0119 46.1611 56.3501 46.1611H55.5786L55.638 48.891V48.891ZM69.4659 55.6019H62.2255V44.2844H69.4659V46.218H64.362V48.891H69.1691V50.7678H64.362V53.6682H69.4659V55.6019ZM81.454 55.6019H79.0208L77.8338 52.6445H73.5015L72.3145 55.6019H70.0593L74.8665 44.3412H76.5282L81.454 55.6019V55.6019ZM74.2136 50.7678H77.0623L75.638 47.3555L74.2136 50.7678V50.7678ZM86.3205 53.6682C86.6172 54.2938 86.9733 54.9194 87.3887 55.545H90C89.4065 54.6919 88.8131 53.6114 88.3383 52.7014L87.4481 50.9953C87.9822 50.7109 88.457 50.3128 88.8131 49.8009C89.1691 49.2322 89.3472 48.6066 89.3472 47.8673C89.3472 45.6493 87.6261 44.3412 84.8368 44.3412H81.9881V55.6019H84.0653V51.7915C84.0653 51.7915 84.5994 51.7915 85.3116 51.6777C85.549 52.1327 85.9051 52.872 86.3205 53.6682V53.6682ZM84.0653 49.7441V46.218H84.7181C86.3798 46.218 87.2107 46.7867 87.2107 47.9242C87.2107 49.4597 85.905 49.8009 84.7774 49.8009H84.0653V49.7441ZM50.2374 52.9858C50.2374 52.5877 50.2967 52.2464 50.4154 51.9052C50.6528 51.2796 51.0089 50.8246 51.4837 50.7678H51.543V48.891C50.0593 48.891 48.8724 49.8578 48.5163 51.1659L45.4303 47.9242C45.1335 47.6398 45.0148 47.3555 45.0148 47.0711C45.0148 46.7867 45.1335 46.5024 45.3709 46.2749C45.6083 46.0474 45.905 45.9336 46.2018 45.9336C46.4985 45.9336 46.7953 46.0474 47.0326 46.2749C47.1513 46.3886 47.2107 46.5024 47.27 46.6161L49.0504 45.763C48.8724 45.4787 48.6944 45.1943 48.457 44.91C47.8635 44.3412 47.0326 44 46.2018 44C45.3709 44 44.5994 44.2844 43.9466 44.91C43.3531 45.4787 42.997 46.2749 42.997 47.0711C42.997 47.8104 43.2938 48.6066 43.8872 49.1754C42.819 49.8009 42.0475 50.9384 42.0475 52.2464C42.0475 54.2938 43.7685 56 45.9644 56C47.2107 56 48.3383 55.4882 49.1098 54.6919L49.9407 55.545H52.73L50.2374 52.9858ZM46.0237 54.1232C44.9555 54.1232 44.1246 53.2701 44.1246 52.2464C44.1246 51.5071 44.6588 50.8815 45.3709 50.654L47.8635 53.2701C47.3887 53.782 46.7359 54.1232 46.0237 54.1232V54.1232Z" fill="#1D1D1B"/>
</svg>
