<svg width="100" height="100" viewBox="0 0 100 100" fill="none" xmlns="http://www.w3.org/2000/svg">
<rect x="0.5" y="0.5" width="99" height="99" fill="white" stroke="#008B00"/>
<path fill-rule="evenodd" clip-rule="evenodd" d="M10 10H90V90H10V10Z" fill="white"/>
<path fill-rule="evenodd" clip-rule="evenodd" d="M13.5392 48.3198C13.223 47.8454 13.0387 47.3623 13.3815 46.7563C13.6799 46.3259 14.1278 46.1329 14.8658 46.3786C15.2256 46.5894 15.5153 46.8264 15.8055 47.1161C16.0869 46.6243 16.3674 46.1586 16.6489 45.6672C15.4809 44.8852 14.2336 44.3846 12.8631 45.1139C11.8707 45.8606 11.1593 46.809 11.8006 48.7502C11.9587 49.0665 12.2924 49.5492 12.556 49.7688C13.4342 50.4889 14.0755 51.2883 14.9538 52.0877C15.4896 52.9307 15.27 53.6334 14.5321 54.2398C13.8646 54.5033 13.1179 54.2045 12.2571 53.2387C11.8881 53.6425 11.5283 54.0555 11.1589 54.4589C11.8703 55.3289 12.7838 55.9785 14.4353 55.8822C15.6299 55.7415 16.1479 55.1446 16.5609 54.4855C17.3424 52.9664 16.9124 51.7976 16.1657 50.9372C15.2875 50.0676 14.4179 49.1893 13.5392 48.3198V48.3198ZM26.0117 54.0729C26.0993 51.0251 26.0906 47.9687 26.0117 44.9122H24.4748C24.5802 48.5925 24.6151 52.2197 24.3781 55.5572H27.9264L27.8824 54.0464L26.0117 54.0729V54.0729ZM86.4131 45.2807C86.0734 45.03 85.7085 44.8152 85.3244 44.6399C84.7922 44.4084 84.2306 44.2517 83.6554 44.1742C83.4135 44.1464 83.1702 44.1318 82.9266 44.1306C82.6195 44.1306 82.3202 44.1568 82.0218 44.2008C81.6179 44.2622 81.2224 44.3676 80.8447 44.517C80.6251 44.5959 80.4143 44.6926 80.2125 44.798C80.0814 44.8682 79.949 44.9387 79.8178 45.0263C78.9688 45.5529 78.2683 46.2876 77.7825 47.1606C77.2967 48.0336 77.0418 49.0162 77.0419 50.0153C77.0419 52.123 78.1485 53.9675 79.8178 55.013C79.949 55.0919 80.0814 55.1712 80.2125 55.2413C80.4143 55.3467 80.6251 55.443 80.8447 55.5223C81.2224 55.663 81.6179 55.7684 82.0218 55.8294C82.3202 55.8826 82.619 55.9 82.9266 55.9C83.1723 55.9 83.4189 55.8913 83.6554 55.8564C84.2323 55.7873 84.7951 55.6303 85.3244 55.3907C85.7112 55.2152 86.0798 55.0043 86.4131 54.7499C87.8625 53.6782 88.8109 51.957 88.8109 50.0157C88.8109 48.0828 87.8625 46.3611 86.4131 45.2807V45.2807ZM86.4131 53.9584C85.6404 54.6469 84.6806 55.0904 83.6554 55.2326C83.4189 55.2675 83.1723 55.2849 82.9266 55.2849C82.6195 55.2849 82.3123 55.2587 82.0218 55.206C81.3819 55.0953 80.7683 54.866 80.2125 54.5299C80.0814 54.451 79.949 54.363 79.8178 54.2663C78.5087 53.3088 77.6566 51.7631 77.6566 50.0153C77.6566 48.2762 78.5087 46.7305 79.8178 45.7643L80.2125 45.5007C80.4143 45.3866 80.6251 45.2724 80.8447 45.1844C81.2137 45.0176 81.6092 44.9035 82.0218 44.8242C82.3212 44.7783 82.6237 44.7548 82.9266 44.754C83.1723 44.754 83.4189 44.7715 83.6554 44.7976C84.244 44.8852 84.8064 45.0612 85.3244 45.3247C85.7191 45.5356 86.0881 45.7817 86.4131 46.0797C87.5026 47.046 88.1966 48.4514 88.1966 50.0145C88.1966 51.5776 87.5026 52.9925 86.4131 53.9584V53.9584ZM19.4331 44.947C18.9059 48.5128 18.2734 52.079 17.4831 55.636H19.2135L19.5646 53.8181H21.3477L21.6379 55.5742H23.3591C22.6868 52.0412 22.1447 48.4846 21.7341 44.9118L19.4331 44.947ZM19.7842 52.3513L20.452 48.4339L20.6189 47.5025L21.1286 52.3156L19.7842 52.3513V52.3513ZM30.3765 44.947C29.8411 48.5128 29.2085 52.079 28.427 55.636H30.1482L30.4998 53.8181H32.2912L32.5721 55.5742H34.3025C33.6264 52.0611 33.0906 48.5128 32.6689 44.9118L30.3765 44.947ZM30.728 52.3513L31.3955 48.4339L31.5536 47.5025L32.0633 52.3156L30.728 52.3513ZM68.065 46.2208L67.9945 44.7627L64.112 44.7976C64.2004 48.3812 64.2174 51.9644 64.112 55.548L67.9945 55.4696V54.0464H65.6411V51.06L67.8542 51.0953L67.8193 49.6023L65.649 49.6285L65.6755 46.2208H68.065ZM60.5998 44.7802C60.3862 44.7339 60.1683 44.7104 59.9498 44.71L58.1754 44.6926C58.1842 48.3464 58.1406 51.9827 57.9559 55.5485H60.2922C60.3977 55.5223 60.5031 55.4957 60.6002 55.4609C62.4356 54.8549 63.2001 52.6327 62.9009 48.7855C62.8569 46.4578 62.0575 45.0877 60.5998 44.7802V44.7802ZM61.4776 51.3061C61.4519 52.4131 61.1527 53.1855 60.5998 53.6334C60.3362 53.8446 60.0112 53.9849 59.6335 54.0464C59.756 51.4639 59.7298 48.8029 59.6684 46.1154C60.0283 46.1154 60.3362 46.2208 60.5998 46.4404C61.0036 46.7833 61.2846 47.3801 61.4428 48.2497C61.6009 49.3209 61.61 50.3399 61.4776 51.3061V51.3061ZM73.6604 48.7768C73.748 47.9334 73.721 47.0904 73.4757 46.247C73.0889 45.3774 72.4833 44.7627 71.3768 44.6922H69.0487C69.128 48.3198 69.1101 51.9383 69.023 55.5659H70.6745C70.5604 54.3278 70.6309 53.0979 70.6131 51.8594L71.3776 53.159L72.9494 55.812L74.4079 54.9163L71.8607 50.8583C72.7905 50.542 73.396 49.848 73.6604 48.7768V48.7768ZM71.3768 49.4616C71.1429 49.5982 70.8738 49.6623 70.6035 49.6459L70.5159 45.9656C70.858 45.9569 71.1394 46.0096 71.3768 46.1237C71.8155 46.3346 72.0878 46.7471 72.2289 47.3095C72.2816 47.977 72.1845 48.5568 71.8861 49.0221C71.7188 49.2155 71.5519 49.3653 71.3768 49.4616Z" fill="#566E6D"/>
<path fill-rule="evenodd" clip-rule="evenodd" d="M87.1863 50.1025C87.0195 49.5579 86.7559 49.1893 86.4131 48.9524C86.1059 48.7415 85.7369 48.6448 85.3244 48.6361C85.2629 48.6361 85.2011 48.6448 85.1397 48.6448C84.9728 48.7062 84.8591 48.6801 84.938 48.2937C84.938 47.9334 84.9292 47.5735 84.244 47.5208C84.1734 47.398 84.1037 47.2747 84.0244 47.1605C83.9895 47.178 83.9638 47.2045 83.9281 47.2307V47.327C83.9111 47.4058 83.8405 47.4237 83.7613 47.4324C83.7249 47.4401 83.6895 47.452 83.6558 47.4677C83.621 47.4764 83.5944 47.4851 83.5595 47.4938V47.5814C83.5861 47.5988 83.6123 47.6254 83.6388 47.6516C83.6475 47.6603 83.6475 47.6777 83.6558 47.6868C83.6737 47.7217 83.6737 47.7483 83.6558 47.757C83.6475 47.7657 83.6475 47.7657 83.6388 47.7657C83.6031 47.8097 83.5683 47.8537 83.5334 47.8977C83.5504 47.9238 83.5591 47.9504 83.577 47.9766C83.5898 47.9816 83.6036 47.9834 83.6173 47.9819C83.6309 47.9804 83.644 47.9755 83.6554 47.9678C83.675 47.9595 83.6928 47.9477 83.7081 47.933C83.6733 48.0645 83.7081 48.1438 83.7169 48.2318C83.8488 48.1965 83.9804 48.1617 84.1124 48.1177C84.4108 48.0915 84.4635 48.3987 83.9543 48.7502C83.8571 48.8029 83.7517 48.8552 83.655 48.8992C83.4184 49.0134 83.1719 49.0835 82.9262 49.1454C82.8469 49.1628 82.7772 49.1802 82.6975 49.1981C82.5314 49.2682 82.399 49.2769 82.4518 48.8818C82.5393 48.7062 82.5045 48.5829 82.4082 48.4862C82.2671 48.2932 82.1708 48.0471 82.1625 47.6956C82.118 47.7043 82.0832 47.7043 82.0392 47.7134C82.037 47.7266 82.0308 47.7388 82.0213 47.7483C82.0035 47.7744 81.9686 47.7919 81.9072 47.7657C81.8118 47.7483 81.7199 47.7157 81.6349 47.669C81.6092 47.7483 81.5913 47.8271 81.6349 47.9766C81.5473 48.0027 81.4768 47.9853 81.3892 47.994C81.4419 48.1081 81.4598 48.2314 81.4158 48.3543C81.3882 48.4111 81.3646 48.4697 81.3452 48.5298C81.5033 48.556 81.6702 48.5647 81.8375 48.5825C81.9429 48.6352 81.9686 48.7054 81.9429 48.8021C81.8375 48.9424 81.7403 49.0831 81.6349 49.2238C81.5473 49.3379 81.4419 49.3728 81.3278 49.3292C81.1261 49.2939 81.0376 48.9955 80.9937 48.5825C80.9409 48.4418 80.8974 48.3103 80.8447 48.1783C80.6778 47.7653 80.4757 47.4141 80.2125 47.2033C80.0989 47.1055 79.9636 47.0362 79.8178 47.0012C79.7912 46.9925 79.7651 46.9837 79.7385 46.9837V47.0099C79.5368 47.1327 79.3695 47.3614 79.299 47.8093C79.1408 48.5381 79.3434 49.03 79.7124 49.399C79.7472 49.4778 79.7821 49.5484 79.8178 49.6272C79.9311 49.8729 80.0457 50.1191 80.2125 50.3386C80.3615 50.5404 80.5554 50.7163 80.8447 50.8658C80.9152 50.9006 80.9858 50.9359 81.0642 50.9621C81.0821 51.1816 81.0377 51.3746 80.9239 51.5066C80.9152 51.5768 80.8882 51.5855 80.8447 51.5676C80.8276 51.5676 80.8189 51.5589 80.8011 51.5502C80.7305 51.4622 80.6699 51.3742 80.5993 51.2866C80.5288 51.2692 80.5031 51.1812 80.4325 51.1638C80.4068 51.1725 80.354 51.2775 80.3619 51.3393C80.315 51.3182 80.2644 51.3062 80.2129 51.3041C80.1693 51.3041 80.1254 51.3041 80.0726 51.3128C80.0291 51.3829 80.0897 51.4618 80.1424 51.5411C80.0818 51.6116 80.0021 51.6552 79.9406 51.7258C79.9779 51.817 80.0467 51.8919 80.1345 51.9366C80.1872 51.9802 80.1694 52.0242 80.1694 52.0678C80.1428 52.1031 80.1872 52.1205 80.2129 52.1383L80.2216 52.147C80.4325 52.042 80.6433 51.9628 80.8451 52.042C81.0916 52.0595 81.2846 52.042 81.3896 51.9366C81.5478 51.7519 81.671 51.5323 81.7059 51.2514C81.786 51.1821 81.8904 51.1475 81.996 51.1551H82.0218C82.3275 51.155 82.6319 51.1137 82.9266 51.0322C83.1723 50.9708 83.4188 50.8828 83.6554 50.7948C83.7787 50.7512 83.8928 50.6985 84.0161 50.6545C84.068 50.7682 84.244 50.8654 84.2348 50.9795C84.2348 51.0579 84.2705 51.0405 84.3054 51.0758C84.3054 51.2074 84.2705 51.2426 84.1913 51.1638C84.0601 51.1459 83.9368 51.1285 83.8044 51.1111C83.7696 51.1638 83.7961 51.2601 83.8401 51.3568C83.7787 51.3568 83.7168 51.3568 83.6554 51.3829C83.6076 51.401 83.5654 51.4314 83.533 51.4709C83.5413 51.5589 83.5936 51.5763 83.6471 51.5938C83.6471 51.5938 83.6554 51.5938 83.6554 51.6025L83.7347 51.7079C83.7169 51.7258 83.7081 51.7432 83.6911 51.7693C83.6733 51.7781 83.6646 51.7951 83.6554 51.8221V51.8656C83.6554 51.8744 83.6641 51.8918 83.682 51.9009C83.7169 51.9271 83.7783 51.9271 83.8401 51.9096C83.9016 51.9275 83.9543 51.9449 83.9277 52.0238C83.919 52.1379 83.9804 52.1553 84.0858 52.1292C84.3092 51.8386 84.5757 51.5838 84.8761 51.3738C84.894 51.2509 84.9027 51.1372 84.8147 51.0227C84.8399 50.8531 84.8341 50.6804 84.7977 50.513C84.7977 50.3814 84.8234 50.276 85.0612 50.2934C85.1488 50.2847 85.2364 50.2847 85.3248 50.2847C85.3953 50.2847 85.4738 50.276 85.5444 50.276C85.7461 50.3021 85.9133 50.4167 86.0358 50.5831C86.4313 51.1107 85.9395 51.8831 85.3248 52.5505C85.1401 52.7526 84.9471 52.9456 84.7541 53.1216C84.9201 53.0955 85.1139 53.0249 85.3248 52.9373C85.6846 52.7705 86.0802 52.5243 86.4135 52.2172C87.0103 51.6664 87.432 50.9106 87.1863 50.1025V50.1025ZM80.2034 47.9421H80.2121C80.2648 47.9948 80.2827 48.065 80.2914 48.1355C80.3698 48.3991 80.379 48.5659 80.3084 48.7062C80.2648 48.7502 80.2387 48.7589 80.2121 48.7411C80.1864 48.7237 80.1685 48.6622 80.1507 48.583C80.1249 48.3721 80.0809 48.1438 80.0722 47.9155C80.0809 47.8458 80.1067 47.8105 80.2034 47.9421V47.9421ZM79.8431 48.8291C79.8344 48.8204 79.8253 48.8116 79.8174 48.8029C79.729 48.6888 79.6505 48.5568 79.6584 48.3024C79.6414 48.2231 79.6414 48.153 79.685 48.0915C79.7377 47.9334 79.7813 47.9599 79.8082 48.0301C79.8082 48.0475 79.817 48.065 79.817 48.0737C79.8697 48.2845 79.9224 48.4954 79.966 48.6975C80.0191 48.8556 79.9747 48.8996 79.8431 48.8291V48.8291ZM80.8447 50.41C80.8189 50.4275 80.7749 50.4275 80.6956 50.4013C80.5902 50.3839 80.4761 50.217 80.4063 50.1295C80.3372 50.0666 80.2724 49.9991 80.2125 49.9273C80.0722 49.7605 80.0195 49.611 80.0017 49.4529C80.0452 49.2861 80.1158 49.3126 80.2125 49.4089C80.2304 49.4263 80.2474 49.4442 80.2739 49.4616C80.4713 49.7088 80.6587 49.9637 80.8359 50.2257L80.8447 50.2345C80.8712 50.2959 80.8882 50.3839 80.8447 50.41V50.41ZM81.0908 49.8833C81.0115 49.8746 80.9061 49.7605 80.8442 49.6903C80.8442 49.6903 80.8355 49.6903 80.8355 49.6816C80.5811 49.4973 80.4935 49.3479 80.4578 49.1723C80.4844 49.0055 80.5632 49.0582 80.6774 49.1636L80.8442 49.3305C80.9675 49.462 81.0816 49.6027 81.1962 49.7347C81.2402 49.8132 81.2751 49.9448 81.0908 49.8833V49.8833ZM81.6876 49.8132C81.8018 49.8045 81.9072 49.7953 82.0218 49.7953C82.1799 49.7866 82.3467 49.7866 82.5049 49.7866C82.6012 49.8041 82.7244 49.8655 82.5576 49.9709C82.4962 50.0323 82.3202 50.0323 82.2235 50.041C82.145 50.0585 82.0832 50.0672 82.0218 50.0763C81.8109 50.1021 81.6706 50.0676 81.5473 49.9971C81.4332 49.8659 81.5295 49.8393 81.6876 49.8132V49.8132ZM82.592 50.5155C82.5223 50.5943 82.3198 50.6035 82.206 50.6122C82.1455 50.6308 82.0838 50.6454 82.0213 50.6557C81.7578 50.7085 81.5818 50.6819 81.4241 50.603C81.2838 50.4536 81.3892 50.4187 81.5739 50.3835C81.7219 50.3575 81.8713 50.3399 82.0213 50.3308C82.1882 50.3129 82.3555 50.3046 82.5223 50.3046C82.6277 50.3133 82.7859 50.3748 82.592 50.5155V50.5155ZM83.0756 49.6198C83.1897 49.5143 83.4006 49.4089 83.655 49.3736C83.7077 49.3736 83.7691 49.3649 83.831 49.3649C83.9186 49.3471 84.1033 49.2944 84.1821 49.3384C84.3668 49.4085 84.1734 49.5314 84.0946 49.5666C83.9456 49.6015 83.8044 49.6455 83.655 49.6808C83.534 49.7157 83.4107 49.742 83.286 49.7596C83.1192 49.7779 82.9967 49.7779 83.0756 49.6198V49.6198ZM84.1908 50.024C84.0157 50.085 83.831 50.1552 83.655 50.2083C83.5674 50.2345 83.4799 50.2606 83.4006 50.2872C83.2424 50.3129 83.1192 50.3129 83.181 50.1552C83.2773 50.0502 83.4446 49.9535 83.6554 49.8916C83.7347 49.8659 83.8223 49.8568 83.9107 49.848C84.007 49.8219 84.1124 49.7518 84.1913 49.7953C84.3847 49.848 84.2701 49.98 84.1908 50.024ZM85.7021 49.98H85.3244C85.1662 49.98 85.0081 49.98 84.8591 49.9713C84.701 49.9452 84.569 49.8659 84.6922 49.7343C84.8147 49.7256 85.0612 49.6638 85.3244 49.6903C85.3771 49.699 85.4385 49.7078 85.4912 49.7165C85.5966 49.7252 85.7805 49.7252 85.8424 49.7866C86.0092 49.9008 85.8859 50.024 85.7021 49.98ZM85.7897 49.3828C85.6406 49.3828 85.4825 49.3915 85.3244 49.3915C85.1662 49.3915 85.0081 49.3915 84.8591 49.374C84.6744 49.3479 84.525 49.2778 84.6565 49.1458C84.7977 49.1371 85.0434 49.0756 85.3244 49.0931C85.4028 49.1018 85.4825 49.1105 85.561 49.1279C85.6664 49.1366 85.8772 49.1279 85.9478 49.1893C86.1325 49.3035 85.9914 49.4355 85.7897 49.3828V49.3828ZM86.6592 50.7437C86.6414 51.2621 86.5451 51.4991 86.4218 51.6137C86.4992 51.3246 86.52 51.0233 86.4832 50.7263C86.4832 50.5947 86.4566 50.4627 86.4127 50.3486C86.3594 50.2058 86.2791 50.0745 86.1761 49.9622C86.1404 49.7779 86.1761 49.7073 86.2993 49.7513C86.3429 49.7513 86.3778 49.7688 86.4127 49.7949C86.4654 49.8215 86.5011 49.8738 86.5359 49.9443C86.6505 50.1822 86.6762 50.454 86.6592 50.7437V50.7437ZM46.125 44.947C45.5979 48.5128 44.9571 52.079 44.1751 55.636H45.8967L46.2479 53.8181H48.0397L48.3294 55.5742H50.0506C49.3745 52.0611 48.8387 48.5128 48.417 44.9118L46.125 44.947V44.947ZM46.4762 52.3513L47.1436 48.4344L47.3017 47.503L47.811 52.316L46.4762 52.3513ZM43.0507 44.9296H40.9605L39.2214 51.192L37.4474 44.9296H35.3659C35.4713 48.4867 35.4713 52.1143 35.2343 55.5924H36.8854L36.8506 48.2849L39.0026 55.1799H39.5119C40.0652 52.8784 40.6977 50.5947 41.5058 48.3729L41.664 55.5929H43.1134C43.0085 52.0394 42.9876 48.484 43.0507 44.9296V44.9296ZM54.9956 44.9209L54.8994 51.4294C54.2759 49.3388 53.7571 47.1605 53.3184 44.8856H51.2278C51.289 48.4503 51.2101 52.0161 50.9912 55.5746H52.6336V48.4518L54.5565 55.6099H56.34C56.211 52.0346 56.2666 48.4551 56.5069 44.8856L54.9956 44.9209V44.9209Z" fill="#566E6D"/>
</svg>
