<svg width="100" height="100" viewBox="0 0 100 100" fill="none" xmlns="http://www.w3.org/2000/svg">
<rect x="0.5" y="0.5" width="99" height="99" fill="white" stroke="#008B00"/>
<path fill-rule="evenodd" clip-rule="evenodd" d="M10 10H90V90H10V10Z" fill="white"/>
<path fill-rule="evenodd" clip-rule="evenodd" d="M50 13.0219C54.6704 13.0219 58.4517 16.8223 58.4517 21.5118C58.4517 26.2199 54.6704 30.0017 50 30.0017C45.3297 30.0017 41.5292 26.2199 41.5292 21.5118C41.5292 16.8223 45.3297 13.0219 50 13.0219V13.0219ZM19.9172 46.3946C19.9172 40.7979 26.1946 34.5201 31.7726 34.5201H69.1915C74.2977 34.5201 79.989 40.2683 80.0077 45.3732L80.0459 48.134L33.4552 48.0776V52.4267H80.0828L80.0455 71.0326C80.0455 76.9128 73.3514 83.4358 67.4899 83.4358L31.9801 83.474C25.9485 83.474 20.0301 77.31 19.9546 71.619L19.9168 70.1631H66.4312V65.9464H19.9172V46.3946V46.3946Z" fill="#CC2229"/>
</svg>
