<svg width="100" height="100" viewBox="0 0 100 100" fill="none" xmlns="http://www.w3.org/2000/svg">
<rect x="0.5" y="0.5" width="99" height="99" fill="white" stroke="#008B00"/>
<g clip-path="url(#clip0_27_115)">
<path d="M90 50.0008C90 72.0899 72.0914 89.9969 50.0003 89.9969C27.9087 89.9969 10.0003 72.0899 10.0003 50.0008C10.0003 27.9117 27.909 10.0046 50.0003 10.0046C72.0914 10.0046 90 27.9117 90 50.0008Z" fill="white"/>
<path d="M49.666 24.2229C51.0741 25.0304 52.568 26.0694 53.7048 27.1709L53.2584 27.6171C51.0144 27.3798 48.6513 27.6763 46.5241 27.7089C46.2872 27.4708 45.8093 27.1128 46.2541 26.8137L49.666 24.2229ZM89.3393 51.9495C89.3691 52.9567 89.4643 53.8219 89.0693 54.8533C84.9702 56.0133 82.2777 51.6959 78.3005 52.3468L78.7501 54.5847C82.4296 54.7051 84.7282 58.2154 88.5292 58.0645C87.9892 59.1373 88.7702 61.9646 86.3778 60.8345C83.8939 60.2406 82.098 58.0645 79.3767 58.0645C79.0484 58.664 79.2565 59.4944 79.1987 60.2042C82.0698 60.652 84.1349 63.0663 87.0049 63.512C86.7349 64.4933 86.4676 65.592 85.6587 66.1902C83.3238 65.6249 81.4997 63.5387 79.0137 63.5984L78.5713 65.6533C80.9333 65.7138 82.4603 67.793 84.5832 68.4174C84.6416 69.284 83.863 70.0588 83.4139 70.8322C81.5292 70.2693 80.0921 68.6582 77.9382 68.7773C77.9084 67.9699 78.39 67.0536 78.2082 66.1902C75.7894 66.9062 74.1675 64.6704 72.3748 63.329C72.3235 58.9404 67.679 56.0609 67.4337 51.9497C67.3864 51.1298 67.512 50.2549 67.8877 49.3143C69.4142 45.8035 68.9347 41.245 67.2611 37.9714C66.752 37.1097 65.8514 36.4299 65.0115 35.9232C66.24 38.514 67.7376 41.5748 66.99 44.759C66.9034 47.2176 65.4447 49.5794 65.4283 51.9497C65.4227 52.7949 65.6042 53.64 66.0929 54.4934C68.0383 57.9797 71.5393 61.2802 70.2228 65.6528C69.8609 66.9958 68.7835 68.0341 68.5141 69.4009C70.7906 71.2766 72.9431 73.3903 75.9637 73.5091C77.04 72.8253 76.4421 69.7928 78.6562 71.1918L81.8891 72.8004C81.6538 73.6611 80.929 74.4327 80.2728 75.0255C79.0462 74.4319 77.8497 73.7197 76.3203 73.7777C75.8696 74.2539 75.4815 74.7882 75.5157 75.4712C76.5919 75.6475 77.5795 76.0991 78.4782 76.7254C78.0606 77.6198 77.2471 78.18 76.4992 78.8651L73.9916 77.9732C73.5729 78.5692 72.7032 79.1953 73.0084 79.8497C73.5745 80.0904 74.2019 80.4163 74.6182 80.8339C73.5116 82.0242 72.1086 82.7901 70.7585 83.5978C69.5957 79.8168 65.764 77.166 66.0931 72.7935L65.9151 72.6164C65.0147 73.6239 65.3154 75.2344 65.3735 76.5419C66.4513 79.2803 69.0223 81.3957 69.4123 84.399C68.9621 85.1722 67.9474 85.3263 67.1683 85.6532C67.2592 80.2386 59.0022 76.1318 64.2972 70.6546C66.063 67.9725 69.0218 65.4131 67.9735 61.7206C66.8972 58.1552 63.0903 55.9461 63.1239 51.9497L63.13 51.6378C63.9968 47.4702 66.631 43.0353 64.4763 38.6015C63.8755 36.8181 62.5338 34.7916 60.7091 34.0462C63.4299 37.144 64.5083 42.1987 62.952 46.3674C62.1673 48.0259 61.0873 50.001 60.9791 51.9503H60.9724C60.9146 52.9682 61.1233 53.9809 61.784 54.9405C63.8494 58.2753 67.4378 61.9378 65.3737 66.2833C63.0405 69.7639 58.9718 73.3045 61.2443 77.8892C62.8894 80.6268 65.4348 83.3589 64.7477 86.7247L62.0557 87.6169C63.8505 81.339 55.0535 77.6503 58.7365 71.3699C61.0098 68.0073 65.0763 64.8518 62.7743 60.3885C61.3981 57.623 58.555 55.9863 58.6443 52.5306L58.7424 51.95C59.6689 47.0488 63.4146 42.409 60.7952 37.1715C60.107 35.6247 58.7319 34.0481 57.2055 33.1545L57.1135 33.246C60.1664 36.1923 61.095 41.0403 59.4489 44.9372C58.6811 47.2235 56.9955 49.501 56.6531 51.9508C56.4899 53.1063 56.6273 54.3035 57.298 55.5647C59.2424 58.6276 62.6524 61.8768 60.5246 65.8368C58.2839 69.1074 54.5431 72.2903 56.0373 76.5438C57.6834 80.2651 61.1195 83.8105 59.2644 88.4246L56.4858 89.0488C58.6989 84.5521 55.3808 80.0896 53.4367 76.1898C51.072 70.5941 58.5171 67.9148 58.6367 62.7993C58.6085 59.4971 55.0796 57.6222 54.3344 54.5871C52.8069 53.3051 51.2239 55.0965 49.3982 54.7639C48.0505 55.0333 45.9803 52.9182 45.1757 55.2112C44.2177 58.5725 39.8522 61.0435 41.7705 65.0305C43.5962 68.5734 47.9895 71.1639 46.5219 75.7492C45.2079 80.0316 40.8671 84.1093 43.5594 89.0488C42.4533 88.6924 40.3884 89.3749 40.4183 87.6172C38.7138 81.6357 45.9825 78.1506 43.7374 72.172C42.6926 68.51 37.9323 66.4872 38.9803 62.0825C39.7551 58.4569 43.8447 55.9223 43.2711 51.9508C43.2201 51.6017 43.1377 51.2579 43.0248 50.9235C41.4983 46.6379 38.3841 42.351 40.2402 37.3492C40.7499 35.9208 41.7678 34.7009 42.6622 33.4239C39.7002 35.0005 38.2061 38.3347 38.2674 41.7268C38.1383 45.4155 40.8773 48.5754 41.267 51.9508C41.4203 53.3131 41.196 54.7083 40.2402 56.188C38.2972 58.8106 35.7561 61.5761 36.9211 65.0297C38.0288 68.5132 42.3963 70.6238 42.1273 74.6726C42.0975 79.4625 36.5029 82.4444 38.0885 87.8013L35.304 86.9026C34.1984 82.1424 39.2834 79.7073 39.3417 75.3029C40.0614 70.2385 33.5681 68.3594 33.9577 63.4221C33.9298 59.671 37.2489 57.2953 38.7149 54.14C38.9661 53.3722 39.05 52.6469 39.0163 51.9511C38.8367 48.4625 35.6768 45.7352 36.2012 41.8127C36.3776 38.926 37.3648 36.3954 39.2503 34.2246C36.6489 35.264 35.5743 38.243 34.8557 40.7433C33.6087 44.7528 36.5855 48.3592 36.8837 51.9511C37.016 53.5376 36.6266 55.1147 35.1262 56.7271C32.971 59.2534 30.7854 62.4416 32.3415 65.8374C33.9892 69.5842 39.1659 72.5005 36.9206 77.1735C35.6956 80.1207 32.7623 82.3511 32.8828 85.8322C32.1056 85.5048 31.2994 85.1784 30.6389 84.5844C30.6389 80.1512 36.9786 77.3819 33.958 72.7095C33.6904 73.6311 33.6329 74.8842 33.4234 75.9258C32.3751 78.6353 30.1322 80.8039 29.2929 83.6053C27.8893 83.0665 26.4218 81.9343 25.2543 80.7438L26.8714 79.7595C26.6918 79.1629 26.2139 78.6575 25.7957 78.1516C24.7458 78.005 24.0562 78.6904 23.1903 78.959C22.4424 78.3028 21.7206 77.7075 21.1243 76.9039C21.6611 75.3832 25.8554 76.6406 23.7306 74.14C22.2961 73.248 20.8562 74.5225 19.6 75.1175L17.8972 72.9778C19.3631 72.0859 20.8253 70.8327 22.6487 71.1923C23.098 71.9973 23.1292 73.1809 23.9949 73.6012C27.0769 73.5418 29.2606 71.2225 31.6232 69.4065C29.9765 66.9693 28.6361 63.6043 30.0989 60.6563C31.2706 57.7028 34.3246 55.2147 34.4628 51.9492C34.4943 51.2063 34.3778 50.4243 34.0511 49.5826C32.4364 45.4452 31.8665 39.8533 34.9485 36.1913C33.2728 36.6391 32.2847 38.7171 31.7154 40.2944C29.8627 44.3344 32.2059 48.0775 32.2869 51.9489C32.2979 52.6456 32.2412 53.3433 32.0715 54.0464C30.4853 57.2306 27.9154 60.0244 27.498 63.6886C25.6725 64.847 24.1738 66.8727 21.5727 66.1892C21.4812 66.873 21.6907 67.9153 21.9293 68.6901C19.8666 68.6036 18.4601 70.1163 16.7236 70.8303C15.7982 70.535 15.5575 69.3453 15.1993 68.513C17.2321 67.8299 18.6986 65.8026 21.0327 65.8344C21.3032 65.0867 20.881 64.4015 20.7618 63.688C17.8585 62.4063 13.2562 70.0253 12.8692 63.4194C15.7705 63.241 17.6242 60.5616 20.4977 60.2946L20.5835 58.1549C17.3227 57.8274 15.2251 61.162 11.9656 60.8334L11.2468 57.9778C15.0172 58.2122 17.2636 54.8509 20.8543 54.67C21.3314 54.0459 21.389 53.1234 21.481 52.2612C17.5616 51.7528 14.8722 56.074 10.7121 54.7618C10.7121 54.7618 10.5688 52.9634 10.4911 51.9492H10.4967C10.481 51.7248 10.4626 51.5006 10.4416 51.2766C14.151 52.7082 17.4101 50.0578 20.5835 48.6899C21.3906 48.4496 22.6492 48.8662 23.0109 47.974C22.98 47.2893 24.2348 46.4889 23.19 46.0113C18.5507 45.3848 15.4687 50.9516 10.7116 48.4205L10.3547 47.7045C11.3436 34.2538 18.9689 21.2501 31.6226 14.851C36.7471 11.9376 43.1138 10.4528 49.5345 10.3998C57.283 10.3356 65.1131 12.3579 70.9377 16.4594C76.5935 19.9106 82.0036 25.5986 84.9398 31.3727C87.7483 36.4321 89.0405 42.1088 89.4267 48.1521C84.5192 51.8409 81.227 44.6771 76.2297 46.2805C76.4986 47.0555 76.6479 47.8578 77.2193 48.5125C81.6484 48.4812 84.6981 53.0948 89.3344 51.2764L89.3393 51.9495V51.9495ZM32.9681 35.3841C29.856 33.36 25.9108 35.2661 23.0106 36.3686C22.7414 33.6591 21.6353 31.1906 19.329 29.405C19.1052 29.294 18.7959 29.0613 18.5173 29.0439C18.3506 29.0334 18.1919 29.1006 18.0688 29.3125C19.1141 35.7103 14.9336 40.1743 11.971 45.0273C12.9575 45.8291 14.5423 45.7096 15.7387 45.4736C18.8793 44.2245 21.8709 42.0497 25.6104 42.795C26.7165 40.9202 28.5743 39.1042 30.0978 37.6164C31.0288 36.8149 32.3073 36.3063 32.9681 35.3841V35.3841ZM42.4831 39.4019C42.4232 39.7872 42.513 40.4742 43.11 40.2086C44.0389 38.9289 45.6834 39.9416 46.7 40.0314V39.6713C46.1422 38.8 44.9949 38.3626 43.8294 38.4059C43.5605 38.4155 43.2872 38.4543 43.0242 38.5153C42.6345 38.6015 42.3629 38.9562 42.4831 39.4019V39.4019ZM57.1122 35.5682C56.2766 33.7225 54.3618 32.9755 52.6248 32.529C51.7728 32.4247 50.8888 32.3543 50.0121 32.3458C49.8478 32.3442 49.6838 32.342 49.52 32.3458C47.0679 32.395 44.7247 33.0213 43.2932 35.0294C43.0877 35.5963 42.1843 36.3925 43.0231 36.9005C44.9081 36.7809 47.059 36.5458 48.3154 38.1547C48.3154 39.5849 49.2438 41.4871 47.6886 42.1717C46.4001 40.9849 44.8742 42.6771 43.4723 41.7247C42.8131 41.337 42.396 41.7891 42.126 42.3547C41.7363 46.044 43.6785 50.1161 47.148 52.1689C48.5542 52.6734 50.4446 53.1531 51.9121 52.4375C55.4418 50.8023 56.904 47.0547 57.5618 43.6019C57.4736 42.9449 57.5045 41.6645 56.5781 41.6332C55.5317 42.2918 54.0055 41.9026 52.8967 41.6332C52.2408 41.8437 52.2106 42.7983 51.4644 42.9791L51.0096 42.6182C50.6199 40.9836 50.3798 38.6617 51.9073 37.5305C53.6139 36.8459 55.6183 36.5471 57.383 37.0843C57.7124 36.5187 57.2042 36.0738 57.1122 35.5682V35.5682ZM55.3111 38.5025C55.1925 38.5057 55.0774 38.5116 54.9602 38.5153C54.3336 38.9313 52.5067 38.6323 53.1664 40.0314C54.3037 39.1366 55.8893 39.7636 57.0261 40.2086C57.4462 40.0012 57.3556 39.5844 57.3827 39.2248C57.0175 38.5493 56.1456 38.4862 55.3111 38.5025ZM68.3363 25.9191C66.1219 25.8022 64.2676 27.0529 62.2329 27.6185C62.0559 25.8961 63.371 24.0771 63.6711 22.3481C60.3816 22.5586 57.7756 24.5287 55.0538 26.1024C54.4221 24.585 53.7931 23.0665 53.167 21.5468L56.7572 18.1534L56.8492 17.7061L51.9995 17.4375C51.1645 15.9816 50.8351 14.2279 49.8481 12.8886C49.0402 14.4066 48.4975 16.0129 47.6904 17.529L42.847 17.7984V18.1534L46.523 21.4553C46.0736 23.1526 45.656 24.9966 44.5499 26.2792C42.3963 24.9958 40.2728 23.5993 37.9116 22.7079C37.3433 22.5257 36.5333 22.229 36.0247 22.6164C36.7716 24.254 37.8174 26.0151 37.6416 27.8023C36.6535 27.6214 35.8771 26.9914 34.949 26.7265C33.8391 26.425 32.5225 25.8367 31.4457 26.1947C33.241 28.6929 34.7064 31.308 35.2134 34.3148C41.1694 31.4549 48.1154 29.8821 55.3254 31.1044C58.7053 31.6392 61.8128 33.009 64.8351 34.1369C64.9531 30.9843 66.9569 28.451 68.3363 25.9191V25.9191ZM78.5645 43.0639C81.6137 43.8665 84.6722 47.1716 87.901 45.0273C85.0888 40.3854 80.9034 36.0984 82.0676 30.0284C82.1895 29.614 81.92 29.1945 81.533 29.1356C79.7089 29.8772 78.2959 31.6652 77.5741 33.4223C77.2772 34.4619 77.1018 35.5666 76.6836 36.5466C74.498 35.4149 72.1664 34.3191 69.504 34.5837C68.5434 34.7027 67.1675 34.7653 66.99 35.7461C70.0112 37.3524 72.4958 40.0328 74.3477 42.8876C75.6375 42.6787 77.2185 42.8571 78.5645 43.0639V43.0639ZM46.6139 47.2594L46.7 47.7974C47.869 48.5719 48.2286 49.8849 49.8473 49.7659C51.2823 49.8504 52.3591 48.5128 53.0739 47.4421C51.1322 47.1751 48.7683 47.5879 46.6139 47.2594V47.2594ZM48.2299 44.8502C48.2883 45.0883 48.0817 45.4455 48.408 45.5662C49.3656 45.3594 51.1 46.0729 51.6346 44.9417C51.261 44.5257 50.6519 44.3368 50.0121 44.3368C49.3729 44.3368 48.7097 44.522 48.2299 44.8502V44.8502Z" fill="#106E33"/>
<path opacity="0.99" d="M46.616 43.8173H53.1761V46.4982H46.616V43.8173Z" fill="white"/>
<path d="M47.8275 45.251C48.6752 45.4506 48.885 45.7494 49.5546 45.8332C50.2673 45.8206 50.1646 45.6767 51.4062 45.2502C51.4882 45.2216 51.6001 45.0423 51.4613 44.9051C50.6898 44.1437 50.1565 44.6879 49.6735 44.7023C49.0315 44.709 48.4302 44.156 47.8036 44.8751C47.6968 45.0209 47.6412 45.1646 47.8275 45.251Z" fill="#106E33"/>
<path d="M78.8184 89.2395V85.421H77.4474V84.6436H81.1188V85.421H79.751V89.2395H78.8184V89.2395ZM81.7116 89.2395V84.6433H83.1076L83.9458 87.7785L84.7747 84.6433H86.1739V89.2395H85.3072V85.6217L84.3901 89.2395H83.4919L82.5781 85.6217V89.2395H81.7116Z" fill="#106E33"/>
</g>
<defs>
<clipPath id="clip0_27_115">
<rect width="80" height="80" fill="white" transform="translate(10 10)"/>
</clipPath>
</defs>
</svg>
