<svg width="100" height="100" viewBox="0 0 100 100" fill="none" xmlns="http://www.w3.org/2000/svg">
<rect x="0.5" y="0.5" width="99" height="99" fill="white" stroke="#008B00"/>
<g clip-path="url(#clip0_27_134)">
<path d="M77.7184 50.5064C78.6841 50.5064 79.4928 51.2955 79.4928 52.2656C79.4928 53.2351 78.7066 54.0246 77.7184 54.0246H77.741L77.0675 54.0472H76.1237L64.6007 54.0697C64.4211 54.0697 64.2863 53.912 64.3313 53.7314L64.8022 51.8595H64.353L63.2077 53.9795C63.1853 54.0471 63.0507 54.1148 62.9836 54.1148L45.98 54.1372C45.8226 54.1372 45.7099 54.0019 45.7328 53.8441L45.8894 52.2655C44.1605 53.7538 41.7791 54.0921 40.3638 54.0921H33.4008C33.1987 54.0921 33.0864 53.9343 33.1536 53.7313L33.4008 52.9873C32.2555 53.8441 30.7279 54.4757 28.6617 54.4757C26.236 54.4757 24.7982 53.5734 24.192 52.1752C22.7094 53.6185 20.4407 54.4531 18.1716 54.4531C17.4756 54.4531 16.7791 54.3854 16.1278 54.2276L15.2966 56.7987C15.2065 57.0465 14.9593 57.0689 14.8248 56.8435L10.0406 49.0856C9.95001 48.9501 10.0176 48.7697 10.1751 48.7021L17.1159 45.8377C17.0934 45.7927 17.0708 45.7254 17.0484 45.6802C16.6889 44.7553 16.6217 43.1992 16.8463 42.2067C17.2058 40.6732 19.1147 36.8617 24.214 37.0873C25.2473 37.1324 26.5951 37.561 27.4934 38.0572L27.7628 37.4031C27.8078 37.3128 27.9202 37.2226 28.0328 37.2226L44.2949 37.1775C45.3955 37.1775 46.5862 37.4257 47.4842 38.0347L47.5518 37.4708C47.5518 37.3355 47.6863 37.2452 47.7986 37.2452H76.7518C76.8871 37.2452 76.999 37.3581 77.0219 37.4934L77.3814 40.3574C78.5266 39.1172 79.4475 38.3506 80.6157 37.7641C81.5369 37.2903 82.6824 37.2001 83.446 37.1776H83.8281L84.7938 34.1783C84.861 33.9301 85.1306 33.9076 85.2652 34.1332L89.9596 41.7561C90.0497 41.9139 89.9822 42.0718 89.8247 42.1396L81.6713 45.4322C81.4241 45.5449 81.2442 45.3645 81.3118 45.1164L81.5589 44.3494C80.9975 44.9133 80.4138 45.59 79.8293 46.3566C79.0436 47.3943 78.0553 49.4692 77.7853 50.2583L77.718 50.4612" fill="#005543"/>
<path d="M83.7605 41.6197L83.2216 43.3788L88.1857 41.3716L85.3558 36.7706L84.7942 38.5298C84.7942 38.5298 82.4804 38.3046 81.2229 38.9358C80.1671 39.4772 79.3358 40.1539 78.1455 41.4618C77.5389 42.116 76.4608 43.7172 76.4608 43.7172L75.7871 38.5298H72.1703L73.4057 46.6263L71.2492 52.8059H75.5174C75.5174 52.8059 76.4608 50.0994 76.5504 49.8292C76.8425 48.9498 77.8981 46.717 78.7739 45.5665C80.3241 43.5367 82.2108 41.5746 83.7605 41.6197" fill="#FFF200"/>
<path d="M34.4795 38.665L31.4918 47.6414C31.3566 48.002 31.2218 48.4756 30.975 48.8816C30.7508 49.2651 30.4135 49.5578 29.8519 49.5578C29.3351 49.5578 29.2006 49.2651 29.2006 48.8591C29.2232 48.4756 29.4031 48.0019 29.5376 47.6184L32.5252 38.665H28.6842L25.5622 47.9794C25.0006 49.6933 24.2144 53.1438 28.6617 53.1438C33.1093 53.1438 34.6361 49.6934 35.2206 47.9794L38.3205 38.665H34.4795" fill="white"/>
<path d="M57.1883 52.8058L64.7805 38.5522H61.0518L56.896 47.3933C57.0754 46.3556 58.4232 38.5522 58.4232 38.5522H55.1212C55.1212 38.5522 51.3027 46.4007 50.8535 47.4609L52.5381 38.5522H48.7422L47.1694 52.8058H50.8981L55.0088 43.8976C54.8068 44.8672 53.4591 52.8058 53.4591 52.8058H57.1883V52.8058ZM65.0949 47.5962H67.0267L67.8801 42.3862L65.0949 47.5962V47.5962ZM66.42 38.5522H71.6539L69.9692 52.8284H65.9257L66.4425 50.5278H63.5897L62.3544 52.7832H58.7831L66.42 38.5522Z" fill="#FFF200"/>
<path d="M14.7354 54.2041L11.815 49.4456L16.9591 47.3257L16.3971 49.1073C17.0266 49.5129 17.7678 49.6257 18.4642 49.5806C19.0704 49.5354 19.7892 49.2651 20.0139 48.7463C20.1487 48.4079 19.9687 47.6414 19.4749 47.1452C18.9134 46.5587 18.5092 45.7918 18.2843 45.2056C18.0374 44.529 17.9473 43.266 18.1276 42.4991C18.419 41.3266 19.9246 38.2144 24.1472 38.4174C25.0682 38.4396 26.4159 38.9134 27.0893 39.342L25.517 42.3413C23.7426 41.2816 22.6647 41.6651 22.26 42.6346C21.8563 43.6046 22.5301 44.5291 23.1586 45.2734C23.9447 46.1754 24.5738 47.1454 24.5738 48.2955C24.5738 50.9794 21.6986 53.1441 18.1719 53.1441C17.1164 53.1441 16.1282 52.9416 15.2744 52.6031L14.7354 54.2041V54.2041ZM34.8611 52.8509H40.3642C42.296 52.8509 45.4405 52.1968 46.4066 49.2651C46.9682 47.5737 45.957 45.9721 44.9242 45.4312C46.0247 45.0251 47.103 43.6495 47.4175 42.5668C48.2934 39.4772 46.4518 38.5975 44.2949 38.5975H39.6005L34.8611 52.8509ZM40.7462 47.1676C42.0939 47.1 42.9027 47.6184 42.678 48.5434C42.476 49.4456 41.7345 49.761 40.9258 49.761H39.8703L40.7462 47.1676V47.1676ZM41.4651 44.1679L42.3184 41.6873H42.9693C43.5083 41.6873 44.4969 41.7776 44.0251 42.9953C43.6214 43.9653 42.5877 44.1679 42.0039 44.1679H41.4651Z" fill="white"/>
<path d="M77.5611 52.1967V51.9485H77.7181C77.8083 51.9485 77.8976 51.9711 77.8976 52.0612C77.8976 52.1967 77.8079 52.1967 77.7181 52.1967H77.5611ZM77.5611 52.3094H77.696L77.9202 52.6479H78.0554L77.8309 52.3094C77.9431 52.2869 78.033 52.2193 78.033 52.0839C78.033 51.9035 77.9431 51.8358 77.7412 51.8358H77.4493V52.6478H77.5617V52.3093H77.5611V52.3094ZM77.7185 52.9637C78.1001 52.9637 78.4148 52.6479 78.4148 52.2418C78.4148 51.8359 78.1001 51.5426 77.7185 51.5426C77.3143 51.5426 76.9995 51.8359 76.9995 52.2418C76.9996 52.6479 77.314 52.9637 77.7185 52.9637ZM77.1343 52.2418C77.1343 51.9035 77.3816 51.6554 77.7185 51.6554C78.0329 51.6554 78.28 51.9036 78.28 52.2418C78.28 52.5803 78.0329 52.8508 77.7185 52.8508C77.3816 52.8508 77.1343 52.5802 77.1343 52.2418Z" fill="#FFF200"/>
</g>
<defs>
<clipPath id="clip0_27_134">
<rect width="80" height="23.0252" fill="white" transform="translate(10 33.9747)"/>
</clipPath>
</defs>
</svg>
