<svg width="100" height="100" viewBox="0 0 100 100" fill="none" xmlns="http://www.w3.org/2000/svg">
<rect x="0.5" y="0.5" width="99" height="99" fill="white" stroke="#008B00"/>
<path fill-rule="evenodd" clip-rule="evenodd" d="M10 10H90V90H10V10Z" fill="white"/>
<path fill-rule="evenodd" clip-rule="evenodd" d="M59.5185 36.9257V35.3418H53.1822V44.0381H59.5185V42.6037H54.9454V40.2428H58.9503V38.6888H54.9454V36.9257H59.5185ZM57.7554 44.9346V48.2817H54.288V44.9346H52.4957V53.6015H54.288V49.7161H57.7554V53.6015H59.5185V44.9346H57.7554ZM59.5185 56.0511V54.498H53.1822V63.313H59.5185V61.73H54.9454V59.3986H58.9503V57.9646H54.9454V56.0511H59.5185V56.0511ZM52.1666 35.3418H50.4034V38.6888H46.9369V35.3418H45.1737V44.0381H46.9369V40.1532H50.4034V44.0381H52.1666V35.3418ZM37.5831 35.3418V36.9257H40.2727V44.0381H42.0358V36.9257H44.7254V35.3418H37.5831ZM32.0246 44.6956C29.2454 44.6956 27.7811 46.2794 27.7811 49.2678C27.7811 52.4057 29.2454 53.9597 32.0246 53.9597C34.8039 53.9597 36.2383 52.4057 36.2383 49.2678C36.2383 46.2794 34.8039 44.6956 32.0246 44.6956V44.6956ZM29.6937 49.2678C29.6937 47.2656 30.4707 46.2794 32.0246 46.2794C33.6982 46.2794 34.4751 47.2656 34.4751 49.2678C34.4751 51.39 33.6982 52.4057 32.0246 52.4057C30.4707 52.4057 29.6937 51.39 29.6937 49.2678V49.2678ZM25.2409 44.9346V51.0609L21.7744 44.9346H19.8917V53.6015H21.5652V47.5047L25.1214 53.6015H27.0041V44.9346H25.2409ZM33.4591 58.0837V56.0511H37.9118V54.498H31.6959V63.313H33.4591V59.6377H37.3739V58.0837H33.4591ZM51.8383 46.4886V44.9346H44.7254V46.4886H47.3851V53.6015H49.1782V46.4886H51.8383ZM40.8106 50.2843C41.3784 50.2843 41.8267 50.3735 42.0358 50.6126L42.3646 53.6015H44.3668V53.3923C44.1576 53.2723 44.0381 52.7348 44.0381 51.7183C44.0381 50.4935 43.5898 49.8356 42.9324 49.5069C43.8289 49.1483 44.2772 48.4908 44.2772 47.3851C44.2772 45.8312 43.3806 44.9346 41.4979 44.9346H37.1348V53.6015H38.9279V50.2843H40.8106V50.2843ZM38.9279 48.8196V46.4886H41.1393C42.0359 46.4886 42.4841 46.8173 42.4841 47.5943C42.4841 48.3713 42.0358 48.8196 41.0497 48.8196H38.9279ZM42.0358 54.498H39.9141L36.8061 63.313H38.6888L39.3762 61.4008H42.6037L43.1416 63.313H45.0542L42.0358 54.498V54.498ZM40.9301 56.4994L42.0358 59.9668H39.8244L40.9301 56.4994ZM50.7326 57.3959H52.4957C52.4057 56.6193 52.1666 55.9619 51.6283 55.3937C50.8517 54.7362 49.9552 54.288 48.7299 54.288C47.5047 54.288 46.6081 54.7362 45.8311 55.5136C45.1737 56.2902 44.7254 57.3959 44.7254 58.8607C44.7254 61.9686 46.0403 63.5218 48.6104 63.5218C50.8517 63.5218 52.0765 62.4161 52.4957 60.2947H50.7326C50.4935 61.3103 49.7161 61.8487 48.7299 61.8487C47.2656 61.8487 46.6081 60.8629 46.6081 58.9499C46.6081 56.8584 47.2656 55.8419 48.7299 55.8419C49.7161 55.8419 50.2843 56.4102 50.7326 57.3959V57.3959ZM28.5581 63.1939H28.588H28.5581ZM28.588 63.1939C28.8868 63.1939 29.1259 63.0739 29.3056 62.9249C29.455 62.7456 29.5741 62.5065 29.5741 62.1782C29.5741 61.8192 29.4546 61.5801 29.3056 61.4307C29.1263 61.2817 28.8872 61.1916 28.588 61.1916H28.5581C28.1995 61.1916 27.9604 61.2817 27.811 61.4307C27.662 61.5797 27.5719 61.8192 27.5719 62.1782V62.2073C27.5719 62.5065 27.6616 62.7456 27.811 62.9249C27.9604 63.0739 28.1999 63.1939 28.5581 63.1939H28.588ZM28.5581 63.4329C28.1397 63.4329 27.8409 63.2839 27.6317 63.0739C27.4225 62.8647 27.3328 62.5663 27.3328 62.2073V62.1782C27.3328 61.759 27.4225 61.4606 27.6317 61.2518C27.8409 61.0426 28.1397 60.9526 28.5581 60.9526H28.588C28.9466 60.9526 29.2454 61.0426 29.4546 61.2518C29.6638 61.461 29.8132 61.7594 29.8132 62.1782C29.8132 62.5667 29.6638 62.8647 29.4546 63.0739C29.3412 63.1883 29.2062 63.279 29.0574 63.3406C28.9086 63.4023 28.749 63.4337 28.588 63.4329H28.5581V63.4329ZM28.6776 62.0583H28.7075C28.827 62.0583 28.8868 61.9981 28.8868 61.8491V61.8192C28.8868 61.8192 28.8569 61.8192 28.8569 61.7893C28.827 61.7594 28.7673 61.7594 28.6776 61.7594H28.3489V62.0587H28.6776V62.0583V62.0583ZM28.8868 62.2675L29.1259 62.5667C29.1558 62.6261 29.1259 62.6858 29.096 62.7157C29.0362 62.7759 28.9466 62.7456 28.9167 62.7157L28.6178 62.2973H28.3489V62.6257C28.3489 62.6858 28.2891 62.7456 28.2294 62.7456C28.1696 62.7456 28.1098 62.6854 28.1098 62.6257V61.6399C28.1098 61.5797 28.1696 61.5208 28.2294 61.5208H28.7075C28.827 61.5208 28.9466 61.5498 29.0063 61.61C29.0362 61.6399 29.0661 61.6399 29.0661 61.6702C29.1259 61.7304 29.1259 61.7893 29.1259 61.8495C29.1259 62.0882 29.0661 62.2073 28.8868 62.2675ZM60.7434 35.3418C66.3022 35.3418 71.1132 37.3739 74.9981 41.2589C79.0026 45.2634 81.0053 50.0448 81.0053 55.6328V63.313H72.8768V55.3937C72.8768 52.2866 71.771 49.5966 69.5297 47.3851C68.9914 46.8173 68.424 46.3691 67.7666 45.9208C65.9735 44.6956 63.8517 44.1576 61.6403 44.1576H60.7438V35.3418H60.7434V35.3418ZM72.0989 63.313H65.7635V57.1867C65.7635 56.1711 65.4352 55.3937 64.7478 54.7362C64.0904 54.0497 63.1939 53.7206 62.2973 53.7206H60.7434V44.9346H61.6399C63.9704 44.9346 65.9727 45.5921 67.7661 46.9369C68.2144 47.1461 68.6627 47.5943 68.991 47.923C71.1132 50.0452 72.0989 52.4957 72.0989 55.3941V63.313V63.313ZM64.9869 63.313H60.7429V54.498H62.2973C62.9847 54.498 63.6421 54.7362 64.2095 55.2746C64.6578 55.7228 64.9869 56.4102 64.9869 57.1867V63.313V63.313Z" fill="black"/>
</svg>
