<svg width="100" height="100" viewBox="0 0 100 100" fill="none" xmlns="http://www.w3.org/2000/svg">
<rect x="0.5" y="0.5" width="99" height="99" fill="white" stroke="#008B00"/>
<path fill-rule="evenodd" clip-rule="evenodd" d="M10 10H90V90H10V10Z" fill="white"/>
<path fill-rule="evenodd" clip-rule="evenodd" d="M50.0394 88.784C71.402 88.784 88.8238 71.4419 88.8238 50.0001C88.8238 28.5582 71.402 11.2157 50.0394 11.2157C28.5976 11.2157 11.1762 28.5582 11.1762 50.0001C11.1762 71.4419 28.598 88.784 50.0394 88.784Z" fill="#434244"/>
<path fill-rule="evenodd" clip-rule="evenodd" d="M39.2399 80.7435C41.9201 81.5312 43.8123 80.5854 45.704 79.7188C47.123 79.1668 48.3843 79.6404 48.6997 80.822C48.9363 81.6105 48.542 82.7925 47.3596 83.2661C46.6503 83.5027 45.6251 83.5026 44.2061 83.1876C40.1857 82.3991 36.7962 81.1378 33.2489 79.0099C24.5776 73.8851 19.217 65.7662 17.5619 56.78C15.9067 48.3452 17.6407 39.5947 22.055 32.6578C25.2873 27.6127 28.7557 23.9077 33.5639 22.0949C36.0869 21.149 38.5306 22.7253 38.9244 24.7751C39.161 26.4307 37.9786 28.1647 36.4807 28.874C31.1202 31.16 28.1249 33.1306 23.789 38.8065C21.1876 42.275 18.7443 47.5567 18.5073 52.3653C18.1131 60.7995 22.922 69.5501 28.5976 74.5168C34.2736 79.4038 38.4513 80.5069 39.2399 80.7435V80.7435Z" fill="white"/>
<path fill-rule="evenodd" clip-rule="evenodd" d="M19.6902 57.3315C18.5866 51.4974 21.1088 44.6394 24.1045 40.4617C24.9719 39.1216 26.7059 36.8356 29.1496 34.7861C30.332 33.6826 31.3567 32.9729 32.618 32.8944C33.8793 32.7367 34.904 33.2883 35.6137 33.998C36.6384 35.2593 36.0869 37.7818 34.5102 38.7277C30.884 40.7771 30.0959 41.0137 27.3363 43.7728C24.0256 47.0836 21.2665 50.7097 19.6902 57.3315V57.3315Z" fill="white"/>
<path fill-rule="evenodd" clip-rule="evenodd" d="M30.7263 42.6688C31.9087 42.0384 33.4066 42.1961 34.1947 43.2208C35.1406 44.4033 34.589 46.4527 33.17 47.1624C27.0213 50.2365 23.5529 53.1534 20.1633 59.381C21.3458 53.705 23.6318 49.3695 27.4945 45.2703C28.9919 43.6936 29.6227 43.2204 30.7263 42.6688ZM61.1544 80.7435C58.4745 81.5312 56.5824 80.5854 54.6118 79.7188C53.1924 79.1668 51.9312 79.6404 51.6157 80.822C51.3792 81.6105 51.7739 82.7925 52.9559 83.2661C53.666 83.5027 54.6907 83.5026 56.1093 83.1876C60.1301 82.3991 63.5197 81.1378 67.1458 79.0099C75.7382 73.8851 81.0988 65.7662 82.8328 56.78C84.4095 48.3452 82.7543 39.5947 78.2608 32.6578C75.0289 27.6127 71.5601 23.9077 66.752 22.0949C64.2294 21.149 61.7853 22.7253 61.4698 24.7751C61.1544 26.4307 62.3373 28.1647 63.8343 28.874C69.1948 31.16 72.191 33.1306 76.526 38.8065C79.1274 42.275 81.5711 47.5567 81.8081 52.3653C82.2808 60.7995 77.3934 69.5501 71.7178 74.5168C66.0414 79.4038 61.8637 80.5069 61.1544 80.7435V80.7435Z" fill="white"/>
<path fill-rule="evenodd" clip-rule="evenodd" d="M80.7037 57.3315C81.7284 51.4974 79.2067 44.6394 76.2899 40.4617C75.344 39.1216 73.6091 36.8356 71.2447 34.7861C69.9834 33.6826 68.9579 32.9729 67.6966 32.8944C66.5146 32.7367 65.4106 33.2883 64.7802 33.998C63.677 35.2593 64.229 37.7818 65.8841 38.7277C69.4314 40.7771 70.2192 41.0137 72.9787 43.7728C76.2903 47.0836 79.0486 50.7097 80.7037 57.3315V57.3315Z" fill="white"/>
<path fill-rule="evenodd" clip-rule="evenodd" d="M69.5896 42.6689C68.4067 42.0385 66.9089 42.1962 66.1211 43.2209C65.2537 44.4033 65.7264 46.4527 67.1459 47.1624C73.373 50.2366 76.763 53.1534 80.2314 59.381C79.0486 53.705 76.6841 49.3696 72.8214 45.2703C71.3236 43.6936 70.6927 43.2205 69.5896 42.6689ZM41.0528 21.9368H45.6248L45.9402 23.5135C45.9402 23.75 45.8613 23.6708 45.7825 23.5923C45.3886 22.883 45.0732 22.331 44.2846 22.331C44.048 22.331 43.9696 22.4099 43.9696 22.6465V26.588C43.9696 27.2185 44.1273 27.2973 44.7578 27.2973C44.8366 27.2973 44.9155 27.5339 44.7578 27.5339H41.9202C41.7625 27.5339 41.8413 27.2973 41.9202 27.2973C42.551 27.2973 42.7083 27.2185 42.7083 26.588V22.6461C42.7083 22.4095 42.7083 22.3306 42.4718 22.3306C41.6836 22.3306 41.2893 22.8826 40.8955 23.5919C40.8955 23.6704 40.7377 23.6704 40.7377 23.5131L41.0528 21.9368V21.9368ZM49.5663 27.5339H46.7287C46.571 27.5339 46.6499 27.2973 46.7287 27.2973C47.2807 27.2973 47.5169 27.2185 47.5169 26.588V23.0403C47.5169 22.331 47.3592 22.1733 46.7287 22.1733C46.571 22.1733 46.571 21.9368 46.7287 21.9368H49.5663C49.724 21.9368 49.724 22.1733 49.5663 22.1733C48.9359 22.1733 48.7782 22.2522 48.7782 22.8826V24.3801H51.0638V22.9615C51.0638 22.3306 50.9065 22.1733 50.3545 22.1733C50.1972 22.1733 50.1972 21.9368 50.3545 21.9368H53.1136C53.2709 21.9368 53.2709 22.1733 53.1136 22.1733C52.5616 22.1733 52.4043 22.2522 52.4043 22.8826V26.5876C52.4043 27.2181 52.5616 27.2969 53.1136 27.2969C53.2709 27.2969 53.2709 27.5335 53.1136 27.5335H50.3545C50.1972 27.5335 50.1972 27.2969 50.3545 27.2969C50.9853 27.2969 51.0638 27.2181 51.0638 26.5876V24.7743H48.7782V26.5876C48.7782 27.2181 48.9359 27.2969 49.5663 27.2969C49.6452 27.2969 49.724 27.5339 49.5663 27.5339ZM58.0799 25.9568C58.0799 25.2475 57.8441 24.8532 56.8194 24.8532H56.4247V26.7449C56.4247 27.0603 56.5032 27.1392 56.7402 27.1392H57.371C58.475 27.1392 58.7904 26.7449 59.2631 25.7991C59.3416 25.6418 59.4213 25.7202 59.4213 25.8779L59.0266 27.5335H54.3753C54.2172 27.5335 54.2969 27.2969 54.3753 27.2969C54.9265 27.2969 55.163 27.2181 55.163 26.5876V22.9615C55.163 22.2522 54.8476 22.1733 54.3753 22.1733C54.2172 22.1733 54.2969 21.9368 54.3753 21.9368H58.7103L59.2623 23.5135C59.2623 23.5923 59.1839 23.6708 59.105 23.5923C58.553 22.7249 58.1592 22.331 57.3702 22.331H56.4243V24.4593H56.819C57.764 24.4593 58.1592 24.3016 58.1592 23.4346C58.1592 23.2769 58.3165 23.2769 58.3165 23.4346V25.9572C58.3165 26.1149 58.1592 26.1149 58.0799 25.9568ZM47.5169 37.1506C45.6248 37.1506 44.2846 35.9682 44.2846 33.761C44.2846 31.5539 45.9402 30.4499 47.5169 30.4499C49.0143 30.4499 50.6699 31.7112 50.6699 33.8395C50.6699 36.047 49.0143 37.1506 47.5169 37.1506ZM47.5169 30.9235C46.0979 30.9235 45.7825 32.4209 45.7825 33.8399C45.7825 35.2589 46.0979 36.7567 47.5169 36.7567C48.857 36.7567 49.172 35.2589 49.172 33.8399C49.172 32.4209 48.857 30.9235 47.5169 30.9235ZM64.229 30.9235C63.5197 30.9235 63.3616 31.2389 62.9677 31.7905L61.5483 34.1557V35.9686C61.5483 36.6779 61.7064 36.6779 62.4157 36.6779C62.5739 36.6779 62.6523 36.9145 62.4157 36.9145H59.3412C59.1839 36.9145 59.1839 36.7567 59.3412 36.6779C60.0513 36.6779 60.2086 36.599 60.2086 35.8897V34.1557L58.4746 31.3177C58.238 31.0027 58.238 30.9239 57.6072 30.9239C57.449 30.9239 57.449 30.6873 57.6072 30.6873H60.6817C60.9175 30.6873 60.9175 30.9239 60.6817 30.9239C60.2082 30.9239 60.1297 31.0027 60.1297 31.16C60.1297 31.3177 60.2082 31.3966 60.287 31.4755L61.4699 33.4464L62.6527 31.5543C62.7312 31.3966 62.7312 31.3177 62.7312 31.2389C62.7312 31.0812 62.7312 30.9235 62.2584 30.9235C62.1003 30.9235 62.1003 30.6869 62.2584 30.6869H64.229C64.3863 30.6869 64.3863 30.9235 64.229 30.9235V30.9235ZM61.2329 46.1373C61.391 46.1373 61.391 46.3739 61.2329 46.3739H58.1592C58.001 46.3739 58.001 46.1373 58.1592 46.1373C58.79 46.1373 59.0257 46.0585 59.0257 45.2703V41.171C59.0257 40.4617 58.7103 40.3829 58.1592 40.3829C58.001 40.304 58.001 40.1463 58.1592 40.1463H60.839C62.7312 40.1463 63.5982 40.3829 63.5982 41.8803C63.5982 42.7473 62.9673 43.457 61.6267 43.457H60.3663V45.3487C60.3663 46.0585 60.5236 46.1373 61.2329 46.1373V46.1373ZM60.3663 42.9843H61.154C61.8633 42.9843 62.258 42.5112 62.258 41.6442C62.258 40.6983 61.5479 40.5402 60.9967 40.5402C60.4447 40.5402 60.3659 40.619 60.3659 41.171V42.9843H60.3663ZM54.1387 46.6104C52.1682 46.6104 50.9069 45.428 50.9069 43.142C50.9069 41.0137 52.3255 39.9098 54.1387 39.9098C55.7939 39.9098 57.2921 41.0133 57.2921 43.2209C57.2921 45.4284 55.7939 46.6104 54.1387 46.6104ZM54.1387 40.304C52.7202 40.304 52.4836 41.8019 52.4836 43.2209C52.4836 44.6399 52.7202 46.1377 54.1387 46.1377C55.4789 46.1377 55.7154 44.6399 55.7154 43.2209C55.7154 41.8019 55.4785 40.304 54.1387 40.304ZM53.5079 35.6532C53.4294 36.4413 53.5079 36.5202 54.2964 36.5202C55.715 36.5202 56.1877 35.4166 56.1877 33.8399C56.1877 32.1848 55.5577 31.1596 54.2964 31.1596C53.429 31.1596 53.5079 31.1596 53.5079 31.475V35.6532ZM51.3007 36.6775C51.8527 36.6775 52.0893 36.5986 52.0893 35.8893V31.7116C52.0893 31.0808 51.8527 30.9235 51.3007 30.9235C51.1434 30.9235 51.1434 30.6869 51.3007 30.6869H54.5326C56.0305 30.6869 57.6072 31.7905 57.6072 33.8399C57.6072 35.8893 56.267 36.9145 54.6907 36.9145H51.3007C51.1434 36.9145 51.1434 36.6775 51.3007 36.6775ZM37.4266 30.6869H40.58C41.5259 30.6869 43.0237 30.9235 43.0237 32.1847C43.0237 33.0518 42.0779 33.5249 41.3682 33.6033C42.314 33.6822 43.3388 34.2342 43.3388 35.2589C43.3388 36.7567 42.2352 36.9145 40.6585 36.9145H37.4262C37.2689 36.9145 37.2689 36.6779 37.4262 36.6779C37.9782 36.6779 38.2932 36.599 38.2932 35.8897V31.7116C38.2932 31.0023 37.9778 30.9235 37.4262 30.9235C37.2693 30.9235 37.2693 30.6869 37.4266 30.6869V30.6869ZM39.7126 36.047C39.7126 36.5202 40.028 36.5202 40.5008 36.5202C41.4466 36.5202 41.9982 36.1259 41.9982 35.2589C41.9982 34.0765 41.2101 33.8399 40.2642 33.8399H39.7122V36.047H39.7126V36.047ZM39.7126 33.3668H40.2646C41.2105 33.3668 41.6836 33.0513 41.6836 32.2632C41.6836 31.3962 41.1316 31.1592 40.1858 31.1592C39.7915 31.1592 39.7126 31.0808 39.7126 31.3958V33.3668ZM46.0979 46.3739H43.1026C42.9449 46.3739 42.9449 46.1373 43.1026 46.1373C43.6546 46.1373 43.8907 46.0585 43.8907 45.3487V41.3283C43.8907 40.5402 43.733 40.3825 43.1026 40.3825C42.9449 40.3825 42.9449 40.1459 43.1026 40.1459H46.0979C46.2556 40.1459 46.2556 40.3032 46.0979 40.3825C45.467 40.3825 45.3097 40.4609 45.3097 41.1706V42.8258H47.7535V41.2495C47.7535 40.5402 47.5169 40.3825 46.9653 40.3825C46.8076 40.3825 46.8076 40.1459 46.9653 40.1459H49.961C50.1183 40.1459 50.1183 40.3825 49.961 40.3825C49.409 40.3825 49.1725 40.4609 49.1725 41.1706V45.3483C49.1725 46.058 49.409 46.1369 49.961 46.1369C50.1183 46.1369 50.1183 46.3735 49.961 46.3735H46.9653C46.8076 46.3735 46.8076 46.1369 46.9653 46.1369C47.6746 46.1369 47.7535 46.058 47.7535 45.3483V43.2989H45.3097V45.3483C45.3097 46.058 45.4675 46.1369 46.0979 46.1369C46.2556 46.1373 46.2556 46.3739 46.0979 46.3739ZM41.6047 39.9886C41.6836 39.8309 41.7625 39.9097 41.7625 39.9886L41.9202 42.1957C41.9202 42.353 41.7625 42.353 41.7625 42.1957C41.447 41.3283 40.7377 40.3825 39.5553 40.3825C39.0822 40.3825 38.5306 40.5398 38.5306 41.2495C38.5306 41.9592 39.6342 42.2742 40.3435 42.5108C41.2893 42.905 42.2356 43.3778 42.2356 44.5602C42.3145 45.9792 41.1316 46.5312 39.7915 46.5312C39.4765 46.5312 39.161 46.5312 38.846 46.4523C38.5306 46.3739 38.294 46.2162 38.2152 46.2162C38.1363 46.2162 37.8209 46.2162 37.7425 46.5316C37.7425 46.6889 37.5847 46.6889 37.5847 46.5316L37.427 44.3245C37.427 44.1667 37.5847 44.1667 37.5847 44.3245C38.0579 45.428 38.531 46.1377 39.7919 46.1377C40.265 46.1377 41.0536 46.0589 41.132 45.3492C41.2897 44.561 40.5016 44.2456 39.398 43.7729C38.4522 43.4579 37.5847 42.9847 37.5847 41.8019C37.5847 40.619 38.531 39.9098 39.5557 39.9098C39.95 39.9098 40.3439 39.9886 40.5804 40.0675C40.817 40.2252 41.0536 40.304 41.132 40.304C41.3682 40.3829 41.5259 40.1463 41.6047 39.9886V39.9886Z" fill="white"/>
</svg>
