<svg width="100" height="100" viewBox="0 0 100 100" fill="none" xmlns="http://www.w3.org/2000/svg">
<rect x="0.5" y="0.5" width="99" height="99" fill="white" stroke="#008B00"/>
<g clip-path="url(#clip0_27_117)">
<path d="M34.5536 49.6878C34.8876 50.2406 35.0282 51.0168 34.7118 51.6225C34.4013 52.3458 33.6397 52.8397 32.8488 52.8574C32.0579 52.8691 31.3314 52.4575 30.9681 51.7342C30.7104 51.2637 30.6986 50.5993 30.9037 50.0818C31.1908 49.3585 31.8528 48.841 32.632 48.7704C33.4053 48.7528 34.126 49.0292 34.5536 49.6878V49.6878ZM44.3845 44.3425L44.5602 44.3189C46.1069 42.9429 48.7257 42.6665 50.5536 43.6309C52.2878 44.4895 53.4713 46.3183 53.565 48.253L53.5884 56.0563H49.8447L49.833 48.3882C49.7686 47.7237 49.3468 46.9769 48.632 46.7828C47.97 46.63 47.2552 46.7828 46.7865 47.3062C46.3471 47.7472 46.2651 48.3529 46.312 48.9939V56.074H42.5917L42.5683 48.2824C42.539 47.5943 42.0293 46.9945 41.3966 46.777C40.7814 46.5653 40.0901 46.7417 39.6272 47.1357C39.2757 47.4885 39.0824 47.9178 39.0414 48.4058V56.074H35.2977L35.3211 48.4353C35.3621 46.2124 36.8854 44.1249 38.9594 43.3839C40.7755 42.6783 42.9432 43.137 44.3845 44.3425ZM63.4368 43.9543C63.6009 43.8603 63.4954 43.5898 63.5247 43.3957H71.967C72.424 43.8897 72.7814 44.4365 73.1798 44.9834C73.1798 45.1657 72.8341 45.054 72.8986 45.2657L76.0564 49.5408L77.2926 51.2402L77.2106 51.4284C76.5661 52.3164 75.9627 53.1867 75.2596 54.057H75.1952C74.7616 53.5454 74.4336 52.975 73.9649 52.4928L73.8594 52.5222L71.2113 55.9975L71.0648 56.0387H63.4954V55.4506C63.3607 55.3742 63.2435 55.5212 63.1263 55.5859C61.3629 56.7914 58.5976 56.5091 56.9103 55.3448C54.6078 53.8453 53.4244 51.152 53.9107 48.4588C54.3149 46.0713 56.3654 43.7897 58.7323 43.2134C60.3083 42.7959 62.1772 42.9723 63.4368 43.9543V43.9543ZM63.1088 48.1471C62.5112 47.1945 61.4742 46.5711 60.2673 46.7005C59.1717 46.7593 58.1406 47.6002 57.7774 48.6117C57.4141 49.5231 57.5782 50.6639 58.1523 51.4343C58.8144 52.3222 59.8279 52.775 60.9586 52.6339C61.9136 52.5104 62.8158 51.8459 63.2318 50.9521C63.6419 50.1053 63.6185 48.9292 63.1088 48.1471V48.1471ZM71.223 48.6999L67.5028 43.7015L67.4149 43.6838L67.3563 43.872V54.4098C67.4207 54.4098 67.4617 54.351 67.5145 54.2981L71.3988 49.1527C71.4925 48.9586 71.2992 48.841 71.223 48.6999V48.6999ZM80.6027 43.1311C80.1047 43.8544 79.595 44.5777 79.0209 45.2716H78.974C78.7455 45.0775 78.6576 44.6835 78.2827 44.7717L74.6913 44.7482C74.662 44.7247 74.6152 44.7247 74.5976 44.6835C74.9608 44.1425 75.3358 43.6192 75.7928 43.1252L75.9451 43.037H80.5148L80.6027 43.1311V43.1311ZM20.9147 46.777H17.3819L17.3585 55.7153H13.5328V46.7828L10 46.777V43.0723H20.9147V46.777Z" fill="#ED1C2E"/>
<path d="M78.4174 45.1296C79.0502 45.8647 79.5716 46.7056 80.2043 47.4465L80.3391 47.4112C80.925 46.6938 81.464 45.9352 82.0264 45.2178L86.5317 45.2355C86.6313 45.2237 86.6079 45.3707 86.5551 45.4119L82.8232 50.6867C82.6767 50.8395 82.7763 51.0042 82.87 51.1453L86.2915 55.8144C87.5452 57.4256 88.7931 59.1251 89.9883 60.7775C90.0235 60.8716 89.9121 60.8951 89.8477 60.8834L85.1666 60.8657L80.3625 54.4678L80.2395 54.4031C79.4779 55.291 78.8686 56.279 78.1304 57.1845H73.2677V57.0552L77.6617 51.0277C77.732 50.8807 77.6207 50.7749 77.5562 50.6808L73.5606 45.212L73.6426 45.1179L78.4174 45.1296V45.1296ZM17.8565 50.8278C17.8565 49.6987 18.7704 48.7814 19.8953 48.7814C21.0202 48.7814 21.9341 49.6987 21.9341 50.8278C21.9341 51.9568 21.026 52.8742 19.8953 52.8742C18.7704 52.8742 17.8565 51.9568 17.8565 50.8278V50.8278ZM26.1289 43.0891L26.1641 55.6909H22.3969V43.0891H26.1289Z" fill="#ED1C2E"/>
<path d="M26.082 49.1344C26.6679 48.4228 28.5134 45.9354 29.0641 45.2239L33.5694 45.2415C33.6749 45.2298 33.6456 45.3768 33.5987 45.4179L29.8667 50.6927C29.7203 50.8456 29.8199 51.0102 29.9136 51.1514L33.3409 55.8204C34.5888 57.4317 35.8426 59.1311 37.0319 60.7835C37.0729 60.8776 36.9557 60.9012 36.8913 60.8894L32.2043 60.8717L26.1172 52.7273L26.082 49.1344V49.1344ZM89.5548 46.841C89.5548 47.6995 88.8576 48.3876 88.0081 48.3934C87.1527 48.3934 86.4614 47.6995 86.4614 46.841C86.4555 45.9825 87.1527 45.2886 88.0081 45.2886C88.8635 45.2886 89.5548 45.9883 89.5548 46.841V46.841ZM89.379 46.841C89.379 46.0824 88.7639 45.4709 88.0081 45.4709C87.2582 45.4709 86.6372 46.0883 86.6489 46.8469C86.6489 47.6055 87.2582 48.2229 88.0139 48.217C88.7639 48.217 89.379 47.6055 89.379 46.841" fill="#ED1C2E"/>
<path d="M87.4339 47.6524V45.9412H88.1955C88.4592 45.9412 88.7111 45.9941 88.7404 46.3822C88.7462 46.5998 88.6759 46.6821 88.5119 46.8056C88.6876 46.9173 88.6935 46.9467 88.7169 47.2407C88.7404 47.4701 88.7052 47.5054 88.799 47.6524H88.5412L88.506 47.4348C88.4709 47.229 88.5646 46.9173 88.2131 46.9173H87.6565V47.6524H87.4339V47.6524ZM88.2014 46.1352H87.6507V46.7233H88.2014C88.3479 46.7233 88.4885 46.6821 88.5177 46.4645C88.5412 46.1705 88.3361 46.1352 88.2014 46.1352Z" fill="#ED1C2E"/>
</g>
<defs>
<clipPath id="clip0_27_117">
<rect width="80" height="17.8903" fill="white" transform="translate(10 43)"/>
</clipPath>
</defs>
</svg>
