<svg width="100" height="100" viewBox="0 0 100 100" fill="none" xmlns="http://www.w3.org/2000/svg">
<rect x="0.5" y="0.5" width="99" height="99" fill="white" stroke="#008B00"/>
<path fill-rule="evenodd" clip-rule="evenodd" d="M9 11H89V90H9V11Z" fill="white"/>
<path fill-rule="evenodd" clip-rule="evenodd" d="M47.0004 41.4985C47.0004 41.4985 50.6878 40.4178 55.9602 41.4388L56 42.9704C56 42.9704 51.0046 41.7089 47 43V41.4985H47.0004Z" fill="white"/>
<path fill-rule="evenodd" clip-rule="evenodd" d="M49 42H53V47H49V42Z" fill="white"/>
<path d="M41 43.5004C41 41.9258 42.1626 40.5248 44.0413 39.5314C45.8312 38.5851 48.2922 38 50.9988 38H51.0004C53.7074 38 56.168 38.5855 57.9583 39.5318C59.8374 40.5248 61 41.9262 61 43.5V43.5004C61 45.0742 59.8374 46.4756 57.9583 47.4686C56.168 48.4145 53.7074 49 51.0004 49H50.9988C48.2922 49 45.8316 48.4145 44.0413 47.4686C42.1626 46.4756 41.0004 45.0742 41 43.5004V43.5004ZM41.9754 43.5V43.5004C41.9754 44.7027 42.9427 45.8151 44.5061 46.6417C46.1582 47.515 48.4531 48.0553 50.9988 48.0553H51.0004C53.5465 48.0553 55.8409 47.515 57.4935 46.6417C59.0565 45.8155 60.0238 44.7027 60.0238 43.5004V43.5C60.0238 42.2977 59.0565 41.1849 57.4935 40.3587C55.8409 39.4854 53.5465 38.9451 51.0004 38.9451H50.9988C48.4531 38.9451 46.1582 39.4854 44.5061 40.3587C42.9427 41.1849 41.9754 42.2973 41.9754 43.5V43.5Z" fill="#39577A"/>
<path fill-rule="evenodd" clip-rule="evenodd" d="M47.0004 41.4985C47.0004 41.4985 50.6878 40.4178 55.9602 41.4388L56 42.9704C56 42.9704 51.0046 41.7089 47 43V41.4985H47.0004Z" fill="#39577A"/>
<path fill-rule="evenodd" clip-rule="evenodd" d="M48.6857 42H52.8865V46.448H48.6857V42ZM59.2214 55.824H62V59.6291H59.2214V55.824ZM12 56.1422C12 56.1422 14.6729 55.1288 18.4953 56.0851L18.5239 57.5186C18.5239 57.5186 17.7875 57.279 16.7134 57.1261V59.7126H13.9253V57.0637C13.2788 57.1387 12.6228 57.2879 12 57.5474V56.1422V56.1422ZM38.3555 55.8175C38.8511 55.8204 39.7649 55.9282 40.3102 56.6198L41.5746 59.6291H38.8159L37.4069 57.0422H35.4957L36.775 59.6011H33.9587L32.5245 57.0422H31.1706V59.6011H28.4111V55.805H38.3555V55.8175V55.8175ZM21.2395 57.7728C21.2395 57.2238 22.186 56.7787 23.3529 56.7787C24.5203 56.7787 25.4664 57.2238 25.4664 57.7728C25.4664 58.3221 24.5203 58.7672 23.3529 58.7672C22.1856 58.7672 21.2395 58.3221 21.2395 57.7728V57.7728ZM18.6785 57.7728C18.6785 56.5432 20.7712 55.5459 23.3529 55.5459C25.9347 55.5459 28.027 56.5432 28.027 57.7728C28.027 59.0023 25.9342 60 23.3529 60C20.7716 60 18.6785 59.0023 18.6785 57.7728V57.7728ZM44.0229 56.1281C44.0229 56.1281 46.6962 55.1154 50.5182 56.0713L50.5472 57.5056C50.5472 57.5056 49.8108 57.2652 48.7358 57.1124V59.6984H45.9486V57.0495C45.3017 57.1245 44.6457 57.2737 44.0229 57.5332V56.1281Z" fill="#39577A"/>
<path fill-rule="evenodd" clip-rule="evenodd" d="M55.4721 57.2251H54.1519C53.724 57.3443 53.3636 57.5883 53.1385 57.9113H55.4721V57.2251V57.2251ZM54.1397 56.2843H58.1219V59.5222H55.4721V58.7245H52.8103C52.7678 58.9889 52.7595 59.2563 52.7856 59.5222L50.0209 59.5377C50.0209 59.5377 49.4607 56.9536 54.1397 56.2843V56.2843ZM62.8954 56.2677H65.6601V58.4851H67.5155V59.5222H62.8954V56.2677ZM70.1961 57.8941C70.1961 57.4276 71.1514 57.0488 72.3291 57.0488C73.5073 57.0488 74.4621 57.428 74.4621 57.8941C74.4621 58.3619 73.5077 58.7407 72.3291 58.7407C71.1514 58.7407 70.1961 58.3623 70.1961 57.8941ZM67.6133 57.8941C67.6133 56.848 69.7241 56 72.3287 56C74.9333 56 77.045 56.848 77.045 57.8941C77.045 58.9415 74.9333 59.7895 72.3287 59.7895C69.7241 59.7895 67.6133 58.9415 67.6133 57.8941ZM79.9309 57.5122C79.9309 57.25 80.4991 57.0378 81.2014 57.0378C81.9038 57.0378 82.4728 57.25 82.4728 57.5122C82.4728 57.7737 81.9038 57.9859 81.2014 57.9859C80.4991 57.9859 79.9309 57.7737 79.9309 57.5122ZM77.287 56.8063C77.287 56.8063 78.185 56.2084 80.2879 56.196H82.1153C82.1153 56.196 84.9126 56.2791 85 57.3441V57.6198C85 57.6198 84.7688 58.2891 83.4193 58.5044L84.7533 59.3538L82.811 60L80.0266 58.4447V59.5097L77.2578 59.5218L77.287 56.8656V56.8063V56.8063Z" fill="#39577A"/>
</svg>
