<svg width="100" height="100" viewBox="0 0 100 100" fill="none" xmlns="http://www.w3.org/2000/svg">
<rect x="0.5" y="0.5" width="99" height="99" fill="white" stroke="#008B00"/>
<path fill-rule="evenodd" clip-rule="evenodd" d="M10 10H90V90H10V10Z" fill="white"/>
<path fill-rule="evenodd" clip-rule="evenodd" d="M88.8171 75.4468V62.8535H11.1762V75.4468H88.8171Z" fill="#001C4E"/>
<path fill-rule="evenodd" clip-rule="evenodd" d="M21.1756 71.839H20.7643V69.331H17.2315V71.839H16.8202V66.5441H17.2315V68.9898H20.7643V66.5441H21.1756V71.839V71.839ZM28.1245 71.839H27.7132V66.5441H28.1245V71.839V71.839ZM35.0659 71.4971H37.6822V71.839H34.6542V66.5441H35.0659V71.4971V71.4971ZM46.3315 66.8852H44.0177V68.8965H46.1066V69.2376H44.0177V71.839H43.6064V66.5441H46.3315V66.8852ZM52.7371 71.839H52.325V66.5441H52.7371V71.839V71.839ZM63.6998 67.3903C63.0553 67.0255 62.4572 66.8545 61.8209 66.8545C60.4779 66.8545 59.4839 67.8485 59.4839 69.1916C59.4839 70.379 60.2679 71.5286 61.9367 71.5286C62.5506 71.5286 62.9702 71.412 63.3894 71.2028V69.7738H62.2708V69.4327H63.8007V71.4593C63.1715 71.7618 62.5352 71.9092 61.9218 71.9092C60.2762 71.9092 59.0419 70.745 59.0419 69.1766C59.0419 67.6236 60.2455 66.4747 61.884 66.4747C62.4813 66.4747 62.9548 66.5905 63.7006 66.9246V67.3903H63.6998V67.3903ZM73.0629 66.8852H70.5864V69.0052H73.0007V69.3464H70.5864V71.4971H73.1256V71.839H70.1747V66.5441H73.0629V66.8852V66.8852ZM79.701 66.8852H80.5626C81.5337 66.8852 81.96 67.3206 81.96 67.9178C81.96 68.5549 81.5101 68.9587 80.5779 68.9587H79.701V66.8852V66.8852ZM79.2901 66.5441V71.839H79.701V69.3003H80.4152C81.0523 69.3003 81.254 69.3854 81.8907 70.3873L82.8149 71.839H83.2964L82.1007 70.0071C81.8517 69.6344 81.6421 69.331 81.3939 69.1999C82.0691 68.9508 82.4032 68.5238 82.4032 67.9112C82.4032 67.2044 81.945 66.5445 80.6489 66.5445H79.2901V66.5441V66.5441ZM11.2285 37.1465V62.8536H49.8182V37.1465H11.2285Z" fill="white"/>
<path fill-rule="evenodd" clip-rule="evenodd" d="M49.8182 62.8536H88.8171V65.2973H88.8238V37.1465H49.8182V62.8536Z" fill="#B81D37"/>
<path fill-rule="evenodd" clip-rule="evenodd" d="M88.8238 37.1464V24.5531H11.1824V37.1464H88.8238Z" fill="#001C4E"/>
<path fill-rule="evenodd" clip-rule="evenodd" d="M21.1461 28.8197H19.1585V33.7731H18.7468V28.8197H16.7592V28.4777H21.1461V28.8197ZM36.0922 31.1252C36.0922 32.445 35.0675 33.4622 33.7398 33.4622C32.4121 33.4622 31.3717 32.445 31.3717 31.1252C31.3717 29.8054 32.4117 28.7885 33.7398 28.7885C35.0671 28.7885 36.0922 29.8054 36.0922 31.1252V31.1252ZM36.5347 31.1252C36.5347 29.6033 35.2999 28.408 33.7245 28.408C32.1561 28.408 30.9292 29.6037 30.9292 31.1252C30.9292 32.6467 32.1561 33.8424 33.7245 33.8424C35.2999 33.8428 36.5347 32.6471 36.5347 31.1252ZM51.9079 28.4777H52.3196V33.7731H51.9079V29.0753H51.8925L49.8892 31.5522L47.8862 29.0753H47.8704V33.7731H47.4587V28.4777H47.8704L49.8892 30.9392L51.9079 28.4777V28.4777ZM67.909 28.4777H68.3207V33.7731H67.909V29.0753H67.8937L65.8907 31.5522L63.8878 29.0753H63.8724V33.7731H63.4607V28.4777H63.8724L65.8907 30.9392L67.909 28.4777ZM81.3337 30.9314V33.7731H80.922V30.9314L78.8646 28.4777H79.3614L81.132 30.574L82.8942 28.4777H83.391L81.3337 30.9314V30.9314Z" fill="white"/>
</svg>
