<svg width="100" height="100" viewBox="0 0 100 100" fill="none" xmlns="http://www.w3.org/2000/svg">
<rect x="0.5" y="0.5" width="99" height="99" fill="white" stroke="#008B00"/>
<g clip-path="url(#clip0_27_127)">
<path d="M66.369 36.3024C61.8914 33.8437 57.4665 33.5818 54.7167 34.462C49.6291 36.0914 48.053 42.9765 52.7647 46.3481C53.0483 46.5518 52.8702 46.981 52.5141 47.6684C52.0723 48.5195 51.2513 50.1998 49.8071 51.411C48.9334 52.142 48.3696 52.4439 49.085 53.3459C49.085 53.3459 50.6776 55.2445 51.8547 55.7973C53.2725 56.4593 53.6286 56.3502 54.687 55.2954C55.3497 54.6334 56.6686 52.8222 58.2546 49.9379C59.0789 48.4394 60.1801 48.4103 60.0318 50.8763C60.0318 50.8763 59.8141 53.2513 59.7548 53.7387C59.5767 55.1535 59.7152 55.6446 60.9055 55.6555C60.9055 55.6555 63.4608 55.5027 64.3478 55.3718C65.5941 55.1899 65.5282 54.9753 65.8546 53.9278C67.6021 48.334 67.7472 38.7247 67.7472 38.7247C67.8197 37.4408 67.4373 36.8916 66.369 36.3024ZM63.0982 41.4816C63.0982 41.4816 61.5122 42.6419 61.4726 42.671C61.3374 42.7837 61.1528 42.9147 61.1297 43.453C61.1198 43.6748 61.0572 45.257 61.0539 45.4534C61.0506 45.6716 60.9616 46.2681 60.3153 45.6607C60.3153 45.6607 59.2338 44.6532 59.0756 44.5004C59.0393 44.4677 58.67 44.0203 58.093 44.2859L56.4015 45.006C56.4015 45.006 55.3827 45.4497 55.7619 44.475C56.1279 43.5293 56.3752 42.7401 56.4576 42.4855C56.54 42.22 56.5103 41.849 56.3059 41.5871C56.2103 41.4707 55.3992 40.3287 55.2145 40.045C55.2145 40.045 54.5485 39.1975 55.6597 39.2557C55.6597 39.2557 57.5589 39.2994 57.5885 39.303C57.6215 39.3067 57.9743 39.3321 58.2315 38.9066C58.5447 38.3828 59.4613 37.1571 59.2701 37.4154C59.4317 37.2008 59.8042 36.6661 60.0482 37.5536C60.0482 37.5536 60.3977 38.7247 60.5626 39.2121C60.6747 39.5431 60.7472 39.7722 61.3111 39.9613L63.0553 40.6342C63.0553 40.6378 63.8697 40.9033 63.0982 41.4816Z" fill="#0862AD"/>
<path d="M29.6052 43.7513C28.7908 42.3146 27.4884 41.3872 25.9354 41.1544C23.9538 40.8561 22.0316 41.7218 20.927 43.4058C20.1159 44.646 19.8521 46.1372 20.195 47.6103C21.0127 51.1564 24.2835 52.1457 26.3278 51.4983C28.6359 50.7709 29.9284 49.3306 30.2812 47.1011C30.4493 46.0245 30.202 44.806 29.6052 43.7513ZM23.9835 48.5414C23.3372 48.3122 22.8559 47.2138 23.09 46.0208C23.3208 44.8279 24.1088 44.0022 24.8408 44.2459C25.4903 44.4678 25.9684 45.6317 25.7409 46.8283C25.4969 48.1013 24.7221 48.8069 23.9835 48.5414Z" fill="#F48120"/>
<path d="M70.929 41.0379C70.7411 41.3434 69.2639 43.7293 69.0793 47.4028C69.0001 49.0359 69.6728 50.4725 70.8828 51.2545C72.2248 52.1238 73.969 52.051 75.5451 51.0581C78.9313 48.9231 79.3105 43.5511 79.2149 41.1252C79.1951 40.565 78.8851 40.2268 78.3642 40.2013C78.1663 40.1904 77.7377 40.2086 77.253 40.2523C76.7617 40.2959 76.465 40.6632 76.4419 41.2561L76.4353 41.4125C76.4122 43.6639 76.2705 45.6643 75.3505 46.8936C74.7472 47.7047 74.0284 48.0284 73.5569 47.8174C73.1348 47.632 72.8612 47.0282 72.9304 46.4099C73.092 44.8714 73.7019 43.6602 74.0811 42.8855L74.2427 42.5509C74.4735 42.0308 74.3581 41.4743 73.969 41.2597C73.7448 41.1361 73.2535 40.9397 72.8216 40.7724L72.3006 40.565C71.9313 40.4159 71.384 40.2923 70.929 41.0379Z" fill="#73BD45"/>
<path d="M82.7924 39.4666C81.3218 40.3032 80.5668 41.4489 80.4118 43.0674C80.2008 45.2497 82.9902 46.7736 83.653 47.1555C84.4509 47.6174 84.4806 48.1557 84.2728 48.4721C83.9464 48.9704 83.0397 48.8286 82.3736 48.5412C81.6417 48.2321 81.2691 47.8575 80.6657 47.1119C80.3129 46.6754 79.238 47.9266 79.0698 48.8031C78.994 49.2032 79.1391 49.3923 79.3666 49.7488C79.9535 50.6617 81.8362 52.2875 84.5663 52.5057C85.3213 52.5675 87.2799 52.6148 88.6021 51.3018C89.1362 50.7744 89.7198 49.8942 89.9242 48.8504C90.0627 48.1266 90.0528 47.1773 89.522 46.3153C88.7801 45.1005 87.5404 44.2967 86.1621 43.6057C84.1541 42.5982 84.5432 42.0017 84.9916 41.7289C85.4137 41.4671 86.8413 41.6525 87.9624 42.7837C88.5295 43.3584 89.7066 41.5762 89.2186 40.9688C87.4283 38.761 84.3948 38.5537 82.7924 39.4666Z" fill="#EA1A5B"/>
<path d="M41.5279 39.6194C40.4101 43.482 35.6358 52.3129 33.7728 53.1567C33.5091 53.2767 33.4563 53.3094 33.1826 53.2694C32.1935 53.1167 30.9603 51.7528 30.5614 51.2472C30.3833 51.0253 30.0041 50.5089 30.3108 50.2361C31.4747 49.2104 32.9222 47.6501 32.9914 46.7335C33.0079 46.5335 32.9485 46.3225 32.8826 46.2243C32.7738 46.0643 29.7503 41.667 29.4436 41.2015C28.9293 40.3977 28.9326 40.2086 29.503 39.903C30.0734 39.5939 30.9801 39.1756 31.6165 38.9028C32.2528 38.6337 32.3517 38.8228 32.5298 39.0447L35.2401 42.8055C35.4346 42.9509 35.6127 42.9109 35.7545 42.7254C36.1007 42.2744 37.5646 39.3575 37.7954 38.8992C38.0658 38.39 38.5109 38.5282 38.9593 38.5282C39.4341 38.5246 40.1727 38.5319 40.941 38.5719C41.6828 38.6155 41.7521 38.8446 41.5279 39.6194Z" fill="#73BD45"/>
<path d="M42.8825 40.5397C41.6626 41.3762 41.0823 42.431 41.0526 43.8458C41.013 45.759 43.4167 47.0283 44.0201 47.3156C44.7455 47.6612 44.8477 48.0722 44.7158 48.3777C44.5278 48.836 44.0959 48.9232 43.5881 48.8105C42.6682 48.6032 41.9527 47.7157 41.2273 47.2684C40.8185 47.021 40.2151 47.8794 40.1261 48.6541C40.0865 49.0033 40.1854 49.2033 40.4492 49.4506C41.1251 50.098 42.5199 51.6147 45.2895 51.7493C45.9489 51.782 47.6569 51.6365 48.7186 50.3999C49.1505 49.898 49.6022 49.236 49.7078 48.3086C49.7803 47.6721 49.6451 46.8937 49.1901 46.1372C48.8076 45.5044 48.1119 44.8679 46.8919 44.3114C44.9136 43.413 45.5401 42.5074 46.0083 42.3364C46.4105 42.191 47.1129 42.3037 48.2867 43.082C48.923 43.504 49.7605 41.8491 49.2395 41.4344C46.615 39.3431 44.2179 39.6268 42.8825 40.5397ZM10.9557 38.4484C15.2487 38.412 16.7028 38.3211 20.5737 37.6191C21.4474 37.4591 21.5167 37.9392 21.6618 38.2447C21.7805 38.4993 22.008 39.8341 21.9915 40.1796C21.975 40.5179 22.13 41.0162 21.6057 41.1798C19.9736 41.6818 19.5482 41.8382 18.4635 42.191C17.9623 42.3583 17.9953 42.5874 18.0085 43.0093C18.0843 45.348 18.7899 48.4431 19.2911 50.1708C19.5021 50.8982 19.5977 51.4183 19.1361 51.6111C18.4931 51.8693 16.7061 52.4076 16.2247 52.5167C15.3938 52.7095 15.2751 52.0366 15.1959 51.6911C14.4903 48.5777 14.1408 45.4098 14.0716 44.2241C14.0353 43.6203 13.8573 43.0529 13.3429 43.0711C12.8121 43.082 12.2219 43.1548 11.0711 43.1766C10.4546 43.1912 10.1281 43.1512 10.0457 42.5692C9.96328 41.9836 9.98636 39.3395 10.0754 38.9285C10.1743 38.5175 10.6095 38.452 10.9557 38.4484Z" fill="#EA1A5B"/>
</g>
<defs>
<clipPath id="clip0_27_127">
<rect width="80" height="22.2082" fill="white" transform="translate(10 34)"/>
</clipPath>
</defs>
</svg>
