<svg width="100" height="100" viewBox="0 0 100 100" fill="none" xmlns="http://www.w3.org/2000/svg">
<rect x="0.5" y="0.5" width="99" height="99" fill="white" stroke="#008B00"/>
<path fill-rule="evenodd" clip-rule="evenodd" d="M10 10H91V90H10V10Z" fill="white"/>
<path fill-rule="evenodd" clip-rule="evenodd" d="M80.9 60.0147C80.7319 60.15 80.5046 60.2766 80.2558 60.3949C79.844 60.5975 79.3964 60.805 78.9893 60.805C78.7102 60.805 78.5077 60.7303 78.3522 60.6041C78.2897 60.5518 78.2335 60.4925 78.185 60.4273C78.1505 60.382 78.1194 60.3364 78.0866 60.2945C77.9799 60.1592 77.8732 59.9629 77.7698 59.7172C77.1222 60.348 75.9658 60.8813 74.2841 60.8813C72.8616 60.8813 71.7367 60.5248 70.9311 59.7715C70.1466 59.0378 69.699 57.9823 69.699 56.5252V48.2058C69.699 47.8535 69.7713 47.6148 70.0264 47.4256C70.2899 47.2259 70.7945 47.1587 71.4371 47.1587C72.0632 47.1587 72.5696 47.2272 72.8322 47.4285C73.0843 47.6173 73.1558 47.8551 73.1558 48.2058V56.1425C73.1558 57.3245 73.6457 57.9072 75.0581 57.9072C76.473 57.9072 77.3092 57.0747 77.3092 55.9325V48.2058C77.3092 47.8535 77.3807 47.6148 77.6357 47.4256C77.8984 47.2264 78.3825 47.1587 79.0271 47.1587C79.654 47.1587 80.1604 47.2272 80.423 47.4285C80.6752 47.6173 80.7466 47.8551 80.7466 48.2058V57.4432C80.7466 57.7487 80.7949 58.0205 80.8534 58.2392C80.9092 58.4526 80.9748 58.6128 81.0118 58.7045C81.1265 58.9323 81.2303 59.1544 81.2303 59.4511C81.2307 59.701 81.0576 59.8882 80.9 60.0147V60.0147ZM65.4897 50.3901V59.6142C65.4897 59.967 65.4174 60.2052 65.1623 60.3949C64.8989 60.5941 64.395 60.6618 63.771 60.6618C63.1259 60.6618 62.6187 60.5937 62.3561 60.392C62.1031 60.2032 62.0325 59.9658 62.0325 59.6147V50.6367L60.4386 50.75C59.0128 50.8521 58.9574 49.6564 58.9574 48.9915C58.9574 47.6771 59.4482 47.206 60.3306 47.2056H67.2004C67.8736 47.2056 68.3816 47.4173 68.5817 48.3677C68.8031 49.4248 68.7123 50.1602 67.5147 50.2445L65.4897 50.3901V50.3901ZM87.0991 60.4231C86.8365 60.6224 86.3318 60.69 85.7077 60.69C85.0627 60.69 84.5563 60.6219 84.2937 60.4202C84.0407 60.2314 83.9701 59.994 83.9701 59.6429V48.2058C83.9701 47.8535 84.0416 47.6148 84.2966 47.4256C84.561 47.2259 85.0656 47.1587 85.7073 47.1587C86.3343 47.1587 86.8407 47.2272 87.1025 47.4285C87.3554 47.6169 87.426 47.8551 87.426 48.2058V59.6425C87.4264 59.9952 87.355 60.2343 87.0991 60.4231V60.4231ZM15.4007 40.9345H24.5405C25.4364 40.9345 26.1121 41.2138 26.3781 42.4693C26.6739 43.865 26.5521 44.837 24.9594 44.9482L22.0897 45.1504C24.2013 58.3148 36.5504 62.6062 43.2739 48.4275C44.3866 46.0809 44.7505 45.6534 45.9696 45.9518C47.6219 46.356 47.848 47.1944 47.0609 49.5609C41.248 67.0404 21.7103 68.7919 17.8766 45.4496L15.5456 45.6152C13.6488 45.7497 13.574 44.1709 13.574 43.2927C13.5736 41.557 14.227 40.9345 15.4007 40.9345V40.9345ZM48.6355 32.4811C49.3056 32.4811 49.9607 32.6773 50.5179 33.0451C51.0751 33.4128 51.5094 33.9354 51.7658 34.5469C52.0223 35.1583 52.0894 35.8312 51.9586 36.4803C51.8279 37.1295 51.5052 37.7257 51.0313 38.1938C50.5575 38.6618 49.9537 38.9805 49.2965 39.1096C48.6392 39.2387 47.958 39.1724 47.3389 38.9192C46.7197 38.6659 46.1906 38.237 45.8183 37.6866C45.446 37.1363 45.2472 36.4893 45.2472 35.8275C45.2472 34.94 45.6042 34.0888 46.2396 33.4612C46.8751 32.8336 47.7369 32.4811 48.6355 32.4811Z" fill="#CC2131"/>
</svg>
