<svg width="100" height="100" viewBox="0 0 100 100" fill="none" xmlns="http://www.w3.org/2000/svg">
<rect x="0.5" y="0.5" width="99" height="99" fill="white" stroke="#008B00"/>
<path fill-rule="evenodd" clip-rule="evenodd" d="M10 10H90V90H10V10Z" fill="white"/>
<path fill-rule="evenodd" clip-rule="evenodd" d="M21.6205 80.7434L19.7545 86.1617L17.845 80.7434H15.4905L18.4015 88.6656H20.9872L23.9152 80.7434H21.6205V80.7434ZM35.8727 84.714C35.8727 84.433 35.9281 84.1546 36.0357 83.8949C36.1433 83.6353 36.301 83.3993 36.4998 83.2006C36.6986 83.0019 36.9346 82.8443 37.1943 82.7368C37.454 82.6293 37.7324 82.574 38.0135 82.5741C38.5811 82.5741 39.1255 82.7996 39.5269 83.201C39.9283 83.6024 40.1538 84.1468 40.1538 84.7144C40.1538 85.2821 39.9283 85.8265 39.5269 86.2279C39.1255 86.6293 38.5811 86.8548 38.0135 86.8548C37.7323 86.8548 37.4539 86.7995 37.1942 86.6919C36.9344 86.5844 36.6984 86.4267 36.4996 86.2279C36.3008 86.0291 36.1431 85.7931 36.0356 85.5333C35.928 85.2736 35.8727 84.9952 35.8727 84.714V84.714ZM40.065 77.5107V81.4017C40.0604 81.3992 40.0575 81.3959 40.0538 81.3929C39.4038 80.914 38.6057 80.6139 37.7458 80.6139C35.5556 80.6139 33.7793 82.4417 33.7793 84.7003C33.7793 86.9577 35.5556 88.7876 37.7458 88.7876C38.5819 88.7878 39.3956 88.5171 40.065 88.016V88.6784H42.1011V77.5116H40.065V77.5107ZM45.5587 84.714C45.5587 84.433 45.6141 84.1546 45.7217 83.8949C45.8293 83.6353 45.987 83.3993 46.1858 83.2006C46.3846 83.0019 46.6206 82.8443 46.8803 82.7368C47.14 82.6293 47.4184 82.574 47.6995 82.5741C48.2672 82.574 48.8117 82.7994 49.2133 83.2007C49.6149 83.602 49.8407 84.1463 49.8411 84.714C49.83 85.2746 49.5996 85.8085 49.1992 86.201C48.7989 86.5936 48.2606 86.8134 47.6999 86.8134C47.1392 86.8134 46.6009 86.5936 46.2006 86.201C45.8002 85.8085 45.5698 85.2746 45.5587 84.714V84.714ZM49.7522 80.7517V81.4017C49.7477 81.3992 49.7439 81.3959 49.7406 81.3929C49.0898 80.914 48.2926 80.6139 47.4322 80.6139C45.2421 80.6139 43.4666 82.4417 43.4666 84.7003C43.4666 86.9577 45.2421 88.7876 47.4322 88.7876C48.2685 88.7874 49.0824 88.5168 49.7522 88.016V88.6784H51.7871V80.7521H49.7522V80.7517V80.7517ZM57.3374 80.7517H56.1188C56.1188 80.7517 56.113 80.4981 56.113 80.2711C56.113 79.7685 56.113 79.1298 56.9124 79.1298C57.1182 79.1298 57.317 79.1646 57.317 79.1646V77.3215C57.317 77.3215 56.9821 77.3132 56.753 77.3215C54.8812 77.3953 54.0569 78.0349 54.0569 79.9059V80.7521H53.1468V82.5783H54.0569V88.6651H56.1192V82.5783H57.3378V80.7517H57.3374V80.7517ZM69.6642 81.4423C70.2436 80.9148 71.087 80.587 71.9947 80.587C73.8598 80.587 74.9289 81.7752 74.9364 83.3432L74.9372 84.2326V88.666H72.8347V84.0404C72.8347 82.8779 72.0241 82.5231 71.3812 82.5231C70.7919 82.5231 69.6618 82.8489 69.7244 84.2699L69.7253 84.7946V88.666H67.6194V80.7513H69.6647V81.4423H69.6642V81.4423ZM78.4899 85.3291C78.5887 86.3252 79.4221 87.0494 80.4401 87.0494C81.2457 87.0494 81.7778 86.7315 82.0936 86.1546H84.2937C83.9434 87.3893 82.5556 88.7834 80.5115 88.7834C78.052 88.7834 76.3176 86.9523 76.3176 84.6916C76.3176 82.4326 78.177 80.6006 80.5115 80.6006C82.8486 80.6006 84.5095 82.5916 84.5095 84.6916C84.5095 85.1295 84.4602 85.3262 84.4602 85.3262L78.4899 85.3291V85.3291ZM82.2879 83.7976C82.1111 82.8995 81.3574 82.3816 80.4406 82.3816C79.4955 82.3816 78.7559 82.9319 78.543 83.7927L82.2879 83.7976ZM29.9278 80.8642C29.5543 80.9453 29.2197 81.1516 28.9795 81.4489C28.7393 81.7463 28.6079 82.1168 28.6072 82.499C28.6072 82.5169 28.6117 82.5372 28.6121 82.5534C29.8029 82.807 30.4026 83.6088 30.4026 84.6667C30.4026 85.8575 29.4306 86.8199 28.2415 86.8199C27.0525 86.8199 25.9418 85.8284 25.9418 84.3579C25.9418 82.5633 27.4812 80.8787 29.6738 80.826C29.7136 80.8252 29.7759 80.826 29.8402 80.8293C29.3431 80.6411 28.8158 80.5449 28.2843 80.5454C25.9314 80.5454 24.0235 82.3911 24.0235 84.6667C24.0235 86.9444 25.931 88.7888 28.2843 88.7888C30.6371 88.7888 32.5442 86.9448 32.5442 84.6667C32.545 82.9539 31.4647 81.4859 29.9278 80.8642V80.8642ZM62.0575 80.5807C59.7051 80.5807 57.7968 82.4255 57.7968 84.7028C57.7968 86.4148 58.8767 87.8845 60.4144 88.5062C60.7879 88.4244 61.1223 88.2177 61.3624 87.9201C61.6025 87.6226 61.734 87.2521 61.735 86.8697C61.735 86.8535 61.7309 86.8332 61.7292 86.8162C60.5393 86.5634 59.9396 85.7599 59.9396 84.7028C59.9396 83.5146 60.9108 82.5505 62.0999 82.5505C63.2881 82.5505 64.3996 83.5428 64.3996 85.0108C64.3996 86.807 62.8602 88.4908 60.6668 88.5427C60.6277 88.5452 60.5655 88.5427 60.5016 88.5402C60.9838 88.7232 61.5093 88.8241 62.0579 88.8241C64.4112 88.8241 66.3195 86.9793 66.3195 84.7028C66.3187 82.4255 64.4108 80.5807 62.0575 80.5807V80.5807ZM62.705 13.6277C56.8954 14.8985 52.5188 20.0682 52.5188 26.2551C52.5188 26.3887 52.5537 26.5472 52.5562 26.6796C61.7429 28.6336 66.3755 34.8246 66.3755 42.9908C66.3755 52.1655 58.8717 59.6029 49.6979 59.6029C40.5215 59.6029 31.9527 51.9501 31.9527 40.6011C31.9527 26.7469 43.8285 13.7497 60.7531 13.3388C61.0585 13.3318 61.5433 13.3426 62.0364 13.3654C58.3173 11.953 54.2649 11.1765 50.0278 11.1765C31.8668 11.1765 17.1431 25.4208 17.1431 42.9908C17.1431 60.5604 31.8668 74.8035 50.0278 74.8035C68.188 74.8035 82.9104 60.5604 82.9104 42.9908C82.9104 29.7679 74.5716 18.43 62.705 13.6277V13.6277Z" fill="#CC2131"/>
</svg>
