<svg width="100" height="100" viewBox="0 0 100 100" fill="none" xmlns="http://www.w3.org/2000/svg">
<path d="M99.723 0.276978H0.278015V99.721H99.723V0.276978Z" fill="white"/>
<path d="M99.444 0.556V99.446H0.556V0.556H99.444ZM100 0H0V100H100V0Z" fill="#0D8C2F"/>
<path d="M16.779 11.1379H29.442L42.688 34.2989L52.949 16.6409L63 34.1599L76.401 11.1379H82.683L59.928 50.6309L49.738 32.9739L39.479 50.4219L16.779 11.1379Z" fill="black"/>
<path d="M20.95 45.887H30.546L39.62 61.52L49.739 43.792L57.139 56.723V89.158H46.39V60.543L36.409 77.644L26.429 60.543V89.158H20.95V45.887Z" fill="black"/>
<path d="M62.652 56.723L68.863 45.887H81.009V56.723H73.54V64.382H80.257V69.786H73.54V89.158H62.721L62.652 56.723Z" fill="black"/>
</svg>
