<svg width="100" height="100" viewBox="0 0 100 100" fill="none" xmlns="http://www.w3.org/2000/svg">
<rect x="0.5" y="0.5" width="99" height="99" fill="white" stroke="#008B00"/>
<g clip-path="url(#clip0_27_121)">
<path d="M26.2848 58.0727C26.2848 59.646 25.2352 60.9231 24.4448 60.9231H15.5072L26.7488 38.4563H11.7184V42.1794H12.4896C12.4896 40.6061 13.3024 39.333 14.096 39.333H21.8176L10.5088 61.7958H26.816V58.0727H26.2848Z" fill="black"/>
<path d="M45.7888 59.9783L37.0912 38.4563L29.12 59.9943C28.9792 60.4667 28.2112 61.0632 27.1232 61.0632V61.7918H31.3664V61.0632C30.5792 61.0632 29.7344 60.5748 29.9392 59.9903L31.856 54.79H39.2096L41.2992 59.9783C41.536 60.5028 40.4768 61.0672 39.3856 61.0672V61.7958H48.2176L48.2208 61.0672C46.8832 61.0632 46.0672 60.5428 45.7888 59.9783ZM32.176 53.9493L35.3568 45.214L38.9088 53.9493H32.176Z" fill="black"/>
<path d="M49.2319 39.3571C50.5247 39.3571 51.5935 39.7734 51.5935 40.2778C51.5935 44.2812 51.5871 59.9543 51.5935 59.9543C51.5935 60.4907 50.5407 61.0872 49.2447 61.0872L49.2415 61.7918H57.8879V61.1353C56.6047 61.1353 55.5647 60.4947 55.5647 59.9583V39.1609H58.0575C60.4575 39.1609 62.4031 41.655 62.4031 44.4853C62.4031 47.3157 60.4575 49.6136 58.0543 49.6136H56.3295C56.3295 49.6136 62.1727 60.6829 62.1823 60.6829C62.4127 61.1033 62.5279 61.7958 62.5279 61.7958H68.8287V61.1393C67.6159 61.1393 66.9823 60.5108 66.6303 59.9583L61.0047 50.7746C63.7055 50.5504 65.7951 47.8201 65.7951 44.5774C65.7951 41.1906 63.4687 38.4563 60.5983 38.4563H49.2319V39.3571Z" fill="black"/>
<path d="M88.08 59.9783L79.3823 38.4563L71.4111 59.9943C71.2703 60.4667 70.5055 61.0872 69.4143 61.0872V61.7918H73.6575V61.1353C72.8703 61.1353 72.0287 60.5748 72.2303 59.9903L74.1471 54.79H81.5007L83.5904 59.9783C83.8304 60.5028 82.7679 61.0912 81.6767 61.0912V61.7958H90.5088L90.512 61.1153C89.1744 61.1153 88.3584 60.5428 88.08 59.9783ZM74.4639 53.9493L77.6447 45.214L81.1967 53.9493H74.4639Z" fill="black"/>
</g>
<defs>
<clipPath id="clip0_27_121">
<rect width="80" height="23.3395" fill="white" transform="translate(10 38)"/>
</clipPath>
</defs>
</svg>
