<svg width="100" height="100" viewBox="0 0 100 100" fill="none" xmlns="http://www.w3.org/2000/svg">
<rect x="0.5" y="0.5" width="99" height="99" fill="white" stroke="#008B00"/>
<path d="M83.9937 47.3484C83.5109 48.3125 82.6562 49.65 81.8672 50.4391H18.4391C17.9781 49.8031 16.8828 48.3781 16.4 47.3484H83.9937ZM79.2609 53.6609C78.4719 54.7562 77.2891 55.8094 76.0172 56.5109H24.0719C23.0422 55.8094 22.0109 54.7578 21.0469 53.6609H79.2609ZM72.0719 59.5125C66.4609 63.6984 60.3016 65.825 55.6328 66.1312C55.6328 64.4 55.6328 62.0328 56.1156 59.5125H72.0719ZM89.9125 26.6578C90.3953 31.7859 88.7297 38.0328 85.5734 44.3453H62.2078C63.0625 42.8547 64.1797 41.4297 65.4297 39.9844C72.225 32.05 82.6578 27.1172 89.9125 26.6578ZM44.5859 66.1531C40.0922 65.8469 33.9125 63.7203 28.2578 59.5344H44.3672C44.6734 62.0328 44.6734 64.4219 44.5859 66.1531ZM50.1969 66.6359C48.3781 64.9047 46.8 62.5375 45.1562 59.5344H55.1734C53.5937 62.5156 51.8625 64.9047 50.1969 66.6359ZM38.2734 44.3453H14.8219C11.6437 38.0328 10.0875 31.7859 10.5484 26.6578C17.7375 27.1187 28.2578 32.0281 35.0531 39.9844C36.2141 41.4297 37.3969 42.8547 38.2734 44.3453ZM60.3016 44.3453H40.0719C39.7656 42.5266 39.7656 40.7953 39.7656 38.7344C39.7656 27.6656 44.6531 16.225 50.1766 11.0953C55.6344 16.2234 60.6094 27.6875 60.6094 38.7344C60.6297 40.7937 60.4547 42.5484 60.3016 44.3453Z" fill="black"/>
<path d="M88.1812 70.6469C89.1453 70.6469 89.9125 71.4359 89.9125 72.4656C89.9125 73.4078 89.1453 74.1969 88.1812 74.1969C87.2171 74.1969 86.45 73.4078 86.45 72.4656C86.45 71.4359 87.239 70.6469 88.1812 70.6469ZM88.1812 70.8875C87.3046 70.8875 86.6906 71.5891 86.6906 72.4656C86.6906 73.2547 87.3265 73.9562 88.1812 73.9562C88.9703 73.9562 89.6718 73.2547 89.6718 72.4656C89.6937 71.6109 88.9703 70.8875 88.1812 70.8875ZM88.575 72.4875C88.6625 72.4875 88.8812 72.5531 88.8812 72.8812V73.4297H88.575V73.1891C88.575 72.7953 88.4875 72.6187 88.2687 72.6187H87.875V73.4078H87.5687V71.4359H88.2046C88.5984 71.4359 88.9062 71.6766 88.9062 72.0062C88.9046 72.225 88.7281 72.4875 88.575 72.4875ZM87.8734 71.7641V72.3125H88.1796C88.3328 72.3125 88.5734 72.225 88.5734 72.0719C88.5734 71.8969 88.3984 71.7656 88.2671 71.7656H87.8734" fill="black"/>
<path d="M83.9062 88.9047C87.2156 88.9047 90 87.5672 90 84.2578C90 82.3734 88.6625 81.1016 86.5156 80.5312C84.3016 79.9828 81.475 80.0703 81.475 78.6469C81.6281 77.7047 82.5047 77.4641 83.8422 77.4641C85.9031 77.4641 85.9906 78.5594 86.0781 79.2828H89.4531C89.2125 76.675 87.0859 74.8547 83.6891 74.8547C80.1391 74.8547 78.0781 76.7391 78.0781 79.2156C78.0781 80.6406 78.7797 81.9109 79.9625 82.525C80.8172 82.9187 82.0016 83.2266 83.4469 83.4891C84.9375 83.6422 86.275 83.7953 86.3625 84.8266C86.3625 85.5281 85.6609 86.4047 84.0609 86.4047C81.7594 86.4047 81.3 85.1328 81.3 84.2781H77.75C77.8359 86.9969 80.1156 88.9047 83.9062 88.9047Z" fill="black"/>
<path d="M69.0687 88.9047C70.5812 88.9047 71.9187 88.4219 73.0359 87.7219V88.5984H76.4328V75.0094H73.0141V76.039C71.9187 75.25 70.5812 74.8562 69.0469 74.8562C65.1891 74.8562 61.9453 77.9469 61.9453 81.8922C61.9672 85.7484 65.2109 88.9047 69.0687 88.9047ZM65.2984 81.8687C65.2984 79.7203 67.1172 77.9015 69.2437 77.9015C71.3047 77.9015 73.0359 79.7203 73.0359 81.8687C73.0359 83.9078 71.3047 85.7484 69.2437 85.7484C67.0953 85.7484 65.2984 83.9062 65.2984 81.8687Z" fill="black"/>
<path d="M57.539 70.3391V76.0156C56.3562 75.2266 55.0187 74.8328 53.5062 74.8328C49.6265 74.8328 46.4703 77.9234 46.4703 81.8688C46.4703 85.7485 49.6265 88.8828 53.5062 88.8828C54.9968 88.8828 56.4218 88.4 57.539 87.7V88.5766H60.8484V70.3172H57.539V70.3391ZM49.7375 81.8688C49.7375 79.7203 51.5562 77.9016 53.5953 77.9016C55.7437 77.9016 57.5625 79.7203 57.5625 81.8688C57.5625 83.9078 55.7437 85.7485 53.5953 85.7485C51.5343 85.7485 49.7375 83.9063 49.7375 81.8688Z" fill="black"/>
<path d="M41.7594 88.575H45.0688V74.986H41.7594V88.575ZM41.7594 73.7375H45.0688V70.3406H41.7594V73.7375Z" fill="black"/>
<path d="M32.6625 88.9047C34.1532 88.9047 35.4907 88.4219 36.6954 87.7219V88.5984H40.0922V70.3391H36.6954V76.0156C35.5125 75.2265 34.175 74.8328 32.6625 74.8328C28.7828 74.8328 25.561 77.9234 25.561 81.8687C25.561 85.7484 28.7828 88.9047 32.6625 88.9047ZM28.7828 81.8687C28.7828 79.7203 30.6016 77.9016 32.8157 77.9016C34.8766 77.9016 36.6954 79.7203 36.6954 81.8687C36.6954 83.9078 34.8766 85.7484 32.8157 85.7484C30.6032 85.7484 28.7828 83.9062 28.7828 81.8687Z" fill="black"/>
<path d="M17.0141 88.9047C18.5922 88.9047 19.9297 88.4219 21.1125 87.7219V88.5984H24.4219V75.0094H21.1125V76.039C19.9297 75.25 18.5047 74.8562 17.0141 74.8562C13.1344 74.8547 10 77.9453 10 81.8906C10 85.7484 13.1562 88.9047 17.0141 88.9047ZM13.2219 81.8687C13.2219 79.7203 15.0406 77.9015 17.1016 77.9015C19.3156 77.9015 21.1344 79.7203 21.1344 81.8687C21.1344 83.9078 19.3156 85.7484 17.1016 85.7484C15.0406 85.7484 13.2219 83.9062 13.2219 81.8687Z" fill="black"/>
</svg>
