<svg width="100" height="100" viewBox="0 0 100 100" fill="none" xmlns="http://www.w3.org/2000/svg">
<rect x="0.5" y="0.5" width="99" height="99" fill="white" stroke="#008B00"/>
<path fill-rule="evenodd" clip-rule="evenodd" d="M10 10H90V90H10V10Z" fill="white"/>
<path fill-rule="evenodd" clip-rule="evenodd" d="M21.2009 50.6337C20.4717 52.4088 18.538 52.5989 16.731 52.5989H13.5294L16.3824 45.118H14.3852L15.0829 43.3109H19.2672C20.1865 43.3109 21.3275 43.3744 22.0886 44.1987C22.5323 44.6743 22.6908 45.4031 22.4373 46.0688C22.1202 47.0196 21.391 47.6219 20.4721 48.0975C21.2324 48.7005 21.5495 49.7464 21.2009 50.6337V50.6337ZM19.3303 49.9045C19.3938 49.5879 19.3623 49.2708 19.1722 49.0807C18.8867 48.7636 18.6015 48.7321 17.6503 48.7321H17.1431L16.3189 50.7927C17.0796 50.7927 18.0309 50.8242 18.4745 50.6977C19.0452 50.5391 19.2672 50.127 19.3303 49.9045V49.9045ZM20.3447 45.7841C20.3447 45.4355 20.1546 45.1184 19.2984 45.1184H18.5376L17.8084 46.9254C18.5376 46.9254 19.2668 46.9254 19.5835 46.7984C20.123 46.5448 20.3131 46.1643 20.3447 45.7841ZM23.2296 50.9824C22.2783 52.3773 21.0739 52.5993 19.9645 52.5993C20.5667 52.3142 21.2959 51.7755 21.5495 50.9824H23.2296V50.9824Z" fill="black"/>
<path fill-rule="evenodd" clip-rule="evenodd" d="M28.3017 47.052H30.1718L28.6184 51.0463H31.4393C30.457 52.0291 29.2521 52.9799 27.8892 52.6313C27.5405 52.5362 27.0969 52.1237 27.0014 51.8386C26.2087 52.4092 25.797 52.8214 24.6556 52.8214C23.6728 52.8214 23.1657 51.68 23.1341 51.0143C23.0706 50.0315 23.3877 48.8587 24.7511 47.5907C25.3533 47.0201 26.3992 46.6395 27.2554 46.8935C27.5725 46.957 27.8576 47.1155 28.1112 47.4957L28.3017 47.052V47.052ZM25.4168 50.8877C25.7974 51.2048 26.4946 50.7927 26.8752 50.3486C27.2874 49.8099 27.763 48.9541 27.2239 48.5735C26.7167 48.2249 25.9244 48.7956 25.5118 49.4613C25.2583 49.9045 25.0682 50.5707 25.4168 50.8877V50.8877Z" fill="black"/>
<path fill-rule="evenodd" clip-rule="evenodd" d="M34.0391 47.0836C34.6729 47.0201 35.3705 46.8935 35.6876 47.4007C35.9728 47.8763 35.8142 48.288 35.3705 49.4293L34.7679 51.0463H37.4943C36.4164 52.1872 35.2116 52.7264 34.0707 52.7264C33.7851 52.7264 33.1829 52.5994 32.9613 52.1872C32.6762 51.712 32.9293 50.9509 33.3419 49.8734L33.881 48.447H32.8032L31.9474 50.6977C31.9474 50.6977 31.6303 51.3634 30.1088 51.9341C30.7425 50.9828 31.5983 48.6055 31.5352 48.3519C31.2816 47.5596 31.6938 46.4498 32.0739 46.0696C32.296 45.8796 32.5176 45.8476 32.7081 45.8796C32.9297 45.9431 33.1202 46.0381 33.1518 46.2917C33.2149 46.4818 33.1833 46.7038 33.0883 47.1794L34.0391 47.0836V47.0836Z" fill="black"/>
<path fill-rule="evenodd" clip-rule="evenodd" d="M41.774 43.3113L40.2525 47.3056C40.9497 46.7034 41.679 46.7349 42.1546 46.8935C42.6302 47.0201 42.9788 47.3691 43.1058 48.1614C43.2644 49.0807 42.7572 50.6653 41.8695 51.6801C41.0452 52.6313 39.7773 52.9164 38.953 52.8214C38.4459 52.7579 37.6536 52.5678 37.273 51.9336C36.8608 51.236 37.2095 50.3486 37.7801 48.9222L39.9354 43.3109H41.774V43.3113V43.3113ZM39.1427 51.236C39.7764 51.458 40.3471 50.6022 40.6011 50.1266C40.8862 49.5879 41.2984 48.5416 40.6962 48.4146C40.189 48.3195 39.5233 48.9533 39.1431 49.9365C38.9526 50.3486 38.7625 51.1098 39.1427 51.236V51.236ZM44.8801 51.0459C43.7707 52.2188 42.978 52.7259 41.4565 52.7259C42.1853 52.2188 42.6294 51.6166 42.883 51.0459H44.8801Z" fill="black"/>
<path fill-rule="evenodd" clip-rule="evenodd" d="M51.2522 51.2044C50.0477 52.3458 48.8433 52.7259 47.702 52.7259C46.7827 52.7259 46.339 52.7259 45.7368 52.5674C45.2297 52.4404 44.6905 51.9652 44.5639 51.236C44.3104 49.9365 45.0711 48.32 45.8638 47.6858C46.9101 46.83 47.7659 46.6714 48.6532 46.8935C49.0969 47.0201 49.4775 47.4007 49.6045 47.9078C49.763 48.447 49.541 49.0807 49.0654 49.6198C48.2731 50.4756 47.4484 50.7931 46.3075 51.2048H51.2522V51.2044V51.2044ZM47.9556 48.7005C47.9871 48.6055 48.0822 48.415 48.0506 48.32C48.0506 48.193 47.797 48.0664 47.3534 48.32C47.0678 48.51 46.5291 49.0807 46.4976 49.7145C47.0994 49.5563 47.7966 49.0807 47.9556 48.7005Z" fill="black"/>
<path fill-rule="evenodd" clip-rule="evenodd" d="M53.8515 47.0836C54.4537 47.0201 55.1825 46.8935 55.4996 47.4007C55.7851 47.8763 55.627 48.288 55.1825 49.4293L54.5487 51.0463H57.307C56.2288 52.1872 54.9928 52.7264 53.883 52.7264C53.5659 52.7264 52.9953 52.5994 52.7417 52.1872C52.4881 51.712 52.7417 50.9509 53.1227 49.8734L53.661 48.447H52.6151L51.7593 50.6977C51.7593 50.6977 51.4107 51.3634 49.9207 51.9341C50.5233 50.9828 51.4107 48.6055 51.3152 48.3519C51.094 47.5596 51.4742 46.4498 51.8859 46.0696C52.1079 45.8796 52.2984 45.8476 52.5196 45.8796C52.7101 45.9431 52.9006 46.0381 52.9637 46.2917C52.9953 46.4818 52.9953 46.7038 52.8687 47.1794L53.8515 47.0836Z" fill="black"/>
<path fill-rule="evenodd" clip-rule="evenodd" d="M61.1104 48.6686L61.2693 49.3343C61.4905 50.1901 61.5229 50.5076 61.1739 51.0463H63.5516C62.5377 52.0291 61.6814 52.7263 61.0477 52.7263H57.6245L58.0997 51.1733C58.8609 51.1733 59.0821 51.1733 59.3676 50.7931C59.6532 50.4441 59.3992 49.5248 59.3046 49.0811L59.2095 48.6374L57.3709 51.2052C57.3709 51.2052 56.7048 51.7759 55.3738 52.1561C56.4836 50.9832 58.3222 48.5109 59.019 46.4502H61.0481C60.8568 47.4641 60.8252 47.5272 61.1104 48.6686V48.6686Z" fill="black"/>
<path fill-rule="evenodd" clip-rule="evenodd" d="M67.863 43.3113L66.246 47.4957C66.5954 47.1786 67.6094 46.6084 68.4971 46.735C68.8142 46.7985 69.2259 47.0205 69.3529 47.3691C69.5426 47.8448 69.3529 48.6055 69.0043 49.4929L68.4021 51.0463H71.3496C70.5262 51.9656 68.9404 52.7264 67.9265 52.7264C67.5147 52.7264 66.9756 52.5994 66.6901 52.1873C66.468 51.8386 66.4045 51.395 66.8167 50.254L67.2292 49.1762C67.4504 48.6375 67.4504 48.574 67.4189 48.4154C67.4189 48.3204 67.2923 48.2884 67.1653 48.2884C66.3099 48.2884 65.4541 49.4613 64.915 50.9828L64.3443 52.5998H62.4426L65.9932 43.3118H67.863V43.3113V43.3113Z" fill="black"/>
<path fill-rule="evenodd" clip-rule="evenodd" d="M76.3899 49.8099C76.0728 51.0463 74.4882 53.5191 72.1104 52.6629C70.8425 52.2192 70.5889 50.6657 71.3492 48.9537C71.9838 47.5592 73.0297 46.671 74.6467 46.83C75.9466 46.957 76.8655 47.9394 76.3899 49.8099V49.8099ZM73.0932 51.1098C73.7589 51.3314 74.362 50.4756 74.6147 49.6829C74.7737 49.0492 74.6787 48.6366 74.203 48.4785C73.6639 48.32 73.1248 48.9857 72.872 49.5563C72.6496 50.095 72.5865 50.9508 73.0932 51.1098V51.1098ZM78.546 51.0459C77.3092 52.7259 76.3899 52.7259 74.963 52.7259C75.6291 52.2188 76.0728 51.6796 76.3899 51.0459H78.546V51.0459Z" fill="black"/>
<path fill-rule="evenodd" clip-rule="evenodd" d="M81.6205 47.2741C82.2543 46.8935 83.1105 46.7034 83.7127 46.9254C84.0298 47.0205 84.3784 47.2425 84.5369 47.6227C84.7581 48.1618 84.632 49.7149 83.5222 51.0463H86.4706C85.7418 52.0291 84.886 52.7263 82.3493 52.7263C80.6697 52.7263 80.4476 52.5363 79.8139 52.0926L78.0068 56.6891H76.1359L80.3202 45.7845H82.1596L81.6205 47.2741V47.2741ZM80.6058 50.8877C81.1133 51.2048 81.9691 50.4756 82.3178 49.7464C82.5713 49.2392 82.8569 48.4469 82.3493 48.2564C81.8741 48.0664 81.2403 48.637 80.8593 49.3658C80.5742 49.9045 80.2887 50.6977 80.6058 50.8877Z" fill="black"/>
</svg>
