<svg width="100" height="100" viewBox="0 0 100 100" fill="none" xmlns="http://www.w3.org/2000/svg">
<rect x="0.5" y="0.5" width="99" height="99" fill="white" stroke="#008B00"/>
<g clip-path="url(#clip0_22_4174)">
<path d="M11.9219 42.8531V48.6625H15.2766C16.6141 48.6625 17.6438 48.3562 18.3672 47.7203C19.0031 47.1937 19.3094 46.5141 19.3094 45.7031C19.3094 43.7953 18.2125 42.8531 16.0422 42.8531H11.9219ZM11.9219 50.2844V56.9047H15.5172C18.3234 56.9047 19.7484 55.875 19.7484 53.7922C19.7484 52.6953 19.3313 51.8406 18.5203 51.2266C17.7094 50.5906 16.6125 50.2844 15.2313 50.2844H11.9219ZM9.99219 58.5281V41.2078H16.3719C17.8406 41.2078 19.025 41.625 19.9016 42.4359C20.7781 43.2469 21.2172 44.2781 21.2172 45.4828C21.2172 47.4562 20.2313 48.7937 18.3016 49.4734L18.3234 49.5172C19.2875 49.7578 20.1 50.2844 20.7125 51.0734C21.3266 51.8844 21.6547 52.8047 21.6547 53.8797C21.6547 56.9922 19.5719 58.5281 15.3625 58.5281H9.99219Z" fill="black"/>
<path d="M26.1281 51.1625H32.464C32.464 50 32.2015 49.0578 31.6749 48.3562C31.1484 47.6547 30.4249 47.3031 29.4827 47.3031C28.4531 47.3031 27.6624 47.6547 27.0937 48.3328C26.5234 49.0359 26.2156 49.9781 26.1281 51.1625ZM33.2312 55.1734L34.5687 55.875C34.064 56.7734 33.5156 57.4312 32.9468 57.8703C32.0921 58.4844 31.039 58.7906 29.7906 58.7906C28.2781 58.7906 27.0281 58.2859 26.0421 57.2562C24.9234 56.0937 24.3546 54.45 24.3546 52.3234C24.3546 50.3281 24.8156 48.75 25.7359 47.5875C26.6562 46.425 27.8843 45.8562 29.4406 45.8562C30.8437 45.8562 31.9624 46.2953 32.7952 47.1937C33.7156 48.1797 34.1765 49.6266 34.1765 51.5125V52.675H26.0624C26.0624 54.0344 26.414 55.1531 27.1374 56.0078C27.839 56.8844 28.7156 57.3234 29.7687 57.3234C31.3015 57.3 32.4421 56.5766 33.2312 55.1734Z" fill="black"/>
<path d="M37.0687 58.5281V46.0531H38.8V48.5312H38.8437C39.3484 47.6109 39.8968 46.9531 40.4437 46.5578C41.1015 46.0969 41.9125 45.8562 42.8984 45.8562V47.5875C41.8687 47.6094 41.0125 47.9609 40.3547 48.6625C39.7406 49.2766 39.2359 50.2625 38.7984 51.6V58.55L37.0687 58.5281Z" fill="black"/>
<path d="M43.9517 56.4016L45.311 55.3719C46.2095 56.6438 47.3938 57.2797 48.8845 57.2797C49.761 57.2797 50.4407 57.0609 50.9235 56.6219C51.3626 56.2484 51.5813 55.7891 51.5813 55.2188C51.5813 54.3641 50.9454 53.7063 49.6517 53.2453C48.4892 52.85 47.3282 52.4344 46.1438 52.0391C44.872 51.425 44.2798 50.4609 44.3235 49.1672C44.3454 48.0922 44.7407 47.2594 45.5079 46.6672C46.2532 46.075 47.2392 45.7906 48.4673 45.8125C49.2782 45.8344 50.0892 46.0312 50.9001 46.4484C51.711 46.8656 52.3251 47.3687 52.7423 48.0047L51.536 49.0578C50.572 47.8953 49.497 47.3047 48.3126 47.3047C46.8001 47.3047 46.0548 47.9187 46.0548 49.1469C46.0548 49.8703 46.6688 50.4406 47.9188 50.8781C50.111 51.6234 51.2735 52.0188 51.4266 52.1063C52.6766 52.7859 53.2907 53.7938 53.2907 55.1313C53.2907 56.2938 52.8516 57.1922 51.9532 57.8719C51.1423 58.4859 50.1548 58.7922 48.9282 58.7922C46.8017 58.7688 45.136 57.9797 43.9517 56.4016Z" fill="black"/>
<path d="M56.1859 41.2312H57.9172V47.7641H57.9609C59.1015 46.4922 60.3281 45.8344 61.6656 45.8344C62.6953 45.8344 63.5297 46.1187 64.1656 46.6453C64.9109 47.2812 65.2625 48.2234 65.2625 49.4734V58.55H63.5312V49.5391C63.5312 48.0703 62.8515 47.325 61.4922 47.325C60.2859 47.325 59.1031 47.9609 57.9187 49.2109V58.55H56.1875L56.1859 41.2312Z" fill="black"/>
<path d="M69.3844 58.5281V41.2312H71.1157V52.3672L76.1797 46.075H78.2844L74.6016 50.6797L78.7672 58.5281H76.7281L73.4172 52.1484L71.1157 54.8016V58.5281H69.3844Z" fill="black"/>
<path d="M87.9968 55.2391V51.7969C84.0718 52.4766 82.0999 53.6828 82.0999 55.3703C82.0999 55.9187 82.3187 56.3781 82.7577 56.7297C83.1968 57.1031 83.6562 57.2781 84.1608 57.2781C84.7749 57.2781 85.4327 57.0812 86.1561 56.6859C86.8796 56.3141 87.4921 55.8312 87.9968 55.2391ZM82.2312 49.2547L80.7187 48.4656C81.7046 46.7109 83.2624 45.8344 85.389 45.8344C86.5952 45.8344 87.5811 46.1187 88.3483 46.6672C89.2686 47.3469 89.7077 48.3109 89.7077 49.5609V55.8531C89.7077 56.9047 89.7952 57.8047 89.9921 58.5281H88.2155L88.0187 56.7969C86.8343 58.1125 85.453 58.7703 83.8968 58.7703C82.889 58.7703 82.0546 58.4859 81.3968 57.9156C80.6952 57.2797 80.3452 56.425 80.3452 55.35C80.3452 53.9906 80.9155 52.9391 82.0765 52.1703C83.239 51.4031 85.189 50.7672 87.9733 50.2844V49.6047C87.9733 48.0922 87.1186 47.325 85.4077 47.325C83.8093 47.3031 82.7577 47.9609 82.2312 49.2547Z" fill="black"/>
</g>
<defs>
<clipPath id="clip0_22_4174">
<rect width="80" height="80" fill="white" transform="translate(10 10)"/>
</clipPath>
</defs>
</svg>
