<svg width="100" height="100" viewBox="0 0 100 100" fill="none" xmlns="http://www.w3.org/2000/svg">
<rect x="0.5" y="0.5" width="99" height="99" fill="white" stroke="#008B00"/>
<g clip-path="url(#clip0_22_4237)">
<path d="M90 10.2943H10V89.7062H90V10.2943Z" fill="white" stroke="black" stroke-width="1.0015" stroke-miterlimit="10"/>
<path d="M43.1371 50.688C43.1502 50.6613 43.1621 50.6338 43.174 50.6052C43.1938 50.6338 43.2154 50.6613 43.2385 50.688H43.1371ZM46.633 57.7076C46.7758 57.7937 48.5799 59.2594 49.5235 59.1172C49.5791 59.1198 49.6335 59.1217 49.6887 59.1217C50.9374 59.1217 52.0216 58.3868 52.5695 57.3069C52.6535 57.38 52.7396 57.4484 52.8306 57.5119L54.1267 58.4881C54.6593 58.8855 55.3101 59.1198 56.0143 59.1198C57.8158 59.1198 59.2763 57.5895 59.2763 55.7023C59.2763 54.5808 58.7598 53.589 57.9635 52.9666L56.8389 52.1196C56.8155 52.1006 56.792 52.0824 56.7681 52.0639C56.7647 52.0613 56.7625 52.0594 56.7599 52.0576C57.0515 51.9395 57.3544 51.6784 57.3384 51.1415C57.3249 50.6918 57.1172 50.4456 56.8826 50.313L55.9356 49.6817C55.9308 49.6784 55.9252 49.6743 55.9199 49.6706L56.2474 49.6702C56.7155 49.6702 57.1657 49.3553 57.1657 48.6646C57.1657 48.2056 56.9553 47.9601 56.7218 47.8335L55.7805 47.2063C55.7745 47.2019 55.7696 47.1985 55.7644 47.1933L56.3436 47.1978C56.6193 47.1978 57.3369 47.1012 57.3384 46.1654C57.3384 45.7629 57.1314 45.526 56.899 45.3916L55.4765 44.4424C55.2441 44.2586 54.9469 44.2036 54.8036 44.2036L52.1783 44.2044C51.3872 44.2007 51.1578 44.8969 51.1511 45.262C51.1131 45.2326 51.0754 45.2077 51.0378 45.1862L49.7324 44.3169C49.5712 44.1903 49.4153 44.1442 49.1882 44.1234C48.547 44.0625 48.1073 44.1279 47.7672 44.79L47.0399 46.2093L46.8564 45.8699C46.715 45.6166 46.5356 45.4539 46.3599 45.3492L44.9371 44.4004C44.5346 44.0959 44.0979 44.1349 44.0979 44.1349C43.9957 44.1219 43.5768 44.1476 43.29 44.4684C42.9961 44.7989 43.0036 45.2337 43.0099 45.2854V45.409L41.4263 44.3433C41.2767 44.2259 41.0813 44.1442 40.8243 44.1386C40.056 44.1386 39.7863 44.9849 39.7878 45.2564L39.7912 46.1238C39.7468 45.8851 39.6204 45.4833 39.2634 45.2854L37.8383 44.3343C37.6902 44.2166 37.4933 44.1372 37.2259 44.1386C36.2617 44.1464 36.2248 45.0306 36.2248 45.2835V48.5298C36.2323 48.9958 36.39 49.3627 36.5128 49.5952C36.5325 49.6353 36.5538 49.6732 36.575 49.7118C36.5624 49.7036 36.55 49.6951 36.5374 49.688C36.4989 49.6576 36.4594 49.6316 36.4184 49.6082L35.8257 49.2127C35.6445 49.0708 35.4323 49.004 35.2808 48.981C35.2741 48.0047 35.2663 46.3106 35.2663 46.3106C35.2655 46.2278 35.2062 45.5843 34.7165 45.3102L33.291 44.3603C33.1411 44.2419 32.9412 44.1591 32.6697 44.1591C31.6977 44.1591 31.6664 45.2126 31.6664 45.2828L31.6656 45.7365C31.5403 45.611 31.4154 45.5141 31.2953 45.441L29.8772 44.4962C29.5721 44.2738 29.2864 44.2051 29.0973 44.2051L26.8685 44.2059C26.7118 44.2059 25.867 44.2623 25.867 45.3114V50.0471C25.8547 50.5358 26.0957 50.8243 26.369 50.9796L27.7822 51.9231C27.99 52.085 28.244 52.1515 28.4245 52.1552L30.8589 52.1686C31.1431 52.1686 31.6231 51.967 31.8342 51.7813C32.0494 51.5663 32.2169 51.3323 32.3332 51.0828C32.3705 51.1117 32.4093 51.1363 32.4477 51.1578L33.6278 51.9458C33.8113 52.0906 34.0213 52.1549 34.2417 52.1549L34.3697 52.1552C33.8192 52.8251 33.6267 53.7067 34.1869 54.2444C34.2238 54.2797 34.2682 54.3094 34.3186 54.338L35.1253 54.9024C35.129 54.9054 35.1324 54.908 35.1354 54.9125C35.1425 54.9173 35.1484 54.9203 35.154 54.924L33.9139 56.2467C33.4119 56.8784 33.7643 57.6526 34.2186 57.8958C34.2566 57.9252 34.2962 57.9523 34.3368 57.9753L35.6337 58.8394C35.7571 58.9386 35.8962 58.9976 36.0309 59.0006H39.1967C39.4782 59.0028 40.1731 58.8153 40.1544 57.9812C40.1533 57.884 40.1392 57.7986 40.1209 57.7198C40.1563 57.7432 40.1921 57.7655 40.2272 57.7874L41.2745 58.4863C41.3066 58.51 41.3401 58.5342 41.3748 58.5542C41.891 58.9144 42.5098 59.1224 43.1763 59.1224C44.428 59.1224 45.5014 58.3752 46.0448 57.2887C46.0448 57.2879 46.3909 57.5609 46.633 57.7076Z" fill="#EE2922"/>
<path d="M43.1371 50.688C43.1502 50.6613 43.1621 50.6338 43.174 50.6052C43.1938 50.6338 43.2154 50.6613 43.2385 50.688H43.1371ZM46.633 57.7076C46.7758 57.7937 48.5799 59.2594 49.5235 59.1172C49.5791 59.1198 49.6335 59.1217 49.6887 59.1217C50.9374 59.1217 52.0216 58.3868 52.5695 57.3069C52.6535 57.38 52.7396 57.4484 52.8306 57.5119L54.1267 58.4881C54.6593 58.8855 55.3101 59.1198 56.0143 59.1198C57.8158 59.1198 59.2763 57.5895 59.2763 55.7023C59.2763 54.5808 58.7598 53.589 57.9635 52.9666L56.8389 52.1196C56.8155 52.1006 56.792 52.0824 56.7681 52.0639C56.7647 52.0613 56.7625 52.0594 56.7599 52.0576C57.0515 51.9395 57.3544 51.6784 57.3384 51.1415C57.3249 50.6918 57.1172 50.4456 56.8826 50.313L55.9356 49.6817C55.9308 49.6784 55.9252 49.6743 55.9199 49.6706L56.2474 49.6702C56.7155 49.6702 57.1657 49.3553 57.1657 48.6646C57.1657 48.2056 56.9553 47.9601 56.7218 47.8335L55.7805 47.2063C55.7745 47.2019 55.7696 47.1985 55.7644 47.1933L56.3436 47.1978C56.6193 47.1978 57.3369 47.1012 57.3384 46.1654C57.3384 45.7629 57.1314 45.526 56.899 45.3916L55.4765 44.4424C55.2441 44.2586 54.9469 44.2036 54.8036 44.2036L52.1783 44.2044C51.3872 44.2007 51.1578 44.8969 51.1511 45.262C51.1131 45.2326 51.0754 45.2077 51.0378 45.1862L49.7324 44.3169C49.5712 44.1903 49.4153 44.1442 49.1882 44.1234C48.547 44.0625 48.1073 44.1279 47.7672 44.79L47.0399 46.2093L46.8564 45.8699C46.715 45.6166 46.5356 45.4539 46.3599 45.3492L44.9371 44.4004C44.5346 44.0959 44.0979 44.1349 44.0979 44.1349C43.9957 44.1219 43.5768 44.1476 43.29 44.4684C42.9961 44.7989 43.0036 45.2337 43.0099 45.2854V45.409L41.4263 44.3433C41.2767 44.2259 41.0813 44.1442 40.8243 44.1386C40.056 44.1386 39.7863 44.9849 39.7878 45.2564L39.7912 46.1238C39.7468 45.8851 39.6204 45.4833 39.2634 45.2854L37.8383 44.3343C37.6902 44.2166 37.4933 44.1372 37.2259 44.1386C36.2617 44.1464 36.2248 45.0306 36.2248 45.2835V48.5298C36.2323 48.9958 36.39 49.3627 36.5128 49.5952C36.5325 49.6353 36.5538 49.6732 36.575 49.7118C36.5624 49.7036 36.55 49.6951 36.5374 49.688C36.4989 49.6576 36.4594 49.6316 36.4184 49.6082L35.8257 49.2127C35.6445 49.0708 35.4323 49.004 35.2808 48.981C35.2741 48.0047 35.2663 46.3106 35.2663 46.3106C35.2655 46.2278 35.2062 45.5843 34.7165 45.3102L33.291 44.3603C33.1411 44.2419 32.9412 44.1591 32.6697 44.1591C31.6977 44.1591 31.6664 45.2126 31.6664 45.2828L31.6656 45.7365C31.5403 45.611 31.4154 45.5141 31.2953 45.441L29.8772 44.4962C29.5721 44.2738 29.2864 44.2051 29.0973 44.2051L26.8685 44.2059C26.7118 44.2059 25.867 44.2623 25.867 45.3114V50.0471C25.8547 50.5358 26.0957 50.8243 26.369 50.9796L27.7822 51.9231C27.99 52.085 28.244 52.1515 28.4245 52.1552L30.8589 52.1686C31.1431 52.1686 31.6231 51.967 31.8342 51.7813C32.0494 51.5663 32.2169 51.3323 32.3332 51.0828C32.3705 51.1117 32.4093 51.1363 32.4477 51.1578L33.6278 51.9458C33.8113 52.0906 34.0213 52.1549 34.2417 52.1549L34.3697 52.1552C33.8192 52.8251 33.6267 53.7067 34.1869 54.2444C34.2238 54.2797 34.2682 54.3094 34.3186 54.338L35.1253 54.9024C35.129 54.9054 35.1324 54.908 35.1354 54.9125C35.1425 54.9173 35.1484 54.9203 35.154 54.924L33.9139 56.2467C33.4119 56.8784 33.7643 57.6526 34.2186 57.8958C34.2566 57.9252 34.2962 57.9523 34.3368 57.9753L35.6337 58.8394C35.7571 58.9386 35.8962 58.9976 36.0309 59.0006H39.1967C39.4782 59.0028 40.1731 58.8153 40.1544 57.9812C40.1533 57.884 40.1392 57.7986 40.1209 57.7198C40.1563 57.7432 40.1921 57.7655 40.2272 57.7874L41.2745 58.4863C41.3066 58.51 41.3401 58.5342 41.3748 58.5542C41.891 58.9144 42.5098 59.1224 43.1763 59.1224C44.428 59.1224 45.5014 58.3752 46.0448 57.2887C46.0448 57.2879 46.3909 57.5609 46.633 57.7076Z" stroke="#EE2922" stroke-width="0.671939" stroke-miterlimit="3.8637"/>
<path d="M51.4465 54.7212C51.4465 52.8351 52.906 51.3056 54.7074 51.3056C56.5085 51.3056 57.9691 52.8351 57.9691 54.7212C57.9691 56.6084 56.5085 58.1372 54.7074 58.1372C52.9063 58.1376 51.4465 56.608 51.4465 54.7212Z" fill="white"/>
<path d="M51.4465 54.7212C51.4465 52.8351 52.906 51.3056 54.7074 51.3056C56.5085 51.3056 57.9691 52.8351 57.9691 54.7212C57.9691 56.6084 56.5085 58.1372 54.7074 58.1372C52.9063 58.1376 51.4465 56.608 51.4465 54.7212Z" stroke="#EE2922" stroke-width="0.671939" stroke-miterlimit="3.8637"/>
<path d="M51.4465 54.7201C51.4465 52.8329 52.906 51.3045 54.7074 51.3045C56.5085 51.3045 57.9691 52.8329 57.9691 54.7201C57.9691 56.6073 56.5085 58.1357 54.7074 58.1357C52.9063 58.1357 51.4465 56.6062 51.4465 54.7201Z" fill="white"/>
<path d="M51.4465 54.7201C51.4465 52.8329 52.906 51.3045 54.7074 51.3045C56.5085 51.3045 57.9691 52.8329 57.9691 54.7201C57.9691 56.6073 56.5085 58.1357 54.7074 58.1357C52.9063 58.1357 51.4465 56.6062 51.4465 54.7201Z" stroke="#EE2922" stroke-width="0.671939" stroke-miterlimit="3.8637"/>
<path d="M30.9521 49.5785C30.8793 50.0163 30.6447 50.4066 30.296 50.7564C30.0849 50.9409 29.6053 51.1426 29.3207 51.1426L26.8863 51.1296C26.5174 51.121 25.8495 50.8555 25.87 50.049V45.3132C25.87 44.2645 26.7147 44.2077 26.8714 44.2077L29.0995 44.2073C29.4177 44.2073 30.0062 44.4001 30.5105 45.1921C30.8614 45.7432 30.9088 46.262 30.7634 46.8691C30.6671 47.2668 30.3486 47.6166 30.3486 47.6166C31.0293 48.0585 31.0293 49.1158 30.9521 49.5785Z" fill="white"/>
<path d="M30.9521 49.5785C30.8793 50.0163 30.6447 50.4066 30.296 50.7564C30.0849 50.9409 29.6053 51.1426 29.3207 51.1426L26.8863 51.1296C26.5174 51.121 25.8495 50.8555 25.87 50.049V45.3132C25.87 44.2645 26.7147 44.2077 26.8714 44.2077L29.0995 44.2073C29.4177 44.2073 30.0062 44.4001 30.5105 45.1921C30.8614 45.7432 30.9088 46.262 30.7634 46.8691C30.6671 47.2668 30.3486 47.6166 30.3486 47.6166C31.0293 48.0585 31.0293 49.1158 30.9521 49.5785Z" stroke="#EE2922" stroke-width="0.671939"/>
<path d="M28.8384 46.5676C28.8384 46.363 28.7224 46.0893 28.4815 46.0893H27.4954V46.9653H28.4856C28.731 46.9657 28.8384 46.7436 28.8384 46.5676Z" fill="#EE2922"/>
<path d="M28.8571 48.6416C28.7616 48.5573 28.6198 48.5253 28.4852 48.5049L27.4968 48.5109L27.4998 49.4437C27.5121 49.4414 28.5042 49.4489 28.5042 49.4489C28.7616 49.4489 28.9951 49.2598 29.0148 48.9828C29.0268 48.8588 28.9529 48.7218 28.8571 48.6416Z" fill="#EE2922"/>
<path d="M36.1975 50.0163C36.2035 50.8236 35.5049 51.1329 35.148 51.1329L32.7039 51.1296C32.4089 51.1296 32.1321 51.0159 31.9113 50.7445C31.7193 50.5065 31.6637 50.1752 31.6637 49.9881L31.6693 45.2868C31.6693 45.2167 31.7014 44.1631 32.6737 44.1631C33.6356 44.1631 33.7266 45.1817 33.7266 45.2868C33.7266 45.2868 33.7449 48.6111 33.7479 48.6345C33.7479 48.6586 33.7355 48.7701 33.7706 48.8443C33.8448 48.9981 34.1749 48.9713 34.1749 48.9713C34.1909 48.9765 35.1566 48.9739 35.1566 48.9739C35.4053 48.9728 36.1923 49.1529 36.1975 50.0163Z" fill="white"/>
<path d="M36.1975 50.0163C36.2035 50.8236 35.5049 51.1329 35.148 51.1329L32.7039 51.1296C32.4089 51.1296 32.1321 51.0159 31.9113 50.7445C31.7193 50.5065 31.6637 50.1752 31.6637 49.9881L31.6693 45.2868C31.6693 45.2167 31.7014 44.1631 32.6737 44.1631C33.6356 44.1631 33.7266 45.1817 33.7266 45.2868C33.7266 45.2868 33.7449 48.6111 33.7479 48.6345C33.7479 48.6586 33.7355 48.7701 33.7706 48.8443C33.8448 48.9981 34.1749 48.9713 34.1749 48.9713C34.1909 48.9765 35.1566 48.9739 35.1566 48.9739C35.4053 48.9728 36.1923 49.1529 36.1975 50.0163Z" stroke="#EE2922" stroke-width="0.671939"/>
<path d="M39.0964 48.913C39.5033 48.9212 39.8211 48.6152 39.8017 48.0493L39.7927 45.2597C39.792 44.9879 40.0616 44.1416 40.8292 44.1416C41.6997 44.1606 41.8784 45.0406 41.8784 45.2854V48.275C41.8985 48.8852 41.7676 49.4492 41.4409 49.9431C41.2525 50.248 40.981 50.4938 40.7046 50.7144C40.5245 50.8306 40.3354 50.9317 40.1441 51.0082C39.9102 51.108 39.5909 51.1771 39.3269 51.189C39.0848 51.189 38.6779 51.1645 38.509 51.1277C37.6194 50.9313 36.944 50.4489 36.5177 49.5967C36.3942 49.3631 36.2372 48.9969 36.2301 48.5317V45.2839C36.2301 45.0314 36.2663 44.1483 37.2312 44.1405C38.2087 44.1323 38.2762 45.2155 38.2762 45.2839L38.2893 47.9821C38.3277 48.5833 38.763 48.9212 39.0964 48.913Z" fill="white"/>
<path d="M39.0964 48.913C39.5033 48.9212 39.8211 48.6152 39.8017 48.0493L39.7927 45.2597C39.792 44.9879 40.0616 44.1416 40.8292 44.1416C41.6997 44.1606 41.8784 45.0406 41.8784 45.2854V48.275C41.8985 48.8852 41.7676 49.4492 41.4409 49.9431C41.2525 50.248 40.981 50.4938 40.7046 50.7144C40.5245 50.8306 40.3354 50.9317 40.1441 51.0082C39.9102 51.108 39.5909 51.1771 39.3269 51.189C39.0848 51.189 38.6779 51.1645 38.509 51.1277C37.6194 50.9313 36.944 50.4489 36.5177 49.5967C36.3942 49.3631 36.2372 48.9969 36.2301 48.5317V45.2839C36.2301 45.0314 36.2663 44.1483 37.2312 44.1405C38.2087 44.1323 38.2762 45.2155 38.2762 45.2839L38.2893 47.9821C38.3277 48.5833 38.763 48.9212 39.0964 48.913Z" stroke="#EE2922" stroke-width="0.671939"/>
<path d="M46.5643 47.1465L47.7709 44.793C48.1103 44.1308 48.5511 44.0659 49.1926 44.1264C49.4798 44.1535 49.6536 44.2177 49.8677 44.4387C50.0482 44.6318 50.1441 44.8884 50.1441 45.2861V50.0868C50.1799 50.5391 49.6559 51.1066 49.0565 51.1144C48.4739 51.1066 47.9257 50.609 47.9421 50.0946L47.9238 49.1399C47.9238 49.1399 47.5288 50.5143 46.6132 50.5135C45.6475 50.4816 45.2347 49.1562 45.2347 49.1562L45.2365 50.0868C45.2365 50.5221 44.7644 51.127 44.049 51.121C43.5776 51.121 43.0133 50.6075 43.0133 50.1682L43.0136 45.2894C43.0077 45.2378 42.9998 44.8026 43.2941 44.4725C43.5794 44.1516 43.9986 44.126 44.1008 44.1394C44.1008 44.1394 44.8837 44.067 45.3171 44.8446L46.5643 47.1465Z" fill="white"/>
<path d="M46.5643 47.1465L47.7709 44.793C48.1103 44.1308 48.5511 44.0659 49.1926 44.1264C49.4798 44.1535 49.6536 44.2177 49.8677 44.4387C50.0482 44.6318 50.1441 44.8884 50.1441 45.2861V50.0868C50.1799 50.5391 49.6559 51.1066 49.0565 51.1144C48.4739 51.1066 47.9257 50.609 47.9421 50.0946L47.9238 49.1399C47.9238 49.1399 47.5288 50.5143 46.6132 50.5135C45.6475 50.4816 45.2347 49.1562 45.2347 49.1562L45.2365 50.0868C45.2365 50.5221 44.7644 51.127 44.049 51.121C43.5776 51.121 43.0133 50.6075 43.0133 50.1682L43.0136 45.2894C43.0077 45.2378 42.9998 44.8026 43.2941 44.4725C43.5794 44.1516 43.9986 44.126 44.1008 44.1394C44.1008 44.1394 44.8837 44.067 45.3171 44.8446L46.5643 47.1465Z" stroke="#EE2922" stroke-width="0.671939" stroke-miterlimit="20"/>
<path d="M54.7928 49.1451C55.0826 49.1451 55.7767 49.2833 55.8002 50.1162C55.8244 50.9487 55.0826 51.121 54.8062 51.121L52.1905 51.1218C51.6837 51.1099 51.1459 50.6676 51.1619 50.0464L51.1541 45.2865C51.1541 44.9266 51.3767 44.2047 52.1823 44.2085L54.8073 44.2077C55.0628 44.2077 55.8016 44.3808 55.8016 45.1405C55.8005 46.076 55.0833 46.1733 54.8073 46.1733L53.44 46.1636C53.3177 46.1629 53.1759 46.1762 53.1759 46.4224C53.1752 46.6226 53.2897 46.6812 53.44 46.6812L54.6939 46.682C54.9699 46.682 55.629 46.8279 55.629 47.6393C55.629 48.33 55.1784 48.6457 54.71 48.6457H53.4407C53.2983 48.6301 53.2039 48.6665 53.2002 48.8855C53.1957 49.0842 53.3139 49.1433 53.4407 49.1433L54.7928 49.1451Z" fill="white"/>
<path d="M54.7928 49.1451C55.0826 49.1451 55.7767 49.2833 55.8002 50.1162C55.8244 50.9487 55.0826 51.121 54.8062 51.121L52.1905 51.1218C51.6837 51.1099 51.1459 50.6676 51.1619 50.0464L51.1541 45.2865C51.1541 44.9266 51.3767 44.2047 52.1823 44.2085L54.8073 44.2077C55.0628 44.2077 55.8016 44.3808 55.8016 45.1405C55.8005 46.076 55.0833 46.1733 54.8073 46.1733L53.44 46.1636C53.3177 46.1629 53.1759 46.1762 53.1759 46.4224C53.1752 46.6226 53.2897 46.6812 53.44 46.6812L54.6939 46.682C54.9699 46.682 55.629 46.8279 55.629 47.6393C55.629 48.33 55.1784 48.6457 54.71 48.6457H53.4407C53.2983 48.6301 53.2039 48.6665 53.2002 48.8855C53.1957 49.0842 53.3139 49.1433 53.4407 49.1433L54.7928 49.1451Z" stroke="#EE2922" stroke-width="0.671939"/>
<path d="M37.6592 57.9749H34.4938C33.937 57.959 33.3193 57.0013 33.9176 56.2482L35.8484 54.1891C35.9491 54.0892 36.5813 53.5563 36.2274 53.2745C35.9835 53.081 35.8257 53.6778 35.6008 53.9648C35.1204 54.5749 34.4606 54.5051 34.1906 54.2474C33.222 53.3168 34.5035 51.3609 36.0006 51.2403C37.2124 51.1437 38.3403 52.0037 38.4387 53.2715C38.4973 54.0298 38.1881 54.4735 37.7629 55.0918C37.5253 55.4364 37.0438 55.8776 37.0438 55.8776H37.6551C37.7935 55.8795 38.5995 56.0235 38.6189 56.9549C38.636 57.7885 37.9419 57.9764 37.6592 57.9749Z" fill="white"/>
<path d="M37.6592 57.9749H34.4938C33.937 57.959 33.3193 57.0013 33.9176 56.2482L35.8484 54.1891C35.9491 54.0892 36.5813 53.5563 36.2274 53.2745C35.9835 53.081 35.8257 53.6778 35.6008 53.9648C35.1204 54.5749 34.4606 54.5051 34.1906 54.2474C33.222 53.3168 34.5035 51.3609 36.0006 51.2403C37.2124 51.1437 38.3403 52.0037 38.4387 53.2715C38.4973 54.0298 38.1881 54.4735 37.7629 55.0918C37.5253 55.4364 37.0438 55.8776 37.0438 55.8776H37.6551C37.7935 55.8795 38.5995 56.0235 38.6189 56.9549C38.636 57.7885 37.9419 57.9764 37.6592 57.9749Z" stroke="#EE2922" stroke-width="0.671939"/>
<path d="M38.3768 54.6807C38.3768 52.7947 39.8378 51.2651 41.6392 51.2651C43.4403 51.2651 44.9005 52.7947 44.9005 54.6807C44.9005 56.5664 43.4403 58.096 41.6392 58.096C39.8381 58.096 38.3768 56.5675 38.3768 54.6807Z" fill="white"/>
<path d="M38.3768 54.6807C38.3768 52.7947 39.8378 51.2651 41.6392 51.2651C43.4403 51.2651 44.9005 52.7947 44.9005 54.6807C44.9005 56.5664 43.4403 58.096 41.6392 58.096C39.8381 58.096 38.3768 56.5675 38.3768 54.6807Z" stroke="#EE2922" stroke-width="0.671939" stroke-miterlimit="3.8637"/>
<path d="M44.89 54.6807C44.89 52.7947 46.3506 51.2651 48.152 51.2651C49.9535 51.2651 51.414 52.7947 51.414 54.6807C51.414 56.5664 49.9535 58.096 48.152 58.096C46.3502 58.096 44.89 56.5675 44.89 54.6807Z" fill="white"/>
<path d="M44.89 54.6807C44.89 52.7947 46.3506 51.2651 48.152 51.2651C49.9535 51.2651 51.414 52.7947 51.414 54.6807C51.414 56.5664 49.9535 58.096 48.152 58.096C46.3502 58.096 44.89 56.5675 44.89 54.6807Z" stroke="#EE2922" stroke-width="0.671939" stroke-miterlimit="3.8637"/>
<path d="M40.2559 54.6807C40.2559 53.8798 40.875 53.2314 41.6392 53.2314C42.4031 53.2314 43.0222 53.8798 43.0222 54.6807C43.0222 55.4799 42.4031 56.1294 41.6392 56.1294C40.875 56.129 40.2559 55.4799 40.2559 54.6807Z" fill="#EE2922"/>
<path d="M46.7687 54.6807C46.7687 53.8798 47.3871 53.2314 48.152 53.2314C48.9148 53.2314 49.535 53.8798 49.535 54.6807C49.535 55.4799 48.9148 56.1294 48.152 56.1294C47.3878 56.129 46.7687 55.4799 46.7687 54.6807Z" fill="#EE2922"/>
<path d="M53.2726 54.6807C53.2726 53.8798 53.8921 53.2314 54.6559 53.2314C55.4198 53.2314 56.0389 53.8798 56.0389 54.6807C56.0389 55.4799 55.4198 56.1294 54.6559 56.1294C53.8913 56.129 53.2726 55.4799 53.2726 54.6807Z" fill="#EE2922"/>
<path d="M62.9561 50.0437L64.3678 48.4618C64.3678 48.4618 63.2138 48.5075 62.8475 47.9854C62.4399 47.4024 62.6133 46.718 63.031 46.1428C63.5771 45.3908 64.5815 45.1613 65.3062 45.7217C65.7444 46.06 65.9499 47.021 65.9548 47.0184C67.9673 45.529 68.9292 45.5891 68.9318 45.5416C68.9341 45.5405 69.2056 44.7855 69.0068 44.1973C68.3638 42.3016 67.2728 43.7487 66.2651 43.2132C65.443 42.7754 65.8194 41.7067 64.2913 41.8489C62.921 41.9759 63.31 42.9734 62.9497 43.1453C62.5477 43.3388 61.9729 42.5081 61.08 43.5838C60.2617 44.5686 61.2303 45.373 61.2042 46.0711C61.1848 46.5624 59.0772 46.63 60.2151 48.8874C61.011 50.4667 62.9561 50.0437 62.9561 50.0437Z" fill="#EE2922"/>
<path d="M62.9561 50.0437L64.3678 48.4618C64.3678 48.4618 63.2138 48.5075 62.8475 47.9854C62.4399 47.4024 62.6133 46.718 63.031 46.1428C63.5771 45.3908 64.5815 45.1613 65.3062 45.7217C65.7444 46.06 65.9499 47.021 65.9548 47.0184C67.9673 45.529 68.9292 45.5891 68.9318 45.5416C68.9341 45.5405 69.2056 44.7855 69.0068 44.1973C68.3638 42.3016 67.2728 43.7487 66.2651 43.2132C65.443 42.7754 65.8194 41.7067 64.2913 41.8489C62.921 41.9759 63.31 42.9734 62.9497 43.1453C62.5477 43.3388 61.9729 42.5081 61.08 43.5838C60.2617 44.5686 61.2303 45.373 61.2042 46.0711C61.1848 46.5624 59.0772 46.63 60.2151 48.8874C61.011 50.4667 62.9561 50.0437 62.9561 50.0437Z" stroke="#EE2922" stroke-width="0.0282815" stroke-miterlimit="3.8637"/>
<path d="M62.2128 51.6008C63.7162 49.551 66.5049 46.0923 69.5827 45.8698C71.6434 45.7217 73.7499 46.4729 75.5648 44.8887C75.4898 45.3852 75.2119 45.6036 74.8144 46.0629C70.451 51.1114 66.1308 47.2932 62.6592 51.1916C62.5544 51.3086 62.2642 51.5748 62.2128 51.6008Z" fill="#4FBE37"/>
<path d="M60.4146 46.2724C60.4146 46.2724 59.8779 43.9533 59.4878 42.7609C59.2923 42.162 58.8101 41.4598 58.5743 41.2462C58.198 40.9068 57.8075 40.4115 56.7598 40.3004C56.3734 40.2596 55.7659 40.3112 55.7659 40.3112C55.7659 40.3112 56.0284 40.3283 56.4734 40.6391C56.9195 40.9488 57.0996 41.2771 57.3144 41.6228C57.5282 41.9689 57.6773 42.4854 57.693 42.8308C57.7094 43.1765 57.7247 43.7149 57.7822 44.2768C57.8359 44.8126 57.7922 44.9534 57.9731 45.6441C58.154 46.3344 58.3841 46.7648 58.499 46.9208C58.6154 47.0771 58.8962 47.4911 59.0603 47.6285C59.2255 47.7663 59.6429 48.1124 59.6429 48.1124C59.6429 48.1124 59.3136 47.246 59.8682 46.6797C60.1304 46.4146 60.4146 46.2724 60.4146 46.2724Z" fill="#4FBE37"/>
<path d="M60.4146 46.2724C60.4146 46.2724 59.8779 43.9533 59.4878 42.7609C59.2923 42.162 58.8101 41.4598 58.5743 41.2462C58.198 40.9068 57.8075 40.4115 56.7598 40.3004C56.3734 40.2596 55.7659 40.3112 55.7659 40.3112C55.7659 40.3112 56.0284 40.3283 56.4734 40.6391C56.9195 40.9488 57.0996 41.2771 57.3144 41.6228C57.5282 41.9689 57.6773 42.4854 57.693 42.8308C57.7094 43.1765 57.7247 43.7149 57.7822 44.2768C57.8359 44.8126 57.7922 44.9534 57.9731 45.6441C58.154 46.3344 58.3841 46.7648 58.499 46.9208C58.6154 47.0771 58.8962 47.4911 59.0603 47.6285C59.2255 47.7663 59.6429 48.1124 59.6429 48.1124C59.6429 48.1124 59.3136 47.246 59.8682 46.6797C60.1304 46.4146 60.4146 46.2724 60.4146 46.2724Z" stroke="#4FBE37" stroke-width="0.0282815" stroke-miterlimit="3.8637"/>
</g>
<defs>
<clipPath id="clip0_22_4237">
<rect width="80" height="80" fill="white" transform="translate(10 10)"/>
</clipPath>
</defs>
</svg>
