<svg width="100" height="100" viewBox="0 0 100 100" fill="none" xmlns="http://www.w3.org/2000/svg">
<rect x="0.5" y="0.5" width="99" height="99" fill="white" stroke="#008B00"/>
<g opacity="0.85">
<path opacity="0.85" d="M50 90C72.0914 90 90 72.0914 90 50C90 27.9086 72.0914 10 50 10C27.9086 10 10 27.9086 10 50C10 72.0914 27.9086 90 50 90Z" fill="white"/>
</g>
<path d="M45.906 44.8C45.3599 43.9131 44.9011 42.9754 44.536 42C43.662 39.698 43.858 39.324 43.594 39.328C42.494 39.348 40.104 42.546 40.02 43.606C39.968 44.264 40.684 44.26 41.806 44.644C43.454 45.206 43.22 47.492 45.906 44.806" fill="#F5A800"/>
<path d="M40.0619 44.46C39.9643 44.6938 39.9088 44.9429 39.8979 45.196C39.9166 45.5823 40.0866 45.9456 40.371 46.2076C40.6554 46.4696 41.0315 46.6091 41.4179 46.596C41.9403 46.6235 42.4531 46.4488 42.8499 46.108C42.0499 44.708 41.1419 45.07 40.0619 44.452" fill="#F5A800"/>
<path d="M48.558 44.658C48.304 44.002 46.784 38.408 46.686 36.814C45.086 36.702 43.926 38.272 44.086 39.014C44.086 39.35 44.396 40.322 44.578 40.944C44.852 41.89 46.234 44.842 46.41 44.944C47.19 45.394 48.156 44.926 48.556 44.664" fill="#F5A800"/>
<path d="M47.1561 36.6C47.1561 38.2 48.3821 42.8 48.8701 44.426C49.0701 45.064 49.1381 45.616 49.9761 45.626H50.0161C50.8621 45.626 50.9381 45.066 51.1301 44.426C51.6181 42.8 52.8441 38.192 52.8441 36.6C52.8441 35.716 51.2001 34.962 50.0001 34.974C48.8001 34.986 47.1561 35.72 47.1561 36.6Z" fill="#F5A800"/>
<path d="M54.0939 44.8C54.64 43.9131 55.0988 42.9754 55.4639 42C56.3379 39.698 56.1419 39.324 56.4059 39.328C57.5059 39.348 59.8959 42.546 59.9799 43.606C60.0319 44.264 59.3159 44.26 58.1939 44.644C56.5459 45.206 56.7799 47.492 54.0939 44.806" fill="#F5A800"/>
<path d="M59.938 44.46C60.0357 44.6938 60.0912 44.9429 60.102 45.196C60.0833 45.5823 59.9134 45.9456 59.629 46.2076C59.3446 46.4696 58.9685 46.6091 58.582 46.596C58.0597 46.6235 57.5469 46.4488 57.15 46.108C57.95 44.708 58.858 45.07 59.938 44.452" fill="#F5A800"/>
<path d="M51.442 44.658C51.696 44.002 53.216 38.408 53.314 36.814C54.914 36.702 56.074 38.272 55.914 39.014C55.914 39.35 55.604 40.322 55.422 40.944C55.148 41.89 53.766 44.842 53.59 44.944C52.81 45.394 51.844 44.926 51.444 44.664" fill="#F5A800"/>
<path d="M32.246 64.688C32.3497 64.6749 32.445 64.6244 32.514 64.546C32.5242 64.5549 32.5322 64.566 32.5374 64.5785C32.5426 64.591 32.5449 64.6045 32.544 64.618C32.544 64.772 32.236 65.018 32.012 65.018C31.858 65.018 31.792 64.912 31.792 64.724C31.7936 64.5785 31.811 64.4336 31.844 64.292L31.822 64.282C31.588 64.794 31.338 65.018 31.078 65.018C30.818 65.018 30.646 64.732 30.646 64.27C30.646 63.454 31.108 62.854 31.822 62.854C31.8782 62.8549 31.9344 62.8596 31.99 62.868C31.99 62.868 32.064 62.238 32.064 62.098C32.064 61.958 32.03 61.898 31.95 61.898C31.87 61.898 31.75 61.908 31.66 61.908C31.653 61.9029 31.6472 61.8963 31.643 61.8887C31.6388 61.8811 31.6365 61.8726 31.636 61.864C31.636 61.824 31.66 61.792 31.712 61.766C31.9105 61.6914 32.1174 61.641 32.328 61.616C32.422 61.616 32.448 61.678 32.448 61.854C32.448 62.184 32.122 63.97 32.122 64.352C32.122 64.586 32.152 64.688 32.246 64.688ZM31.628 63.15C31.244 63.15 30.99 63.568 30.99 64.124C30.99 64.472 31.086 64.666 31.218 64.666C31.386 64.666 31.548 64.476 31.712 64.136C31.8279 63.8436 31.9032 63.5368 31.936 63.224C31.8411 63.174 31.7352 63.1486 31.628 63.15Z" fill="black"/>
<path d="M33.522 64.706C33.7408 64.6932 33.9482 64.604 34.108 64.454C34.1209 64.4612 34.1312 64.4721 34.1376 64.4854C34.1441 64.4986 34.1463 64.5135 34.144 64.528C34.144 64.784 33.796 65.022 33.39 65.022C32.984 65.022 32.738 64.81 32.738 64.208C32.738 63.468 33.228 62.858 33.686 62.858C33.99 62.858 34.122 63.018 34.122 63.258C34.122 63.598 33.862 63.858 33.078 64.088C33.082 64.534 33.258 64.706 33.522 64.706ZM33.756 63.406C33.756 63.286 33.69 63.15 33.556 63.15C33.356 63.15 33.138 63.516 33.084 63.89C33.628 63.7 33.756 63.582 33.756 63.4V63.406Z" fill="black"/>
<path d="M34.77 63.304C34.77 63.23 34.738 63.198 34.678 63.198C34.5798 63.2019 34.4847 63.2339 34.404 63.29C34.3939 63.2815 34.3858 63.2708 34.3806 63.2586C34.3754 63.2464 34.3732 63.2332 34.374 63.22C34.374 63.084 34.726 62.858 34.96 62.858C35.082 62.858 35.144 62.934 35.144 63.11C35.144 63.322 34.944 64.31 34.944 64.51C34.944 64.634 34.978 64.682 35.058 64.682C35.1619 64.6695 35.2574 64.6189 35.326 64.54C35.3365 64.5488 35.3448 64.5598 35.3503 64.5723C35.3559 64.5848 35.3585 64.5984 35.358 64.612C35.358 64.766 35.05 65.012 34.824 65.012C34.67 65.012 34.57 64.928 34.57 64.664C34.57 64.4 34.77 63.476 34.77 63.304ZM35.334 62.022C35.34 62.0631 35.3367 62.105 35.3246 62.1447C35.3125 62.1844 35.2917 62.221 35.2638 62.2517C35.2359 62.2825 35.2016 62.3067 35.1632 62.3227C35.1249 62.3386 35.0835 62.3459 35.042 62.344C35.0111 62.3481 34.9796 62.345 34.9501 62.3348C34.9207 62.3246 34.894 62.3077 34.8722 62.2853C34.8504 62.263 34.8342 62.2358 34.8248 62.2061C34.8154 62.1763 34.8131 62.1448 34.818 62.114C34.8118 62.0721 34.8149 62.0294 34.8271 61.9889C34.8393 61.9483 34.8603 61.911 34.8885 61.8795C34.9168 61.848 34.9516 61.8231 34.9906 61.8066C35.0296 61.7901 35.0717 61.7824 35.114 61.784C35.258 61.784 35.334 61.872 35.334 62.022Z" fill="black"/>
<path d="M35.876 63.2C35.7778 63.2043 35.6828 63.2362 35.602 63.292C35.5918 63.2835 35.5838 63.2728 35.5786 63.2606C35.5734 63.2484 35.5711 63.2352 35.572 63.222C35.572 63.086 35.924 62.86 36.158 62.86C36.286 62.86 36.33 62.94 36.33 63.12C36.3197 63.2827 36.2942 63.4441 36.254 63.602H36.276C36.524 63.112 36.78 62.852 37.14 62.852C37.34 62.852 37.454 62.964 37.454 63.218C37.454 63.434 37.272 64.254 37.272 64.51C37.272 64.634 37.308 64.682 37.388 64.682C37.4916 64.669 37.587 64.6185 37.656 64.54C37.6662 64.5489 37.6742 64.56 37.6794 64.5725C37.6846 64.585 37.6868 64.5985 37.686 64.612C37.686 64.766 37.378 65.012 37.154 65.012C37 65.012 36.898 64.928 36.898 64.664C36.898 64.342 37.098 63.602 37.098 63.396C37.098 63.232 37.036 63.176 36.922 63.176C36.71 63.176 36.522 63.48 36.384 63.748C36.2101 64.1135 36.127 64.5156 36.142 64.92L35.742 64.99C35.8465 64.4464 35.9226 63.8976 35.97 63.346C35.972 63.23 35.942 63.2 35.876 63.2Z" fill="black"/>
<path d="M39.41 63.348H40.754L40.882 62.308L40.538 62.268C40.528 62.136 40.616 62.088 40.784 62.088H41.656C41.656 62.22 41.608 62.264 41.472 62.288L41.242 62.314L40.948 64.714L41.348 64.802C41.3425 64.8498 41.3185 64.8935 41.2811 64.9238C41.2437 64.9541 41.1959 64.9685 41.148 64.964L40.682 64.952C40.504 64.952 40.324 64.952 40.196 64.964C40.1902 64.9471 40.1881 64.9291 40.1897 64.9113C40.1912 64.8935 40.1965 64.8762 40.2052 64.8606C40.2139 64.845 40.2257 64.8313 40.24 64.8205C40.2543 64.8097 40.2706 64.8021 40.288 64.798L40.58 64.718L40.72 63.598H39.376L39.24 64.714L39.64 64.802C39.6345 64.8498 39.6104 64.8935 39.5731 64.9238C39.5357 64.9541 39.4879 64.9685 39.44 64.964L38.974 64.952C38.798 64.952 38.616 64.952 38.49 64.964C38.4842 64.9471 38.4821 64.9291 38.4837 64.9113C38.4852 64.8935 38.4905 64.8762 38.4992 64.8606C38.5079 64.845 38.5197 64.8313 38.534 64.8205C38.5482 64.8097 38.5646 64.8021 38.582 64.798L38.872 64.718L39.172 62.318L38.828 62.278C38.828 62.146 38.908 62.098 39.076 62.098H39.948C39.948 62.23 39.9 62.274 39.762 62.298L39.534 62.324L39.41 63.348Z" fill="black"/>
<path d="M43.564 64.6181C43.564 64.7721 43.256 65.0181 43.032 65.0181C42.878 65.0181 42.812 64.9121 42.812 64.7241C42.8136 64.5786 42.831 64.4337 42.864 64.2921L42.842 64.2821C42.608 64.7941 42.358 65.0181 42.098 65.0181C41.838 65.0181 41.666 64.7321 41.666 64.2701C41.666 63.4281 42.142 62.8701 42.838 62.8701C42.9222 62.8692 43.0061 62.8786 43.088 62.8981C43.248 62.6981 43.336 62.6861 43.432 62.7341C43.2558 63.2499 43.1581 63.7892 43.142 64.3341C43.142 64.5681 43.172 64.6701 43.266 64.6701C43.3699 64.6576 43.4654 64.607 43.534 64.5281C43.5471 64.5386 43.5569 64.5527 43.5622 64.5687C43.5675 64.5846 43.5681 64.6018 43.564 64.6181ZM42.626 63.1721C42.27 63.1721 42.01 63.5721 42.01 64.1421C42.01 64.4801 42.11 64.6661 42.238 64.6661C42.48 64.6661 42.754 64.2561 42.908 63.5641C42.938 63.4281 42.974 63.2601 42.974 63.2601C42.8691 63.1974 42.7481 63.1668 42.626 63.1721Z" fill="black"/>
<path d="M44.0239 63.2C43.9257 63.2039 43.8307 63.2359 43.7499 63.292C43.7395 63.2836 43.7312 63.2729 43.7257 63.2608C43.7201 63.2486 43.7175 63.2354 43.7179 63.222C43.7179 63.086 44.0719 62.86 44.3059 62.86C44.4319 62.86 44.4759 62.94 44.4759 63.12C44.4657 63.282 44.4402 63.4427 44.3999 63.6H44.4219C44.6679 63.11 44.9239 62.85 45.2859 62.85C45.4859 62.85 45.5979 62.962 45.5979 63.216C45.5979 63.432 45.4179 64.252 45.4179 64.508C45.4179 64.632 45.4519 64.68 45.5319 64.68C45.6362 64.6671 45.7322 64.6166 45.8019 64.538C45.8121 64.5469 45.8201 64.558 45.8254 64.5705C45.8306 64.583 45.8328 64.5965 45.8319 64.61C45.8319 64.764 45.5239 65.01 45.2979 65.01C45.1439 65.01 45.0439 64.926 45.0439 64.662C45.0439 64.34 45.2439 63.6 45.2439 63.394C45.2439 63.23 45.1819 63.174 45.0679 63.174C44.8559 63.174 44.6679 63.478 44.5299 63.746C44.356 64.1115 44.273 64.5135 44.2879 64.918L43.8879 64.988C43.9929 64.4443 44.0697 63.8956 44.1179 63.344C44.1199 63.23 44.0899 63.2 44.0239 63.2Z" fill="black"/>
<path d="M47.662 64.688C47.7663 64.675 47.8623 64.6246 47.932 64.546C47.9422 64.5549 47.9502 64.566 47.9554 64.5785C47.9606 64.591 47.9629 64.6045 47.962 64.618C47.962 64.772 47.654 65.018 47.428 65.018C47.274 65.018 47.208 64.912 47.208 64.724C47.2102 64.5784 47.2284 64.4336 47.262 64.292L47.24 64.282C47.006 64.794 46.754 65.018 46.494 65.018C46.234 65.018 46.064 64.732 46.064 64.27C46.064 63.454 46.526 62.854 47.24 62.854C47.2956 62.8548 47.3511 62.8595 47.406 62.868C47.406 62.868 47.482 62.238 47.482 62.098C47.482 61.958 47.446 61.898 47.368 61.898C47.29 61.898 47.168 61.908 47.076 61.908C47.0695 61.9025 47.0643 61.8958 47.0605 61.8882C47.0567 61.8807 47.0545 61.8724 47.054 61.864C47.054 61.824 47.076 61.792 47.13 61.766C47.3285 61.691 47.5353 61.6407 47.746 61.616C47.838 61.616 47.866 61.678 47.866 61.854C47.866 62.184 47.54 63.97 47.54 64.352C47.54 64.586 47.57 64.688 47.662 64.688ZM47.046 63.15C46.662 63.15 46.406 63.568 46.406 64.124C46.406 64.472 46.504 64.666 46.636 64.666C46.804 64.666 46.966 64.476 47.13 64.136C47.2459 63.8436 47.3213 63.5368 47.354 63.224C47.2591 63.174 47.1532 63.1486 47.046 63.15Z" fill="black"/>
<path d="M49.522 64.502H49.5C49.457 64.6487 49.3693 64.7784 49.2493 64.873C49.1292 64.9676 48.9827 65.0225 48.83 65.03C48.58 65.03 48.412 64.868 48.412 64.462C48.412 64.122 48.5 63.704 48.5 63.414C48.5 63.228 48.46 63.162 48.368 63.162C48.2758 63.1686 48.1873 63.2004 48.112 63.254C48.1018 63.2465 48.0936 63.2365 48.0884 63.2249C48.0831 63.2134 48.0809 63.2006 48.082 63.188C48.082 63.052 48.336 62.866 48.574 62.866C48.738 62.866 48.862 62.938 48.862 63.282C48.862 63.626 48.768 64.034 48.768 64.282C48.768 64.572 48.84 64.682 49.016 64.682C49.5 64.682 49.69 63.528 49.47 63.02C49.525 62.9598 49.5937 62.9136 49.6703 62.8854C49.7468 62.8572 49.829 62.8478 49.91 62.858C49.972 63.308 49.84 63.876 49.84 64.272C49.84 64.562 49.896 64.672 50.086 64.672C50.36 64.672 50.676 64.218 50.676 63.606C50.676 63.288 50.588 63.12 50.408 63.02C50.4389 62.9671 50.4825 62.9227 50.5349 62.8909C50.5873 62.8591 50.6468 62.8409 50.708 62.838C50.924 62.838 51.024 63.02 51.024 63.332C51.024 64.156 50.522 65.002 49.9 65.002C49.654 65.022 49.508 64.872 49.522 64.502Z" fill="black"/>
<path d="M52.1441 64.706C52.3629 64.6932 52.5702 64.604 52.7301 64.454C52.7425 64.4616 52.7526 64.4726 52.7589 64.4857C52.7653 64.4988 52.7678 64.5135 52.7661 64.528C52.7661 64.784 52.4161 65.022 52.012 65.022C51.608 65.022 51.36 64.81 51.36 64.208C51.36 63.468 51.848 62.858 52.3061 62.858C52.6101 62.858 52.7421 63.018 52.7421 63.258C52.7421 63.598 52.4821 63.858 51.698 64.088C51.704 64.534 51.88 64.706 52.1441 64.706ZM52.3781 63.406C52.3781 63.286 52.3121 63.15 52.178 63.15C51.978 63.15 51.758 63.516 51.706 63.89C52.2501 63.7 52.3781 63.582 52.3781 63.4V63.406Z" fill="black"/>
<path d="M53.272 63.2C53.1738 63.2043 53.0789 63.2362 52.998 63.292C52.9879 63.2835 52.9798 63.2728 52.9746 63.2606C52.9694 63.2484 52.9671 63.2352 52.968 63.222C52.968 63.086 53.32 62.86 53.554 62.86C53.682 62.86 53.726 62.94 53.726 63.12C53.7137 63.2991 53.6843 63.4766 53.638 63.65H53.66C53.84 63.108 54.026 62.85 54.26 62.85C54.426 62.85 54.524 62.93 54.524 63.084C54.5242 63.1408 54.5091 63.1966 54.4802 63.2455C54.4513 63.2944 54.4098 63.3347 54.36 63.362C54.2933 63.3127 54.2145 63.2823 54.132 63.274C53.972 63.274 53.868 63.436 53.704 63.912C53.588 64.2324 53.5311 64.5713 53.536 64.912L53.136 64.982C53.2426 64.4387 53.3187 63.8898 53.364 63.338C53.368 63.23 53.338 63.2 53.272 63.2Z" fill="black"/>
<path d="M55.546 64.728L55.33 63.982C55.836 63.782 55.978 63.594 55.978 63.382C55.978 63.236 55.916 63.126 55.792 63.126C55.668 63.126 55.514 63.29 55.312 63.66C55.1044 64.0467 55.0023 64.4813 55.016 64.92L54.616 64.986C54.738 64.242 54.968 62.374 54.968 62.092C54.968 61.936 54.932 61.892 54.854 61.892C54.776 61.892 54.654 61.902 54.562 61.902C54.5556 61.8965 54.5503 61.8898 54.5465 61.8822C54.5427 61.8747 54.5405 61.8664 54.54 61.858C54.54 61.818 54.562 61.786 54.616 61.76C54.8145 61.6851 55.0214 61.6348 55.232 61.61C55.326 61.61 55.352 61.672 55.352 61.848C55.352 62.068 55.228 62.972 55.184 63.248C55.162 63.384 55.144 63.49 55.122 63.574L55.148 63.586C55.4 63.088 55.602 62.854 55.92 62.854C56.0261 62.854 56.1279 62.8961 56.2029 62.9711C56.2779 63.0461 56.32 63.1479 56.32 63.254C56.32 63.602 56.106 63.854 55.7 64.016L55.9 64.562C55.944 64.678 55.984 64.696 56.064 64.696C56.183 64.687 56.2958 64.64 56.386 64.562C56.3957 64.5713 56.4033 64.5825 56.4085 64.5948C56.4137 64.6072 56.4162 64.6205 56.416 64.634C56.416 64.788 56.116 65.012 55.86 65.012C55.674 65.022 55.6 64.934 55.546 64.728Z" fill="black"/>
<path d="M58 63.168C57.9955 63.23 57.9691 63.2884 57.9255 63.3328C57.8818 63.3771 57.8239 63.4045 57.762 63.41C57.7529 63.3288 57.7129 63.2543 57.6504 63.2018C57.5878 63.1493 57.5075 63.1229 57.426 63.128C57.3949 63.1232 57.3632 63.1259 57.3334 63.1356C57.3035 63.1454 57.2764 63.1621 57.2542 63.1843C57.232 63.2065 57.2154 63.2336 57.2056 63.2634C57.1958 63.2933 57.1932 63.325 57.198 63.356C57.198 63.476 57.278 63.59 57.484 63.784C57.758 64.044 57.884 64.184 57.884 64.402C57.884 64.824 57.528 65.022 57.188 65.022C56.848 65.022 56.66 64.908 56.66 64.684C56.6558 64.6157 56.6755 64.5481 56.7156 64.4927C56.7557 64.4373 56.8138 64.3974 56.88 64.38C56.896 64.4848 56.9485 64.5807 57.0283 64.6506C57.108 64.7205 57.2099 64.7599 57.316 64.762C57.3487 64.7661 57.3819 64.763 57.4133 64.753C57.4447 64.743 57.4736 64.7263 57.4979 64.704C57.5223 64.6818 57.5415 64.6545 57.5543 64.6241C57.567 64.5938 57.5731 64.561 57.572 64.528C57.572 64.414 57.492 64.29 57.22 64.04C56.948 63.79 56.902 63.67 56.902 63.472C56.9117 63.304 56.9861 63.1463 57.1095 63.0319C57.2329 62.9174 57.3957 62.8551 57.564 62.858C57.858 62.858 58 62.982 58 63.168Z" fill="black"/>
<path d="M60.026 63.6C60.026 64.458 59.488 65.018 58.886 65.018C58.6877 65.0227 58.4907 64.9852 58.308 64.908C58.432 64.164 58.648 62.38 58.648 62.098C58.648 61.942 58.612 61.898 58.532 61.898C58.452 61.898 58.332 61.908 58.242 61.908C58.2352 61.9028 58.2297 61.8961 58.2259 61.8885C58.2221 61.8809 58.22 61.8725 58.22 61.864C58.2209 61.8421 58.2285 61.8209 58.2417 61.8034C58.2549 61.7859 58.2731 61.7729 58.294 61.766C58.4931 61.6911 58.7007 61.6408 58.912 61.616C59.004 61.616 59.03 61.678 59.03 61.854C59.03 62.074 58.908 62.978 58.864 63.254C58.8433 63.3947 58.8153 63.5342 58.78 63.672L58.806 63.684C59.018 63.156 59.34 62.86 59.606 62.86C59.908 62.858 60.026 63.172 60.026 63.6ZM59.666 63.78C59.666 63.396 59.582 63.19 59.44 63.19C59.132 63.19 58.696 64.16 58.696 64.688C58.7992 64.7307 58.9104 64.7505 59.022 64.746C59.362 64.75 59.666 64.3 59.666 63.784V63.78Z" fill="black"/>
<path d="M62.23 64.618C62.23 64.772 61.922 65.018 61.696 65.018C61.542 65.018 61.476 64.912 61.476 64.724C61.4785 64.5786 61.4959 64.4338 61.528 64.292L61.506 64.282C61.274 64.794 61.022 65.018 60.762 65.018C60.502 65.018 60.33 64.732 60.33 64.27C60.33 63.428 60.806 62.87 61.502 62.87C61.5868 62.869 61.6715 62.8784 61.754 62.898C61.912 62.698 62 62.686 62.098 62.734C61.9214 63.2498 61.823 63.7891 61.806 64.334C61.806 64.568 61.838 64.67 61.93 64.67C62.0339 64.6575 62.1294 64.6069 62.198 64.528C62.2113 64.5385 62.2213 64.5525 62.2269 64.5684C62.2326 64.5843 62.2337 64.6015 62.23 64.618ZM61.292 63.172C60.934 63.172 60.674 63.572 60.674 64.142C60.674 64.48 60.776 64.666 60.904 64.666C61.146 64.666 61.418 64.256 61.574 63.564C61.604 63.428 61.64 63.26 61.64 63.26C61.5349 63.1979 61.4141 63.1673 61.292 63.172ZM61.336 62.034C61.336 62.202 61.252 62.326 61.076 62.326C61.0491 62.3285 61.022 62.325 60.9967 62.3158C60.9713 62.3066 60.9482 62.292 60.9291 62.2729C60.9101 62.2538 60.8954 62.2307 60.8862 62.2054C60.877 62.18 60.8736 62.1529 60.876 62.126C60.8707 62.0887 60.8737 62.0507 60.8847 62.0147C60.8956 61.9787 60.9144 61.9455 60.9395 61.9175C60.9647 61.8895 60.9957 61.8673 61.0303 61.8525C61.0649 61.8378 61.1024 61.8308 61.14 61.832C61.1668 61.8301 61.1936 61.8341 61.2186 61.8437C61.2437 61.8532 61.2663 61.8682 61.285 61.8874C61.3037 61.9067 61.3179 61.9297 61.3267 61.9551C61.3355 61.9804 61.3387 62.0073 61.336 62.034ZM62.16 62.034C62.16 62.202 62.076 62.326 61.9 62.326C61.8731 62.3285 61.846 62.325 61.8207 62.3158C61.7953 62.3066 61.7722 62.292 61.7531 62.2729C61.7341 62.2538 61.7194 62.2307 61.7102 62.2054C61.701 62.18 61.6976 62.1529 61.7 62.126C61.6947 62.0887 61.6977 62.0507 61.7087 62.0147C61.7196 61.9787 61.7383 61.9455 61.7635 61.9175C61.7887 61.8895 61.8196 61.8673 61.8543 61.8525C61.8889 61.8378 61.9264 61.8308 61.964 61.832C61.9908 61.8301 62.0176 61.8341 62.0426 61.8437C62.0677 61.8532 62.0903 61.8682 62.109 61.8874C62.1277 61.9067 62.1419 61.9297 62.1507 61.9551C62.1595 61.9804 62.1627 62.0073 62.16 62.034Z" fill="black"/>
<path d="M63.83 63.2C63.8307 63.2904 63.7984 63.3779 63.7391 63.446C63.6798 63.5142 63.5976 63.5583 63.508 63.57C63.508 63.296 63.446 63.15 63.296 63.15C63.04 63.15 62.784 63.588 62.784 64.086C62.784 64.544 62.974 64.716 63.238 64.716C63.4271 64.7071 63.6083 64.6369 63.754 64.516C63.7666 64.5239 63.7767 64.5353 63.7831 64.5487C63.7895 64.5622 63.7919 64.5772 63.79 64.592C63.79 64.802 63.476 65.036 63.084 65.036C62.692 65.036 62.446 64.82 62.446 64.222C62.446 63.574 62.846 62.872 63.428 62.872C63.728 62.858 63.83 63.026 63.83 63.2Z" fill="black"/>
<path d="M65.024 64.728L64.8 63.982C65.306 63.782 65.446 63.594 65.446 63.382C65.446 63.236 65.386 63.126 65.262 63.126C65.138 63.126 64.984 63.29 64.782 63.66C64.5744 64.0467 64.4723 64.4813 64.486 64.92L64.086 64.986C64.208 64.242 64.438 62.374 64.438 62.092C64.438 61.936 64.402 61.892 64.324 61.892C64.246 61.892 64.124 61.902 64.032 61.902C64.0255 61.8965 64.0202 61.8898 64.0165 61.8822C64.0127 61.8747 64.0105 61.8664 64.01 61.858C64.01 61.818 64.032 61.786 64.086 61.76C64.2845 61.685 64.4913 61.6346 64.702 61.61C64.794 61.61 64.822 61.672 64.822 61.848C64.822 62.068 64.698 62.972 64.654 63.248C64.632 63.384 64.614 63.49 64.592 63.574L64.618 63.586C64.87 63.088 65.072 62.854 65.39 62.854C65.4961 62.854 65.5978 62.8961 65.6729 62.9711C65.7479 63.0461 65.79 63.1479 65.79 63.254C65.79 63.602 65.574 63.854 65.17 64.016L65.37 64.562C65.414 64.678 65.454 64.696 65.532 64.696C65.6511 64.6877 65.7642 64.6406 65.854 64.562C65.8643 64.5708 65.8726 64.5819 65.8781 64.5944C65.8836 64.6068 65.8863 64.6203 65.886 64.634C65.886 64.788 65.586 65.012 65.33 65.012C65.15 65.022 65.08 64.934 65.024 64.728Z" fill="black"/>
<path d="M66.97 64.706C67.1888 64.6932 67.3962 64.604 67.556 64.454C67.5689 64.4612 67.5792 64.4721 67.5856 64.4854C67.5921 64.4986 67.5943 64.5135 67.592 64.528C67.592 64.784 67.244 65.022 66.838 65.022C66.432 65.022 66.186 64.81 66.186 64.208C66.186 63.468 66.676 62.858 67.134 62.858C67.438 62.858 67.57 63.018 67.57 63.258C67.57 63.598 67.31 63.858 66.526 64.088C66.53 64.534 66.706 64.706 66.97 64.706ZM67.2 63.4C67.2 63.28 67.134 63.144 67 63.144C66.8 63.144 66.582 63.51 66.528 63.884C67.076 63.7 67.2 63.582 67.2 63.4Z" fill="black"/>
<path d="M68.098 63.2C68.0005 63.2043 67.9061 63.2362 67.826 63.292C67.8156 63.2836 67.8073 63.2729 67.8017 63.2608C67.7962 63.2486 67.7935 63.2354 67.794 63.222C67.794 63.086 68.148 62.86 68.38 62.86C68.508 62.86 68.552 62.94 68.552 63.12C68.5397 63.2991 68.5103 63.4766 68.464 63.65H68.486C68.668 63.108 68.852 62.85 69.086 62.85C69.254 62.85 69.35 62.93 69.35 63.084C69.3506 63.1406 69.3359 63.1964 69.3073 63.2453C69.2788 63.2943 69.2376 63.3346 69.188 63.362C69.1206 63.3127 69.0412 63.2823 68.958 63.274C68.8 63.274 68.694 63.436 68.53 63.912C68.4136 64.2323 68.3574 64.5713 68.364 64.912L67.964 64.982C68.072 64.4388 68.1488 63.8899 68.194 63.338C68.2 63.23 68.164 63.2 68.098 63.2Z" fill="black"/>
<path d="M20.548 56.9039L20.148 57.9899H18.092L21.106 50.476H22.62L25.6 57.9999H23.524L23.158 56.9139L20.548 56.9039ZM21.076 55.3799H22.65L21.878 52.8119H21.848L21.076 55.3799Z" fill="black"/>
<path d="M27.884 50.476H29.54L32.444 55.1999L32.464 55.1799L32.382 50.478H34.22V57.9999H32.554L29.692 53.42L29.672 53.432L29.722 57.9999H27.884V50.476Z" fill="black"/>
<path d="M36.9999 50.476H39.4879C40.3319 50.476 41.8339 50.476 42.8079 51.876C43.2862 52.5588 43.5291 53.3788 43.4999 54.212C43.4999 56.262 42.4839 57.988 39.6299 57.988H36.9999V50.476ZM38.9199 56.304H39.7419C41.1739 56.304 41.5799 55.304 41.5799 54.244C41.5901 53.7524 41.4634 53.2677 41.2139 52.844C40.9919 52.51 40.6139 52.154 39.7519 52.154H38.9199V56.304Z" fill="black"/>
<path d="M45.704 50.476H48.08C49.4 50.476 49.906 50.64 50.394 51.014C50.6919 51.2649 50.9296 51.5796 51.0896 51.9348C51.2495 52.29 51.3276 52.6765 51.318 53.0659C51.318 53.9279 50.872 55.1979 49.45 55.4319L51.49 57.9999H49.29L47.554 55.5739H47.534V57.9999H45.696L45.704 50.476ZM47.542 54.2539H48.222C49.348 54.2539 49.48 53.5419 49.48 53.1779C49.48 52.4979 48.982 52.1619 48.242 52.1619H47.542V54.2539Z" fill="black"/>
<path d="M53.9999 50.476H58.1739V52.1619H55.8459V53.3299H58.1099V55.0159H55.8459V56.3039H58.1819V57.9999H53.9999V50.476Z" fill="black"/>
<path d="M63.988 52.67C63.948 52.416 63.888 51.938 63.298 51.938C63.1323 51.9287 62.9696 51.9857 62.8459 52.0963C62.7221 52.2069 62.6473 52.3622 62.638 52.528C62.638 52.974 62.838 53.066 64.192 53.674C65.592 54.304 65.948 54.954 65.948 55.828C65.948 56.924 65.3181 58.132 63.328 58.132C61.156 58.132 60.618 56.71 60.618 55.746V55.502H62.526C62.526 56.376 63.064 56.528 63.308 56.528C63.4035 56.529 63.4981 56.5112 63.5866 56.4756C63.6751 56.4399 63.7557 56.3871 63.8238 56.3202C63.8918 56.2533 63.9459 56.1736 63.983 56.0857C64.0201 55.9978 64.0395 55.9034 64.04 55.808C64.04 55.31 63.724 55.188 62.568 54.7C62.04 54.488 60.73 53.96 60.73 52.548C60.73 51.136 62.1 50.334 63.36 50.334C64.1 50.334 64.9021 50.608 65.3901 51.188C65.7263 51.6074 65.9028 52.1326 65.8881 52.67H63.988Z" fill="black"/>
<path d="M68.538 50.476H72.71V52.1619H70.374V53.3299H72.64V55.0159H70.374V56.3039H72.71V57.9999H68.538V50.476Z" fill="black"/>
<path d="M75.572 50.476H77.228L80.132 55.1999L80.152 55.1799L80.07 50.478H81.908V57.9999H80.244L77.38 53.42L77.36 53.432L77.41 57.9899H75.572V50.476Z" fill="black"/>
</svg>
