<svg width="100" height="100" viewBox="0 0 100 100" fill="none" xmlns="http://www.w3.org/2000/svg">
<path d="M99.722 0.277954H0.277985V99.723H99.722V0.277954Z" fill="white"/>
<path d="M99.444 0.556V99.445H0.556V0.556H99.444ZM100 0H0V100H100V0Z" fill="#0D8C2F"/>
<path d="M11.561 10.486H89.583V88.89H11.561V10.486Z" fill="white"/>
<path d="M12.708 49.667C12.708 46.175 15.207 44.96 16.632 41.459C17.815 37.846 17.114 35.225 19.153 32.63C21.519 30.361 24.277 30.811 27.273 29.039C30.138 27.053 30.809 24.435 33.656 23.354C36.873 22.375 38.859 24 42.515 23.542C46.524 22.759 47.075 20.65 50.555 20.521H50.582C54.06 20.65 54.609 22.759 58.619 23.542C62.276 24 64.261 22.375 67.478 23.354C70.325 24.435 70.999 27.053 73.861 29.039C76.857 30.811 79.616 30.36 81.98 32.63C84.02 35.224 83.321 37.845 84.501 41.459C85.927 44.96 88.436 46.156 88.436 49.667C88.436 53.125 85.927 54.414 84.501 57.913C83.321 61.53 84.021 64.148 81.98 66.744C79.616 69.014 76.853 68.562 73.861 70.333C70.999 72.318 70.325 74.937 67.478 76.017C64.26 77.001 62.276 75.371 58.619 75.833C54.609 76.615 54.059 78.723 50.582 78.855H50.555C47.075 78.722 46.524 76.615 42.515 75.833C38.858 75.371 36.872 77.001 33.656 76.017C30.808 74.937 30.138 72.319 27.273 70.333C24.277 68.562 21.52 69.014 19.153 66.744C17.115 64.148 17.815 61.53 16.632 57.913C15.207 54.414 12.708 53.162 12.708 49.667Z" fill="#AC2546"/>
<path d="M50.572 26.939C69.58 26.939 82.213 36.92 82.213 49.687C82.213 62.454 69.531 72.434 50.572 72.434C31.599 72.434 18.927 62.455 18.927 49.688C18.927 36.921 31.603 26.939 50.572 26.939Z" fill="white"/>
<path d="M50.572 28.229C68.763 28.229 80.853 37.644 80.853 49.688C80.853 61.731 68.713 71.146 50.572 71.146C32.416 71.146 20.29 61.731 20.29 49.688C20.29 37.643 32.419 28.229 50.572 28.229Z" fill="#24557A"/>
<path d="M57.929 54.16L56.685 57.232C56.556 57.552 56.498 57.798 56.498 57.997C56.496 58.643 57.11 58.679 57.692 58.683L58.397 58.692C58.599 58.694 58.732 58.814 58.732 59.024V60.296C58.732 60.498 58.607 60.63 58.397 60.631H52.042C51.843 60.63 51.709 60.51 51.709 60.298V59.025C51.709 58.822 51.836 58.692 52.042 58.692L52.258 58.683C52.258 58.683 52.941 58.713 53.325 58.516C53.712 58.32 53.864 58.079 54.031 57.678L62.199 38.041C62.283 37.822 62.446 37.751 62.63 37.751H65.239C65.458 37.751 65.593 37.854 65.66 38.041C66.401 40.17 72.476 57.583 72.477 57.588C72.768 58.409 73.054 58.683 74.014 58.688L74.415 58.69C74.612 58.69 74.747 58.817 74.747 59.024V60.294C74.747 60.506 74.61 60.63 74.413 60.63H65.017C64.813 60.629 64.683 60.496 64.683 60.299V59.024C64.683 58.821 64.82 58.69 65.017 58.69L65.793 58.672C66.405 58.66 66.553 58.366 66.562 58.085C66.567 57.962 66.542 57.842 66.52 57.747C66.458 57.497 66.261 56.898 66.261 56.898C66.261 56.898 65.713 55.127 65.367 54.158H57.927V54.16H57.929Z" fill="white"/>
<path d="M27.71 49.2489C27.71 42.0929 32.039 37.5969 37.926 37.5969C39.793 37.5969 40.841 37.9759 41.459 38.2319C41.959 38.4649 42.186 38.6139 42.512 38.6139C42.965 38.6139 43.101 38.3569 43.258 38.0169C43.352 37.8189 43.413 37.7519 43.58 37.7519H44.904C45.101 37.7519 45.237 37.8789 45.236 38.0869V43.8989C45.238 44.1019 45.11 44.2319 44.904 44.2319H43.608C43.427 44.2319 43.323 44.1639 43.275 43.9289C42.78 41.1989 41.813 39.5499 38.765 39.5499C34.926 39.5499 34.002 45.4989 34.002 48.4379C34.002 52.9079 34.505 58.8789 38.925 58.8789C42.126 58.8789 43.078 57.0559 43.485 54.4519C43.537 54.2009 43.696 54.1599 43.812 54.1599H45.115C45.31 54.1599 45.449 54.2849 45.449 54.4949V60.2979C45.449 60.4999 45.321 60.6299 45.115 60.6309H43.788C43.658 60.6309 43.556 60.5959 43.475 60.4179C43.398 60.2479 43.255 60.0379 42.948 60.0379C42.211 60.0379 40.901 60.8099 37.967 60.8099C31.328 60.8109 27.71 55.2929 27.71 49.2489Z" fill="white"/>
<path d="M44.407 49.832C44.375 48.138 45.959 46.952 47.25 46.56C46.849 46.023 46.498 45.413 46.498 44.6C46.498 42.717 48.104 41.797 49.797 41.797C51.472 41.797 52.687 42.731 52.687 44.205C52.687 45.494 51.404 46.294 50.232 46.808L51.84 49.216C52.426 48.39 52.821 47.561 53.026 46.733C53.041 46.667 53.098 46.555 53.319 46.555H55.896C56.042 46.555 56.218 46.535 56.096 46.843L55.791 47.547C55.72 47.686 55.634 47.754 55.483 47.755H55.13C54.848 47.755 54.739 47.923 54.57 48.18C54.57 48.18 54.2 48.791 53.937 49.164C53.515 49.759 53.411 49.953 52.753 50.612C52.753 50.612 53.261 51.474 54.324 51.477H54.789C54.868 51.477 55.121 51.446 55.003 51.735L54.689 52.497C54.645 52.601 54.59 52.701 54.377 52.701H53.34C53.34 52.701 52.04 52.796 51.263 52.004C50.315 52.752 49.181 52.93 48.311 52.93C46.17 52.928 44.445 51.78 44.407 49.832Z" fill="white"/>
<path d="M49.426 45.806C48.974 45.14 48.72 44.672 48.72 43.952C48.72 43.337 49.091 42.798 49.755 42.798C50.367 42.798 50.646 43.362 50.646 43.932C50.646 44.758 50.247 45.369 49.426 45.806Z" fill="#24557A"/>
<path d="M47.905 47.62L50.283 50.908C49.815 51.38 49.373 51.727 48.65 51.727C47.486 51.727 46.749 50.983 46.749 49.721C46.75 48.917 47.215 48.057 47.905 47.62Z" fill="#24557A"/>
<path d="M58.623 52.406L62.181 43.515L64.862 52.406H58.623Z" fill="#24557A"/>
</svg>
