<svg width="100" height="100" viewBox="0 0 100 100" fill="none" xmlns="http://www.w3.org/2000/svg">
<rect x="0.5" y="0.5" width="99" height="99" fill="white" stroke="#008B00"/>
<path d="M52.7679 21.2V68.496H55.4079V57.408L56.8479 55.872L69.3759 68.496H72.8159L58.5439 54.08L69.8719 42.4H66.4799L55.4079 53.84V21.2H52.7679Z" fill="black"/>
<path d="M34.016 72.304C34.016 72.304 33.152 71.584 32.032 71.584C32.032 71.584 30.72 71.584 29.792 72.544C29.792 72.544 28.864 73.504 28.864 74.816C28.864 74.816 28.864 76.128 29.792 77.088C29.792 77.088 30.72 78.016 32.032 78.016C32.032 78.016 33.136 78.016 34.016 77.328L34.432 77.744C34.432 77.744 33.376 78.608 32.032 78.608C32.032 78.608 30.48 78.608 29.36 77.472C29.36 77.472 28.256 76.368 28.256 74.8C28.256 74.8 28.256 73.248 29.36 72.128C29.36 72.128 30.464 70.992 32.032 70.992C32.032 70.992 33.376 70.992 34.432 71.824L34.016 72.304Z" fill="black"/>
<path d="M37.04 73.712C36.016 73.712 35.296 74.432 35.296 74.432C34.576 75.152 34.576 76.176 34.576 76.176C34.576 77.2 35.296 77.92 35.296 77.92C36.016 78.64 37.04 78.64 37.04 78.64C38.208 78.64 38.992 77.648 38.992 77.648V78.512H39.536V73.872H38.992V74.688C38.24 73.712 37.04 73.712 37.04 73.712ZM37.04 74.24C37.824 74.24 38.384 74.784 38.384 74.784C38.96 75.36 38.96 76.16 38.96 76.16C38.96 76.944 38.384 77.504 38.384 77.504C37.808 78.08 37.04 78.08 37.04 78.08C36.224 78.08 35.696 77.504 35.696 77.504C35.12 76.928 35.12 76.16 35.12 76.16C35.12 75.344 35.696 74.784 35.696 74.784C36.224 74.24 37.04 74.24 37.04 74.24Z" fill="black"/>
<path d="M47.264 71.728C47.264 71.728 46.928 71.728 46.928 71.392C46.928 71.392 46.928 71.04 47.264 71.04C47.264 71.04 47.616 71.04 47.616 71.392C47.616 71.392 47.616 71.728 47.264 71.728Z" fill="black"/>
<path d="M41.1519 71.04V78.496H40.5759V71.04H41.1519Z" fill="black"/>
<path d="M43.9839 77.488L45.6319 73.856H46.2239L43.9839 78.8L41.6799 73.856H42.3039L43.9839 77.488Z" fill="black"/>
<path d="M49.0879 74.304C49.0879 74.304 49.5359 73.712 50.3999 73.712C50.3999 73.712 51.1839 73.712 51.7119 74.256C51.7119 74.256 52.2559 74.8 52.2559 75.568V78.512H51.7119V75.568C51.7119 75.568 51.7119 74.992 51.3279 74.608C51.3279 74.608 50.9759 74.224 50.3999 74.224C50.3999 74.224 49.8559 74.224 49.4719 74.576C49.4719 74.576 49.0879 74.96 49.0879 75.568V78.512H48.5439V73.872H49.0879V74.304" fill="black"/>
<path d="M47.52 73.856V78.496H46.976V73.856H47.52Z" fill="black"/>
<path d="M59.4239 71.072L56.4639 74.272L59.4079 78.496H58.7199L56.0799 74.688L55.5359 75.264V78.496H54.9919V71.04H55.5359V74.432L58.6559 71.072H59.4239" fill="black"/>
<path d="M60.8 71.04V78.496H60.24V71.04H60.8Z" fill="black"/>
<path d="M64.1279 73.712C63.1039 73.712 62.3839 74.432 62.3839 74.432C61.6959 75.12 61.6959 76.176 61.6959 76.176C61.6959 77.2 62.3839 77.888 62.3839 77.888C63.1039 78.608 64.1279 78.608 64.1279 78.608C65.6799 78.608 66.3519 77.232 66.3519 77.232L65.8719 77.024C65.3279 78.08 64.1279 78.08 64.1279 78.08C63.3439 78.08 62.8159 77.536 62.8159 77.536C62.2399 76.992 62.2399 76.224 62.2399 76.224H66.5919V76.192C66.5919 75.136 65.8719 74.448 65.8719 74.448C65.1519 73.712 64.1279 73.712 64.1279 73.712ZM64.1279 74.208C64.7839 74.208 65.2959 74.624 65.2959 74.624C65.8079 75.008 65.9839 75.616 65.9839 75.616H62.3039C62.4799 75.024 62.9599 74.624 62.9599 74.624C63.5039 74.208 64.1279 74.208 64.1279 74.208Z" fill="black"/>
<path d="M67.424 71.392C67.424 71.392 67.424 71.04 67.76 71.04C67.76 71.04 68.096 71.04 68.096 71.392C68.096 71.392 68.096 71.728 67.76 71.728C67.76 71.728 67.424 71.728 67.424 71.392Z" fill="black"/>
<path d="M69.648 73.856V74.304C69.648 74.304 70.064 73.712 70.96 73.712C70.96 73.712 71.744 73.712 72.272 74.256C72.272 74.256 72.816 74.8 72.816 75.568V78.512H72.24V75.568C72.24 75.568 72.24 74.992 71.888 74.608C71.888 74.608 71.504 74.224 70.96 74.224C70.96 74.224 70.384 74.224 70.032 74.576C70.032 74.576 69.648 74.96 69.648 75.568V78.512H69.072V73.872H69.648" fill="black"/>
<path d="M68.0319 73.856V78.496H67.4879V73.856H68.0319Z" fill="black"/>
<path d="M30.928 45.952C30.928 45.952 27.184 49.792 27.184 55.328C27.184 55.328 27.184 60.96 30.896 64.8C30.896 64.8 34.608 68.672 40.24 68.672C40.24 68.672 45.456 68.672 49.472 65.168L47.792 63.488C47.792 63.488 44.368 66.368 40.112 66.368C40.112 66.368 35.712 66.368 32.624 63.04C32.624 63.04 29.664 59.776 29.664 55.344C29.664 55.344 29.664 50.944 32.656 47.728C32.656 47.728 35.744 44.432 40.176 44.432C40.176 44.432 44.304 44.432 47.552 47.072L49.136 45.424V45.28C49.136 45.28 45.456 42.128 40.288 42.128C40.304 42.112 34.704 42.112 30.928 45.952Z" fill="black"/>
</svg>
