<svg width="100" height="100" viewBox="0 0 100 100" fill="none" xmlns="http://www.w3.org/2000/svg">
<rect x="0.5" y="0.5" width="99" height="99" fill="white" stroke="#008B00"/>
<path d="M76.56 52.912L22.912 58.048V48.08L76.56 42.944V52.912Z" fill="#FEBE20"/>
<path d="M63.808 47.52L64.224 49.248L62.912 49.408L63.808 47.52ZM79.2 39.472L77.264 53.296L20.8 60.528L22.736 46.704L79.2 39.472ZM72.48 47.2L75.152 43.312L72.368 43.648L71.12 45.568L70.08 43.92L67.488 44.24L69.6 47.44L67.2 50.944L65.392 44.496L63.008 44.784L59.184 52.08L60.16 45.12L57.52 45.44L55.616 48.24L54.448 45.824L52.08 46.112L51.04 53.536L53.392 53.248L53.904 49.568L55.184 52.016H55.232L57.264 49.168L56.752 52.848L58.944 52.576L59.136 52.544L61.552 52.24L62.064 51.2L64.576 50.896L64.816 51.84L66.736 51.6L67.376 51.52L69.52 51.248L70.976 49.008L72.096 50.928L74.688 50.608L72.48 47.2ZM47.152 49.488L47.264 48.736L51.04 48.272L51.328 46.24L45.2 46.992L44.16 54.416L50.288 53.664L50.576 51.632L46.816 52.096L46.944 51.296L50.448 50.864L50.704 49.072L47.152 49.488ZM36.208 55.392L38.592 55.104L39.12 51.408L41.264 54.768L43.392 54.512L44.448 47.088L42.064 47.376L41.552 50.928L39.504 47.696L37.248 47.968L36.208 55.392ZM36.512 48.048L34.112 48.336L33.056 55.76L35.456 55.472L36.512 48.048ZM26.304 55.328C26.24 55.984 26.912 56.544 27.808 56.432L32.288 55.872L32.592 53.792L29.552 54.16C29.152 54.208 28.784 54.08 28.864 53.568L29.136 51.68C29.216 51.088 29.728 50.928 30.256 50.864L33.072 50.512L33.376 48.432L28.416 49.04C27.728 49.12 27.184 49.568 27.024 50.208L26.304 55.328Z" fill="black"/>
</svg>
