<svg width="100" height="100" viewBox="0 0 100 100" fill="none" xmlns="http://www.w3.org/2000/svg">
<rect x="0.5" y="0.5" width="99" height="99" fill="white" stroke="#008B00"/>
<path d="M10 40.021V59.925L90 59.979V40.021H10Z" fill="#1482C2"/>
<path d="M41.9865 44.7953L37.5064 51.451C37.0404 52.1555 36.2229 52.5812 35.3674 52.5812C33.9742 52.5812 32.821 51.4327 32.821 50.047C32.821 48.6408 33.9742 47.4945 35.3772 47.4945C35.5162 47.4766 35.7028 47.4571 35.8329 47.4571C36.8001 47.4571 37.7853 47.8641 38.4548 48.549L39.7929 46.5145C38.7521 45.4427 37.2088 44.7567 35.665 44.7567C32.7833 44.7567 30.1436 47.1424 30.1436 50.0274C30.1436 52.8955 32.5047 55.2433 35.3873 55.2433C36.7813 55.2433 38.1754 54.6518 39.1425 53.6709H42.2287L42.2469 55.2434H44.9253V44.7953H41.9866H41.9865ZM40.7609 51.3774L42.2287 49.3265L42.2469 51.3774H40.7609H40.7609ZM50.0567 55.2433H47.3792V47.235H45.297V44.8127L52.1378 44.7952V47.235H50.0568V55.2433H50.0567ZM61.0632 44.7953L58.3857 44.796L58.3671 48.6968H55.2059L55.1859 44.7952H52.5106V55.2433H55.2058V51.1186H58.3857V55.2432H61.0631V44.7952L61.0632 44.7953ZM82.5184 44.7953V49.6574L78.8376 44.7953L76.401 44.8124L76.3826 48.623C75.7692 46.4035 73.668 44.7953 71.3254 44.7953C68.4441 44.7953 66.0825 47.1424 66.0825 50.0274C66.0825 50.9539 66.3611 51.8947 66.8067 52.7096H64.1543V44.7953H61.426V55.2434H67.6631V53.7815C68.6485 54.6884 69.9869 55.2434 71.3255 55.2434C73.6679 55.2434 75.7323 53.6709 76.3827 51.451L76.401 55.2434H79.0979V50.1589L82.759 55.2434H85.1939L85.1972 44.7953H82.519H82.5184ZM71.3254 52.6913C69.8568 52.6913 68.6485 51.508 68.6485 50.0274C68.6485 48.5673 69.8568 47.3656 71.3254 47.3656C72.8136 47.3656 74.022 48.5673 74.022 50.0274C74.022 51.508 72.8136 52.6913 71.3254 52.6913ZM26.9056 52.7098V51.2475H29.7789L29.7738 48.6967H26.9056V47.3658H30.0728L30.0673 44.7955L23.9692 44.8125V48.4007C23.3371 46.4407 21.5144 44.9975 19.4322 44.8125L14.8028 44.7955V55.2432H19.4513C21.5144 55.059 23.3371 53.6166 23.9692 51.6746V55.2432H30.0728L30.0673 52.7098H26.9057H26.9056ZM21.0128 51.6184C20.8461 52.3219 20.1762 52.82 19.4512 52.8387H17.7409V47.2348H19.4513C20.1762 47.2348 20.8461 47.7551 21.0128 48.4751C21.1806 48.9562 21.2735 49.5108 21.2735 50.0276C21.2735 50.5652 21.1807 51.1191 21.0127 51.6184" fill="white"/>
</svg>
