<svg width="100" height="100" viewBox="0 0 100 100" fill="none" xmlns="http://www.w3.org/2000/svg">
<rect x="0.5" y="0.5" width="99" height="99" fill="white" stroke="#008B00"/>
<path d="M10.2616 56.7608V55.2391H10V56.7608H10.2616ZM11.6131 56.7608V55.913C11.6131 55.6956 11.5041 55.5869 11.3297 55.5869C11.1553 55.5869 10.9809 55.6956 10.8719 55.7608L10.8283 55.6304H10.6322V56.7608H10.8937V55.913C10.9809 55.8478 11.1117 55.8043 11.2207 55.8043C11.3733 55.8043 11.3733 55.913 11.3733 56V56.7608H11.6131ZM12.2452 56.7826C12.376 56.7826 12.485 56.7608 12.5504 56.7174L12.5286 56.5652C12.485 56.5869 12.3978 56.6087 12.3542 56.6087C12.2452 56.6087 12.2234 56.5217 12.2234 56.4348V55.8043C12.267 55.8043 12.4196 55.7826 12.5286 55.7826L12.5504 55.6304H12.2234V55.3913L12.049 55.4348L11.9837 55.6304C11.9401 55.6522 11.8747 55.6522 11.8311 55.6739V55.7826L11.9619 55.8043V56.5217C11.9619 56.6956 12.0708 56.7826 12.2452 56.7826V56.7826ZM13.2044 55.6087C12.8774 55.6087 12.6594 55.8261 12.6594 56.2391C12.6594 56.6304 12.8774 56.8043 13.139 56.8043C13.3351 56.8043 13.5095 56.7391 13.6185 56.6739L13.5749 56.5217C13.4877 56.5652 13.3569 56.6087 13.2262 56.6087C13.0518 56.6087 12.9428 56.5 12.9428 56.2391L13.4441 56.2174L13.6839 56.1087C13.6185 55.7608 13.4223 55.6087 13.2044 55.6087V55.6087ZM13.0082 55.8043C13.0518 55.7826 13.1172 55.7826 13.1608 55.7826C13.3569 55.7826 13.3787 55.9348 13.4005 56.0869L12.9428 56.1087C12.9428 55.9565 12.9646 55.8695 13.0082 55.8043V55.8043ZM14.5559 55.6087C14.4687 55.6087 14.4033 55.6087 14.3379 55.6304C14.2725 55.6522 14.2071 55.7608 14.1635 55.8261L14.0981 55.6304H13.9237V56.7826H14.1853V56.0217C14.2071 55.9782 14.2289 55.9348 14.2507 55.913C14.3161 55.8913 14.3815 55.8695 14.5123 55.8695L14.5559 55.6087V55.6087ZM15.733 56.7608V55.913C15.733 55.6956 15.624 55.5869 15.4496 55.5869C15.2752 55.5869 15.1008 55.6956 14.9918 55.7608L14.9482 55.6304H14.752V56.7608H15.0136V55.913C15.1008 55.8478 15.2316 55.8043 15.3406 55.8043C15.4932 55.8043 15.4932 55.913 15.4932 56V56.7608H15.733V56.7608ZM16.8883 56.7826V55.913C16.8883 55.6739 16.7793 55.6087 16.5831 55.6087C16.4305 55.6087 16.2561 55.6522 16.1253 55.6956L16.1471 55.8478C16.2561 55.8043 16.3869 55.7826 16.4741 55.7826C16.5831 55.7826 16.6485 55.8261 16.6485 55.9565V56.0869C16.1907 56.1087 15.9946 56.2174 15.9946 56.4782C15.9946 56.6522 16.1035 56.7826 16.2779 56.7826C16.4523 56.7826 16.5831 56.7174 16.6921 56.6522L16.7793 56.8043L16.8883 56.7826V56.7826ZM16.6485 56.5435C16.5613 56.5869 16.4741 56.6304 16.3651 56.6304C16.2779 56.6304 16.2343 56.5652 16.2343 56.4565C16.2343 56.3913 16.2561 56.3261 16.2561 56.3043C16.3215 56.2826 16.4305 56.2608 16.6267 56.2608C16.6485 56.3913 16.6485 56.5 16.6485 56.5435ZM17.5204 56.7826C17.6512 56.7826 17.7602 56.7608 17.8256 56.7174V56.5652C17.782 56.5869 17.6948 56.6087 17.6512 56.6087C17.5422 56.6087 17.5204 56.5217 17.5204 56.4348V55.8043C17.564 55.8043 17.7166 55.7826 17.8256 55.7826L17.8474 55.6304H17.5204V55.3913L17.346 55.4348L17.2807 55.6304C17.2371 55.6522 17.1717 55.6522 17.1281 55.6739V55.7826L17.2807 55.8043V56.5217C17.2371 56.6956 17.346 56.7826 17.5204 56.7826V56.7826ZM18.3052 56.7608V55.5869L18.0436 55.6522V56.7608H18.3052ZM18.1744 55.1522C18.0872 55.1522 18.0218 55.1956 18.0218 55.2826C18.0218 55.3695 18.0872 55.413 18.1744 55.413C18.2616 55.413 18.327 55.3695 18.327 55.2826C18.327 55.1956 18.2616 55.1522 18.1744 55.1522ZM19.1335 56.7826C19.5041 56.7826 19.6785 56.5652 19.6785 56.1956C19.6785 55.8261 19.4823 55.6087 19.1335 55.6087C18.7629 55.6087 18.5886 55.8261 18.5886 56.1956C18.5886 56.5869 18.7629 56.7826 19.1335 56.7826ZM19.4169 56.1956C19.4169 56.3478 19.3951 56.4782 19.3515 56.5435C19.2861 56.5869 19.2207 56.6087 19.1117 56.6087C18.9373 56.6087 18.8283 56.5 18.8283 56.1956C18.8283 56.0435 18.8501 55.913 18.8937 55.8478C18.9591 55.8043 19.0245 55.7826 19.1335 55.7826C19.3079 55.7826 19.4169 55.8913 19.4169 56.1956V56.1956ZM20.9428 56.7608V55.913C20.9428 55.6956 20.8338 55.5869 20.6594 55.5869C20.485 55.5869 20.3106 55.6956 20.2016 55.7608L20.158 55.6304H19.9619V56.7608H20.2234V55.913C20.3106 55.8478 20.4414 55.8043 20.5504 55.8043C20.703 55.8043 20.703 55.913 20.703 56V56.7608H20.9428V56.7608ZM22.1199 56.7826V55.913C22.1199 55.6739 22.0109 55.6087 21.8147 55.6087C21.6621 55.6087 21.4877 55.6522 21.3569 55.6956L21.3787 55.8478C21.4877 55.8043 21.6185 55.7826 21.7057 55.7826C21.8147 55.7826 21.8801 55.8261 21.8801 55.9565V56.0869C21.4223 56.1087 21.2262 56.2174 21.2262 56.4782C21.2262 56.6522 21.3352 56.7826 21.5095 56.7826C21.6839 56.7826 21.8147 56.7174 21.9237 56.6522L22.0109 56.8043L22.1199 56.7826V56.7826ZM21.8583 56.5435C21.7711 56.5869 21.6839 56.6304 21.5749 56.6304C21.4877 56.6304 21.4441 56.5652 21.4441 56.4565C21.4441 56.3913 21.4659 56.3261 21.4659 56.3043C21.5313 56.2826 21.6403 56.2608 21.8365 56.2608C21.8583 56.3913 21.8583 56.5 21.8583 56.5435V56.5435ZM22.6866 55.0652L22.4251 55.1304V56.5217C22.4251 56.7391 22.5341 56.7826 22.6649 56.7826C22.7738 56.7826 22.9046 56.7391 22.9482 56.7174L22.9046 56.5652C22.861 56.5869 22.8174 56.5869 22.7738 56.5869C22.7084 56.5869 22.6649 56.5435 22.6649 56.4565V55.0652H22.6866V55.0652ZM23.6022 55.6087C23.2752 55.6087 23.0572 55.8261 23.0572 56.2391C23.0572 56.6304 23.2752 56.8043 23.5368 56.8043C23.733 56.8043 23.9074 56.7391 24.0164 56.6739L23.9728 56.5217C23.8856 56.5652 23.7548 56.6087 23.624 56.6087C23.4496 56.6087 23.3406 56.5 23.3406 56.2391L23.842 56.2174L24.0817 56.1087C24.0163 55.7608 23.8202 55.6087 23.6022 55.6087V55.6087ZM23.406 55.8043C23.4496 55.7826 23.515 55.7826 23.5586 55.7826C23.7548 55.7826 23.7766 55.9348 23.7984 56.0869L23.3406 56.1087C23.3406 55.9565 23.3624 55.8695 23.406 55.8043ZM25.2589 56.7608V56.1739L25.8256 56.1304V55.9565H25.2589V55.4348H25.8256L25.8692 55.2391H24.9973V56.7608H25.2589ZM26.8719 56.7826V55.913C26.8719 55.6739 26.7629 55.6087 26.5668 55.6087C26.4142 55.6087 26.2398 55.6522 26.109 55.6956L26.1308 55.8478C26.2398 55.8043 26.3706 55.7826 26.4578 55.7826C26.5668 55.7826 26.6322 55.8261 26.6322 55.9565V56.0869C26.1744 56.1087 25.9782 56.2174 25.9782 56.4782C25.9782 56.6522 26.0872 56.7826 26.2616 56.7826C26.436 56.7826 26.5668 56.7174 26.6758 56.6522L26.7629 56.8043L26.8719 56.7826V56.7826ZM26.6322 56.5435C26.545 56.5869 26.4578 56.6304 26.3488 56.6304C26.2616 56.6304 26.218 56.5652 26.218 56.4565C26.218 56.3913 26.2398 56.3261 26.2398 56.3043C26.3052 56.2826 26.4142 56.2608 26.6104 56.2608C26.6322 56.3913 26.6322 56.5 26.6322 56.5435ZM27.4169 56.2174C27.4169 56.0217 27.4387 55.913 27.4823 55.8478C27.5695 55.8043 27.8093 55.8043 28.0272 55.8043V55.6087C27.5041 55.6087 27.1553 55.6956 27.1553 56.2391C27.1553 56.6522 27.3515 56.8043 27.6349 56.8043C27.8093 56.8043 27.9401 56.7608 28.0272 56.6739L27.9837 56.5435C27.8965 56.5869 27.8093 56.6304 27.7003 56.6304C27.5259 56.6087 27.4169 56.5 27.4169 56.2174ZM29.2698 56.7608V55.913C29.2698 55.6956 29.1608 55.5869 28.9864 55.5869C28.812 55.5869 28.6594 55.6956 28.5504 55.7608V55.0435L28.2888 55.1087V56.7608H28.5504V55.913C28.6376 55.8478 28.7684 55.8043 28.8774 55.8043C29.03 55.8043 29.03 55.913 29.03 56V56.7608H29.2698V56.7608ZM30.4905 56.5869H29.8365L30.4033 55.7391L30.3815 55.6304H29.5531L29.5095 55.8261H30.0763L29.5095 56.6739V56.7826H30.4251L30.4905 56.5869ZM31.1662 55.6087C30.8392 55.6087 30.6213 55.8261 30.6213 56.2391C30.6213 56.6304 30.8392 56.8043 31.1008 56.8043C31.297 56.8043 31.4714 56.7391 31.5804 56.6739L31.5368 56.5217C31.4496 56.5652 31.3188 56.6087 31.188 56.6087C31.0136 56.6087 30.9046 56.5 30.9046 56.2391L31.406 56.2174L31.6458 56.1087C31.5804 55.7608 31.3842 55.6087 31.1662 55.6087V55.6087ZM30.97 55.8043C31.0136 55.7826 31.079 55.7826 31.1226 55.7826C31.3188 55.7826 31.3406 55.9348 31.3624 56.0869L30.9046 56.1087C30.9046 55.9565 30.9264 55.8695 30.97 55.8043ZM32.1471 56.7608V55.5869L31.8856 55.6522V56.7608H32.1471ZM32.0381 55.1522C31.951 55.1522 31.8856 55.1956 31.8856 55.2826C31.8856 55.3695 31.951 55.413 32.0381 55.413C32.1253 55.413 32.1907 55.3695 32.1907 55.2826C32.1689 55.1956 32.1035 55.1522 32.0381 55.1522ZM32.8011 56.7826C32.9319 56.7826 33.0409 56.7608 33.1063 56.7174L33.0845 56.5652C33.0409 56.5869 32.9537 56.6087 32.9101 56.6087C32.8011 56.6087 32.7793 56.5217 32.7793 56.4348V55.8043C32.8229 55.8043 32.9755 55.7826 33.0845 55.7826L33.1063 55.6304H32.7793V55.3913L32.6049 55.4348L32.5395 55.6304C32.4959 55.6522 32.4305 55.6522 32.3869 55.6739V55.7826L32.5395 55.8043V56.5217C32.5177 56.6956 32.6267 56.7826 32.8011 56.7826V56.7826ZM34.0218 56.4348C34.0218 56.0869 33.5204 56.1304 33.5204 55.913C33.5204 55.8695 33.5204 55.8478 33.5422 55.8261C33.6512 55.8043 33.8038 55.8043 34 55.8043V55.6087C33.5858 55.6087 33.2589 55.6522 33.2589 55.9348C33.2589 56.3043 33.782 56.2608 33.782 56.4782C33.782 56.5217 33.7602 56.5652 33.7602 56.5869C33.7166 56.6087 33.6512 56.6087 33.564 56.6087C33.455 56.6087 33.3243 56.5652 33.2153 56.5217L33.2371 56.7391C33.346 56.7826 33.4332 56.8043 33.5858 56.8043C33.8692 56.7826 34.0218 56.6522 34.0218 56.4348V56.4348ZM34.5014 56.2174C34.5014 56.0217 34.5232 55.913 34.5668 55.8478C34.654 55.8043 34.8937 55.8043 35.1117 55.8043V55.6087C34.5886 55.6087 34.2398 55.6956 34.2398 56.2391C34.2398 56.6522 34.436 56.8043 34.7193 56.8043C34.8937 56.8043 35.0245 56.7608 35.1117 56.6739L35.0681 56.5435C34.9809 56.5869 34.8937 56.6304 34.7847 56.6304C34.6104 56.6087 34.5014 56.5 34.5014 56.2174ZM36.3324 56.7608V55.913C36.3324 55.6956 36.2234 55.5869 36.049 55.5869C35.8747 55.5869 35.7221 55.6956 35.6131 55.7608V55.0435L35.3515 55.1087V56.7608H35.6131V55.913C35.7003 55.8478 35.8311 55.8043 35.9401 55.8043C36.0926 55.8043 36.0926 55.913 36.0926 56V56.7608H36.3324ZM37.2916 55.6087C37.2044 55.6087 37.139 55.6087 37.0736 55.6304C37.0082 55.6522 36.9428 55.7608 36.8992 55.8261L36.8338 55.6304H36.6594V56.7826H36.921V56.0217C36.9428 55.9782 36.9646 55.9348 36.9864 55.913C37.0518 55.8913 37.1172 55.8695 37.248 55.8695L37.2916 55.6087V55.6087ZM37.7493 56.7608V55.5869L37.4877 55.6522V56.7608H37.7493ZM37.6185 55.1522C37.5313 55.1522 37.4659 55.1956 37.4659 55.2826C37.4659 55.3695 37.5313 55.413 37.6185 55.413C37.7057 55.413 37.7711 55.3695 37.7711 55.2826C37.7711 55.1956 37.7057 55.1522 37.6185 55.1522ZM38.7738 55.0652C38.4469 55.0652 38.1853 55.1956 38.1853 55.5652V55.6304C38.1417 55.6304 38.0109 55.6522 37.9455 55.6739V55.8043H38.1853V56.7608H38.4469V55.8043C38.5559 55.8043 38.6431 55.7826 38.7302 55.7826L38.752 55.6304H38.4469V55.5435C38.4469 55.4348 38.4687 55.3261 38.4905 55.2608C38.5341 55.2391 38.7302 55.2391 38.7956 55.2391V55.0652H38.7738ZM39.2316 56.7826C39.3624 56.7826 39.4714 56.7608 39.5368 56.7174L39.515 56.5652C39.4714 56.5869 39.3842 56.6087 39.3406 56.6087C39.2316 56.6087 39.2098 56.5217 39.2098 56.4348V55.8043C39.2534 55.8043 39.406 55.7826 39.515 55.7826L39.5368 55.6304H39.2098V55.3913L39.0354 55.4348L38.97 55.6304C38.9264 55.6522 38.861 55.6522 38.8174 55.6739V55.7826L38.97 55.8043V56.5217C38.9482 56.6956 39.0572 56.7826 39.2316 56.7826V56.7826ZM41.0627 55.0652C40.7357 55.0652 40.4741 55.1956 40.4741 55.5652V55.6304C40.4305 55.6304 40.2997 55.6522 40.2343 55.6739V55.8043H40.4741V56.7608H40.7357V55.8043C40.8447 55.8043 40.9319 55.7826 41.0191 55.7826L41.0409 55.6304H40.7357V55.5435C40.7357 55.4348 40.7575 55.3261 40.7793 55.2608C40.8229 55.2391 41.0191 55.2391 41.0845 55.2391V55.0652H41.0627V55.0652ZM41.2153 55.6739V56.4782C41.2153 56.6956 41.3243 56.8043 41.4986 56.8043C41.673 56.8043 41.8474 56.6956 41.9564 56.6304L42 56.7608H42.1962V55.6087L41.9346 55.6739V56.5C41.8474 56.5652 41.7166 56.6087 41.6076 56.6087C41.455 56.6087 41.455 56.5 41.455 56.413V55.6304L41.2153 55.6739V55.6739ZM41.4986 55.1956C41.4332 55.1956 41.3678 55.2391 41.3678 55.3043C41.3678 55.3913 41.4332 55.413 41.4986 55.413C41.564 55.413 41.6294 55.3695 41.6294 55.2826C41.6294 55.2391 41.5858 55.1956 41.4986 55.1956ZM41.9128 55.1956C41.8474 55.1956 41.782 55.2391 41.782 55.3043C41.782 55.3913 41.8256 55.413 41.9128 55.413C41.9782 55.413 42.0436 55.3695 42.0436 55.2826C42.0436 55.2391 41.9782 55.1956 41.9128 55.1956ZM43.1553 55.6087C43.0681 55.6087 43.0027 55.6087 42.9373 55.6304C42.8719 55.6522 42.8065 55.7608 42.7629 55.8261L42.6975 55.6304H42.5232V56.7826H42.7847V56.0217C42.8065 55.9782 42.8283 55.9348 42.8501 55.913C42.9155 55.8913 42.9809 55.8695 43.1117 55.8695L43.1553 55.6087V55.6087ZM44.267 56.7608V56.1739L44.8338 56.1304V55.9565H44.267V55.4348H44.8338L44.8774 55.2391H44.0055V56.7608H44.267V56.7608ZM45.4005 55.0652L45.139 55.1304V56.5217C45.139 56.7391 45.248 56.7826 45.3787 56.7826C45.4877 56.7826 45.6185 56.7391 45.6621 56.7174L45.6185 56.5652C45.5749 56.5869 45.5313 56.5869 45.4877 56.5869C45.4223 56.5869 45.3787 56.5435 45.3787 56.4565V55.0652H45.4005V55.0652ZM46.3161 55.6087C45.9891 55.6087 45.7711 55.8261 45.7711 56.2391C45.7711 56.6304 45.9891 56.8043 46.2507 56.8043C46.4469 56.8043 46.6213 56.7391 46.7302 56.6739L46.6867 56.5217C46.5995 56.5652 46.4687 56.6087 46.3379 56.6087C46.1635 56.6087 46.0545 56.5 46.0545 56.2391L46.5559 56.2174L46.7956 56.1087C46.7302 55.7608 46.5341 55.6087 46.3161 55.6087V55.6087ZM46.1199 55.8043C46.1635 55.7826 46.2289 55.7826 46.2725 55.7826C46.4687 55.7826 46.4905 55.9348 46.5123 56.0869L46.0545 56.1087C46.0545 55.9565 46.0763 55.8695 46.1199 55.8043ZM47.297 56.7608V55.5869L47.0354 55.6522V56.7608H47.297ZM47.1662 55.1522C47.079 55.1522 47.0136 55.1956 47.0136 55.2826C47.0136 55.3695 47.079 55.413 47.1662 55.413C47.2534 55.413 47.3188 55.3695 47.3188 55.2826C47.3188 55.1956 47.2534 55.1522 47.1662 55.1522ZM48.3433 56.4348C48.3433 56.0869 47.842 56.1304 47.842 55.913C47.842 55.8695 47.842 55.8478 47.8638 55.8261C47.9728 55.8043 48.1253 55.8043 48.3215 55.8043V55.6087C47.9074 55.6087 47.5804 55.6522 47.5804 55.9348C47.5804 56.3043 48.1035 56.2608 48.1035 56.4782C48.1035 56.5217 48.0817 56.5652 48.0817 56.5869C48.0381 56.6087 47.9728 56.6087 47.8856 56.6087C47.7766 56.6087 47.6458 56.5652 47.5368 56.5217L47.5586 56.7391C47.6676 56.7826 47.7548 56.8043 47.9074 56.8043C48.1907 56.7826 48.3433 56.6522 48.3433 56.4348V56.4348ZM48.8011 56.2174C48.8011 56.0217 48.8229 55.913 48.8665 55.8478C48.9537 55.8043 49.1935 55.8043 49.4114 55.8043V55.6087C48.8883 55.6087 48.5395 55.6956 48.5395 56.2391C48.5395 56.6522 48.7357 56.8043 49.0191 56.8043C49.1935 56.8043 49.3243 56.7608 49.4114 56.6739L49.3679 56.5435C49.2807 56.5869 49.1935 56.6304 49.0845 56.6304C48.9319 56.6087 48.8011 56.5 48.8011 56.2174ZM50.654 56.7608V55.913C50.654 55.6956 50.545 55.5869 50.3706 55.5869C50.1962 55.5869 50.0436 55.6956 49.9346 55.7608V55.0435L49.673 55.1087V56.7608H49.9346V55.913C50.0218 55.8478 50.1526 55.8043 50.2616 55.8043C50.4142 55.8043 50.4142 55.913 50.4142 56V56.7608H50.654V56.7608ZM51.5695 56.7608L52.0273 55.6739L51.8093 55.6087L51.5477 56.2826C51.5041 56.3695 51.4605 56.5217 51.4387 56.5869C51.4169 56.5217 51.3733 56.3695 51.3297 56.2826L51.0681 55.6087L50.8065 55.6739L51.2643 56.7608H51.5695V56.7608ZM52.6812 55.6087C52.3542 55.6087 52.1362 55.8261 52.1362 56.2391C52.1362 56.6304 52.3542 56.8043 52.6158 56.8043C52.812 56.8043 52.9864 56.7391 53.0954 56.6739L53.0518 56.5217C52.9646 56.5652 52.8338 56.6087 52.703 56.6087C52.5286 56.6087 52.4196 56.5 52.4196 56.2391L52.921 56.2174L53.1608 56.1087C53.0954 55.7608 52.8992 55.6087 52.6812 55.6087V55.6087ZM52.485 55.8043C52.5286 55.7826 52.594 55.7826 52.6376 55.7826C52.8338 55.7826 52.8556 55.9348 52.8774 56.0869L52.4196 56.1087C52.4196 55.9565 52.4414 55.8695 52.485 55.8043ZM54.0109 55.6087C53.9237 55.6087 53.8583 55.6087 53.7929 55.6304C53.7275 55.6522 53.6621 55.7608 53.6185 55.8261L53.5531 55.6304H53.3787V56.7826H53.6403V56.0217C53.6621 55.9782 53.6839 55.9348 53.7057 55.913C53.7711 55.8913 53.8365 55.8695 53.9673 55.8695L54.0109 55.6087V55.6087ZM55.0136 56.7826V55.913C55.0136 55.6739 54.9046 55.6087 54.7085 55.6087C54.5559 55.6087 54.3815 55.6522 54.2507 55.6956L54.2725 55.8478C54.3815 55.8043 54.5123 55.7826 54.5995 55.7826C54.7085 55.7826 54.7738 55.8261 54.7738 55.9565V56.0869C54.3161 56.1087 54.1199 56.2174 54.1199 56.4782C54.1199 56.6522 54.2289 56.7826 54.4033 56.7826C54.5777 56.7826 54.7085 56.7174 54.8174 56.6522L54.9046 56.8043L55.0136 56.7826V56.7826ZM54.752 56.5435C54.6649 56.5869 54.5777 56.6304 54.4687 56.6304C54.3815 56.6304 54.3379 56.5652 54.3379 56.4565C54.3379 56.3913 54.3597 56.3261 54.3597 56.3043C54.4251 56.2826 54.5341 56.2608 54.7302 56.2608C54.752 56.3913 54.752 56.5 54.752 56.5435V56.5435ZM55.951 55.6087C55.8638 55.6087 55.7984 55.6087 55.733 55.6304C55.6676 55.6522 55.6022 55.7608 55.5586 55.8261L55.4932 55.6304H55.3188V56.7826H55.5804V56.0217C55.6022 55.9782 55.624 55.9348 55.6458 55.913C55.7112 55.8913 55.7766 55.8695 55.9074 55.8695L55.951 55.6087V55.6087ZM56.1471 56.5869V56.8261L56.2561 56.8478L56.3215 56.7826C56.4087 56.8043 56.4959 56.8043 56.6049 56.8043C56.9973 56.8043 57.1935 56.5435 57.1935 56.1739C57.1935 55.7826 57.0409 55.6304 56.7793 55.6304C56.6267 55.6304 56.5177 55.6739 56.4087 55.7391V55.0652L56.1471 55.1087V56.5869V56.5869ZM56.9319 56.1739C56.9319 56.3261 56.8883 56.4782 56.8665 56.5652C56.8011 56.5869 56.7139 56.6087 56.6267 56.6087C56.5613 56.6087 56.4741 56.5869 56.4305 56.5869V55.8913C56.5177 55.8478 56.6049 55.8043 56.6921 55.8043C56.8447 55.7826 56.9319 55.8695 56.9319 56.1739V56.1739ZM57.9564 55.6087C57.6294 55.6087 57.4114 55.8261 57.4114 56.2391C57.4114 56.6304 57.6294 56.8043 57.891 56.8043C58.0872 56.8043 58.2616 56.7391 58.3706 56.6739L58.327 56.5217C58.2398 56.5652 58.109 56.6087 57.9782 56.6087C57.8038 56.6087 57.6948 56.5 57.6948 56.2391L58.1962 56.2174L58.436 56.1087C58.3706 55.7608 58.1526 55.6087 57.9564 55.6087V55.6087ZM57.7602 55.8043C57.8038 55.7826 57.8692 55.7826 57.9128 55.7826C58.109 55.7826 58.1308 55.9348 58.1526 56.0869L57.6948 56.1087C57.673 55.9565 57.7166 55.8695 57.7602 55.8043V55.8043ZM58.9155 56.7608V55.5869L58.654 55.6522V56.7608H58.9155ZM58.8065 55.1522C58.7193 55.1522 58.654 55.1956 58.654 55.2826C58.654 55.3695 58.7193 55.413 58.8065 55.413C58.8937 55.413 58.9591 55.3695 58.9591 55.2826C58.9591 55.1956 58.8719 55.1522 58.8065 55.1522ZM59.5695 56.7826C59.7003 56.7826 59.8093 56.7608 59.8747 56.7174L59.8529 56.5652C59.8093 56.5869 59.7221 56.6087 59.6785 56.6087C59.5695 56.6087 59.5477 56.5217 59.5477 56.4348V55.8043C59.5913 55.8043 59.7439 55.7826 59.8529 55.7826L59.8747 55.6304H59.5477V55.3913L59.3733 55.4348L59.3079 55.6304C59.2643 55.6522 59.1989 55.6522 59.1553 55.6739V55.7826L59.3079 55.8043V56.5217C59.2861 56.6956 59.3951 56.7826 59.5695 56.7826V56.7826ZM60.5286 55.6087C60.2016 55.6087 59.9837 55.8261 59.9837 56.2391C59.9837 56.6304 60.2016 56.8043 60.4632 56.8043C60.6594 56.8043 60.8338 56.7391 60.9428 56.6739L60.8992 56.5217C60.812 56.5652 60.6812 56.6087 60.5504 56.6087C60.376 56.6087 60.267 56.5 60.267 56.2391L60.7684 56.2174L61.0082 56.1087C60.9428 55.7608 60.7466 55.6087 60.5286 55.6087V55.6087ZM60.3324 55.8043C60.376 55.7826 60.4414 55.7826 60.485 55.7826C60.6812 55.7826 60.703 55.9348 60.7248 56.0869L60.267 56.1087C60.267 55.9565 60.2888 55.8695 60.3324 55.8043V55.8043ZM61.8801 55.6087C61.7929 55.6087 61.7275 55.6087 61.6621 55.6304C61.5967 55.6522 61.5313 55.7608 61.4877 55.8261L61.4223 55.6304H61.248V56.7826H61.5095V56.0217C61.5313 55.9782 61.5531 55.9348 61.5749 55.913C61.6403 55.8913 61.7057 55.8695 61.8365 55.8695L61.8801 55.6087V55.6087ZM62.97 56.7608V55.5869L62.7085 55.6522V56.7608H62.97ZM62.861 55.1522C62.7738 55.1522 62.7085 55.1956 62.7085 55.2826C62.7085 55.3695 62.7738 55.413 62.861 55.413C62.9482 55.413 63.0136 55.3695 63.0136 55.2826C62.9918 55.1956 62.9264 55.1522 62.861 55.1522ZM64.2997 56.7608V55.913C64.2997 55.6956 64.1907 55.5869 64.0164 55.5869C63.842 55.5869 63.6676 55.6956 63.5586 55.7608L63.515 55.6304H63.3188V56.7608H63.5804V55.913C63.6676 55.8478 63.7984 55.8043 63.9074 55.8043C64.0599 55.8043 64.0599 55.913 64.0599 56V56.7608H64.2997V56.7608ZM66.5668 56.7608V55.2391H66.3052V55.8695H65.5422V55.2391H65.2807V56.7608H65.5422V56.0869H66.3052V56.7608H66.5668ZM67.7657 56.7826V55.913C67.7657 55.6739 67.6567 55.6087 67.4605 55.6087C67.3079 55.6087 67.1335 55.6522 67.0027 55.6956L67.0245 55.8478C67.1335 55.8043 67.2643 55.7826 67.3515 55.7826C67.4605 55.7826 67.5259 55.8261 67.5259 55.9565V56.0869C67.0681 56.1087 66.8719 56.2174 66.8719 56.4782C66.8719 56.6522 66.9809 56.7826 67.1553 56.7826C67.3297 56.7826 67.4605 56.7174 67.5695 56.6522L67.6567 56.8043L67.7657 56.7826V56.7826ZM67.5259 56.5435C67.4387 56.5869 67.3515 56.6304 67.2425 56.6304C67.1553 56.6304 67.1117 56.5652 67.1117 56.4565C67.1117 56.3913 67.1335 56.3261 67.1335 56.3043C67.1989 56.2826 67.3079 56.2608 67.5041 56.2608C67.5041 56.3913 67.5041 56.5 67.5259 56.5435ZM69.0736 56.7608V55.913C69.0736 55.6956 68.9646 55.5869 68.7902 55.5869C68.6158 55.5869 68.4414 55.6956 68.3324 55.7608L68.2888 55.6304H68.0926V56.7608H68.3542V55.913C68.4414 55.8478 68.5722 55.8043 68.6812 55.8043C68.8338 55.8043 68.8338 55.913 68.8338 56V56.7608H69.0736V56.7608ZM69.3569 56.2174C69.3569 56.6087 69.5313 56.8043 69.7711 56.8043C69.9237 56.8043 70.0327 56.7391 70.1417 56.6739L70.2289 56.8261L70.3815 56.7826V55.0652L70.1199 55.1087V55.6304C70.0545 55.6304 69.9673 55.6087 69.8801 55.6087C69.5313 55.6087 69.3569 55.8261 69.3569 56.2174V56.2174ZM69.5967 56.1956C69.5967 56.0652 69.6185 55.8913 69.6621 55.8261C69.7057 55.8043 69.8147 55.7826 69.9019 55.7826C69.9673 55.7826 70.0545 55.8043 70.0981 55.8043V56.5217C70.0109 56.5652 69.9237 56.6087 69.8365 56.6087C69.6839 56.6087 69.5967 56.4565 69.5967 56.1956ZM70.8174 55.6087L70.5777 55.6739L70.9482 56.7826L71.2098 56.7608L71.4278 56.0869C71.4496 56.0217 71.4714 55.8913 71.4932 55.8478C71.4932 55.8913 71.5368 56.0217 71.5586 56.0869L71.7548 56.7608L72.0164 56.7391L72.4087 55.6304L72.1907 55.5652L71.9728 56.2608C71.951 56.3261 71.9074 56.4782 71.9074 56.5217C71.9074 56.4782 71.8638 56.3478 71.842 56.2608L71.6458 55.6304L71.3624 55.6522L71.1662 56.2826C71.1444 56.3261 71.1008 56.5 71.1008 56.5435C71.1008 56.5 71.0572 56.3478 71.0354 56.3043L70.8174 55.6087V55.6087ZM73.0627 55.6087C72.7357 55.6087 72.5177 55.8261 72.5177 56.2391C72.5177 56.6304 72.7357 56.8043 72.9973 56.8043C73.1935 56.8043 73.3679 56.7391 73.4768 56.6739L73.4332 56.5217C73.3461 56.5652 73.2153 56.6087 73.0845 56.6087C72.9101 56.6087 72.8011 56.5 72.8011 56.2391L73.3025 56.2174L73.5422 56.1087C73.4768 55.7608 73.2807 55.6087 73.0627 55.6087V55.6087ZM72.8665 55.8043C72.9101 55.7826 72.9755 55.7826 73.0191 55.7826C73.2153 55.7826 73.2371 55.9348 73.2589 56.0869L72.8011 56.1087C72.8011 55.9565 72.8229 55.8695 72.8665 55.8043ZM74.4142 55.6087C74.327 55.6087 74.2616 55.6087 74.1962 55.6304C74.1308 55.6522 74.0654 55.7608 74.0218 55.8261L73.9564 55.6304H73.782V56.7826H74.0436V56.0217C74.0654 55.9782 74.0872 55.9348 74.109 55.913C74.1744 55.8913 74.2398 55.8695 74.3706 55.8695L74.4142 55.6087V55.6087ZM75.1335 56.1522L75.5695 55.7608L75.4169 55.6087L74.8501 56.1522V55.0652L74.5886 55.1304V56.7826H74.8501V56.413V56.1956L75.4605 56.8261L75.6349 56.6522L75.1335 56.1522V56.1522ZM76.4632 55.6739V56.4782C76.4632 56.6956 76.5722 56.8043 76.7466 56.8043C76.921 56.8043 77.0954 56.6956 77.2044 56.6304L77.248 56.7608H77.4441V55.6087L77.1826 55.6739V56.5C77.0954 56.5652 76.9646 56.6087 76.8556 56.6087C76.703 56.6087 76.703 56.5 76.703 56.413V55.6304L76.4632 55.6739V55.6739ZM78.752 56.7608V55.913C78.752 55.6956 78.6431 55.5869 78.4687 55.5869C78.2943 55.5869 78.1199 55.6956 78.0109 55.7608L77.9673 55.6304H77.7711V56.7608H78.0327V55.913C78.1199 55.8478 78.2507 55.8043 78.3597 55.8043C78.5123 55.8043 78.5123 55.913 78.5123 56V56.7608H78.752V56.7608ZM79.0354 56.2174C79.0354 56.6087 79.2098 56.8043 79.4496 56.8043C79.6022 56.8043 79.7112 56.7391 79.8202 56.6739L79.9074 56.8261L80.0599 56.7826V55.0652L79.7984 55.1087V55.6304C79.733 55.6304 79.6458 55.6087 79.5586 55.6087C79.2098 55.6087 79.0354 55.8261 79.0354 56.2174V56.2174ZM79.297 56.1956C79.297 56.0652 79.3188 55.8913 79.3624 55.8261C79.406 55.8043 79.515 55.7826 79.6022 55.7826C79.6676 55.7826 79.7548 55.8043 79.7984 55.8043V56.5217C79.7112 56.5652 79.624 56.6087 79.5368 56.6087C79.3842 56.6087 79.297 56.4565 79.297 56.1956ZM81.3243 56.7608V55.2391H81.0627V56.7608H81.3243V56.7608ZM82.6758 56.7608V55.913C82.6758 55.6956 82.5668 55.5869 82.3924 55.5869C82.218 55.5869 82.0436 55.6956 81.9346 55.7608L81.891 55.6304H81.6948V56.7608H81.9564V55.913C82.0436 55.8478 82.1744 55.8043 82.2834 55.8043C82.436 55.8043 82.436 55.913 82.436 56V56.7608H82.6758V56.7608ZM82.9373 56.2174C82.9373 56.6087 83.1117 56.8043 83.3515 56.8043C83.5041 56.8043 83.6131 56.7391 83.7221 56.6739L83.8093 56.8261L83.9619 56.7826V55.0652L83.7003 55.1087V55.6304C83.6349 55.6304 83.5477 55.6087 83.4605 55.6087C83.1335 55.6087 82.9373 55.8261 82.9373 56.2174V56.2174ZM83.1989 56.1956C83.1989 56.0652 83.2207 55.8913 83.2643 55.8261C83.3079 55.8043 83.4169 55.7826 83.5041 55.7826C83.5695 55.7826 83.6567 55.8043 83.7003 55.8043V56.5217C83.6131 56.5652 83.5259 56.6087 83.4387 56.6087C83.2861 56.6087 83.1989 56.4565 83.1989 56.1956ZM84.3106 55.6739V56.4782C84.3106 56.6956 84.4196 56.8043 84.594 56.8043C84.7684 56.8043 84.9428 56.6956 85.0518 56.6304L85.0954 56.7608H85.2916V55.6087L85.03 55.6739V56.5C84.9428 56.5652 84.812 56.6087 84.703 56.6087C84.5504 56.6087 84.5504 56.5 84.5504 56.413V55.6304L84.3106 55.6739V55.6739ZM86.3597 56.4348C86.3597 56.0869 85.8583 56.1304 85.8583 55.913C85.8583 55.8695 85.8583 55.8478 85.8801 55.8261C85.9891 55.8043 86.1417 55.8043 86.3379 55.8043V55.6087C85.9237 55.6087 85.5967 55.6522 85.5967 55.9348C85.5967 56.3043 86.1199 56.2608 86.1199 56.4782C86.1199 56.5217 86.0981 56.5652 86.0981 56.5869C86.0545 56.6087 85.9891 56.6087 85.9019 56.6087C85.7929 56.6087 85.6621 56.5652 85.5531 56.5217L85.5749 56.7391C85.6839 56.7826 85.7711 56.8043 85.9237 56.8043C86.1853 56.7826 86.3597 56.6522 86.3597 56.4348V56.4348ZM86.9046 56.7826C87.0354 56.7826 87.1444 56.7608 87.2098 56.7174L87.188 56.5652C87.1444 56.5869 87.0572 56.6087 87.0136 56.6087C86.9046 56.6087 86.8828 56.5217 86.8828 56.4348V55.8043C86.9264 55.8043 87.079 55.7826 87.188 55.7826L87.2098 55.6304H86.8828V55.3913L86.7084 55.4348L86.6431 55.6304C86.5995 55.6522 86.5341 55.6522 86.4905 55.6739V55.7826L86.6431 55.8043V56.5217C86.6213 56.6956 86.7302 56.7826 86.9046 56.7826V56.7826ZM88.0382 55.6087C87.951 55.6087 87.8856 55.6087 87.8202 55.6304C87.7548 55.6522 87.6894 55.7608 87.6458 55.8261L87.5804 55.6304H87.406V56.7826H87.6676V56.0217C87.6894 55.9782 87.7112 55.9348 87.733 55.913C87.7984 55.8913 87.8638 55.8695 87.9946 55.8695L88.0382 55.6087V55.6087ZM88.4959 56.7608V55.5869L88.2343 55.6522V56.7608H88.4959ZM88.3869 55.1522C88.2997 55.1522 88.2343 55.1956 88.2343 55.2826C88.2343 55.3695 88.2997 55.413 88.3869 55.413C88.4741 55.413 88.5395 55.3695 88.5395 55.2826C88.5177 55.1956 88.4523 55.1522 88.3869 55.1522ZM89.3025 55.6087C88.9755 55.6087 88.7575 55.8261 88.7575 56.2391C88.7575 56.6304 88.9755 56.8043 89.2371 56.8043C89.4332 56.8043 89.6076 56.7391 89.7166 56.6739L89.673 56.5217C89.5858 56.5652 89.455 56.6087 89.3243 56.6087C89.1499 56.6087 89.0409 56.5 89.0409 56.2391L89.5422 56.2174L89.782 56.1087C89.7166 55.7608 89.5204 55.6087 89.3025 55.6087V55.6087ZM89.1063 55.8043C89.1499 55.7826 89.2153 55.7826 89.2589 55.7826C89.455 55.7826 89.4768 55.9348 89.4986 56.0869L89.0409 56.1087C89.0409 55.9565 89.0627 55.8695 89.1063 55.8043Z" fill="#1D1D1B"/>
<path d="M10.0218 43.2391C10.7629 43.1304 11.9837 43.0435 13.1826 43.0435C15.9946 43.0435 17.8692 44.5435 17.8692 47.587C17.8692 50.5 16.4523 52.7609 13.1608 52.7609C12.2016 52.7609 11.1989 52.7391 10 52.6087V43.2391H10.0218ZM10.7193 52.0652C11.4605 52.1304 12.4414 52.1739 13.0518 52.1739C14.3161 52.1739 15.2534 51.9783 16.1253 51.4783C16.8011 50.587 17.2153 49.3261 17.2153 47.8261C17.2153 45.1087 15.6676 43.6304 13.2044 43.6304C12.2452 43.6304 11.3733 43.6957 10.7193 43.7826V52.0652V52.0652ZM20.0272 43.3043C20.0272 43.6304 19.7875 43.8261 19.4823 43.8261C19.2425 43.8261 19.0463 43.6739 19.0463 43.3261C19.0463 43 19.3297 42.8478 19.5913 42.8478C19.8311 42.8261 20.0272 42.9783 20.0272 43.3043ZM19.1771 52.6957V45.6304L19.8747 45.4348V52.6957H19.1771V52.6957ZM26.654 48.4783L25.782 48.9783L21.8801 49.1739C21.8801 51.3913 22.6648 52.2174 24.0817 52.2174C24.8229 52.2174 25.6076 51.9783 26.218 51.7391L26.3706 52.1739C25.782 52.5217 24.8229 52.8478 23.8202 52.8478C22.3161 52.8478 21.139 51.7609 21.139 49.3043C21.139 46.7609 22.2289 45.4348 23.9728 45.4348C25.346 45.4348 26.3706 46.3913 26.654 48.4783V48.4783ZM22.5123 46.3261C22.1417 46.8043 21.9455 47.6087 21.9019 48.587L25.9564 48.4783C25.8038 47.3261 25.3896 46.0435 23.9074 46.0435C23.3842 46.0435 22.9264 46.1304 22.5123 46.3261V46.3261ZM30.1853 52.6957V43.1522H35.6567L35.3733 44.4348H31.8638V47.7609H35.4169V48.8261L31.8638 49.0217V52.6957H30.1853V52.6957ZM38.2507 50.8043C38.2507 51.3913 38.4251 51.6739 38.8828 51.6739C39.1226 51.6739 39.4496 51.5652 39.6676 51.5L39.8856 52.4348C39.5804 52.587 38.7956 52.8261 38.1417 52.8261C37.3569 52.8261 36.6376 52.5 36.6376 51.1522V42.3913L38.2289 42V50.8043H38.2507ZM46.3161 48.5217L44.8338 49.2174L41.7384 49.413V49.4348C41.7384 51.0217 42.436 51.6957 43.5695 51.6957C44.4414 51.6957 45.2044 51.413 45.7929 51.1304L46.1199 52.0217C45.4659 52.413 44.3106 52.8261 43.1335 52.8261C41.3896 52.8261 40.0817 51.8043 40.0817 49.3043C40.0817 46.7826 41.455 45.3913 43.4387 45.3913C44.812 45.4348 46.0327 46.3261 46.3161 48.5217V48.5217ZM41.7602 48.4565L44.6812 48.3478C44.5722 47.4348 44.3106 46.4783 43.1553 46.4783C42.8283 46.4783 42.4796 46.5435 42.218 46.6739C41.9346 47.0652 41.782 47.6739 41.7602 48.4565ZM49.1499 43.3913C49.1499 43.913 48.6703 44.2174 48.1471 44.2174C47.6676 44.2174 47.2316 44 47.2316 43.3913C47.2316 42.8478 47.733 42.5652 48.2343 42.5652C48.7139 42.587 49.1499 42.7826 49.1499 43.3913V43.3913ZM47.406 52.6957V45.7609L48.9973 45.3913V52.6957H47.406V52.6957ZM52.3324 52.8478C51.4169 52.8478 50.8283 52.7391 50.1526 52.4565L50 51.1522C50.654 51.4783 51.4605 51.6957 52.1798 51.6957C52.703 51.6957 53.1172 51.6304 53.3787 51.5217C53.4441 51.3913 53.5313 51.1522 53.5313 50.8696C53.5313 49.5217 50.2616 49.7826 50.2616 47.4783C50.2616 45.6957 52.2452 45.4348 54.9046 45.4348V46.6304C53.6839 46.6304 52.6812 46.6522 51.9837 46.7826C51.8965 46.9348 51.8529 47.1087 51.8529 47.3696C51.8529 48.6957 55.0572 48.4348 55.0572 50.6522C55.079 51.9783 54.0327 52.8478 52.3324 52.8478V52.8478ZM59.2425 51.7174C59.8965 51.7174 60.485 51.4783 61.0082 51.2174L61.248 52.0652C60.6594 52.5217 59.7875 52.8478 58.7411 52.8478C57.0409 52.8478 55.7548 51.8913 55.7548 49.3261C55.7548 45.9348 58 45.413 61.2698 45.413V46.6087C59.9401 46.6087 58.4142 46.6739 57.8474 46.8913C57.6076 47.2609 57.4114 48 57.4114 49.2174C57.3896 51.0652 58.109 51.7174 59.2425 51.7174V51.7174ZM66.8065 52.6957V47.8913C66.8065 47.2609 66.7411 46.6522 65.8474 46.6522C65.2807 46.6522 64.3651 47.0217 63.8638 47.3696V52.7174H62.2725V42.3913L63.8638 42V45.3478C63.8638 45.587 63.842 46.1304 63.8202 46.4565C64.4305 46.087 65.4986 45.413 66.545 45.413C67.7439 45.413 68.376 46 68.376 47.413V52.6957H66.8065V52.6957ZM75.7875 48.5217L74.3052 49.2174L71.2098 49.413V49.4348C71.2098 51.0217 71.9074 51.6957 73.0409 51.6957C73.9128 51.6957 74.6757 51.413 75.2643 51.1304L75.5913 52.0217C74.9373 52.413 73.782 52.8261 72.6049 52.8261C70.861 52.8261 69.5531 51.8043 69.5531 49.3043C69.5531 46.7826 70.9264 45.3913 72.9101 45.3913C74.2616 45.4348 75.5041 46.3261 75.7875 48.5217V48.5217ZM71.2098 48.4565L74.1308 48.3478C74.0218 47.4348 73.782 46.4783 72.6049 46.4783C72.2779 46.4783 71.9292 46.5435 71.6676 46.6739C71.406 47.0652 71.2534 47.6739 71.2098 48.4565V48.4565ZM80.4523 47C79.733 47 79.2534 47.0652 78.861 47.2609C78.643 47.4565 78.5123 47.6522 78.3815 47.9565V52.6957H76.7902V47.1739L76.7248 45.587H77.8583L78.2507 46.7826H78.2725C78.5123 46.413 78.9264 45.8043 79.3624 45.6304C79.7112 45.4783 80.1907 45.4348 80.7357 45.4348L80.4523 47ZM86.9918 48.5217L85.5095 49.2174L82.4142 49.413V49.4348C82.4142 51.0217 83.1117 51.6957 84.2452 51.6957C85.1172 51.6957 85.8801 51.413 86.4687 51.1304L86.7956 52.0217C86.1417 52.413 84.9864 52.8261 83.8093 52.8261C82.0654 52.8261 80.7575 51.8043 80.7575 49.3043C80.7575 46.7826 82.1308 45.3913 84.1144 45.3913C85.4877 45.4348 86.7302 46.3261 86.9918 48.5217V48.5217ZM82.436 48.4565L85.3569 48.3478C85.248 47.4348 84.9864 46.4783 83.8311 46.4783C83.5041 46.4783 83.1553 46.5435 82.8937 46.6739C82.6322 47.0652 82.4796 47.6739 82.436 48.4565V48.4565ZM89.8256 43.3913C89.8256 43.913 89.346 44.2174 88.8229 44.2174C88.3433 44.2174 87.9074 44 87.9074 43.3913C87.9074 42.8478 88.4087 42.5652 88.9101 42.5652C89.4114 42.587 89.8256 42.7826 89.8256 43.3913V43.3913ZM88.1035 52.6957V45.7609L89.6948 45.3913V52.6957H88.1035V52.6957Z" fill="#C7143B"/>
</svg>
