<svg width="100" height="100" viewBox="0 0 100 100" fill="none" xmlns="http://www.w3.org/2000/svg">
<rect x="0.5" y="0.5" width="99" height="99" fill="white" stroke="#008B00"/>
<path d="M86.6888 64.0647C83.2072 66.4326 76.2166 69.4777 65.4317 66.7553C64.4 66.4874 63.4155 66.2211 62.4689 65.9335C55.6633 62.9798 48.7499 59.7857 45.9494 57.7038C53.7533 58.9304 65.4347 60.128 84.2661 57.0905C84.2661 57.0905 86.0412 59.8968 86.6888 64.0647V64.0647ZM13.4902 65.9609L10.2042 67.1235C10.2042 67.1235 13.9529 71.6019 14.6113 73.0766L15.5307 75.6194C15.5307 75.6194 27.4214 69.0561 44.7176 70.0453C48.6423 70.2689 52.0876 71.4102 52.0876 71.4102C52.0876 71.4102 45.0408 66.7979 43.6269 66.3505C36.844 64.6536 30.3874 64.1531 26.5674 64.0161C20.0197 65.7615 14.4293 68.764 14.4293 68.764C14.4293 68.764 13.9772 67.396 13.4902 65.9609" fill="#C31924"/>
<path d="M89.3361 61.8369C89.3361 61.8369 88.4623 62.8642 86.6888 64.0647C83.2057 66.4326 76.2165 69.4776 65.4317 66.7536C64.4 66.4859 63.4186 66.2211 62.4673 65.9351C52.6305 63.036 46.7838 59.2925 33.5898 57.6673C24.6497 57.8865 15.5867 58.938 10.6289 60.9101C10.6289 60.9101 11.9852 62.3011 12.3826 62.8809C12.5829 63.3114 13.0516 64.6582 13.4917 65.9609C13.9771 67.396 14.4292 68.7639 14.4292 68.7639C14.4292 68.7639 20.0196 65.7615 26.5673 64.0161C29.6394 63.1913 32.9329 62.6449 35.9489 62.8199C46.0162 63.4561 54.1371 68.6772 63.1408 72.9198C69.3896 74.6714 84.6273 76 88.9252 74.0567C88.9252 74.0567 89.7958 69.9174 89.3361 61.8369" fill="#EDD023"/>
<path d="M36.9881 38.8888C32.933 38.8888 30.5436 44.6198 30.5436 48.6433C30.5436 50.302 30.9608 51.043 31.8331 51.043C34.1421 51.043 38.047 44.3839 38.8177 40.231L39.0195 39.1582C38.4536 39.0288 37.8149 38.8888 36.9881 38.8888V38.8888ZM41.8155 56.0772L35.8807 56.0785C36.1447 54.5126 36.6559 52.7671 37.4858 50.4497L37.3947 50.4464C35.5242 53.592 32.8708 56.6081 29.5029 56.6081C26.0561 56.6066 24.3267 54.3789 24.3251 49.7009C24.3251 41.4727 28.5881 33.9355 38.1365 33.937C38.6554 33.937 39.1788 33.9827 40.0056 34.1105L40.9658 29.0811V29.0415C40.0041 28.865 38.572 28.6885 37.3036 28.6033L38.1365 24.5234C41.1586 24.2268 44.2564 24 47.8686 24.1324L41.8155 56.0772ZM77.5865 56.0785H71.682L73.8226 42.7251C74.2643 40.5369 73.9501 39.7075 72.955 39.7075C70.9462 39.7075 67.3205 45.0322 66.4907 50.2457L65.5516 56.0785H59.6548L61.8606 42.7251C62.2944 40.5369 61.994 39.7075 60.9913 39.7075C58.9828 39.7075 55.457 44.9606 54.4907 50.1162L53.3573 56.0831L47.4681 56.0785L50.6539 39.3301V39.2008C49.6936 39.0274 48.2585 38.8477 46.9887 38.7626L47.8185 34.6858C50.9574 34.3373 53.9248 34.1608 57.1939 34.2947C56.8481 35.999 56.2778 37.9621 55.5344 39.8887L55.6254 39.8917C57.5885 36.5256 59.6836 33.9355 63.5204 33.9355C66.0931 33.9371 67.762 35.293 67.762 38.2239C67.762 38.7519 67.6316 39.3134 67.4145 40.19L67.4601 40.2326C69.4625 36.6032 71.8961 33.9355 75.725 33.9355C79.9561 33.9371 80.8163 36.9989 80.029 41.0665L77.5865 56.0785Z" fill="#30318B"/>
</svg>
