<svg width="100" height="100" viewBox="0 0 100 100" fill="none" xmlns="http://www.w3.org/2000/svg">
<path d="M0.5 0.5H99.5V99.5H0.5V0.5Z" fill="white" stroke="#008B00"/>
<path fill-rule="evenodd" clip-rule="evenodd" d="M10 10H90V90H10V10Z" fill="white"/>
<path fill-rule="evenodd" clip-rule="evenodd" d="M27.1263 42.3858C28.459 44.8262 28.1427 48.1656 26.8823 50.5532C25.5334 53.2622 22.8739 55.8507 20.1023 56.9505C19.1689 57.3569 18.1948 57.5357 17.1141 57.6129C15.8466 57.6528 14.667 57.3569 13.9125 56.3475C13.5261 55.8067 13.4066 55.1211 13.671 54.5529C13.861 54.3201 14.0773 54.2653 14.3856 54.2196C16.2956 53.8021 18.2633 53.546 19.9417 52.574C22.5091 51.4439 24.3244 48.7512 24.9586 46.1859C25.152 44.9611 25.1271 43.5027 24.0078 42.7548C23.3541 42.2273 22.3198 42.1953 21.5611 42.4991C19.6595 43.3171 18.6132 44.1385 17.168 44.9943C16.7405 45.2047 16.3213 45.4002 15.9437 45.0922C15.2261 44.0322 15.6731 43.2972 15.9516 42.5688C16.3629 41.5927 17.0946 40.6709 18.3459 40.2011C20.546 39.3324 23.6106 39.2378 25.5293 40.7315C26.1248 41.186 26.6457 41.5649 27.1263 42.3858V42.3858Z" fill="black"/>
<path fill-rule="evenodd" clip-rule="evenodd" d="M22.7838 42.839C23.1748 43.4964 22.9826 44.3859 22.849 45.1441C22.1991 47.9863 20.7776 50.7101 18.2222 52.5251C17.8333 52.7089 17.5092 52.8127 17.1004 52.6384C16.7505 52.5209 16.5629 52.1262 16.5347 51.7759C16.5509 51.2459 16.7995 50.9305 16.9755 50.5225C18.4111 47.8871 20.153 45.3691 21.909 42.8507C22.1385 42.5838 22.566 42.6045 22.7838 42.839V42.839ZM69.182 38.7833C69.8191 40.0396 68.9558 41.2042 68.4134 42.2235C66.276 45.7322 62.6403 48.1714 59.4433 50.4221C58.8589 51.0334 58.8336 51.8643 58.8241 52.6961C58.8087 53.1194 58.8946 53.5568 59.2868 53.7336C59.8982 53.8374 60.2497 53.197 60.8764 53.3593C60.9938 52.7903 61.0549 52.2076 61.2312 51.6539C61.6147 50.1527 62.5656 48.8865 63.7343 47.7082C65.0927 46.5021 66.6404 45.5878 68.5184 45.7978C68.9409 45.9447 69.2684 45.9713 69.6377 46.5743C69.7099 46.808 69.7568 46.9391 69.5738 47.267C69.1351 47.7912 68.5524 47.829 67.9722 48.1299C66.3673 48.7815 64.8628 50.3229 64.3909 51.9847C64.3315 52.3744 64.3747 52.5537 64.52 52.7724C64.6212 52.9476 64.8101 52.992 64.9852 52.9637C65.2625 52.8625 65.4239 52.5715 65.599 52.3524C66.3602 51.3335 66.7574 50.1395 67.5763 49.1355C68.2482 48.4814 69.1667 48.3237 70.1134 48.3407C70.3761 48.3855 70.667 48.503 70.8115 48.7806C70.9704 49.0948 70.3487 50.1507 69.9457 50.8048C69.6523 51.3148 69.3742 51.81 69.1837 52.3491C69.1538 52.4512 69.2269 52.5388 69.3132 52.5832C69.6049 52.5695 69.81 52.3221 70.0142 52.1034C72.1039 49.9805 74.0354 47.4193 76.5597 45.8663C77.071 45.5762 77.872 45.5641 78.3509 45.9306C79.0196 46.5162 79.2653 47.2898 79.4089 48.0925C79.4956 48.2091 79.6853 48.1664 79.8156 48.1228C80.2389 47.9643 80.7776 47.9659 81.1711 48.2004C81.4612 48.464 81.3002 48.8715 81.2408 49.1778C80.903 49.9643 80.5792 50.8537 79.7625 51.3318C79.4707 51.5062 78.9606 51.4178 78.8577 51.7963C78.5917 53.0202 78.0343 54.1275 77.3615 55.1759C76.7024 56.1657 75.6088 56.6003 74.4733 56.3625C73.2801 56.0088 72.599 54.7235 72.5147 53.556C72.4168 52.5637 72.7692 51.6892 73.6009 51.109C74.3313 50.4839 75.1631 50.1071 75.9799 49.6572C76.1695 49.5559 76.0537 49.3804 76.0691 49.2197C75.9969 48.9645 75.9533 48.8549 75.7644 48.7811C75.3851 48.8383 75.1361 49.2168 74.8443 49.4638C72.7401 51.4991 70.9841 53.7988 68.8222 55.7905C68.0336 56.3857 66.8379 56.6878 65.9219 56.1603C65.6891 56.0437 65.6762 55.6341 65.399 55.7656C64.6822 56.4774 63.5168 56.6347 62.5855 56.2811C61.6687 55.8993 61.2495 54.9065 60.9611 54.059H60.9175C60.2883 54.8297 59.674 55.8051 58.6962 56.1383C57.9811 56.4716 56.9033 56.4239 56.2791 55.9553C55.4067 55.2672 55.3519 54.2018 55.3257 53.1804C55.166 53.1074 55.0194 53.2526 54.9024 53.3547C54.7704 53.6456 54.7551 53.9959 54.6667 54.3022C53.8578 56.8368 53.0916 59.4611 50.9882 61.4088C50.1262 62.1061 48.901 62.5979 47.8099 62.0559C46.8935 61.5566 46.6341 60.5634 46.7395 59.6014C46.935 57.4864 48.8338 55.9462 50.3105 54.5077C49.2733 55.1746 48.1058 56.0034 46.796 55.517C45.9091 55.0767 45.5185 54.1275 45.492 53.1792C45.4343 53.0916 45.3608 53.2227 45.3313 53.2522C44.2203 54.5176 43.0076 55.7391 41.4765 56.2305C40.7469 56.4467 39.8728 56.4152 39.3217 55.8445C39.1038 55.6104 39.0901 55.1838 38.9747 54.9202C38.2152 55.4137 37.4702 56.1304 36.538 56.2587C35.7213 56.3728 34.9642 56.1371 34.5148 55.4797C33.8192 54.2952 34.4097 53.0463 34.9045 51.9067C35.3598 50.7994 36.0043 49.751 36.6625 48.7321C36.6775 48.6445 36.6194 48.586 36.5468 48.5856C36.0727 48.6239 35.6038 48.7104 35.1473 48.8437C34.8264 49.0907 35.0286 49.5144 34.8962 49.8489C34.4654 52.5612 32.7807 55.6772 29.8361 56.3396C28.845 56.4529 27.7966 56.2018 27.2318 55.3103C26.2307 53.8635 26.6457 51.6327 27.4513 50.2204C28.5794 48.2108 30.5101 45.6932 33.0746 45.6866C33.6278 45.7177 34.1956 45.836 34.5438 46.3477C34.6891 46.4938 34.7173 46.7125 34.848 46.8736C36.4808 46.6013 37.9977 46.0082 39.7313 45.9696C40.0658 45.9999 40.4447 46.0883 40.6327 46.454C41.1648 47.433 40.3609 48.2876 39.8666 49.121C39.2854 50.0545 38.743 51.0117 38.2409 51.9901C38.1533 52.1934 38.0649 52.4126 38.1081 52.6313C38.1953 52.8065 38.4933 52.7965 38.6535 52.7683C39.0768 52.5504 39.3727 52.1652 39.6952 51.7867C40.8643 50.4192 41.6305 48.879 42.815 47.5115C43.5894 46.9014 44.5511 46.7291 45.5708 46.7764C45.6923 46.7852 45.8098 46.8231 45.9135 46.8869C46.0173 46.9507 46.1041 47.0385 46.1668 47.1429C46.283 47.3181 46.2382 47.5513 46.1942 47.741C45.2749 49.5065 44.1585 51.1447 43.1337 52.8658C43.1105 52.9145 43.1065 52.9702 43.1225 53.0217C43.1385 53.0733 43.1733 53.1169 43.2201 53.1439C43.5704 53.0937 43.7891 52.9119 44.0659 52.7816C44.5332 52.535 44.9578 51.9092 45.5538 52.2611C45.6555 52.2175 45.6704 52.0868 45.7144 51.9992C46.1307 49.243 48.5864 46.6254 51.1966 45.7289C52.2034 45.455 53.5577 45.4446 54.3865 46.0892C54.6044 46.3817 54.7198 46.8051 54.5729 47.1545C54.426 47.3878 54.1852 47.5293 53.9155 47.6048C52.5301 48.0527 51.187 48.8798 50.2362 50.1606C49.8768 50.6344 49.5813 51.1533 49.3572 51.7041C49.3277 51.8938 49.3273 52.098 49.4285 52.2586C49.5447 52.3898 49.7195 52.4927 49.8797 52.4645C50.4337 52.3931 50.8139 51.8249 51.2236 51.4472C52.159 50.4291 52.4118 48.6798 53.9715 48.3345C54.5845 48.1685 55.5025 47.9742 55.8649 48.6321C55.9064 49.2592 55.6897 49.7767 55.5528 50.3959C55.7424 50.3822 55.9184 50.1341 56.0496 49.9747C58.0006 45.7065 60.6514 41.2075 64.9865 38.4492C65.9796 37.8835 67.3355 37.3921 68.4844 37.979C68.8197 38.14 68.9782 38.5053 69.182 38.7833V38.7833ZM64.7146 41.7446C62.7577 43.3288 61.0756 45.2487 59.9334 47.3455C60.0932 47.3753 60.1808 47.2591 60.2974 47.1865C62.0937 45.8791 63.9348 44.2074 65.1645 42.3588C65.2957 42.1546 65.4716 41.9222 65.4289 41.6591C65.2554 41.3237 64.9043 41.6139 64.7146 41.7446ZM31.7087 49.0956C31.2123 49.5464 30.9193 50.0992 30.5533 50.6238C30.2021 51.2057 29.807 51.7734 29.8041 52.4881C29.8477 52.6342 29.9344 52.7952 30.0942 52.8538C30.4881 52.899 30.6595 52.7425 31.0579 52.2586C31.7017 51.4148 32.1852 50.5117 32.5525 49.5352C32.4363 49.4036 32.2175 49.4322 32.0578 49.3442C31.927 49.3003 31.8548 49.0961 31.7087 49.0956V49.0956ZM75.7088 52.6462C75.2428 52.7322 74.8049 52.9795 74.526 53.3863C74.5115 53.5332 74.4816 53.722 74.6119 53.8249C74.714 53.854 74.8016 53.9125 74.9182 53.8843C75.3851 53.6672 75.5466 53.1426 75.7379 52.7056C75.7088 52.6898 75.7383 52.6616 75.7088 52.6462ZM48.8844 58.6165C48.7525 58.922 48.4744 59.2859 48.7209 59.6225C48.8952 59.7101 49.0708 59.6234 49.2023 59.493C50.2694 58.3874 51.2057 57.1502 51.385 55.6337C50.3483 56.4616 49.529 57.5536 48.8844 58.6165V58.6165Z" fill="black"/>
<path fill-rule="evenodd" clip-rule="evenodd" d="M57.4386 59.5948C57.2465 59.6637 57.085 59.6969 56.9231 59.6969C56.3882 59.6969 56.0412 59.3856 56.0412 58.91C56.0412 58.4439 56.401 58.1131 56.9028 58.1131C57.0584 58.1131 57.2564 58.1529 57.415 58.2119V58.5692C57.2948 58.5051 57.1614 58.4699 57.0252 58.4663C56.7385 58.4663 56.5533 58.6389 56.5533 58.9066C56.5533 59.1781 56.7351 59.3566 57.0091 59.3566C57.1248 59.3566 57.2269 59.33 57.4386 59.2503V59.5948V59.5948ZM58.4787 59.6969C57.9802 59.6969 57.6171 59.3823 57.6171 58.9033C57.6171 58.3845 58.0304 58.1131 58.4787 58.1131C58.8522 58.1131 59.3345 58.3214 59.3345 58.9066C59.3345 59.5122 58.8157 59.6969 58.4787 59.6969ZM58.4787 58.3974C58.2712 58.3974 58.1292 58.5597 58.1292 58.9033C58.1292 59.2972 58.2969 59.4126 58.4787 59.4126C58.704 59.4126 58.8232 59.2279 58.8232 58.893C58.8232 58.5954 58.7202 58.3974 58.4787 58.3974ZM60.0778 58.3376C60.1604 58.2621 60.2463 58.2056 60.3322 58.1658C60.4215 58.1293 60.5107 58.1131 60.6061 58.1131C60.8705 58.1131 61.0486 58.2185 61.154 58.4364C61.3528 58.2085 61.5275 58.1131 61.7554 58.1131C62.1023 58.1131 62.3497 58.3409 62.3497 58.6888V59.6678H61.8707V58.7747C61.8707 58.5559 61.7653 58.4335 61.5902 58.4335C61.4516 58.4335 61.3225 58.5236 61.2142 58.6921V59.6683H60.7352V58.7651C60.7352 58.5161 60.5862 58.4335 60.4451 58.4335C60.3194 58.4335 60.1932 58.5065 60.0778 58.646V59.6683H59.5989V58.1426H60.0778V58.3376V58.3376ZM64.1738 59.4952C63.899 59.6969 63.6118 59.6969 63.4927 59.6969C62.9577 59.6969 62.6107 59.3856 62.6107 58.91C62.6107 58.4439 62.9449 58.1131 63.4143 58.1131C63.8558 58.1131 64.2231 58.4269 64.1999 58.983H63.1063C63.1233 59.2545 63.308 59.4126 63.6089 59.4126C63.8002 59.4126 63.9492 59.3566 64.1738 59.1947V59.4952ZM63.7774 58.7315C63.7571 58.5231 63.6321 58.3974 63.4466 58.3974C63.2586 58.3974 63.1362 58.5198 63.1158 58.7315H63.7774ZM65.3056 58.1421H65.7845V59.6678H65.3056V58.1421ZM65.8082 57.6462C65.808 57.7165 65.7801 57.7839 65.7304 57.8336C65.6807 57.8833 65.6133 57.9113 65.543 57.9114C65.4728 57.911 65.4056 57.883 65.3561 57.8333C65.3065 57.7836 65.2787 57.7163 65.2786 57.6462C65.2789 57.5761 65.3069 57.5091 65.3564 57.4596C65.4059 57.4101 65.4729 57.3821 65.543 57.3818C65.6131 57.3819 65.6804 57.4097 65.7301 57.4593C65.7798 57.5088 65.8078 57.576 65.8082 57.6462V57.6462ZM66.6042 58.3609C66.7557 58.1857 66.9043 58.1127 67.0993 58.1127C67.3367 58.1127 67.6538 58.248 67.6538 58.6979V59.6674H67.1749V58.7377C67.1749 58.5227 67.0736 58.4331 66.9375 58.4331C66.8183 58.4331 66.7299 58.4962 66.6042 58.685V59.6674H66.1252V58.1417H66.6042V58.3609V58.3609ZM70.3922 59.5583C70.2602 59.6375 70.0714 59.6969 69.9423 59.6969C69.7833 59.6969 69.7082 59.6475 69.6746 59.5251C69.4899 59.6508 69.338 59.6969 69.1728 59.6969C68.928 59.6969 68.7466 59.5151 68.7466 59.3234C68.7466 58.9594 69.0143 58.8863 69.6514 58.6888C69.6617 58.546 69.5962 58.4335 69.3878 58.4335C69.1956 58.4335 68.9778 58.5331 68.8259 58.6888V58.2982C69.0243 58.1756 69.2533 58.1115 69.4866 58.1135C69.8693 58.1135 70.1303 58.2426 70.1303 58.5763V59.2711C70.1303 59.3466 70.1602 59.3765 70.2096 59.3765C70.2428 59.3765 70.2793 59.3698 70.3918 59.2914V59.5583H70.3922V59.5583ZM69.6514 58.9295C69.3675 59.0324 69.2322 59.0988 69.2322 59.2503C69.2322 59.3395 69.3019 59.4126 69.3878 59.4126C69.4762 59.4126 69.5725 59.3694 69.6514 59.2976V58.9295ZM71.0023 58.3609C71.1538 58.1857 71.3024 58.1127 71.4974 58.1127C71.7348 58.1127 72.0527 58.248 72.0527 58.6979V59.6674H71.5738V58.7377C71.5738 58.5227 71.4709 58.4331 71.3356 58.4331C71.2173 58.4331 71.1272 58.4962 71.0023 58.685V59.6674H70.5233V58.1417H71.0023V58.3609V58.3609ZM73.915 59.6678H73.436V59.5446C73.3191 59.6463 73.1684 59.7006 73.0135 59.6969C72.6035 59.6969 72.3001 59.3599 72.3001 58.9033C72.3001 58.4364 72.6031 58.1131 73.0393 58.1131C73.1779 58.1131 73.3074 58.1463 73.4356 58.2085V57.4117H73.915V59.6678ZM73.436 58.5231C73.357 58.4686 73.2643 58.4374 73.1683 58.4331C72.9268 58.4331 72.7848 58.6091 72.7848 58.9129C72.7848 59.191 72.9268 59.3757 73.1522 59.3757C73.2543 59.3757 73.3368 59.3391 73.436 59.2499V58.5231V58.5231ZM75.8598 58.1421V58.4696H75.6419V59.6678H75.163V58.4696H74.9459V58.1421H75.163V58.0666C75.163 57.6167 75.4435 57.3818 75.8299 57.3818C75.9225 57.3818 76.0487 57.4021 76.1209 57.4117V57.7985C76.0498 57.7869 75.9779 57.7804 75.9059 57.779C75.7577 57.779 75.6415 57.8445 75.6415 58.0467V58.1421H75.8598ZM76.2325 58.1421H76.7115V59.6678H76.2325V58.1421ZM76.7343 57.6462C76.7342 57.7163 76.7063 57.7836 76.6568 57.8333C76.6073 57.883 76.5401 57.911 76.4699 57.9114C76.3997 57.9114 76.3323 57.8835 76.2827 57.8338C76.233 57.7842 76.2051 57.7168 76.2051 57.6466C76.2051 57.5763 76.233 57.509 76.2827 57.4593C76.3323 57.4097 76.3997 57.3818 76.4699 57.3818C76.5399 57.3821 76.607 57.4101 76.6565 57.4596C76.706 57.5091 76.734 57.5761 76.7343 57.6462V57.6462ZM77.5303 58.3609C77.6826 58.1857 77.8312 58.1127 78.0263 58.1127C78.2637 58.1127 78.5808 58.248 78.5808 58.6979V59.6674H78.1018V58.7377C78.1018 58.5227 77.9997 58.4331 77.8644 58.4331C77.7453 58.4331 77.6561 58.4962 77.5303 58.685V59.6674H77.0522V58.1417H77.5303V58.3609V58.3609ZM80.4434 59.6678H79.9645V59.5446C79.8473 59.6464 79.6963 59.7007 79.5412 59.6969C79.1319 59.6969 78.8277 59.3599 78.8277 58.9033C78.8277 58.4364 79.1315 58.1131 79.5677 58.1131C79.7063 58.1131 79.8354 58.1463 79.9641 58.2085V57.4117H80.443V59.6678H80.4434ZM79.9645 58.5231C79.8854 58.4687 79.7927 58.4375 79.6968 58.4331C79.4553 58.4331 79.3133 58.6091 79.3133 58.9129C79.3133 59.191 79.4553 59.3757 79.6806 59.3757C79.7827 59.3757 79.8653 59.3391 79.9645 59.2499V58.5231V58.5231ZM82.4086 59.6969C81.9093 59.6969 81.5462 59.3823 81.5462 58.9033C81.5462 58.3845 81.9587 58.1131 82.4086 58.1131C82.7813 58.1131 83.264 58.3214 83.264 58.9066C83.2636 59.5122 82.7448 59.6969 82.4086 59.6969ZM82.4086 58.3974C82.1994 58.3974 82.0575 58.5597 82.0575 58.9033C82.0575 59.2972 82.226 59.4126 82.4086 59.4126C82.6323 59.4126 82.7514 59.2279 82.7514 58.893C82.7514 58.5954 82.6493 58.3974 82.4086 58.3974ZM84.568 59.4491C84.4166 59.6243 84.268 59.6973 84.0758 59.6973C83.7749 59.6973 83.518 59.5126 83.518 59.1183V58.1421H83.997V59.0847C83.997 59.3005 84.1119 59.3757 84.2377 59.3757C84.3838 59.3757 84.5149 59.2636 84.5643 59.1146V58.1417H85.0474V59.6674H84.5676V59.4491H84.568ZM86.4705 58.4696H85.9152V59.0988C85.9152 59.247 86.002 59.3429 86.1501 59.3429C86.2489 59.3429 86.3415 59.32 86.4701 59.2545V59.6014C86.3016 59.6712 86.1767 59.6969 86.0277 59.6969C85.7106 59.6969 85.4359 59.5516 85.4359 59.1245V58.4696H85.2188V58.3771L85.8559 57.6628H85.9152V58.1417H86.4705V58.4696Z" fill="black"/>
</svg>
