<svg width="100" height="100" viewBox="0 0 100 100" fill="none" xmlns="http://www.w3.org/2000/svg">
<rect x="0.5" y="0.5" width="99" height="99" fill="white" stroke="#008B00"/>
<g clip-path="url(#clip0_24_359)">
<path d="M55.2438 53.7381V57.5605C53.085 58.6234 51.0325 59.1545 48.9813 59.1545C43.313 59.1545 39.911 55.8627 39.911 51.7206C39.911 47.2589 43.7985 43.543 48.7649 43.543C50.0063 43.543 50.9243 43.7544 51.8965 44.0748C52.5989 44.2862 53.0303 44.5521 53.4616 44.5521C53.8402 44.5521 53.9484 43.9146 54.0025 43.543H54.5427L55.0288 48.6934H54.3804C54.1093 47.685 53.6252 46.8348 52.9755 46.2511C51.9506 45.2428 50.5464 44.7109 48.9272 44.7109C45.5258 44.7109 43.5281 47.3666 43.5281 51.3491C43.5281 55.2777 45.9578 57.9871 49.1969 57.9871C50.1698 57.9871 51.0325 57.7745 52.1128 57.2965V53.3659C52.1128 52.0909 51.8965 51.6136 50.061 51.6136V51.0307H56.9178V51.6136C55.191 51.6136 55.2438 52.1442 55.2438 53.7381ZM36.4015 47.4723V58.8893H35.4841L23.8745 47.1C23.9285 47.4185 23.9285 47.685 23.9285 48.0028V55.172C23.9285 57.4009 23.9285 58.1986 25.9812 58.1986V58.7816H20.5285V58.1986C22.5791 58.1986 22.5791 57.2433 22.5791 55.172V46.995C22.5791 45.7732 22.5791 44.4457 20.4204 44.4457V43.862H25.5498L35.1061 53.5248C35.0514 53.2609 35.0514 53.1007 35.0514 52.7297V47.4723C35.0514 45.3478 35.1061 44.4457 33.0536 44.4457V43.862H38.5075V44.4457C36.5096 44.4457 36.4015 45.2952 36.4015 47.4723V47.4723ZM10 58.7816V58.1986C11.2967 58.1986 12.2135 58.0922 12.2135 56.2336V46.4107C12.2135 44.4983 11.5117 44.4457 10 44.4457V43.862H17.6674V44.4457C16.1016 44.4457 15.4533 44.4983 15.4533 46.4107V56.2336C15.4533 58.0922 16.2632 58.1986 17.6674 58.1986V58.7816H10Z" fill="#003671"/>
<path d="M60.7964 58.838H82.6858L83.6616 57.2127L84.2643 53.9561L83.11 50.4267L81.5815 48.2553L80.8026 48.0081L80.1738 48.2793L79.9235 49.2666L76.9094 49.7106L75.3299 48.551L73.9231 45.0953L73.0708 42.7009L72.894 41.7146L72.4925 41.245L70.308 40.8996L68.9786 41.5408L67.3718 40.8996L65.9662 40.8503L65.4401 41.7146L65.1133 42.3313L64.6612 43.4422L64.2854 45.0462L64.5612 47.6129L64.7129 49.5137L64.6111 50.6235L65.0883 52.45L64.5862 53.9304L63.8083 55.881L63.3057 56.1281L62.5779 55.8066L61.8001 56.2265L60.9716 56.5474L60.4695 57.2876L60.5446 58.4225L60.7964 58.838ZM83.5514 44.2327L82.9521 43.7133L81.4065 43.3793L81.3353 42.8228L82.3922 42.526L83.0572 43.0448L83.656 43.1563L83.9718 43.1929L84.9576 44.4175L83.5514 44.2327Z" fill="white"/>
<path d="M70.69 47.1165V46.819H70.1356L70.0862 46.9174L70.69 47.1165ZM67.8727 46.819C67.7221 46.671 67.5219 46.819 67.27 46.7693C67.27 46.8191 67.2199 46.9678 67.3701 47.0657C67.5719 46.9175 67.821 46.8191 67.8727 46.8191V46.819ZM71.3427 43.9998C71.3427 43.9998 71.4428 43.9998 71.3427 43.95L70.1857 43.8511C70.035 43.95 69.8338 43.95 69.7837 44.0993L69.6831 44.1485C69.7837 44.5448 69.7837 44.9893 69.7837 45.4338C69.985 45.4835 70.2357 45.6322 70.2357 45.9291C70.4376 46.0281 70.69 46.0767 70.8395 46.2254C70.9402 46.1762 71.0409 46.0281 71.0909 45.8798C70.8395 45.6322 70.3865 45.7809 70.3865 45.336L70.0862 45.1877C70.0862 44.8893 70.0862 44.5935 69.985 44.3956L70.0862 44.2967C70.0862 44.3956 70.1356 44.4448 70.2357 44.5448C70.4376 44.5448 70.69 44.5935 70.8395 44.4448C70.9402 44.3956 70.9402 44.1485 71.0909 44.1485C71.1415 44.1485 71.2921 44.1485 71.3427 43.9998V43.9998ZM68.2752 44.0993C68.2752 43.9998 68.1746 43.9008 68.0234 43.8511H66.7663C66.7663 43.9998 66.9176 44.1486 67.0681 44.1486C67.0681 44.2967 67.2199 44.3956 67.32 44.4448C67.4201 44.5448 67.5219 44.5448 67.672 44.4448C67.821 44.5448 67.8727 44.2967 67.9233 44.4448C67.9233 44.7417 67.9233 44.8893 67.8727 45.1374C67.821 45.4835 67.4707 45.4338 67.27 45.6322C67.2199 45.7301 67.0681 46.0281 67.2199 46.1761C67.3701 46.0767 67.5219 46.0281 67.7221 45.9291C67.7221 45.7809 67.9233 45.6322 68.1235 45.4836C68.1235 45.0386 68.2752 44.5935 68.2752 44.0993V44.0993ZM68.7278 42.9124C68.5777 42.8124 68.2752 42.9611 68.1235 43.0606C67.9233 43.1098 67.7221 43.2574 67.7221 43.4067H68.3253C68.4254 43.2574 68.5777 43.0606 68.7279 42.9124H68.7278ZM70.4876 43.4067C70.4876 43.2574 70.4376 43.2574 70.3864 43.2093C70.1356 43.2093 70.1356 42.8124 69.9349 42.9124C69.7837 42.9124 69.6831 42.8124 69.5835 42.9124C69.5324 42.9611 69.5835 42.9611 69.6336 42.9611C69.9349 42.9611 69.7837 43.357 69.985 43.4066L70.4876 43.4067ZM72.2473 43.1098C72.3491 42.8124 72.3997 42.368 72.1973 42.0716C72.0466 41.9235 71.7948 41.7748 71.5434 41.6261L71.1415 41.7748C70.9402 41.9235 70.8395 42.0717 70.8395 42.368C71.192 42.5167 71.5946 42.9124 71.7448 43.2574H71.8954C72.0467 43.1098 72.1973 43.2574 72.2473 43.1098V43.1098ZM67.5719 42.368C67.5219 41.8732 66.9175 41.7748 66.6167 41.6261H66.4655C66.0129 41.7251 65.9117 42.1695 65.8617 42.5166C66.0129 42.9611 66.3142 42.6643 66.565 42.9611C66.7663 42.8124 67.32 42.4669 67.5719 42.368ZM61.3868 57.5019C61.3363 57.5019 61.1851 57.3532 61.0354 57.3532C60.8831 57.6495 61.0354 57.8977 61.0354 58.2426C61.0354 58.3427 60.9849 58.5417 60.9849 58.5417C60.8831 58.5417 60.6823 58.2924 60.5823 58.1448V57.3046L61.0844 56.7103C61.3869 56.9076 61.487 57.205 61.3869 57.5019H61.3868ZM62.7946 56.9077C62.7946 57.1542 62.7446 57.3532 62.5934 57.5019C62.5433 57.3046 62.3927 57.0564 62.1408 57.0564C61.9401 57.4511 61.889 57.5992 62.0902 58.2426C61.9401 58.3427 61.7883 58.393 61.6371 58.5417C61.5375 58.2924 61.4869 57.9463 61.4869 57.749C61.4869 57.403 61.5865 57.0564 61.6871 56.7595C61.7883 56.5632 61.9401 56.3151 62.0902 56.1653L62.644 56.1172C62.4427 56.1653 62.4427 56.4145 62.4427 56.5632C62.5433 56.6113 62.7946 56.66 62.7946 56.9076V56.9077ZM64.6045 57.2051C64.6045 57.6495 63.9506 58.2426 63.9506 58.2426C63.9506 57.9463 64.0518 57.6495 64.1019 57.3532C64.1019 57.3532 63.9006 57.1542 63.6493 57.1542C63.4985 57.205 63.4985 57.3532 63.4485 57.5019C63.2973 57.7988 62.9954 58.0934 62.8959 58.393C62.8463 58.393 62.8463 58.3427 62.8463 58.3427C62.8463 57.8977 62.8959 56.9568 63.2472 56.6113C63.5498 56.3151 63.6992 56.315 64.0012 56.2647L64.3037 56.3151L64.1018 56.6113C64.3036 56.7103 64.6045 56.9076 64.6045 57.205V57.2051ZM73.103 57.3532L72.9528 57.5019C72.8016 57.3532 72.9011 56.9077 72.6504 56.8579C72.3997 56.8579 72.1972 56.6113 72.0972 56.5632L72.2473 56.4632C72.2473 56.4632 72.3997 56.4145 72.4992 56.4632C72.6004 56.5632 72.7004 56.6113 72.7004 56.7595C72.8016 56.8579 72.9528 56.7595 73.0524 56.8579C73.103 57.0066 73.153 57.205 73.103 57.3532ZM74.9138 56.6113C74.8627 56.7595 74.8127 57.0066 74.7621 57.205C74.612 56.9076 74.5108 56.4632 74.1588 56.4632C74.1088 56.2647 74.0587 56.1171 73.8569 56.0171L73.4049 55.9679C73.4549 56.1171 73.7568 56.1653 73.6067 56.4632C73.7568 56.6113 73.9575 56.6113 74.0588 56.8579C74.1588 57.0066 74.0587 57.205 74.1088 57.3532L73.7568 57.5019C73.7568 57.205 73.8569 56.7595 73.4549 56.6113C73.153 56.7103 73.103 56.3151 72.9011 56.1653C72.8016 56.1172 72.8016 55.8689 72.6504 56.0171C72.3997 56.1653 72.0465 56.0171 71.7947 56.1653L72.0465 55.7208C72.2473 55.5726 72.4992 55.671 72.7004 55.5726L73.103 55.5229C73.5561 55.5229 73.9076 55.7208 74.3106 55.8689C74.5108 56.0171 74.612 56.1653 74.612 56.4145C74.7621 56.4632 74.9645 56.4632 74.9138 56.6113V56.6113ZM83.0576 56.5632C82.957 56.7103 82.9109 56.7595 82.8587 56.8579C82.8587 56.6113 82.5561 56.4632 82.3571 56.0171L82.5562 55.671C82.7591 55.7208 82.9109 55.8689 82.9109 56.1171C82.9109 56.1652 82.8587 56.3151 82.9109 56.4146C82.9109 56.4632 83.0576 56.4632 83.0576 56.5632V56.5632ZM66.0628 56.7103L65.9116 57.205L65.5603 56.3151C65.1076 55.8689 64.6556 55.8197 64.3531 55.671C64.2024 55.5726 64.2024 55.7208 64.0518 55.671C64.0518 55.5229 64.1018 55.3748 64.2531 55.2266H64.5544L64.8558 55.3748C65.0571 55.5229 65.409 55.5229 65.409 55.8197C65.409 55.9192 65.3595 55.9679 65.4602 56.1172L66.0128 56.3151L66.0628 56.7103ZM81.4503 56.1653C81.4503 56.2156 81.3502 56.3151 81.3502 56.3151C81.1 56.1653 80.8987 56.0679 80.5957 56.0679C80.5957 55.9192 80.4956 55.671 80.395 55.671C80.043 55.671 80.0925 55.8198 79.8423 55.8198L80.2955 55.3748C80.3438 55.2763 80.395 55.2763 80.4957 55.2763C80.6457 55.3748 80.6958 55.4245 80.8476 55.4245C80.8476 55.5229 80.8476 55.5726 80.7987 55.7208C80.8988 55.8197 81.0488 55.7208 81.1489 55.8197C81.3002 55.8689 81.4503 55.9679 81.4503 56.1653H81.4503ZM75.5166 56.4632H75.4671C75.3659 56.3151 75.317 56.1653 75.2153 56.1653C75.3659 55.5726 75.0646 55.1271 74.9645 54.6323L74.9138 54.4853C75.1135 54.7319 75.5166 54.9789 75.4671 55.2763C75.5166 55.7208 75.5678 56.1171 75.5166 56.4632ZM66.8674 55.9679L66.5154 56.315C66.4159 56.1653 66.5154 55.8689 66.3141 55.7208C66.3141 55.671 66.4654 55.5726 66.4159 55.5229C66.3141 55.4245 65.7114 55.2266 65.7114 55.2266C65.4601 55.0779 65.2583 54.9291 65.0571 54.6827C64.8063 54.6323 64.6556 54.7821 64.4031 54.8308C64.3532 54.7821 64.3532 54.6827 64.3532 54.6827C64.5049 54.5334 64.5049 54.2381 64.8062 54.2381C64.957 54.2381 65.1582 54.2381 65.3084 54.3853C65.5102 54.3853 65.6114 54.5842 65.7604 54.6323C66.0128 54.9292 66.2141 54.9789 66.4159 55.1271C66.3642 55.2763 66.4654 55.3748 66.5649 55.4245C66.8674 55.4245 66.7662 55.7208 66.8674 55.9679H66.8674ZM83.4124 55.1769C83.4124 55.4742 83.4124 55.5726 83.2617 55.8197L82.9109 55.3748C83.0576 55.2266 83.0576 54.9789 83.2112 54.7821C83.2617 54.7821 83.4124 55.1271 83.4124 55.1768V55.1769ZM74.4613 55.5229C74.2099 55.3748 73.9075 55.3748 73.7569 55.1271C73.6067 55.0779 73.4049 55.0779 73.153 55.0779C72.9528 55.1271 72.7004 55.1271 72.4992 55.1271C72.4491 55.1271 72.4992 55.0779 72.3997 54.9789C72.0971 55.1271 71.7447 55.1271 71.4427 55.4245L71.6946 54.8308C71.8953 54.8308 72.0465 54.6827 72.1972 54.6827C72.349 54.6323 72.5497 54.6323 72.7004 54.6323V54.6827C73.3048 54.6827 73.9575 54.6323 74.4107 55.1271L74.4613 55.5229ZM82.0051 55.0779C82.0051 55.2763 81.9551 55.3244 81.9051 55.5726C81.5009 55.5229 81.5531 55.1272 81.4503 55.0779C81.249 54.7821 80.8476 54.9789 80.5456 54.9789C80.4956 54.6827 80.6457 54.6827 80.6457 54.5334C80.7987 54.5334 80.9487 54.3853 81.1 54.4853C81.3502 54.3853 81.5008 54.6323 81.7533 54.6323C81.8533 54.7821 81.9551 54.9789 82.0051 55.0779V55.0779ZM67.1187 54.3366C67.1187 54.4853 67.0681 55.1271 67.0681 55.1271C66.9674 54.7319 66.7162 54.3853 66.4159 54.3853C66.2141 54.2381 66.0629 54.0889 66.0128 53.9407C65.8615 53.7926 65.7114 53.891 65.5102 53.7926C65.3084 53.7926 65.0571 53.7926 64.8063 53.891V53.7926L65.1582 53.3465C65.5603 53.4455 66.0128 53.3465 66.1641 53.6434C66.3642 53.7926 66.6167 53.891 66.7162 54.0381V54.1879C66.8174 54.2382 67.0186 54.2874 67.1187 54.3366V54.3366ZM69.3316 54.2382C69.1298 54.3853 68.9285 54.3853 68.7278 54.3366L68.4253 53.891C68.626 53.9407 68.9285 53.9407 69.1809 53.891L69.3316 54.2382ZM78.1337 54.4853C78.1337 54.7319 77.7795 55.0779 77.6811 55.2763C77.7795 54.9789 77.8307 54.4853 77.6811 54.4853C77.5794 54.435 77.3764 54.5334 77.3764 54.3853C77.3764 54.2381 77.4276 54.0381 77.4276 53.891C77.4276 53.7434 77.2769 53.6434 77.2769 53.4963C77.2769 53.1984 77.6288 53.1492 77.73 52.9512C77.8307 53.1492 77.7795 53.3963 77.7795 53.5941C77.8307 53.7434 77.9302 54.0381 77.8307 54.2874C77.8307 54.435 78.1337 54.3366 78.1337 54.4853V54.4853ZM74.3106 54.4853C74.0588 54.4853 73.8569 54.4853 73.7068 54.2381C73.6556 54.2381 73.5561 54.0889 73.4549 54.1878C73.2542 54.3853 72.9528 54.0381 72.6504 54.0889C72.4992 54.2381 72.2973 54.3366 72.0972 54.3853L72.0465 54.3366C72.0465 54.1878 72.1972 54.0381 72.3491 53.8911C72.7004 54.0381 72.9528 53.3465 73.3048 53.7434C73.4049 53.7926 73.6067 53.7926 73.7068 53.7926C74.0588 53.891 74.1588 54.2381 74.3106 54.4852L74.3106 54.4853ZM70.7394 54.1879H70.6899C70.5882 54.1879 70.2357 54.0381 70.1356 53.891C70.0861 53.7926 70.0861 53.6434 70.0861 53.6434C70.2357 53.6434 70.3374 53.5941 70.4876 53.5941L70.7394 54.1879ZM82.1553 54.4853C81.8028 54.4853 82.0051 53.7927 81.249 53.7927C81.0488 53.7927 80.9487 54.0381 80.7475 54.0889C80.7475 54.0381 80.7987 53.7434 80.7987 53.7434C80.7987 53.5941 80.8476 53.4455 81.0488 53.2979C81.4503 53.2979 81.3502 53.4455 81.6521 53.5444C81.8533 53.5941 81.9551 53.7435 82.1553 53.7435V54.4853ZM76.8743 53.9407C76.8743 54.2382 76.7242 54.5334 76.6725 54.8308C76.6725 54.4852 76.5735 54.2381 76.3717 54.0381C76.3717 53.9407 76.5224 53.891 76.4223 53.7926C76.4223 53.7926 76.1204 53.6434 76.1204 53.4455C76.1204 53.1983 76.3217 53.0491 76.4223 52.9004C76.4223 52.8523 76.6225 53.0016 76.6225 53.2979C76.6225 53.3963 76.6225 53.4963 76.5736 53.6434C76.5224 53.7926 76.8743 53.7926 76.8743 53.9407V53.9407ZM79.3391 52.9512C79.3391 53.1492 79.2379 53.2979 79.2896 53.4963C79.1378 53.1984 78.9849 52.9004 78.8359 52.6052C78.7853 52.6052 78.7364 52.6052 78.7364 52.556L78.8843 52.4571C78.9849 52.4571 79.1378 52.4571 79.1378 52.556C79.2379 52.6555 79.3391 52.8026 79.3391 52.9512ZM82.4067 53.3465C82.2537 53.2979 81.9051 53.247 81.9051 53.1C81.9051 52.9004 81.8028 52.8523 81.5531 52.8523C81.3001 52.8523 81.1489 52.9004 80.8476 53.0016C80.8476 53.0016 80.6958 52.8025 80.6457 52.6052C80.7475 52.556 81.1489 52.4062 81.3502 52.4062C81.7043 52.4062 82.1041 52.4062 82.1041 52.6052C82.1041 52.7534 82.4067 52.8524 82.4067 53.3465ZM69.2298 52.3089C69.1809 52.6052 69.0296 52.7036 68.7778 53.0491C68.5776 53.1492 68.2752 53.1984 67.9733 53.3465C68.0233 53.1984 68.1745 53.1492 68.2752 53.0016C68.4253 52.8523 68.5777 52.6052 68.626 52.4063C68.8796 52.3089 69.0297 52.3089 69.2298 52.3089V52.3089ZM78.5857 53.0016C78.5857 53.2979 78.534 53.6942 78.534 54.0381C78.3839 54.0381 78.3839 53.891 78.3839 53.7434C78.2838 53.4455 78.2332 53.1492 78.1337 52.8523C77.9813 52.4063 77.73 52.0618 77.5293 51.6151C77.4788 51.3686 77.2257 51.2691 77.0261 51.121C77.2769 51.121 77.5293 51.1702 77.73 51.3194C77.73 51.4676 77.7795 51.5173 77.9302 51.666C78.2838 51.666 78.2332 52.1099 78.534 52.3582C78.534 52.4063 78.4351 52.4062 78.3839 52.5073C78.2838 52.5073 78.2332 52.7036 78.2332 52.7036C78.3839 52.8026 78.534 52.8524 78.5857 53.0016ZM68.2752 51.8634C68.1234 52.1608 67.9733 52.4571 67.672 52.6052C67.4706 52.6052 67.2199 52.7036 66.9174 52.6052C67.0681 52.4571 67.2199 52.4062 67.4201 52.3089L67.8727 51.8634H68.2752ZM71.2921 52.6052C71.1414 52.7036 70.8395 52.7534 70.6899 52.7534C70.2862 52.556 70.2862 52.1608 69.9348 52.0121C69.8837 51.9617 69.8337 51.8633 69.8337 51.8142L70.6899 51.9617C70.6387 52.1099 70.7394 52.1608 70.8395 52.1608C70.9907 52.3089 71.1414 52.4571 71.2921 52.6052V52.6052ZM77.2257 52.6052C77.1768 52.7036 77.0751 52.7534 77.0261 52.7534C77.0261 52.7534 76.7737 52.5073 76.7242 52.3089C76.6725 52.0618 76.8243 51.7152 76.8243 51.7152C76.8743 51.7152 76.9244 51.8142 77.0261 51.8142C77.0751 51.8634 77.0261 52.0121 77.0751 52.1608C77.1768 52.3089 77.3275 52.4571 77.2257 52.6052ZM66.8674 51.7152L66.6167 52.4571C66.3642 52.7036 66.0128 52.6052 65.7114 52.6052C66.1641 52.4571 66.4654 52.0121 66.6167 51.7152C66.7162 51.666 66.7662 51.7152 66.8674 51.7152V51.7152ZM73.103 52.3089H72.9528C72.349 52.4571 71.8953 52.1099 71.4427 51.8142C71.7447 51.7152 71.9965 51.7152 72.1972 51.666H72.349L72.5497 51.9617C72.7004 52.0121 72.9528 52.1608 73.103 52.3089ZM82.8587 52.2591C82.5089 52.2591 82.1553 52.1099 82.1041 51.9617C82.0051 51.8633 82.0552 51.666 81.8533 51.666C81.7043 51.666 81.6026 51.8142 81.6026 51.8142C81.4503 51.8634 81.1489 51.666 81.1489 51.8142C81.1489 52.0618 80.8987 52.1608 80.6958 52.1608C80.5456 52.1608 80.4956 52.1608 80.3438 52.1099V51.6151C81.0488 51.6151 80.9983 51.3686 81.3001 51.3686C81.5008 51.3686 81.6521 51.5174 81.8533 51.5174C82.1041 51.5174 81.9551 51.419 82.2059 51.419C82.4589 51.419 82.5562 51.6151 82.7591 51.666C82.7591 51.8142 82.8587 52.0121 82.8587 52.2591ZM66.1641 51.0718C66.1641 51.2691 66.0128 51.5665 65.7604 51.8142C65.7115 51.8634 65.5602 51.9617 65.5602 51.9617C65.5602 51.666 65.7114 51.3686 65.7114 51.121C65.8616 51.0718 66.0128 50.9722 66.1641 51.0718ZM74.0092 51.7152C73.7568 51.7152 73.4049 51.7152 73.2047 51.5664C72.9011 51.3686 72.8016 51.2691 72.6504 51.121C72.8528 50.9722 73.103 50.9722 73.2542 50.9236C73.4049 51.121 73.6557 51.5173 74.0092 51.7152ZM76.5224 51.4676C76.5224 51.6151 76.4223 51.666 76.3217 51.7644C76.3217 51.7644 76.1204 51.5173 76.1204 51.3686C76.1204 51.2199 76.1204 51.0718 76.1705 50.9236C76.3217 51.0718 76.5224 51.2691 76.5224 51.4675V51.4676ZM78.8359 51.5665C78.3839 51.269 78.0826 50.8241 77.6811 50.3802C78.0826 50.3802 78.2332 50.7744 78.534 50.8242C78.6358 50.9236 78.7364 50.9722 78.8359 51.1209V51.5665ZM69.4817 50.3299C69.4817 50.677 69.4311 51.121 69.0808 51.2691L68.9285 50.7744C69.1298 50.6771 69.2815 50.5283 69.4817 50.3299ZM68.3759 51.121C68.0739 50.8241 67.821 50.5283 67.821 50.232C67.9733 50.232 68.1234 50.232 68.2752 50.3802C68.2752 50.6273 68.4253 50.8242 68.3759 51.1209V51.121ZM82.7591 51.0718C82.306 50.8739 81.652 50.6771 81.3001 50.6771C81.0999 50.6771 80.4956 50.9236 80.2448 51.1702L80.1447 50.6771C80.4956 50.6273 80.4956 50.3802 80.6958 50.3802C80.8476 50.3802 81.0488 50.3299 81.2012 50.3299C81.3502 50.3299 81.4503 50.1818 81.5531 50.1818C81.7533 50.1818 81.6521 50.4781 81.8534 50.4781C82.0051 50.4781 82.0552 50.3802 82.2059 50.3802C82.4589 50.3802 82.7085 50.7744 82.7591 51.0718V51.0718ZM70.6387 51.121C70.3863 50.9722 69.9348 50.9236 69.9849 50.6273C70.1356 50.3802 70.2862 50.3299 70.3863 50.1818C70.4375 50.5283 70.4876 50.8241 70.6387 51.121V51.121ZM75.2658 50.8241L75.0145 50.9236C74.4613 50.9236 74.1588 50.7744 73.9075 50.5283C74.1088 50.5283 74.4107 50.3299 74.4107 50.3299C74.6626 50.5283 75.0145 50.7744 75.2658 50.8241V50.8241ZM65.4602 50.3299C65.2583 50.5283 65.0064 50.677 64.8558 50.9722C64.8558 50.8241 64.8063 50.677 64.7557 50.5283C64.8063 50.3802 64.957 50.232 65.0571 50.1818C65.1582 50.2321 65.3084 50.2321 65.4602 50.3299V50.3299ZM71.8954 50.9236C71.6946 50.9722 71.3426 51.0718 71.192 50.8241C70.8895 50.3802 71.0908 49.9341 71.242 49.5897C71.3426 49.8854 71.3933 50.1818 71.4427 50.4781C71.4939 50.6771 71.7947 50.7744 71.8954 50.9236V50.9236ZM75.8685 50.0828C75.6673 50.1818 75.2658 50.232 74.9645 50.0331L75.3659 49.7865C75.5166 49.9341 75.7184 50.0331 75.8685 50.0828V50.0828ZM81.5531 49.934C81.249 49.934 81.1489 49.8854 80.8987 49.8854C80.6958 49.8854 80.395 50.0331 80.1937 50.232C80.0925 50.0828 80.1448 49.9341 80.1937 49.7866C80.3438 49.6372 80.5957 49.4405 80.8476 49.4405C81.2012 49.4405 81.5531 49.7368 81.5531 49.934V49.934ZM66.7162 50.4781C66.3642 50.3802 66.0128 50.0828 65.8616 49.7865C65.7604 49.5897 65.7114 49.341 65.7114 49.1425C65.9116 49.1923 66.0629 49.341 66.1641 49.4405V49.4886C66.3642 49.7865 66.6661 50.0828 66.7162 50.4781ZM67.37 49.6372L67.2699 50.3299C67.0681 50.0331 66.9174 49.7368 66.8674 49.341L67.37 49.6372ZM72.5497 50.232C72.2473 50.3299 72.0465 50.0828 71.8453 49.9341C71.6946 49.6372 71.6946 49.341 71.5945 49.1425C71.8453 49.341 72.2473 49.341 72.1972 49.7865C72.1972 49.9341 72.3997 50.0828 72.5497 50.232V50.232ZM73.7569 49.6372C73.4549 49.6372 73.103 49.7865 72.9528 49.4885C73.0524 49.4404 73.153 49.2923 73.3048 49.1923L73.7569 49.6372ZM81.6027 49.1425C81.2489 49.0447 80.9983 48.9451 80.6958 48.9451C80.5456 48.9451 80.0925 49.0447 80.043 49.1425C79.8907 48.9943 80.1447 48.551 80.3438 48.4515C80.5456 48.3526 80.6958 48.4023 80.7987 48.4515C80.7987 48.7484 81.1489 48.6002 81.3502 48.6981C81.4503 48.8457 81.5531 48.9943 81.6026 49.1425H81.6027ZM74.7131 48.8959C74.612 49.0447 74.4613 48.8959 74.3602 48.8959H73.9075C73.8569 48.7484 73.8069 48.6981 73.7568 48.6002C74.0092 48.551 74.1588 48.4514 74.3106 48.551C74.4613 48.6981 74.5108 48.8959 74.7131 48.8959ZM70.3863 48.1054C70.3374 48.4023 70.2357 48.8959 69.9348 49.0447C69.9348 48.8959 69.7836 48.7484 69.683 48.6002C69.6335 48.6002 69.683 48.7484 69.6335 48.7484C69.6335 48.8959 69.5835 49.0447 69.5835 49.2923C69.4311 49.341 69.2298 49.4405 69.0297 49.341V49.1922C68.9285 49.0447 68.9285 48.8959 68.9285 48.7484L68.8796 48.6981C68.7778 48.7484 68.7778 48.8959 68.7778 48.9943C68.7278 49.0447 68.5776 49.1923 68.5776 49.341C68.4253 49.341 68.2752 49.2923 68.1234 49.1922V48.6981C68.1234 48.6002 68.1234 48.6002 68.0739 48.6002L67.821 48.8959C67.6224 48.6981 67.5719 48.3028 67.5719 48.0054C68.4253 47.5609 69.4311 47.7091 70.0861 47.9579C70.1856 48.0054 70.2863 48.0054 70.3864 48.1054H70.3863ZM74.3106 47.7091C74.0092 47.7091 73.8569 47.5609 73.7068 47.2641C73.7068 47.1165 73.6556 46.9175 73.7068 46.671C73.7568 46.8191 73.8069 46.9678 73.9075 47.0657C74.1088 46.9678 74.1088 47.2138 74.1588 47.2641C74.21 47.4128 74.3106 47.5609 74.3106 47.7091V47.7091ZM73.2047 45.285C73.2047 45.336 73.103 45.7301 73.103 45.7301L72.7004 45.8798L72.9528 44.7417C73.0524 44.939 73.2047 45.1375 73.2047 45.285ZM65.2089 44.4448L65.0065 44.7417C65.0571 45.285 64.8063 45.6322 64.8063 46.0767L64.5545 45.285C64.6045 45.0386 64.6557 44.8406 64.8064 44.5935L65.2089 44.4448ZM73.103 47.5609C72.4992 47.2138 71.7948 46.9678 71.0409 46.9175C71.0409 47.0657 71.0409 47.2138 70.9908 47.2641C71.5946 47.5609 72.1973 47.8572 72.7005 48.3028V48.7484C72.1973 48.2536 71.5946 47.7091 70.8896 47.5609C70.8395 47.6599 70.69 47.8081 70.5882 47.9579C70.2357 47.7091 69.8338 47.5117 69.3823 47.4128C69.2299 47.4128 69.181 47.2137 69.181 47.0657L69.1298 46.8191C69.3823 46.7693 69.5836 46.5714 69.6336 46.3249C69.6831 46.3741 69.7837 46.3741 69.8838 46.3741C69.985 46.3249 69.985 46.2253 69.985 46.0767C69.985 45.7809 69.3317 45.7809 69.0298 45.7809C68.6778 45.7809 68.4254 45.7301 68.1746 45.9291C68.074 45.9291 68.1234 46.0767 68.1234 46.1762C68.1234 46.2254 68.2752 46.3249 68.2752 46.3249C68.4254 46.3249 68.4765 46.2254 68.5778 46.2254C68.526 46.5222 68.6779 46.7196 68.9286 46.8191L68.8796 47.2641C68.7278 47.4128 68.4765 47.3133 68.2753 47.4128C67.9734 47.5609 67.672 47.7091 67.3701 47.8572C67.2199 47.7091 67.1187 47.5609 67.0186 47.4128C66.5155 47.5609 66.2141 47.8572 65.7115 48.1546C65.5603 48.2536 65.3084 48.4515 65.3084 48.4515C65.2584 48.4023 65.3084 48.2536 65.3084 48.1054C65.7604 47.6599 66.3643 47.5117 66.8674 47.2137V46.8191C66.6662 46.7693 66.4655 46.8191 66.2142 46.8191C65.7604 46.9175 65.3084 47.1165 64.9571 47.3625C64.9571 47.2137 64.8558 47.0657 65.0065 46.9678C65.5603 46.671 66.2142 46.473 66.9175 46.5223V46.3249C66.8674 46.2254 66.8674 46.0767 66.7662 46.0767C66.4655 45.7301 66.1641 45.336 66.1641 44.9893L66.3142 44.8893C66.2141 44.5935 66.1641 43.8511 66.3142 43.5056C66.0129 43.4067 65.7115 43.1098 65.6114 42.9124C65.5103 42.6643 65.4091 42.5166 65.3596 42.2198C65.4602 41.9235 65.6114 41.7748 65.7604 41.4779C65.8617 41.4779 66.0129 41.4288 66.063 41.3292C66.3142 41.28 66.5155 41.0324 66.8175 41.1811C67.0187 41.1811 67.2199 41.28 67.3701 41.3293C67.3701 41.4288 67.3701 41.478 67.5219 41.5769C67.821 41.6261 67.821 41.9235 67.9734 42.1695C68.1235 42.2198 68.2752 42.2198 68.4254 42.2198C68.7279 42.3182 68.9286 42.3182 69.0809 42.467C69.4818 42.2198 69.9349 42.1695 70.3864 42.2198C70.4376 42.0219 70.5387 41.8732 70.5882 41.6261C70.69 41.7251 70.6388 41.5769 70.7395 41.5769C70.9908 41.4288 71.2421 41.181 71.5946 41.28C71.8454 41.4288 72.1973 41.3293 72.3491 41.6261C72.5498 41.7748 72.6505 42.0716 72.8017 42.368C72.6504 42.6643 72.8017 43.1098 72.4992 43.2574L72.1973 43.5553C72.0972 43.5553 72.0466 43.6532 71.8954 43.6532C72.0467 43.9998 71.946 44.5449 71.7948 44.8893C71.8954 44.8406 72.0466 44.8406 72.0973 44.6925C72.1473 44.7417 72.0973 44.8406 72.0973 44.8893C72.0466 44.9893 72.0466 45.0386 72.0466 45.0386C72.0973 45.336 71.8953 45.5819 71.6947 45.7809C71.5946 46.0767 71.3427 46.473 70.9908 46.5222V46.671C71.7448 46.671 72.3997 46.8191 73.103 47.2138V47.5609ZM84.4166 44.2967C84.2653 44.1485 84.1153 43.9998 83.914 43.9998C83.7644 43.8019 83.5648 43.5553 83.3602 43.5553C83.5126 43.5056 83.7133 43.4066 83.9646 43.4066C84.1153 43.6532 84.2654 43.8511 84.3166 43.9998L84.4166 44.2967ZM65.1077 43.7035L64.7557 43.8511L64.8064 43.5553C64.9065 43.4066 64.9571 43.2574 65.1077 43.1099V43.7035ZM82.8097 43.2093C82.6085 43.2093 82.459 43.2574 82.2538 43.2093C82.1554 43.1098 82.0052 43.2093 81.9051 43.2574C81.8028 43.2574 81.7044 43.2093 81.5532 43.1098C81.8535 43.1098 82.0052 42.9124 82.2538 42.8124C82.459 42.9611 82.6574 43.0606 82.8097 43.2093V43.2093ZM71.6947 57.5019C71.6947 57.3046 71.5434 57.205 71.3427 57.205C71.1921 57.205 70.9908 57.403 70.9908 57.5019C70.9908 57.7004 70.8395 58.8369 70.8395 58.8369H71.2422C71.3934 58.3427 71.6947 57.749 71.6947 57.5019ZM70.5387 57.4511H70.4876L70.0862 57.0564H70.035C69.9349 57.1542 69.8837 57.3046 69.7837 57.4511C69.7837 57.8977 69.9349 58.3931 70.035 58.8369H70.4876C70.4876 58.3427 70.5388 57.8977 70.5388 57.4511H70.5387ZM78.6359 56.8579L78.1338 56.9076C78.2839 57.0564 78.2839 57.2542 78.2839 57.3532C78.2839 57.5019 78.2333 57.6495 78.1338 57.7491C77.9814 57.6495 77.9814 57.5019 77.8802 57.3532C77.7796 57.3532 77.7301 57.5992 77.7301 57.7004C77.7301 58.1945 77.9303 58.5417 78.0826 58.837H78.5858C78.5341 58.393 78.4351 58.0453 78.4351 57.5992C78.4351 57.3532 78.5858 57.0564 78.6359 56.8579V56.8579ZM90 52.1099C90 50.0331 89.2967 47.808 87.3846 45.9291C87.0799 45.6322 86.6818 45.285 86.2775 45.0386C85.5231 44.5448 84.8214 43.8511 84.4166 43.1098C84.1653 42.8124 83.9646 42.6643 83.6616 42.5166C83.7133 42.6643 83.8123 42.8124 83.8628 42.9611H83.8123C83.5126 42.9611 83.2618 42.8124 83.0577 42.6643L83.2618 42.4669C83.2112 42.368 83.0577 42.368 82.9571 42.368C82.0553 42.2198 81.3002 42.6643 80.4957 42.8124V42.9124C80.9983 43.1098 81.1 43.7035 81.3998 43.9998H81.7044C81.8534 43.9998 82.0052 44.1486 82.1042 44.0993C82.1042 43.9998 82.0052 43.8511 82.0052 43.8019C82.1042 43.7035 82.2059 43.7035 82.306 43.8019C82.5563 43.95 82.9571 43.7035 83.1578 44.0994C82.8587 44.0994 82.5563 44.1485 82.306 44.2469C82.306 44.2967 82.459 44.4448 82.4067 44.5448C82.1553 44.4448 81.8535 44.5448 81.7045 44.2967L81.6522 44.3956C82.0052 44.7417 82.459 45.0386 82.911 45.1877C83.6131 45.336 84.2165 44.9893 84.8709 45.1374C85.6259 45.4835 86.2281 45.929 86.7313 46.4238C88.391 48.1546 88.9958 49.9833 88.9958 51.6151C88.9958 53.6434 88.391 55.0779 87.4864 55.9679C86.9315 56.5135 86.2281 57.0066 85.3729 57.0066C85.1727 57.0066 84.7691 56.9568 84.5184 56.7595C84.6685 56.1653 84.7691 55.5229 84.7691 54.5842C84.7691 54.0381 84.7691 52.6052 84.0663 50.9236C83.914 50.5775 83.3602 49.4886 82.6575 48.7484C82.1042 48.2038 81.4503 47.7091 80.7987 47.7091C80.4957 47.7091 80.1938 47.7589 79.9413 47.9579C79.6912 48.2038 79.5399 48.6002 79.5911 48.8959C79.1379 49.1425 78.4835 49.341 77.9303 49.341C77.277 49.341 76.5736 48.9943 75.9687 48.6002V47.8573C75.6168 47.7091 75.5167 47.5609 75.4672 47.2641L75.5167 47.2138C75.6673 47.2641 75.7696 47.3625 75.8686 47.4128C75.8186 47.0657 75.7696 46.671 75.5678 46.3741C75.4166 46.3741 75.2659 46.3249 75.1136 46.2253C74.9139 46.0767 74.8128 45.8798 74.8128 45.6322C74.9646 45.8798 75.2153 45.781 75.3659 45.9291C75.1136 45.336 75.2153 45.0386 74.7622 44.0993C74.6121 43.6532 74.1589 43.4067 73.857 43.1098C73.7068 42.9611 73.6557 42.8124 73.405 42.8124C73.2543 42.7627 73.2543 42.5166 73.2048 42.368C73.3049 42.368 73.405 42.4669 73.5056 42.5167C73.2542 41.7748 73.0029 41.0324 72.2974 40.5874L72.1973 40.6869C71.8954 40.735 71.5946 40.735 71.3427 40.735C71.4428 40.5874 71.6441 40.5381 71.8454 40.4397C71.6441 40.2911 71.4939 40.2414 71.1921 40.2414C71.0909 40.2911 70.8395 40.4397 70.6388 40.4397H70.5882C70.5882 40.2911 70.5387 40.0921 70.8396 39.9943C70.5387 39.9439 70.2863 39.9439 69.935 39.9943C69.8838 40.2414 69.6831 40.3901 69.6831 40.5874C69.5324 40.735 69.4818 40.8837 69.3316 41.0324C69.3316 40.6869 69.4818 40.3901 69.5324 40.0921C69.3316 40.1419 69.0809 40.2911 68.9286 40.2911C68.526 40.0921 68.0234 39.8455 67.821 39.8455C68.1235 40.0921 67.9734 40.4397 68.0234 40.735L67.821 40.5874C67.7221 40.3901 67.5219 40.2413 67.4201 39.9943C67.1188 39.9943 66.9175 40.0921 66.6662 40.2414L66.6167 40.2911C66.8175 40.2911 67.0186 40.4398 67.1187 40.5874C66.7663 40.5874 66.5155 40.4398 66.1641 40.4398C66.1641 40.4398 66.1641 40.3901 66.0629 40.3901C65.9116 40.4398 65.7604 40.5874 65.6598 40.6869C65.3084 40.9826 65.0571 41.28 64.8558 41.7251C64.957 41.7251 65.1077 41.7251 65.1584 41.7748C65.0065 41.8732 64.8558 42.0717 64.6556 42.1695V42.9124C64.505 43.1098 64.3037 43.2574 64.2026 43.5056C63.9507 44.3956 63.9006 45.336 63.9006 46.3741C63.8 46.5222 63.6993 46.5714 63.6004 46.6217V47.5117C63.6004 47.5117 63.9507 47.1651 64.1019 47.0657C64.1019 47.2641 64.0518 47.5609 64.0518 47.7589C63.9006 47.7589 63.6993 47.9579 63.6993 48.1546C63.6993 48.3526 63.7494 48.551 63.7494 48.7484C63.7494 48.8457 63.7494 48.8959 63.8 48.9943C63.8506 48.8959 63.9507 48.7484 64.0518 48.6981C64.1019 48.6981 64.2025 48.6002 64.3532 48.6002C64.2532 48.7484 64.2025 48.9943 64.1019 49.1923L63.9506 49.341C63.9506 49.341 63.9006 49.4405 63.9006 49.4886C64.0519 50.5283 64.4032 51.5173 64.8064 52.556C64.4539 53.247 64.102 53.99 63.9507 54.5334C63.8 54.9292 63.6004 55.7208 63.6004 55.7208C63.3485 55.4742 62.9954 55.4245 62.6935 55.4245C62.3422 55.4742 62.0402 55.5726 61.7883 55.8689C61.487 55.7208 61.0844 55.77 60.8832 56.0171C60.4312 56.4145 60.4312 56.6113 60.4312 56.9076C60.2799 57.0564 60.0787 57.3046 60.0787 57.6495C60.0787 58.1448 60.1798 58.44 60.4312 58.8369H68.4254C68.3253 58.6888 68.2241 58.4909 68.1235 58.3427C67.9734 58.0453 68.074 57.6495 68.074 57.3532C68.2241 57.0564 68.4254 56.7595 68.5777 56.4632C68.6261 56.3151 68.5777 56.315 68.6778 56.2647L69.0298 56.1171C69.23 56.1171 69.3823 56.0171 69.6336 56.0171C69.8338 56.2647 69.8338 55.8197 70.0862 55.7208C70.69 55.671 71.1921 55.7208 71.494 56.1653C71.494 56.2647 71.5946 56.2647 71.5946 56.3151H71.3427C71.0409 56.1653 70.6388 56.0171 70.2863 56.1653C70.2863 56.3151 70.2357 56.3151 70.2357 56.4632V56.7103C70.4376 56.7595 70.5882 56.9076 70.7895 57.0564C70.8896 56.8579 71.1921 56.7103 71.4428 56.7103C71.6947 56.7103 72.0973 56.8579 72.0973 57.3045C72.0973 57.5019 72.0466 57.7004 72.0466 57.8977C72.2473 58.0453 72.5498 58.0934 72.8017 58.2426C72.7005 58.393 72.5498 58.393 72.3997 58.393H71.946C71.8954 58.3427 71.7947 58.3427 71.7947 58.2426C71.6441 58.393 71.5434 58.639 71.4428 58.8369H77.5795C77.4788 58.639 77.3765 58.4909 77.3276 58.3427C77.1769 58.0453 77.2258 57.6495 77.1769 57.3532L77.7796 56.5632C78.0826 56.5632 78.384 56.4632 78.9367 56.4145C79.0362 56.2647 78.9367 56.1653 79.3882 56.1171C79.7901 56.1171 80.0431 56.2647 80.1448 56.3151C80.1937 56.4145 80.1937 56.4145 80.1448 56.5135C80.0431 56.6113 79.8423 56.4145 79.6912 56.4632C79.5911 56.5632 79.7417 56.6113 79.7417 56.7103C79.8423 56.8088 79.2897 56.6113 79.2897 56.6113C79.2897 56.6113 79.1379 56.9076 79.0879 57.0564C79.0879 57.0564 79.3392 57.2051 79.3882 57.3532C79.4899 57.5019 79.2897 57.6495 79.2897 57.7988C79.1379 57.749 78.985 57.5992 78.9367 57.6495C78.836 58.0453 78.9367 58.393 78.8844 58.8369H79.4393L79.5399 57.9463C79.5911 57.4511 80.1938 56.5135 80.5457 56.5135C80.7987 56.5135 80.8988 56.6113 81.1001 56.7595C81.2491 56.9076 81.4503 57.0564 81.4503 57.1542C81.4503 57.205 81.3002 57.3046 81.0489 57.3046C80.9488 57.3046 80.8988 57.1542 80.7987 57.0564L80.4957 57.3532C80.4957 57.3532 80.8477 57.6495 80.8477 57.8977C80.8477 58.0934 80.7987 58.2426 80.5958 58.3427L80.2955 57.749C80.1448 57.749 79.8907 58.0453 79.8907 58.2426C79.8907 58.44 79.7901 58.5417 79.7901 58.8369H83.0577C83.4125 58.8369 83.7132 58.7369 84.0663 58.5417H84.7191C85.6259 58.5417 86.7825 58.393 87.9873 57.2542C89.8989 55.4742 90 53.0491 90 52.1099V52.1099ZM69.6336 58.8369C69.3822 58.3427 69.3316 57.6495 69.3316 57.5019C69.3316 57.205 69.3316 56.8579 69.4818 56.6113L68.8797 56.7595C68.7779 56.9076 68.7278 57.0564 68.7278 57.1542L68.9286 57.0564C69.0298 57.0564 69.0809 57.1542 69.1299 57.2051C69.081 57.5018 68.7779 57.5018 68.6261 57.5992C68.4765 58.0934 68.9286 58.393 69.0298 58.8369H69.6336Z" fill="#EB6606"/>
</g>
<defs>
<clipPath id="clip0_24_359">
<rect width="80" height="23" fill="white" transform="translate(10 38)"/>
</clipPath>
</defs>
</svg>
