<svg width="100" height="100" viewBox="0 0 100 100" fill="none" xmlns="http://www.w3.org/2000/svg">
<rect x="0.5" y="0.5" width="99" height="99" fill="white" stroke="#008B00"/>
<path d="M10.2576 49.559V40.3558H50.0549H89.8522V49.559V58.7621H50.0549H10.2576V49.559ZM89.6311 49.5788V40.5933L50.0457 40.5933L10.4602 40.5933L10.4696 49.5788L10.479 58.5642H50.0551H89.6311V49.5788ZM54.5874 53.1578C54.5367 53.1482 54.3958 53.1215 54.2742 53.0985C53.9636 53.0397 53.624 52.924 53.3506 52.7838C53.1169 52.664 52.5791 52.2538 52.5791 52.1953C52.5791 52.1782 52.7584 52.0019 52.9776 51.8034L53.3762 51.4425L53.5778 51.6189C53.9189 51.9174 54.2086 52.0399 54.7517 52.1154C55.1137 52.1657 55.6445 52.1395 55.9358 52.0569C56.3577 51.9373 56.5404 51.7458 56.5404 51.4232C56.5404 51.2586 56.5231 51.198 56.457 51.1313C56.2907 50.9635 56.1075 50.9193 55.2543 50.8415C54.7979 50.7998 54.316 50.7373 54.1835 50.7024C53.3076 50.4721 52.8449 49.8191 52.9686 48.9876C53.0424 48.4909 53.3636 48.0687 53.8603 47.8153C54.2627 47.61 54.5885 47.5452 55.2138 47.5458C55.8254 47.5465 56.2454 47.6205 56.7055 47.8088C57.0027 47.9303 57.5353 48.2519 57.5353 48.3098C57.5353 48.3354 57.0915 48.7545 56.826 48.9795C56.7707 49.0264 56.7229 49.0125 56.458 48.8719C56.0461 48.6535 55.7311 48.5785 55.2138 48.5758C54.6771 48.573 54.412 48.6495 54.2113 48.8651C54.0875 48.998 54.0715 49.0375 54.0715 49.209C54.0715 49.6143 54.2716 49.7101 55.2978 49.7964C55.6874 49.8292 56.1215 49.876 56.2625 49.9005C57.2033 50.0636 57.6548 50.5486 57.658 51.3996C57.6596 51.8514 57.5643 52.1128 57.2778 52.4417C56.8547 52.9277 56.2721 53.1382 55.2875 53.1611C54.9531 53.1689 54.638 53.1674 54.5874 53.1578ZM61.5666 53.1258C61.1825 53.0583 60.7836 52.9275 60.503 52.777C60.2671 52.6505 59.7463 52.251 59.7463 52.1966C59.7463 52.1788 59.8748 52.0485 60.0319 51.907C60.1889 51.7655 60.3686 51.6032 60.431 51.5465L60.5446 51.4433L60.7253 51.6037C61.158 51.9878 61.5857 52.1262 62.3442 52.1274C63.2861 52.1289 63.7255 51.8997 63.7259 51.4064C63.726 51.2711 63.7042 51.2117 63.6218 51.1232C63.4585 50.9478 63.3269 50.9213 62.0364 50.8037C61.036 50.7127 60.5192 50.4424 60.2588 49.8743C59.9516 49.204 60.1592 48.4177 60.7597 47.9768C61.6411 47.3298 63.4116 47.3998 64.4739 48.1237C64.6098 48.2163 64.721 48.3013 64.721 48.3126C64.721 48.3441 63.9534 49.0246 63.9178 49.0246C63.9006 49.0246 63.7941 48.9708 63.6813 48.9052C63.0392 48.5316 62.1185 48.453 61.5661 48.7247C61.3286 48.8415 61.2387 48.9796 61.2387 49.2275C61.2387 49.6146 61.4529 49.7122 62.4916 49.7977C63.3229 49.8662 63.6375 49.9167 63.9103 50.0251C64.3192 50.1877 64.554 50.4037 64.7159 50.7663C64.8019 50.959 64.8131 51.0318 64.8131 51.4004C64.8131 51.7911 64.8056 51.8332 64.6922 52.0807C64.4805 52.5426 64.0249 52.8836 63.376 53.0657C62.9975 53.1719 62.015 53.2046 61.5666 53.1258ZM15.5516 53.1149C15.5381 53.1004 15.527 51.8535 15.527 50.344V47.5996H16.0982H16.6694V50.3704V53.1413H16.1228C15.8221 53.1413 15.5651 53.1294 15.5516 53.1149ZM19.8753 50.3715V47.5996H20.4464H21.0176V47.7389V47.8783L21.1742 47.7921C21.6909 47.5078 22.6608 47.4489 23.2607 47.6653C23.7943 47.8578 24.261 48.2674 24.4565 48.7149C24.6404 49.1356 24.6473 49.2265 24.6473 51.2413V53.1215L24.0853 53.1324L23.5233 53.1433L23.5229 51.3511C23.5224 49.3891 23.5108 49.2593 23.3117 48.9888C23.2541 48.9105 23.1086 48.7933 22.9884 48.7284C22.797 48.6249 22.7226 48.6084 22.387 48.5951C21.7418 48.5694 21.3569 48.7351 21.1398 49.1318L21.036 49.3215L21.0176 51.2215L20.9992 53.1215L20.4372 53.1324L19.8753 53.1433V50.3715ZM29.2039 53.0992C28.9185 53.0588 28.5593 52.8838 28.3556 52.6862C28.163 52.4992 27.9881 52.1195 27.9441 51.7924C27.9253 51.6526 27.9096 50.8657 27.9092 50.0439L27.9084 48.5496H27.5399H27.1714V48.0746V47.5996H27.5399H27.9084V46.8079V46.0163H28.4796H29.0508V46.8079V47.5996H29.6772H30.3036V48.0746V48.5496H29.6772H29.0508V50.1349C29.0508 51.8981 29.0521 51.9088 29.2915 52.0162C29.3764 52.0543 29.5606 52.0725 29.8613 52.0725H30.3058L30.2955 52.597L30.2852 53.1215L29.8614 53.1269C29.6284 53.1299 29.3325 53.1175 29.2039 53.0992ZM33.0305 50.3715V47.5996H33.6019H34.1733L34.1639 50.3605L34.1544 53.1215L33.5924 53.1324L33.0305 53.1433V50.3715ZM37.3787 50.3704V47.5996H37.9315H38.4842V47.7359V47.8723L38.6777 47.7809C39.3125 47.4809 40.1596 47.4511 40.8175 47.7057C41.0977 47.8141 41.4042 48.0068 41.5208 48.148C41.6131 48.2597 41.6321 48.2565 41.8129 48.0992C42.031 47.9093 42.3613 47.7365 42.7035 47.6332C43.0809 47.5192 43.8174 47.5094 44.2106 47.6132C44.9567 47.8103 45.4741 48.2987 45.6794 49C45.7602 49.2757 45.762 49.3238 45.762 51.2017V53.1215L45.221 53.1324L44.6801 53.1433L44.6663 51.2918C44.6509 49.2233 44.6495 49.2112 44.3909 48.9253C44.1538 48.663 43.9902 48.6096 43.422 48.6094C42.9807 48.6091 42.9038 48.6194 42.7403 48.7001C42.5196 48.8092 42.3388 48.9874 42.2304 49.2027C42.1524 49.3578 42.1505 49.3999 42.1401 51.2511L42.1296 53.1413H41.5808H41.032L41.0182 51.2907C41.0026 49.2044 41.0028 49.2061 40.7243 48.9069C40.5018 48.6678 40.1878 48.5754 39.6711 48.597C39.2113 48.6161 38.9805 48.7032 38.7676 48.938C38.4978 49.2355 38.5039 49.1836 38.4917 51.2709L38.4808 53.1413H37.9298H37.3787V50.3704ZM48.9126 50.3704V47.5996H49.4653H50.0181V50.3704V53.1413H49.4653H48.9126V50.3704ZM67.5952 50.3704V47.5996H68.148H68.7007V50.3704V53.1413H68.148H67.5952V50.3704ZM71.9066 50.3715V47.5996H72.4778H73.0489V47.7389V47.8783L73.1936 47.799C73.6842 47.5301 74.5792 47.4551 75.1678 47.6335C75.4903 47.7312 75.7821 47.8907 76.0241 48.1015L76.1803 48.2375L76.4228 48.0517C76.6914 47.8458 77.0516 47.6744 77.3826 47.5951C77.7382 47.5098 78.4679 47.5287 78.8085 47.632C79.5832 47.8669 80.0769 48.3642 80.2518 49.0856C80.2987 49.279 80.3083 49.6411 80.3083 51.2298V53.1413H79.7555H79.2028V51.3276C79.2028 49.3024 79.195 49.2262 78.9609 48.9478C78.7611 48.7103 78.5188 48.6164 78.0557 48.5971C77.4357 48.5712 77.0302 48.7462 76.82 49.1304L76.7154 49.3215L76.697 51.2215L76.6786 53.1215L76.1166 53.1324L75.5547 53.1433V51.3286C75.5547 49.3023 75.547 49.2262 75.3128 48.9478C75.113 48.7103 74.8707 48.6164 74.4076 48.5971C73.7202 48.5684 73.3225 48.7722 73.1102 49.2621C73.0804 49.3309 73.0617 49.933 73.0489 51.2413L73.0305 53.1215L72.4685 53.1324L71.9066 53.1433V50.3715ZM83.4773 50.3704V47.5996H84.03H84.5828V50.3704V53.1413H84.03H83.4773V50.3704Z" fill="black"/>
</svg>
