<svg width="100" height="100" viewBox="0 0 100 100" fill="none" xmlns="http://www.w3.org/2000/svg">
<rect x="0.5" y="0.5" width="99" height="99" fill="white" stroke="#008B00"/>
<path d="M40.1807 46.4242C40.0907 46.7613 40.3968 47.0806 40.721 47.0452C41.2974 46.921 41.2974 46.0516 40.595 46.0516C40.3788 46.1758 40.2528 46.2113 40.1807 46.4242V46.4242ZM86.6296 46.6548C86.5396 46.9919 86.8458 47.3468 87.17 47.2758C87.8363 47.1871 87.8003 46.2468 87.0799 46.2468C86.8458 46.371 86.7197 46.4242 86.6296 46.6548ZM80.8303 49.05C80.8303 48.6774 80.7943 47.8613 80.9203 47.6484C81.1365 47.3645 82.001 47.4355 82.4332 47.4H82.7214C83.2977 47.4 83.2257 47.7726 83.2257 48.2694V49.4226C83.1356 49.8839 83.2257 50.3274 83.1356 50.7355C83.0456 51.1081 82.8474 51.3919 82.6313 51.6758C82.4692 51.8887 82.1631 52.1726 81.7488 52.0484C80.6142 51.7645 80.8303 50.3629 80.8303 49.05ZM73.5541 50.0435C73.3379 51.0726 73.428 52.3145 74.0944 52.7935C74.2204 52.8823 74.3465 53.0065 74.5086 53.0419C75.211 53.2903 75.7153 52.8823 76.0935 52.5806C76.3097 52.421 76.5618 52.2081 76.922 52.2968C77.4623 52.421 77.6244 52.9532 78.2188 53.0774C78.5069 53.1129 78.7591 52.9887 78.9752 52.9177C79.3174 52.7048 79.5515 52.5097 79.9838 52.421C80.2359 52.3855 80.4521 52.5097 80.5601 52.5806C80.9023 52.7403 81.1905 52.9887 81.6047 53.0774C81.8569 53.1129 82.073 52.9887 82.1811 52.9532C82.5233 52.7403 82.7574 52.4919 83.1896 52.421C83.4058 52.3855 83.6039 52.5097 83.73 52.5452C84.0181 52.7048 84.2343 53.0065 84.6485 53.0774C85.3509 53.2371 86.0713 52.6161 86.5216 52.421C86.7377 52.3323 86.9899 52.3323 87.188 52.421C87.3501 52.5452 87.5302 52.6694 87.6923 52.7935C87.9804 53.0065 88.5748 53.1661 89.1151 53.0419C89.2772 53.0065 89.4032 52.9532 89.5293 52.8823C89.6554 52.7935 90.0336 52.5984 89.9976 52.3855C89.9976 52.3855 89.9976 52.35 89.9616 52.35C89.7995 52.3145 89.4213 52.4742 89.2051 52.4742C88.5027 52.5984 87.9984 52.0661 87.8183 51.6581C87.6923 51.3742 87.6022 51.0371 87.5302 50.6645C87.5302 50.4516 87.4941 50.2919 87.4941 50.0968C87.4041 49.6887 87.4941 49.2806 87.1159 49.1919C86.5396 49.0677 86.6477 50.0613 86.5756 50.4694C86.4495 51.2855 86.2874 51.7468 85.567 52.0306C85.1888 52.1903 84.7746 52.1903 84.4864 51.9419C83.9821 51.5339 83.9821 50.7887 83.9821 49.8839V48.6419C83.9821 48.3048 83.8921 47.6129 84.0722 47.4C84.2883 47.1161 84.8646 47.2758 85.2068 47.1516C85.2969 47.1161 85.4229 47.0274 85.4229 46.8677C85.3329 46.4065 84.4684 46.7435 84.1622 46.4952C83.784 46.2113 84.2883 45.0048 83.748 44.8097C83.5859 44.721 83.4058 44.8452 83.3337 44.9339C83.1716 45.1468 83.2077 45.6258 83.2077 45.9984C83.2077 46.1581 83.2077 46.2823 83.1716 46.4065C83.1356 46.4952 83.0456 46.5661 82.9555 46.6194C82.8294 46.6548 82.6673 46.6194 82.4512 46.6548C82.163 46.6548 81.9109 46.6548 81.6227 46.6903C81.4606 46.6903 81.2445 46.7258 81.0824 46.6903C80.38 46.5306 81.2085 44.8452 80.326 44.8452C80.1639 44.9339 80.0738 44.9694 79.9838 45.129C79.8577 45.5016 80.0198 46.1581 79.8937 46.5306C79.7316 46.9032 79.0112 46.6548 78.7591 47.0274C78.7231 47.0629 78.669 47.1516 78.7231 47.2758C78.8491 47.8081 79.6416 47.4887 79.8577 47.8081C79.9838 48.021 79.9478 48.6774 79.9478 49.05C79.9478 50.1145 79.9117 50.8952 79.5335 51.5694C79.4435 51.729 79.3714 51.8532 79.1913 51.9774C79.0653 52.0661 78.9752 52.1371 78.8131 52.2258C78.651 52.3145 78.3989 52.3145 78.2368 52.2613C77.5704 52.0129 77.6064 51.1435 77.4803 50.4161C77.3903 50.0081 77.5704 49.3871 77.1381 49.2984C76.6699 49.2097 76.6338 50.079 76.5618 50.4516C76.3997 51.2677 76.1476 52.1016 75.3011 52.2613C74.7968 52.3855 74.5086 51.9774 74.4186 51.6048C74.3825 51.4452 74.3825 51.2323 74.3825 51.0371C74.3465 50.7532 74.3825 50.4161 74.4186 50.1323C74.4546 49.7597 74.3285 49.1919 73.9503 49.2629C73.6441 49.2097 73.5901 49.7065 73.5541 50.0435V50.0435ZM61.4871 44.2419C61.5231 44.4548 61.8653 44.3661 62.0274 44.3306C62.4957 44.2065 63.072 43.9581 63.1981 44.579C63.2341 45.6435 63.2881 46.7613 63.3241 47.8258C63.3241 48.1629 63.3241 48.4823 63.3602 48.8194C63.3602 49.2274 63.3602 49.6887 63.3962 50.0968V50.4516C63.4862 50.9129 63.3602 51.6403 63.7384 51.8177C63.9545 51.9065 64.0806 51.729 64.1166 51.5694C64.2427 51.2855 64.2427 50.8774 64.2787 50.5048V50.1677C64.2787 49.7952 64.2787 49.4226 64.3147 49.05C64.3147 48.3048 64.3507 47.5242 64.3507 46.779V45.3419V44.65V44.1887C64.3867 44.0645 64.4408 43.9403 64.5669 43.9048C64.819 43.7806 65.8636 43.6919 66.2778 43.7806C66.62 43.8161 66.9082 43.8694 67.1964 43.9048C68.241 44.1532 69.1595 44.65 69.7539 45.3952C70.0961 45.8032 70.3302 46.2645 70.5463 46.7968C70.6364 47.0806 70.6724 47.4177 70.7624 47.7903C70.8885 48.571 70.7264 49.5113 70.5103 50.0968C69.8439 51.8177 68.5472 52.6161 66.548 53.0242C66.2598 53.1129 65.9176 53.0597 65.5935 53.1484H64.7109C64.5488 53.1484 64.3327 53.1484 64.1706 53.1129C63.9545 53.1129 63.7024 53.0774 63.5042 53.0774C63.2161 53.0419 62.9279 52.9887 62.5857 52.9532C62.4236 52.9177 62.2075 52.8645 62.0454 52.9177V52.9532C62.1354 53.1129 62.3336 53.1129 62.5137 53.2016C62.9279 53.3613 63.3962 53.45 63.8464 53.5742C66.2238 54.1065 68.8173 53.3613 70.2401 52.421C71.2487 51.729 71.9511 50.8597 72.3294 49.4935C72.4194 49.1565 72.5455 48.5532 72.4554 48.1274V47.8435C72.4194 47.5597 72.4194 47.2758 72.3294 47.0274C72.2033 46.5306 72.0412 46.0339 71.789 45.6613C70.7624 43.9403 68.9614 43 66.2418 43C66.1158 43 65.9897 43 65.8276 43.0355C65.5754 43.071 65.3233 43.1242 65.0711 43.1242C64.1886 43.2839 63.2701 43.4081 62.5137 43.7452C62.2615 43.8339 61.9734 43.9048 61.7572 44.029C61.5591 44.029 61.433 44.1177 61.4871 44.2419V44.2419ZM33.0306 51.5161C33.5709 51.5161 33.8591 52.3855 33.2827 52.5452C32.9045 52.6694 32.2381 52.421 32.3642 52.0129C32.4002 51.6758 32.7424 51.6048 33.0306 51.5161V51.5161ZM37.173 51.4452C37.263 51.4452 37.3351 51.4452 37.4251 51.4806C37.6413 51.5694 37.9294 51.9419 37.8033 52.2258C37.7133 52.3855 37.5512 52.4742 37.3351 52.5097C36.9569 52.5984 36.3805 52.2968 36.5426 51.8887C36.6327 51.6048 36.9208 51.5161 37.173 51.4452V51.4452ZM22.4584 50.1677C22.0802 51.0371 22.6205 52.0129 23.1248 52.4387C23.7552 52.9355 24.7458 53.1839 25.7904 52.9C26.2947 52.7403 26.7089 52.4387 27.2492 52.3677C27.3753 52.3323 27.5374 52.3677 27.6274 52.4032C28.1317 52.5629 28.636 53.1484 29.3024 52.9355C29.5185 52.8468 29.7167 52.7758 29.8788 52.6516C30.347 52.3145 30.7072 51.871 30.9594 51.3387C31.1215 51.0016 31.2475 50.5935 31.4276 50.2742C31.5537 50.1145 31.8059 49.9903 32.058 50.1145C32.1841 50.15 32.2741 50.2387 32.3462 50.3274C32.4362 50.4161 32.5083 50.4871 32.5623 50.5758C32.6524 50.7 32.5983 50.8597 32.5263 50.9484C32.4362 51.0371 32.3102 51.1081 32.1841 51.1968C31.968 51.321 31.8059 51.5339 31.6438 51.6935C31.3016 52.1548 31.3556 52.5629 31.8599 52.8468C32.5623 53.2548 34.3273 53.3435 34.5254 52.4387C34.6155 52.1016 34.4354 51.7823 34.3634 51.5339C34.3273 51.4097 34.2013 51.2855 34.2373 51.0726C34.2733 50.8597 34.4894 50.7887 34.6155 50.6645C34.9037 50.4161 35.1918 50.1677 35.534 49.9194C35.6601 49.8306 35.8222 49.7952 36.0023 49.8839C36.1284 49.9194 36.2544 50.0435 36.3445 50.1323C36.4706 50.221 36.7587 50.4694 36.7227 50.6645C36.6867 50.8242 36.5606 50.9129 36.4346 51.0016C36.0924 51.2145 35.2639 51.9065 35.7321 52.4387C35.8222 52.5274 35.9483 52.5984 36.0743 52.6871C36.2905 52.8113 36.5786 52.9 36.8308 52.971C37.6593 53.1839 38.6318 52.9355 38.7939 52.279C38.956 51.6581 38.1275 51.1613 38.7579 50.7532C38.884 50.7177 38.974 50.629 39.1001 50.5935C39.2262 50.5581 39.4423 50.4339 39.6404 50.4694C40.0547 50.5581 40.0546 51.0016 40.2167 51.3387C40.4329 51.871 40.7931 52.7758 41.3514 52.9355C41.6396 53.0242 41.8917 52.8468 42.0178 52.7226C42.432 52.3855 42.7202 51.9065 43.0624 51.4452C43.1885 51.2855 43.4046 50.9484 43.6928 50.9839C44.161 51.0726 44.1971 52.0129 44.3591 52.4742C44.3952 52.6871 44.4852 52.8823 44.7013 52.9355C44.9535 53.0242 45.1696 52.5984 45.2417 52.4387C45.4578 51.9419 45.7459 50.9129 46.2502 50.7532C46.4664 50.6645 46.6285 50.8419 46.7185 50.9661C46.9707 51.3387 46.8806 52.0839 47.0607 52.5629C47.0967 52.7226 47.2768 53.0242 47.529 52.9355C47.8712 52.8468 47.9072 52.4387 48.0333 52.1548C48.1954 51.6581 48.3755 51.0371 48.8618 50.8774C49.24 50.7532 49.366 51.1258 49.4381 51.3387C49.6542 51.871 49.7803 52.6516 50.3206 52.9C50.6088 53.0242 50.951 52.9 51.1491 52.8113C51.6534 52.5629 51.9055 52.1194 52.5359 52.0306C52.698 51.9952 52.8781 52.0661 53.0042 52.1194C53.2923 52.279 53.5445 52.4919 53.8326 52.6516C54.6611 53.1484 55.7958 52.9 56.4622 52.4919C56.9665 52.1548 57.3807 51.6758 57.5968 51.0548C57.939 50.0258 57.2186 49.2452 56.5162 48.9613C56.0119 48.7484 55.1294 48.7484 54.5891 48.9613C54.499 48.9968 54.1208 49.1742 54.2109 49.2984C54.2469 49.3871 54.427 49.3339 54.499 49.3339C54.7512 49.2984 55.0754 49.2097 55.4176 49.2452C56.174 49.3694 56.8404 49.9016 56.5522 50.8419C56.5162 50.9661 56.4261 51.1258 56.3361 51.25C56.0479 51.7113 55.0754 52.2435 54.2109 51.9952C53.7066 51.8355 53.2923 51.4984 53.1662 51.0016C53.0402 50.629 53.0402 50.0081 53.1302 49.6C53.1662 49.3871 53.0942 49.1387 52.8781 49.1919C52.6259 49.2274 52.4638 50.0081 52.3738 50.2565C52.1216 50.9129 51.7074 51.6581 50.9149 51.7823C50.5367 51.8177 50.3746 51.4984 50.2486 51.25C50.0324 50.7177 49.9604 50.0613 49.8343 49.4758C49.7443 49.1387 49.7443 48.8194 49.4201 48.7839C49.1679 48.7484 48.9518 48.9081 48.8798 49.0323C48.5916 49.4048 48.4115 49.9016 48.1233 50.2742C47.9973 50.3984 47.8352 50.6468 47.547 50.6113C47.0427 50.5226 46.9707 49.8306 46.7906 49.3694C46.7005 49.2097 46.5744 48.8016 46.3223 48.8726C45.818 48.9613 45.6559 49.9371 45.4398 50.3984C45.3497 50.5581 45.1516 50.8952 44.8094 50.7355C44.2331 50.4871 44.5573 49.0855 43.9269 48.9258C43.5487 48.8371 43.2965 49.3339 43.1705 49.5823C42.8823 50.079 42.6662 50.7 42.342 51.1435C42.2159 51.3565 42.0538 51.6048 41.7656 51.6403C41.4234 51.6758 41.2613 51.3565 41.1893 51.1435C41.0272 50.6823 40.9372 50.2032 40.8111 49.6532C40.7751 49.3161 40.7751 49.0323 40.5229 48.8726C40.1807 48.6597 39.9466 49.0323 39.7305 49.2097C39.3162 49.4935 38.902 49.7419 38.4337 50.0258C38.3076 50.1145 38.0555 50.2742 37.8033 50.2387C37.5512 50.2032 37.3891 49.9903 37.227 49.8661C36.8848 49.6177 36.5966 49.3339 36.3085 49.05C36.1464 48.8903 35.9663 48.5887 35.6781 48.5887C35.6421 48.6242 35.552 48.6242 35.516 48.6242C35.2999 48.7484 35.2279 49.0323 35.1018 49.2452C34.8857 49.5823 34.2733 50.2387 33.841 50.3097C33.5889 50.3452 33.3728 50.0613 33.2647 49.9726C32.8505 49.5645 32.5083 49.1919 31.968 48.9435C31.7518 48.8548 31.3916 48.6597 31.1395 48.8194C30.9234 48.9435 30.9234 49.5645 30.8513 49.8129C30.5992 50.5048 30.1849 51.3032 29.6446 51.7468C29.4285 51.9065 29.1403 52.1548 28.7621 52.0839C28.0597 51.9242 27.9336 51.0548 27.7535 50.3629C27.6635 50.0258 27.6274 49.3694 27.3393 49.3339C27.0871 49.2984 27.0511 49.4935 26.9971 49.7065C26.9611 49.9194 26.9971 50.1145 26.9971 50.3629V50.7355C26.9611 50.9839 26.9611 51.1968 26.871 51.3919C26.6189 51.9597 25.7904 52.5452 24.8718 52.3855C24.6557 52.35 24.4936 52.35 24.3315 52.2968C23.8272 52.0839 23.5391 51.729 23.413 51.1081C23.377 50.8952 23.449 50.7355 23.5031 50.5758C23.7192 49.9194 24.2955 49.7952 25.088 49.671C25.3401 49.6355 26.1326 49.7597 26.2226 49.5823C26.3127 49.4226 25.9705 49.2984 25.8804 49.2452C25.4662 49.0323 24.7998 48.9081 24.2055 49.0323C23.377 49.05 22.7466 49.5113 22.4584 50.1677V50.1677ZM10.0132 52.9532C9.97722 53.2016 10.0132 53.45 10.1393 53.5742C10.3014 53.6984 10.6436 53.6984 10.8057 53.5742C11.0578 53.3613 11.0939 52.7581 11.1839 52.3855C11.4721 51.0194 11.7603 48.9258 12.0664 47.5774C12.1565 47.2403 12.2285 46.3355 12.6428 46.3887C13.111 46.4242 13.1471 47.5419 13.2731 47.9855C13.4893 49.0145 13.6513 50.0081 13.8495 51.0371C13.9755 51.5694 13.9755 52.1548 14.2277 52.5629C14.4438 52.8468 14.9301 53.2194 15.4884 53.0242C16.0647 52.7758 16.2449 52.0306 16.443 51.4629L18.0639 47.2581C18.226 46.7613 18.4421 46.2645 18.6042 45.821C18.6943 45.6613 18.7663 45.4129 19.0185 45.4484C19.6488 45.5371 19.3607 46.8855 19.4867 47.5065C19.5768 49.3161 19.6128 50.6823 19.7029 52.4387C19.8289 53.1839 19.4867 54 20.3692 54C20.4593 54 20.5313 54 20.5854 53.9645C21.0536 53.8403 21.0536 53.1484 20.9636 52.5984C20.9636 52.3145 20.9276 52.0661 20.9276 51.7823C20.9276 51.5694 20.8915 51.3742 20.8915 51.1613C20.7475 49.05 20.6214 47.4 20.4953 45.3065C20.4053 44.7387 20.5313 43.7452 20.2432 43.3726C20.0811 43.1597 19.7749 43.1242 19.4147 43.1242H19.1625C18.9464 43.1597 18.7843 43.1597 18.6582 43.2484C18.3701 43.4613 18.1179 44.4016 17.9919 44.8097C17.4876 46.1758 16.9833 47.5242 16.479 48.8903C16.2629 49.4226 16.1008 49.9548 15.9027 50.4871C15.8126 50.7355 15.6865 51.0194 15.4344 51.0548C15.1822 51.0903 15.0562 50.8952 15.0201 50.7177C14.804 50.2565 14.804 49.6532 14.732 49.1565C14.5158 47.8435 14.2637 46.4774 14.0656 45.1645C13.9755 44.7032 13.9395 43.8871 13.6513 43.6387C13.4352 43.479 12.7688 43.3903 12.3906 43.5145C11.8503 43.6742 11.8143 44.7032 11.6342 45.2887C11.2199 47.0984 10.8057 49.6177 10.3734 51.4274C10.2114 51.9774 10.1033 52.4742 10.0132 52.9532" fill="#1D1D1B"/>
</svg>
