<svg width="100" height="100" viewBox="0 0 100 100" fill="none" xmlns="http://www.w3.org/2000/svg">
<rect x="0.5" y="0.5" width="99" height="99" fill="white" stroke="#008B00"/>
<path fill-rule="evenodd" clip-rule="evenodd" d="M85.9591 10C88.1909 10 90 12.3879 90 15.3326V84.6667C90 87.6121 88.1909 90 85.9591 90H14.0412C11.8094 90 10 87.6121 10 84.6667V15.3326C10 12.3879 11.8094 10 14.0412 10H85.9591Z" fill="#D52B1E"/>
<path fill-rule="evenodd" clip-rule="evenodd" d="M50.082 45.7319C48.9934 37.6827 45.405 23.1652 38.5614 23.1652C30.5717 23.1652 21.1842 50.003 21.1865 72.2222H28.5543C28.5543 48.9177 34.2624 27.9197 38.3698 27.9188C42.6542 27.9184 46.4089 42.202 46.4089 69.4153H53.7668C53.7668 42.202 57.4988 27.9188 61.8062 27.9188C65.906 27.9188 71.61 48.9216 71.61 72.2222H78.9778C78.9708 49.984 69.6071 23.1625 61.6032 23.1652C54.7689 23.1675 51.1794 37.6809 50.082 45.7319" fill="#FDC82F"/>
<path fill-rule="evenodd" clip-rule="evenodd" d="M18.7191 70.3271H18.3824C18.0997 70.3271 17.8405 70.3134 17.8405 69.9843C17.8405 69.7079 18.0759 69.6661 18.2945 69.6661H18.7191V70.3271ZM19.0409 69.4048H18.2409C17.7498 69.4048 17.5189 69.5996 17.5189 69.9978C17.5189 70.3746 17.7548 70.5312 18.0608 70.5639L17.4714 71.4816H17.8165L18.3783 70.5886H18.7191V71.4816H19.0409V69.4048ZM18.35 71.9616C17.534 71.9616 16.8993 71.3059 16.8993 70.437C16.8993 69.5843 17.534 68.9289 18.35 68.9289C19.1779 68.9289 19.8096 69.5843 19.8096 70.437C19.8096 71.3059 19.1779 71.9616 18.35 71.9616ZM18.35 68.6674C17.3857 68.6674 16.5777 69.4322 16.5777 70.437C16.5777 71.4569 17.3857 72.2222 18.3502 72.2222C19.3193 72.2222 20.1333 71.4569 20.1333 70.437C20.1333 69.4322 19.3193 68.6674 18.3502 68.6674H18.35Z" fill="#FDC82F"/>
</svg>
