<svg width="100" height="100" viewBox="0 0 100 100" fill="none" xmlns="http://www.w3.org/2000/svg">
<rect x="0.5" y="0.5" width="99" height="99" fill="white" stroke="#008B00"/>
<g clip-path="url(#clip0_27_19)">
<path d="M19.5369 45.8671C18.3705 47.8252 18.988 50.4126 20.9091 51.6014C21.3208 51.8112 21.7324 52.021 22.1441 52.0909L20.2916 50.2028L20.7033 49.3636C20.4288 49.1538 20.223 48.8042 20.223 48.3846C20.223 48.1049 20.2916 47.8252 20.4288 47.6154H20.0172V49.5734C19.7427 49.5734 19.5369 49.3636 19.5369 49.0839V47.6154C19.5369 47.3357 19.7427 47.1259 20.0172 47.1259H23.9966L23.4477 45.8671H19.5369ZM25.4374 48.1049H26.1921C26.6038 48.1748 26.6724 48.3147 26.6038 48.7343L26.1235 49.7133L25.6432 49.5035L25.9863 48.7343H25.6432L25.2316 49.7133L24.7513 49.5035L25.0257 48.7343H23.3105L22.5558 50.2028L24.271 51.8811C26.398 51.1818 27.6329 48.8741 26.9468 46.6364C26.8782 46.4266 26.8096 46.1469 26.6724 45.9371C26.4666 45.7972 25.4374 45.8671 25.4374 45.8671V48.1049ZM23.1733 52.1608L21.2522 50.2727L21.9383 48.8042H22.2127L21.5952 50.1329L23.5163 52.1608C23.3791 52.1608 23.2419 52.1608 23.1733 52.1608ZM24.7513 45.2378H26.0549C25.3002 44.3986 24.2024 43.9091 23.036 43.9091C21.8697 43.9091 20.7719 44.3986 20.0172 45.2378H24.1338L24.4082 44.6783C24.4769 44.5385 24.6827 44.4685 24.8199 44.5385C24.9571 44.6084 25.0257 44.7483 24.9571 44.8881L24.7513 45.2378ZM18.0961 48.035C18.0961 45.2378 20.2916 43 23.036 43C25.7118 43 27.9074 45.2378 27.9074 47.965C27.9074 50.6923 25.7118 52.9301 23.036 52.9301C20.2916 53 18.0961 50.7622 18.0961 48.035Z" fill="#DA1F3D" stroke="#DA1F3D" stroke-width="0.077" stroke-miterlimit="3.864"/>
<path d="M30.2401 51.0419C30.1715 51.6013 30.3088 51.951 30.2401 52.5104C30.9262 52.7901 31.2007 52.93 32.5729 52.9999C32.8473 52.9999 33.8079 52.9999 34.5626 52.5104C34.9743 52.2307 36.0034 51.4615 36.0034 49.9929C36.0034 49.3636 35.7976 48.6643 35.3173 48.1748C34.6998 47.6153 33.6021 47.3356 32.8473 46.9859C32.1612 46.7062 31.8868 46.4964 31.681 46.2167C31.4751 45.937 31.4065 45.6573 31.4065 45.3076C31.4065 44.7482 31.8182 43.7692 33.1218 43.7692C34.0137 43.7692 34.2882 44.0489 34.5626 44.1887C34.9057 44.3985 35.1115 44.888 35.1115 44.958H35.3859C35.3859 44.5384 35.3173 44.1188 35.3173 43.6293C34.8371 43.4195 34.6998 43.3496 34.151 43.2796C33.8079 43.2097 33.4648 43.2097 33.3962 43.2097C32.0926 43.2097 31.4751 43.5594 31.0635 43.9789C30.5146 44.4685 30.2401 45.1678 30.2401 45.8671C30.2401 46.7062 30.6518 47.4055 31.3379 47.8251C31.6124 48.0349 32.0926 48.2447 32.916 48.5244C33.3962 48.7342 33.8765 48.8741 34.2882 49.2237C34.7684 49.6433 34.9057 50.2027 34.9057 50.4824C34.9057 51.1817 34.5626 52.3006 32.9846 52.3706C32.5729 52.3706 32.2299 52.3006 32.0926 52.2307C31.4751 52.0209 30.9262 51.6013 30.789 51.3915C30.6518 51.2517 30.6518 51.1118 30.5146 50.902L30.2401 51.0419ZM55.7633 43.3496C55.3516 44.1188 55.0772 44.8181 54.6655 45.5873C54.3225 46.3566 53.9108 47.1258 53.4991 47.895C53.1561 48.5244 52.8817 49.1538 52.5386 49.7132C52.4014 50.0629 52.1955 50.3426 51.9897 50.6223C51.5781 49.923 51.1664 49.1538 50.7547 48.4545C50.3431 47.6153 49.8628 46.8461 49.4511 46.0069C49.1767 45.4475 48.8336 44.888 48.5592 44.3286C48.422 43.9789 48.2161 43.6992 48.0103 43.3496C47.8045 43.3496 47.6672 43.3496 47.53 43.3496C47.187 46.0069 46.4323 52.2307 46.295 52.7901C46.7067 52.7901 47.187 52.7901 47.2556 52.7901C47.3242 52.0908 47.3242 51.3915 47.3928 50.6223C47.4614 49.8531 47.53 49.0838 47.5986 48.3146C47.7359 47.5454 47.8045 46.6363 47.8731 45.7971C48.3534 46.7062 48.8336 47.6153 49.3139 48.4545C49.7256 49.2237 50.1372 49.9929 50.5489 50.7622C50.8919 51.4615 51.235 52.0908 51.5094 52.7901H51.8525C51.9897 52.5104 52.0583 52.3006 52.1955 51.951C52.3328 51.6713 52.47 51.3915 52.6072 51.1118C53.4991 49.2936 54.3911 47.4755 55.283 45.6573C55.4889 47.0559 55.6261 48.4545 55.7633 49.8531C55.8319 50.8321 56.0377 51.8111 56.0377 52.7901H57.5472C57.4786 52.4405 57.41 52.0908 57.3413 51.8111C57.2727 51.3216 57.2041 50.972 57.1355 50.4824C57.0669 49.923 56.9983 49.3636 56.9297 48.8041C56.7925 47.895 56.7238 46.9859 56.5866 46.1468C56.6552 45.5174 56.518 44.958 56.4494 44.3985C56.3808 44.0489 56.3808 43.6992 56.3122 43.3496H55.7633ZM70.5832 43.3496C70.5832 43.8391 70.6518 44.3286 70.6518 44.8181C70.6518 45.5873 70.7204 46.3566 70.7204 47.1258C70.7204 47.6153 70.7204 48.0349 70.7204 48.4545C70.7204 49.2237 70.7204 49.9929 70.7204 50.7622C70.7204 51.4615 70.6518 52.0908 70.5832 52.7901C70.9263 52.7901 71.5437 52.7901 71.6124 52.7901C71.5437 52.2307 71.6124 51.6013 71.5437 51.0419C71.4751 50.3426 71.4751 49.7132 71.4751 49.0139C71.4751 47.965 71.4065 46.8461 71.4065 45.7971C71.9554 46.3566 72.5043 46.916 73.0532 47.4055C74.0137 48.3845 74.9743 49.2936 75.8662 50.2727C76.6895 51.1118 77.4443 51.951 78.199 52.7901H78.6106C78.6106 52.1608 78.6106 51.5314 78.6106 50.902C78.6106 50.2727 78.6106 49.5034 78.6106 48.8741C78.6106 47.7552 78.6106 46.9859 78.6106 45.937C78.6106 45.0978 78.6106 44.1887 78.6793 43.3496C78.4048 43.3496 77.7873 43.3496 77.7187 43.3496C77.7873 43.7692 77.7187 44.1887 77.7873 44.6782C77.7873 45.1678 77.8559 45.7272 77.8559 46.2167C77.9245 47.6153 77.9245 49.0139 77.9245 50.4824C77.1012 49.5734 76.2093 48.7342 75.3859 47.8251C74.6998 47.1258 74.0823 46.4964 73.4648 45.8671C72.9846 45.3775 72.4357 44.8181 71.9554 44.2587C71.681 43.9789 71.4751 43.6293 71.2007 43.3496H70.5832ZM38.4734 51.0419C38.4048 51.6013 38.542 51.951 38.4734 52.5104C39.1595 52.7901 39.434 52.93 40.8062 52.9999C41.0806 52.9999 42.0412 52.9999 42.7959 52.5104C43.2076 52.2307 44.2367 51.4615 44.2367 49.9929C44.2367 49.3636 44.0309 48.6643 43.5506 48.1748C42.9331 47.6153 41.8353 47.3356 41.0806 46.9859C40.3945 46.7062 40.1201 46.4964 39.9142 46.2167C39.7084 45.937 39.6398 45.6573 39.6398 45.3076C39.6398 44.7482 40.0515 43.7692 41.3551 43.7692C42.247 43.7692 42.5214 44.0489 42.7959 44.1887C43.1389 44.3985 43.3448 44.888 43.3448 44.958H43.6192C43.6192 44.5384 43.5506 44.1188 43.5506 43.6293C43.0703 43.4195 42.9331 43.3496 42.3842 43.2796C42.0412 43.2097 41.6981 43.2097 41.6295 43.2097C40.3259 43.2097 39.7084 43.5594 39.2967 43.9789C38.7479 44.4685 38.4734 45.1678 38.4734 45.8671C38.4734 46.7062 38.8851 47.4055 39.5712 47.8251C39.8456 48.0349 40.3259 48.2447 41.1492 48.5244C41.6295 48.7342 42.1098 48.8741 42.5214 49.2237C43.0017 49.6433 43.1389 50.2027 43.1389 50.4824C43.1389 51.1817 42.7959 52.3006 41.2178 52.3706C40.8062 52.3706 40.4631 52.3006 40.3259 52.2307C39.7084 52.0209 39.1595 51.6013 39.0223 51.3915C38.8851 51.2517 38.8851 51.1118 38.7479 50.902L38.4734 51.0419ZM81.904 43.3496C81.904 43.8391 81.9726 44.3286 81.9726 44.8181C81.9726 45.5873 82.0412 46.3566 82.0412 47.1258C82.0412 47.6153 82.0412 48.0349 82.0412 48.4545C82.0412 49.2237 82.0412 49.9929 82.0412 50.7622C82.0412 51.4615 81.9726 52.0908 81.904 52.7901C82.1784 52.7901 82.8645 52.7901 82.9331 52.7901C82.8645 52.2307 82.9331 51.6013 82.8645 51.0419C82.7959 50.3426 82.7959 49.7132 82.7959 49.0139C82.7959 47.965 82.7273 46.8461 82.7273 45.7971C83.2762 46.3566 83.8251 46.916 84.3739 47.4055C85.3345 48.3845 86.295 49.2936 87.187 50.2727C88.0103 51.1118 88.765 51.951 89.5197 52.7901H89.9314C89.9314 52.1608 89.9314 51.5314 89.9314 50.902C89.9314 50.2727 89.9314 49.5034 89.9314 48.8741C89.9314 47.7552 89.9314 46.9859 89.9314 45.937C89.9314 45.0978 89.9314 44.1887 90 43.3496C89.7256 43.3496 89.1081 43.3496 89.0395 43.3496C89.1081 43.7692 89.0395 44.1887 89.1081 44.6782C89.1081 45.1678 89.1767 45.7272 89.1767 46.2167C89.2453 47.6153 89.2453 49.0139 89.2453 50.4824C88.422 49.5734 87.53 48.7342 86.7067 47.8251C86.0206 47.1258 85.4031 46.4964 84.7856 45.8671C84.3053 45.3775 83.7564 44.8181 83.2762 44.2587C83.0017 43.9789 82.7959 43.6293 82.5214 43.3496H81.904Z" fill="#DA1F3D" stroke="#DA1F3D" stroke-width="0.077" stroke-miterlimit="3.864"/>
<path d="M16.9983 52.7902C16.3808 52.0209 15.6947 51.2517 15.0772 50.4825C14.5283 49.7132 13.9108 48.944 13.2933 48.1049C14.048 47.965 14.7341 47.8251 15.283 47.2657C15.7633 46.8461 15.9691 46.2167 16.0377 45.5874C16.0377 45.1678 15.9005 44.6783 15.6261 44.3286C15.0772 43.4895 14.1852 43.4195 13.8422 43.4195C13.705 43.4195 13.4991 43.4195 13.3619 43.4195H10.8233L10 43.3496V52.7902H11.4408C11.4408 52.4405 11.3722 52.1608 11.3722 51.8111C11.3722 51.3916 11.3722 51.0419 11.3722 50.6223C11.3722 49.8531 11.3722 49.0139 11.3722 48.2447L11.6467 48.1748C12.3328 49.0139 12.9503 49.8531 13.5678 50.6923C14.048 51.3916 14.5969 52.0909 15.0772 52.7902H16.9983ZM11.4408 43.979C11.7839 43.979 12.0583 43.909 12.4014 43.909C12.7444 43.909 13.0875 43.909 13.3619 44.0489C13.7736 44.1888 14.5969 44.5384 14.5969 45.7272C14.5969 46.986 13.705 47.4056 13.2933 47.5454C12.6072 47.8251 11.5094 47.7552 11.3722 47.7552C11.3722 47.1958 11.3722 46.6363 11.3722 46.0769C11.3722 45.3776 11.3722 44.6783 11.4408 43.979ZM63.5163 43.3496C63.3105 43.909 63.1046 44.3986 62.8302 44.958C62.4871 45.7272 62.2127 46.4965 61.8696 47.1958C61.458 48.1748 61.0463 49.0839 60.6346 50.0629C60.223 50.972 59.8113 51.951 59.3997 52.7902C59.6741 52.7902 60.0858 52.7902 60.4288 52.7902C60.8405 51.4615 60.9777 51.1818 61.7324 49.1538C62.3499 49.1538 62.9674 49.1538 63.6535 49.1538C64.2024 49.1538 64.6827 49.1538 65.2316 49.1538C66.1235 51.1818 66.3293 51.5314 66.741 52.7902H68.319C68.1132 52.3706 67.976 52.0209 67.7702 51.5314C67.4957 50.972 67.2213 50.4125 67.0154 49.7832C66.741 49.0839 66.3979 48.3846 66.0549 47.6153C65.8491 47.0559 65.5746 46.4265 65.3002 45.7972C65.0943 45.3077 64.8885 44.8881 64.6827 44.4685C64.5455 44.1188 64.3396 43.6993 64.2024 43.3496H63.5163ZM62.1441 48.4545C62.4185 47.8251 62.6244 47.3356 62.8302 46.7063C63.036 46.1468 63.2419 45.7972 63.4477 45.2377L64.8885 48.4545H62.1441V48.4545Z" fill="#DA1F3D" stroke="#DA1F3D" stroke-width="0.077" stroke-miterlimit="3.864"/>
</g>
<defs>
<clipPath id="clip0_27_19">
<rect width="80" height="10" fill="white" transform="translate(10 43)"/>
</clipPath>
</defs>
</svg>
